<?xml version="1.0" encoding="UTF-8"?>
<svg id="Lag_1" data-name="Lag 1" xmlns="http://www.w3.org/2000/svg" viewBox="0 0 346.35 47.93">
  <defs>
    <style>
      .cls-1, .cls-2 {
        fill: #f7f797;
      }

      .cls-2 {
        font-family: SuperFunky, 'Super Funky';
        font-size: 36px;
      }

      .cls-2, .cls-3 {
        isolation: isolate;
      }

      .cls-4 {
        letter-spacing: -.09em;
      }

      .cls-5 {
        letter-spacing: -.03em;
      }
    </style>
  </defs>
  <g class="cls-3">
    <text class="cls-2" transform="translate(0 32.38)"><tspan x="0" y="0">Næ</tspan><tspan class="cls-5" x="73.22" y="0">s</tspan><tspan x="99.61" y="0">te </tspan><tspan class="cls-4" x="164.92" y="0">F</tspan><tspan x="183.82" y="0">ase</tspan></text>
  </g>
  <path class="cls-1" d="M310.7,15.48c-4.6.3-6.9.4-9,0-6.8-1.1-7.8-4.2-11.8-3.8-3.9.4-7.4,4.3-8.5,8.5-1.2,4.9.9,9.9,4.3,12.3,3.9,2.8,8.8,1.7,16.1,0,10.8-2.5,16.9-6.9,18.9-4.7,1.7,1.8-1.6,5.8.5,8,2,2.3,7.4.5,9,0,1.3-.4,2.8-1.1,9.6-6.1,5.8-4.3,6.3-5,6.5-6,.2-1.2,0-2.6-6.1-9.7-6.2-7.2-7.9-8.2-9.5-8.7-2.3-.9-6.9-1.9-8.7.2-1.8,2,.9,5.1-.8,7.6-1.2,1.7-4.3,1.9-10.4,2.3l-.1.1Z"/>
</svg>