<?xml version="1.0" encoding="UTF-8"?>
<svg xmlns="http://www.w3.org/2000/svg" version="1.1" viewBox="0 0 233.6 233.9">
  <defs>
    <style>
      .cls-1 {
        stroke-width: 2px;
      }

      .cls-1, .cls-2, .cls-3 {
        fill: none;
        stroke: #c2858c;
        stroke-miterlimit: 10;
      }

      .cls-2 {
        stroke-width: .8px;
      }

      .cls-4 {
        font-family: SuperFunky, 'Super Funky';
        font-size: 60px;
      }

      .cls-4, .cls-5 {
        isolation: isolate;
      }

      .cls-4, .cls-6 {
        fill: #c2858c;
      }

      .cls-3 {
        stroke-width: 22px;
      }
    </style>
  </defs>
  <!-- Generator: Adobe Illustrator 28.7.7, SVG Export Plug-In . SVG Version: 1.2.0 Build 194)  -->
  <g>
    <g id="Lag_1">
      <g class="cls-5">
        <g class="cls-5">
          <text class="cls-4" transform="translate(-317.8 54)"><tspan x="0" y="0">Tilbage</tspan></text>
        </g>
      </g>
      <path class="cls-3" d="M222.2,117.3c0,16.9-4,29.4-5.4,33.5-5.1,14.8-12.5,24.4-16.3,29.4-9.7,12.6-19.9,20.3-25.3,23.9-8.3,5.6-15.5,8.9-19.3,10.5-6.7,2.8-20.7,8.5-39.3,8.3-5,0-24.7-.7-45.7-12.7-16.5-9.5-25.6-21.2-33.3-31.4-11.9-15.7-26.4-34.9-26.6-61.5-.1-20.4,8.2-38,13-48,2.4-5,5.5-11.5,11-19.1,4.2-5.8,25.5-35.1,59.3-39.1,2-.2,8.8,0,22.4.5,33.1,1.2,38.4,3.5,41.1,4.8,3.9,1.9,10,6,22.3,14.2,4.8,3.2,7.2,4.8,8.6,5.9,5.4,4.2,11.8,10.9,19.4,27.5,7.1,15.4,14.3,31.1,14.4,53.3h-.3,0Z"/>
      <path class="cls-1" d="M81.2,91.6c-.2,5.6.4,10,.7,11.9.8,5.4,2.1,9.3,2.4,10.1,2,6,4.9,14.5,13.1,20.6,8.1,5.9,16.7,6.1,19.4,6.1s9-.2,15.1-4.1c5-3.2,7.6-7.4,8.7-9.2.9-1.5,2.6-4.7,4.5-16.6.1-.9,1.8-12.5.4-26.5-.2-2.2-.6-5-2.7-6.4-3.4-2.2-9,1.3-9.9,1.8-.1-1.9-.4-4.6-1.2-7.8-1.2-4.5-3.1-8.3-3.5-8.2-.3,0,.2,2.1,1.3,9.4.7,4.6.8,5.9,0,6.9-1,1.1-2.4,1-6.6,1.3-7.7.5-7.8,1.3-9,.7-6.1-2.7-3.7-19.7-5-19.7s-1.3,3.2-1.8,7c-1.1,8.3-.4,14.7-.6,14.7-.3,0-2-20.5-3.1-20.5s-.6,2.6-1.6,13.4c-.3,3.2-.6,5.9-.8,7.7-2,.8-3.9,1.6-6,2.3-2.9,1.1-5.7,2.1-8.4,3.1-.9-2.5-1.9-6-2.1-10.3-.2-6.6,1.9-11.5,1.8-11.5,0,0-4.7,9.9-5.1,23.8h0Z"/>
      <path class="cls-1" d="M87.9,123.4c-.6.3-1.6.7-2.8.6-3,0-4.9-2.7-6.2-4.3-2.8-3.5-3-7.3-3-8.4s0-3.6,1.3-5.8c.3-.6.9-1.4,1.9-2.2h0c.6-.2,1.5-.3,2.7.2"/>
      <path class="cls-1" d="M83.9,120.8c-2,.2-3.6,1.4-4.3,3-1,2.4.5,5.1,2.3,6.2,2.5,1.5,6.4.5,8.4-2.8"/>
      <path class="cls-1" d="M146.1,93.1c.4-.5,1.7-1.7,3.4-1.7,2.8,0,4.3,3.6,4.7,4.3,1.6,3.5.7,7.1,0,9.3-.4,1.6-1.7,6.2-5.2,7.8-1.1.5-2.1.6-2.8.5h-1.1"/>
      <path class="cls-1" d="M148.3,109.4c.6-.2,2.1-.7,3.4,0,2.5,1.2,3.6,5.6,1.4,8-1.7,1.8-4.7,1.8-6.6.6-.9-.6-1.5-1.4-1.7-2"/>
      <g>
        <path class="cls-1" d="M107.2,126.1c3.3.2,7.2,0,11.6-.4,4.2-.5,7.9-1.3,11-2.2"/>
        <path class="cls-1" d="M112.1,130.2c.6.4,3.7,2.4,7.7,1.6,3.4-.7,5.4-2.8,5.9-3.5"/>
        <path class="cls-1" d="M125.3,124.6c-.5-.4-4.1-3.3-8.9-2.2-3.3.7-5.3,3-5.8,3.7"/>
      </g>
      <path class="cls-1" d="M112.7,103.9c0,1.3-.3,3.4-.8,5.9-.6,2.9-1.2,4-.6,4.9.4.6,1.7,1.5,6.8.2"/>
      <ellipse class="cls-6" cx="100.8" cy="103.2" rx="3" ry="3.9" transform="translate(-14.9 17) rotate(-9)"/>
      <path class="cls-6" d="M131.2,98.3c.3,2.1-.7,4.1-2.3,4.3s-3.2-1.3-3.5-3.4.7-4.1,2.3-4.3c1.6-.3,3.2,1.3,3.5,3.4Z"/>
      <path class="cls-1" d="M93.3,101.7c1-.8,3.3-2.4,6.6-2.8,2.5-.3,4.5,0,5.6.4"/>
      <path class="cls-1" d="M122.2,97c.6-.6,2.3-2.3,5.2-2.8,3.1-.6,5.5.6,6.2,1"/>
      <path class="cls-1" d="M91.8,91.2c1.1-.6,3.1-1.6,5.8-1.8,2.8-.3,5.1.3,6.3.7"/>
      <path class="cls-1" d="M120.8,86.8c1.1-.7,3-1.8,5.6-2.3,2.8-.5,5.1,0,6.4.2"/>
      <path class="cls-1" d="M173.6,176.9c-2.8-5.7-7.9-13.8-16.3-18.9-4.9-2.9-11.8-5.3-13.1-5.8-3.3-1.2-5.4-3-8.1-2.4-2.4.6-2.9,2.3-5.1,4.3-6,5.4-14.7,4.7-15,4.7-6.1-.6-11-4.3-12.6-5.6-2.6-2-2.8-2.9-4.7-3.4-2.6-.7-4.8.3-12,3.9-5.2,2.6-7.8,3.8-8.1,4.1-8.3,5-13.8,12.9-16.7,18,2.5,3.2,21.7,26.7,54.8,27.4,34.2.7,54.6-23.3,57.1-26.3h-.2,0Z"/>
      <path class="cls-1" d="M94.4,157.1l6.4-5.9-6.4,5.9Z"/>
      <path class="cls-1" d="M100.8,161.4l4.7-6.4-4.7,6.4Z"/>
      <path class="cls-1" d="M107.2,165.5l3.4-7.4-3.4,7.4Z"/>
      <path class="cls-1" d="M115.6,167.5l.3-8.5-.3,8.5Z"/>
      <path class="cls-1" d="M123,167.5l-1-8.5,1,8.5Z"/>
      <path class="cls-1" d="M129.8,164.4l-2.9-7.3,2.9,7.3Z"/>
      <path class="cls-1" d="M137.5,159.9l-6.6-5.7,6.6,5.7Z"/>
      <path class="cls-1" d="M141.6,156.1l-6.6-4.9,6.6,4.9Z"/>
      <path class="cls-1" d="M140.6,126.9c3.1.5,8.8,1,14.8-1.7,1.8-.8,4.4-2,6.6-4.7,3.9-4.8,3.6-10.7,4.2-10.7s.6,3.4.2,7c-.5,4-1.5,6.4-1.2,6.6.4.2,2.8-3.3,4.2-7.3.9-2.5,2.4-7.8.6-17.5-.6-3.3-2.3-10.2-7.7-20.5-5.1-9.7-10.2-19.4-21.2-26.1-4-2.4-10.7-6.5-18.9-5.9-2.1,0-2.5.5-11.5,2-10.1,1.8-10,1.4-12,2-7.5,2.3-12,7.9-15.9,12.8-4.3,5.4-6.3,10.1-10.2,19.4-4.8,11.4-6.1,18-6.6,22.2-.8,5.8-1.1,11.3,1.8,15.1.4.5,1.8,2.2,2.9,4.7.9,2,2.1,4.9.8,6.2-1.1,1.2-3.8.9-5.5-.2-1.8-1.3-2-3.4-2.5-3.3-.5,0-.9,2.2-.2,3.9,1,2.2,3.4,2.9,3.7,2.9,2.2.5,4-.9,4.3-.4.2.3-.5,1.2-1.4,1.8-2.1,1.5-4.6.8-4.7,1.1,0,.3,4.2,2.5,7.8,1,3.3-1.4,4.7-5.3,5.1-5.1s-1.7,3.2-1,4.8c.9,2.1,7,2.5,23.3-1.3"/>
      <path class="cls-1" d="M157.3,115.8c-.3,1.6-.8,3.5-1.8,5.7-.9,1.9-1.9,3.5-2.7,4.7"/>
      <path class="cls-1" d="M104.8,138.1c0,1.1.2,3.7-1.1,6.5-1.6,3.3-4.1,4.9-5.1,5.4"/>
      <path class="cls-1" d="M128.3,138.1c0,1.2,0,3.6,1.3,6.3,1.7,3.4,4.5,5,5.5,5.6"/>
      <circle class="cls-2" cx="106.9" cy="119.9" r=".3"/>
    </g>
  </g>
</svg>