<?xml version="1.0" encoding="UTF-8"?>
<svg id="Lag_1" xmlns="http://www.w3.org/2000/svg" viewBox="0 0 117.01 117.38">
  <defs>
    <style>
      .cls-1 {
        fill: #742028;
      }
    </style>
  </defs>
  <path class="cls-1" d="M39.83,43.25c-.12-.04-.26-.05-.4-.05-.14,0-.27.03-.4.09-.13.05-.24.13-.32.24-.09.11-.15.23-.17.36-.02.13-.02.25,0,.38.02.13.06.25.12.36.06.11.13.2.22.27.09.08.19.12.3.13.11.01.21,0,.31-.04.1-.04.2-.09.29-.16.09-.07.17-.14.24-.22.06-.07.12-.16.18-.27.06-.1.09-.21.12-.33.02-.11.02-.22,0-.32-.02-.1-.08-.19-.17-.27-.09-.07-.19-.13-.32-.16Z"/>
  <path class="cls-1" d="M115.19.64c-5.02-.18-10.03-.47-15.05-.62-11.12-.33-21.54,2.56-31.49,7.2-16.52,7.71-29.66,19.55-40.66,33.91-9.81,12.8-16.46,27.28-21.99,42.3C2.29,93.52.07,103.97,0,114.79c-.01,2.27.27,2.56,2.48,2.58,2.8.02,5.61,0,8.41,0v-.04c2.86,0,5.73-.04,8.59.02,1.52.03,2.22-.51,2.29-2.11.17-3.56.51-7.11,1.15-10.62,1.78-9.67,5.44-18.68,9.41-27.63,6.64-14.92,15.76-27.95,28.21-38.58,8.75-7.46,18.51-13,29.85-15.57,7.73-1.75,15.49-.31,23.23-.36,2.47-.02,2.64-.01,2.73-2.56.19-5.72.39-11.44.65-17.15.06-1.38-.35-2.07-1.82-2.13ZM26.29,78.97c-.21.45-.42.82-.64,1.1s-.45.5-.69.63c-.24.13-.51.19-.79.18s-.6-.1-.94-.25l-.11-.05c-.28-.13-.55-.28-.83-.47-.28-.18-.56-.37-.84-.56-.29-.19-.57-.38-.87-.57-.29-.19-.58-.35-.87-.49-.29-.13-.57-.23-.85-.3-.28-.06-.55-.12-.82-.17-.27-.05-.54-.1-.8-.16-.27-.06-.54-.15-.8-.28-.31-.15-.56-.32-.74-.51-.18-.2-.31-.41-.38-.64-.07-.23-.09-.47-.06-.72.04-.25.11-.51.23-.76.12-.26.27-.48.45-.66.18-.18.37-.32.58-.4.21-.09.42-.13.65-.13.22,0,.44.05.65.15.23.1.43.26.63.47.19.21.39.44.6.68.21.24.44.48.69.72.25.24.55.43.89.59.46.21.87.29,1.25.22s.64-.25.78-.57c.11-.24.13-.47.06-.69-.07-.22-.16-.44-.27-.66-.11-.22-.19-.45-.26-.68-.07-.23-.04-.47.08-.72.18-.38.5-.6.96-.65.46-.05,1.01.08,1.65.38,1.17.54,1.86,1.32,2.09,2.32.22,1,0,2.21-.65,3.63ZM30.62,68.49c-.08.55-.29,1.15-.6,1.78-.3.6-.63,1.09-1,1.47-.37.38-.76.65-1.17.82-.41.17-.84.24-1.29.2-.45-.04-.91-.17-1.36-.4-.47-.24-.91-.49-1.31-.77-.4-.28-.76-.49-1.08-.65-.21-.1-.42-.19-.64-.27-.22-.07-.45-.15-.67-.22-.23-.07-.46-.15-.69-.23-.23-.08-.46-.18-.69-.29-.29-.15-.55-.32-.78-.51-.23-.19-.4-.41-.53-.65-.13-.24-.2-.49-.21-.76,0-.27.06-.55.2-.83.26-.52.62-.83,1.1-.94.48-.11,1.01-.02,1.61.27.26.13.49.27.7.43.21.16.41.32.58.47.18.16.34.3.5.44.16.14.31.24.45.31.15.08.32.14.51.19.19.05.37.08.56.08.18,0,.36-.03.51-.1.16-.06.28-.18.37-.35.08-.15.11-.31.09-.46s-.07-.31-.16-.47c-.09-.15-.21-.29-.36-.42-.15-.13-.32-.24-.52-.34-.19-.1-.39-.17-.59-.22-.2-.05-.41-.1-.61-.14s-.41-.09-.62-.15c-.21-.05-.42-.14-.64-.24-.24-.12-.46-.26-.64-.42s-.32-.34-.4-.54c-.09-.2-.13-.42-.12-.65s.09-.49.22-.77c.1-.21.24-.39.41-.53.17-.15.36-.25.57-.32s.43-.09.67-.07c.24.02.48.09.73.22.25.13.48.26.7.39.21.14.41.27.59.4.18.13.35.25.51.36.16.11.31.2.45.27.14.07.32.14.53.2.21.06.44.13.71.21.26.08.55.17.86.29.31.12.64.26.98.43.39.2.72.46.99.8.27.33.45.73.55,1.18.1.45.11.95.03,1.5ZM34.62,61.64c-.09.32-.22.64-.4.93-.18.3-.39.56-.64.79-.25.23-.52.41-.81.53-.3.12-.61.17-.93.16s-.66-.12-.99-.31l-.04-.02c-.41-.24-.76-.54-1.07-.9-.31-.36-.61-.73-.9-1.11s-.59-.76-.91-1.12c-.31-.36-.67-.66-1.08-.9-.12-.07-.23-.14-.34-.21-.11-.07-.21-.12-.31-.15-.1-.03-.2-.03-.29,0-.09.03-.18.12-.26.26-.07.11-.11.22-.12.35-.02.12-.03.25-.04.38,0,.13-.02.26-.04.39-.02.13-.07.25-.14.38-.17.29-.39.47-.65.54s-.54.01-.84-.17c-.26-.16-.43-.36-.52-.61-.08-.25-.11-.52-.08-.82.03-.29.11-.6.23-.93.12-.32.25-.64.4-.94.15-.3.3-.58.46-.85.16-.26.28-.47.38-.64.12-.2.25-.42.41-.66.15-.24.31-.48.49-.71.17-.23.35-.45.55-.65.2-.2.4-.36.6-.49.26-.15.5-.23.71-.24.21,0,.45.07.71.22.29.18.51.38.63.61.12.23.09.5-.1.83-.09.15-.19.27-.3.36-.11.09-.22.16-.32.23-.11.06-.21.12-.3.19-.09.06-.17.14-.22.24-.05.08-.06.17-.03.25.03.09.08.17.14.25s.15.16.25.23c.1.07.19.13.28.19.41.25.85.42,1.32.52.47.1.94.19,1.42.26.48.07.96.16,1.42.26s.9.27,1.31.52c.33.2.58.43.75.71.17.28.27.57.31.89.04.31,0,.63-.08.96ZM40.03,53.9c-.1.5-.29,1-.57,1.48-.28.49-.56.94-.87,1.37-.26.37-.55.7-.86,1-.31.29-.64.52-.98.67-.34.15-.7.21-1.08.18-.38-.03-.77-.19-1.17-.48-.28-.2-.5-.43-.65-.69-.15-.26-.3-.52-.43-.79-.13-.27-.28-.53-.44-.8-.16-.26-.39-.5-.68-.71-.33-.24-.65-.42-.95-.54-.3-.12-.6-.23-.88-.32s-.55-.19-.82-.29c-.27-.1-.53-.24-.78-.42-.3-.21-.51-.46-.62-.73-.11-.27-.16-.56-.14-.86.02-.3.09-.6.22-.91.13-.31.29-.59.48-.86.32-.45.63-.85.94-1.21s.61-.65.9-.87c.29-.22.57-.35.85-.4.28-.05.54.02.8.2.24.17.4.35.49.55.08.19.12.39.09.6-.02.21-.08.42-.17.63-.09.21-.19.43-.3.64-.11.22-.2.43-.29.64-.09.21-.14.41-.16.61,0,.08,0,.17.02.28.02.1.07.18.14.23.07.05.14.07.22.06s.14-.04.21-.08c.07-.04.13-.1.18-.16.05-.06.1-.12.14-.17.12-.17.25-.36.37-.56s.29-.36.49-.46c.12-.06.27-.11.45-.16.18-.04.33-.02.46.07.14.1.21.22.21.38,0,.16-.02.33-.08.52s-.13.38-.23.58c-.09.2-.17.39-.24.58-.07.18-.1.35-.11.5,0,.15.05.26.17.35.2.14.39.17.58.09.18-.09.34-.21.46-.38.11-.16.21-.32.29-.49s.16-.34.24-.51c.08-.17.16-.34.25-.51.09-.17.19-.33.3-.49.18-.25.37-.43.57-.53.2-.1.4-.15.61-.14.21.01.42.07.64.17.21.1.44.24.66.4.54.39.88.81,1.03,1.29.14.47.16.96.06,1.46ZM46.82,44.69c-.08.29-.25.57-.48.85-.3.36-.61.6-.95.73-.33.13-.66.19-.99.18-.32-.01-.64-.07-.95-.16-.31-.1-.59-.19-.85-.28-.26-.09-.49-.15-.69-.18-.2-.03-.34,0-.44.12-.02.02-.04.05-.06.09-.02.03-.02.07-.02.1-.02.27.05.52.2.75.15.23.33.46.54.67.21.22.42.44.64.66.21.22.37.46.47.73.1.26.12.55.06.86-.06.31-.26.67-.59,1.07-.53.63-1.08,1.01-1.65,1.13-.57.12-1.13-.05-1.69-.52-.21-.18-.38-.41-.5-.68-.12-.27-.22-.56-.29-.87-.08-.31-.13-.62-.17-.93-.04-.31-.09-.59-.15-.84-.09-.4-.22-.75-.39-1.06-.17-.3-.35-.58-.56-.82-.2-.24-.41-.46-.63-.66-.22-.2-.42-.39-.61-.57-.19-.18-.36-.36-.5-.54-.14-.18-.24-.37-.29-.58-.06-.24-.08-.48-.06-.71.02-.24.07-.47.15-.7.08-.23.18-.45.31-.67.13-.21.27-.41.42-.59.23-.27.47-.49.74-.66.27-.17.58-.25.94-.24.18,0,.39.05.63.15s.5.2.77.32c.27.12.54.23.81.34.27.11.52.19.75.23.33.06.64.08.94.08.3,0,.59,0,.88-.02.29-.01.57-.02.85-.02.28,0,.55.02.83.08.27.05.55.14.83.27s.57.31.86.56c.26.22.48.46.65.72.17.26.28.52.32.79.04.27.02.55-.06.84ZM50.22,42.52c-.35.35-.67.63-.98.82s-.59.32-.86.36c-.27.04-.54.01-.81-.1-.26-.11-.53-.29-.8-.55l-.08-.08c-.22-.21-.42-.45-.62-.72s-.4-.54-.61-.81-.41-.55-.62-.83c-.21-.28-.43-.53-.66-.75-.23-.23-.46-.41-.7-.57-.24-.15-.48-.3-.71-.43-.23-.14-.47-.28-.7-.43-.23-.15-.45-.32-.66-.53-.24-.24-.42-.49-.52-.73-.11-.25-.16-.49-.15-.73,0-.24.07-.47.19-.7.12-.23.28-.44.47-.64.2-.2.42-.36.65-.47.23-.11.46-.17.68-.19.23-.01.44.02.65.1s.4.2.56.36c.18.17.32.39.43.66.11.26.22.54.34.84.11.3.25.6.41.91.16.31.37.59.64.86.36.35.72.57,1.1.63.37.07.68-.03.93-.28.19-.19.28-.4.29-.62,0-.23,0-.47-.03-.71-.03-.25-.03-.49-.02-.73s.12-.46.32-.65c.3-.3.67-.4,1.12-.28.45.11.92.41,1.42.91.91.91,1.31,1.87,1.18,2.89-.13,1.02-.74,2.09-1.84,3.19ZM56.46,35.81c-.06.31-.18.61-.34.89-.16.28-.36.52-.59.72-.27.24-.56.4-.85.5s-.59.13-.89.1c-.3-.03-.58-.12-.86-.27-.28-.15-.53-.36-.76-.62-.24-.27-.43-.57-.59-.89-.16-.32-.31-.65-.45-.98s-.29-.66-.45-.98c-.16-.32-.36-.62-.6-.9-.19-.21-.38-.4-.6-.56-.22-.16-.44-.32-.66-.48-.22-.16-.44-.32-.66-.48-.22-.16-.42-.35-.59-.55-.29-.34-.45-.68-.47-1.03-.02-.35.05-.69.2-1.02.15-.33.36-.65.62-.94.26-.29.53-.56.79-.79.19-.17.44-.36.74-.58.3-.22.62-.39.96-.53.34-.14.67-.2,1-.2s.61.14.85.41c.26.29.36.6.31.91-.05.31-.22.6-.51.85-.19.17-.4.32-.64.44-.23.12-.44.27-.64.44-.18.15-.27.34-.28.56-.01.22.07.42.24.61.08.09.16.14.24.15.08.01.16,0,.23-.04.08-.03.15-.08.23-.15.08-.07.15-.13.21-.19.15-.13.29-.27.43-.41.13-.14.27-.27.42-.4.07-.06.16-.13.25-.2.09-.07.19-.12.29-.16.1-.04.2-.05.3-.04.1,0,.19.06.27.16.08.1.12.19.12.29,0,.1-.04.19-.09.27-.05.09-.12.17-.2.25-.08.08-.15.15-.22.21-.09.08-.21.17-.36.27-.15.1-.3.21-.43.33-.18.15-.3.31-.38.48-.08.17-.04.34.12.52.18.21.44.39.77.54.33.16.69.32,1.07.48.38.16.75.33,1.11.52.36.18.66.4.9.66l.03.04c.22.25.36.53.42.84.06.3.06.61,0,.92ZM72.73,23.77c-.21.53-.55,1.02-1.01,1.49s-1.03.9-1.71,1.29c-.43.25-.89.41-1.38.5s-.97.07-1.44-.02c-.47-.1-.91-.28-1.32-.55-.22-.15-.42-.32-.59-.52.16.24.29.48.38.72.1.29.15.57.13.85-.02.27-.11.54-.26.8-.15.26-.37.5-.67.72-.37.28-.74.44-1.09.49s-.69.03-1-.06c-.31-.09-.61-.21-.88-.38-.28-.16-.53-.32-.76-.46-.23-.15-.44-.26-.62-.34-.18-.08-.33-.07-.46.02-.03.02-.05.04-.07.07-.02.03-.04.06-.04.09-.08.26-.07.52.02.77.09.26.22.52.37.78.15.26.31.52.47.79.16.27.25.54.29.81s-.01.56-.14.85c-.13.29-.41.59-.82.9-.66.49-1.29.73-1.87.71-.58-.01-1.09-.31-1.53-.9-.17-.22-.28-.48-.33-.78-.05-.29-.08-.6-.08-.92,0-.32.01-.63.05-.95.03-.31.05-.6.05-.85,0-.41-.04-.78-.13-1.12-.09-.33-.21-.64-.35-.93-.14-.28-.29-.55-.46-.79-.16-.24-.32-.47-.46-.69-.14-.22-.27-.44-.36-.64-.1-.21-.15-.42-.15-.64,0-.25.03-.48.11-.71.08-.23.18-.44.31-.65.13-.21.28-.4.46-.58.17-.18.35-.34.55-.48.28-.21.57-.37.87-.47.3-.1.62-.11.97-.02.17.04.36.14.58.29.22.15.44.31.67.49.23.18.47.35.71.52.24.17.47.3.67.4.31.13.61.23.9.3.29.07.57.13.85.19.28.06.56.12.83.18.27.06.53.15.79.27.25.12.5.27.75.45.21.16.41.37.61.62-.07-.1-.15-.19-.22-.3-.11-.19-.19-.39-.25-.62-.06-.23-.08-.46-.07-.68.02-.23.08-.44.19-.64.11-.2.27-.36.48-.48.21-.12.43-.19.67-.22.24-.02.48-.04.73-.04s.49-.02.74-.05c.25-.03.48-.1.69-.23.32-.19.42-.37.31-.56-.08-.13-.24-.2-.48-.21-.24,0-.54,0-.88.04-.35.03-.72.07-1.12.1-.4.03-.8.02-1.2-.03-.4-.05-.77-.17-1.11-.35s-.63-.47-.86-.85c-.13-.23-.21-.47-.22-.73-.01-.26.02-.51.09-.77.07-.26.19-.52.33-.77.15-.25.32-.49.5-.71.19-.22.38-.42.59-.6.21-.18.4-.33.6-.44.18-.1.39-.22.63-.34.24-.12.5-.23.77-.34.27-.11.55-.19.83-.26.28-.07.55-.09.81-.08.26.01.49.07.71.18.22.11.4.29.54.53.2.35.29.64.25.88-.03.24-.23.47-.59.67-.17.1-.34.16-.51.19-.18.03-.35.06-.53.08-.18.02-.35.05-.53.08-.17.03-.35.1-.51.19-.16.09-.28.22-.35.38-.08.16-.07.32.02.47.08.13.25.2.52.2s.6-.03.98-.08c.38-.05.8-.1,1.24-.16.44-.05.88-.06,1.32-.03.43.04.83.14,1.21.31s.67.45.9.85c.36.62.57,1.23.64,1.81.06.58-.01,1.14-.23,1.67ZM80.68,19.97c-.11.48-.34.91-.68,1.29-.34.38-.75.71-1.24.99-.48.28-.96.53-1.44.74-.42.19-.83.33-1.25.43-.42.1-.81.13-1.19.08-.37-.04-.71-.17-1.02-.39-.31-.22-.56-.55-.76-1.01-.14-.31-.21-.62-.21-.92s0-.6.03-.9c.02-.3.03-.6.02-.91,0-.31-.08-.63-.23-.95-.17-.37-.35-.69-.55-.95-.2-.26-.4-.5-.59-.72-.19-.22-.38-.44-.56-.66-.18-.22-.34-.47-.46-.76-.15-.34-.21-.65-.17-.94.04-.29.14-.57.31-.82.17-.25.39-.48.65-.67.27-.2.55-.36.85-.5.5-.23.98-.42,1.43-.57.45-.16.85-.26,1.21-.3.36-.04.67-.01.94.09.26.1.46.29.59.58.12.27.17.51.14.72s-.1.4-.22.56c-.12.17-.28.32-.47.46-.19.14-.38.27-.58.4-.2.13-.39.27-.58.4-.18.14-.33.28-.44.45-.05.07-.09.15-.12.25-.04.1-.03.19,0,.27.04.08.09.13.16.16.07.03.14.04.22.03s.16-.02.24-.05c.08-.03.15-.05.21-.08.19-.08.39-.18.6-.3.21-.11.43-.16.66-.15.14,0,.29.04.47.09.18.05.3.15.36.3.07.15.07.3,0,.44-.08.14-.19.27-.33.4-.15.13-.31.26-.49.39-.18.13-.34.25-.5.38-.15.12-.27.25-.35.37-.08.12-.09.25-.03.38.1.23.25.35.45.37.2.02.4-.01.59-.1.18-.08.34-.17.5-.28.16-.11.31-.21.47-.32.15-.11.31-.21.47-.31.16-.1.33-.19.5-.27.28-.13.54-.19.76-.17s.42.07.59.19c.17.12.33.27.46.47.13.2.26.43.37.68.27.61.35,1.15.24,1.63Z"/>
  <path class="cls-1" d="M59.08,25.31c-.11-.07-.24-.11-.37-.14s-.27-.03-.41,0c-.14.02-.26.07-.37.16-.12.09-.2.19-.25.31-.05.12-.08.24-.09.37s0,.26.04.38c.03.12.08.22.15.31.07.1.16.16.26.2s.21.04.31.03c.11-.01.21-.04.32-.09.11-.04.2-.1.29-.16.08-.06.16-.13.23-.22.08-.09.14-.18.19-.29.05-.1.07-.21.08-.31,0-.1-.03-.2-.1-.3-.07-.09-.16-.17-.27-.23Z"/>
  <path class="cls-1" d="M65.11,25.71c.06.08.12.17.18.25-.03-.04-.05-.09-.08-.13-.03-.04-.07-.08-.1-.12Z"/>
</svg>