<?xml version="1.0" encoding="UTF-8"?>
<svg id="Lag_1" xmlns="http://www.w3.org/2000/svg" viewBox="0 0 117.01 116.65">
  <defs>
    <style>
      .cls-1 {
        fill: #742028;
      }
    </style>
  </defs>
  <path class="cls-1" d="M97.29,79.05c.24.12.5.12.78,0,.16-.06.29-.15.4-.25.11-.11.2-.23.26-.37.06-.14.1-.28.1-.43,0-.15-.02-.31-.09-.46s-.15-.29-.25-.4c-.11-.11-.23-.2-.36-.26-.13-.06-.27-.1-.42-.11-.15,0-.3.01-.45.07-.28.11-.47.31-.57.61-.1.29-.08.61.06.96.12.31.3.53.54.64Z"/>
  <path class="cls-1" d="M87.86,57.35c.04.09.1.17.18.27.07.09.16.17.25.23.09.06.19.11.29.13.1.02.2,0,.31-.05.1-.05.19-.13.28-.23.08-.1.15-.22.2-.34.05-.13.08-.26.08-.4s-.03-.27-.09-.39c-.07-.13-.15-.23-.26-.3s-.23-.12-.35-.15c-.13-.03-.25-.04-.38-.02-.12.01-.23.05-.33.1-.11.05-.19.13-.24.22-.05.09-.08.19-.08.3,0,.11,0,.22.03.33.03.11.06.22.11.31Z"/>
  <path class="cls-1" d="M78.01,40.7c.12.03.26.05.4.04s.28-.02.42-.06.24-.09.32-.16c.09-.07.16-.16.21-.26.05-.1.08-.2.1-.31.01-.11,0-.22-.02-.33-.03-.11-.07-.2-.14-.28-.13-.16-.3-.24-.51-.23s-.38.07-.52.19c-.07.06-.16.14-.26.24-.1.1-.19.2-.26.31-.07.11-.11.22-.13.34-.02.12.02.23.1.33.07.08.16.14.29.17Z"/>
  <path class="cls-1" d="M114.19,91.97c-4.31-17-11.41-32.86-20.3-47.93-4.44-7.53-10.18-13.96-17.49-18.88-8.49-5.7-16.91-11.51-25.61-16.89-4.07-2.51-8.38-4.33-13.11-5.21C26.2.94,14.58.66,2.98.02,1.02-.09.74.33.66,2.41.46,8.24.26,14.08,0,19.91c-.06,1.3.32,1.98,1.72,2.03,2.57.08,5.13.22,7.7.36,6.94.36,13.87.83,20.77,1.71,3.96.51,7.54,1.8,10.9,4.01,7.66,5.05,15.33,10.08,22.89,15.27,2.62,1.8,4.95,3.88,6.98,6.34,4.77,5.78,8.08,12.4,11.26,19.13,6.89,14.56,12.62,29.44,13.01,45.84.03,1.49.71,2.08,2.17,2.05,2.86-.05,5.73-.01,8.59-.01v-.02c2.8,0,5.61.01,8.41,0,2.37-.01,2.6-.26,2.6-2.63-.01-7.46-.99-14.81-2.82-22.02ZM41.83,21.43c-.29-.04-.57-.13-.85-.29-.29-.16-.52-.36-.71-.59-.18-.23-.31-.49-.38-.76-.07-.27-.08-.55-.04-.85.04-.3.15-.59.32-.89.23-.4.45-.72.67-.94.22-.22.43-.42.64-.58.21-.16.4-.33.59-.49.18-.16.36-.39.52-.67.09-.16.14-.3.14-.42,0-.12-.04-.2-.13-.25-.08-.04-.17-.02-.29.07-.12.09-.25.21-.39.36-.14.15-.29.32-.45.51s-.32.35-.49.49c-.17.14-.33.24-.5.3s-.33.05-.48-.04c-.15-.09-.25-.22-.29-.4-.04-.18-.04-.38-.02-.6.02-.22.07-.45.14-.69s.13-.46.18-.66c.06-.2.1-.38.12-.52s0-.23-.05-.26c-.07-.04-.14-.04-.23,0-.08.04-.16.09-.23.17-.08.08-.15.17-.21.27-.07.1-.12.19-.16.27-.16.28-.25.56-.28.84-.03.28-.05.56-.05.85,0,.28-.01.56-.04.84s-.12.55-.27.82-.34.51-.55.73-.46.37-.75.46c-.29.09-.62.11-.99.05-.37-.06-.79-.22-1.26-.48-.3-.17-.52-.39-.66-.65-.14-.26-.22-.54-.24-.82-.02-.29.01-.57.08-.85.07-.28.17-.53.29-.75.29-.51.61-.97.95-1.4.35-.42.7-.85,1.07-1.26.37-.42.73-.85,1.09-1.3.36-.45.7-.96,1.02-1.52.14-.25.31-.46.51-.63.2-.17.42-.29.67-.36s.5-.09.78-.05.56.14.85.31c.27.15.46.35.56.6s.15.51.15.79c0,.28-.03.57-.08.86-.06.29-.11.57-.16.82-.05.25-.07.47-.08.66,0,.19.05.31.17.38.09.05.22.03.38-.06.16-.09.35-.22.56-.38.21-.16.44-.33.69-.52.25-.18.51-.34.78-.47.27-.13.54-.2.82-.23s.55.04.82.19c.26.15.46.33.57.52.12.2.17.42.16.66,0,.24-.07.51-.19.81-.12.3-.28.62-.47.97-.13.24-.25.54-.34.92-.09.38-.19.78-.29,1.22-.1.44-.22.89-.37,1.36-.14.47-.33.92-.58,1.34-.32.57-.64,1.02-.96,1.35-.32.33-.62.56-.93.7-.3.14-.6.19-.89.15ZM49.7,25.86c-.47.16-.95.2-1.46.12-.51-.08-1.01-.25-1.5-.51-.5-.26-.96-.53-1.4-.81-.38-.25-.72-.52-1.03-.82-.31-.3-.54-.62-.71-.95-.17-.34-.24-.7-.22-1.07.02-.38.16-.77.43-1.19.19-.29.41-.51.66-.68.25-.17.51-.32.77-.46.26-.14.52-.3.78-.47.26-.17.48-.41.68-.71.22-.34.39-.67.5-.98s.21-.6.29-.89c.08-.28.16-.56.25-.83s.22-.54.39-.8c.2-.31.44-.52.71-.65.27-.12.55-.18.86-.18s.61.07.92.19.6.27.88.45c.46.3.88.6,1.25.89.37.29.67.58.91.86.23.28.38.56.43.84s0,.55-.17.81c-.16.25-.34.42-.53.51-.19.09-.39.13-.59.12-.21-.01-.42-.06-.64-.15-.22-.08-.44-.18-.65-.27-.22-.1-.44-.19-.65-.27-.21-.08-.42-.13-.62-.13-.08,0-.17,0-.28.03-.1.02-.18.07-.23.15-.05.07-.06.15-.05.22.01.07.04.14.09.2s.1.12.17.17c.07.05.12.1.18.13.17.11.37.23.58.35.21.12.37.28.48.47.07.12.12.27.17.44.05.18.03.33-.06.47-.09.14-.22.22-.37.23-.16.01-.33,0-.52-.06-.19-.05-.39-.12-.59-.2-.2-.08-.4-.15-.58-.21-.19-.06-.35-.09-.5-.09-.15,0-.26.06-.34.18-.14.21-.16.4-.07.58s.23.33.4.44c.16.11.33.2.5.27.17.08.35.15.52.22.17.07.35.15.52.23.17.08.34.17.5.28.26.17.45.35.55.54s.16.39.16.6-.05.42-.15.64c-.1.22-.22.45-.37.68-.37.55-.78.91-1.25,1.08ZM57.21,30.76c-.25.1-.51.13-.78.1s-.55-.14-.83-.33c-.28-.19-.48-.41-.61-.67-.13-.26-.2-.53-.21-.82-.01-.29.02-.58.12-.88.09-.29.22-.57.39-.82.12-.17.23-.41.33-.71.11-.3.19-.62.26-.93s.09-.61.08-.87c-.01-.26-.08-.43-.2-.51-.06-.04-.12-.05-.18-.04-.06.01-.12.04-.17.09s-.11.09-.15.15c-.04.06-.08.11-.11.15-.12.18-.2.38-.25.6-.05.22-.1.44-.14.67-.04.23-.1.47-.17.72-.07.25-.19.49-.35.74-.16.24-.35.44-.57.6s-.45.28-.7.34c-.25.07-.5.08-.76.03-.26-.05-.52-.15-.77-.32-.24-.16-.43-.35-.57-.58s-.23-.47-.28-.73-.04-.52.01-.79c.05-.27.16-.52.32-.76.27-.4.57-.77.9-1.1.33-.34.67-.67,1.01-1,.34-.33.67-.66,1-1,.33-.34.63-.7.89-1.09.2-.3.36-.61.49-.94.13-.33.27-.61.43-.85.22-.33.49-.5.83-.51.33-.02.65.07.95.27.29.19.47.4.56.62.09.22.08.5-.03.83-.04.11-.09.28-.15.51-.07.23-.13.48-.2.77s-.13.59-.19.9-.1.6-.12.88c-.02.28-.01.52.02.72.03.2.1.34.22.42.08.05.18.06.29.01.11-.05.22-.11.33-.21.11-.09.2-.19.29-.3.09-.1.15-.18.19-.24.12-.18.22-.37.3-.57.08-.2.15-.41.22-.61s.14-.4.21-.6.17-.38.29-.56c.27-.4.58-.62.93-.66.35-.04.72.07,1.11.33.14.09.26.22.37.38.11.16.18.33.23.51s.06.37.04.55-.07.35-.18.5c-.31.46-.64.89-.99,1.3-.35.41-.68.84-.99,1.3-.2.29-.35.6-.47.92-.12.32-.23.65-.34.99-.1.33-.21.66-.33.98-.12.32-.28.63-.47.92-.19.29-.4.53-.63.74-.23.21-.46.36-.71.46ZM65.57,35.06c-.5.31-1.03.48-1.6.52-.57.04-1.16-.05-1.78-.26-.62-.21-1.25-.54-1.91-.97-.41-.28-.76-.62-1.04-1.02-.29-.41-.49-.84-.61-1.31s-.15-.94-.08-1.42c.06-.48.24-.94.53-1.36.12-.18.27-.34.45-.5s.38-.27.59-.36c.21-.08.43-.12.65-.11.22.01.44.09.64.23.2.13.36.3.49.51.13.21.25.42.36.64.11.22.23.44.37.65s.3.38.51.52c.3.21.52.22.64.04.08-.13.08-.3-.02-.52-.1-.22-.24-.48-.42-.78-.18-.3-.37-.62-.58-.97s-.37-.71-.49-1.09c-.12-.38-.18-.76-.17-1.16.01-.39.14-.77.4-1.14.15-.22.33-.39.56-.51s.47-.21.74-.26c.27-.05.55-.06.84-.03s.58.07.86.15c.28.07.54.16.79.27s.47.22.66.35c.17.12.37.26.58.42.21.16.43.34.64.54.21.2.41.41.59.63s.32.45.42.69.15.48.14.72c0,.24-.09.48-.24.71-.22.33-.45.54-.68.61-.23.08-.52,0-.86-.23-.16-.11-.29-.23-.4-.38-.11-.14-.21-.29-.3-.44-.1-.15-.2-.3-.3-.44-.11-.14-.24-.27-.4-.38-.15-.1-.32-.15-.5-.15s-.32.07-.42.22c-.08.13-.07.31.05.56s.29.53.5.85c.21.32.44.67.68,1.05s.44.77.6,1.17.24.81.25,1.22c0,.41-.12.81-.37,1.18-.4.6-.85,1.05-1.35,1.36ZM70.43,39.98c-.3.12-.61.18-.93.16s-.63-.09-.94-.23c-.31-.14-.59-.32-.86-.54-.26-.22-.49-.47-.68-.75s-.32-.58-.4-.89c-.07-.31-.08-.63,0-.95.07-.32.22-.63.46-.93l.03-.04c.3-.36.66-.67,1.06-.91.4-.25.82-.48,1.24-.71.43-.23.84-.47,1.25-.72s.76-.56,1.06-.92c.09-.1.17-.2.26-.3.09-.1.15-.19.2-.29s.06-.19.04-.28c-.02-.1-.09-.19-.21-.3-.1-.08-.21-.14-.32-.18-.12-.04-.24-.07-.37-.1-.13-.03-.25-.06-.38-.1-.12-.04-.24-.11-.35-.2-.26-.22-.4-.46-.42-.73-.03-.27.07-.54.3-.81.2-.23.42-.37.68-.41.26-.04.53-.02.82.05s.58.2.88.37c.3.17.59.35.86.55s.53.39.76.59.42.36.57.48c.18.15.37.32.58.51.21.19.42.39.62.59.2.21.39.42.55.65.17.22.3.45.39.67.11.28.15.53.12.74-.03.21-.14.44-.33.67-.22.26-.46.44-.7.52s-.51,0-.8-.23c-.13-.11-.24-.23-.31-.35-.07-.12-.13-.24-.17-.36s-.09-.22-.13-.32-.11-.19-.2-.26c-.07-.06-.16-.09-.25-.07-.09.01-.18.05-.27.1-.09.05-.18.12-.27.21-.09.08-.16.17-.23.25-.31.37-.55.77-.73,1.22-.17.44-.34.9-.49,1.36-.15.46-.31.92-.49,1.36-.17.44-.41.85-.72,1.21-.25.29-.52.5-.82.62ZM79.05,52.8c-.43-.36-.84-.84-1.22-1.44-.36-.57-.61-1.11-.74-1.62-.13-.51-.17-.99-.1-1.43.05-.33.17-.63.33-.91-.14.08-.3.15-.47.18-.25.05-.51.05-.77.02-.26-.04-.51-.12-.74-.24-.24-.12-.43-.28-.58-.46-.1-.12-.19-.24-.27-.38-.08-.13-.15-.27-.19-.42s-.07-.29-.07-.44c0-.15.03-.31.1-.46.05-.14.16-.3.32-.5.16-.2.33-.41.53-.63.19-.22.4-.45.61-.69.21-.24.39-.46.54-.67.15-.21.26-.41.32-.58s.05-.31-.03-.42-.2-.16-.33-.18c-.14-.01-.26.02-.36.11-.17.14-.3.32-.39.52-.09.2-.16.41-.23.63-.07.21-.15.42-.24.63-.09.21-.22.39-.41.54-.22.18-.46.29-.73.35-.27.05-.54.05-.81,0-.27-.05-.53-.15-.78-.29-.25-.14-.46-.32-.62-.52-.38-.46-.58-.93-.59-1.39-.01-.46.2-.89.66-1.29l.07-.06c.2-.17.43-.3.68-.4.25-.1.5-.18.75-.26.25-.08.51-.17.75-.26.25-.1.47-.23.68-.4.27-.22.51-.47.72-.74.21-.27.41-.55.6-.83s.4-.56.61-.84c.21-.27.45-.52.72-.74.31-.25.64-.43,1-.51.36-.09.71-.11,1.07-.06.35.05.69.17,1.01.35s.61.43.85.72c.32.39.58.83.79,1.32.2.49.32.99.34,1.49.02.5-.06.99-.23,1.46-.18.47-.49.89-.94,1.26-.33.27-.66.43-.98.46s-.61.02-.88-.03c-.27-.06-.5-.12-.7-.19-.2-.07-.34-.06-.42,0-.07.06-.1.19-.11.39s0,.45.01.74c.01.29.03.6.04.95.01.35,0,.68-.02,1.01-.03.31-.1.6-.19.88.16-.14.33-.28.53-.4.45-.28.89-.53,1.34-.73.44-.2.82-.4,1.11-.59.2-.12.38-.26.56-.41.18-.15.36-.31.54-.46.18-.16.36-.31.55-.47.19-.16.39-.31.61-.44.28-.18.56-.31.84-.4.28-.09.56-.13.83-.12.27.01.52.09.76.22.23.13.44.33.61.6.31.49.39.96.24,1.43-.15.47-.5.88-1.06,1.24-.24.15-.49.28-.73.38-.25.1-.48.18-.7.26-.22.07-.44.14-.63.2-.2.06-.36.14-.5.22-.14.09-.28.2-.43.33s-.26.28-.35.44c-.09.16-.15.32-.18.49-.03.17.01.33.12.5.09.14.21.25.35.32s.3.11.48.11c.18,0,.36-.03.55-.09.19-.06.37-.15.56-.27.18-.12.35-.25.5-.39s.29-.3.44-.45c.14-.15.29-.31.45-.46.16-.15.33-.29.54-.42.23-.15.46-.26.69-.33.23-.07.45-.1.67-.07.22.03.42.11.62.24.2.13.38.33.55.59.12.2.21.4.25.62.04.22.03.44-.02.65-.05.21-.15.42-.29.61-.14.19-.33.36-.56.51-.24.15-.47.28-.7.39-.23.11-.44.21-.65.3-.21.09-.4.17-.57.25-.18.08-.33.16-.47.25-.13.09-.28.2-.45.35-.16.15-.35.31-.55.5-.2.18-.43.38-.69.59-.26.21-.55.42-.88.62-.37.24-.77.38-1.19.44s-.85.01-1.29-.13c-.44-.14-.87-.39-1.3-.75ZM85.11,63.57c-.23-.19-.43-.45-.6-.78-.21-.41-.31-.8-.3-1.15.01-.36.09-.68.22-.98.14-.29.31-.56.52-.81s.4-.47.59-.67.33-.39.44-.56.13-.32.06-.45c-.01-.03-.03-.06-.06-.09-.02-.03-.05-.05-.08-.06-.24-.12-.5-.16-.77-.11s-.55.13-.83.23c-.28.11-.57.22-.86.33-.29.11-.57.16-.85.15s-.55-.11-.82-.28c-.27-.18-.52-.5-.75-.96-.37-.73-.5-1.39-.39-1.96s.49-1.02,1.14-1.35c.25-.13.52-.19.82-.2s.6.02.92.07.62.12.92.2c.3.08.58.15.83.19.41.07.78.09,1.12.05.34-.04.67-.1.97-.19.3-.09.59-.2.85-.32.27-.12.52-.23.76-.34.24-.11.47-.19.69-.25.22-.06.44-.08.65-.04.24.04.47.11.68.23.21.11.41.25.59.42s.35.34.49.54c.15.2.27.41.38.62.16.31.26.63.31.94.05.31,0,.63-.15.96-.07.16-.2.34-.38.52-.18.19-.38.38-.59.58s-.42.41-.63.62c-.21.21-.38.41-.5.6-.18.28-.33.56-.45.83s-.23.55-.33.81c-.1.27-.21.53-.31.79s-.24.5-.39.73c-.16.23-.35.45-.57.66s-.51.4-.85.57c-.31.16-.61.26-.92.32-.3.06-.59.05-.86-.02-.27-.07-.52-.2-.75-.39ZM86.94,68.64c-.22-.26-.4-.54-.54-.85-.14-.31-.24-.64-.29-.97-.05-.34-.04-.66.02-.97.07-.31.2-.6.4-.86s.47-.48.81-.64l.04-.02c.43-.2.88-.32,1.35-.37s.94-.09,1.43-.11c.48-.02.96-.06,1.43-.11.47-.05.92-.18,1.35-.37.12-.06.24-.11.36-.16.12-.05.22-.11.3-.17.08-.06.14-.15.16-.24.02-.09,0-.21-.07-.36-.05-.12-.12-.22-.21-.3-.09-.08-.19-.16-.29-.24-.1-.08-.2-.17-.29-.25-.09-.09-.17-.2-.23-.33-.14-.31-.16-.58-.07-.84.09-.25.3-.45.62-.6.28-.13.54-.15.79-.08.25.07.49.21.72.4.22.19.44.43.64.71.2.28.38.57.55.86s.31.58.44.86c.13.28.23.5.31.68.1.21.2.45.31.71.11.26.21.53.31.8.09.27.17.55.22.82.05.27.08.53.06.78-.02.3-.09.54-.21.72-.12.18-.31.33-.59.46-.31.14-.6.2-.86.17-.26-.03-.47-.21-.62-.55-.07-.16-.12-.31-.13-.45-.01-.14-.01-.27,0-.39,0-.12.01-.24.02-.35,0-.11-.02-.22-.07-.32-.04-.09-.1-.14-.19-.17s-.18-.03-.29-.03c-.11,0-.22.03-.33.07-.11.04-.22.08-.31.12-.44.2-.83.46-1.18.79-.35.33-.69.67-1.02,1.02-.33.36-.67.7-1.02,1.02-.35.33-.74.59-1.17.78-.35.16-.69.23-1.01.21-.32-.02-.63-.1-.91-.25-.28-.15-.53-.35-.75-.61ZM88.53,74.04c-.29-.65-.35-1.24-.19-1.76s.53-.92,1.1-1.19l.09-.04c.32-.14.64-.22.94-.24.31-.02.62-.03.95-.03.33,0,.67-.03,1.03-.07.36-.04.75-.15,1.17-.34.39-.17.71-.36.98-.57s.5-.42.71-.63.43-.41.64-.61c.22-.19.48-.36.79-.49.59-.26,1.11-.29,1.58-.09.46.19.83.6,1.11,1.23.23.52.29.98.2,1.37-.1.39-.34.67-.74.85-.2.09-.43.15-.71.21-.28.05-.57.1-.88.16-.31.06-.63.12-.97.2-.33.08-.66.18-.98.33-.35.15-.65.35-.89.6s-.47.51-.69.78c-.22.27-.46.53-.71.79-.25.25-.55.46-.92.63l-.06.02c-1.72.75-2.91.39-3.55-1.09ZM91.82,80.01c-.23-.58-.32-1.15-.29-1.7.04-.55.19-1.07.46-1.55s.65-.92,1.12-1.31c.48-.39,1.04-.71,1.69-.97.77-.3,1.55-.49,2.33-.57.78-.08,1.51-.04,2.2.11.68.15,1.28.41,1.79.78.51.37.89.85,1.12,1.44.16.41.24.82.23,1.25-.01.42-.09.83-.23,1.23s-.35.79-.61,1.16-.57.71-.91,1.04-.72.61-1.13.87c-.41.26-.82.47-1.26.64-.64.25-1.29.39-1.95.43-.66.03-1.29-.05-1.87-.24-.59-.19-1.12-.51-1.59-.94-.47-.43-.84-.98-1.11-1.66ZM106.34,88.59c-.08.17-.18.32-.31.46-.13.13-.28.23-.45.28-.53.17-1.05.3-1.59.4-.53.1-1.06.23-1.58.4-.34.11-.65.25-.95.42-.3.18-.59.36-.88.56-.29.2-.58.38-.87.56-.29.18-.61.32-.94.42-.33.1-.65.17-.95.19s-.59,0-.84-.09c-.26-.08-.48-.21-.67-.41-.19-.19-.34-.45-.44-.78-.1-.32-.12-.62-.06-.91.06-.28.18-.54.35-.78.17-.23.38-.44.64-.61s.53-.3.82-.4c.2-.06.43-.18.71-.35s.53-.36.78-.57c.25-.21.45-.42.61-.63.16-.21.21-.39.17-.52-.02-.07-.06-.12-.11-.14-.05-.03-.12-.04-.19-.04-.07,0-.14,0-.21.02-.07.02-.13.03-.17.05-.21.06-.4.17-.57.31-.17.14-.35.28-.53.44-.18.15-.37.3-.58.45s-.45.27-.74.36c-.27.09-.55.12-.82.11-.27-.01-.53-.07-.76-.17-.23-.1-.44-.25-.61-.46-.18-.2-.31-.45-.4-.74-.09-.27-.11-.54-.08-.81.03-.27.11-.51.24-.74.13-.23.29-.43.5-.6.21-.18.45-.31.73-.39.46-.14.92-.24,1.39-.3.47-.05.94-.1,1.41-.15.47-.04.94-.09,1.41-.15.47-.06.93-.15,1.38-.3.34-.11.67-.25.97-.43.3-.18.59-.31.87-.39.37-.12.7-.08.97.12.27.2.46.46.57.81.1.33.12.61.05.83-.07.23-.25.44-.54.63-.1.06-.24.16-.43.3s-.4.29-.64.48c-.23.18-.47.38-.71.58s-.46.41-.64.61c-.19.2-.33.39-.44.57-.1.18-.13.33-.09.46.03.09.1.15.22.19.12.03.24.05.38.04.14,0,.28-.02.41-.05s.23-.05.29-.07c.21-.06.4-.15.59-.26.19-.11.37-.22.55-.34.18-.12.36-.23.54-.33.18-.11.37-.19.58-.26.46-.14.84-.12,1.14.07.3.19.52.51.66.95.05.16.07.33.05.52-.02.19-.06.37-.14.54Z"/>
  <path class="cls-1" d="M77.99,46.58s0-.03,0-.04c-.2.17-.37.36-.52.56-.07.09-.11.2-.17.3.07-.04.15-.08.21-.13.21-.17.36-.4.46-.68Z"/>
</svg>