<?xml version="1.0" encoding="UTF-8"?>
<svg id="Lag_1" xmlns="http://www.w3.org/2000/svg" viewBox="0 0 116.72 116.7">
  <defs>
    <style>
      .cls-1 {
        fill: #742028;
      }
    </style>
  </defs>
  <path class="cls-1" d="M90.87,50.85c-.1-.06-.21-.09-.34-.11-.13-.02-.26-.01-.4.01-.14.03-.26.08-.38.15-.12.07-.21.17-.28.29-.07.12-.11.25-.11.38,0,.13.02.26.06.38.04.12.1.23.18.33.08.1.16.17.26.23.1.06.21.09.31.08.11,0,.21-.04.3-.09.09-.06.18-.12.26-.21.08-.08.15-.17.2-.26.05-.08.09-.18.13-.29.04-.11.06-.22.06-.34,0-.11-.01-.22-.05-.32-.04-.1-.11-.17-.21-.24Z"/>
  <path class="cls-1" d="M44.62,93.2c-.12-.11-.24-.18-.38-.24-.14-.05-.29-.08-.44-.07s-.3.04-.46.12c-.15.07-.28.16-.39.28-.1.12-.19.24-.24.38-.05.14-.08.28-.08.43,0,.15.03.3.1.44.13.28.34.45.64.53s.62.04.96-.12c.3-.14.51-.34.61-.58.1-.25.09-.51-.04-.78-.07-.15-.17-.28-.28-.38Z"/>
  <path class="cls-1" d="M114.01.01c-2.69-.02-5.38,0-8.06,0h0c-2.92,0-5.84.04-8.77,0-1.56-.03-2.17.63-2.24,2.18-.19,4.14-.47,8.28-1.13,12.38-4.41,27.26-19.31,47.82-41.44,63.3-14.92,10.44-31.69,16.42-50.14,16.86-1.31.03-1.92.57-1.94,1.9-.08,6.02-.16,12.03-.29,18.05-.03,1.55.67,2.1,2.13,2.01,2.68-.16,5.37-.19,8.05-.44,13.97-1.26,27.17-5.34,39.67-11.56,26.17-13.02,45.45-32.9,57.67-59.44,6.19-13.45,9.04-27.72,9.21-42.52.03-2.46-.24-2.71-2.71-2.72ZM39.33,101.85c-.05.31-.16.59-.33.86-.17.27-.38.51-.63.71-.25.21-.52.36-.81.47-.34.13-.66.18-.97.17-.31-.01-.6-.09-.87-.22s-.5-.31-.71-.55c-.2-.24-.37-.52-.49-.85-.13-.34-.21-.68-.24-1.04-.04-.35-.06-.71-.08-1.07-.02-.36-.04-.72-.08-1.08-.04-.36-.12-.71-.25-1.05-.1-.26-.22-.51-.37-.73-.15-.23-.29-.45-.45-.68-.15-.22-.3-.45-.45-.68-.14-.23-.27-.47-.36-.72-.16-.42-.18-.79-.08-1.13.11-.33.29-.62.54-.88.26-.26.56-.48.91-.66.35-.18.69-.34,1.02-.46.24-.09.54-.18.9-.28.36-.1.72-.15,1.08-.16.36,0,.7.04,1,.16.3.12.52.34.65.68.14.37.13.69-.03.97s-.42.48-.77.62c-.24.09-.49.15-.75.19-.26.03-.51.1-.75.19-.22.08-.37.22-.46.42-.09.2-.09.42,0,.66.04.11.1.19.17.23.07.04.15.05.23.05.08,0,.17-.03.26-.06.09-.04.18-.07.26-.1.19-.07.37-.15.54-.23.17-.08.35-.16.53-.22.09-.03.19-.07.3-.1.11-.03.22-.05.33-.05.11,0,.2.02.29.06.09.04.16.12.2.25.04.12.05.22,0,.31-.04.09-.1.16-.18.23-.08.06-.17.12-.27.17s-.19.09-.28.12c-.11.04-.26.08-.43.12-.18.04-.35.09-.52.16-.22.08-.39.19-.52.32-.13.13-.15.31-.07.53.1.25.27.51.53.78.26.27.54.54.84.83.3.29.59.58.86.88.27.3.48.61.61.94l.02.04c.12.31.15.62.1.93ZM48.67,96.91c-.16.6-.44,1.15-.83,1.64-.4.5-.93.9-1.59,1.21-.57.26-1.12.4-1.68.39-.55,0-1.08-.12-1.57-.36-.5-.24-.96-.59-1.37-1.04-.42-.45-.78-.99-1.07-1.62-.35-.75-.59-1.52-.72-2.29s-.14-1.51-.03-2.2c.1-.69.33-1.3.66-1.84.34-.54.79-.94,1.36-1.21.4-.19.81-.29,1.23-.3.42-.02.84.03,1.24.15s.81.3,1.19.54c.38.24.75.52,1.09.85.34.33.66.68.94,1.07.28.39.52.79.72,1.21.29.62.48,1.26.55,1.92.08.66.03,1.29-.12,1.89ZM56.75,93.7c-.4.95-1.27,1.81-2.62,2.59-.43.25-.82.43-1.16.54-.34.11-.65.15-.93.12-.28-.03-.53-.13-.75-.31-.22-.17-.43-.42-.63-.75l-.06-.1c-.15-.26-.29-.55-.41-.86-.12-.31-.25-.62-.37-.94-.12-.32-.25-.64-.38-.96-.13-.32-.27-.62-.43-.9-.16-.28-.33-.52-.52-.73-.19-.21-.38-.41-.57-.61-.19-.2-.38-.39-.56-.6-.19-.2-.35-.43-.5-.69-.17-.3-.28-.58-.31-.85-.04-.26-.02-.51.05-.74.07-.23.19-.44.37-.63.17-.19.38-.35.62-.49.25-.14.5-.24.75-.28.25-.05.49-.05.71,0,.22.05.42.14.6.27s.33.3.45.5c.12.22.2.46.24.75.04.28.07.58.1.9.03.32.08.65.15.99.07.34.2.67.38,1,.25.44.55.74.89.9.34.16.67.16.97-.02.23-.13.38-.31.45-.53.07-.22.12-.45.16-.7s.1-.48.18-.7c.08-.23.24-.41.48-.55.37-.21.75-.2,1.15.02.4.23.78.64,1.13,1.25.64,1.12.76,2.15.37,3.1ZM64.03,88.9c-.32.98-1.12,1.91-2.41,2.79-.41.28-.78.49-1.11.62-.33.14-.64.2-.92.19s-.54-.09-.77-.25c-.24-.16-.47-.39-.69-.69l-.07-.1c-.17-.25-.33-.52-.48-.82s-.29-.6-.44-.91c-.15-.31-.3-.62-.46-.93-.15-.31-.32-.6-.5-.86-.18-.26-.37-.49-.58-.69-.21-.19-.41-.38-.62-.56-.21-.18-.41-.36-.61-.55-.2-.19-.38-.4-.55-.65-.19-.28-.32-.56-.38-.82-.06-.26-.06-.51,0-.74.05-.24.16-.45.32-.65.16-.2.35-.38.58-.54.24-.16.48-.28.72-.34s.48-.08.71-.05c.22.03.43.1.62.22.19.12.35.27.48.46.14.21.24.45.3.73.06.28.12.58.17.89.06.32.13.64.23.97.1.33.25.65.46.96.29.42.61.69.96.83.35.14.68.1.97-.1.22-.15.35-.33.4-.56.05-.22.08-.46.11-.71.02-.25.06-.49.12-.72s.21-.42.44-.58c.35-.24.73-.26,1.15-.07s.83.58,1.22,1.16c.73,1.06.93,2.08.61,3.06ZM68.29,87.12c-.56.44-1.11.65-1.66.62-.54-.03-1.02-.28-1.43-.76l-.06-.08c-.22-.28-.37-.56-.46-.86-.09-.29-.18-.6-.27-.91-.09-.31-.2-.64-.32-.98-.13-.34-.33-.69-.62-1.05-.26-.33-.53-.6-.8-.8-.27-.2-.53-.38-.79-.53-.26-.15-.51-.31-.75-.47-.24-.16-.47-.37-.67-.64-.4-.5-.56-1-.48-1.5.07-.5.38-.96.91-1.38.45-.35.87-.53,1.27-.53.4,0,.74.16,1,.5.13.17.26.38.38.64.12.25.24.52.38.81.13.29.28.58.44.89.16.3.34.59.56.87.24.3.51.54.81.71.3.17.61.33.93.48.32.15.63.31.94.49.3.18.58.42.84.73l.04.05c1.16,1.48,1.1,2.72-.17,3.71ZM76.01,79.81c-.11.28-.3.54-.57.78-.17.15-.36.26-.58.33-.22.07-.44.1-.67.11-.23,0-.45-.03-.67-.09-.22-.06-.41-.16-.59-.28-.22-.16-.42-.33-.6-.52-.18-.19-.34-.37-.49-.55s-.29-.33-.42-.47-.26-.24-.38-.29c-.07-.03-.16-.07-.26-.12-.1-.04-.2-.08-.31-.11-.11-.03-.22-.04-.33-.03-.12.01-.22.06-.32.15-.12.11-.17.24-.13.37.04.13.12.27.25.41.16.17.35.3.58.38.23.08.48.16.73.23.25.07.51.16.76.27.25.11.48.27.68.49.17.19.29.41.36.65.07.25.09.5.05.76-.03.26-.12.53-.26.78-.14.26-.33.5-.58.72-.22.2-.47.35-.74.45-.27.1-.54.15-.81.15s-.53-.05-.79-.15c-.25-.1-.47-.25-.65-.46-.2-.23-.36-.49-.46-.79s-.21-.61-.3-.94c-.1-.33-.21-.66-.34-.99-.13-.33-.32-.63-.57-.91-.21-.24-.44-.43-.68-.58-.24-.15-.49-.3-.75-.46-.26-.15-.54-.33-.83-.54-.29-.21-.59-.49-.91-.84-.13-.15-.25-.33-.36-.55-.1-.22-.17-.45-.19-.7-.03-.25,0-.5.08-.76.08-.26.24-.49.48-.7.35-.31.71-.48,1.08-.49.37-.01.71.16,1.02.5.13.14.23.29.32.43.09.14.16.28.22.42.06.14.12.26.18.38.06.11.12.21.2.3.06.07.12.1.18.12s.13-.02.21-.09c.12-.11.19-.27.19-.48,0-.21-.03-.45-.08-.71-.06-.27-.12-.55-.19-.86-.07-.31-.11-.61-.13-.92-.01-.3.02-.59.09-.87.08-.28.23-.52.47-.73.18-.16.37-.27.57-.32.2-.05.4-.06.61-.03.21.03.41.11.6.23.19.12.38.27.54.45.23.26.36.54.39.85.03.31,0,.62-.09.94-.09.32-.22.63-.38.94-.16.31-.31.6-.44.86-.14.27-.24.5-.31.7s-.06.35.03.45c.09.1.26.14.5.11.24-.03.54-.07.87-.14.33-.07.7-.14,1.1-.22.4-.08.8-.11,1.2-.1.41,0,.8.08,1.18.2s.72.35,1.01.68c.15.17.28.37.38.61.1.24.16.5.17.77.01.27-.04.54-.15.83ZM81.84,73.78c-.17.48-.43.95-.77,1.39-.34.44-.69.85-1.05,1.23-.31.33-.65.62-.99.87-.35.25-.7.42-1.07.53-.36.1-.73.11-1.09.03-.37-.08-.73-.3-1.09-.64-.25-.24-.43-.49-.55-.77-.12-.28-.22-.56-.32-.84-.09-.28-.2-.57-.32-.85s-.31-.55-.58-.8c-.3-.28-.58-.51-.87-.67-.28-.17-.56-.31-.82-.44-.26-.13-.52-.26-.77-.4-.25-.14-.49-.31-.72-.53-.27-.25-.44-.52-.51-.81-.07-.29-.08-.58-.02-.87.06-.29.18-.58.35-.87s.37-.54.6-.78c.38-.4.75-.76,1.1-1.07.36-.31.69-.56,1.01-.74.32-.18.62-.27.9-.28s.54.1.76.31c.21.21.35.41.4.61.06.2.06.4,0,.61s-.13.4-.26.6c-.12.2-.25.4-.39.59-.13.2-.26.4-.38.59-.12.2-.2.39-.24.58-.02.08-.03.17-.02.28,0,.1.04.19.1.25.06.06.13.09.21.09.07,0,.14-.02.21-.05.07-.03.14-.08.2-.13.06-.05.12-.11.16-.15.14-.15.29-.32.45-.5.16-.18.34-.31.55-.39.13-.04.29-.07.47-.09.18-.02.33.03.45.14.12.12.17.25.16.41-.02.16-.07.32-.15.5-.09.18-.19.36-.31.55-.12.19-.22.37-.31.54-.09.17-.15.33-.18.47-.03.15,0,.27.11.37.18.17.36.23.56.17.19-.06.36-.16.51-.31.13-.14.25-.29.36-.45.11-.16.21-.32.31-.47.1-.16.21-.31.32-.47.11-.16.23-.3.36-.44.22-.23.43-.38.63-.45.21-.07.41-.09.62-.05.2.04.41.13.6.26s.4.3.6.49c.48.46.76.93.83,1.42.08.49.03.97-.14,1.46ZM85.57,70.06c-.32.38-.61.69-.9.91-.28.22-.56.37-.83.44-.27.07-.54.06-.81-.02-.27-.08-.56-.24-.85-.48l-.09-.08c-.24-.19-.46-.41-.69-.66-.22-.25-.45-.5-.68-.75-.23-.26-.46-.51-.7-.77-.24-.25-.48-.48-.72-.69-.25-.2-.5-.37-.75-.5-.25-.13-.5-.25-.75-.37-.25-.12-.49-.24-.74-.36-.25-.12-.48-.28-.71-.47-.27-.22-.46-.45-.59-.68-.13-.24-.2-.47-.21-.71s.03-.48.12-.71c.1-.24.23-.46.41-.68.18-.22.38-.4.6-.53.22-.13.44-.21.66-.25.22-.03.44-.02.66.04.22.06.41.16.59.31.19.16.35.36.49.61s.27.52.41.81c.14.29.3.58.49.87.18.29.42.56.71.8.39.32.77.5,1.15.53.38.03.68-.09.9-.36.17-.2.25-.42.23-.65-.01-.23-.04-.46-.09-.71-.05-.24-.08-.48-.08-.72,0-.24.08-.47.26-.68.27-.33.63-.46,1.09-.39.46.07.96.33,1.5.78,1,.82,1.47,1.74,1.44,2.77-.04,1.03-.55,2.15-1.54,3.35ZM91.03,62.84c-.1.31-.23.59-.41.84-.21.29-.45.52-.72.68s-.55.26-.84.3c-.3.04-.59.02-.9-.07-.3-.08-.6-.23-.88-.44-.29-.21-.55-.45-.77-.73-.23-.28-.45-.56-.66-.85-.21-.29-.43-.58-.66-.85-.23-.28-.49-.53-.79-.74-.23-.16-.46-.3-.71-.41-.25-.11-.5-.21-.75-.32-.25-.1-.5-.21-.75-.32-.25-.11-.48-.24-.7-.4-.36-.26-.59-.56-.69-.89-.09-.33-.11-.68-.04-1.04s.2-.71.39-1.06c.19-.35.39-.66.59-.95.15-.21.35-.45.59-.73s.52-.52.82-.73c.3-.21.61-.35.92-.42s.62,0,.92.21c.32.23.49.5.51.82.02.32-.08.63-.3.94-.15.21-.32.4-.52.57-.2.17-.37.36-.52.57-.14.19-.19.39-.15.6.04.21.16.4.37.55.1.07.19.1.26.09.08,0,.15-.04.22-.09.07-.05.13-.12.19-.2s.11-.16.17-.23c.12-.16.23-.33.32-.49.1-.17.21-.33.32-.48.06-.08.12-.16.2-.25.08-.09.16-.16.24-.22.09-.06.18-.1.28-.11.1-.01.2.02.3.09.1.07.16.16.18.25.02.09,0,.19-.02.29-.03.1-.08.19-.13.29-.06.1-.12.18-.17.25-.07.1-.17.21-.29.34-.12.13-.24.27-.35.42-.13.19-.22.37-.26.55-.04.18.04.34.24.48.22.16.51.28.88.36.36.08.75.15,1.15.23.41.07.81.16,1.2.25.39.1.74.25,1.03.44l.04.03c.27.2.47.44.6.72.13.28.19.58.2.9,0,.32-.04.63-.13.94ZM97.66,51.03c-.04.3-.15.61-.34.92-.24.4-.51.69-.82.87-.31.18-.62.29-.94.33-.32.04-.64.04-.96,0s-.61-.09-.88-.14c-.27-.04-.51-.07-.71-.07-.2,0-.34.06-.42.19-.02.03-.03.06-.04.09-.01.03-.01.07,0,.1.03.27.13.5.32.71.19.2.4.4.64.58.24.18.49.36.73.55.25.18.44.4.58.64.14.24.21.52.2.84,0,.32-.15.71-.41,1.15-.42.71-.9,1.17-1.45,1.38-.55.21-1.13.13-1.76-.24-.24-.14-.44-.34-.61-.59-.16-.25-.31-.52-.43-.81-.12-.29-.23-.59-.32-.89-.09-.3-.19-.57-.29-.81-.15-.38-.34-.71-.56-.98-.21-.27-.44-.51-.68-.72-.24-.21-.48-.39-.73-.55-.25-.16-.48-.31-.7-.46-.22-.15-.41-.3-.58-.45-.17-.15-.3-.33-.38-.53-.1-.23-.16-.46-.17-.7-.02-.24,0-.48.04-.72.04-.24.11-.48.2-.71.09-.23.2-.45.32-.65.18-.3.39-.56.62-.77.24-.21.53-.34.89-.39.17-.03.39-.01.65.04.26.05.53.12.81.19.28.07.57.14.86.2.29.06.55.1.78.11.33,0,.65-.02.94-.07.29-.05.58-.1.86-.16.28-.06.56-.11.83-.15s.55-.07.83-.06.57.05.87.13c.3.08.61.22.94.41.3.18.55.38.76.6s.36.47.44.73c.09.26.11.54.07.84ZM101.54,44.03c-.1.65-.32,1.33-.64,2.04-.21.45-.48.85-.83,1.2-.35.35-.75.62-1.19.82-.44.2-.9.3-1.39.32-.49.02-.96-.08-1.43-.29-.2-.09-.38-.21-.57-.36s-.33-.33-.45-.52c-.12-.19-.19-.4-.22-.63s.01-.45.11-.67c.1-.22.24-.41.42-.57.18-.16.37-.31.57-.46.2-.15.39-.3.58-.47.18-.17.33-.36.43-.59.15-.33.13-.55-.07-.64-.14-.06-.31-.03-.51.11s-.43.32-.7.55c-.26.23-.55.47-.86.73-.31.26-.64.48-.99.67s-.72.31-1.11.36c-.39.05-.79-.01-1.19-.2-.24-.11-.44-.26-.6-.46-.16-.2-.29-.43-.38-.68-.09-.26-.15-.53-.17-.82-.03-.29-.03-.58,0-.87.03-.29.07-.56.13-.83s.14-.5.23-.7c.09-.19.19-.4.32-.64.12-.24.27-.48.43-.72.16-.24.33-.47.52-.69.19-.22.39-.39.61-.53.22-.14.44-.23.68-.26s.49,0,.74.12c.36.17.6.36.72.57.11.21.08.51-.09.89-.08.17-.18.33-.3.45-.12.13-.25.25-.39.37-.13.12-.26.24-.39.37-.12.13-.23.28-.3.45-.08.17-.1.34-.07.52.03.18.12.3.29.37.14.06.32.01.54-.14.22-.16.47-.37.75-.63.28-.26.59-.55.92-.85.33-.3.68-.56,1.05-.79.37-.22.76-.37,1.16-.45.4-.08.81-.02,1.23.17.65.3,1.18.67,1.57,1.11.39.44.65.94.78,1.49.13.55.15,1.15.04,1.8ZM105.04,35.97c-.12.55-.26,1.07-.43,1.56-.14.43-.32.83-.53,1.21-.21.37-.46.68-.75.93-.29.25-.61.41-.98.48-.37.08-.79.04-1.26-.12-.33-.11-.6-.27-.82-.47-.22-.2-.44-.41-.64-.63-.2-.22-.42-.43-.65-.63-.23-.21-.52-.36-.86-.48-.39-.13-.74-.21-1.07-.24-.33-.03-.64-.05-.93-.05-.29,0-.58-.02-.87-.04-.29-.02-.58-.07-.87-.17-.35-.12-.62-.29-.81-.52-.19-.23-.32-.49-.39-.78-.07-.29-.09-.61-.05-.94.04-.33.11-.65.21-.96.18-.52.36-1,.55-1.44.19-.43.39-.8.61-1.09.21-.29.45-.5.7-.63.25-.13.53-.14.83-.04.28.09.49.22.62.38s.22.34.27.54c.04.2.05.42.02.65s-.06.47-.1.7c-.04.24-.07.47-.1.7s-.02.44.03.63c.01.08.05.17.1.26s.12.15.2.18c.08.03.16.03.22,0,.07-.03.12-.08.17-.14.05-.06.09-.13.13-.21.03-.08.06-.15.08-.21.07-.2.13-.41.19-.64s.17-.43.34-.58c.1-.09.23-.19.39-.28.16-.09.31-.12.47-.06.16.05.26.16.32.3.05.15.08.32.07.52s-.02.41-.05.62-.05.43-.06.62,0,.36.04.51.12.24.26.28c.23.08.43.05.58-.08s.26-.3.33-.5c.06-.18.11-.37.14-.55.03-.19.06-.38.08-.56.03-.19.05-.37.09-.56.03-.19.08-.37.14-.55.1-.29.23-.52.39-.67.16-.15.34-.25.54-.3.2-.05.42-.06.66-.02.24.04.49.1.75.19.63.21,1.08.52,1.36.93.27.41.44.87.48,1.38s0,1.04-.11,1.58Z"/>
</svg>