<?xml version="1.0" encoding="UTF-8"?>
<svg id="Lag_1" xmlns="http://www.w3.org/2000/svg" viewBox="0 0 116.74 116.75">
  <defs>
    <style>
      .cls-1 {
        fill: #742028;
      }
    </style>
  </defs>
  <path class="cls-1" d="M27.18,42.3c-.01-.14-.05-.27-.12-.38-.08-.12-.17-.21-.28-.28-.11-.06-.24-.1-.36-.12-.13-.02-.26-.02-.38,0-.12.02-.23.06-.33.12-.1.06-.17.14-.22.24s-.06.2-.06.31c0,.11.03.22.06.33.03.11.08.21.13.3.05.08.12.17.2.25.08.08.17.16.27.21.1.06.2.09.3.1.1.01.2-.01.3-.08.1-.06.18-.14.25-.25.07-.11.13-.23.17-.36.04-.13.05-.27.04-.41Z"/>
  <path class="cls-1" d="M44.66,68.6c.08-.14.12-.28.14-.43.02-.15.01-.3-.03-.44-.04-.15-.11-.29-.22-.42-.1-.13-.22-.24-.36-.31-.14-.08-.28-.13-.42-.15-.15-.02-.29-.02-.44.02-.15.03-.28.1-.41.2-.24.19-.36.44-.37.75-.01.31.1.61.33.91.21.26.44.42.71.46.26.04.51-.03.75-.22.13-.1.24-.22.31-.36Z"/>
  <path class="cls-1" d="M116.73,96.75c-.02-1.31-.54-1.89-1.86-1.97-2.33-.14-4.67-.32-6.98-.64-18.74-2.66-35.17-10.17-48.56-23.7-9.74-9.84-17.68-21.13-25.24-32.68-4.44-6.78-7.87-14.06-10.05-21.9-1.28-4.58-1.93-9.26-2.19-13.99-.08-1.4-.63-1.91-2.07-1.86-2.86.11-5.72.03-8.59.03v.09c-2.98,0-5.96.05-8.94-.02C.57.07-.1.8.01,2.43c.1,1.46.05,2.92.18,4.38,1.23,13.62,5.7,26.19,12.5,37.98,6.59,11.43,14.65,21.82,22.87,32.08,7.06,8.82,15.26,16.41,24.77,22.56,16.42,10.61,34.43,16.27,53.93,17.32,1.32.07,2.15-.27,2.18-1.78.13-6.07.37-12.14.29-18.22ZM24.89,52.64c-.42-.29-.81-.65-1.15-1.09-.34-.44-.65-.88-.93-1.32-.2-.33-.38-.66-.52-.98-.14-.33-.24-.66-.28-.98-.05-.33-.03-.64.04-.95.07-.31.21-.59.44-.85.11-.31.25-.6.44-.87.19-.27.37-.51.53-.73.17-.22.3-.42.4-.6.1-.17.11-.33.02-.46-.02-.03-.04-.05-.06-.08-.03-.03-.05-.04-.09-.05-.25-.1-.51-.11-.77-.04-.27.07-.54.17-.81.3-.27.13-.55.26-.83.4-.28.14-.56.21-.84.22s-.56-.06-.84-.21c-.28-.16-.56-.45-.83-.9-.43-.7-.62-1.34-.56-1.92.06-.58.4-1.06,1.02-1.45.24-.15.51-.24.8-.27.3-.03.6-.03.92,0,.32.02.63.07.94.12s.59.1.85.12c.41.04.79.02,1.13-.04.34-.06.66-.16.95-.27.29-.12.57-.25.82-.39.25-.14.5-.28.73-.4.23-.12.46-.23.67-.31.21-.08.43-.11.65-.1.25.02.48.07.7.17.22.09.43.22.62.36.19.15.37.31.54.5.16.19.31.38.43.58.19.31.33.64.41,1,.08.36.03.71-.14,1.04.23-.02.46,0,.67.08.22.07.43.18.63.32s.39.31.56.5c.17.2.33.4.46.62.29.47.54.92.76,1.34.22.43.37.82.46,1.17.09.35.1.67.04.94-.07.28-.23.5-.5.66-.25.16-.48.24-.69.24-.21,0-.41-.04-.59-.14-.18-.1-.36-.23-.52-.4-.16-.17-.32-.34-.48-.52s-.32-.35-.48-.52-.33-.29-.5-.38c-.07-.04-.16-.07-.26-.09s-.19,0-.27.04-.12.11-.14.18c-.02.07-.02.15,0,.22.01.08.04.15.08.23.04.08.07.14.11.2.11.18.24.36.38.56.14.2.22.41.24.63,0,.14,0,.29-.03.48-.03.18-.11.32-.25.4-.14.09-.29.11-.44.05-.15-.05-.3-.15-.45-.27-.15-.13-.3-.27-.45-.43-.15-.16-.3-.31-.44-.44-.14-.13-.28-.23-.42-.29s-.26-.06-.38.02l-.05.03c-.07.15-.15.3-.25.45,0,.1,0,.2.04.29.03.1.08.19.14.29.1.16.21.32.34.46.13.14.25.28.38.42s.25.28.38.42c.12.14.23.3.34.46.16.26.25.51.27.73.02.22-.02.42-.11.61-.09.19-.23.36-.41.52-.18.16-.39.31-.63.46-.56.35-1.09.5-1.58.45-.49-.05-.95-.22-1.37-.5ZM29.3,59.03c-.54-.32-1.01-.76-1.4-1.33-.39-.56-.61-1.14-.66-1.73-.06-.59.03-1.18.26-1.77.23-.59.6-1.16,1.1-1.73.5-.56,1.11-1.09,1.83-1.59.74-.51,1.46-.89,2.16-1.13s1.35-.34,1.96-.31,1.18.19,1.7.48c.52.29.96.71,1.34,1.26.23.34.41.68.55,1.02s.21.67.23.98c.01.31-.03.59-.13.85-.1.26-.28.48-.52.64-.27.19-.59.19-.96,0-.37-.19-.72-.53-1.06-1.02-.2-.29-.42-.55-.64-.79-.23-.24-.48-.41-.75-.52-.27-.11-.57-.15-.89-.11-.32.04-.67.19-1.04.45-.16.11-.29.24-.39.4-.1.16-.17.33-.2.51-.03.18-.03.38.02.58.05.21.14.41.28.6.12.17.26.33.42.47.16.14.33.25.5.34.17.09.33.14.48.17.15.02.27,0,.36-.06.19-.13.15-.4-.12-.79-.08-.11-.17-.22-.26-.34-.1-.11-.19-.22-.26-.34-.17-.24-.25-.45-.23-.62.01-.17.12-.32.31-.45.19-.13.38-.19.55-.17.18.02.34.08.5.19.15.11.29.24.42.4.13.16.24.31.34.45.34.5.62.95.82,1.36.2.41.31.8.3,1.17,0,.37-.12.73-.36,1.08-.24.35-.63.71-1.17,1.09-.56.39-1.15.66-1.78.81s-1.25.19-1.86.1-1.19-.29-1.73-.61ZM35.27,66.47c-.98-.3-1.93-1.09-2.83-2.36-.29-.41-.5-.77-.64-1.1-.14-.33-.21-.64-.21-.91,0-.28.08-.54.24-.78.15-.24.38-.47.68-.7l.1-.07c.25-.18.52-.34.82-.49.29-.15.6-.3.9-.46.31-.15.62-.31.92-.47.31-.16.59-.33.86-.52.26-.19.49-.38.68-.59.19-.21.37-.42.55-.62s.36-.41.54-.62c.18-.2.4-.39.64-.56.28-.2.55-.33.81-.39.26-.06.51-.07.74-.02s.45.15.66.31c.2.16.39.35.55.58.17.24.29.47.36.72.07.24.09.48.06.7-.03.23-.1.43-.21.63-.11.19-.26.36-.45.49-.2.14-.44.25-.72.31s-.57.13-.89.19c-.32.06-.64.14-.97.24-.33.1-.65.26-.95.48-.41.29-.68.62-.81.97-.13.36-.09.68.11.97.15.21.34.35.57.39.22.05.46.08.71.09.25.02.49.05.72.11.23.06.43.2.59.43.25.35.27.73.09,1.15-.19.42-.57.83-1.14,1.24-1.05.74-2.07.96-3.05.66ZM40.17,72.95c-.57-.28-1.08-.7-1.54-1.27-.08-.1-.15-.2-.22-.3-.07-.1-.13-.2-.19-.3-.36.05-.72.02-1.09-.07-.37-.1-.67-.3-.91-.6-.12-.16-.21-.33-.26-.51-.05-.18-.07-.36-.04-.54.02-.18.08-.35.17-.51.09-.16.22-.31.37-.43.22-.17.47-.31.75-.42s.58-.18.89-.24c.18-.41.42-.8.72-1.17.3-.38.66-.73,1.08-1.06.65-.51,1.35-.92,2.07-1.22s1.44-.47,2.13-.53c.7-.05,1.34.02,1.94.23.6.21,1.09.56,1.48,1.05.21.26.37.55.49.85.17-.03.34-.06.51-.09.17-.02.33-.03.49-.01.16.02.31.06.46.13.15.07.28.18.4.33.08.11.16.23.22.38s.11.3.13.45c.02.15,0,.3-.03.45-.04.14-.12.26-.25.36-.09.07-.22.14-.38.2s-.35.13-.54.19c-.19.06-.38.11-.56.16-.18.04-.33.08-.44.11-.2.68-.52,1.32-.95,1.94-.44.62-.94,1.15-1.51,1.6-.54.42-1.12.75-1.75.97-.62.22-1.25.32-1.87.31-.62-.02-1.22-.16-1.79-.44ZM47.85,81.2c-.56-.09-1.12-.3-1.68-.65-.56-.34-1.11-.8-1.64-1.37-.34-.36-.6-.77-.79-1.23-.19-.46-.29-.93-.3-1.41-.01-.48.07-.95.23-1.41.17-.46.44-.86.81-1.21.16-.15.34-.28.55-.39s.43-.18.65-.22.45-.02.66.04c.22.06.41.18.58.36.16.17.28.38.36.61.08.23.15.46.21.7.06.24.13.48.21.71.08.23.21.44.38.62.25.27.46.33.61.18.11-.1.14-.28.09-.52-.05-.24-.13-.52-.24-.85s-.23-.69-.35-1.07-.2-.78-.24-1.17c-.04-.4,0-.79.09-1.17.1-.38.31-.72.64-1.03.19-.18.41-.31.66-.38.25-.07.5-.1.78-.09.27.01.55.07.83.15.28.09.55.2.8.33.26.13.5.28.72.44s.41.32.56.49c.14.15.3.33.47.54s.34.43.51.67c.17.24.31.49.44.75.13.26.21.51.26.77s.04.5-.02.73c-.06.24-.19.45-.39.64-.29.27-.56.42-.8.45s-.5-.12-.79-.42c-.13-.14-.23-.29-.3-.45-.07-.16-.14-.33-.2-.5-.06-.17-.12-.33-.2-.5s-.17-.32-.3-.46c-.13-.13-.28-.22-.45-.26-.17-.04-.33,0-.46.12-.11.1-.13.29-.07.55.06.26.16.58.3.94.14.36.28.75.43,1.17.15.42.26.85.33,1.27.06.43.05.84-.03,1.25-.08.4-.29.76-.62,1.07-.53.49-1.07.83-1.62,1.03-.56.19-1.11.24-1.67.16ZM55.86,88.07c-.26.07-.52.07-.78,0-.26-.06-.52-.21-.78-.43-.25-.22-.43-.47-.53-.74-.1-.27-.13-.55-.11-.84.02-.29.09-.57.22-.85.13-.28.29-.54.49-.77.14-.16.28-.38.42-.67.14-.29.27-.59.37-.89.1-.31.16-.59.18-.86.02-.26-.02-.44-.13-.54-.05-.05-.11-.07-.17-.06-.06,0-.12.03-.18.06-.06.04-.12.08-.17.13-.05.05-.09.1-.12.13-.14.16-.25.35-.33.56-.07.21-.15.43-.22.65s-.16.45-.25.69c-.1.24-.24.47-.44.69-.19.22-.4.39-.64.53-.24.13-.48.22-.73.25-.25.04-.51.01-.76-.06-.25-.08-.5-.22-.73-.41-.22-.19-.38-.4-.49-.65-.11-.24-.17-.5-.19-.76-.01-.26.02-.52.11-.78.09-.26.22-.5.41-.72.31-.36.66-.69,1.03-.99.37-.29.74-.58,1.12-.87.38-.28.75-.57,1.12-.87.37-.29.71-.62,1.02-.98.24-.27.44-.56.6-.88.17-.31.34-.57.53-.79.26-.3.55-.43.88-.41.33.02.64.15.91.39.26.22.42.45.48.68.06.23.01.5-.13.82-.05.11-.12.27-.21.48-.09.22-.19.46-.29.74-.1.28-.2.57-.3.87-.1.3-.17.59-.23.86s-.08.51-.07.72c0,.21.06.35.17.44.07.06.17.08.29.05.12-.03.23-.09.35-.17.12-.08.22-.17.32-.26.1-.09.17-.16.21-.21.14-.16.26-.34.37-.53.1-.19.2-.38.29-.58.09-.19.19-.38.29-.57.1-.19.21-.36.36-.52.31-.36.65-.54,1-.54.35,0,.71.16,1.06.46.13.11.23.25.32.42s.14.35.16.54c.02.19.01.37-.02.55s-.12.34-.24.48c-.36.42-.74.81-1.14,1.17-.4.36-.78.75-1.14,1.17-.23.27-.42.55-.58.86-.16.31-.31.62-.45.94-.14.32-.29.63-.45.93s-.35.59-.58.86c-.23.26-.46.48-.71.66-.25.18-.5.3-.76.37ZM61.43,90.63c-1.1,1.52-2.31,1.81-3.62.86-.58-.42-.93-.89-1.05-1.42-.12-.53,0-1.06.34-1.58l.06-.08c.21-.28.44-.51.69-.68.26-.17.52-.34.8-.51.28-.17.56-.36.85-.58s.57-.51.84-.88c.25-.34.43-.67.55-.99.12-.31.22-.62.29-.91.08-.29.16-.57.25-.85.09-.28.23-.55.43-.82.38-.52.81-.81,1.31-.88s1.02.1,1.57.5c.46.33.75.69.86,1.08s.04.75-.21,1.1c-.13.17-.3.35-.51.54-.21.18-.44.38-.68.58-.24.21-.48.43-.73.66-.25.23-.48.49-.68.78-.22.31-.38.63-.46.97-.08.34-.15.68-.2,1.02s-.12.69-.21,1.03c-.09.34-.24.68-.47,1.01l-.04.05ZM70.46,93.24c-.09.34-.19.67-.29,1-.11.33-.25.64-.43.94-.18.29-.38.55-.6.77-.22.22-.45.38-.69.49-.24.11-.5.15-.77.13-.27-.02-.55-.12-.84-.3-.29-.18-.5-.39-.64-.64-.14-.25-.22-.53-.25-.81-.03-.29,0-.58.08-.88.08-.3.2-.58.36-.84.11-.18.21-.42.3-.73.09-.31.17-.62.22-.94.05-.32.06-.61.04-.87-.02-.26-.1-.43-.22-.51-.06-.04-.12-.05-.18-.03-.06.02-.11.05-.17.09-.06.05-.1.1-.15.16s-.07.11-.1.15c-.11.18-.19.39-.23.6-.04.22-.08.45-.11.68s-.08.47-.14.72c-.06.25-.17.5-.32.75-.15.25-.33.45-.54.62-.21.17-.44.29-.68.37-.24.08-.5.1-.76.06-.27-.04-.53-.13-.79-.29-.25-.15-.44-.34-.59-.56-.15-.22-.25-.46-.31-.71-.06-.25-.06-.52-.02-.79.04-.27.14-.53.29-.77.25-.41.53-.79.85-1.14.32-.35.64-.7.96-1.04.33-.34.64-.69.96-1.04.32-.35.6-.73.84-1.13.19-.31.34-.63.45-.96.12-.33.25-.62.4-.87.2-.33.47-.52.81-.55s.65.05.96.23c.29.18.49.38.58.6s.1.5,0,.83c-.03.11-.08.28-.13.51-.05.23-.11.49-.17.78-.05.29-.11.59-.15.91-.05.31-.07.61-.08.88s0,.52.05.72.12.34.23.41c.08.05.18.05.29,0s.22-.12.32-.22c.1-.1.19-.2.28-.31.08-.11.14-.19.18-.24.11-.18.2-.38.27-.59.07-.21.13-.41.2-.62.06-.21.12-.41.19-.61.07-.2.15-.39.27-.58.25-.41.55-.64.9-.69.35-.05.72.04,1.12.28.14.09.27.21.39.36.11.15.19.32.25.5.05.18.08.36.07.55,0,.18-.06.35-.16.51-.29.47-.6.92-.93,1.34-.33.42-.64.87-.93,1.34-.18.3-.33.62-.44.94-.11.33-.21.66-.29,1ZM79.93,92.81c-.14.3-.42.45-.83.47-.41.02-.89-.1-1.43-.36-.32-.15-.63-.27-.95-.36-.32-.09-.62-.12-.91-.08-.29.04-.57.15-.82.34s-.48.49-.68.9c-.08.17-.13.35-.14.54,0,.19.02.37.08.54s.16.34.31.49c.14.15.32.28.54.39.19.09.39.15.6.19.21.04.41.06.6.05.19,0,.36-.04.5-.09.14-.06.23-.13.28-.22.1-.21-.06-.42-.5-.63-.12-.06-.25-.11-.39-.16s-.27-.1-.39-.16c-.27-.13-.44-.27-.51-.42-.07-.16-.06-.34.04-.55.1-.21.23-.35.4-.42.16-.07.34-.1.52-.08.19.02.37.06.56.14.19.07.36.15.52.22.55.26,1.01.52,1.39.77.38.25.66.54.84.86.18.32.26.69.22,1.11-.03.42-.19.93-.48,1.53-.29.61-.68,1.14-1.15,1.59-.47.44-.99.78-1.56,1.01-.57.23-1.17.34-1.8.33-.63,0-1.26-.16-1.88-.46-.61-.29-1.09-.68-1.43-1.17-.34-.49-.56-1.04-.65-1.67-.09-.62-.06-1.3.1-2.04.15-.74.42-1.5.8-2.29.39-.82.83-1.5,1.32-2.05s1-.97,1.55-1.25c.54-.28,1.12-.42,1.71-.42.6,0,1.19.14,1.79.43.37.18.7.38.98.61.29.23.52.48.68.74.17.26.27.53.31.81.04.28,0,.55-.13.82Z"/>
</svg>