<?xml version="1.0" encoding="UTF-8"?>
<svg id="Layer_1" xmlns="http://www.w3.org/2000/svg" version="1.1" viewBox="0 0 24 24">
  <!-- Generator: Adobe Illustrator 29.3.0, SVG Export Plug-In . SVG Version: 2.1.0 Build 146)  -->
  <defs>
    <style>
      .st0 {
        fill: #7f1524;
      }
    </style>
  </defs>
  <path class="st0" d="M12.4,4.9c.2,0,.2,1.8.2,2.2s-.1,2.7-.4,2.7c-.2-.2-.2-.4-.2-.6,0-.4,0-3.9.2-4,0,0,.2-.2.3-.1Z"/>
  <path class="st0" d="M6,8.6c.2.2,1.5,1.5,1.3,1.7-.3.3-2.2-1.9-2.2-2.2,0-.7.7.3.9.4h0Z"/>
  <path class="st0" d="M2.3,13.8c.2,0,3,.7,2.9,1-.4.3-3.1-.6-3.1-.8,0-.1.1-.2.2-.2h0Z"/>
  <path class="st0" d="M19.1,7.8c.3.2-.5,1-.7,1.2s-1.6,1.6-1.1.5c.1-.3,1.6-2,1.9-1.8h0Z"/>
  <path class="st0" d="M21.6,13.1c.2,0,.4,0,.4.1.1.3-2.1,1.1-2.4.8,0-.2,1.7-.9,1.9-.9Z"/>
  <path class="st0" d="M15.5,7.5c-.8.4.1-1.5.2-1.6,1-.8-.1,1.5-.2,1.6Z"/>
  <path class="st0" d="M4.6,11.3c.7.9-1.3,0-1.5-.3-.7-.9,1.4.1,1.5.3Z"/>
  <path class="st0" d="M19.5,11.3c-.3-.3,1.8-1.9,1.4-.8,0,.1-1.3.9-1.4.8Z"/>
  <path class="st0" d="M8.2,5.8c.4-.2,1.1,1.5.6,1.6-.2-.2-.9-1.4-.6-1.6Z"/>
  <path class="st0" d="M18.8,14.1c.8-.2.2.6-.2.5-.3-.1-.1-.4.2-.5Z"/>
  <path class="st0" d="M16.6,10.9c-.2.2-.3,0-.4-.2l.5-.4c.2,0,0,.5,0,.6Z"/>
  <path class="st0" d="M5.4,11.8c.5.5-.4.5-.5,0,0-.2.4-.2.5,0Z"/>
  <circle class="st0" cx="19" cy="11.6" r=".2"/>
  <path class="st0" d="M6.1,12.3c.3,0,.6.5.2.5s-.5-.4-.2-.5Z"/>
  <path class="st0" d="M15.1,8.4c-.2.2-.6-.4-.2-.5s.2.5.2.5Z"/>
  <path class="st0" d="M8.3,11.1s0,.6-.2.5c-.4,0-.2-.9.2-.5Z"/>
  <circle class="st0" cx="5.9" cy="14.9" r=".2"/>
  <path class="st0" d="M9.4,7.9c.2,0,.3.4,0,.5-.3.1-.5-.6,0-.5Z"/>
  <path class="st0" d="M12.3,10.3c.1,0-.2.6-.4.3-.3-.4.3-.4.4-.3Z"/>
  <path class="st0" d="M6.8,14.9c.3.2-.2.5-.4.4-.1-.1,0-.5.4-.4Z"/>
  <circle class="st0" cx="9.7" cy="9.1" r=".2"/>
  <path class="st0" d="M18.2,14.8c-.2.2-.6-.2-.4-.4.1-.2.5.2.4.4Z"/>
  <path class="st0" d="M14.8,8.9c.2.2-.2.6-.4.4-.2-.1.2-.5.4-.4Z"/>
  <path class="st0" d="M14.8,12.3c.8.6,1.6,1.7,1.8,2.7.1.5.2,1.3.1,1.8.2,0,1.2-.4,1,.2-2.6,1-5.3-.4-7.9-.3-1.2,0-7.4,1.4-7.8-.1-.2-.7,1,0,1.2.1,1.5.3,3-.2,4.4-.2,0-.2-.2-.4-.1-.5.7-3.5,3.9-5.9,7.3-3.6h0ZM8.3,14.9c0,.4,0,.9,0,1.3,2.6-.6,5.2.7,7.8.5.9-3.4-2.9-5.9-5.9-4.3-.8.4-1.8,1.6-1.9,2.5Z"/>
  <path class="st0" d="M21.5,19c-.6.2-1.2-.2-1.9-.3-1.5-.1-2.8.3-4.1.3-1.9,0-3.9-.5-5.9-.4-.5,0-2.8.6-2.9.2,0-.3.9-.4,1.2-.5,2.8-.5,4.8.1,7.5.1,2,0,4.2-.9,6.1.1v.3s0,0,0,0Z"/>
</svg>