<?xml version="1.0" encoding="UTF-8"?>
<svg id="Layer_1" xmlns="http://www.w3.org/2000/svg" version="1.1" viewBox="0 0 24 24">
  <!-- Generator: Adobe Illustrator 29.3.0, SVG Export Plug-In . SVG Version: 2.1.0 Build 146)  -->
  <defs>
    <style>
      .st0 {
        fill: #7f1524;
      }
    </style>
  </defs>
  <g id="KMynp1.tif">
    <g>
      <path class="st0" d="M12.2,13.5c-.5.5-1.9.9-2.5.4-.9-.7-1.1-2.7-.6-3.7.9-1.6,2.4-2,4.1-1.4,2.2.9,3,4.3,1.4,6.1-1.9,2.2-6.3,1.4-8.1-.6-.8-.9-1-2.8-.5-3.9,1.1-2.2,4.1-4.2,6.6-3.9,1.4.1,3.2,1.7,3.8,2.9,2.4,4.6-.5,9.4-5.7,8.9-.3,0-2.4-.4-2.5-.5,0,0,0-.3,0-.4.1-.4,1.5-.2,1.8-.2,1.4.2,2.5.6,4-.1,2.7-1.4,3.2-5.4,1.4-7.6-1.4-1.8-3.4-2.8-5.6-1.5-.9.5-2.9,2.3-3,3.4-.2,1.7.4,2.4,1.8,3.2,1.1.6,2.2,1,3.5.9,3.4-.3,3.3-5.2,0-5.9-.8-.2-1.2-.1-1.7.5-.6.7-.7,1.6-.4,2.5.5,1.2,2.6.7,1.5-.8-.2-.3-.8-.6-.8-.8,0-.8,1.1,0,1.3.3.4.5.8,1.7.3,2.3h0Z"/>
      <path class="st0" d="M6.6,18.2c.2,0,.3.2.2.4,0,.1-.5.7-.7.9-.2.2-1.1,1.1-1.2,1.1s-.4-.3-.4-.5,1.1-1.2,1.3-1.3c.1-.1.6-.5.7-.5Z"/>
      <path class="st0" d="M12.8,19.7c0,0,.4,0,.5,0,.1,0,.1.2.2.3,0,.2,0,1.7,0,1.8,0,.1-.5.2-.6.2-.1,0-.1-.3-.1-.4,0-.2,0-1.8,0-1.9h0Z"/>
      <path class="st0" d="M4.4,6c.2,0,1.7,1,2,1.2,0,.1-.2.5-.3.5,0,0-.3-.1-.3-.2-.3-.1-1.5-.8-1.6-1,0-.2.1-.5.3-.5Z"/>
      <path class="st0" d="M21.6,11.8s.1.3.1.3c0,.3-.7.5-.9.5-.2,0-1.3.2-1.5.2-.2,0-.1-.5,0-.6.1-.1,1.6-.4,1.9-.4,0,0,.3,0,.4,0h0Z"/>
      <path class="st0" d="M18.8,5.8c.3,0,.5.3.4.5,0,.1-1.5,1.1-1.7,1.2,0,0,0,0-.1,0-.1,0-.3-.4-.2-.6.1-.2,1.4-1.1,1.7-1.1h0Z"/>
      <path class="st0" d="M12.2,2.1c0,.4-.2.7-.2,1.1,0,.4,0,.9,0,1.3h-.6c-.2-.2,0-2.4.2-2.5.2,0,.4,0,.5,0h0Z"/>
      <path class="st0" d="M18.3,17.4c.3.3,1.3,1.2,1.3,1.6s-.3.3-.5.4c-.4-.5-1-1-1.2-1.5l.4-.4h0Z"/>
      <path class="st0" d="M4.7,12.9c-.8.1-1.5.6-2.3.6,0-.2-.1-.3,0-.5,0-.1,1.6-.5,1.8-.6.4,0,.5,0,.5.5h0Z"/>
      <path class="st0" d="M16.5,4.1c0,0,0,.2,0,.3s-.7.9-.8,1c-.1.1-.5,0-.6,0-.1-.2.7-1.3,1.1-1.3,0,0,.3.1.3.1h0Z"/>
      <path class="st0" d="M19.5,8.7c0,.2.2.5.1.7-.3,0-1,.7-1.2.6,0,0-.2-.6-.2-.6,0,0,1.1-.6,1.3-.7h0Z"/>
      <path class="st0" d="M8.2,3.9c.2,0,.8,1.1.8,1.2,0,0-.4.3-.4.4-.2,0-.7-1-.7-1.2,0-.1.2-.3.3-.3h0Z"/>
      <path class="st0" d="M9.6,21.2c-.1,0-.5,0-.5-.2,0,0,.3-1.1.4-1.2.1-.2.5-.1.5.1s-.3,1.2-.4,1.3Z"/>
      <path class="st0" d="M4.8,9.6c-.2.1-.3,0-.5,0-.3,0-.7.1-1,0,0,0,0-.3,0-.4,0-.1,1.1-.1,1.3,0,.3,0,.3.1.3.4h0Z"/>
      <path class="st0" d="M16.6,19.4c.1,0,.6.8.6,1s-.3.3-.4.3c-.1,0-.6-.9-.6-1,0,0,.4-.3.4-.3Z"/>
      <path class="st0" d="M5.2,15.9c-.3.1-1,.8-1.3.7-.1,0-.2-.2-.1-.3,0-.2,1.5-1.1,1.5-.3Z"/>
      <path class="st0" d="M19.6,15c.2,0,.7.3.8.4.1.2-.2.6-.5.4,0,0-.5-.4-.6-.4,0,0,.2-.4.2-.5Z"/>
    </g>
  </g>
</svg>