<?xml version="1.0" encoding="UTF-8"?>
<svg id="Layer_1" xmlns="http://www.w3.org/2000/svg" version="1.1" viewBox="0 0 24 24">
  <!-- Generator: Adobe Illustrator 29.3.0, SVG Export Plug-In . SVG Version: 2.1.0 Build 146)  -->
  <defs>
    <style>
      .st0 {
        fill: #7f1524;
      }
    </style>
  </defs>
  <g id="BypSCY.tif">
    <g>
      <path class="st0" d="M19.9,5.2c.4.4,1.9,1.8,2.1,2.2,1.2,1.8-1.1,1.3-1.3,2.2-.1.3.4,2.3.5,2.9,0,.2,0,.9-.4.6-.3-.2-.7-3.6-1.9-2.9-.5.3,0,1.1,0,1.4,0,.3,0,.6,0,1,0,.6.5,1.8-.1,1.9-.4,0-.4-1.5-.5-1.9,0-.2-.5-1.3-.6-1.5-.3-.4-1-.3-1.3,0-.4.3.1,1.5.2,2s0,2,0,2.4c0,.3,0,.5-.4.4-.3-.1-.3-1.6-.3-2,0-.4-.5-2.3-.8-2.5-.3-.2-1.2,0-1.4.3-.2.5.2,2,.2,2.6,0,.3,0,1,0,1.3s0,1.2-.5.9c-.2-.2-.2-1.9-.3-2.3-.1-.9-.3-2.6-1.4-2.5s-.5.7-.6,1.3-.1,1.8-.3,2.3c0,.3,0,.4-.4.3-.1-.8,0-3.2-.6-3.8-.3-.3-1.7-.5-2-.2-.4.4,0,.9-.1,1.3,0,.5,0,1.5-.7,1.3,0-.9.2-2.9-.7-3.5-.5-.4-1.7-.4-1.5-1.1.3,0,.6,0,.9,0,1.2.2,2.6.8,3.8.9,2.5.3,7.2-.8,9.5-1.8.2,0,1.5-.7,1.5-.8.1-.2,0-.5,0-.7-.1-.1-3.1-1-3.5-1.1-.2,0-.4,0-.6,0,0,0-.7,1.3-.9,1.6-1.4,2-4.4,2.6-6.4,1.3-1.1-.7-1-1.3-1.6-2.1-.6-.7-.8-.2-1.4,0-1.1.3-1.8.6-2.8.9-.2,0-.9.3-1,0,.6-1.7,2-3.2,3.6-4.2,4.7-2.9,9.8-2.2,13.9,1.5h0ZM8.8,6.3c-.2.4.3,1.3.5,1.6,1.2,1.3,3.8,1.1,5-.1.4-.4,1.4-1.6.4-1.8-.9-.2-.7.4-1,.9-.8,1.3-2.8,1.3-3.7.2-.2-.2-.3-.8-.5-.8-.1,0-.7,0-.8.1h0Z"/>
      <path class="st0" d="M3.8,21.7c-.7.6-1.6.3-1.9-.5-.8-2.1.8-5.4,1.3-7.6.1-.6,0-1.3.3-1.9.4.2.2.9.3,1.4.3,2.2,1,4.8.7,7,0,.3-.5,1.5-.6,1.6Z"/>
    </g>
  </g>
</svg>