<?xml version="1.0" encoding="UTF-8"?>
<svg id="Layer_1" xmlns="http://www.w3.org/2000/svg" viewBox="0 0 24 24">
  <g id="KMynp1.tif">
    <g>
      <path d="M12.16,13.49c-.5.5-1.9.86-2.49.42-.92-.67-1.09-2.72-.56-3.68.92-1.65,2.41-2.02,4.14-1.35,2.24.86,3.05,4.33,1.44,6.13-1.94,2.18-6.27,1.42-8.06-.61-.81-.92-1.03-2.81-.49-3.89,1.11-2.21,4.06-4.17,6.58-3.94,1.37.13,3.16,1.74,3.78,2.92,2.37,4.56-.47,9.38-5.74,8.91-.29-.03-2.44-.43-2.53-.54-.07-.09-.07-.29-.04-.4.12-.38,1.48-.25,1.8-.21,1.45.18,2.54.58,3.97-.15,2.67-1.36,3.2-5.38,1.41-7.65-1.39-1.77-3.43-2.77-5.57-1.53-.9.52-2.9,2.35-3.01,3.4-.19,1.74.37,2.42,1.81,3.22,1.11.62,2.19.96,3.48.86,3.4-.27,3.33-5.19-.08-5.88-.82-.17-1.17-.15-1.71.51-.59.72-.74,1.64-.39,2.52.5,1.25,2.61.66,1.48-.84-.2-.27-.79-.58-.77-.84.05-.77,1.05.08,1.27.34.45.54.82,1.71.27,2.26Z"/>
      <path d="M6.61,18.2c.18,0,.27.24.24.41-.03.12-.53.72-.65.85-.15.17-1.06,1.11-1.2,1.09-.14-.02-.42-.3-.38-.47s1.07-1.17,1.26-1.34c.14-.13.58-.54.73-.54Z"/>
      <path d="M12.83,19.71c.06-.06.43-.09.53-.06.12.04.14.2.16.31.03.25.04,1.66-.01,1.84-.04.15-.5.23-.59.21-.11-.03-.14-.32-.15-.42-.02-.24-.02-1.77.07-1.87Z"/>
      <path d="M4.42,6c.22-.06,1.67,1.04,1.96,1.21.09.13-.21.51-.32.5-.05,0-.27-.14-.35-.18-.28-.14-1.48-.77-1.55-1-.05-.15.12-.49.26-.53Z"/>
      <path d="M21.59,11.84s.11.29.11.32c.03.29-.67.46-.9.52-.21.05-1.34.22-1.46.16-.17-.08-.11-.5-.02-.56.14-.1,1.63-.4,1.91-.44.09-.01.29-.04.35,0Z"/>
      <path d="M18.75,5.78c.3-.05.5.27.37.48-.09.13-1.48,1.06-1.71,1.19-.06.03-.07.08-.15.03-.12-.08-.26-.43-.18-.58.11-.2,1.44-1.08,1.67-1.11Z"/>
      <path d="M12.24,2.07c-.04.37-.2.69-.23,1.07-.04.43.02.89,0,1.32l-.55.1c-.25-.29,0-2.49.23-2.55.16-.04.37.08.54.06Z"/>
      <path d="M18.33,17.44c.28.31,1.31,1.19,1.31,1.59,0,.22-.29.3-.47.35-.39-.5-.98-.97-1.24-1.53l.41-.4Z"/>
      <path d="M4.66,12.87c-.78.15-1.5.55-2.3.58-.02-.16-.13-.34,0-.49.09-.1,1.62-.53,1.82-.55.37-.03.46.09.49.46Z"/>
      <path d="M16.45,4.1c.05.09,0,.23-.04.31s-.68.91-.76.97c-.14.12-.52-.02-.57-.09-.13-.2.72-1.35,1.06-1.32.04,0,.3.11.31.12Z"/>
      <path d="M19.46,8.66c.02.25.16.49.11.74-.26.04-1.01.69-1.21.56-.07-.04-.25-.57-.23-.6.06-.08,1.14-.6,1.32-.7Z"/>
      <path d="M8.17,3.87c.2-.03.81,1.06.82,1.25,0,.08-.36.35-.43.36-.22.02-.69-1.03-.7-1.25,0-.14.21-.33.32-.35Z"/>
      <path d="M9.63,21.24c-.11.07-.47-.06-.49-.19,0-.06.33-1.15.37-1.23.12-.22.54-.12.54.13,0,.17-.32,1.24-.42,1.29Z"/>
      <path d="M4.77,9.63c-.18.12-.35,0-.54,0-.27.01-.72.15-.97,0-.06-.03-.05-.3-.04-.37.03-.14,1.11-.11,1.29-.08.29.05.31.15.27.44Z"/>
      <path d="M16.61,19.41c.15-.03.58.81.58.96,0,.13-.33.29-.43.3-.13.01-.59-.86-.58-.95,0-.06.39-.3.43-.31Z"/>
      <path d="M5.18,15.87c-.3.11-1.05.76-1.34.69-.14-.03-.19-.21-.13-.34.1-.2,1.47-1.07,1.47-.35Z"/>
      <path d="M19.61,14.96c.19-.06.67.28.77.44.12.2-.22.56-.46.45-.04-.02-.54-.4-.56-.43-.04-.07.17-.43.25-.46Z"/>
    </g>
  </g>
</svg>