<?xml version="1.0" encoding="UTF-8"?>
<svg id="Layer_1" xmlns="http://www.w3.org/2000/svg" version="1.1" viewBox="0 0 24 24">
  <!-- Generator: Adobe Illustrator 29.3.0, SVG Export Plug-In . SVG Version: 2.1.0 Build 146)  -->
  <defs>
    <style>
      .st0 {
        fill: #7f1524;
      }
    </style>
  </defs>
  <path class="st0" d="M17.1,17.6c0,.8-1.1.3-1.6.3-2.7,0-5.1.5-7.9.3-1.4-.1-2.7-.4-4.3-.3-.4,0-1.4.6-1.4,0s3.3-.5,3.8-.5c1.1,0,2.3.4,3.4.4,1.5,0,3.1-.4,4.6-.4,1.1,0,2.2.1,3.2.2Z"/>
  <path class="st0" d="M4.9,12.8s-.2.1-.2,0c.4-.6-1.1-.6-.6-.8.4-.2.5,0,.7-.6.3.6.2.4.8.6,0,.2-.4.2-.6.4,0,.1,0,.3-.1.3h0Z"/>
  <path class="st0" d="M12.8,6.1s-.6.2-.7.3c-.7.5-1.4,1.1-1.8,1.9-2.8,5.8,6,10.1,8.8,3.4,0-.1.2-1.2.6-.8.7.9,0,3.1-.4,4-.1.2-.6,1-.9.9-.3-.1.4-.9.5-1,.5-.9.8-2,.8-3-.3,0-.2.4-.3.6-.5,1.1-1.5,2.2-2.8,2.7-.5.2-1,.1-1.4.4,1.8.4,3.5.6,5.4.4.2,0,1.4-.3,1.4-.3,0,0,0,.4-.1.5-.3.3-3.1.4-3.6.3-1.6,0-3.2-.7-4.9-.7s-6.4.9-6.8.2c0,0,0-.3,0-.3,0,0,1.5.3,1.7.1-1.1-1.8-1.6-3.8-.9-5.9.6-1.7,2.3-3.7,4.2-4.1.2,0,1.6-.3,1.3.2h0ZM11.5,6.4c-2.4.6-3.9,3-4,5.4,0,1.5.5,2.9,1.3,4.1l4.7-.4c-4.2-1.1-5.3-6.2-2-9Z"/>
  <path class="st0" d="M17.6,8.7c.3.3-1.1.2-1.2.4-.1.2,0,.7-.1.9-.3,0-.1-.9-.3-1.1-.2-.2-1.4,0-1.3-.2.3-.1,1.1,0,1.3-.2.1-.1.1-.9.3-1.2.3.3,0,.7.2,1.1.3.4,1.1.1,1.2.3h0Z"/>
</svg>