<?xml version="1.0" encoding="UTF-8"?>
<svg id="Layer_1" xmlns="http://www.w3.org/2000/svg" version="1.1" viewBox="0 0 24 24">
  <!-- Generator: Adobe Illustrator 29.3.0, SVG Export Plug-In . SVG Version: 2.1.0 Build 146)  -->
  <defs>
    <style>
      .st0 {
        fill: #7f1524;
      }
    </style>
  </defs>
  <g id="awt0D6.tif">
    <g>
      <path class="st0" d="M18.4,2.7c1.7.4,2.2.8,2.8,2.4.9,2.3.9,6.7.6,9.1,0,.7-.3,1.5-.4,2.2-.1,1.3,0,2.4-.5,3.6-.1.2-.6,1-.9,1-.1,0-.3,0-.4,0-1,.3-1.5.4-2.5.5-3.3.4-6.7.5-10,0-.2,0-.2-.1-.4-.2-.3,0-.6,0-.9,0-.4,0-.9-.3-1.4-.3-.2,0-.2,0-.3,0-.5,0-1.6-.6-1.8-1.1,0-.2,0-.4,0-.5,0,0-.1,0-.2-.2-.3-1,0-2.1.1-3.1.2-1.4.1-2.8.2-4.2,0-1,0-2,0-3,0-1.6-.3-4.9,1.4-5.7.6-.3,1.7-.6,2.3-.8,1.7-.4,3.2,0,4.9-.2.8,0,2-.5,2.7-.4,0,0,.3.1.4.1,0,0,.1,0,.2,0,.7,0,1.5.3,2.2.4.6,0,1.3.1,1.9.3ZM15.5,5.4c-.3-.4-.6-1.4-.5-1.8,0-.2.4-.7.4-.8,0,0-.4-.1-.4-.1-.9-.1-1.5,0-2.3,0-.7,0-1.5.2-2.2.3-.4.9-.7,2.5-.3,3.4.2.5,1.7,2,2.1,2.1.4.1.9.1,1.4.2s.8.4,1.3.5c.5.1,1.1.1,1.7.2.7,0,1.2.3,1.9.2l1.3-.3c-.2-.4-.4-.9-.5-1.4,0-.2-.1-.7-.1-.9,0-.2,0-.3,0-.3,0-.4-.2-1-.2-1.4,0-.2.1-.3,0-.5h0c0,0,0,0,0,0,0-.2.4-.9.3-1-.4-.2-.8-.2-1.1-.5-.9-.2-1.9-.3-2.8-.5,0,.3-.2.4-.2.6-.2.6,0,1.2.5,1.7,0,0,.5.2.2.5-.1.1-.6-.1-.7-.3h0ZM9.9,3c-.2-.1-.4,0-.6,0-.6,0-1.3-.1-1.8,0-.7,0-3.5.9-4,1.4-.9,1-.7,4.2-.7,5.5s-.2,1.5-.1,1.9c0,0,.4.7.5.9.4,1.1.6,2.2,1.1,3.3.5,1.2.9,2.4,1.6,3.5.4.6.8,1.1,1.2,1.6.1.2,0,.3.3.4,1.7.4,4.8.4,6.6.2,0,0,.1,0,.1,0,.1,0,0,0,.1,0,.4,0,.8-.2,1.2-.1-.4-.2-.8-.3-1.2-.4-.7-.3-1.2-.8-1.9-1.2-.2,0-.5-.1-.8-.3-.4-.3-.8-.8-1.2-1.1,0,0-.1,0-.1,0,0,0,0-.2-.1-.3-.3-.3-.9-.6-1.2-.9-.6-.6-.6-1.3-1-2-.1-.3-.4-.6-.5-1-.4-1-.5-1.8-.7-2.8-.2-.8-.6-1.7-.8-2.5-.1-.6-.2-1.3-.3-1.8,0-.2-.4-.4-.2-.7.1-.2.5.4.5.5.3.5.2.9.4,1.4.7,2.6,1.4,5,2.5,7.4.1.3.3.7.5.9.7.7,1.6.4,2.6.5-.1-.1-.1-.2-.2-.4-.4-1.4-.9-3.2-.9-4.6,0-.4.2-.6.4-.2s.1,1.1.2,1.5c.1.9.4,1.9.7,2.7,0,0,.1,0,.1.1,0,.2,0,.6,0,.8,1.1,0,2.3,0,3.4,0,.2,0,0-.2,0-.3,0-.1.1-.2.1-.3.1-1.8-.5-3.7-.9-5.4-.3-1.1,0-1.4-1.3-1.6-1.9-.3-3.9.4-5,2.1-.1.2-.3,1-.6.8-.2,0-.1-.3,0-.4.2-.6,2.1-2.3,2.7-2.6.4-.1.8-.2,1.2-.3-.4-.3-.6-.6-.9-.9-.1-.1-.4-.3-.5-.4-.7-.7-1-1.9-.8-2.9,0-.1.2-.2.1-.3l.3-1.3h0ZM21.4,8.9c0,0-1,.7-1.2.7l-1.9.5c.4.2,1.1.5,1.4.9,1.1,1.2.9,4.2,1,5.8,0,0,0,.4.1.4.3-1.9.7-3.8.5-5.6.2-.9,0-1.7,0-2.6h0ZM16.5,10c0-.2-1.4-.2-1.5-.2l.3,1.4c0,0,.6-.8.7-.9,0,0,.4-.3.4-.3ZM19.1,11.1c-.6-.6-1.7-1.2-2.6-.6-1.5,1-.7,2.1-.5,3.4.2,1,.1,2.1.2,3.2.5,0,1,.2,1.5.2s.6-.1.8-.1c.4,0,.9,0,1.3,0,.6,0,.1-.8.2-1.2,0-.1.1-.1.1-.2.2-1.2-.1-3.7-1.1-4.6h0ZM20,20.5c.6-.5.8-1.7.9-2.4,0,0,.2-.2,0-.4h-3.7c-1.2-.4-2.4-.1-3.6-.1-1,0-2.1-.1-3.1,0,.2.2.4.5.6.7.5.4.9.7,1.4,1,.8.4,1.6,1,2.5,1.3,1.4.5,3.7,1,5,0h0Z"/>
      <g>
        <path class="st0" d="M16.4,6.7c.2.1-.4,1.3,0,1.5.1,0,.2,0,.2,0,.1.1,0,1.2-.5.6-.1-.2-.4-1.1-.4-1.3,0-.2.1-.3.1-.4,0,0,0,0,0-.2,0-.2.3-.5.5-.3h0Z"/>
        <path class="st0" d="M13,7s0-.1,0-.2c0-.2-.2-1.4-.2-1.6,0,0,0-.2.1-.2.5-.3.4,1.1.4,1.2,0,.2.2.2.1.5,0,.2-.3.3-.4.2h0Z"/>
      </g>
    </g>
  </g>
</svg>