<?xml version="1.0" encoding="UTF-8"?>
<svg id="Layer_1" xmlns="http://www.w3.org/2000/svg" viewBox="0 0 24 24">
  <path d="M17.95,2.02c1.06-.15,2.38.58,2.82,1.56,1.15,2.55-.14,7.37-1.5,9.72-1.13,1.95-2.12,3.39-3.45,5.2-.76,1.04-1.55,2.33-2.38,3.29-.33.38-.61.21-.89-.09-1.97-2.05-3.8-4.25-5.67-6.41-1.71-1.98-3.38-3.68-3.96-6.34-.48-2.2.27-5.06,2.37-6.19,2.99-1.59,5.1,2.87,6.04,4.99.18.41.31.93.51,1.32.16.31.22.25.35-.04.75-1.67.99-2.38,2.16-3.85.74-.92,2.4-2.99,3.59-3.16ZM12.4,10.81c-.21.25-.63-.04-.78-.25-.37-.54-.36-.9-.47-1.47-.22-1.07-1.75-4.09-2.51-4.87-.61-.63-1.68-1.38-2.59-1.1-1.6.49-2.76,2.84-2.74,4.42,0,.11.1.65.17.69.22.01.36-.14.6-.15s.75.19.89.09c.14-.09-.1-.95.48-1.18.77-.29,1.5.85,1.67,1.47.08.31.06.92.3,1.13,1.58.67,3.14,1.39,4.77,1.96.79-.28,1.5-.79,2.26-1.17.85-.42,1.75-.77,2.62-1.16.28-.25-.36-2.27.62-2.28.8-.01.69,1.19,1,1.33.17.08.53.01.76.04.7.1.94.78,1.02-.5.08-1.18.23-3.37-.47-4.34-.3-.42-1.28-.87-1.79-.87s-1.15.53-1.52.86c-1.7,1.52-3.38,3.79-4.02,5.99-.06.22-.24,1.29-.28,1.35ZM18.94,12.36c-.07-.04-1.35,0-1.57,0-.53,0-.43,1.56-1.07,1.48-.93-.13-1.97-.67-2.85-1.05-1.46-.63-2.91-1.25-4.37-1.87-.42-.18-2.06-.75-2.24-1.02s-.16-.76-.23-1.09c-.06-.27-.5-1.26-.8-1.26-.46,0,.16.95-.2,1.23s-1.26-.25-1.37-.14c-.24.24,1.13.94.89,1.26-.13.18-.9-.04-1.12.11.02.38.98.47,1.03.61.11.33-.44.27-.54.48-.11.22.08.34.29.35.92,0,1.79-.32,2.78-.03s1.76,1.2,2.56,1.74c1.49,1,4.63,2.54,6.34,3.05.47.14.5-.15.74-.52.44-.67.77-1.41,1.16-2.11.15-.27.52-.71.61-.94.03-.07.02-.25-.02-.27ZM19.54,8.93c-.17-.05-.95,0-1.2,0-.34,0-.27-1.03-.44-1.14-.15-.09-.27.03-.27.19,0,.61.35,1.04-.18,1.55-.58.56-1.38.74-2.08,1.07-.64.3-1.23.61-1.83.97-.26.16-.75.21-.31.46.28.16,1.4.64,1.7.7.69.16,1.26-.47,1.83-.75.25-.12.61-.23.89-.26.3-.03,1.37.17,1.49-.05.17-.3-1.22-.6-1.17-.99.06-.43.67-.2.99-.21.1,0,1.11-.18.62-.33-.29-.09-.66.12-.94-.21-.48-.58.85-.57.95-.71.06-.08.03-.26-.06-.29ZM9.03,14.19c-.31.2-1.1-.81-1.34-1.02-.3-.27-.65-.51-.95-.77-.15-.13-.24-.37-.41-.44-.14-.06-.68,0-.87.02-.65.1-.1.58.14.88.56.69,1.22,1.27,1.8,1.92.18.21.85,1.17,1,1.23.3.13.79-.12,1.09-.23.5-.19,1.37-.59,1.81-.88.09-.06.18-.12.24-.21l-.21-.19c-.49-.13-1.33-.86-1.78-.91-.47-.06-.46.57-.54.61ZM7.68,12.4c.23.24.68.49.91.78.1.09.31,0,.32-.11.03-.15-1.22-1.07-1.37-.94,0,.09.08.2.13.27ZM16.17,12.83c-.13.03-.24.16-.33.25.37.44.82-.35.33-.25ZM11.12,19.33c.3.32.74.63,1.04.93.18.19.73,1.04,1,.89,1.05-1.38,1.97-2.85,3.12-4.15l.03-.19c-.03-.09-1.54-.6-1.77-.69-.65-.28-1.45-.77-2.1-.99-.62-.2-.82.24-1.29.51-.29.17-.65.34-.96.47-.25.11-1.18.34-1.2.58-.01.15.58.72.72.88.46.56.93,1.24,1.42,1.76Z"/>
</svg>