<?xml version="1.0" encoding="UTF-8"?>
<svg id="Layer_1" xmlns="http://www.w3.org/2000/svg" version="1.1" viewBox="0 0 24 24">
  <!-- Generator: Adobe Illustrator 29.3.0, SVG Export Plug-In . SVG Version: 2.1.0 Build 146)  -->
  <defs>
    <style>
      .st0 {
        fill: #7f1524;
      }
    </style>
  </defs>
  <path class="st0" d="M18,2c1.1-.1,2.4.6,2.8,1.6,1.1,2.6-.1,7.4-1.5,9.7-1.1,1.9-2.1,3.4-3.4,5.2-.8,1-1.6,2.3-2.4,3.3-.3.4-.6.2-.9,0-2-2-3.8-4.2-5.7-6.4-1.7-2-3.4-3.7-4-6.3-.5-2.2.3-5.1,2.4-6.2,3-1.6,5.1,2.9,6,5,.2.4.3.9.5,1.3.2.3.2.2.4,0,.8-1.7,1-2.4,2.2-3.8.7-.9,2.4-3,3.6-3.2h0ZM12.4,10.8c-.2.2-.6,0-.8-.2-.4-.5-.4-.9-.5-1.5-.2-1.1-1.8-4.1-2.5-4.9-.6-.6-1.7-1.4-2.6-1.1-1.6.5-2.8,2.8-2.7,4.4,0,.1,0,.7.2.7.2,0,.4-.1.6-.1s.8.2.9,0c.1,0,0-.9.5-1.2.8-.3,1.5.8,1.7,1.5,0,.3,0,.9.3,1.1,1.6.7,3.1,1.4,4.8,2,.8-.3,1.5-.8,2.3-1.2.9-.4,1.8-.8,2.6-1.2.3-.2-.4-2.3.6-2.3.8,0,.7,1.2,1,1.3.2,0,.5,0,.8,0,.7.1.9.8,1-.5,0-1.2.2-3.4-.5-4.3-.3-.4-1.3-.9-1.8-.9s-1.1.5-1.5.9c-1.7,1.5-3.4,3.8-4,6,0,.2-.2,1.3-.3,1.4h0ZM18.9,12.4c0,0-1.4,0-1.6,0-.5,0-.4,1.6-1.1,1.5-.9-.1-2-.7-2.9-1.1-1.5-.6-2.9-1.2-4.4-1.9-.4-.2-2.1-.8-2.2-1s-.2-.8-.2-1.1c0-.3-.5-1.3-.8-1.3-.5,0,.2.9-.2,1.2s-1.3-.2-1.4-.1c-.2.2,1.1.9.9,1.3-.1.2-.9,0-1.1.1,0,.4,1,.5,1,.6.1.3-.4.3-.5.5-.1.2,0,.3.3.4.9,0,1.8-.3,2.8,0s1.8,1.2,2.6,1.7c1.5,1,4.6,2.5,6.3,3,.5.1.5-.1.7-.5.4-.7.8-1.4,1.2-2.1.1-.3.5-.7.6-.9,0,0,0-.2,0-.3h0ZM19.5,8.9c-.2,0-1,0-1.2,0s-.3-1-.4-1.1c-.1,0-.3,0-.3.2,0,.6.4,1-.2,1.6-.6.6-1.4.7-2.1,1.1-.6.3-1.2.6-1.8,1-.3.2-.8.2-.3.5.3.2,1.4.6,1.7.7.7.2,1.3-.5,1.8-.8.2-.1.6-.2.9-.3.3,0,1.4.2,1.5,0,.2-.3-1.2-.6-1.2-1,0-.4.7-.2,1-.2.1,0,1.1-.2.6-.3-.3,0-.7.1-.9-.2-.5-.6.9-.6,1-.7,0,0,0-.3,0-.3h0ZM9,14.2c-.3.2-1.1-.8-1.3-1-.3-.3-.7-.5-.9-.8-.2-.1-.2-.4-.4-.4-.1,0-.7,0-.9,0-.7.1,0,.6.1.9.6.7,1.2,1.3,1.8,1.9.2.2.9,1.2,1,1.2.3.1.8-.1,1.1-.2.5-.2,1.4-.6,1.8-.9,0,0,.2-.1.2-.2l-.2-.2c-.5-.1-1.3-.9-1.8-.9-.5,0-.5.6-.5.6h0ZM7.7,12.4c.2.2.7.5.9.8.1,0,.3,0,.3-.1,0-.1-1.2-1.1-1.4-.9,0,0,0,.2.1.3h0ZM16.2,12.8c-.1,0-.2.2-.3.2.4.4.8-.4.3-.2ZM11.1,19.3c.3.3.7.6,1,.9.2.2.7,1,1,.9,1.1-1.4,2-2.9,3.1-4.1v-.2c0,0-1.5-.6-1.7-.7-.6-.3-1.4-.8-2.1-1-.6-.2-.8.2-1.3.5-.3.2-.6.3-1,.5-.2.1-1.2.3-1.2.6,0,.1.6.7.7.9.5.6.9,1.2,1.4,1.8h0Z"/>
</svg>