<?xml version="1.0" encoding="UTF-8"?>
<svg id="Lag_1" xmlns="http://www.w3.org/2000/svg" version="1.1" viewBox="0 0 254 312.7">
  <!-- Generator: Adobe Illustrator 29.3.0, SVG Export Plug-In . SVG Version: 2.1.0 Build 146)  -->
  <defs>
    <style>
      .st0 {
        stroke-width: 22px;
      }

      .st0, .st1 {
        fill: none;
      }

      .st0, .st1, .st2, .st3, .st4 {
        stroke: #7f1524;
      }

      .st0, .st1, .st3, .st4 {
        stroke-miterlimit: 10;
      }

      .st5 {
        isolation: isolate;
      }

      .st1, .st3 {
        stroke-width: 2px;
      }

      .st2 {
        stroke-miterlimit: 10;
        stroke-width: 2px;
      }

      .st2, .st3, .st4, .st6 {
        fill: #7f1524;
      }

      .st4 {
        stroke-width: .8px;
      }
    </style>
  </defs>
  <path class="st0" d="M232.8,132.2c0,16.9-4,29.4-5.4,33.5-5.1,14.8-12.5,24.4-16.3,29.4-9.7,12.6-19.9,20.3-25.3,23.9-8.3,5.6-15.5,8.9-19.3,10.5-6.7,2.8-20.7,8.5-39.3,8.3-5,0-24.7-.7-45.7-12.7-16.5-9.5-25.6-21.2-33.3-31.4-11.9-15.7-26.4-34.9-26.6-61.5-.1-20.4,8.2-38,13-48,2.4-5,5.5-11.5,11-19.1,4.2-5.8,25.5-35.1,59.3-39.1,2-.2,8.8,0,22.4.5,33.1,1.2,38.4,3.5,41.1,4.8,3.9,1.9,10,6,22.3,14.2,4.8,3.2,7.2,4.8,8.6,5.9,5.4,4.2,11.8,10.9,19.4,27.5,7.1,15.4,14.3,31.1,14.4,53.3h-.3,0Z"/>
  <path class="st1" d="M91.8,106.5c-.2,5.6.4,10,.7,11.9.8,5.4,2.1,9.3,2.4,10.1,2,6,4.9,14.5,13.1,20.6,8.1,5.9,16.7,6.1,19.4,6.1s9-.2,15.1-4.1c5-3.2,7.6-7.4,8.7-9.2.9-1.5,2.6-4.7,4.5-16.6.1-.9,1.8-12.5.4-26.5-.2-2.2-.6-5-2.7-6.4-3.4-2.2-9,1.3-9.9,1.8-.1-1.9-.4-4.6-1.2-7.8-1.2-4.5-3.1-8.3-3.5-8.2-.3,0,.2,2.1,1.3,9.4.7,4.6.8,5.9,0,6.9-1,1.1-2.4,1-6.6,1.3-7.7.5-7.8,1.3-9,.7-6.1-2.7-3.7-19.7-5-19.7s-1.3,3.2-1.8,7c-1.1,8.3-.4,14.7-.6,14.7-.3,0-2-20.5-3.1-20.5s-.6,2.6-1.6,13.4c-.3,3.2-.6,5.9-.8,7.7-2,.8-3.9,1.6-6,2.3-2.9,1.1-5.7,2.1-8.4,3.1-.9-2.5-1.9-6-2.1-10.3-.2-6.6,1.9-11.5,1.8-11.5,0,0-4.7,9.9-5.1,23.8h0Z"/>
  <path class="st1" d="M98.5,138.3c-.6.3-1.6.7-2.8.6-3,0-4.9-2.7-6.2-4.3-2.8-3.5-3-7.3-3-8.4s0-3.6,1.3-5.8c.3-.6.9-1.4,1.9-2.2h0c.6-.2,1.5-.3,2.7.2"/>
  <path class="st1" d="M94.5,135.7c-2,.2-3.6,1.4-4.3,3-1,2.4.5,5.1,2.3,6.2,2.5,1.5,6.4.5,8.4-2.8"/>
  <path class="st1" d="M156.7,108c.4-.5,1.7-1.7,3.4-1.7,2.8,0,4.3,3.6,4.7,4.3,1.6,3.5.7,7.1,0,9.3-.4,1.6-1.7,6.2-5.2,7.8-1.1.5-2.1.6-2.8.5h-1.1"/>
  <path class="st1" d="M158.9,124.3c.6-.2,2.1-.7,3.4,0,2.5,1.2,3.6,5.6,1.4,8-1.7,1.8-4.7,1.8-6.6.6-.9-.6-1.5-1.4-1.7-2"/>
  <g>
    <path class="st1" d="M117.8,141c3.3.2,7.2.1,11.6-.4,4.2-.5,7.9-1.3,11-2.2"/>
    <path class="st1" d="M122.7,145.1c.6.4,3.7,2.4,7.7,1.6,3.4-.7,5.4-2.8,5.9-3.5"/>
    <path class="st1" d="M135.9,139.5c-.5-.4-4.1-3.3-8.9-2.2-3.3.7-5.3,3-5.8,3.7"/>
  </g>
  <path class="st1" d="M123.3,118.8c0,1.3-.3,3.4-.8,5.9-.6,2.9-1.2,4-.6,4.9.4.6,1.7,1.5,6.8.2"/>
  <ellipse class="st2" cx="111.4" cy="118.1" rx="3" ry="3.9" transform="translate(-17.1 18.9) rotate(-9)"/>
  <path class="st3" d="M141.8,113.2c.3,2.1-.7,4.1-2.3,4.3s-3.2-1.3-3.5-3.4.7-4.1,2.3-4.3c1.6-.3,3.2,1.3,3.5,3.4Z"/>
  <path class="st1" d="M103.9,116.6c1-.8,3.3-2.4,6.6-2.8,2.5-.3,4.5,0,5.6.4"/>
  <path class="st1" d="M132.8,111.9c.6-.6,2.3-2.3,5.2-2.8,3.1-.6,5.5.6,6.2,1"/>
  <path class="st1" d="M102.4,106.1c1.1-.6,3.1-1.6,5.8-1.8,2.8-.3,5.1.3,6.3.7"/>
  <path class="st1" d="M131.4,101.7c1.1-.7,3-1.8,5.6-2.3,2.8-.5,5.1,0,6.4.2"/>
  <path class="st1" d="M184.2,191.8c-2.8-5.7-7.9-13.8-16.3-18.9-4.9-2.9-11.8-5.3-13.1-5.8-3.3-1.2-5.4-3-8.1-2.4-2.4.6-2.9,2.3-5.1,4.3-6,5.4-14.7,4.7-15,4.7-6.1-.6-11-4.3-12.6-5.6-2.6-2-2.8-2.9-4.7-3.4-2.6-.7-4.8.3-12,3.9-5.2,2.6-7.8,3.8-8.1,4.1-8.3,5-13.8,12.9-16.7,18,2.5,3.2,21.7,26.7,54.8,27.4,34.2.7,54.6-23.3,57.1-26.3h-.2Z"/>
  <path class="st1" d="M105,172l6.4-5.9-6.4,5.9Z"/>
  <path class="st1" d="M111.4,176.3l4.7-6.4-4.7,6.4Z"/>
  <path class="st1" d="M117.8,180.4l3.4-7.4-3.4,7.4Z"/>
  <path class="st1" d="M126.2,182.4l.3-8.5-.3,8.5Z"/>
  <path class="st1" d="M133.6,182.4l-1-8.5,1,8.5Z"/>
  <path class="st1" d="M140.4,179.3l-2.9-7.3,2.9,7.3Z"/>
  <path class="st1" d="M148.1,174.8l-6.6-5.7,6.6,5.7Z"/>
  <path class="st1" d="M152.2,171l-6.6-4.9,6.6,4.9Z"/>
  <path class="st1" d="M151.2,141.8c3.1.5,8.8,1,14.8-1.7,1.8-.8,4.4-2,6.6-4.7,3.9-4.8,3.6-10.7,4.2-10.7s.6,3.4.2,7c-.5,4-1.5,6.4-1.2,6.6.4.2,2.8-3.3,4.2-7.3.9-2.5,2.4-7.8.6-17.5-.6-3.3-2.3-10.2-7.7-20.5-5.1-9.7-10.2-19.4-21.2-26.1-4-2.4-10.7-6.5-18.9-5.9-2.1,0-2.5.5-11.5,2-10.1,1.8-10,1.4-12,2-7.5,2.3-12,7.9-15.9,12.8-4.3,5.4-6.3,10.1-10.2,19.4-4.8,11.4-6.1,18-6.6,22.2-.8,5.8-1.1,11.3,1.8,15.1.4.5,1.8,2.2,2.9,4.7.9,2,2.1,4.9.8,6.2-1.1,1.2-3.8.9-5.5-.2-1.8-1.3-2-3.4-2.5-3.3-.5,0-.9,2.2-.2,3.9,1,2.2,3.4,2.9,3.7,2.9,2.2.5,4-.9,4.3-.4.2.3-.5,1.2-1.4,1.8-2.1,1.5-4.6.8-4.7,1.1,0,.3,4.2,2.5,7.8,1,3.3-1.4,4.7-5.3,5.1-5.1s-1.7,3.2-1,4.8c.9,2.1,7,2.5,23.3-1.3"/>
  <path class="st1" d="M167.9,130.7c-.3,1.6-.8,3.5-1.8,5.7-.9,1.9-1.9,3.5-2.7,4.7"/>
  <path class="st1" d="M115.4,153c0,1.1.2,3.7-1.1,6.5-1.6,3.3-4.1,4.9-5.1,5.4"/>
  <path class="st1" d="M138.9,153c0,1.2,0,3.6,1.3,6.3,1.7,3.4,4.5,5,5.5,5.6"/>
  <circle class="st4" cx="117.5" cy="134.8" r=".3"/>
  <path class="st1" d="M106.5,123"/>
  <g class="st5">
    <g class="st5">
      <path class="st6" d="M26.3,253c.9,0,2,0,3.1,0,1.1,0,2.3.1,3.4.2,1.2.1,2.3.3,3.4.6,1.1.3,2.1.6,2.9,1.1,1.1.6,1.8,1.2,2.3,1.9s.7,1.7.7,2.9-.3,2.5-.8,3.4c-.5.9-1.5,1.3-3,1.3s-1.3,0-1.8-.3c-.5-.2-1-.4-1.4-.6-.4-.2-.8-.5-1.2-.6-.4-.2-.8-.3-1.3-.3s-.7.1-.9.4c-.2.3-.4.6-.6,1s-.2.8-.3,1.3c0,.5,0,.9,0,1.3,0,1.9.3,3.8.9,5.6.6,1.8,1.3,3.6,2,5.4.7,1.8,1.4,3.6,2,5.4.6,1.8.9,3.7.9,5.5s-.3,2.9-.9,4c-.6,1.2-1.4,2.1-2.4,2.9-1,.8-2.2,1.3-3.5,1.7-1.3.4-2.6.6-4,.6s-2.7-.2-4-.6c-1.3-.4-2.5-.9-3.5-1.7-1-.8-1.8-1.7-2.5-2.9s-1-2.5-1-4v-.2c0-1.9.3-3.7.9-5.5.6-1.8,1.2-3.6,2-5.4.7-1.8,1.4-3.6,2-5.4.6-1.8.9-3.7.9-5.5s0-1.1,0-1.6,0-1-.1-1.4c0-.4-.3-.7-.6-1-.3-.2-.8-.4-1.4-.4s-1,0-1.4.3c-.4.2-.9.4-1.4.6-.5.2-.9.5-1.4.6s-1,.3-1.6.3c-1.3,0-2.4-.4-3.2-1.1s-1.2-1.8-1.2-3.2.3-2.2,1-3c.7-.8,1.6-1.4,2.6-1.9,1.1-.5,2.3-.9,3.6-1.1,1.4-.3,2.7-.4,4.1-.6,1.3-.1,2.6-.2,3.8-.2h3Z"/>
      <path class="st6" d="M51.9,252.6c2.3,0,4,.5,5.3,1.5,1.3,1,1.9,2.3,1.9,4.1s-.1,1.8-.4,2.9c-.3,1.1-.5,2.2-.8,3.5-.3,1.2-.6,2.5-.8,3.9-.3,1.3-.4,2.7-.4,4.1s.3,2.9.8,4.2,1.1,2.5,1.8,3.8c.6,1.2,1.2,2.5,1.8,3.8.5,1.3.8,2.8.8,4.4v.2c0,7.5-3.2,11.3-9.7,11.3s-5.1-.7-6.7-2.1c-1.6-1.4-2.5-3.4-2.6-5.9v-.4c0-1.4.2-2.7.6-3.8.4-1.2.9-2.3,1.4-3.5.5-1.2,1-2.5,1.4-3.9.4-1.4.6-3,.6-4.8s-.2-3.2-.5-4.5c-.4-1.3-.7-2.5-1.2-3.6s-.8-2.2-1.2-3.3c-.4-1.1-.6-2.3-.6-3.7,0-2.6.7-4.5,2.2-5.9,1.5-1.4,3.5-2.1,6.3-2.1Z"/>
      <path class="st6" d="M63,261.3c0-1.4.2-2.6.6-3.6.4-1,1-1.8,1.7-2.5.7-.7,1.5-1.1,2.5-1.4,1-.3,2-.5,3.1-.5s2.2.2,3.2.5,1.8.8,2.4,1.4c.7.6,1.2,1.3,1.6,2.1.4.8.6,1.7.6,2.6s-.2,2-.6,3.1c-.4,1.1-.9,2.2-1.4,3.3-.5,1.2-1,2.4-1.4,3.7-.4,1.3-.6,2.7-.6,4.2s.4,3.6,1.3,4.9c.9,1.2,2,1.9,3.4,1.9s1.9-.3,2.6-.9c.7-.6,1.3-1.3,1.9-2.1s1.3-1.5,2-2.1c.7-.6,1.6-.9,2.8-.9,1.7,0,3,.8,4,2.4.9,1.6,1.4,3.8,1.4,6.6,0,5.2-1.6,9-4.9,11.5-3.3,2.5-8,3.8-14.3,3.8s-3.7-.2-5.1-.5c-1.4-.3-2.6-.8-3.5-1.4-.9-.7-1.6-1.5-2-2.6s-.7-2.3-.7-3.8v-.5c0-1.2,0-2.5.3-3.8.2-1.3.4-2.6.6-4,.2-1.4.4-2.7.6-4.1s.3-2.7.3-4-.1-2.5-.4-3.6c-.2-1.1-.5-2.2-.8-3.2-.3-1.1-.5-2.1-.8-3.2-.2-1.1-.4-2.2-.4-3.4Z"/>
      <path class="st6" d="M108.6,253.6c2.5,0,4.9.2,7.1.6,2.2.4,4.1,1,5.8,1.7,1.6.7,2.9,1.6,3.9,2.6.9,1,1.4,2,1.4,3.2s-.3,2.5-.8,3.4c-.5,1-1.2,1.8-1.9,2.5s-1.6,1.3-2.5,1.8-1.8.9-2.5,1.3c-.8.4-1.4.7-1.9,1-.5.3-.8.6-.8.9s.3.5,1,.7c.7.2,1.5.4,2.5.6,1,.2,2.1.5,3.3.9,1.2.4,2.3.8,3.3,1.5,1,.6,1.9,1.5,2.5,2.4.7,1,1,2.2,1,3.7,0,2.6-.6,5.1-1.8,7.4-1.2,2.3-2.9,4.1-5,5.5-.9.6-2,1.2-3.3,1.7-1.3.5-2.6,1-4,1.3-1.4.4-2.9.7-4.3.9s-2.9.3-4.2.3c-3.4,0-6.1-.7-8.1-2-2-1.3-3-3.1-3.1-5.4h0c0-1.1.2-2.1.5-3.1.3-1,.7-2,1.1-3.1.4-1.1.8-2.2,1.1-3.4.3-1.2.5-2.4.5-3.7s-.2-2.6-.5-3.9c-.3-1.4-.6-2.8-1-4.2-.4-1.4-.7-2.9-1-4.3-.3-1.4-.5-2.9-.5-4.3,0-3,1-5.2,2.9-6.6,1.9-1.4,5-2,9.2-2ZM110.3,269.8c.5,0,.9,0,1.4-.3.4-.2.8-.5,1.2-.8.4-.3.6-.7.8-1.1s.3-.8.3-1.3-.1-.9-.3-1.3c-.2-.4-.5-.8-.8-1.1-.4-.3-.8-.6-1.2-.8-.4-.2-.9-.3-1.4-.3-.9,0-1.6.3-2.1,1-.5.6-.8,1.5-.8,2.5s.3,1.9.8,2.5c.5.6,1.2,1,2.1,1ZM110.7,284.6c.4,0,.9,0,1.4-.3.5-.2.9-.4,1.2-.7.4-.3.7-.6.9-1,.2-.4.3-.7.3-1.1s-.1-.8-.4-1.2c-.3-.4-.6-.9-1-1.2-.4-.4-.8-.7-1.3-.9-.5-.2-1-.4-1.4-.4-.7,0-1.3.3-1.8.9-.4.6-.6,1.4-.6,2.4s.2,1.9.7,2.6c.5.7,1.2,1,2,1Z"/>
      <path class="st6" d="M130.9,290.4c0-1.1.3-2.2.8-3.3.5-1.1,1.2-2.1,1.9-3.1.8-1,1.6-2,2.4-2.9.8-.9,1.6-1.8,2.2-2.6,1-1.3,1.7-2.6,2.2-3.9.5-1.3.9-2.6,1.1-3.8s.4-2.5.4-3.6c0-1.2.1-2.3.2-3.3,0-1.1.2-2,.4-2.9.2-.9.5-1.7,1-2.4.6-.8,1.3-1.5,2-2,.8-.5,1.6-1,2.5-1.3.9-.4,1.9-.6,2.8-.8,1-.2,1.9-.2,2.9-.2,1.4,0,2.7.2,3.9.6,1.2.4,2.2,1.1,3.1,2.3.4.5.8,1.3,1.2,2.3.3,1,.7,2,1,3.2s.7,2.2,1.1,3.4c.4,1.1.8,2.1,1.2,2.9.7,1.2,1.4,2.2,2.2,3.1.8.9,1.5,1.8,2.3,2.6.8.8,1.5,1.7,2.2,2.5.7.8,1.4,1.8,1.9,2.7.5,1,1,2.1,1.3,3.2s.5,2.5.5,4.1-.2,2.7-.5,3.8c-.4,1.2-.9,2.2-1.6,3-.7.8-1.6,1.5-2.7,2-1.1.5-2.4.7-3.9.7s-3.4-.3-4.7-1c-1.2-.7-2.3-1.5-3.1-2.6-.8-1-1.4-2.1-1.9-3.3-.5-1.2-.9-2.3-1.3-3.3s-.8-1.9-1.2-2.6c-.4-.7-.9-1-1.5-1s-.3,0-.4,0c-.1,0-.3,0-.4.2-.9.6-1.5,1.5-1.8,2.5s-.5,2.2-.7,3.4-.3,2.4-.4,3.6-.5,2.3-1,3.3c-.5,1-1.4,1.8-2.5,2.4s-2.7.9-4.8.9c-3.3,0-5.9-.7-7.7-2.2-1.8-1.4-2.8-3.6-2.8-6.5ZM149.8,271.9c0,.5.1.9.4,1.2.2.4.6.6.9.8.4.2.8.4,1.2.5.4.1.9.2,1.3.2s.8,0,1.3-.1c.5,0,.9-.3,1.3-.5.4-.2.7-.5,1-.8.3-.3.4-.7.4-1.2s-.1-.9-.3-1.4c-.2-.5-.5-.9-.9-1.3s-.8-.8-1.3-1-1-.4-1.6-.4-1.1.1-1.5.4c-.4.3-.8.6-1.2,1-.3.4-.6.8-.8,1.3-.2.5-.3.9-.3,1.4Z"/>
      <path class="st6" d="M176.7,275.8c0-3.6.4-6.8,1.2-9.7.8-2.8,1.9-5.2,3.4-7.2,1.5-2,3.3-3.4,5.4-4.5s4.5-1.6,7.2-1.6,3.2.2,4.6.5c1.4.3,2.7.8,3.7,1.5,1.1.7,1.9,1.4,2.5,2.4.6.9.9,2,.9,3.2s-.7,2.4-2.2,3.1c-1.5.8-3.4,1.2-5.8,1.2s-2.8.1-4.1.3-2.4.7-3.4,1.3c-1,.6-1.8,1.5-2.4,2.7s-.9,2.6-.9,4.4.1,1.5.4,2.2c.3.7.7,1.3,1.2,1.8.5.5,1.2.9,2,1.2.8.3,1.7.5,2.6.5s1.7-.1,2.5-.3c.8-.2,1.6-.5,2.3-.9.7-.4,1.2-.8,1.6-1.2s.6-.9.6-1.3c0-.9-1-1.4-2.9-1.4s-1.1,0-1.7,0c-.6,0-1.2,0-1.7,0-1.2,0-2-.2-2.6-.6-.5-.4-.8-1.1-.8-2s.2-1.7.7-2.2c.5-.5,1-.9,1.8-1.2.7-.3,1.5-.4,2.3-.5.8,0,1.6,0,2.3,0,2.4,0,4.6.1,6.4.4,1.8.3,3.3.8,4.5,1.7,1.2.8,2.1,2.1,2.7,3.6.6,1.6.9,3.7.9,6.3s-.5,5.3-1.4,7.7-2.2,4.5-3.9,6.4c-1.7,1.8-3.6,3.3-5.9,4.3-2.3,1.1-4.8,1.6-7.6,1.6s-5.1-.6-7.2-1.8c-2.1-1.2-3.8-2.8-5.2-4.9-1.4-2.1-2.5-4.6-3.2-7.5-.7-2.9-1.1-6.1-1.1-9.6Z"/>
      <path class="st6" d="M224.8,252.7c2.2,0,4.3,0,6.1.2,1.9.2,3.5.5,4.9.9,1.4.4,2.5,1,3.3,1.8.8.8,1.2,1.8,1.2,3.1s-.2,2.1-.6,2.9c-.4.7-1,1.3-1.7,1.7-.7.4-1.5.7-2.4.9s-1.8.4-2.8.5-1.9.3-2.8.5c-.9.2-1.7.5-2.4.9-.3.2-.6.4-.9.7-.3.3-.4.6-.4,1s.1.6.3.8c.2.2.5.4.7.5.3.1.6.2.9.2.3,0,.6,0,.9,0,.8,0,1.7,0,2.7,0,1,0,1.8.1,2.6.5.5.3,1,.6,1.6,1.1.6.5.8,1,.8,1.7s-.2,1.2-.7,1.6c-.5.4-1.1.7-1.9.9s-1.6.4-2.4.6c-.9.2-1.7.4-2.4.6-.8.2-1.4.5-1.9.8-.5.3-.7.8-.7,1.3,0,1,.4,1.7,1.1,2.1.7.4,1.5.6,2.3.6s1.5,0,2.3-.2c.8-.1,1.5-.3,2.2-.4.7-.1,1.5-.3,2.2-.4.8-.1,1.5-.2,2.3-.2,1.2,0,2.3.2,3,.6.8.4,1.4,1,1.8,1.7.4.7.8,1.5.9,2.5s.2,2,.2,3.1c0,2.7-.6,4.8-1.8,6.3-1.2,1.6-2.7,2.8-4.6,3.6-1.9.8-3.9,1.4-6.1,1.6s-4.4.4-6.5.4-3.6-.2-5.3-.5c-1.7-.3-3.2-.9-4.5-1.6-1.3-.8-2.3-1.8-3.1-3.1s-1.2-2.9-1.2-4.9.2-2.6.7-3.7c.5-1.1,1-2.2,1.6-3.2.6-1.1,1.1-2.2,1.6-3.3.5-1.1.7-2.4.7-3.9s-.2-3.1-.5-4.4c-.3-1.3-.6-2.5-1-3.6-.4-1.1-.7-2.2-1-3.3-.3-1.1-.5-2.3-.5-3.5s.3-2.7.9-3.7c.6-1,1.4-1.8,2.5-2.5,1-.6,2.2-1.1,3.5-1.4,1.3-.3,2.6-.4,3.9-.4Z"/>
    </g>
  </g>
</svg>