<?xml version="1.0" encoding="UTF-8"?>
<svg id="Lag_1" xmlns="http://www.w3.org/2000/svg" version="1.1" viewBox="0 0 397.9 102">
  <!-- Generator: Adobe Illustrator 29.3.0, SVG Export Plug-In . SVG Version: 2.1.0 Build 146)  -->
  <defs>
    <style>
      .st0 {
        font-family: SuperFunky, 'Super Funky';
        font-size: 36px;
      }

      .st0, .st1 {
        fill: #7f1625;
      }
    </style>
  </defs>
  <text class="st0" transform="translate(29.6 61.2)"><tspan x="0" y="0">Næste Fase</tspan></text>
  <path class="st1" d="M340.3,44.3c-4.6.3-6.9.4-9,0-6.8-1.1-7.8-4.2-11.8-3.8-3.9.4-7.4,4.3-8.5,8.5-1.2,4.9.9,9.9,4.3,12.3,3.9,2.8,8.8,1.7,16.1,0,10.8-2.5,16.9-6.9,18.9-4.7,1.7,1.8-1.6,5.8.5,8,2,2.3,7.4.5,9,0,1.3-.4,2.8-1.1,9.6-6.1,5.8-4.3,6.3-5,6.5-6,.2-1.2,0-2.6-6.1-9.7-6.2-7.2-7.9-8.2-9.5-8.7-2.3-.9-6.9-1.9-8.7.2-1.8,2,.9,5.1-.8,7.6-1.2,1.7-4.3,1.9-10.4,2.3Z"/>
</svg>