<?xml version="1.0" encoding="UTF-8"?>
<svg id="Layer_1" xmlns="http://www.w3.org/2000/svg" version="1.1" viewBox="0 0 24 24">
  <!-- Generator: Adobe Illustrator 29.3.0, SVG Export Plug-In . SVG Version: 2.1.0 Build 146)  -->
  <defs>
    <style>
      .st0 {
        fill: #7f1524;
      }
    </style>
  </defs>
  <path class="st0" d="M12.5,2c.1,2.1,1.6,4,2,6,.3,1.5-.3,2.9.4,4.4.7,1.6,2,1.4,2-.4,0-1.1-.6-2.1-.7-3.2,3.7,3.7,1.5,11.9-3.9,13.2,0,0,.9-1.1,1-1.1.8-.6,2.9-1.9,3-4.1.1-3-3-4.4-4.4-1.4,0,0-.3-.5-.4-.6-2-2.7-5,.9-3.6,3.3.8,1.4,3.6,2,3.5,3.9-5.3-1.4-7-8.9-3.8-12.8-.2,1.2-.5,2.2-.1,3.4.3.9,1.5,1.5,1.6.2,0-1-.5-1.7-.6-2.6,0-1.8,1-3.1,1.7-4.7.3-.7.6-1.4.8-2.2.2,1.3-.4,2.6-.6,3.8-.1.6,0,2.4,1,2.1.9-.3.2-3.1.2-3.9,0-1.1,0-2.6.9-3.3h0Z"/>
</svg>