<?xml version="1.0" encoding="UTF-8"?>
<svg id="Layer_1" xmlns="http://www.w3.org/2000/svg" viewBox="0 0 24 24">
  <g id="SRqqSx.tif">
    <g>
      <path d="M7.04,2.47s-.03-.03-.06-.04c-.05-.16.22-.34.35-.38.03-.01.24-.06.26-.06.03,0,.16.04.19.05.21.07.31.31.37.52.07.3,0,.64-.19.89-.04.06-.23.24-.27.11-.03-.3-.03-.61-.21-.87-.11-.16-.25-.21-.43-.22.13.09.28.12.38.27.2.28.19.71.14,1.04,0,0,.19-.1.21-.11.18-.11.25-.14.45-.22.02,0,.02-.03.03-.04.2-.06.52,0,.71.06.25.1.45.27.51.54.04.15.05.41-.01.56-.05.11-.11.04-.13-.04-.08-.33,0-.6-.33-.82-.44-.31-.95-.08-1.36.16-.03.01-.18.11-.19.1.06-.29.05-.58-.08-.85-.1-.21-.24-.38-.48-.44-.27-.07-.81,0-.98.25-.13.17-.08.49.03.67.07.12.29.3.42.34.17.05.22.01.37,0,.1,0,.28,0,.38.02.08.01.1.07.09.15-.01.06-.2.13-.26.17-.51.33-.9.81-.48,1.42.29.42.98.33,1.29-.02.2-.22.3-.4.62-.49s.48-.1.78-.31c.03-.02.16-.11.17-.05,0,.03-.12.18-.15.21-.16.15-.28.2-.48.28-.02,0-.02.03-.03.04-.18.06-.3.03-.48.16-.2.15-.3.38-.51.52-.13.08-.26.11-.4.15-.01,0-.01.03-.02.03-.19.04-.43,0-.6-.06-.74-.31-.63-1.37-.06-1.79l.27-.2s-.1,0-.13,0c-.33,0-.49.04-.77-.18-.32-.25-.33-.73-.17-1.08.23-.48.8-.46,1.24-.42ZM7.82,3.39s.11,0,.14-.04c.17-.17.07-.66-.02-.86-.1-.23-.26-.29-.5-.27-.05,0-.15.01-.17.06.14.02.29.17.35.29.12.24.13.48.17.73,0,.02.02.07.03.08Z"/>
      <path d="M7.86,3.85s.07.38.09.46c.06.24.19.46.38.62.05.04.2.08.09.17-.04.03-.19.1-.23.11-.09.02-.16,0-.22-.05-.2-.17-.41-.61-.43-.87s.02-.29.23-.41c.02-.01.03-.07.09-.03Z"/>
      <path d="M6.89,4.42c.09-.03.24-.31.28-.09.07.47.13.69.48,1.04.05.05.12.04.11.14,0,.06-.16.15-.22.16-.03,0-.07-.01-.1-.02-.22-.09-.5-.59-.55-.82-.03-.14-.06-.28.02-.41Z"/>
      <path d="M8.78,3.74c.21-.06.19.26.06.38-.17.15-.21-.33-.06-.38Z"/>
      <g>
        <path d="M9.94,2.87s.02.09.02.11c-.01.12-.34.18-.44.23-.09.04-.28.15-.36.2-.02.01-.02.04-.04.05-.08.03-.07-.05-.06-.1,0,0,.1-.16.1-.16.03-.03.06-.03.08-.05.14-.12.28-.26.47-.31.06-.02.18-.02.22.03Z"/>
        <path d="M9.1,2.42s.04.16.03.22c-.02.14-.1.46-.15.6s-.12.06-.13-.05c-.02-.16,0-.48.03-.63.02-.09.11-.23.22-.15Z"/>
      </g>
    </g>
  </g>
  <g id="_x37_Ib1B5.tif">
    <g>
      <path d="M5.61,10.65c-.07,0-.1-.06-.11-.11-.02-.12.12-.38.26-.42.05-.01.08-.02.09.03-.15.13-.27.32-.25.51Z"/>
      <path d="M15.48,8.12s-.06.04-.09.04c-.04-.04.17-.37.19-.44.01-.02.04-.03.06-.03.11.03-.11.38-.17.43Z"/>
      <g>
        <path d="M14.48,7.85l.28-.15c.26-.12.8-.29,1.08-.22.26.06.23.37.15.53-.3.63-1.39,1.28-2.08,1.64-.54.28-1.11.53-1.69.75-.07.05-.07.13-.1.2-.16.33-.4.63-.58.95-.05.09-.04.14-.02.23.06.23.2.49.28.72.36,1.04.81,2.39.92,3.45.1.96.24,1.93.29,2.89,0,.1-.02.5,0,.55,0,0,.02.02.03.02.19-.64.39-1.27.69-1.89s.61-1.2.94-1.76c.08-.13.39-.56.4-.67,0-.03,0-.07,0-.11-.03-.14-.16-.38-.21-.54s-.09-.31-.13-.47c-.8-.46-1.63-1-2.21-1.66-.2-.22-.57-.72-.42-.99.16-.29.74-.01.94.11.09.06.16.12.24.18.02.01.02.03.06.02-.04-.17-.1-.33-.11-.51-.03-.29.03-.61.16-.88.15-.3.29-.37.69-.34.42.03.71.51.81.81.15-.16.34-.31.61-.24.06.02.11.05.16.07.07.02.14.02.21.05.25.08.5.34.58.55.02.06.07.31.1.32.18-.22.56-.74.9-.79.57-.08.69.69.61,1.01.01.01.21-.11.23-.13.69-.33,1.1.1.8.64l-.22.28c.29-.02.62.06.77.28.21.29.03.52-.24.71-.03.02-.21.11-.21.12,0,.02.05.02.07.02.44.04.76.16.98.49.1.15.16.48.17.66,0,.1-.03.2-.12.27-.29.22-.86.08-1.21,0-.01.01.16.24.17.27.12.22.24.56-.03.73-.35.21-.91-.11-1.21-.28-.52-.29-1.04-.63-1.47-1.01-.21.15-.48.24-.75.3-.18.04-.44.05-.57.17-.11.1-.3.52-.38.67-.31.56-.63,1.16-.9,1.74-.11.24-.23.49-.29.75l.23-.3c.47-.54,1.38-.95,2.16-1.09.16-.03.19-.05.21.1.14,1.08-1.36,2.69-2.73,2.71-.07,0-.21-.04-.27,0-.02.02-.13.21-.14.24-.21.48-.26,1.09-.4,1.6-.02.07-.1.36-.18.38-.16.04-.14-.13-.14-.21.02-.26.13-.61.2-.88.04-.15.15-.41.15-.55,0-.12-.05-.28-.06-.4-.02-.35.01-.71,0-1.06-.01-.31-.03-.99-.18-1.25-.06-.1-.1-.05-.21-.06-1.31-.16-2.39-1.46-2.66-2.45-.09-.34-.13-.82-.06-1.16,0-.05.06-.26.12-.26.09,0,.78.31.9.37.66.33,1.31.85,1.63,1.43l.17.36c-.02-.31-.09-.62-.16-.92-.2-.8-.44-1.62-.68-2.41-.06-.2-.13-.46-.21-.65-.11-.27-.55-.33-.83-.45-.23-.1-.53-.25-.65-.44-.45.29-.97.53-1.48.74-.24.1-.5.21-.75.3-.38.13-1.05.36-1.36.04-.33-.35.17-.89.47-1.14l-.73.03c-.42-.02-.9-.15-.82-.57.02-.1.17-.49.23-.59.23-.42.99-.73,1.54-.6.02-.02-.16-.16-.19-.18-.26-.26-.46-.58-.18-.89.25-.27.66-.31,1.03-.23-.05-.14-.15-.26-.2-.41-.07-.25-.05-.59.23-.75.37-.21.9.1,1.13.35.04,0,.04-.21.05-.24.07-.33.35-.98.89-.89.37.06.68.63.83.89.04.06.07.16.11.22.05.07.07-.09.09-.13.15-.33.42-.62.83-.75.16-.05.23-.03.38-.05.07,0,.13-.05.22-.06.34-.03.53.15.66.39.21-.28.42-.58.78-.74.26-.11.5-.11.78-.04.33.08.41.6.42.83.03.48-.13.9-.36,1.33ZM13.85,5.8c-.35.12-.65.43-.83.69-.11.15-.12.23-.08.41.12-.13.18-.29.28-.43.12-.17.28-.36.44-.51.02-.02.2-.15.19-.16ZM12.18,10.2c.06.03.16-.12.2-.15,1.01-.94,2.5-2.5,2.17-3.83-.07-.27-.17-.49-.54-.3-.51.27-1.04,1.33-1.23,1.81-.25.65-.47,1.31-.71,1.97-.03.09-.13.25-.14.32,0,.03.07.04.08.02.03-.02.05-.09.08-.12.22-.29.49-.55.69-.85.04-.05.09-.06.1.01,0,.18-.51.77-.67.93-.03.03-.1.06-.09.1,0,0,.05.07.05.08ZM11.08,10.12c-.09-.26-.15-.53-.17-.8-.07-.98-.11-1.7-.62-2.62-.19-.33-.62-.99-1.04-.41-.57.79,0,2.18.5,2.92.08.12.78,1,.85,1.01.04,0,.19-.03.2-.07-.13-.39-.31-.79-.32-1.2l.4,1.19c.04.06.14-.02.2-.02ZM11.76,6.25c-.46.12-.74.47-.89.82-.12.27-.07.23,0,.48l.11.38c.12-.47.2-.96.5-1.38l.27-.3ZM11.78,8.13c-.05.31-.12.63-.15.94-.02.28-.01.57-.02.86,0,.08-.06.11.1.1.14,0,.07-.07.09-.16.1-.59.45-1.24.64-1.82.14-.43.43-1.27.09-1.65-.27-.3-.64-.03-.82.2-.54.66-.65,2.08-.59,2.86.02.21.07.43.09.65l.26-.05c0-.39,0-.78.06-1.17.03-.17.06-.39.11-.56.02-.06.04-.17.13-.18ZM9.27,8.86c-.14-.32-.29-.64-.37-.98-.03-.13-.04-.27-.06-.4-.04-.21-.5-.61-.77-.65-.38-.04-.43.21-.41.46.02.17.21.63.38.73.09.05.23.1.32.15.35.19.62.44.91.68ZM12.56,10.14c.48-.23.97-.46,1.43-.72.58-.33,1.43-.86,1.76-1.37.36-.56-.16-.5-.64-.35-.85.27-1.09.89-1.58,1.46-.3.34-.62.61-.94.93-.02.02-.05.03-.04.05ZM10.22,10.4s.21-.09.21-.1c-.32-.23-.52-.54-.77-.81-.5-.54-1.49-1.48-2.39-1.43-.24.01-.55.15-.56.37-.02.38.85.83,1.2,1.02.7.39,1.41.77,2.2,1.03.04.02.11-.04.1-.06,0,0-.04,0-.06-.02-.25-.14-.77-.55-.99-.74-.04-.03-.15-.15-.01-.1.16.07.7.48.86.6.08.07.21.15.23.24ZM7.5,9.52s-.36-.21-.39-.22c-.11-.02-.4-.01-.52,0-.27.02-.54.14-.74.28-.05.03-.28.23-.28.26,0,.02.02.02.05,0,.08-.05.16-.11.26-.16.51-.25,1.08-.23,1.64-.13.02,0-.01-.04-.01-.04ZM8.89,10.28l-.98-.51c-.64-.13-1.36-.23-1.95.08-.42.22-.96.84-.11.93.19.02.93.03,1.1,0,.04,0,.31-.17.39-.21.47-.2,1.04-.23,1.56-.29ZM15.05,13.71c-.03-.11-.06-.23-.08-.35-.12-.87-.18-2.06-.62-2.85-.12-.21-.43-.69-.7-.32-.32.46-.23,1.08-.07,1.56.25.74.69,1.43,1.21,2.06.02-.02.08-.05.08-.07,0-.01-.12-.18-.14-.22-.09-.15-.31-.53-.29-.68,0-.02,0-.04.03-.05l.51.91s.03.01.07,0ZM14.34,10.14s-.08-.06-.11-.05c.27.28.39.62.52.96.1-.12.06-.22,0-.35-.08-.18-.25-.44-.42-.56ZM11.55,10.22c-.28.03-.87.18-1.12.29-.15.07-.32.15-.37.29-.03.1-.04.14.05.21.17.14.92.47,1.15.45.15,0,.23-.15.3-.24.15-.19.4-.53.41-.75,0-.04-.03-.23-.08-.25-.04-.02-.29,0-.35,0ZM9.9,10.79s.02-.07.04-.1c.01-.02.09-.1.06-.11-.03-.01-.35-.06-.41-.07-.69-.09-1.82,0-2.4.35-.29.17-.77.62-.8.92-.04.46.78.21,1.05.11.78-.26,1.51-.66,2.24-1,.03-.03-.04-.02-.06-.02-.2.02-.36.03-.56.07-.27.06-.52.16-.76.28-.03,0-.04,0-.03-.02.05-.14.58-.31.74-.36.29-.08.57-.12.87-.07ZM15.41,13.77s.19.09.22.05c.04-.15.11-.3.16-.45.19-.63.42-2.09-.11-2.61-.43-.42-.71.17-.74.48-.06.68.18,1.39.23,2.07,0,.07-.02.37,0,.4.01.02.13.04.14.03.09-.51.19-1.02.17-1.54.06,0,.06.06.07.09.04.2,0,.57-.01.77-.02.24-.09.47-.13.71ZM16.17,12.13c.04-.1.09-.2.14-.3.03-.05.11-.15.12-.2s-.03-.2-.04-.26c-.07-.27-.24-.58-.56-.7.21.27.3.59.32.91.01.16,0,.32,0,.48,0,.02-.01.06.02.05ZM15.94,13.97s.15.07.17.04c.35-.29.71-.55,1-.88.46-.52,1.06-1.52.74-2.15-.17-.34-.45-.22-.68,0-.45.41-.78,1.03-.97,1.55-.16.45-.21.93-.48,1.35.05.02.1.07.17.05l.52-.9c-.08.32-.28.61-.45.9,0,.01-.01.04,0,.05ZM14.5,13.7l-.4-.55c-.46-.61-.49-1.4-1.36-1.75-.47-.19-.6-.06-.42.33.3.63,1.28,1.38,1.91,1.81l.27.16ZM17.4,13.06l.6-.33c.13-.09.5-.15.6-.22.25-.2.72-1.01.03-.92-.18.02-.56.25-.63.39-.05.09-.07.19-.11.28-.13.28-.3.55-.49.8ZM16.38,14.22s.03.06.06.06c.65-.12,1.26-.33,1.87-.55.31-.12,1.12-.39,1.21-.67.07-.24-.2-.4-.47-.42-.73-.05-1.55.5-2.06.88-.26.19-.47.43-.78.57.02.06.1.09.15.12,0-.01,0-.03.02-.04.08-.08.86-.48.99-.51.04-.01.08-.02.05.02l-1.04.54ZM20.2,14.29c-.1-.22-.37-.45-.64-.53-.1-.03-.42-.09-.51-.08-.08,0-.27.11-.35.15.49,0,.94.05,1.32.32.03.02.16.16.18.14ZM12.39,16.82c0-.29-.05-.58-.15-.85-.33-.95-1.26-1.61-2.3-2.05-.03-.01-.15-.07-.17-.05,0,.63.18,1.27.49,1.84.35.64,1.03,1.44,1.91,1.61.04,0,.2.04.2,0-.12-.21-.22-.43-.34-.64-.08-.14-.57-.87-.55-.96s.12-.07.18-.03c.08.06.26.31.32.39.15.22.23.46.37.68.01.02.02.04.05.05ZM15.04,13.87c-.1.03-.12.29-.11.36.02.13.18.47.25.59.12.2.28.14.51.1.12-.02.67-.16.71-.24.03-.05,0-.16-.02-.22-.12-.21-.74-.46-1-.53-.08-.02-.26-.08-.34-.06ZM17.48,14.27c.4.09.84.19,1.18.4.07.04.25.2.3.22.14.04.84.12.98.11.41-.03.33-.3.18-.52-.32-.47-1.07-.58-1.68-.53-.3.02-.64.23-.94.29l-.02.03ZM17.21,14.38c-.23-.02-.48.01-.71,0,.02.03.06.17.08.18,0,0,.19,0,.23.01.23.04.9.3.96.49.04.1-.1-.03-.12-.04-.15-.1-.35-.2-.53-.26-.03-.01-.38-.12-.39-.07.48.32.94.66,1.46.95.21.12.95.54,1.04.14.07-.3-.41-.84-.7-1-.26-.15-1-.37-1.32-.4ZM16.11,17.05c-.54.13-1.05.3-1.5.58-.59.37-.98.9-1.1,1.5.17-.16.29-.37.46-.54.06-.06.29-.27.37-.29s.11.04.08.1c-.33.39-.7.75-.98,1.17.83.03,1.56-.56,1.99-1.08.34-.42.61-.94.69-1.43Z"/>
        <path d="M20.12,14.92s-.06.03-.07.02c.06-.17-.04-.31-.09-.47.18.01.27.36.17.45Z"/>
        <path d="M11.41,11.12s.05.01.05.03c.06.1-.48.28-.52.14-.02-.08.21-.09.28-.11.05-.01.17-.06.19-.06Z"/>
        <path d="M12.44,11.39s.05.02.06.03c.01.02.08.29.09.32,0,.08-.05.04-.09,0-.03-.05-.13-.33-.05-.35Z"/>
        <path d="M15.22,14.66s.3.12.37.13c.07.04,0,.09-.05.09-.08,0-.38-.16-.31-.22Z"/>
      </g>
    </g>
  </g>
  <path d="M6.12,5.61s-.01.03-.02.04v-.03c-.02.08-.07.16-.09.24-.03.08-.05.16-.06.24-.01.05-.02.09-.03.14v.03s0,.03,0,.05c0,.02.03.05.05.06.02,0,.04.02.06.02.03,0,.06-.01.08-.03.01-.01.03-.02.04-.03l-.02.02c.06-.04.12-.08.19-.11h-.03c.06-.01.13-.03.19-.04h-.03s.1,0,.15,0h-.03s.04,0,.06,0c.03,0,.06,0,.09-.01.02-.01.05-.04.05-.07,0-.03,0-.06-.01-.09s-.04-.05-.07-.05c-.11-.03-.22-.02-.32,0-.04,0-.09.02-.13.04-.05.02-.1.04-.15.07s-.1.07-.14.1l.2.12c.04-.14.06-.29.12-.43v.03c.02-.08.06-.15.09-.23,0-.03,0-.07-.01-.09s-.04-.05-.07-.05c-.03,0-.06,0-.09.01l-.02.02s-.02.03-.03.05h0Z"/>
</svg>