<?xml version="1.0" encoding="UTF-8"?>
<svg id="Layer_1" xmlns="http://www.w3.org/2000/svg" version="1.1" viewBox="0 0 24 24">
  <!-- Generator: Adobe Illustrator 29.3.0, SVG Export Plug-In . SVG Version: 2.1.0 Build 146)  -->
  <defs>
    <style>
      .st0 {
        fill: #7f1524;
      }
    </style>
  </defs>
  <g id="oOe6sS.tif">
    <path class="st0" d="M15.2,7.1c.7.7,1.3,1.6,1.4,2.6.2-.2,1.9-1.2,1.9-1.3,0-.3-.9-.4-.5-.7.2-.1,2.1-.6,2.3-.6.1,0,.3,0,.4.2,0,.2-1.8,2.2-1.9,2.2-.4,0,.2-.9-.2-.8-.1,0-1.7,1.1-1.7,1.2.4.5.8.7,1.1,1.3,1.2,2.1.3,4.2.4,6.4,0,.8.3,3,.6,3.6.1.3.3.5.5.7-.5.6-1-.5-1.2-1-.1-.3,0-.9-.4-1.1l-10.3-3.5c-.4,0-1.8.8-2,1.1-.3.4-.1,1.2-.4,1.7-.8-.1-2.3-.2-2.1-1.4.1-.7,1-.3,1-.4s0-.6.6-.7c.5,0,.5.3.7.5.2.1,1.4-.8,1.7-1,.2-1.9.1-3.7.2-5.6,0-1.7.4-4.2.2-5.8,0-.4-.8-1-1.1-1.5,0-.2-.4-1-.2-1.1.3-.3.6.8.7.9,1.5,2.5,3.9,1.5,6.1,2.6.7.3,1.6,1,2.1,1.5h0ZM7.5,15.9l7.8-5.2c.5-.4.1-1.4-.1-1.8-1.2-2.2-4.3-3-6.5-3.7-.2,0-.7-.5-.7-.1s0,.8-.1,1.1l-.3,9.8h0ZM15.8,10.2c1.2-.2.3-1.8-.2-2.3-1.6-2-3.7-2.7-6.2-2.8l3,1.2c1.6.8,3.2,2.1,3.4,4ZM20.4,7.4l-2,.3c0,.4.5.3.6.5.1.2,0,.5,0,.7.2,0,1.4-1.5,1.4-1.6h0ZM18.4,19c0-.9-.1-1.7-.1-2.5,0-1.9.7-4-.7-5.6-.1-.1-.9-.8-1-.8-.1,0-.6.4-.6.5,0,0,.4.4.5.6,1.7,2.3,1.4,4.1,1.6,6.8,0,0,.2,1.1.2,1.1ZM18.2,19.6c-.5-3.1.2-6.7-2.4-9l-7.9,5.4,10.4,3.6h0ZM5.2,18.8c.2-.4.3-2.4-.5-1.9-.4.2-.2.7-.3.7,0,0-.8-.3-1,0-.3,1,1,1.1,1.7,1.1h0Z"/>
  </g>
</svg>