<?xml version="1.0" encoding="UTF-8"?>
<svg id="Layer_1" xmlns="http://www.w3.org/2000/svg" viewBox="0 0 24 24">
  <path d="M12.34,7.13c-.11.19-.69.29-.86.39-.11.06-.23-.03-.31-.11-.12-.11.93-.89,1.18-.51.05.07.03.16,0,.23Z"/>
  <path d="M13.14,7.46s.18.34.08.36c-.11-.18-.85-.56-.52-.87.22-.2.39.37.44.51Z"/>
  <path d="M12.31,9.46c.24-.1.07.24.07.26.06.32.31-.58.44-.39.07.09-.16.42-.17.52,0,.15.18.21.08.45-.1.25-.44.1-.62.11-.17,0-.26.16-.47.05-.19-.1-.17-.53-.02-.64.09-.06.23-.02.27-.06.1-.13-.09-.83.17-.79.2.02,0,.7.12.67.04-.02.12-.18.13-.19Z"/>
  <path d="M11.41,10.64c-.18-.05-.59.71-.68.56-.12-.2.58-.92.68-.56Z"/>
  <path d="M11.16,9.81s-.7-.27-.84-.21c-.2-.43,1.03.03.84.21Z"/>
  <path d="M13.32,10c-.07.03-.38.13-.39-.02,0-.08.6-.27.63-.2.05.12-.16.19-.24.22Z"/>
  <path d="M12.89,11.04s-.08-.13-.12-.16c-.05-.04-.32-.1-.29-.17.17-.17.68.2.6.37-.05.1-.13,0-.19-.04Z"/>
  <path d="M21.83,9.61c-.67-1.12-3.06-.71-4.31-.69-.08.01-.16.02-.24.02-.08,0-.16,0-.24-.02-.03,0-.05,0-.08,0,0,0-.03,0-.04,0-.01,0-.03,0-.04,0-.08.03-.15.04-.18.01-.09.02-.18,0-.26-.05-.04,0-.08,0-.13,0-.02,0-.03-.01-.05-.02-.23,0-.46-.01-.69-.04-.2-.03-.41-.06-.61-.11-.05-.01-.1-.05-.15-.07h-.07s-.06-.03-.06-.03c-.02,0-.04,0-.06,0-.03,0-.06-.02-.09-.03,0,0,0,0,0,0-.02,0-.03,0-.05,0-.03,0-.04-.02-.07-.04-.04,0-.09-.02-.11-.03-.04,0-.08,0-.12,0-.04,0-.08-.02-.12-.04,0,0,0,0-.01,0,0,0,0,0,0,0-.02-.01-.06-.04-.08-.05,0,0,0,0-.01-.01-.03-.03-.05-.05-.07-.08,0,0,0-.02-.01-.03-.17-.03-.27-.15-.29-.3-.12-.17.31-.53.4-.61.05-.05.29-.15.35-.15h.53c.17-.05.74,0,.91-.13.11-.08.1-.22.12-.28,0-.01-.02-.03-.03-.04,0,0-.01-.01-.02-.02-.03,0-.05-.01-.08-.02-.02,0-.05,0-.07-.02,0,0-.01,0-.02,0-.31.08-.57.09-.93.18-.21.05-.38.16-.6.2.41-.41.39-.98.94-1.27.24-.13.73-.14.79-.49.09-.48-.68.1-.8.21-.13.12-.23.31-.38.42.13-.68.79-1.1.58-1.85-.16-.56-.37-.2-.45.13-.09.41-.03.83-.1,1.24-.13-.2-.29-.91-.57-.93-.21-.01-.41.26-.26.43.06.07.19.05.28.19.05.08.32.67.33.76.05.49-.23.91-.56,1.24-.03.01-.07,0-.09-.02-.02-.03-.04-.54-.09-.7-.01-.05-.24-.57-.27-.59-.1-.08-.26.09-.28.18-.1.37.58.99.48,1.44-.05.21-.26.06-.31.3-.33-.05-.7.12-1.02.08-.26-.03-.38-.3-.67-.04-.16.14-.16.45-.45.37-.05-.55-.64-.47-.39-1.02.2-.43.8-.64.83-1.04.03-.46-.35-.29-.56-.08-.33.33-.3.83-.48,1.21-.2-.29-.5-.72-.47-1.1.03-.42.42-.74.53-1.08.05-.15.15-.82,0-.89-.26-.11-.55.68-.6.87-.06.23-.05.52-.1.72,0,.04.02.04-.05.04-.05-.05-.29-1.23-.3-1.35-.02-.29.2-1.07-.06-1.26-.02-.02-.04-.03-.07-.02-.24.3-.27.69-.25,1.06l.46,1.31h-.06c-.14-.09-.97-.88-1.08-.79-.37.31,1.29,1.23,1.39,1.39.08.13.06.3.13.45.02.04.42.51.38.55-.32-.09-.56-.44-.9-.52-.34-.08-.7.03-.98,0,.17.02,1.4.58,1.56.61.09.01.3.12.36.19.04.05.59.64.6.71.01.09.02.12-.08.14-.15.01-.38.28-.46.18-.19-.22-1.22.31-1.45.17l.02.1-1.9.16c-1.12.02-2.35-.36-3.46-.28-2.26.18-2,2.53-.92,3.87.63.78,1.7,1.26,2.29,1.99.24.3.34.71.66.95.06.04.14,0,.2.05.08.06.16,1.1.56.62.18-.22.09-.63.05-.89.7.67.97.23.4-.43.75.35,1.46.27.56-.52.01-.05.83-.11.73-.42-.06-.17-.82-.13-.83-.23.39-.32.85-.91-.08-.67-.05-.05.55-1.09-.52-.13h-.06c-.06-.7-.89.19-1.15.23-.7.12-2.14-1.35-2.33-2.01-.23-.77.03-.96.75-1.09.86-.16,1.73,0,2.59.04.05-.15-.18-.13-.28-.15-.66-.11-3.21-.32-3.32.62-.07.62.47,1.41.89,1.83.28.28,1.17.95,1.56.95.41,0,.73-.48,1.11-.52.04.25-.84.73-.83.79.04.07.08.07.16.06.06,0,1.37-.64.85-.19-.12.11-.85.32-.81.43l1.16.13c-.24.3-1.13.05-1.31.14-.27.15.62.56.6.69-.04.32-.87-.64-.82-.24.02.13.33.54.2.73-.22-.14-.26-.42-.4-.61-.98-1.39-2.68-1.68-3.14-3.65-.75-3.18,3-2.04,4.7-1.98.71.03,1.43,0,2.13-.1-.07.19-.06.27.03.45-.71,0-1.42.04-2.13,0-1.01-.06-3.89-.75-4.3.52-.57,1.78,1,2.97,2.33,3.79.08.05.34.22.42.2.03-.01.07-.05.07-.08,0-.12-1.62-1.14-1.87-1.39-.75-.75-1.56-2.72-.06-3.06.73-.17,2.6.05,3.43.12.68.06,1.35.17,2.03.2-.25.61.67.32.65.88,0,.13-.31.23-.38.42-.14.42.34.28.43.41.07.09-.03.29,0,.42.02.07.25.21.27.23.09.12.2.66.3.86.5,1.13,1.44,1.89,1.17,3.3-.03.17-.22.45-.25.66-.15.82.24,1.07.41,1.73.07.26.16,1.94.67.96.21-.39.14-.76.23-1.15.12-.5.43-1.09.33-1.62-.04-.23-.41-.51-.43-.82-.06-1.13,1.51-2.9,1.81-4.22.06-.27.02-.9.22-1.14.04-.05.27-.14.36-.22.22-.2.53-.52.33-.82.65-.02,1.31-.03,1.96-.08,1.34-.09,4.68-.79,4.05,1.65-.22.86-1.45,1.75-2.15,2.3-.05.04-.91.56-.28.35.27-.09,1.95-1.44,2.16-1.69.53-.66.89-2,.05-2.57-.94-.64-2.87-.23-3.95-.16-.66.04-1.33.04-1.99.08-.05-.02-.15-.52-.11-.61.88.2,1.78.22,2.68.2,1.72-.03,4.78-.72,4.15,2.08-.4,1.78-1.87,2.03-2.85,3.21-.25.3-.34.68-.64.92-.09-.17.27-.8.21-.86-.11-.06-.73.6-.81.37-.05-.15.76-.42.62-.67-.08-.14-1.14.12-1.33-.17-.01-.07,0-.07.07-.08.14-.02,1,.09,1.07-.05,0-.04,0-.07-.02-.1-.05-.05-.63-.2-.78-.33-.04-.03-.17-.14-.06-.18.15-.06.97.5,1.07.31.04-.07-.29-.2-.35-.25-.05-.03-.58-.46-.48-.54.37-.01.71.5,1.08.5.7.01,2.33-1.51,2.43-2.21.27-2-3.83-1.62-4.89-1-.05.03-.55.39-.36.38.03,0,.35-.28.44-.32,1.07-.57,5.54-.9,4.49,1.31-.24.52-1.4,1.51-1.95,1.67-.54.15-1.14-.95-1.46-.22-.09-.08-.56-.56-.66-.38-.08.12.14.39.11.47-.12.04-.21-.06-.36-.04-.49.08.17.58.29.74-.02.09-1.84.11-.1.66-.92.8-.13.84.58.49-.58.62-.35,1.11.38.45-.1.21-.08.99.22,1.01.33.02.32-.73.39-.77.02-.02.11,0,.15-.01.4-.24.42-.58.69-.91.7-.86,1.96-1.37,2.56-2.37.36-.6.66-1.88.29-2.5ZM11.3,6l-.35.75s-.07.04-.07.03c.07-.28.16-.6.42-.78ZM13.73,8.42l.44.18-.46.38c-.34.13.04-.39.02-.56ZM11.39,8.31l.1.59c-.37.17-.54-.08-.75-.33,0-.05.61-.3.66-.26ZM15.15,9.81s-.38.39-.43.41c-.45.27-.6.04-1.05.06-.1,0-.18.06-.28.07-.17.02-.68-.07-.54.17.04.07.82.49.93.68.12.2.03.64-.23.69-.3.05-.45-.27-.73-.03-.12.1-.31.68-.5.26-.18-.4,0-1.28-.16-1.45-.07-.07-.34-.05-.42-.01-.08.04-.5.67-.62.8-.25.28-.37.47-.77.44-.74-.05.14-.77-.78-.78-.08-.05.21-.28.28-.32.4-.23,1.07-.17,1.22-.7-.01-.1-.56-.14-.67-.14-.2,0-1.35.22-1.16-.2.04-.08.26-.11.29-.32.03-.26-.16-.26-.18-.31-.05-.16.4-.49.54-.52.8-.18.95.51,1.51.77.01,0-.01.14.16.09.34-.1.05-.71.03-.9-.02-.19.02-.59.18-.71.16-.13.22.06.39.12.42.16.93-.18,1.14-.09.14.06.16.58.15.71-.05.44-.4.59-.45.99.55.17.81-.75,1.22-.86.07-.02.53-.05.55,0-.1.5-.1.85.41,1.07Z"/>
  <path d="M12.64,9.27s-.08.07-.1.11c-.14.01.06-.53.15-.5.13.04,0,.32-.04.39Z"/>
  <g>
    <path d="M7.72,9.96c1,.16,1.22,1.71,1.56,2.43.52,1.11,1.86,2.04,1.64,3.47-.05.35-.39.48-.44.7-.21.88.74,1.73.94,2.55.03.12.18,1.14-.08,1.07-.04-.26,0-.5-.06-.77-.18-.83-1.36-2.09-.94-2.97.1-.21.39-.31.44-.59.18-1.03-1.07-2.08-1.5-2.93-.46-.91-.42-2.09-1.32-2.69l-.98-.25c.23.03.53-.03.74,0Z"/>
    <path d="M15.42,10.91c-.19.55-.28,1.02-.54,1.57-.33.71-1.73,2.41-1.64,3.04.04.29.42.58.52.88.3.9-.63,2.1-.78,3.17-.03.23,0,.79-.05.95,0,.01-.18.2-.21.22-.24.16-1.69.22-1.41-.41.15-.03.06.09.09.19.08.21,1.23.24,1.32-.03.04-.78.13-1.59.43-2.32.26-.61.63-.81.48-1.6-.09-.5-.58-.7-.55-1.24.03-.59,1.2-2,1.53-2.63.38-.72.52-1.51.92-2.2.11-.04-.1.37-.11.42Z"/>
  </g>
</svg>