<?xml version="1.0" encoding="UTF-8"?>
<svg id="Layer_1" xmlns="http://www.w3.org/2000/svg" viewBox="0 0 24 24">
  <path d="M12.47,2c.1,2.12,1.59,3.97,2.01,5.98.32,1.53-.26,2.93.36,4.39.67,1.58,2,1.43,2.04-.36.02-1.11-.61-2.15-.72-3.23,3.73,3.68,1.51,11.87-3.85,13.22-.09-.02.91-1.09,1-1.15.78-.62,2.89-1.93,2.98-4.05.12-2.97-3.02-4.38-4.42-1.45-.04.02-.32-.53-.37-.6-1.97-2.72-5,.85-3.56,3.35.78,1.36,3.57,2.04,3.49,3.9-5.32-1.38-7.01-8.86-3.82-12.77-.22,1.17-.54,2.2-.12,3.37.33.92,1.48,1.54,1.57.18.07-.99-.52-1.66-.56-2.62-.08-1.81,1.03-3.14,1.73-4.67.32-.7.55-1.44.79-2.17.22,1.32-.41,2.55-.62,3.8-.11.62-.08,2.44,1.02,2.07.93-.31.23-3.11.19-3.86-.05-1.07-.02-2.61.87-3.34Z"/>
</svg>