<?xml version="1.0" encoding="UTF-8"?>
<svg id="Layer_1" xmlns="http://www.w3.org/2000/svg" viewBox="0 0 24 24">
  <g id="oOe6sS.tif">
    <path d="M15.24,7.07c.69.7,1.27,1.57,1.44,2.56.23-.2,1.89-1.19,1.92-1.3.07-.3-.93-.4-.52-.72.17-.13,2.08-.56,2.34-.57.12,0,.34.03.35.15,0,.17-1.77,2.22-1.92,2.23-.35.01.17-.94-.21-.83-.15.05-1.69,1.1-1.71,1.2.37.47.78.69,1.12,1.26,1.24,2.1.34,4.21.44,6.41.04.83.27,2.96.6,3.65.12.26.34.51.54.71-.49.63-1.05-.52-1.2-.98-.11-.34.02-.87-.39-1.07l-10.32-3.48c-.41-.08-1.78.79-2,1.07-.32.41-.14,1.2-.41,1.67-.8-.12-2.3-.17-2.08-1.35.13-.69.99-.33,1.03-.37s.08-.64.59-.7c.46-.05.5.34.66.45.22.14,1.37-.81,1.66-.96.17-1.85.13-3.72.2-5.58.07-1.7.43-4.19.22-5.81-.05-.4-.85-1-1.1-1.49-.1-.2-.39-1.01-.25-1.15.31-.32.62.76.7.9,1.47,2.45,3.93,1.55,6.14,2.57.66.3,1.63,1.02,2.14,1.54ZM7.5,15.85l7.77-5.24c.54-.4.15-1.35-.12-1.84-1.21-2.25-4.29-2.99-6.54-3.73-.24-.08-.66-.48-.7-.13s0,.76-.11,1.14l-.31,9.81ZM15.8,10.15c1.23-.23.26-1.75-.21-2.33-1.6-1.99-3.72-2.7-6.22-2.85l3.04,1.15c1.58.84,3.22,2.11,3.39,4.03ZM20.36,7.35l-1.97.31c-.06.35.46.34.57.52.12.19.03.51.05.73.22-.06,1.43-1.49,1.35-1.55ZM18.39,18.96c0-.85-.13-1.69-.11-2.54.05-1.87.69-4.01-.68-5.64-.13-.15-.89-.81-1.03-.8-.1,0-.59.37-.56.52.02.09.44.44.55.59,1.72,2.33,1.35,4.09,1.62,6.78l.21,1.09ZM18.18,19.59c-.53-3.08.22-6.74-2.43-9l-7.93,5.42,10.37,3.58ZM5.21,18.75c.16-.42.32-2.37-.46-1.87-.37.24-.22.69-.26.74-.06.07-.8-.28-.99,0-.29,1.03.99,1.09,1.71,1.14Z"/>
  </g>
</svg>