<?xml version="1.0" encoding="UTF-8"?>
<svg id="Layer_1" xmlns="http://www.w3.org/2000/svg" version="1.1" viewBox="0 0 24 24">
  <!-- Generator: Adobe Illustrator 29.3.0, SVG Export Plug-In . SVG Version: 2.1.0 Build 146)  -->
  <defs>
    <style>
      .st0 {
        fill: #7f1524;
      }
    </style>
  </defs>
  <g id="_x39_RjHN3.tif">
    <g>
      <path class="st0" d="M14.8,11.5c0,.1-.4.3-.4.5l.6,2v1.4c-.1,0-3.1-1.1-3.1-1.1v5.5c.1,0,.3.1.3.1.8-.4,1.2-1.1,2-1.4.6-.2,2.1-.6,2.5-.1,0,.7-.2,1.5-.6,2-2,2.6-8,2.2-9.3-1-.2-.4-.5-1.4.1-1.5,1.1-.1,2.9.8,3.7,1.5.3.3.4.7.8.9.4-1.9.1-3.9,0-5.8-.6.1-1.8,1.6-2.3,1.6-.9,0-.6-3.2-.8-3.6,0-.2-1.9-.8-2.1-1.4-.2-.9,2.7-1.7,2.9-2s.7-3.3,1.3-3.4c1.1-.2,2,2.5,2.3,2.7.4.2,2.5-.8,2.9-.1,0,.1,0,1.7-.1,1.8,0,.3-.6,1.1-.8,1.4h0ZM11.3,7c0,0-.6-.6-.7-.5-.5.2-.7,2.8-.9,3.1,0,.1-2.7,1-2.7,1.5,0,.5,1.7.7,1.8,1,.2.4,0,3.2.4,3.3l2.4-1.9,3,1.1c.3-.5-.8-2.4-.8-2.6,0-.4,1.8-2.4,1.3-3.3-.5,0-2.3.6-2.6.5-.2,0-1-1.9-1.2-2.2h0ZM10.3,19.6s-.2.1-.3,0c-.5-.3-3.3-2.1-2.7-.5.4,1.2,2.5,2.6,3.8,2.1.1-.2-.6-1-.8-1.2,0-.1,0-.4,0-.4ZM13.6,19.3c-.6.4-1.5,1.4-1.7,2.1.5.8,4.7-1.3,4-2.8-.2-.1-2.1.5-2.3.7Z"/>
      <path class="st0" d="M20,6.6c.3,0,.6.5.4.7-.6-.3-1.5,1.4-2.1.6-.2-.3,1.6-1.3,1.7-1.3h0Z"/>
      <path class="st0" d="M17.3,14.1c.3-.1,1.9,0,2,.4,0,.2,0,.5-.2.5-.1,0-2.6-.5-1.8-.9Z"/>
      <path class="st0" d="M13.4,2.1c0,0,.2-.1.3,0,.2.2-.4,2.2-.6,2.2-.8,0,.2-2.2.3-2.3Z"/>
      <path class="st0" d="M5.1,13.6c0,0-.9,1.6-1,1.7-.2.2-.5,0-.5-.2s1.3-1.8,1.5-1.4Z"/>
      <path class="st0" d="M4.6,5.4c-.6-1.2,2.9.7,1.8.7-.2-.2-1.7-.5-1.8-.7Z"/>
    </g>
  </g>
</svg>