<?xml version="1.0" encoding="UTF-8"?>
<svg id="Layer_1" xmlns="http://www.w3.org/2000/svg" version="1.1" viewBox="0 0 24 24">
  <!-- Generator: Adobe Illustrator 29.3.0, SVG Export Plug-In . SVG Version: 2.1.0 Build 146)  -->
  <defs>
    <style>
      .st0 {
        fill: #7f1524;
      }
    </style>
  </defs>
  <path class="st0" d="M11.1,6.1c-.1.2-.7.3-.9.4-.1,0-.2,0-.3,0s.9-.9,1.2-.5v.2h0Z"/>
  <path class="st0" d="M11.9,6.5s.2.3,0,.4c-.1-.2-.9-.6-.5-.9.2-.2.4.4.4.5h.1Z"/>
  <path class="st0" d="M11.1,8.5c.2-.1,0,.2,0,.3,0,.3.3-.6.4-.4,0,0-.2.4-.2.5s.2.2,0,.4c-.1.2-.4.1-.6.1s-.3.2-.5,0c-.2-.1-.2-.5,0-.6h.3c.1-.1,0-.8.2-.8s0,.7.1.7v-.2h.3Z"/>
  <path class="st0" d="M10.2,9.6c-.2,0-.6.7-.7.6-.1-.2.6-.9.7-.6Z"/>
  <path class="st0" d="M10,8.8s-.7-.3-.8-.2c-.2-.4,1,0,.8.2Z"/>
  <path class="st0" d="M12.1,9s-.4.1-.4,0c0,0,.6-.3.6-.2s-.2.2-.2.2Z"/>
  <path class="st0" d="M11.7,10s0-.1-.1-.2c0,0-.3-.1-.3-.2.2-.2.7.2.6.4,0,.1-.1,0-.2,0Z"/>
  <path class="st0" d="M20.5,8.4c-.7-1.1-3.1-.7-4.3-.7h-1.9c-.2,0-.4,0-.6-.1h-.5c-.2,0-.3-.1-.3-.3-.1-.2.3-.5.4-.6,0,0,.3-.2.4-.2h.5c.2,0,.7,0,.9,0,.1,0,.1-.2.1-.3h0c-.3,0-.6,0-.9.2-.2,0-.4.2-.6.2.4-.4.4-1,.9-1.3.2,0,.7,0,.8-.5,0-.5-.7,0-.8.2-.1,0-.2.3-.4.4.1-.7.8-1.1.6-1.8-.2-.6-.4-.2-.4,0s0,.8-.1,1.2c-.1-.2-.3-.9-.6-.9s-.4.3-.3.4c0,0,.2,0,.3.2,0,0,.3.7.3.8,0,.5-.2.9-.6,1.2h0v-.7s-.2-.6-.3-.6-.3,0-.3.2c-.1.4.6,1,.5,1.4,0,.2-.3,0-.3.3-.3,0-.7.1-1,0-.3,0-.4-.3-.7,0-.2.1-.2.5-.4.4,0-.6-.6-.5-.4-1,.2-.4.8-.6.8-1s-.4-.3-.6,0c-.3.3-.3.8-.5,1.2-.2-.3-.5-.7-.5-1.1s.4-.7.5-1.1c0-.2.1-.8,0-.9-.3,0-.6.7-.6.9s0,.5-.1.7h0s-.3-1.2-.3-1.3c0-.3.2-1.1,0-1.3h0c-.2.3-.3.7-.2,1.1l.5,1.3h0c-.1,0-1-.9-1.1-.8-.4.3,1.3,1.2,1.4,1.4,0,0,0,.3.1.4,0,0,.4.5.4.6-.3,0-.6-.4-.9-.5h-1c.2,0,1.4.6,1.6.6,0,0,.3,0,.4.2,0,0,.6.6.6.7h0c-.1.1-.4.4-.5.3-.2-.2-1.2.3-1.4.2h0c0,.1-1.9.3-1.9.3-1.1,0-2.3-.4-3.5-.3-2.3.2-2,2.5-.9,3.9.6.8,1.7,1.3,2.3,2,.2.3.3.7.7.9h.2s.2,1.1.6.6c.2-.2,0-.6,0-.9.7.7,1,.2.4-.4.8.4,1.5.3.6-.5,0,0,.8-.1.7-.4,0-.2-.8-.1-.8-.2.4-.3.9-.9,0-.7,0,0,.6-1.1-.5-.1h0c0-.7-.9.2-1.2.2-.7.1-2.1-1.4-2.3-2-.2-.8,0-1,.8-1.1.9-.2,1.7,0,2.6,0,0-.1-.2-.1-.3-.1-.7-.1-3.2-.3-3.3.6,0,.6.5,1.4.9,1.8.3.3,1.2.9,1.6.9s.7-.5,1.1-.5c0,.2-.8.7-.8.8h.2s1.4-.6.8-.2c-.1.1-.8.3-.8.4h1.2c-.2.4-1.1.2-1.3.3-.3.1.6.6.6.7,0,.3-.9-.6-.8-.2,0,.1.3.5.2.7-.2-.1-.3-.4-.4-.6-1-1.4-2.7-1.7-3.1-3.7-.8-3.2,3-2,4.7-2s1.4,0,2.1-.1v.4h-2.1c-1,0-3.9-.8-4.3.5-.6,1.8,1,3,2.3,3.8,0,0,.3.2.4.2h0c0-.1-1.6-1.1-1.9-1.4-.8-.8-1.6-2.7,0-3.1.7-.2,2.6,0,3.4.1.7,0,1.4.2,2,.2-.2.6.7.3.6.9,0,.1-.3.2-.4.4-.1.4.3.3.4.4v.4s.2.2.3.2c0,.1.2.7.3.9.5,1.1,1.4,1.9,1.2,3.3,0,.2-.2.5-.2.7-.1.8.2,1.1.4,1.7,0,.3.2,1.9.7,1,.2-.4.1-.8.2-1.1.1-.5.4-1.1.3-1.6,0-.2-.4-.5-.4-.8,0-1.1,1.5-2.9,1.8-4.2,0-.3,0-.9.2-1.1,0,0,.3-.1.4-.2.2-.2.5-.5.3-.8h2c1.3,0,4.7-.8,4,1.6-.2.9-1.5,1.8-2.1,2.3,0,0-.9.6-.3.4.3,0,2-1.4,2.2-1.7.5-.7.9-2,0-2.6-.9-.6-2.9-.2-4-.2h-2s-.1-.5-.1-.6c.9.2,1.8.2,2.7.2,1.7,0,4.8-.7,4.1,2.1-.4,1.8-1.9,2-2.9,3.2-.2.3-.3.7-.6.9,0-.2.3-.8.2-.9-.1,0-.7.6-.8.4,0-.1.8-.4.6-.7,0-.1-1.1.1-1.3-.2h1.1c0-.1-.6-.3-.8-.4,0,0-.2-.1,0-.2.1,0,1,.5,1.1.3,0,0-.3-.2-.4-.2,0,0-.6-.5-.5-.5.4,0,.7.5,1.1.5.7,0,2.3-1.5,2.4-2.2.3-2-3.8-1.6-4.9-1,0,0-.6.4-.4.4,0,0,.3-.3.4-.3,1.1-.6,5.5-.9,4.5,1.3-.2.5-1.4,1.5-2,1.7-.5.1-1.1-.9-1.5-.2,0,0-.6-.6-.7-.4,0,.1.1.4.1.5h-.4c-.5,0,.2.6.3.7,0,0-1.8.1-.1.7-.9.8-.1.8.6.5-.6.6-.4,1.1.4.4-.1.2,0,1,.2,1,.3,0,.3-.7.4-.8h.1c.4-.2.4-.6.7-.9.7-.9,2-1.4,2.6-2.4.4-.6.7-1.9.3-2.5h0l-1.2-.8ZM10,4.8l-.4.8h0c0-.3.2-.6.4-.8ZM12.4,7.2l.4.2-.5.4c-.3.1,0-.4,0-.6h.1ZM10.1,7.1v.6c-.3.2-.4,0-.6-.3,0,0,.6-.3.7-.3h0ZM13.8,8.6l-.4.4c-.4.3-.6,0-1.1,0h-.3c-.2,0-.7,0-.5.2,0,0,.8.5.9.7.1.2,0,.6-.2.7-.3,0-.4-.3-.7,0s-.3.7-.5.3,0-1.3-.2-1.4h-.4c0,0-.5.7-.6.8-.2.3-.4.5-.8.4-.7,0,.1-.8-.8-.8,0,0,.2-.3.3-.3.4-.2,1.1-.2,1.2-.7,0-.1-.6-.1-.7-.1-.2,0-1.4.2-1.2-.2,0,0,.3-.1.3-.3,0-.3-.2-.3-.2-.3,0-.2.4-.5.5-.5.8-.2.9.5,1.5.8,0,0,0,.1.2,0,.3-.1,0-.7,0-.9s0-.6.2-.7.2,0,.4,0c.4.2.9-.2,1.1,0,.1,0,.2.6.1.7,0,.4-.4.6-.4,1,.6.2.8-.8,1.2-.9h.6c-.1.5-.1.9.4,1.1h0Z"/>
  <path class="st0" d="M11.4,8.3h-.1c-.1.1,0-.4.1-.4s0,.3,0,.4h0Z"/>
  <g>
    <path class="st0" d="M7.9,9.5c1,.2,1.2,1.7,1.6,2.4.5,1.1,1.9,2,1.6,3.5,0,.4-.4.5-.4.7-.2.9.7,1.7.9,2.5,0,.1.2,1.1,0,1.1v-.8c-.2-.8-1.4-2.1-.9-3,.1-.2.4-.3.4-.6.2-1-1.1-2.1-1.5-2.9-.5-.9-.4-2.1-1.3-2.7l-1-.2h.7-.1Z"/>
    <path class="st0" d="M15.6,10.4c-.2.6-.3,1-.5,1.6-.3.7-1.7,2.4-1.6,3,0,.3.4.6.5.9.3.9-.6,2.1-.8,3.2v1l-.2.2c-.2.2-1.7.2-1.4-.4.1,0,0,0,0,.2s1.2.2,1.3,0c0-.8.1-1.6.4-2.3.3-.6.6-.8.5-1.6,0-.5-.6-.7-.6-1.2s1.2-2,1.5-2.6c.4-.7.5-1.5.9-2.2.1,0-.1.4-.1.4h0v-.2Z"/>
  </g>
</svg>