<?xml version="1.0" encoding="UTF-8"?>
<svg id="Layer_1" xmlns="http://www.w3.org/2000/svg" viewBox="0 0 24 24">
  <g id="pSbidM.tif">
    <g>
      <path d="M19.43,2.24c.43-.13.46.24.49.57.29,2.81.37,6.06.47,8.9,0,.11-.01.66-.07.71l-4.42-1.68c-.26,0-.58,1.36-1.21,1.14-.39-.13-1.39-2.04-1.83-2.39-.31-.2-2.74-.83-2.78-.98-.08-.3.8-.61,1.04-.75,2.4-1.46,4.79-3.11,7.14-4.65.21-.14,1.05-.83,1.17-.86ZM19.92,11.91l-.43-8.98-4.49,6.84,4.92,2.14ZM18.59,3.39l-7.57,5,1.86.61.25-.02,5.47-5.59ZM14.53,11.05c-.02-.46-.18-.93-.02-1.38.8-1.22,1.74-2.43,2.5-3.67.14-.23.32-.55.4-.81l-4.05,4.12c-.06.24.89,1.52,1.16,1.74ZM15.39,10.51s-.5-.2-.54-.16l.08.86c.11.13.54-.59.46-.7Z"/>
      <path d="M8.8,14.96c.5-.15.09.96-.09,1.16-.25.29-1.22.62-1.05.04.04-.12.55-.16.74-.36s.21-.79.4-.85Z"/>
      <path d="M5.42,21.46c-.29.31-.65.77-1.11.4-.13-.38.43-.4.66-.58.13-.1.3-.54.58-.36.38.24-.02.42-.13.54Z"/>
      <path d="M7.5,18.23c.15.19-.4,1.19-.48,1.23-.08.05-.22.02-.3-.02-.26-.18.59-1.42.78-1.21Z"/>
      <path d="M6.29,19.8c.64-.16-.43,1.89-.65,1.04-.04-.16.59-1.02.65-1.04Z"/>
      <path d="M7.43,11.91c.2.29-.86.54-.9.94-.82-.32.66-1.29.9-.94Z"/>
      <path d="M4.75,13.8c.27-.06.94-.11.8.33-.04.11-.96.22-1.04.2-.31-.08-.03-.46.24-.52Z"/>
      <path d="M8.68,14.56c-.08-.05-.22-1.4.11-1.33.35.17.32,1.61-.11,1.33Z"/>
      <path d="M4.07,15.81c-.63.11-.51-1.1-.2-1.15.06,0,.33.1.35.18.03.11-.29.72-.15.97Z"/>
      <path d="M10.24,15.03c-.02.11.06.32-.05.4-.15.11-.95.5-1.04.19s1.04-.64,1.09-.58Z"/>
      <path d="M8.6,12.92l-.82-.78c-.08-.1.04-.24.12-.28.33-.15.96.72.7,1.06Z"/>
      <path d="M12.89,12.53c.2.19-.66,1.05-.82,1.01-.5-.11.6-1.23.82-1.01Z"/>
      <path d="M8.17,16.67c.47-.1-.11,1.18-.39,1.15-.5-.08.31-1.14.39-1.15Z"/>
      <path d="M11.38,13.87c.22-.02.23.26.11.43-.05.07-.74.45-.82.42-.5-.13.52-.83.71-.85Z"/>
      <path d="M6.96,16.52c-.01.09.02.37,0,.39-.04.04-1.01.07-1.09,0-.04-.04.01-.29,0-.39h1.09Z"/>
      <path d="M5.16,16.44s0,.25-.03.31c-.1.16-1.03-.07-.9-.5.1-.32.5.05.64.12.08.05.27.05.28.07Z"/>
      <path d="M6.41,13.16c-.04.2.13,1.24-.19,1.17-.33-.22-.32-1.23.19-1.17Z"/>
      <path d="M12.97,12.06c-.1-.13.43-.89.58-.86.38.08-.34,1.17-.58.86Z"/>
    </g>
  </g>
</svg>