<?xml version="1.0" encoding="UTF-8"?>
<svg id="Layer_1" xmlns="http://www.w3.org/2000/svg" version="1.1" viewBox="0 0 24 24">
  <!-- Generator: Adobe Illustrator 29.3.0, SVG Export Plug-In . SVG Version: 2.1.0 Build 146)  -->
  <defs>
    <style>
      .st0 {
        fill: #7f1524;
      }
    </style>
  </defs>
  <g id="pSbidM.tif">
    <g>
      <path class="st0" d="M19.4,2.2c.4-.1.5.2.5.6.3,2.8.4,6.1.5,8.9,0,.1,0,.7,0,.7l-4.4-1.7c-.3,0-.6,1.4-1.2,1.1-.4-.1-1.4-2-1.8-2.4-.3-.2-2.7-.8-2.8-1,0-.3.8-.6,1-.8,2.4-1.5,4.8-3.1,7.1-4.7.2-.1,1-.8,1.2-.9h0ZM19.9,11.9l-.4-9-4.5,6.8s4.9,2.1,4.9,2.1ZM18.6,3.4l-7.6,5,1.9.6h.2s5.5-5.6,5.5-5.6h0ZM14.5,11.1c0-.5-.2-.9,0-1.4.8-1.2,1.7-2.4,2.5-3.7.1-.2.3-.6.4-.8l-4.1,4.1c0,.2.9,1.5,1.2,1.7h0ZM15.4,10.5s-.5-.2-.5-.2v.9c.2.1.6-.6.5-.7Z"/>
      <path class="st0" d="M8.8,15c.5-.1,0,1,0,1.2-.2.3-1.2.6-1.1,0,0-.1.6-.2.7-.4s.2-.8.4-.9h0Z"/>
      <path class="st0" d="M5.4,21.5c-.3.3-.7.8-1.1.4-.1-.4.4-.4.7-.6.1-.1.3-.5.6-.4.4.2,0,.4-.1.5Z"/>
      <path class="st0" d="M7.5,18.2c.2.2-.4,1.2-.5,1.2,0,0-.2,0-.3,0-.3-.2.6-1.4.8-1.2Z"/>
      <path class="st0" d="M6.3,19.8c.6-.2-.4,1.9-.7,1,0-.2.6-1,.7-1Z"/>
      <path class="st0" d="M7.4,11.9c.2.3-.9.5-.9.9-.8-.3.7-1.3.9-.9Z"/>
      <path class="st0" d="M4.8,13.8c.3,0,.9-.1.8.3,0,.1-1,.2-1,.2-.3,0,0-.5.2-.5h0Z"/>
      <path class="st0" d="M8.7,14.6c0,0-.2-1.4.1-1.3.4.2.3,1.6-.1,1.3Z"/>
      <path class="st0" d="M4.1,15.8c-.6.1-.5-1.1-.2-1.1,0,0,.3.1.4.2,0,.1-.3.7-.2,1Z"/>
      <path class="st0" d="M10.2,15c0,.1,0,.3,0,.4-.1.1-.9.5-1,.2s1-.6,1.1-.6h0Z"/>
      <path class="st0" d="M8.6,12.9l-.8-.8c0-.1,0-.2.1-.3.3-.1,1,.7.7,1.1Z"/>
      <path class="st0" d="M12.9,12.5c.2.2-.7,1.1-.8,1-.5-.1.6-1.2.8-1Z"/>
      <path class="st0" d="M8.2,16.7c.5-.1-.1,1.2-.4,1.1-.5,0,.3-1.1.4-1.1Z"/>
      <path class="st0" d="M11.4,13.9c.2,0,.2.3.1.4,0,0-.7.4-.8.4-.5-.1.5-.8.7-.9Z"/>
      <path class="st0" d="M7,16.5c0,0,0,.4,0,.4,0,0-1,0-1.1,0,0,0,0-.3,0-.4h1.1Z"/>
      <path class="st0" d="M5.2,16.4s0,.2,0,.3c0,.2-1,0-.9-.5,0-.3.5,0,.6.1,0,0,.3,0,.3,0h0Z"/>
      <path class="st0" d="M6.4,13.2c0,.2.1,1.2-.2,1.2-.3-.2-.3-1.2.2-1.2Z"/>
      <path class="st0" d="M13,12.1c-.1-.1.4-.9.6-.9.4,0-.3,1.2-.6.9Z"/>
    </g>
  </g>
</svg>