<?xml version="1.0" encoding="UTF-8"?>
<svg xmlns="http://www.w3.org/2000/svg" viewBox="0 0 1369.76 1177.63">
  <g id="Lag_1">
    <g>
      <path d="M581.73,169.96c-6.91,4.41-14.47,10.4-25.37,22.74-17.87,20.25-28.55,39.3-32.37,46.36-15.88,29.4-23.82,44.11-18.9,57.62,2.8,7.68,7.22,12.81,30.4,26.22,12.09,6.99,29.06,17.38,49.62,31.95-9.68,26.19-19.36,52.37-29.05,78.56-3.95,11.47-7.99,27.32-8.81,46.44-1.23,28.88,5.47,51.99,10.75,65.87,4.77,7.75,10.84,18.15,17.3,30.74,5.35,10.42,14.44,28.29,22.97,52.86,3.69,10.64,7.95,24.46,11.65,40.95-5.99,16.06-12.86,38.2-17.07,65.21-3.68,23.62-3.95,41.68-3.91,45.48.53,43.89,12.52,82.76,23.27,109.44,1,13.37-.85,26.91-9.11,37.31-6.47,8.14-12.99,9.47-16.06,16.91-2.97,7.19-2.02,18.44,11.62,36.79,1.87,3.56,4.45,9.06,6.5,16.1,3.92,13.47,2.22,19.88,7.06,26.5,2.55,3.48,7.37,7.66,17.43,9.68,28.02,4.97,35.62,3.06,36.79,0,1.91-4.97-13.51-11.84-18.85-29.34-2.71-8.89-1.79-17.17-.52-22.95.15-11.62.29-23.23.44-34.85l1.5-118.13,7.66-46.8,9.77-59.7,7.75-69.71-1.56-23.13-8.12-120.16,7.3,86.49,3.92,53.78-3,34.16c-3.38,20.69-6.76,41.39-10.14,62.08-4.53,27.66-9.05,55.33-13.58,82.99-.26,20.28-.51,40.57-.77,60.85-.39,30.71-.78,61.42-1.17,92.13,1.3,1.59,3.68,4.25,7.25,6.69,9.48,6.51,19.31,6.25,48.02,5.99,7.11-.07,13.69-.06,19.68,0,9.05-2.89,10.96-5.45,11.03-7.27.22-6.27-21.3-13.03-33.12-16.75-14.28-4.49-19.23-4.44-24.15-10.05-4.89-5.58-5.87-12.34-6.97-19.99-1.55-10.74-.3-19.86,1.11-26.08,16.19-62.26,32.39-124.52,48.58-186.77,8.95-33.04,17.9-66.08,26.85-99.12,8.92-30.33,17.83-60.67,26.75-91,8.52-27.39,8.43-48.92,6.7-63.65-2.26-19.31-7.68-29.93-14.95-64.83-3.43-16.46-5.56-30.08-6.82-39.03,15.39-6.42,27.16-13.38,35.15-18.64,13.97-9.2,21.05-13.99,25.99-23.23,5.13-9.6,5.09-18.47,4.87-31.91-.2-12.52-1.9-23.97-7.55-46.54-3.17-12.68-7.72-29.36-14.07-48.86-.56-4.74-2.13-12.69-7.21-20.95-2.61-4.24-7.91-12.37-17.07-15.9-17.45-6.72-44.6,14.22-47.71,9.65-.39-.58-.96-2.39-2.5-2.79-1.21-.31-2.37.43-2.72.65-.91.57-4.57,3.82-13.36,6.02-3.63.91-11.81,2.86-21.25.32-3.73-1-6.78-2.47-8-3.07-2.73-1.33-4.99-2.82-9.5-5.82-.95-.63-1.9-1.28-3.02-2.23-.39-.33-.94-.84-2.04-1.85-2.14-1.97-2.09-1.96-2.25-2.08-2.19-1.58-6.23.32-6.95.63-10.14,4.44-35.81-9.25-55.78-2.97-.45.14-.81.26-1.08.35-8.63,2.85-15.06,6.95-19.24,9.62Z" fill="#ba888d" stroke="#8b2a25" stroke-miterlimit="10" stroke-width=".5"/>
      <path d="M593.01,320.57c-9.77-9.26-17.81-16.33-23.16-20.92-9.91-8.51-13.94-11.42-14.6-16.94-.32-2.69.54-5.87,9.16-19.55,5.27-8.35,10.39-14.72,14.05-18.94-3.18,9.48-2.77,16.63-1.83,21.38,2.13,10.74,6.56,15.64,11,27.49,2.27,6.07,4.88,15.23,5.38,27.48Z" fill="#8b2a25"/>
      <path d="M761.12,265l12.22,34.21c-11.1,15.77-14.44,18.82-15.27,18.33-1.43-.84,5.42-11.43,6.72-26.27.94-10.76-1.37-19.91-3.67-26.27Z" fill="#8b2a25"/>
      <path d="M619.82,145.54c-.99-1.81-.22-5.15-1.07-5.33-.85-.19-1.3,3.21-3.89,5.34-3.81,3.13-10.64,2.21-14.65-.86-1.9-1.46-3.66-3.78-3.12-4.63.77-1.24,6.07,1.05,6.47.17.27-.58-2.07-1.64-3.95-4.45-1.37-2.05-2.44-4.92-1.73-5.49,1.17-.95,5.61,5.78,8.68,5.44,8.86-.98-5.67-59.5,20.01-97.79,16.23-24.21,49.73-42.12,83.09-36.72,37.07,6.01,56.46,38.05,58.91,42.25,5.79,9.91,7.65,18.19,11.41,34.74,8.41,36.95,5.9,68.08,3.69,68.28-1.29.11-2.75-10.3-5.31-10.18-1.52.07-2.06,3.77-3.43,6.36-2.12,4.02-8.59,8.02-28.54,6.85.97-5.02,1.94-10.04,2.92-15.06l.06-6.1c.12-11.64-.55-23.27-.83-34.9-3.46,1.57-6.91,3.13-10.37,4.7-6.78-20.6-10.82-30.72-12.14-30.38-1.22.32-.09,9.63,3.38,27.92-9.32-.18-18.63-.37-27.95-.55-2.07-27-3.97-38.05-5.71-38.04-3.01,0-5.01,33.2-6.5,33.1-1.46-.09-.13-32.24-1.28-32.32-.69-.04-2.15,11.42-4.6,37.89-10.14,1.38-20.29,2.76-30.43,4.14v-29.5c-3.26,19.67-6.53,39.34-9.79,59.01.98,2.31,2.08,4.71,3.31,7.2,1.42,2.86,3.54,6.65,3.54,6.65-21.77,6.13-28.64,5.05-30.18,2.25Z" fill="#ba888d" stroke="#8b2a25" stroke-miterlimit="10" stroke-width=".5"/>
      <path d="M656.04,114.04c1.19,1,6.21,5,13.5,4.64,5.34-.26,9.08-2.71,10.55-3.8" fill="#ba888d" stroke="#8b2a25" stroke-miterlimit="10" stroke-width=".5"/>
      <path d="M712.59,114.04c1.19,1,6.21,5,13.5,4.64,5.34-.26,9.08-2.71,10.55-3.8" fill="#ba888d" stroke="#8b2a25" stroke-miterlimit="10" stroke-width=".5"/>
      <path d="M696.53,118.7c1.51,5.01.95,8.46,0,10.79-1.69,4.15-5.14,6.06-4.34,8.28.61,1.7,3.24,2.24,4.58,2.52,3.17.65,5.79-.37,6.85-.86" fill="#ba888d" stroke="#8b2a25" stroke-miterlimit="10" stroke-width=".5"/>
      <path d="M687.01,161.32c5.23-1.45,11.04-2.79,17.36-3.86,5.78-.97,10.82-1.48,11.94-1.58.65-.06,1.19-.11,1.56-.14" fill="#ba888d" stroke="#8b2a25" stroke-miterlimit="10" stroke-width=".5"/>
      <circle cx="685.27" cy="149.4" r="3" fill="#ba888d" stroke="#8b2a25" stroke-miterlimit="10" stroke-width=".5"/>
      <path d="M693.18,159.73c.67-.97,3.68-5.12,9.42-6.39,6.66-1.48,11.75,2.09,12.53,2.66" fill="#ba888d" stroke="#8b2a25" stroke-miterlimit="10" stroke-width=".5"/>
      <path d="M694.17,163.19c1.65.72,6.19,2.43,11.74,1.15,3.37-.78,5.79-2.37,7.16-3.44" fill="#ba888d" stroke="#8b2a25" stroke-miterlimit="10" stroke-width=".5"/>
      <path d="M597.75,290.45c2.6,2.2,8.65,6.72,17.73,8.37,8.88,1.61,15.99-.36,19.21-1.48" fill="#ba888d" stroke="#8b2a25" stroke-miterlimit="10" stroke-width=".5"/>
      <path d="M757.02,299.44c-3.49,1.99-10.67,5.46-20.38,5.79-8.45.29-15.05-1.93-18.64-3.45" fill="#ba888d" stroke="#8b2a25" stroke-miterlimit="10" stroke-width=".5"/>
      <line x1="718" y1="101.62" x2="737.51" y2="105.94" fill="#8b2a25" stroke="#ba888d" stroke-miterlimit="10" stroke-width=".5"/>
      <line x1="673.73" y1="101.62" x2="656.04" y2="105.94" fill="#8b2a25" stroke="#ba888d" stroke-miterlimit="10" stroke-width=".5"/>
      <line x1="650" y1="143.29" x2="652.14" y2="146.4" fill="#ba888d" stroke="#8b2a25" stroke-miterlimit="10" stroke-width=".5"/>
      <path d="M651.68,147.63l-1.81,2.11c-2.12,2.48-6.57,3.42-10.25,1.98-4.18-1.64-6.84-6.42-6.03-11.48.21-1.03.83-3.42,2.86-5.57,1.62-1.72,3.39-2.51,4.37-2.86" fill="#ba888d" stroke="#8b2a25" stroke-miterlimit="10" stroke-width=".5"/>
      <path d="M752.97,134.34c1-.18,3.98-.59,6.93,1.1,1.59.92,2.48,2.04,2.71,2.35,2.26,2.99,1.78,6.56,1.62,7.76-.17,1.3-.61,4.58-3.43,7.04-.51.45-4.26,3.6-8.84,2.16-3.81-1.19-5.35-4.67-5.58-5.22-1.57,2.47-3.49,5.12-5.82,7.8-5.61,6.47-11.57,10.82-16.37,13.69" fill="#ba888d" stroke="#8b2a25" stroke-miterlimit="10" stroke-width=".5"/>
      <path d="M748.29,139.59c1.32.6,4.51,1.75,7.19-.49,3.13-2.62,3.51-8.18,3.93-14.29.37-5.44.66-9.64-1.31-11.73-2.51-2.65-6.71.2-7.08.47l-1.6,1.96" fill="#ba888d" stroke="#8b2a25" stroke-miterlimit="10" stroke-width=".5"/>
      <path d="M645.66,136.63c-1.5.5-5.12,1.41-7.94-1.03-3.3-2.85-3.34-8.43-3.4-14.56-.05-5.46-.08-9.67,2.25-11.6,2.96-2.46,7.43.71,7.82,1l1.65,2.08" fill="#ba888d" stroke="#8b2a25" stroke-miterlimit="10" stroke-width=".5"/>
      <g>
        <g>
          <path d="M341.9,329.04l14.09,14.39c-.93-.1-9.5-1.39-12.84-8.47-1.03-2.22-1.26-4.33-1.26-5.92Z" fill="#ba888d"/>
          <path d="M333.33,370.07l8.21,8.37c-1.62-.63-5-2.28-7.08-5.86-.5-.89-.86-1.72-1.12-2.51Z" fill="#ba888d"/>
          <path d="M335.41,356.64c.63,0,1.12.5,1.12,1.12,0,.6-.5,1.12-1.12,1.12-.6,0-1.12-.53-1.12-1.12,0-.63.53-1.12,1.12-1.12Z" fill="#ba888d"/>
          <path d="M334.22,365.93c3.47.96,5.36.63,8.47,2.18,1.12.53,1.95,1.12,2.35,1.36,1.62,1.09,2.75,2.28,3.37,3.11l-13.47-6.09-2.81-1.26c.83.3,1.52.53,2.08.69Z" fill="#ba888d"/>
          <path d="M329.42,364.02l2.71,1.22c-.79-.3-1.72-.69-2.71-1.22Z" fill="#ba888d"/>
          <path d="M307.75,324.08c.86.5,5.16,3.21,6.25,8.54.13.69,1.49,7.71-3.11,10.82-1.32.86-2.71,1.22-4.04,1.26,1.29-7.91-2.65-12.77-4.57-18.36l5.46-2.25Z" fill="#ba888d"/>
          <path d="M302.3,326.33c1.92,5.59,5.86,10.45,4.57,18.36-2.78.07-5.13-1.16-5.33-1.26-4.73-2.48-5.59-8.07-5.86-9.69-.3-1.92-.17-3.57,0-4.7l6.62-2.71Z" fill="#ba888d"/>
          <path d="M288.93,388.3c-.17-1.46-.89-2.65-2.32-5.06-.93-1.55-1.72-2.61-1.75-2.68-3.01-4.07-3.84-21.17-6.32-30.34-.36-1.39-.79-2.61-1.22-3.74-.6-1.52-1.29-2.85-2.02-4-.23-.43-.5-.83-.79-1.22-.17-.26-.36-.53-.56-.79-.17-.26-.36-.53-.6-.79-.3-.4-.63-.79-.99-1.19-3.84-4.5-7.97-7.61-9.5-16.54-.56-3.24-.83-7.61-3.97-12.14-3.37-4.86-7.94-8.57-7.94-8.57-2.85-2.32-4.6-3.11-4.8-4.9-.33-2.85,3.61-5.43,4.63-6.19,9.66-6.88,9.36-28.82,16.48-38.51,4.4-5.96,18.92-24.12,45.29-32.79,7.91-2.58,36.43-11.98,65.61,3.11,4.04,2.12,23.52,12.67,34.41,35.9,1.06,2.28,14.26,31.23,4.23,56.58-4.4,11.12-11.88,18.06-14.59,33.75-.23,1.36-1.36,8.07-3.24,8.14-1.62.07-1.92-4.93-6.72-10.72-3.04-3.64-4.1-3.04-5.19-5.39-.96-2.08-1.26-5.03,3.21-16.18,2.22-5.46,4.7-10.75,5.03-11.38-.56.99-10.69,16.61-12.87,24.02-.17.53-.69,2.35-1.82,2.58-1.09.2-1.82-1.36-3.67-2.98-3.61-3.18-6.65-2.45-7.41-4.53-.6-1.65.79-3.47,1.79-4.93,5.03-7.41,6.55-16.31,5.72-16.77-1.42-.83-13.9,20.25-15.91,19.19-2.12-1.12,7.81-25.34,7.28-25.54-.4-.17-4.9,19.72-14.95,21.7-5.53,1.09-11.35-3.54-16.18-8.9,4.3-9.59,4.3-12.01,3.57-12.47-1.99-1.26-9.83,10.79-15.22,8.93-4.1-1.42-2.58-9.56-6.68-11.18-4.4-1.72-13.33,4.8-16.54,13.43-1.65,4.43-1.22,7.94-.1,11.15l-6.62,2.71c-.17,1.12-.3,2.78,0,4.7.26,1.62,1.12,7.21,5.86,9.69.2.1,2.55,1.32,5.33,1.26-.1.6-.23,1.22-.4,1.85-.93,3.54-3.61,10.55-5.99,16.97-2.32,6.19-4.4,11.84-4.4,13.33v.17c0,.2.23,1.79.23,3.9-.03,2.98-.5,7.08-1.39,7.15-.86.1-1.79-3.31-2.08-3.21-.33.1,1.46,3.71,0,6.22-1.12,1.92-3.87,2.78-4.6,2.08-.69-.66.99-2.12.69-4.86Z" fill="#ba888d"/>
          <path d="M151.23,1098.07c.1.99.2,2.02.3,3.04-.63-1.19-.4-2.51-.3-3.04Z" fill="#ba888d"/>
          <path d="M127.14,334.37c.99-5.66,1.69-9.66,1.72-9.83,6.91,1.82,13.83,3.64,20.71,5.49-1.79,1.92-3.64,4-5.49,6.22l-16.91-1.89h-.03Z" fill="#8c2a26"/>
          <path d="M120.36,373.61c.03-.26,3.64-20.98,6.12-35.4.23-1.36.46-2.61.66-3.84h.03l16.91,1.89c-2.48,2.98-5,6.19-7.51,9.69-7.77,11.02-13.07,21.57-16.71,30.47l.5-2.81Z" fill="#8c2a26"/>
          <path d="M119.87,376.42l-.2,1.12c-2.85,16.28-5.39,30.97-6.29,36.23l3.18,25.24c-1.49,11.68-3.01,23.36-4.5,35.04-4.07,15.75-7.25,23.49-9.56,23.26-2.05-.23-3.41-6.78-4.1-19.69v-17.83c-.3-4.4-1.89-7.64-4.17-8.17-.66-.13-1.26-.03-1.75.07-3.44.73-5.49,3.94-6.19,5.13-9.33,11.45-12.08,21.27-12.87,28.16-1.39,12.04,2.18,24.25-3.97,28.12-.5.33-2.25,1.46-4,.93-3.24-.96-4.07-6.62-5.36-17.77,0-.07,0-.2-.03-.3,0-.4-.1-1.12-.23-2.18-.03-.2-.07-.4-.07-.6-.03-.4-.1-.86-.17-1.36-.1-.99-.23-2.18-.4-3.51-.03-.36-.1-.69-.13-1.06-.07-.56-.13-1.09-.2-1.62-.96-7.84-1.79-12.51-2.02-15.45.33-6.19,1.89-10.72,3.37-15.15,3.11-9.23,7.31-15.95,9.99-19.72.73-1.06,1.59-2.22,2.55-3.41,0-.03.03-.03.07-.07,2.02-2.51,4.86-5.69,8.5-9.16l.36-5.76.69-11.08.66-10.52,1.22-19.22.83-12.67c.36-5.29.69-10.12.99-14.46.1-1.49.2-2.91.3-4.33l33.48,31.79Z" fill="#ba888d"/>
          <path d="M86.38,344.63c-.1,1.42-.2,2.85-.3,4.33-.3,4.33-.63,9.16-.99,14.46l1.19-18.89.1.1Z" fill="#ba888d"/>
          <path d="M84.27,376.09l-1.22,19.22c.43-6.85.83-13.23,1.22-19.22Z" fill="#ba888d"/>
          <path d="M83.04,395.31l-.66,10.52c.23-3.61.43-7.11.66-10.52Z" fill="#ba888d"/>
          <path d="M82.38,405.83l-.69,11.08c.23-3.77.46-7.48.69-11.08Z" fill="#ba888d"/>
          <path d="M81.32,422.68c-3.64,3.47-6.48,6.65-8.5,9.16,2.18-2.81,5-5.96,8.5-9.16Z" fill="#ba888d"/>
          <path d="M70.21,435.31c-2.68,3.77-6.88,10.49-9.99,19.72-1.49,4.43-3.04,8.97-3.37,15.15-.73-9,3.04-16.91,6.48-23.82,2.15-4.37,4.8-8.27,5.19-8.83,1.75-2.61,3.28-4.43,4.23-5.62-.96,1.19-1.82,2.35-2.55,3.41Z" fill="#ba888d"/>
          <path d="M193.81,804.41l-20.84,92.08-7.11,36.1c9.33-42.71,18.66-85.43,27.96-128.17ZM151.13,1096.94c-.33-3.57-1.55-15.78-3.61-36.66-.46-4.73-1.12-11.38-1.99-19.49,1.85,18.69,3.71,37.42,5.59,56.15ZM151.23,1098.04c0-.07-.03-.3-.07-.73,0,.23.03.46.07.73ZM60.08,496.26c1.29,11.15,2.12,16.81,5.36,17.77,1.75.53,3.51-.6,4-.93,6.15-3.87,2.58-16.08,3.97-28.12.79-6.88,3.54-16.71,12.87-28.16.69-1.19,2.75-4.4,6.19-5.13.5-.1,1.09-.2,1.75-.07,2.28.53,3.87,3.77,4.17,8.17v17.83c.69,12.9,2.05,19.45,4.1,19.69,2.32.23,5.49-7.51,9.56-23.26,1.49-11.68,3.01-23.36,4.5-35.04l-3.18-25.24c.89-5.26,3.44-19.95,6.29-36.23l.2-1.12c3.64-8.9,8.93-19.45,16.71-30.47,2.51-3.51,5.03-6.72,7.51-9.69,1.85-2.22,3.71-4.3,5.49-6.22-6.88-1.85-13.8-3.67-20.71-5.49-.03.17-.73,4.17-1.72,9.83-.2,1.22-.43,2.48-.66,3.84-2.48,14.42-6.09,35.14-6.12,35.4l-.5,2.81-33.48-31.79c3.64-52.34,6.12-66.86,17.63-75.3,5.66-4.14,20.68-3.31,50.19-1.89,31.6,1.49,47.58,2.35,56.94,6.91,18.3,8.9,20.02,31.56,41.29,36.49,3.04.73,5.62.93,7.28.99,2.08,5.43,2.28,6.29,2.65,7.84.73,3.28.26,3.28.86,5.43,1.22,4.43,3.9,7.54,6.32,10.36,1.29,1.52,2.02,2.15,2.81,3.01.36.4.69.79.99,1.19.2.23.4.5.6.79.13.2.33.46.56.79.23.36.5.76.79,1.22.73,1.16,1.42,2.48,2.02,4,.63,1.75,1.32,4.96,2.02,16.18.13,2.12.13,2.65.17,3.31.03.46.07.83.07.86.66,6.98-4.37,15.65-4.37,15.65-2.85,4.86-1.12,6.85-3.8,43.67-.6,8.6-.96,12.08-2.18,16.77-1.65,6.32-3.74,13.9-10.36,20.12-1.85,1.72-5.72,5.26-11.65,6.78-6.78,1.72-9.79-.86-15.35-.03-7.28,1.09-10.92,7.84-16.67,13.1-8.17,7.44-20.61,18.83-28.19,35.96-9.46,21.34-6.78,41.36-5.13,52.7,3.87,26.4,14.23,38.18,25.57,61.67,18.76,38.87,22.6,73.51,25.28,97.67,2.25,20.51,6.19,59.12-5.23,105.04-5.26,21.14-8.04,20.84-17.6,54.52-3.28,11.58-4.5,17.17-17.24,79.04-9.46,45.95-14.06,69.41-7.25,94.09,1.59,5.69,3.28,11.68,7.81,18.36,10.72,15.85,22.93,14.42,37.29,30.6.83.93,17.44,19.95,12.24,27.82-3.64,5.56-17.1,4.17-26.34.56-13.7-5.33-12.84-13.53-33.22-26.9-9.23-6.09-13.86-9.13-19.29-9.69-4.37-.43-10.65.1-12.37-3.24-.1-1.03-.2-2.05-.3-3.04-.1.53-.33,1.85.3,3.04.2,1.89.36,3.77.56,5.66,6.09,5.86,15.52,14.29,28.16,22.93,21.57,14.76,37.06,19.59,36.16,25.71-.73,5.1-12.37,8.17-20.84,8.7-19.69,1.19-27.66-11.12-50.39-15.65-6.91-1.39-17.5-2.48-31.3,0-5.89-1.92-13.63-5.49-15.62-12.14-2.15-7.11,4.23-11.18,8.67-26.07,3.9-13.04,3.34-24.32,3.01-30.6-.43-8.24-1.79-15.05-3.01-19.78l-15.62-112.95c-5.06-32.85-1.09-57.01,3.47-72.99,5.49-19.32,13.8-33.65,12.14-56.15-1.09-15.35-6.32-27.53-10.42-35.2l-55.58-63.32c-8.83-7.81-23.85-23.39-33.02-47.71-9.4-24.85-7.87-46.02-6.98-56.74,1.72-20.51,7.58-36.62,12.18-46.78,4.76-9.26,12.64-23.09,24.65-38.35,4.07-5.19,8.01-9.5,8.01-9.5.36-.43.96-1.09,1.06-1.16,4.93-5.36,5.79-6.05,7.11-7.87.69-.96,1.62-2.51,2.61-4.47,2.15-4.23,3.51-6.91,3.54-10.42Z" fill="#ba888d"/>
          <path d="M60.05,495.96c-.07-.69-.17-1.42-.23-2.18.13,1.06.23,1.79.23,2.18Z" fill="#ba888d"/>
          <path d="M59.75,493.18c-.07-.43-.1-.89-.17-1.36.07.5.13.96.17,1.36Z" fill="#ba888d"/>
          <path d="M59.58,491.82c-.13-1.12-.26-2.28-.4-3.51.17,1.32.3,2.51.4,3.51Z" fill="#ba888d"/>
          <path d="M56.84,470.18c.23,2.94,1.06,7.61,2.02,15.45-1.12-8.6-2.28-10.36-2.02-15.45Z" fill="#ba888d"/>
        </g>
        <g>
          <path d="M59.82,493.77c.13,1.06.23,1.79.23,2.18" fill="none" stroke="#8d2a26" stroke-miterlimit="10" stroke-width=".5"/>
          <path d="M59.19,488.32c.17,1.32.3,2.51.4,3.51.07.5.13.96.17,1.36" fill="none" stroke="#8d2a26" stroke-miterlimit="10" stroke-width=".5"/>
          <path d="M72.75,431.91c-.96,1.19-2.48,3.01-4.23,5.62-.4.56-3.04,4.47-5.19,8.83-3.44,6.91-7.21,14.82-6.48,23.82.23,2.94,1.06,7.61,2.02,15.45" fill="none" stroke="#8d2a26" stroke-miterlimit="10" stroke-width=".5"/>
          <path d="M81.32,422.68c-3.64,3.47-6.48,6.65-8.5,9.16" fill="none" stroke="#8d2a26" stroke-miterlimit="10" stroke-width=".5"/>
          <path d="M84.27,376.09c-.4,5.99-.79,12.37-1.22,19.22-.23,3.41-.43,6.91-.66,10.52s-.46,7.31-.69,11.08" fill="none" stroke="#8d2a26" stroke-miterlimit="10" stroke-width=".5"/>
          <path d="M272.35,338.47c-.79-.86-1.52-1.49-2.81-3.01-2.42-2.81-5.1-5.92-6.32-10.36-.6-2.15-.13-2.15-.86-5.43-.36-1.55-.56-2.42-2.65-7.84-1.65-.07-4.23-.26-7.28-.99-21.27-4.93-22.99-27.59-41.29-36.49-9.36-4.57-25.34-5.43-56.94-6.91-29.51-1.42-44.53-2.25-50.19,1.89-11.51,8.44-13.99,22.96-17.63,75.3-.1,1.42-.2,2.85-.3,4.33-.3,4.33-.63,9.16-.99,14.46" fill="none" stroke="#8d2a26" stroke-miterlimit="10" stroke-width=".5"/>
          <path d="M275.3,342.48c-.3-.46-.56-.86-.79-1.22-.23-.33-.43-.6-.56-.79-.2-.3-.4-.56-.6-.79" fill="none" stroke="#8d2a26" stroke-miterlimit="10" stroke-width=".5"/>
          <path d="M151.23,1098.07c-.1.53-.33,1.85.3,3.04,1.72,3.34,8.01,2.81,12.37,3.24,5.43.56,10.06,3.61,19.29,9.69,20.38,13.37,19.52,21.57,33.22,26.9,9.23,3.61,22.7,5,26.34-.56,5.19-7.87-11.41-26.9-12.24-27.82-14.36-16.18-26.57-14.76-37.29-30.6-4.53-6.68-6.22-12.67-7.81-18.36-6.82-24.68-2.22-48.14,7.25-94.09,12.74-61.87,13.96-67.46,17.24-79.04,9.56-33.68,12.34-33.38,17.6-54.52,11.41-45.92,7.48-84.53,5.23-105.04-2.68-24.15-6.52-58.79-25.28-97.67-11.35-23.49-21.7-35.27-25.57-61.67-1.65-11.35-4.33-31.36,5.13-52.7,7.58-17.14,20.02-28.52,28.19-35.96,5.76-5.26,9.4-12.01,16.67-13.1,5.56-.83,8.57,1.75,15.35.03,5.92-1.52,9.79-5.06,11.65-6.78,6.62-6.22,8.7-13.8,10.36-20.12,1.22-4.7,1.59-8.17,2.18-16.77,2.68-36.82.96-38.81,3.8-43.67,0,0,5.03-8.67,4.37-15.65,0-.03-.03-.4-.07-.86-.03-.66-.03-1.19-.17-3.31-.69-11.22-1.39-14.42-2.02-16.18" fill="none" stroke="#8d2a26" stroke-miterlimit="10" stroke-width=".5"/>
          <path d="M151.16,1097.31c.03.43.07.66.07.73" fill="none" stroke="#8d2a26" stroke-miterlimit="10" stroke-width=".5"/>
          <path d="M145.54,1040.8c.86,8.11,1.52,14.76,1.99,19.49,2.05,20.88,3.28,33.08,3.61,36.66" fill="none" stroke="#8d2a26" stroke-miterlimit="10" stroke-width=".5"/>
          <path d="M151.99,648.15q23.26,68.55,34.87,102.83l6.95,53.43c-9.3,42.75-18.63,85.46-27.96,128.17" fill="none" stroke="#8d2a26" stroke-miterlimit="10" stroke-width=".5"/>
          <polyline points="165.85 932.58 172.97 896.48 193.81 804.41" fill="none" stroke="#8d2a26" stroke-miterlimit="10" stroke-width=".5"/>
          <path d="M165.85,932.58l-.1.4-20.58,104.28c.13,1.22.26,2.38.36,3.54" fill="none" stroke="#8d2a26" stroke-miterlimit="10" stroke-width=".5"/>
          <path d="M151.13,1096.94c-1.89-18.73-3.74-37.45-5.59-56.15" fill="none" stroke="#8d2a26" stroke-miterlimit="10" stroke-width=".5"/>
          <path d="M151.13,1096.94c.03.13.03.23.03.36" fill="none" stroke="#8d2a26" stroke-miterlimit="10" stroke-width=".5"/>
          <path d="M151.23,1098.04c-.03-.26-.07-.5-.07-.73" fill="none" stroke="#8d2a26" stroke-miterlimit="10" stroke-width=".5"/>
          <line x1="151.23" y1="1098.04" x2="151.23" y2="1098.07" fill="none" stroke="#8d2a26" stroke-miterlimit="10" stroke-width=".5"/>
          <path d="M60.08,496.26c-.03,3.51-1.39,6.19-3.54,10.42-.99,1.95-1.92,3.51-2.61,4.47-1.32,1.82-2.18,2.51-7.11,7.87-.1.07-.69.73-1.06,1.16,0,0-3.94,4.3-8.01,9.5-12.01,15.25-19.88,29.08-24.65,38.35-4.6,10.16-10.45,26.27-12.18,46.78-.89,10.72-2.42,31.89,6.98,56.74,9.16,24.32,24.19,39.9,33.02,47.71l55.58,63.32c4.1,7.68,9.33,19.85,10.42,35.2,1.65,22.5-6.65,36.82-12.14,56.15-4.57,15.98-8.54,40.13-3.47,72.99l15.62,112.95c1.22,4.73,2.58,11.55,3.01,19.78.33,6.29.89,17.57-3.01,30.6-4.43,14.89-10.82,18.96-8.67,26.07,1.99,6.65,9.73,10.22,15.62,12.14,13.8-2.48,24.38-1.39,31.3,0,22.73,4.53,30.7,16.84,50.39,15.65,8.47-.53,20.12-3.61,20.84-8.7.89-6.12-14.59-10.95-36.16-25.71-12.64-8.64-22.07-17.07-28.16-22.93-.2-1.89-.36-3.77-.56-5.66-.1-1.03-.2-2.05-.3-3.04" fill="none" stroke="#8d2a26" stroke-miterlimit="10" stroke-width=".5"/>
          <path d="M60.08,496.26c1.29,11.15,2.12,16.81,5.36,17.77,1.75.53,3.51-.6,4-.93,6.15-3.87,2.58-16.08,3.97-28.12.79-6.88,3.54-16.71,12.87-28.16.69-1.19,2.75-4.4,6.19-5.13.5-.1,1.09-.2,1.75-.07,2.28.53,3.87,3.77,4.17,8.17v17.83c.69,12.9,2.05,19.45,4.1,19.69,2.32.23,5.49-7.51,9.56-23.26,1.49-11.68,3.01-23.36,4.5-35.04l-3.18-25.24c.89-5.26,3.44-19.95,6.29-36.23l.2-1.12.5-2.81c.03-.26,3.64-20.98,6.12-35.4.23-1.36.46-2.61.66-3.84.99-5.66,1.69-9.66,1.72-9.83,6.91,1.82,13.83,3.64,20.71,5.49-1.79,1.92-3.64,4-5.49,6.22-2.48,2.98-5,6.19-7.51,9.69-7.77,11.02-13.07,21.57-16.71,30.47" fill="none" stroke="#8c2a26" stroke-miterlimit="10" stroke-width=".5"/>
          <path d="M60.05,495.96c.03.1.03.23.03.3" fill="none" stroke="#8d2a26" stroke-miterlimit="10" stroke-width=".5"/>
          <path d="M59.82,493.77c.07.76.17,1.49.23,2.18" fill="none" stroke="#8c2a26" stroke-miterlimit="10" stroke-width=".5"/>
          <path d="M59.58,491.82c.07.46.1.93.17,1.36,0,.2.03.4.07.6" fill="none" stroke="#8d2a26" stroke-miterlimit="10" stroke-width=".5"/>
          <path d="M59.19,488.32c.13,1.22.26,2.38.4,3.51" fill="none" stroke="#8c2a26" stroke-miterlimit="10" stroke-width=".5"/>
          <path d="M58.86,485.64c.07.53.13,1.06.2,1.62.03.36.1.69.13,1.06" fill="none" stroke="#8d2a26" stroke-miterlimit="10" stroke-width=".5"/>
          <path d="M72.75,431.91c-.96,1.19-1.82,2.35-2.55,3.41-2.68,3.77-6.88,10.49-9.99,19.72-1.49,4.43-3.04,8.97-3.37,15.15-.26,5.1.89,6.85,2.02,15.45" fill="none" stroke="#8c2a26" stroke-miterlimit="10" stroke-width=".5"/>
          <path d="M81.69,416.92l-.36,5.76c-3.51,3.21-6.32,6.35-8.5,9.16-.03.03-.07.03-.07.07" fill="none" stroke="#8d2a26" stroke-miterlimit="10" stroke-width=".5"/>
          <polyline points="84.27 376.09 83.04 395.31 82.38 405.83 81.69 416.92" fill="none" stroke="#8c2a26" stroke-miterlimit="10" stroke-width=".5"/>
          <line x1="85.09" y1="363.42" x2="84.27" y2="376.09" fill="none" stroke="#8d2a26" stroke-miterlimit="10" stroke-width=".5"/>
          <line x1="86.28" y1="344.53" x2="85.09" y2="363.42" fill="none" stroke="#8c2a26" stroke-miterlimit="10" stroke-width=".5"/>
          <path d="M275.3,342.48c.73,1.16,1.42,2.48,2.02,4" fill="none" stroke="#8d2a26" stroke-miterlimit="10" stroke-width=".5"/>
          <path d="M273.94,340.46c.2.26.4.53.56.79" fill="none" stroke="#8d2a26" stroke-miterlimit="10" stroke-width=".5"/>
          <path d="M272.35,338.47c.36.4.69.79.99,1.19" fill="none" stroke="#8d2a26" stroke-miterlimit="10" stroke-width=".5"/>
          <path d="M376.93,336.26c-1.59,1.52-3.8,3.87-6.05,7.01-2.65,3.71-6.09,8.47-7.68,15.12-1.46,6.15-.23,9.26-2.61,10.98-2.22,1.62-5.72.6-8.21-.46l-3.97,3.67c-.26,1.36-.89,3.18-2.42,4.43-1.69,1.32-3.64,1.36-4.47,1.42-6.75.5-8.87,7.91-14.76,8.8-5.92.89-11.58-5.43-17.17-11.65-3.97-4.43-6.52-8.67-8.07-11.65" fill="none" stroke="#ba888d" stroke-miterlimit="10"/>
          <line x1="363.01" y1="336.16" x2="355.33" y2="325.14" fill="none" stroke="#ba888d" stroke-miterlimit="10"/>
        </g>
      </g>
      <path d="M1313.22,519.88c.99,1.95,1.93,3.48,2.62,4.45,1.32,1.84,2.18,2.52,7.12,7.87.08.08.67.73,1.06,1.15,0,0,3.92,4.33,7.99,9.52,12,15.26,19.88,29.08,24.65,38.33,4.59,10.17,10.45,26.27,12.16,46.78.9,10.74,2.43,31.91-6.95,56.75-9.19,24.33-24.21,39.9-33.02,47.72l-55.61,63.3c-4.08,7.69-9.31,19.86-10.43,35.21-1.64,22.51,6.67,36.82,12.16,56.15,4.55,15.99,8.51,40.15,3.48,72.98l-15.64,112.95c-1.21,4.75-2.57,11.55-3,19.8-.32,6.29-.9,17.55,3,30.59,4.46,14.91,10.83,18.95,8.69,26.07-2,6.66-9.72,10.22-15.64,12.16-13.78-2.5-24.36-1.38-31.29,0-22.73,4.54-30.69,16.84-50.38,15.64-8.47-.52-20.11-3.59-20.85-8.69-.89-6.13,14.59-10.96,36.17-25.71,12.65-8.65,22.09-17.08,28.16-22.94,2.3-23.17,4.61-46.34,6.91-69.51l-27.79-140.75-20.85-92.09,6.95-53.42q11.63-34.28,34.89-102.85-23.26,68.57-34.89,102.85c-2.32,17.81-4.63,35.61-6.95,53.42,9.65,41.98,19.02,84.85,28.06,128.58,7.28,35.2,14.13,69.96,20.59,104.26-1.01,9.71-1.81,17.61-2.34,23.03-2.48,25.07-3.73,37.61-3.7,37.75.09.54.34,1.84-.31,3.09-1.72,3.33-7.99,2.81-12.37,3.24-5.42.54-10.04,3.58-19.29,9.66-20.37,13.4-19.51,21.58-33.23,26.92-9.22,3.59-22.67,4.99-26.32-.56-5.2-7.9,11.43-26.91,12.25-27.83,14.37-16.19,26.58-14.75,37.29-30.61,4.51-6.68,6.22-12.66,7.79-18.37,6.81-24.65,2.22-48.13-7.24-94.07-12.73-61.89-13.98-67.49-17.26-79.04-9.55-33.7-12.33-33.39-17.59-54.54-11.41-45.93-7.48-84.51-5.21-105.04,4.59-41.49,8.45-71.27,25.26-97.67,6.33-9.94,19.42-27.06,14.72-42.77-1.88-6.3-7.14-14.08-4.33-23.26,1.01-3.31,3.11-6.89,2.16-11.9-.77-4.09-2.57-3.84-3.79-8.11-1.87-6.55,1.7-9.43,0-16.77-.53-2.28-1.32-3.94-2.7-6.49-11.75-21.66-22.15-26.63-24.34-40.57-.65-4.12-.63-9.3-3.16-10.13-1.96-.64-3.55,1.95-7.76,3.36-4.45,1.5-8.48.57-10.92,0-8.98-2.09-14.04-9.06-15.34-10.92-1.29-1.83-3.51-5.46-6.3-22.75-1.28-7.9-1.84-11.85-2.2-16.76-2.67-36.85-.95-38.81-3.79-43.69,0,0-5.04-8.65-4.37-15.65,0-.02.04-.37.07-.85.05-.68.05-1.19.18-3.3.78-12.81,1.57-15.2,2.28-16.85,1.11-2.58,2.53-4.59,3.09-5.37,1.68-2.34,2.35-2.59,4.41-5,2.41-2.8,5.09-5.93,6.31-10.34.6-2.17.15-2.16.88-5.43.35-1.55.56-2.43,2.64-7.85,1.67-.07,4.24-.27,7.28-.98,21.26-4.94,22.98-27.61,41.29-36.51,9.35-4.55,25.34-5.4,56.94-6.92,29.52-1.42,44.53-2.24,50.18,1.89,11.83,8.66,14.13,23.78,17.94,79.64,1.18,17.31,2.86,42.65,4.76,73.73,3.7,3.48,6.53,6.69,8.59,9.21.96,1.18,2.46,3.03,4.23,5.61.38.56,3.04,4.47,5.2,8.85,3.42,6.93,7.19,14.83,6.48,23.83-.24,2.96-1.1,7.71-2.06,15.71-.02.18-.06.49-.16,1.37-.69,5.76-1.03,8.64-1.03,8.98.03,3.52,1.39,6.2,3.54,10.44Z" fill="#ba888d" stroke="#8d2a26" stroke-miterlimit="10" stroke-width=".5"/>
      <g>
        <g>
          <path d="M1312.94,483.39c.3,5.36-1.06,7.05-2.25,17.07-2.02,17.17-2.35,25.57-6.35,26.77-1.75.5-3.51-.6-4.04-.93-6.12-3.9-2.58-16.11-3.94-28.12-.79-6.88-3.54-16.71-12.87-28.16-.69-1.22-2.75-4.4-6.19-5.13-.53-.1-1.09-.2-1.75-.07-2.28.53-3.87,3.77-4.2,8.17v17.8c-.66,12.9-2.05,19.49-4.1,19.69-2.32.26-5.49-7.48-9.53-23.23-1.52-11.68-3.01-23.36-4.53-35.04l3.21-25.24c-.93-5.26-3.47-19.98-6.29-36.26l-.2-1.09,33.58-31.89,4.93,78.15c5.06,4.6,8.67,9.1,11.15,12.64,2.65,3.77,6.88,10.49,9.99,19.72,1.49,4.4,3.04,8.97,3.37,15.15Z" fill="#ba888d"/>
          <path d="M1233.2,359.15c-4.37-6.12-8.8-11.41-13.04-15.91,3.21-.33,6.95-.93,11.05-2.05,3.74-.99,6.98-2.25,9.66-3.44-1.65,7.77-1.16,13.73-.4,17.67,1.65,8.8,8.14,26.77,8.7,30.14.03.13.23,1.26.23,1.26l.5,2.81c-3.64-8.9-8.93-19.49-16.71-30.47Z" fill="#8d2a26"/>
        </g>
        <g>
          <path d="M1249.91,389.62l-.5-2.81s-.2-1.12-.23-1.26c-.56-3.37-7.05-21.34-8.7-30.14-.76-3.94-1.26-9.89.4-17.67-2.68,1.19-5.92,2.45-9.66,3.44-4.1,1.12-7.84,1.72-11.05,2.05,4.23,4.5,8.67,9.79,13.04,15.91,7.77,10.98,13.07,21.57,16.71,30.47Z" fill="none" stroke="#8d2a26" stroke-miterlimit="10" stroke-width=".5"/>
          <path d="M1283.49,357.73l4.93,78.15c5.06,4.6,8.67,9.1,11.15,12.64,2.65,3.77,6.88,10.49,9.99,19.72,1.49,4.4,3.04,8.97,3.37,15.15.3,5.36-1.06,7.05-2.25,17.07-2.02,17.17-2.35,25.57-6.35,26.77-1.75.5-3.51-.6-4.04-.93-6.12-3.9-2.58-16.11-3.94-28.12-.79-6.88-3.54-16.71-12.87-28.16-.69-1.22-2.75-4.4-6.19-5.13-.53-.1-1.09-.2-1.75-.07-2.28.53-3.87,3.77-4.2,8.17v17.8c-.66,12.9-2.05,19.49-4.1,19.69-2.32.26-5.49-7.48-9.53-23.23-1.52-11.68-3.01-23.36-4.53-35.04l3.21-25.24c-.93-5.26-3.47-19.98-6.29-36.26l-.2-1.09" fill="none" stroke="#8d2a26" stroke-miterlimit="10" stroke-width=".5"/>
        </g>
      </g>
      <path d="M952.96,327.61c-10-25.35,3.19-54.28,4.25-56.55,10.87-23.24,30.35-33.8,34.39-35.9,29.17-15.12,57.71-5.71,65.6-3.12,26.39,8.67,40.9,26.83,45.29,32.8,7.14,9.69,6.83,31.61,16.5,38.51,1.03.73,4.96,3.33,4.63,6.18-.2,1.79-1.95,2.56-4.81,4.89,0,0-4.55,3.7-7.94,8.57-3.15,4.53-3.42,8.91-3.97,12.14-2.47,14.51-11.76,13.61-15.69,28.28-2.46,9.17-3.31,26.26-6.31,30.34-.04.06-.83,1.13-1.75,2.68-1.43,2.4-2.14,3.6-2.3,5.07-.31,2.73,1.37,4.19.69,4.84-.73.7-3.5-.15-4.61-2.07-1.45-2.5.32-6.12,0-6.22-.3-.1-1.23,3.3-2.07,3.23-.91-.08-1.37-4.19-1.38-7.14-.01-2.14.2-3.73.23-3.91,0,0,0-.01,0-.01.34-2.39-8.57-23.38-10.39-30.48-3.55-13.89,8.78-18.68,4.06-31.36-3.21-8.62-12.14-15.13-16.54-13.41-4.1,1.61-2.58,9.75-6.7,11.17-5.38,1.86-13.22-10.21-15.19-8.94-.74.48-.73,2.89,3.55,12.46-4.82,5.38-10.64,9.99-16.17,8.91-10.05-1.97-14.56-21.87-14.95-21.71-.54.21,9.4,24.44,7.26,25.56-1.99,1.05-14.48-20.02-15.9-19.2-.83.48.68,9.35,5.71,16.77.99,1.46,2.39,3.28,1.79,4.93-.76,2.1-3.8,1.35-7.39,4.52-1.86,1.64-2.59,3.19-3.7,2.98-1.12-.21-1.64-2.05-1.79-2.58-2.25-7.62-13-24.06-12.93-24.09.04-.02,2.71,5.62,5.06,11.47,4.47,11.13,4.17,14.09,3.21,16.18-1.08,2.33-2.15,1.76-5.18,5.4-4.81,5.77-5.1,10.79-6.73,10.72-1.88-.08-3-6.8-3.23-8.14-2.72-15.7-10.2-22.63-14.59-33.76Z" fill="#ba888d"/>
      <path d="M992.84,349.43c1.57,1.54,3.78,3.89,6.04,7.05,2.65,3.7,6.08,8.45,7.66,15.11,1.46,6.16.24,9.27,2.62,10.99,2.24,1.62,5.75.58,8.22-.45,1.32,1.22,2.63,2.43,3.95,3.65.28,1.37.9,3.2,2.44,4.45,1.66,1.33,3.61,1.37,4.44,1.43,6.77.49,8.89,7.9,14.78,8.78,5.91.89,11.56-5.41,17.14-11.64,3.97-4.42,6.52-8.67,8.07-11.66" fill="none" stroke="#ba888d" stroke-miterlimit="10"/>
      <path d="M1021.33,385.77c.65-.8,1.76-2.01,3.4-3.09.38-.25,1.23-.84,2.33-1.38,3.14-1.55,5.02-1.22,8.48-2.18,1.13-.32,2.82-.88,4.8-1.92" fill="#ba888d"/>
      <path d="M1024.74,391.64c2.33-.69,7.13-2.43,10.11-6.29.72-.93,1.22-1.84,1.58-2.68" fill="#ba888d"/>
      <path d="M1027.86,342.23c.02,1.59-.21,3.72-1.25,5.93-3.33,7.08-11.9,8.36-12.83,8.48" fill="#ba888d"/>
      <path d="M1062.01,337.26c-.87.52-5.16,3.23-6.26,8.53-.14.7-1.49,7.73,3.13,10.84,4.01,2.7,9.06.14,9.34,0,4.73-2.48,5.61-8.08,5.86-9.69.3-1.94.17-3.59,0-4.72" fill="#ba888d"/>
      <line x1="1006.76" y1="349.34" x2="1014.44" y2="338.34" fill="none" stroke="#ba888d" stroke-miterlimit="10"/>
      <path d="M1225.2,413.03c.27,1.48,3.25,19.32-10.02,32.39-9.36,9.22-23.2,12.54-35.98,8.67" fill="#ba888d" stroke="#8e2a27" stroke-miterlimit="10" stroke-width=".5"/>
      <path d="M1155.39,464.74c-.79,3.65-2.71,10.68-7.2,16.09-2.67,3.21-5.36,4.78-7.3,5.6" fill="#ba888d"/>
      <g>
        <path d="M593.01,320.57c25.77,19.85,40.38,29.85,47.66,33.34,2.76,1.33,10.25,4.5,14.82,11.71,1.01,1.59,1.26,2.42,2.6,4.08,3.81,4.74,8.61,6.59,12.99,8.35,10.47,4.22,12.88,3.43,16.88,7.24.52.5,1.96,2.55,4.83,6.66,7.16,10.24,7.64,11.85,7.78,13.38.25,2.69-1.1,5.46-3.9,10.95-3.88,7.63-9.95,14.37-10.02,14.47-.33-.02-.87,0-1.4.28-1.8.95-1.02,3.57-3.05,6.18-.48.62-1.47,1.89-2.96,2.06-1.27.14-1.69-.65-2.6-.36-1.46.48-1,2.76-2.78,3.76-.88.5-2.14.58-2.87,0-.61-.49-.69-1.33-.72-1.79-.21-3.6,1.64-6.4,1.61-9.14-.02-1.75-.79-1.68-5.2-8.15-3.72-5.46-4.11-6.89-6.54-8.24-.76-.42-3.66-2.04-6.27-.9-.26.11-1.89.83-2.33,2.33-.28.96.14,1.56.63,3.31.88,3.13.19,3.5.9,4.84,1.04,1.97,2.62,1.32,5.11,3.4,2.91,2.44,3.69,5.8,3.94,6.9.21.89,1.16,5.01-.36,5.91-.97.58-2.15-.63-6.99-3.05-3.64-1.82-3.73-1.51-5.29-2.51-1.04-.67-3.05-2.13-6.09-6.54-2.27-3.3-3.98-6.6-5.46-10.12-3.5-8.32-5.64-13.4-5.35-20.07.13-3,.74-5.97-.67-9.87-.35-.98-1.19-3.21-3.18-5.35-2.17-2.33-3.85-2.52-7.19-4.68-1.58-1.02-3.8-2.65-6.19-5.18-20.22-12.56-30.31-18.87-30.27-18.93.01-.02.96.54,2.85,1.69" fill="#ba888d" stroke="#8b2a25" stroke-miterlimit="10" stroke-width=".5"/>
        <line x1="650.09" y1="411.5" x2="651.5" y2="417.54" fill="#ba888d" stroke="#8b2a25" stroke-miterlimit="10" stroke-width=".5"/>
        <path d="M669.57,403.04c.3,1.21.84,3.13,1.84,5.35,2,4.45,3.41,4.8,5.52,9.36,1.53,3.31,2.2,6.2,2.51,7.86.31,1.68.44,3.13.5,4.18l-3.27,9.11" fill="#ba888d" stroke="#8b2a25" stroke-miterlimit="10" stroke-width=".5"/>
        <path d="M679.1,399.7c.35.87.91,2.16,1.67,3.68,1.85,3.68,2.88,4.6,5.02,8.36,2.04,3.59,3.06,5.42,3.18,7.69.13,2.51-.68,4.57-1.34,5.85l-2.37,5.74" fill="#ba888d" stroke="#8b2a25" stroke-miterlimit="10" stroke-width=".5"/>
        <path d="M684.95,390c1.64,1.39,2.25,2.72,2.51,3.68.42,1.57-.05,2.42.5,4.01.58,1.66,1.73,2.6,2.17,3.01,1.51,1.4,3.5,4.69,5.52,13.04v4.43" fill="#ba888d" stroke="#8b2a25" stroke-miterlimit="10" stroke-width=".5"/>
        <path d="M663.71,393.51c.59.57,1.22,1.23,1.84,2.01,1.15,1.43,1.95,2.83,2.51,4.01" fill="#ba888d" stroke="#8b2a25" stroke-miterlimit="10" stroke-width=".5"/>
        <path d="M672.58,390c.74.48,1.72,1.22,2.67,2.34,1.06,1.25,1.66,2.48,2.01,3.34" fill="#ba888d" stroke="#8b2a25" stroke-miterlimit="10" stroke-width=".5"/>
        <path d="M758.07,317.53c-20.07,18.91-43.57,37.66-70.98,54.69-4.07,2.53-8.13,4.96-12.17,7.29" fill="#ba888d" stroke="#8b2a25" stroke-miterlimit="10" stroke-width=".5"/>
        <path d="M757.02,369.54c-12.65,4.18-22.64,8.84-29.81,12.58-12.65,6.6-14.93,9.58-15.85,12.67-1.35,4.57.47,8.81-2.42,16.71-.36.97-1.14,2.99-2.49,5.38-3.19,5.66-7.13,9.18-10,11.75-1.27,1.14-.92.68-3.34,2.73-1.6,1.36-2.42,2.02-2.82,1.93-1.17-.26-1.22-4.16-1.22-5.47" fill="#ba888d" stroke="#8b2a25" stroke-miterlimit="10" stroke-width=".5"/>
        <path d="M710.39,377.44c-.65,1.26-1.56,3.39-1.81,6.19-.22,2.43.14,4.42.48,5.72" fill="#ba888d" stroke="#8b2a25" stroke-miterlimit="10" stroke-width=".5"/>
        <line x1="654.69" y1="414.19" x2="654.31" y2="425.66" fill="#ba888d" stroke="#8b2a25" stroke-miterlimit="10" stroke-width=".5"/>
        <line x1="662.26" y1="417.71" x2="658.6" y2="428.03" fill="#ba888d" stroke="#8b2a25" stroke-miterlimit="10" stroke-width=".5"/>
        <path d="M667.79,426.03l-5.28,8.61-.36.59" fill="#ba888d" stroke="#8b2a25" stroke-miterlimit="10" stroke-width=".5"/>
        <path d="M661.04,441.26c-.05,1.19-.06,2.21-.07,3.02,0,.81.01,1.29.33,1.51.09.07.49.31,1.54-.22,2.23-1.13,3.79-3.92,4.31-4.83.93-1.62,2.31-3.81,4.35-6.35" fill="#ba888d" stroke="#8b2a25" stroke-miterlimit="10" stroke-width=".5"/>
      </g>
      <polyline points="689.08 490.04 664.51 508.92 650 490.04" fill="#ba888d"/>
      <path d="M126.51,425.8c1.27,2.83,2.06,3.66,2.56,3.6,1.2-.15,2.2-5.54-.32-6.57-.35-.14-1.1-.34-2.43.07" fill="#ba888d"/>
      <line x1="135.04" y1="486.78" x2="121.41" y2="505.28" fill="#ba888d"/>
      <path d="M1188.09,573.47c1.27,2.83,2.06,3.66,2.56,3.6,1.2-.15,2.2-5.54-.32-6.57-.35-.14-1.1-.34-2.43.07" fill="#8e2a27"/>
      <polyline points="1239.77 633.1 1217.78 661.34 1202.44 639.1" fill="#ba888d"/>
      <path d="M159.46,559.68c1.27,2.83,2.06,3.66,2.56,3.6,1.2-.15,2.2-5.54-.32-6.57-.35-.14-1.1-.34-2.43.07" fill="#8e2a27"/>
      <path d="M1206.97,438.91c0,.72-.17,1.26-.23,1.44-.22.63-.54,1.05-.7,1.26-.42.54-.85.87-1.09,1.03-.35.24-.66.38-.83.45-.29.12-.89.36-1.69.36-.21,0-1.06-.03-1.96-.55-.71-.41-1.1-.91-1.43-1.35-.51-.67-1.13-1.5-1.14-2.64,0-.88.35-1.63.56-2.06.1-.21.24-.49.47-.82.18-.25,1.09-1.5,2.54-1.68.09-.01.38,0,.96.02,1.42.05,1.65.15,1.76.2.17.08.43.26.95.61.2.14.31.21.37.25.23.18.5.47.83,1.18.3.66.61,1.33.62,2.29Z" fill="#7f1527" stroke="#7f1626" stroke-miterlimit="10" stroke-width=".5"/>
      <path d="M1123.53,480.14c0,.72-.17,1.26-.23,1.44-.22.63-.54,1.05-.7,1.26-.42.54-.85.87-1.09,1.03-.35.24-.66.38-.83.45-.29.12-.89.36-1.69.36-.21,0-1.06-.03-1.96-.55-.71-.41-1.1-.91-1.43-1.35-.51-.67-1.13-1.5-1.14-2.64,0-.88.35-1.63.56-2.06.1-.21.24-.49.47-.82.18-.25,1.09-1.5,2.54-1.68.09-.01.38,0,.96.02,1.42.05,1.65.15,1.76.2.17.08.43.26.95.61.2.14.31.21.37.25.23.18.5.47.83,1.18.3.66.61,1.33.62,2.29Z" fill="#7f1527" stroke="#7f1626" stroke-miterlimit="10" stroke-width=".5"/>
      <path d="M620.75,291.99c0,.48-.11.84-.15.96-.15.42-.36.7-.47.84-.28.36-.57.58-.72.68-.24.16-.44.25-.55.3-.19.08-.59.24-1.12.24-.14,0-.7-.02-1.3-.36-.47-.27-.73-.6-.95-.89-.34-.45-.75-1-.76-1.75,0-.58.23-1.08.37-1.37.07-.14.16-.33.31-.54.12-.16.73-1,1.69-1.11.06,0,.25,0,.64.01.94.03,1.09.1,1.17.14.11.05.29.17.63.4.14.09.2.14.24.17.15.12.34.31.55.78.2.44.41.89.41,1.52Z" fill="#7f1527" stroke="#7f1626" stroke-miterlimit="10" stroke-width=".5"/>
      <path d="M740.52,296.42c0,.48-.11.84-.15.96-.15.42-.36.7-.47.84-.28.36-.57.58-.72.68-.24.16-.44.25-.55.3-.19.08-.59.24-1.12.24-.14,0-.7-.02-1.3-.36-.47-.27-.73-.6-.95-.89-.34-.45-.75-1-.76-1.75,0-.58.23-1.08.37-1.37.07-.14.16-.33.31-.54.12-.16.73-1,1.69-1.11.06,0,.25,0,.64.01.94.03,1.09.1,1.17.14.11.05.29.17.63.4.14.09.2.14.24.17.15.12.34.31.55.78.2.44.41.89.41,1.52Z" fill="#7f1527" stroke="#7f1626" stroke-miterlimit="10" stroke-width=".5"/>
      <path d="M256.04,458.52c0,.48-.11.84-.15.96-.15.42-.36.7-.47.84-.28.36-.57.58-.72.68-.24.16-.44.25-.55.3-.19.08-.59.24-1.12.24-.14,0-.7-.02-1.3-.36-.47-.27-.73-.6-.95-.89-.34-.45-.75-1-.76-1.75,0-.58.23-1.08.37-1.37.07-.14.16-.33.31-.54.12-.16.73-1,1.69-1.11.06,0,.25,0,.64.01.94.03,1.09.1,1.17.14.11.05.29.17.63.4.14.09.2.14.24.17.15.12.34.31.55.78.2.44.41.89.41,1.52Z" fill="#7f1527" stroke="#7f1626" stroke-miterlimit="10" stroke-width=".5"/>
      <path d="M182.25,416.09c0,.48-.11.84-.15.96-.15.42-.36.7-.47.84-.28.36-.57.58-.72.68-.24.16-.44.25-.55.3-.19.08-.59.24-1.12.24-.14,0-.7-.02-1.3-.36-.47-.27-.73-.6-.95-.89-.34-.45-.75-1-.76-1.75,0-.58.23-1.08.37-1.37.07-.14.16-.33.31-.54.12-.16.73-1,1.69-1.11.06,0,.25,0,.64.01.94.03,1.09.1,1.17.14.11.05.29.17.63.4.14.09.2.14.24.17.15.12.34.31.55.78.2.44.41.89.41,1.52Z" fill="#7f1527" stroke="#7f1626" stroke-miterlimit="10" stroke-width=".5"/>
      <path d="M195.52,438.4c-1.05.47-13.68,5.85-25.7-1.61-8.48-5.26-13.4-14.88-12.83-25.01" fill="none" stroke="#8e2a27" stroke-miterlimit="10" stroke-width=".5"/>
    </g>
  </g>
  <g id="Layer_2">
    <text transform="translate(-927.3 -501.7) rotate(-52.39)" fill="#bb8a8d" font-family="SuperFunky, &apos;Super Funky&apos;" font-size="266.4"><tspan x="0" y="0">M</tspan></text>
    <text transform="translate(-772.99 -694.3) rotate(-38.19)" fill="#bb8a8d" font-family="SuperFunky, &apos;Super Funky&apos;" font-size="266.4"><tspan x="0" y="0">E</tspan></text>
    <text transform="translate(-630.01 -807.3) rotate(-27.7)" fill="#bb8a8d" font-family="SuperFunky, &apos;Super Funky&apos;" font-size="266.4"><tspan x="0" y="0">N</tspan></text>
    <text transform="translate(-452.14 -900.36) rotate(-18.1)" fill="#bb8a8d" font-family="SuperFunky, &apos;Super Funky&apos;" font-size="266.4"><tspan x="0" y="0">S</tspan></text>
    <text transform="translate(-265.69 -961.26) rotate(-9.83)" fill="#bb8a8d" font-family="SuperFunky, &apos;Super Funky&apos;" font-size="266.4"><tspan x="0" y="0">T</tspan></text>
    <text transform="translate(-73.78 -994.5) rotate(-1.86)" fill="#bb8a8d" font-family="SuperFunky, &apos;Super Funky&apos;" font-size="266.4"><tspan x="0" y="0">R</tspan></text>
    <text transform="translate(112.07 -1001.46) rotate(5.5)" fill="#bb8a8d" font-family="SuperFunky, &apos;Super Funky&apos;" font-size="266.4"><tspan x="0" y="0">U</tspan></text>
    <text transform="translate(311.2 -984.52) rotate(14.84)" fill="#bb8a8d" font-family="SuperFunky, &apos;Super Funky&apos;" font-size="266.4"><tspan x="0" y="0">A</tspan></text>
    <text transform="translate(525.67 -927.89) rotate(23.7)" fill="#bb8a8d" font-family="SuperFunky, &apos;Super Funky&apos;" font-size="266.4"><tspan x="0" y="0">T</tspan></text>
    <text transform="translate(702.81 -847.23) rotate(31.52)" fill="#bb8a8d" font-family="SuperFunky, &apos;Super Funky&apos;" font-size="266.4"><tspan x="0" y="0">I</tspan></text>
    <text transform="translate(800.91 -791.86) rotate(40.72)" fill="#bb8a8d" font-family="SuperFunky, &apos;Super Funky&apos;" font-size="266.4"><tspan x="0" y="0">O</tspan></text>
    <text transform="translate(955.65 -659.84) rotate(54.56)" fill="#bb8a8d" font-family="SuperFunky, &apos;Super Funky&apos;" font-size="266.4"><tspan x="0" y="0">N</tspan></text>
  </g>
</svg>