<?xml version="1.0" encoding="UTF-8"?>
<svg id="Lag_1" xmlns="http://www.w3.org/2000/svg" viewBox="0 0 646.57 282.25">
  <path d="M0,122.05c0-11.4,5.82-20.11,17.5-26.13,11.66-6.02,27.46-10.45,47.41-13.3,19.93-2.85,42.5-4.48,67.73-4.91,25.21-.42,51.36-.63,78.45-.63,15.04,0,30.09.05,45.15.16,15.05.11,30.09.16,45.15.16,25.57,0,46.84.53,63.78,1.58,16.93,1.06,30.48,3.17,40.63,6.33,10.16,3.17,17.5,7.55,22.01,13.14,4.52,5.6,6.77,12.93,6.77,22.01,0,1.9-.19,4.07-.57,6.49-.39,2.43-1.52,4.8-3.38,7.13-1.89,2.33-4.34,4.43-7.34,6.33-3.02,1.9-7.53,3.48-13.54,4.75-12.05,2.53-26.92,4.7-44.59,6.49-17.69,1.8-35.94,3.28-54.75,4.43-18.82,1.16-37.44,2.01-55.87,2.53-18.45.53-34.82.79-49.1.79-24.83,0-51.75-.48-80.71-1.43-28.98-.95-55.51-2.8-79.58-5.54-9.03-1.05-16.37-2.69-22.01-4.91-5.64-2.22-10.16-4.75-13.54-7.6-3.39-2.85-5.84-5.86-7.34-9.03-1.52-3.17-2.26-6.12-2.26-8.87Z" fill="#742029"/>
  <path d="M646.57,147.24c0,7.07-1.26,13.73-3.78,19.99-2.52,6.26-6.03,11.97-10.51,17.13-3.36,4.08-8.27,8.3-14.72,12.64-6.45,4.35-13.32,8.57-20.6,12.64-7.29,4.08-14.44,8.02-21.44,11.83-7.01,3.81-13.03,7.34-18.08,10.6-5.89,3.54-11.5,7.48-16.82,11.83-5.33,4.35-10.66,8.71-15.98,13.05-5.33,4.35-10.87,8.43-16.61,12.24-5.75,3.81-11.84,6.93-18.29,9.38-2.52,1.09-5.19,1.98-7.99,2.65-2.8.68-5.75,1.02-8.83,1.02-8.13,0-15.63-2.51-22.49-7.55-6.87-5.03-12.82-11.22-17.87-18.56-5.04-7.34-8.97-15.23-11.77-23.66-2.81-8.42-4.2-16.04-4.2-22.84,0-14.41,1.54-25.76,4.62-34.06,3.08-8.29,7.29-14.68,12.61-19.17,5.32-4.49,11.56-7.41,18.71-8.77,7.15-1.36,14.78-2.24,22.91-2.65,8.13-.41,16.61-.75,25.44-1.02,8.83-.27,17.45-1.49,25.86-3.67,3.92-1.08,7.78-2.78,11.56-5.1,3.78-2.31,5.68-5.77,5.68-10.4,0-3.26-2.73-6.46-8.2-9.58-5.47-3.12-12.34-6.39-20.6-9.79-8.27-3.4-17.24-7.07-26.91-11.01-9.67-3.94-18.64-8.43-26.91-13.46-8.27-5.03-15.14-10.74-20.6-17.13-5.47-6.39-8.2-13.66-8.2-21.82,0-11.42,3.43-21.27,10.3-29.57,6.87-8.29,16.61-12.44,29.22-12.44,5.6,0,11.07.75,16.4,2.24,5.32,1.5,10.37,3.33,15.14,5.51,2.24,1.09,6.87,4.08,13.88,8.97,7,4.89,15.14,10.74,24.39,17.54,9.25,6.8,19.06,14.21,29.43,22.23,10.37,8.02,20.11,15.64,29.22,22.84,9.1,7.21,16.88,13.53,23.33,18.97,6.44,5.44,10.51,9.11,12.19,11.01,4.21,4.89,7,10.88,8.41,17.95,1.4,7.07,2.1,13.73,2.1,19.99Z" fill="#742029"/>
</svg>