<?xml version="1.0" encoding="UTF-8"?>
<svg id="Layer_2" xmlns="http://www.w3.org/2000/svg" viewBox="0 0 160.73 160.73">
  <circle cx="80.36" cy="80.36" r="80.09" fill="#ba888d"/>
  <g>
    <path d="M51.57,77.11c1.15-2.27,2.32-4.52,3.46-6.8,2.39-4.79,4.29-9.75,4.85-15.11.38-3.66.21-7.32-.26-10.96-.58-4.51-1.4-8.98-2.48-13.4-.61-2.51-1.28-5-1.94-7.5-.33-1.25-.35-1.25,1.01-1.25,12.77,0,25.53,0,38.3,0,2.21,0,4.41.04,6.61-.02.9-.02,1.16.29,1.07,1.14-.14,1.3-.19,2.61-.25,3.92-.31,6.62,1.46,12.74,4.41,18.59,1.93,3.83,3.91,7.64,5.35,11.69,1.17,3.28,1.94,6.66,2.28,10.12.4,4.08.45,8.15-.6,12.18-1,3.86-2.89,7.23-5.39,10.27-1.27,1.55-2.64,3.01-3.97,4.51-1.64.26-3.23-.22-4.82-.44-6.09-.84-12.07-2.18-17.97-3.92-8.29-2.44-16.27-5.65-23.94-9.58-1.97-1.01-4.05-1.91-5.72-3.45Z" fill="none" stroke="#742027" stroke-miterlimit="10"/>
    <path d="M98.69,103.82c0,9.24.05,18.47-.05,27.71-.02,2-.14,4.01-.12,6.01.01.86-.24,1.14-1.11,1.12-2.7-.05-5.41-.02-8.12-.02-9.51,0-19.02-.02-28.52.02-1,0-1.29-.24-1.32-1.28-.14-4.85-.63-9.67-1.81-14.4-.57-2.29-2.13-3.99-3.26-5.94.64-1.33,1.79-2.21,2.88-3.11,6.32-5.21,13.6-8.27,21.62-9.71,4.74-.85,9.5-1.12,14.29-.93,1.84.07,3.69.18,5.51.52Z" fill="none" stroke="#742027" stroke-miterlimit="10"/>
    <path d="M98.69,103.82c-1.45.49-2.88-.06-4.32-.12-2.85-.13-5.69-.16-8.54.03-2.65.17-5.26.53-7.87,1.02-6.69,1.24-12.81,3.83-18.37,7.74-1.89,1.33-3.52,2.99-5.21,4.56-4.03-5.01-6.52-10.65-7.51-17.05-1.26-8.09.68-15.46,4.44-22.52.07-.13.18-.25.27-.37,1.56.83,3.13,1.64,4.68,2.5,3.09,1.73,6.31,3.2,9.56,4.62,3.32,1.45,6.7,2.72,10.12,3.9,3.82,1.32,7.68,2.49,11.61,3.39,4.75,1.1,9.52,2.08,14.38,2.58.69.07,1.46.02,2.12.39-1.05,1.27-2.22,2.45-3.18,3.8-1.18,1.67-1.99,3.46-2.16,5.52Z" fill="#742029"/>
    <path d="M93.15,77.52c0,2.51-2.05,4.5-4.59,4.45-2.29-.04-4.25-2.08-4.26-4.43,0-2.57,1.98-4.61,4.47-4.6,2.42.02,4.38,2.07,4.38,4.57Z" fill="#742029"/>
    <path d="M98,68.71c0-2.52,1.93-4.57,4.33-4.59,2.47-.02,4.4,1.97,4.54,4.42.13,2.2-1.74,4.56-4.61,4.58-2.27,0-4.58-2.23-4.26-4.4Z" fill="#742029"/>
    <path d="M107.27,85.49c-2.56,0-4.41-1.82-4.4-4.3.01-2.57,1.97-4.54,4.53-4.54,2.38,0,4.29,2.03,4.34,4.49.06,2.5-2.15,4.71-4.47,4.35Z" fill="#742029"/>
    <path d="M90.59,68.09c0,1.48-1.13,2.54-2.66,2.52-1.28-.02-2.46-1.26-2.44-2.57.02-1.37,1.22-2.51,2.63-2.52,1.38-.01,2.48,1.13,2.47,2.58Z" fill="#742029"/>
    <path d="M112.88,72.3c-.01,1.45-1.12,2.51-2.61,2.48-1.35-.02-2.48-1.17-2.49-2.53-.01-1.37,1.22-2.59,2.59-2.57,1.45.02,2.52,1.14,2.5,2.61Z" fill="#742029"/>
    <path d="M96.58,83.62c-1.44-.01-2.54-1.16-2.5-2.61.03-1.36,1.18-2.49,2.54-2.49,1.45,0,2.59,1.2,2.56,2.71-.03,1.37-1.14,2.4-2.59,2.39Z" fill="#742029"/>
    <path d="M98.78,86.16c1.44,0,2.5,1.11,2.48,2.59-.02,1.37-1.23,2.51-2.66,2.5-1.29,0-2.43-1.22-2.44-2.61-.01-1.43,1.09-2.48,2.61-2.48Z" fill="#742029"/>
    <path d="M107.68,59.01c-1.33-.04-2.49-1.19-2.45-2.42.05-1.43,1.34-2.74,2.65-2.68,1.4.07,2.47,1.25,2.44,2.7-.03,1.48-1.09,2.44-2.64,2.39Z" fill="#742029"/>
    <path d="M100.01,52.26c1.51-.01,2.64,1.03,2.65,2.44.01,1.47-1.06,2.57-2.52,2.6-1.38.03-2.57-1.15-2.58-2.55-.01-1.38,1.07-2.48,2.45-2.49Z" fill="#742029"/>
    <path d="M96.17,64.13c0,1.42-1.05,2.52-2.42,2.53-1.28,0-2.67-1.33-2.67-2.56,0-1.19,1.33-2.51,2.58-2.52,1.26-.01,2.72,1.04,2.51,2.55Z" fill="#742029"/>
    <path d="M95.7,57.27c0,.84-.62,1.52-1.42,1.47-.81-.06-1.24-.6-1.35-1.34-.1-.7.75-1.58,1.41-1.56.71.02,1.35.7,1.35,1.43Z" fill="#742029"/>
    <path d="M94.71,73.4c-.68,0-1.44-.7-1.3-1.43.15-.76.64-1.36,1.48-1.33.85.03,1.28.57,1.28,1.45,0,.91-.42,1.35-1.46,1.31Z" fill="#742029"/>
    <path d="M100.17,75.24c.75.06,1.27.46,1.32,1.34.05.85-.55,1.46-1.39,1.46-.92,0-1.34-.59-1.35-1.38,0-.79.42-1.38,1.42-1.42Z" fill="#742029"/>
    <path d="M106.62,50.19c-.08.59-.48,1.15-1.3,1.14-.79-.01-1.48-.35-1.47-1.28.01-.79.35-1.44,1.29-1.47.86-.03,1.5.61,1.48,1.62Z" fill="#742029"/>
    <path d="M99.51,62.96c-.79-.12-1.29-.57-1.26-1.45.03-.87.53-1.33,1.4-1.34.93,0,1.33.62,1.34,1.41,0,.86-.59,1.28-1.48,1.37Z" fill="#742029"/>
    <path d="M106.99,60.86c.71.12,1.21.5,1.24,1.34.04.87-.55,1.47-1.41,1.45-.93-.02-1.34-.63-1.33-1.42,0-.85.59-1.28,1.5-1.37Z" fill="#742029"/>
    <path d="M111.04,67.16c-.83-.09-1.38-.45-1.43-1.35-.05-.94.54-1.32,1.33-1.43.76-.1,1.48.65,1.44,1.47-.04.82-.56,1.2-1.34,1.31Z" fill="#742029"/>
    <path d="M93.17,86.09c-.06.88-.46,1.45-1.34,1.46-.85,0-1.42-.49-1.43-1.34,0-.8.41-1.41,1.33-1.42.88,0,1.32.49,1.43,1.3Z" fill="#742029"/>
    <path d="M104.5,88.63c-.06-.97.54-1.29,1.37-1.31.82-.02,1.32.42,1.39,1.22.06.72-.79,1.62-1.43,1.53-.8-.11-1.37-.52-1.33-1.44Z" fill="#742029"/>
  </g>
</svg>