<?xml version="1.0" encoding="UTF-8"?>
<svg id="Layer_2" xmlns="http://www.w3.org/2000/svg" viewBox="0 0 705.09 709.09">
  <circle cx="349.54" cy="359.54" r="344.04" fill="none" stroke="#742027" stroke-miterlimit="10" stroke-width="5"/>
  <path d="M252.26,259.25c-.47,5.92-.14,18.46,1.87,31.7,2.18,14.34,5.62,24.81,6.35,26.99,5.37,16.02,12.98,38.74,35.07,54.91,21.52,15.76,44.63,16.41,51.92,16.32,7.93-.1,24.03-.5,40.27-10.9,13.43-8.59,20.16-19.66,23.15-24.7,4.04-6.81,9.45-18.2,11.96-44.42,2.83-29.62,4.31-45.1-1.83-61.38-12.49-33.11-54.75-64.96-100.21-56.08-38.39,7.5-66.5,41.59-68.55,67.55Z" fill="none" stroke="#742027" stroke-miterlimit="10" stroke-width="5"/>
  <g>
    <path d="M321.52,351.45c8.84.43,19.33.31,31.04-1.07,11.27-1.33,21.16-3.53,29.44-5.89" fill="none" stroke="#742027" stroke-miterlimit="10" stroke-width="5"/>
    <path d="M334.63,362.38c1.6,1.08,9.8,6.37,20.61,4.28,9.04-1.75,14.29-7.58,15.79-9.37" fill="none" stroke="#742027" stroke-miterlimit="10" stroke-width="5"/>
    <path d="M369.89,347.51c-1.23-1.02-11.01-8.84-23.76-5.98-8.92,2-14.02,8.04-15.54,9.98" fill="none" stroke="#742027" stroke-miterlimit="10" stroke-width="5"/>
  </g>
  <path d="M336.32,292.27c-.24,3.59-.79,9.14-2.26,15.81-1.69,7.69-3.24,10.77-1.67,13.07,1.13,1.65,4.63,4.01,18.24.48" fill="none" stroke="#742027" stroke-miterlimit="10" stroke-width="5"/>
  <ellipse cx="304.5" cy="290.54" rx="7.91" ry="10.41" transform="translate(-41.58 51.04) rotate(-8.97)" fill="#742029"/>
  <path d="M385.67,277.37c.9,5.68-1.87,10.83-6.19,11.51-4.31.68-8.54-3.37-9.43-9.05-.9-5.68,1.87-10.83,6.19-11.51,4.31-.68,8.54,3.37,9.43,9.05Z" fill="#742029"/>
  <path d="M284.36,286.24c2.73-2.14,8.83-6.33,17.7-7.53,6.56-.89,11.93.22,15.06,1.13" fill="none" stroke="#742027" stroke-miterlimit="10" stroke-width="5"/>
  <path d="M361.54,273.82c1.53-1.6,6.23-6.14,13.93-7.53,8.3-1.5,14.69,1.63,16.57,2.64" fill="none" stroke="#742027" stroke-miterlimit="10" stroke-width="5"/>
  <path d="M280.59,258.38c2.99-1.67,8.32-4.16,15.44-4.89,7.58-.79,13.63.77,16.94,1.88" fill="none" stroke="#742027" stroke-miterlimit="10" stroke-width="5"/>
  <path d="M358,246.47c2.84-1.92,7.95-4.83,14.98-6.16,7.49-1.41,13.65-.36,17.04.47" fill="none" stroke="#742027" stroke-miterlimit="10" stroke-width="5"/>
  <path d="M498.96,487.27c-7.42-15.09-21.07-36.95-43.51-50.38-12.97-7.77-31.41-14.23-34.92-15.46,0,0-2.66-.93-6.71-2.18-2.78-.86-5.17-1.54-7.2-2.09-4.25-1.16-6.7-1.73-7.85-2.03-8.01-2.11-14.27-8.06-15.91-9.61-8.45-8.04-5.86-12.72-11.84-15.82-4.02-2.08-5.38.56-20.4.89-10.11.22-13.89-.07-20.73,1.15-8.51,1.52-11.72,1.55-14.06,4.06-2.79,2.99-.78,4.52-4.16,9.9-.71,1.13-5.6,8.68-13.08,9.43,0,0,0,0,0,0-16.37,3.81-28.62,8.6-32.06,10.3-13.81,6.83-20.71,10.25-21.75,10.88-22.14,13.37-36.74,34.46-44.65,48.09,6.75,8.55,57.95,71.21,146.4,73.14,91.24,1.98,145.92-62.33,152.44-70.27Z" fill="none" stroke="#742027" stroke-miterlimit="10" stroke-width="5"/>
  <circle cx="320.72" cy="335.02" r=".8" fill="none" stroke="#742027" stroke-miterlimit="10" stroke-width="5"/>
  <path d="M364.43,390.62c10.3-1.09,28.84-4.62,44.99-18.33,26.2-22.24,28.15-56.03,29.58-80.68,1.01-17.34,2.88-49.42-16.98-81.24-5.55-8.9-18.53-29.09-44.18-40.75-30-13.64-58.09-6.84-73.9-3.02-16.52,4-39.86,9.65-56.53,29.82-15.15,18.34-17.01,39.27-18.88,60.29-4,45,12.4,63.29-2.08,92.67-3.84,7.78-7.92,12.45-6.6,19.59,3.5,19.01,39.89,26.64,47.36,28.06.2.04.53.1.97.18,14.36,2.57,25.13.39,38.38-1.92,6.71-1.17,16.77-2.84,29.61-4.66" fill="none" stroke="#742027" stroke-miterlimit="10" stroke-width="5"/>
  <path d="M362.29,396.24c0,3.12-5.22,5.65-11.67,5.65-6.44,0-11.67-2.53-11.67-5.65s5.22-5.65,11.67-5.65c6.44,0,11.67,2.53,11.67,5.65Z" fill="none" stroke="#742027" stroke-miterlimit="10" stroke-width="5"/>
  <path d="M335.27,419.99c-3.64,15.48-9.13,27.43-12.27,26.69-3.14-.74-2.73-13.88.91-29.36,3.64-15.48,9.14-27.43,12.27-26.69,3.14.74,2.73,13.88-.91,29.36Z" fill="none" stroke="#742027" stroke-miterlimit="10" stroke-width="5"/>
  <ellipse cx="371.03" cy="418.65" rx="5.83" ry="28.79" transform="translate(-86 96.08) rotate(-13.24)" fill="none" stroke="#742027" stroke-miterlimit="10" stroke-width="5"/>
  <path d="M238.56,440.43c30.44,23.28,60.89,46.57,91.33,69.85,4.69-49.26,12.03-108.43,20.74-108.4,8.65.03,15.58,58.54,19.97,107.86,28.29-24.28,56.57-48.57,84.86-72.85" fill="none" stroke="#742027" stroke-miterlimit="10" stroke-width="5"/>
  <path d="M638.92,360.36c.17,46.17-10.98,80.62-14.87,91.82-14.05,40.41-34.18,66.93-44.76,80.63-26.64,34.5-54.57,55.47-69.35,65.55-22.63,15.43-42.42,24.39-52.72,28.69-18.38,7.68-56.6,23.19-107.68,22.68-13.7-.14-67.53-1.82-125.22-34.85-45.27-25.92-70.13-58.09-91.25-85.99-32.56-43.03-72.39-95.67-72.9-168.54-.39-55.91,22.49-103.97,35.63-131.54,6.48-13.6,15.05-31.38,30.22-52.25,11.49-15.8,69.79-96,162.3-106.98,5.53-.66,24.09.03,61.22,1.4,90.66,3.35,105.16,9.52,112.49,13.07,10.67,5.17,27.43,16.4,60.95,38.86,13.08,8.77,19.62,13.15,23.48,16.14,14.69,11.41,32.19,29.81,53.09,75.28,19.4,42.19,39.14,85.14,39.36,146.02Z" fill="none" stroke="#7f1626" stroke-miterlimit="10" stroke-width="12"/>
</svg>