<?xml version="1.0" encoding="UTF-8"?>
<svg id="Layer_2" xmlns="http://www.w3.org/2000/svg" viewBox="0 0 706 708.56">
  <path d="M306.47,472.07l12.96-17.61-12.96,17.61Z" fill="none" stroke="#742027" stroke-miterlimit="10" stroke-width="5"/>
  <path d="M323.96,483.51l9.32-20.25-9.32,20.25Z" fill="none" stroke="#742027" stroke-miterlimit="10" stroke-width="5"/>
  <path d="M347.1,488.74l.95-23.36-.95,23.36Z" fill="none" stroke="#742027" stroke-miterlimit="10" stroke-width="5"/>
  <path d="M368.52,486.55l-4.93-22.98,4.93,22.98Z" fill="none" stroke="#742027" stroke-miterlimit="10" stroke-width="5"/>
  <path d="M386.11,480.24l-7.96-19.94,7.96,19.94Z" fill="none" stroke="#742027" stroke-miterlimit="10" stroke-width="5"/>
  <path d="M407.24,470.75l-21-18.31,21,18.31Z" fill="none" stroke="#742027" stroke-miterlimit="10" stroke-width="5"/>
  <circle cx="353.22" cy="350.74" r="344.04" fill="none" stroke="#742027" stroke-miterlimit="10" stroke-width="5"/>
  <path d="M637.63,350.24c.17,46.26-11,80.79-14.9,92.02-14.08,40.49-34.25,67.07-44.85,80.8-26.69,34.57-54.68,55.59-69.49,65.69-22.67,15.46-42.51,24.44-52.83,28.75-18.42,7.69-56.72,23.24-107.9,22.73-13.73-.14-67.67-1.82-125.49-34.92-45.36-25.97-70.28-58.21-91.44-86.17-32.63-43.12-72.54-95.87-73.05-168.89-.4-56.03,22.54-104.19,35.7-131.82,6.49-13.63,15.09-31.45,30.29-52.36,11.51-15.84,69.94-96.2,162.64-107.21,5.54-.66,24.14.03,61.35,1.41,90.85,3.36,105.38,9.54,112.73,13.1,10.69,5.18,27.49,16.43,61.07,38.94,13.11,8.79,19.67,13.18,23.53,16.17,14.72,11.43,32.26,29.87,53.21,75.44,19.44,42.28,39.22,85.32,39.44,146.32Z" fill="none" stroke="#7f1626" stroke-miterlimit="10" stroke-width="12"/>
  <path d="M250.78,279.47c-.46,15.29,1.14,27.39,1.93,32.58,2.24,14.74,5.78,25.49,6.53,27.74,5.52,16.46,13.34,39.81,36.05,56.43,22.12,16.2,45.87,16.87,53.35,16.78,8.15-.1,24.69-.52,41.39-11.2,13.8-8.83,20.72-20.2,23.79-25.38,2.38-4.01,7.12-12.78,12.29-45.65.38-2.43,5.04-34.31,1.13-72.72-.62-6.07-1.61-13.81-7.33-17.48-9.45-6.05-24.75,3.59-27.06,5.07-.28-5.16-1.06-12.67-3.38-21.42-3.25-12.24-8.46-22.91-9.58-22.55-.77.25.44,5.67,3.51,25.77,1.94,12.7,2.32,16.16,0,18.92-2.61,3.12-6.46,2.73-17.98,3.49-21.09,1.4-21.27,3.57-24.83,2.01-16.67-7.3-10.22-53.95-13.69-54.14-1.52-.08-3.56,8.81-4.95,19.21-3.03,22.76-1.23,40.25-1.73,40.29-.89.08-5.46-56.22-8.55-56.12-1.09.03-1.51,7.02-4.51,36.64-.89,8.76-1.65,16.06-2.19,21.2-5.37,2.16-10.84,4.3-16.41,6.42-7.82,2.98-15.53,5.79-23.11,8.46-2.6-6.93-5.32-16.58-5.64-28.19-.5-18.24,5.17-31.54,5.07-31.57-.14-.04-12.95,27.24-14.09,65.39Z" fill="none" stroke="#742027" stroke-miterlimit="10" stroke-width="5"/>
  <path d="M269.18,366.81c-1.7.84-4.39,1.85-7.65,1.76-8.22-.25-13.52-7.45-17.07-11.84-7.79-9.62-8.19-20.03-8.26-23.13-.08-3.36-.15-9.85,3.58-15.97.93-1.54,2.56-3.78,5.28-5.98.08-.03.15-.05.23-.07,1.66-.52,4.11-.76,7.42.48" fill="none" stroke="#742027" stroke-miterlimit="10" stroke-width="5"/>
  <path d="M258.06,359.59c-5.38.61-9.94,3.79-11.78,8.36-2.67,6.64,1.3,13.93,6.27,16.91,6.76,4.05,17.46,1.37,23.13-7.76" fill="none" stroke="#742027" stroke-miterlimit="10" stroke-width="5"/>
  <path d="M428.73,283.8c1.23-1.35,4.7-4.77,9.36-4.63,7.67.24,11.86,9.98,12.78,11.92,4.49,9.52,1.78,19.45.15,25.45-1.21,4.45-4.64,17.03-14.27,21.35-3.08,1.39-5.9,1.63-7.73,1.42l-2.93-.32" fill="none" stroke="#742027" stroke-miterlimit="10" stroke-width="5"/>
  <path d="M434.77,328.47c1.77-.68,5.77-1.91,9.43-.18,6.81,3.22,9.78,15.4,3.74,21.89-4.63,4.97-12.91,5-18.15,1.6-2.56-1.66-4.02-3.89-4.8-5.39" fill="none" stroke="#742027" stroke-miterlimit="10" stroke-width="5"/>
  <g>
    <path d="M321.96,374.22c9.08.44,19.87.32,31.9-1.1,11.58-1.37,21.75-3.63,30.25-6.05" fill="none" stroke="#742027" stroke-miterlimit="10" stroke-width="5"/>
    <path d="M335.43,385.45c1.65,1.11,10.07,6.55,21.18,4.4,9.29-1.8,14.69-7.79,16.23-9.63" fill="none" stroke="#742027" stroke-miterlimit="10" stroke-width="5"/>
    <path d="M371.66,370.17c-1.26-1.04-11.31-9.08-24.42-6.15-9.17,2.05-14.41,8.26-15.97,10.26" fill="none" stroke="#742027" stroke-miterlimit="10" stroke-width="5"/>
  </g>
  <path d="M337.16,313.4c-.25,3.69-.82,9.39-2.32,16.25-1.73,7.9-3.33,11.07-1.72,13.43,1.16,1.7,4.76,4.12,18.75.5" fill="none" stroke="#742027" stroke-miterlimit="10" stroke-width="5"/>
  <ellipse cx="304.47" cy="309.62" rx="8.13" ry="10.7" transform="translate(-44.56 51.27) rotate(-8.97)" fill="#742029"/>
  <path d="M387.89,296.08c.92,5.83-1.93,11.13-6.36,11.83-4.43.7-8.77-3.46-9.69-9.3-.92-5.83,1.93-11.13,6.36-11.83,4.43-.7,8.77,3.46,9.69,9.3Z" fill="#742029"/>
  <path d="M283.77,307.2c2.8-2.2,9.08-6.5,18.19-7.74,6.74-.91,12.26.23,15.48,1.16" fill="none" stroke="#742027" stroke-miterlimit="10" stroke-width="5"/>
  <path d="M363.09,294.44c1.57-1.65,6.4-6.31,14.32-7.74,8.53-1.54,15.09,1.67,17.02,2.71" fill="none" stroke="#742027" stroke-miterlimit="10" stroke-width="5"/>
  <path d="M279.9,278.57c3.08-1.72,8.56-4.27,15.86-5.03,7.79-.81,14.01.79,17.41,1.93" fill="none" stroke="#742027" stroke-miterlimit="10" stroke-width="5"/>
  <path d="M359.45,266.33c2.92-1.97,8.17-4.96,15.39-6.33,7.69-1.45,14.03-.37,17.51.49" fill="none" stroke="#742027" stroke-miterlimit="10" stroke-width="5"/>
  <path d="M504.31,513.8c-7.62-15.5-21.66-37.97-44.71-51.77-13.33-7.98-32.28-14.62-35.89-15.89-9.03-3.16-14.92-8.37-22.36-6.47-6.47,1.65-8.04,6.26-14.12,11.77-16.47,14.92-40.22,13.03-41.18,12.94-16.76-1.56-30.28-11.91-34.71-15.3-7.22-5.52-7.81-8.02-12.94-9.41-7.09-1.93-13.25.85-32.95,10.59-14.19,7.02-21.28,10.53-22.36,11.18-22.75,13.74-37.76,35.42-45.89,49.42,6.93,8.79,59.56,73.18,150.45,75.16,93.77,2.04,149.96-64.05,156.66-72.22Z" fill="none" stroke="#742027" stroke-miterlimit="10" stroke-width="5"/>
  <path d="M286.91,459.3l17.56-16.13-17.56,16.13Z" fill="none" stroke="#742027" stroke-miterlimit="10" stroke-width="5"/>
  <path d="M416.36,456.69l-17.98-13.51,17.98,13.51Z" fill="none" stroke="#742027" stroke-miterlimit="10" stroke-width="5"/>
  <path d="M413.81,376.42c8.39,1.42,24.21,2.73,40.64-4.77,4.95-2.26,12.08-5.51,18.07-12.81,10.77-13.11,9.84-29.47,11.4-29.3,1.16.13,1.72,9.29.53,19.19-1.34,11.11-4.23,17.62-3.33,18.01,1.13.49,7.66-9.06,11.63-20.08,2.42-6.73,6.57-21.42,1.7-47.99-1.65-9-6.25-28-21.05-56.14-14.03-26.68-28.02-53.29-58.25-71.58-10.97-6.64-29.24-17.7-51.93-16.14-5.88.41-6.86,1.3-31.58,5.61-27.76,4.84-27.36,3.86-32.98,5.61-20.61,6.43-32.9,21.81-43.51,35.09-11.84,14.81-17.25,27.65-28.07,53.34-13.15,31.21-16.68,49.39-18.25,61.06-2.15,16-3.14,31.06,4.91,41.41,1.11,1.43,4.87,5.94,7.9,13,2.39,5.58,5.73,13.38,2.33,17.15-3.01,3.33-10.44,2.59-14.96-.53-5-3.46-5.43-9.37-6.94-9.08-1.45.27-2.58,5.96-.53,10.68,2.65,6.11,9.42,7.84,10.15,8.01,6.06,1.44,10.98-2.38,11.75-1.07.54.92-1.44,3.41-3.77,5.06-5.81,4.11-12.68,2.24-12.79,2.96-.14.95,11.4,6.91,21.37,2.67,9.07-3.86,12.83-14.46,13.89-13.89,1,.53-4.74,8.64-2.81,13.07,2.56,5.87,19.25,6.73,63.82-3.61" fill="none" stroke="#742027" stroke-miterlimit="10" stroke-width="5"/>
  <path d="M459.54,345.91c-.79,4.27-2.21,9.71-4.87,15.66-2.39,5.34-5.12,9.62-7.52,12.87" fill="none" stroke="#742027" stroke-miterlimit="10" stroke-width="5"/>
  <path d="M315.39,407.09c.32,3.03.66,10.1-3.04,17.84-4.29,8.97-11.37,13.31-13.96,14.74" fill="none" stroke="#742027" stroke-miterlimit="10" stroke-width="5"/>
  <path d="M380.04,407.07c-.18,3.23-.12,9.99,3.52,17.31,4.68,9.41,12.32,13.85,15.11,15.3" fill="none" stroke="#742027" stroke-miterlimit="10" stroke-width="5"/>
  <circle cx="321.13" cy="357.33" r=".83" fill="none" stroke="#742027" stroke-miterlimit="10" stroke-width="5"/>
</svg>