<?xml version="1.0" encoding="UTF-8"?>
<svg id="Layer_2" xmlns="http://www.w3.org/2000/svg" viewBox="0 0 160.73 160.73">
  <circle cx="80.36" cy="80.36" r="79.54" fill="#c2858c"/>
  <g>
    <path d="M100.83,28.69c.07-3.85,1.84-5.48,4.99-4.61,2.31.64,2.31,2.45,2.23,4.32-.01.27-.33.61.06.78.13.06.45-.18.62-.34,1.16-1.1,2.51-1.15,3.83-.49,1.25.63,1.8,1.76,1.58,3.18-.19,1.22-.02,1.68,1.49,1.5,2.53-.29,4.07,1.58,3.6,4.1-.19,1.04-.31,1.74,1.09.99.46-.25,1-.31,1.5.03.11.13.26.11.41.13.36.06.72.27.68.62-.05.45-.51.3-.82.3-.34,0-.67-.05-1.01,0-.31.04-.6.13-.64.51-.04.41.2.65.56.73.68.16,1.34.18,1.8-.51.19-.29.28-.74.8-.62.99,1.41,1.16,3.03.8,4.62-.69,3.02-.86,6.01-.63,9.11.28,3.88-.54,7.74-.84,11.61-.58,7.36-3.84,13.84-6.2,20.63-1.09,3.12-1.97,6.36-1.67,9.64.17,1.94,1.15,3.86,1.99,5.68,2.74,5.91,5.59,11.76,8.39,17.64,3.29,6.93,6.56,13.86,9.83,20.79.06.13.04.29.05.44h-39.4c-1.57-7.11-3.15-14.22-4.72-21.34-.54-2.46-.78-4.99-2.39-7.14-1.79-2.39-1.56-5.25-1.4-8.02.25-4.36.53-8.73.87-13.09.76-9.71,1.24-19.42,1.09-29.16-.07-4.62-1.2-9.09-2.03-13.61-.67-3.65.15-7.23.54-10.82.38-3.49.08-7.04,1.01-10.47.97-3.61,3.41-5.01,6.97-4.27,4,.84,4.61,3.91,4.21,6.99-.24,1.89-.65,3.83-1.64,5.55-.34.28-.4.72-.53,1.08-.43,1.27.84,2.87,2.21,2.83.78-.02.85-.65.84-1.21-.01-.82,0-1.64-.03-2.45-.07-1.89.26-3.79-.08-5.67Z" fill="none" stroke="#742027" stroke-miterlimit="10"/>
    <path d="M25.43,139.47c.61-2.44,1.99-4.54,2.91-6.84.32-.79.62-1.58.93-2.37.36-.48.86-.58,1.41-.46,2.72.57,5.41,1.24,8.13,1.8.44.09.82.37,1.21.59,3.88,2.1,7.79,4.14,11.78,6.02.6.28,1.38.41,1.55,1.26h-27.92Z" fill="none" stroke="#742027" stroke-miterlimit="10"/>
    <path d="M53.35,139.47c-4.09-2.1-8.19-4.2-12.27-6.31-.36-.19-.68-.43-1.03-.65.25-.79.85-.42,1.29-.35,4.01.71,8.02,1.47,12.05,2.06,3.7.55,7.41,1.1,11.15,1.29.54.03,1.04.14,1.42.57-.22,1.13-.45,2.25-.67,3.38h-11.93Z" fill="#742029"/>
    <path d="M37.15,60.42c-.74-4.79.63-9.65-.49-14.42-.56-2.38-.89-4.7.49-6.93.57-.35.58.16.72.47.34.72,1.22,1.07,1.91.75.25-.11.46-.27.43-.58-.03-.3-.25-.44-.52-.5-.48-.09-.96.08-1.44,0-.66-.11-.78-.4-.2-.84,1.04-.43,2.07-.69,3.08.08.53.4.52.07.48-.35-.43-4.4.3-5.18,4.62-4.88.38.03.41.03.36-.92-.09-1.96-.08-3.81,2.47-4.27,1.07-.19,1.99-.04,2.77.77.18.19.47.28.71.42.04-.25.13-.5.12-.74-.24-3.79,1.57-5.29,5.21-4.1,2.02.66,1.88,2.61,2.02,4.3-.17.06-.28-.02-.37-.15-.06-.1-.1-.2-.13-.31,0,.09.05.16.07.24.5,2.19.59,4.4.53,6.63-.01.54-.33.99-.38,1.51-.06.5-.01.99.42,1.33.43.33.86.08,1.26-.11,1.47-.71,1.98-1.79,1.44-3.04-.07-.15-.18-.23-.34-.24-1.14-2.82-2.19-5.68-1.72-8.78.45-2.98,2.78-4.58,6.26-4.51,2.31.05,4.83,2.48,5.11,5.21.6,5.79,1.18,11.58,1.55,17.39.22,3.41-.92,6.71-1.51,10.04-.11,1.07-.3,2.13-.34,3.2-.03.87-.36,1.42-1.31,1.47-.6.03-1.18.18-1.78.2-9.55.3-19.03,1.35-28.49,2.63-.48.07-.97.06-1.45.14-.93.16-1.42-.21-1.51-1.14Z" fill="none" stroke="#742027" stroke-miterlimit="10"/>
    <path d="M71.59,68.32c.07.17.21.33.21.5-.12,5.04.28,10.04.65,15.06.33,4.41.34,8.85.48,13.27-.68-.15-.55-.73-.55-1.17,0-1.13-.15-2.24-.23-3.36-.06-.79-.4-.94-1.1-.75-3.62.96-7.25,1.89-10.85,2.96-4.93,1.46-9.8,3.1-14.67,4.72-.82.27-1.29,1-2.08,1.22.6-2.2,1.41-4.37,1.73-6.62.38-2.65-.56-5.22-1.07-7.81,2.43.01,4.84.32,7.27.38,3.71.09,7.38.68,11.06,1.12,2.93.35,5.87.64,8.79,1.11.24.04.65.25.68-.02.04-.35-.42-.34-.7-.37-2.58-.22-5.13-.66-7.7-.9-2.2-.21-4.37-.67-6.58-.82-3.51-.24-7.01-.65-10.52-.79-.77-.03-1.58-.13-2.3.29-.37-1.05-.75-2.1-1.12-3.15,2.82-.62,5.68-.88,8.54-1.23,6.24-.76,12.49-1.28,18.77-1.63.19-.01.37-.02.56-.05.08-.01.18-.04.19-.1.03-.14-.1-.16-.2-.18-.45-.06-.9-.05-1.35-.01-5.48.51-10.97.75-16.44,1.42-2.82.34-5.61.95-8.46,1.08-.63.03-1.15.29-1.61.71-.6-1.65-1.2-3.3-1.8-4.95,1.02-.79,2.24-1.22,3.44-1.56,3.77-1.08,7.49-2.35,11.27-3.39,2.98-.82,5.99-1.56,8.94-2.51,1.61-.52,3.33-.84,5.02-1.14.77-.14,1.35-.41,1.59-1.19.05-.04.09-.08.14-.12Z" fill="#742029"/>
    <path d="M43.45,100.76c.84-1.85,2.78-1.72,4.27-2.26,7.75-2.8,15.68-5.01,23.64-7.11.87-.23,1.11.02,1.15.89.07,1.62.27,3.24.41,4.87-.05,3.5.67,6.97.26,10.48-.28,2.35-1.85,4.1-2.74,6.16-.21.9-.95.85-1.61.81-1.75-.11-3.51-.31-5.25-.54-4.52-.61-9.06-1.14-13.54-2.05-1.13-.23-2.16-.56-3.1-1.21-2-1.06-3.88-2.32-5.82-3.47-.25-.15-.5-.35-.36-.72,1.11-1.85,1.95-3.82,2.69-5.84Z" fill="none" stroke="#742027" stroke-miterlimit="10"/>
    <path d="M70.46,115.37c-.6,2.75-1.2,5.49-1.8,8.24-.9,4.08-1.8,8.17-2.7,12.25-.68-.76-1.64-.68-2.5-.77-1.23-.12-2.31-.57-3.35-1.2-2.24-1.36-4.64-2.45-6.89-3.79-3.18-1.9-6.46-3.67-9.49-5.8-2.31-1.63-4.95-2.8-6.97-4.85-.54-.55-1.49-.58-1.87-1.37,1.66-2.63,2.66-5.58,4.05-8.33,1.64.81,3.46.95,5.2,1.36,4.01.95,8.08,1.6,12.14,2.28,3.95.66,7.94,1.1,11.94,1.39.8.06,1.57.12,2.25.6Z" fill="#742029"/>
    <path d="M40.73,77.33c-1.5-3.12-2.36-6.42-2.92-9.82-.17-1-.3-2.01-.46-3.02,2.74.39,5.5.43,8.26.5,3.56.09,7.09.52,10.63.78,1.57.12,3.15.18,4.69.39,3.15.43,6.33.52,9.46,1.11.45.09.87.23,1.18.59,0,.15,0,.3,0,.45,0,0,0,0,0,0-.19.38-.53.48-.91.58-3.32.9-6.68,1.63-9.99,2.56-4.13,1.17-8.26,2.34-12.34,3.67-1.95.63-3.9,1.28-5.85,1.92-.57.19-1.14.36-1.76.28Z" fill="#742029"/>
    <path d="M37.15,60.42c.63,1.65,1.97.72,2.85.6,6.95-.97,13.91-1.71,20.91-2.17,3.24-.21,6.47-.46,9.71-.64.9-.05.85-.68.95-1.24.17-1.02.31-2.04.46-3.06-.15,4.35-.3,8.7-.45,13.06-.86.26-1.73.01-2.54-.16-3.76-.77-7.58-.9-11.38-1.23-4.69-.41-9.38-.88-14.1-.97-1.6-.03-3.21-.18-4.82-.2-.48,0-.98-.04-1.39-.36-.38-1.19-.18-2.41-.21-3.62Z" fill="#742029"/>
    <path d="M29.93,128.88c.98-2.17,1.94-4.36,2.94-6.52.56-1.22,1.19-2.41,1.79-3.61,2.04,1.58,4.25,2.93,6.34,4.43,1.62,1.16,3.43,2.11,5.13,3.21,2.87,1.85,5.86,3.48,8.77,5.26.77.47,1.66.71,2.39,1.26.33.25.75.49.55.98-.18.46-.65.52-1.06.43-2.89-.64-5.88-.68-8.75-1.43-1.52-.4-3.09-.48-4.63-.8-3.56-.73-7.11-1.47-10.67-2.23-.95-.2-2.03-.18-2.8-.97Z" fill="#742029"/>
    <path d="M29.93,128.88c5.81,1.16,11.58,2.53,17.43,3.5,3.08.51,6.24.75,9.27,1.61.35.1.86.23,1-.19.16-.47-.38-.51-.69-.69-4.85-2.67-9.56-5.58-14.27-8.5-2.45-1.51-4.55-3.52-7.15-4.77-.43-.21-.82-.54-.87-1.1.08-.22.15-.45.23-.67,2.21.83,3.76,2.66,5.77,3.83,2.9,1.69,5.65,3.65,8.53,5.37,3.64,2.16,7.4,4.13,11.02,6.33,1.54.94,3.16,1.21,4.86,1.34.68.05.97.25.89.93,0,.07,0,.15,0,.22-4.61-.53-9.24-.95-13.83-1.61-3.7-.53-7.37-1.33-11.05-2-.34-.06-.69-.4-1.02.03-3.12-1.27-6.48-1.56-9.7-2.43-.32-.09-.72.12-1.08.18.12-.5.12-1.07.66-1.37Z" fill="none" stroke="#742027" stroke-miterlimit="10" stroke-width=".5"/>
    <path d="M37.36,64.04c5.45-.03,10.87.36,16.29.87,4.41.41,8.82.73,13.23,1.18,1.58.16,3.14.58,4.7.88,0,.3,0,.6,0,.9-2.8-.42-5.63-.63-8.43-.97-8.22-.98-16.45-1.57-24.71-1.72-.56-.01-.77-.39-1.08-.68-.22-.15-.22-.3,0-.45Z" fill="none" stroke="#742027" stroke-miterlimit="10" stroke-width=".5"/>
    <path d="M40.73,77.33c2.65-.89,5.29-1.81,7.96-2.67,2.5-.8,5-1.61,7.53-2.29,4.93-1.33,9.89-2.57,14.84-3.85.18-.05.35-.13.52-.2.19,1.11-.37,1.38-1.39,1.62-4.03.93-8.05,1.95-12.03,3.07-4.11,1.16-8.17,2.47-12.25,3.72-1.58.49-3.15,1-4.72,1.5-.4-.18-.47-.52-.45-.9Z" fill="none" stroke="#742027" stroke-miterlimit="10" stroke-width=".5"/>
    <path d="M70.46,115.37c-3-.31-6-.65-9-.94-5.11-.49-10.11-1.6-15.16-2.46-2.3-.39-4.55-1.03-6.83-1.53-.43-.09-.55-.32-.53-.7.84-.8,1.79-.35,2.64-.12,1.48.41,3.02.51,4.5.89.24.06.52.13.74-.09,4.51,2.13,9.46,2.1,14.24,2.9,2.64.44,5.32.63,7.99.92.52.06,1.06.08,1.39-.46,0,.53,0,1.06.01,1.59Z" fill="none" stroke="#742027" stroke-miterlimit="10" stroke-width=".5"/>
    <path d="M46.82,110.43c.25.5.19.64-.43.51-2.12-.45-4.25-.84-6.38-1.23-.34-.06-.71.02-1.07.04.85-.91.74-2.38,1.83-3.15,2.02,1.28,4.04,2.55,6.05,3.83Z" fill="#742029"/>
    <path d="M100.83,28.69c.47-.39.49-.13.48.3-.01,2.66,0,5.33,0,7.99,0,.64-.18,1.38-.79,1.47-1.04.16-1.85-.65-2.64-1.2-.73-.52-.5-1.45-.25-2.18.12-.34.17-.94.78-.97,0,.07-.01.15-.02.22-.11.94-.72,2.41.54,2.54,1.42.15,1.38-1.52,1.44-2.56.09-1.88-.04-3.77.46-5.62Z" fill="#742029"/>
    <path d="M62.35,34.56c.29-.7.47-.55.7.05.67,1.83-.79,4.05-2.74,3.9-1.25-.1-1.35-1.37-1.04-2.2.94-2.49-.03-4.95.1-7.41.02-.36-.07-.72-.12-1.08.2.29.41.58.61.87.15,1.51.31,3.02.44,4.54.04.41-.03.83,0,1.24.08,1.04.03,2.49,1.35,2.42,1.34-.08.55-1.49.68-2.33Z" fill="#742029"/>
    <path d="M123.58,39.29c-.56.63-.69,1.76-1.96,1.56-.74-.12-1.58,0-1.62-1.08-.05-1.26.91-.9,1.59-.94.38-.03.76.01,1.13.02-.31-.24-.61-.48-.92-.72.84.01,1.51.27,1.78,1.16Z" fill="#742029"/>
    <path d="M38.04,38.38c-.49,1.18.61.5.74.5.78-.01,1.65-.31,1.88.8.15.74-.52,1.06-1.03,1.01-.77-.08-2.03.5-2.05-1.08,0-.3-.09-.51-.43-.53.17-.39.43-.67.89-.69Z" fill="#742029"/>
    <path d="M92.3,27.34c-.69-.86-.56-4.06.18-4.62.58-.44,4.65.1,5.09.67.55.71-.13,3.75-.99,4.39-.82-1.03-2.11-1.37-3.37-.85-.31.13-.58.32-.91.4Z" fill="#742029"/>
    <path d="M109.17,29.59c-.9,1.43-1.1,3.08-1.31,4.69-.22,1.62-.17,3.27-.3,4.9-.02.31-.03.89-.49.85-.27-.02-.76-.52-.73-.73.43-2.69-.83-5.45.33-8.1.28-.65.97-1.16.72-2-.02-.06.04-.14.06-.21.04.03.13.06.13.09.1,3.16,1-.4,1.41.16,0,.01.13-.06.19-.09.14.15.11.3-.01.45Z" fill="#742029"/>
    <path d="M111.69,38.79c-.43-1.83.64-3.48,1.42-5.2.1-.23.35-.38.54-.57.13.3.44.67.35.89-.67,1.67-.32,3.41-.23,5.08.06,1.17-.5,1.88-1.02,2.7-.07.12-.4.24-.43.2-.23-.27-.55-.56-.6-.88-.09-.66-.03-1.34-.03-2.22Z" fill="#742029"/>
    <path d="M119.07,40.16c-.15,2.05-.26,3.99-.45,5.91-.09.94-.65,1.51-1.67,1.28-.98-.22-.58-1-.44-1.53.54-2.07,1.15-4.12,1.75-6.17.1-.33.3-.71.7-.55.66.27-.19.81.11,1.06Z" fill="#742029"/>
    <path d="M104.19,24.79c1.29.16,2.35-.23,2.32,1.28-.05,2.14-1.77,1.14-2.68,1.36-1.07.26-.64-.88-.71-1.45-.17-1.27.64-1.29,1.08-1.2Z" fill="#742029"/>
    <path d="M116.07,33.64c.71.09,1.68-.25,1.67,1.04,0,.98-.47,1.52-1.44,1.42-.78-.08-1.76.13-1.75-1.27.01-1.18.61-1.29,1.52-1.19Z" fill="#742029"/>
    <path d="M92.3,27.34c.92-1.13,3.45-1.29,4.37-.25.1.11-.06.46-.09.69-1.49.48-2.91.25-4.28-.45Z" fill="#742029"/>
    <path d="M112.32,29.15c.16.81.44,1.82-.5,2.17-1,.36-2.18.36-2.63-1.04.4-.57.94-.25,1.44-.21.14.01.38.13.4.02.03-.14-.21-.11-.33-.13-.15-.02-.3.03-.45.02-.35-.04-.7-.14-.7-.57,0-.46.41-.37.68-.35.7.04,1.41-.14,2.1.11Z" fill="#742029"/>
    <path d="M112.32,29.15c-.22,0-.45-.03-.67,0-.63.11-1.8-.28-1.8.24.01.79.97-.08,1.47.21.17.1.47.2.48.32.02.18-.14.4-.28.56-.19.21-.46.3-.69.08-.49-.48-1.04-.49-1.65-.29,0-.23-.01-.45-.02-.68,0-.15,0-.3.01-.45,1.05-.34,2.09-.39,3.14,0Z" fill="#742029"/>
    <path d="M64.15,27.8c-1.32-1.06-1.36-2.62-1.27-4.04.07-1.06,1.32-.83,2.11-1,3.13-.67,4.47.65,3.86,3.8-.11.59-.38,1.07-1.1,1.03,0-.41-.11-.72-.59-.77-1.16-.13-2.24-.05-3.01.98Z" fill="#742029"/>
    <path d="M54.24,34.88c0,1.34,0,2.68,0,4.02,0,.45-.15.91-.63.91-.41,0-.69-.41-.71-.87-.02-.45-.01-.9,0-1.35,0-2.3.19-4.62-.88-6.78-.13-.25-.11-.8.06-.93.33-.25.27.29.43.39,1.42.9,1.99,2.19,1.74,4.62Z" fill="#742029"/>
    <path d="M49.06,38.69c-.02.16-.09.79-.22,1.4-.14.62.43,1.8-.54,1.74-.81-.05-1.51-1.23-1.38-2.1.28-1.81-.03-3.57-.14-5.35-.02-.3-.17-.68.19-.76.2-.04.53.24.7.46.93,1.21,1.44,2.58,1.39,4.6Z" fill="#742029"/>
    <path d="M43.12,47.36c-.99.18-1.25-.3-1.28-1.26-.07-2.01-.28-4.01-.41-6.01-.01-.23.13-.46.2-.69.18.11.45.18.52.34.5,1.21,1.14,2.41,1.36,3.68.15.82.53,1.5.71,2.26.21.87.5,1.92-1.1,1.69Z" fill="#742029"/>
    <path d="M55.93,24.87c.99-.09,1.81-.09,1.72,1.31-.07,1.13-.54,1.64-1.65,1.6-1.12-.03-1.95-.31-1.99-1.68-.05-1.61,1.12-1.1,1.92-1.23Z" fill="#742029"/>
    <path d="M49.74,31.46c-1.13.14-1.6-.56-1.55-1.65.07-1.48,1.26-.74,1.97-.87.73-.13,1.4-.06,1.39,1.03-.01,1.21-.68,1.54-1.81,1.5Z" fill="#742029"/>
    <path d="M44.22,33.67c1.2-.09,1.93.02,1.91,1.16-.02,1.28-1.03,1.19-1.84,1.28-1.19.13-1.47-.75-1.4-1.64.08-1,1-.75,1.33-.8Z" fill="#742029"/>
    <path d="M64.15,27.8c-.2-.44-.37-.74.37-.95.9-.25,1.77-.55,2.69-.38.36.06.68.36,1.02.55-.16.19-.32.37-.48.56-1.18.52-2.38.62-3.61.21Z" fill="#742029"/>
    <path d="M42.99,83.18c.04-.5-.19-.9.78-1,5.07-.52,10.11-1.34,15.18-1.85,4.03-.41,8.09-.52,12.14-.75.42-.02.9,0,.89.59,0,.57-.55.46-.86.48-4.27.34-8.55.65-12.82.95-4.66.32-9.28,1-13.9,1.69-.5.08-.95.14-1.41-.11,0,0,0,0,0,0Z" fill="none" stroke="#742027" stroke-miterlimit="10" stroke-width=".5"/>
    <path d="M44.11,86.33c-.04-.77.52-.7,1-.67,5.66.25,11.31.64,16.93,1.48,2.91.44,5.85.66,8.77.99.48.05.97.1,1.43.24.43.13.56.51.41.91-.17.46-.51.35-.93.28-3.27-.5-6.53-1.01-9.81-1.42-5.66-.72-11.34-1.24-17.05-1.38-.25,0-.5-.28-.75-.43,0,0,0,0,0,0Z" fill="none" stroke="#742027" stroke-miterlimit="10" stroke-width=".5"/>
  </g>
</svg>