<?xml version="1.0" encoding="UTF-8"?>
<svg id="Layer_2" xmlns="http://www.w3.org/2000/svg" viewBox="0 0 249.77 401.32">
  <g>
    <path d="M50.21,103.33c-.36,12.04.89,21.58,1.52,25.66,1.77,11.61,4.55,20.08,5.14,21.85,4.35,12.97,10.51,31.36,28.4,44.46,17.42,12.76,36.13,13.29,42.03,13.22,6.42-.08,19.45-.41,32.6-8.82,10.87-6.95,16.32-15.91,18.74-19.99,1.87-3.16,5.61-10.07,9.68-35.96.3-1.91,3.97-27.03.89-57.29-.49-4.78-1.27-10.88-5.77-13.77-7.45-4.77-19.5,2.82-21.32,4-.22-4.06-.83-9.98-2.66-16.88-2.56-9.65-6.67-18.05-7.55-17.76-.61.2.35,4.46,2.77,20.3,1.53,10.01,1.82,12.73,0,14.91-2.06,2.45-5.09,2.15-14.17,2.75-16.62,1.1-16.76,2.81-19.56,1.59-13.13-5.75-8.05-42.5-10.78-42.65-1.19-.07-2.81,6.94-3.9,15.13-2.39,17.93-.97,31.71-1.36,31.74-.7.06-4.3-44.29-6.73-44.21-.85.03-1.19,5.53-3.55,28.87-.7,6.9-1.3,12.65-1.73,16.7-4.23,1.7-8.54,3.39-12.93,5.06-6.16,2.35-12.24,4.56-18.21,6.66-2.05-5.46-4.19-13.06-4.44-22.2-.4-14.37,4.07-24.85,4-24.87-.11-.03-10.2,21.46-11.1,51.51Z" fill="none" stroke="#79142a" stroke-miterlimit="10" stroke-width="3"/>
    <path d="M64.71,172.14c-1.34.66-3.46,1.46-6.03,1.38-6.47-.19-10.65-5.87-13.45-9.33-6.14-7.58-6.45-15.78-6.51-18.22-.06-2.65-.12-7.76,2.82-12.58.74-1.21,2.01-2.98,4.16-4.71.06-.02.12-.04.18-.06,1.31-.41,3.24-.6,5.85.38" fill="none" stroke="#79142a" stroke-miterlimit="10" stroke-width="3"/>
    <path d="M55.95,166.45c-4.24.48-7.83,2.99-9.28,6.58-2.11,5.23,1.02,10.97,4.94,13.32,5.32,3.19,13.75,1.08,18.22-6.11" fill="none" stroke="#79142a" stroke-miterlimit="10" stroke-width="3"/>
    <path d="M190.4,106.75c.97-1.06,3.7-3.76,7.38-3.64,6.04.19,9.35,7.86,10.07,9.39,3.54,7.5,1.41,15.32.12,20.04-.95,3.5-3.66,13.41-11.24,16.82-2.43,1.09-4.65,1.28-6.09,1.12l-2.31-.26" fill="none" stroke="#79142a" stroke-miterlimit="10" stroke-width="3"/>
    <path d="M195.15,141.93c1.4-.54,4.55-1.5,7.43-.14,5.37,2.53,7.71,12.13,2.94,17.24-3.65,3.91-10.17,3.94-14.3,1.26-2.02-1.31-3.17-3.06-3.78-4.25" fill="none" stroke="#79142a" stroke-miterlimit="10" stroke-width="3"/>
    <g>
      <path d="M106.28,176.74c5.2,1.46,13.9,3.21,24.6,2.05,11.15-1.21,19.55-5.04,24.36-7.68" fill="none" stroke="#79142a" stroke-miterlimit="10" stroke-width="3"/>
      <path d="M116.9,186.82c1.3.88,7.93,5.16,16.68,3.47,7.32-1.42,11.57-6.14,12.78-7.58" fill="none" stroke="#79142a" stroke-miterlimit="10" stroke-width="3"/>
      <path d="M145.44,174.78c-.99-.82-8.91-7.15-19.23-4.84-7.22,1.62-11.35,6.51-12.58,8.08" fill="none" stroke="#79142a" stroke-miterlimit="10" stroke-width="3"/>
    </g>
    <path d="M118.26,130.06c-.19,2.91-.64,7.4-1.83,12.8-1.37,6.22-2.63,8.72-1.36,10.58.91,1.34,3.75,3.24,14.77.39" fill="none" stroke="#79142a" stroke-miterlimit="10" stroke-width="3"/>
    <ellipse cx="92.5" cy="128.66" rx="6.4" ry="8.43" transform="translate(-18.93 16) rotate(-8.97)" fill="#79142a" stroke="#79142a" stroke-miterlimit="10" stroke-width="3"/>
    <path d="M158.22,118c.73,4.6-1.52,8.77-5.01,9.32-3.49.55-6.91-2.73-7.64-7.32-.73-4.6,1.52-8.77,5.01-9.32,3.49-.55,6.91,2.73,7.64,7.32Z" fill="#79142a" stroke="#79142a" stroke-miterlimit="10" stroke-width="3"/>
    <path d="M76.2,125.18c2.21-1.73,7.15-5.12,14.33-6.1,5.31-.72,9.66.18,12.19.91" fill="none" stroke="#79142a" stroke-miterlimit="10" stroke-width="3"/>
    <path d="M138.68,115.12c1.23-1.3,5.04-4.97,11.28-6.1,6.72-1.21,11.89,1.32,13.41,2.13" fill="none" stroke="#79142a" stroke-miterlimit="10" stroke-width="3"/>
    <path d="M73.15,102.63c2.42-1.36,6.74-3.36,12.5-3.96,6.13-.64,11.04.62,13.72,1.52" fill="none" stroke="#79142a" stroke-miterlimit="10" stroke-width="3"/>
    <path d="M135.82,92.99c2.3-1.55,6.44-3.91,12.13-4.98,6.06-1.14,11.05-.29,13.8.38" fill="none" stroke="#79142a" stroke-miterlimit="10" stroke-width="3"/>
    <path d="M249.94,287.93c-6.01-12.21-17.06-29.91-35.22-40.79-10.5-6.29-25.43-11.52-28.27-12.51-7.11-2.49-11.75-6.59-17.61-5.1-5.1,1.3-6.33,4.93-11.12,9.27-12.97,11.75-31.68,10.27-32.44,10.2-13.2-1.23-23.86-9.38-27.35-12.05-5.69-4.35-6.15-6.31-10.2-7.42-5.59-1.52-10.44.67-25.95,8.34-11.18,5.53-16.77,8.29-17.61,8.81-17.92,10.83-29.75,27.9-36.15,38.93,5.46,6.92,46.92,57.65,118.52,59.21,73.87,1.61,118.13-50.46,123.41-56.89Z" fill="none" stroke="#79142a" stroke-miterlimit="10" stroke-width="3"/>
    <path d="M78.67,245l13.83-12.7-13.83,12.7Z" fill="none" stroke="#79142a" stroke-miterlimit="10" stroke-width="3"/>
    <path d="M92.5,254.27l10.21-13.87-10.21,13.87Z" fill="none" stroke="#79142a" stroke-miterlimit="10" stroke-width="3"/>
    <path d="M106.28,263.28l7.34-15.95-7.34,15.95Z" fill="none" stroke="#79142a" stroke-miterlimit="10" stroke-width="3"/>
    <path d="M124.51,267.4l.75-18.4-.75,18.4Z" fill="none" stroke="#79142a" stroke-miterlimit="10" stroke-width="3"/>
    <path d="M140.48,267.4l-2.06-18.4,2.06,18.4Z" fill="none" stroke="#79142a" stroke-miterlimit="10" stroke-width="3"/>
    <path d="M155.24,260.71l-6.27-15.71,6.27,15.71Z" fill="none" stroke="#79142a" stroke-miterlimit="10" stroke-width="3"/>
    <path d="M171.89,251.18l-14.19-12.38,14.19,12.38Z" fill="none" stroke="#79142a" stroke-miterlimit="10" stroke-width="3"/>
    <path d="M180.65,242.94l-14.16-10.64,14.16,10.64Z" fill="none" stroke="#79142a" stroke-miterlimit="10" stroke-width="3"/>
    <path d="M178.64,179.71c6.61,1.12,19.08,2.15,32.02-3.76,3.9-1.78,9.52-4.34,14.24-10.09,8.49-10.32,7.76-23.22,8.98-23.08.92.1,1.36,7.32.42,15.12-1.06,8.75-3.33,13.88-2.63,14.18.89.38,6.03-7.14,9.16-15.82,1.91-5.3,5.17-16.87,1.34-37.81-1.3-7.09-4.93-22.06-16.59-44.23-11.05-21.01-22.08-41.98-45.89-56.39-8.64-5.23-23.04-13.95-40.91-12.72-4.64.32-5.41,1.03-24.88,4.42-21.87,3.82-21.55,3.04-25.98,4.42-16.23,5.07-25.92,17.18-34.28,27.64-9.33,11.67-13.59,21.79-22.11,42.02-10.36,24.59-13.14,38.91-14.37,48.1-1.69,12.6-2.47,24.47,3.87,32.62.88,1.13,3.84,4.68,6.22,10.24,1.88,4.39,4.51,10.54,1.83,13.51-2.37,2.63-8.22,2.04-11.78-.42-3.94-2.72-4.28-7.38-5.47-7.15-1.14.21-2.03,4.7-.42,8.42,2.09,4.82,7.42,6.18,8,6.31,4.77,1.14,8.65-1.87,9.26-.84.43.73-1.14,2.68-2.97,3.98-4.58,3.24-9.99,1.76-10.07,2.33-.11.75,8.98,5.45,16.83,2.1,7.15-3.04,10.1-11.39,10.94-10.94.79.42-3.73,6.81-2.21,10.3,2.02,4.62,15.16,5.3,50.27-2.85" fill="none" stroke="#79142a" stroke-miterlimit="10" stroke-width="3"/>
    <path d="M214.67,155.67c-.62,3.36-1.74,7.65-3.84,12.34-1.88,4.2-4.03,7.58-5.93,10.14" fill="none" stroke="#79142a" stroke-miterlimit="10" stroke-width="3"/>
    <path d="M101.11,203.87c.25,2.38.52,7.96-2.39,14.05-3.38,7.07-8.96,10.49-11,11.61" fill="none" stroke="#79142a" stroke-miterlimit="10" stroke-width="3"/>
    <path d="M152.04,203.85c-.14,2.55-.09,7.87,2.77,13.64,3.68,7.41,9.7,10.91,11.9,12.05" fill="none" stroke="#79142a" stroke-miterlimit="10" stroke-width="3"/>
    <circle cx="105.63" cy="164.67" r=".65" fill="#79142a" stroke="#79142a" stroke-miterlimit="10" stroke-width="3"/>
  </g>
  <g>
    <path d="M52.9,358.22c1.22-3,2.65-5.53,4.29-7.6,1.64-2.07,3.42-3.66,5.36-4.76,1.93-1.1,3.99-1.71,6.17-1.83,2.18-.12,4.41.29,6.68,1.21,1.4.57,2.65,1.24,3.77,2.02,1.12.78,2.02,1.63,2.7,2.54s1.13,1.86,1.35,2.85c.22.99.13,1.97-.27,2.95-.44,1.09-1.42,1.7-2.93,1.85-1.51.14-3.29-.2-5.34-1.04-1.2-.49-2.4-.87-3.58-1.13-1.18-.27-2.31-.3-3.37-.12-1.06.19-2.04.65-2.93,1.38-.89.74-1.64,1.86-2.26,3.37-.26.64-.38,1.29-.37,1.96.01.67.16,1.32.43,1.94.27.62.69,1.2,1.26,1.72.57.53,1.26.95,2.08,1.29.71.29,1.46.49,2.25.59.79.1,1.53.13,2.22.07.69-.06,1.29-.2,1.8-.43.51-.23.83-.51.97-.86.31-.77-.35-1.49-1.99-2.16-.47-.19-.96-.36-1.49-.51-.53-.15-1.02-.32-1.49-.51-1.01-.41-1.67-.89-1.98-1.43-.31-.54-.3-1.2.01-1.97.31-.77.76-1.3,1.34-1.59.58-.29,1.21-.42,1.9-.39.69.03,1.38.16,2.09.39.71.23,1.36.46,1.96.71,2.08.85,3.85,1.69,5.31,2.53,1.46.84,2.56,1.83,3.32,2.95.75,1.13,1.12,2.45,1.12,3.96,0,1.51-.46,3.37-1.36,5.57-.92,2.26-2.18,4.22-3.79,5.91-1.61,1.68-3.43,2.99-5.47,3.92-2.04.93-4.21,1.44-6.53,1.52-2.31.08-4.65-.36-7-1.32-2.33-.95-4.18-2.26-5.56-3.96-1.38-1.69-2.32-3.65-2.82-5.88-.5-2.23-.56-4.68-.19-7.36.37-2.68,1.15-5.46,2.32-8.36Z" fill="#f7f797"/>
    <path d="M87.64,358.2c.21-1.21.57-2.23,1.08-3.04.51-.81,1.14-1.46,1.88-1.93.74-.47,1.57-.76,2.51-.88.93-.12,1.91-.09,2.93.08,1.05.18,1.98.49,2.81.93.82.44,1.5.99,2.02,1.63.52.64.89,1.35,1.1,2.13s.25,1.58.11,2.39c-.15.88-.5,1.75-1.05,2.61-.55.87-1.15,1.77-1.81,2.72-.66.95-1.28,1.97-1.87,3.06s-1,2.3-1.22,3.63c-.3,1.78-.15,3.29.45,4.52s1.54,1.96,2.82,2.18c.96.16,1.79.02,2.5-.43.71-.45,1.4-.96,2.08-1.54.68-.58,1.4-1.09,2.15-1.53.75-.44,1.63-.57,2.65-.4,1.54.26,2.63,1.17,3.25,2.71.62,1.54.72,3.56.3,6.04-.77,4.55-2.83,7.68-6.18,9.39-3.35,1.71-7.86,2.09-13.54,1.12-1.81-.31-3.33-.7-4.56-1.19-1.24-.49-2.21-1.09-2.93-1.8-.72-.72-1.19-1.58-1.43-2.58s-.25-2.17-.06-3.5l.07-.42c.18-1.07.46-2.17.83-3.3.37-1.13.75-2.28,1.15-3.45.39-1.17.78-2.34,1.16-3.53.38-1.18.67-2.34.86-3.47.19-1.13.26-2.2.21-3.21-.05-1.01-.12-2-.21-2.98-.09-.97-.16-1.95-.22-2.94s0-2,.18-3.04Z" fill="#f7f797"/>
    <path d="M117.39,389.75c-.07-1,.1-2,.52-2.99.42-.99.94-1.97,1.56-2.94.63-.96,1.3-1.89,2.02-2.77.72-.88,1.33-1.72,1.84-2.5.83-1.24,1.43-2.45,1.8-3.64s.62-2.35.75-3.48c.12-1.13.17-2.22.14-3.26-.03-1.05-.05-2.04-.06-2.99,0-.95.04-1.83.14-2.64.1-.81.37-1.55.8-2.21.48-.75,1.06-1.4,1.75-1.94.69-.54,1.44-.99,2.26-1.37s1.67-.67,2.56-.87c.89-.21,1.77-.34,2.66-.41,1.3-.09,2.51,0,3.64.25,1.13.26,2.14.87,3.04,1.81.45.46.86,1.12,1.23,1.98.37.86.75,1.78,1.13,2.76.38.98.78,1.96,1.19,2.93.41.98.85,1.81,1.31,2.49.69.98,1.42,1.86,2.19,2.62.77.76,1.53,1.5,2.29,2.2.76.71,1.5,1.42,2.22,2.12.72.71,1.36,1.48,1.92,2.32.56.84,1.04,1.77,1.42,2.81.39,1.04.63,2.24.73,3.61.09,1.23,0,2.38-.24,3.46-.25,1.08-.68,2.02-1.29,2.81-.61.79-1.41,1.44-2.39,1.94-.99.5-2.16.8-3.51.9-1.71.12-3.16-.08-4.35-.61-1.19-.53-2.19-1.23-2.99-2.09-.8-.86-1.47-1.8-2-2.83-.53-1.02-1.02-1.98-1.45-2.87-.43-.89-.86-1.63-1.27-2.21-.41-.59-.9-.86-1.46-.82-.12,0-.24.03-.37.07-.13.04-.24.1-.32.2-.75.63-1.25,1.43-1.47,2.39-.23.96-.36,1.99-.4,3.07-.04,1.08-.08,2.17-.12,3.28-.04,1.11-.28,2.12-.71,3.02s-1.15,1.68-2.14,2.31c-.99.63-2.44,1.02-4.36,1.16-3.03.22-5.44-.25-7.23-1.42-1.79-1.16-2.77-3.05-2.96-5.65ZM133.61,371.99c.03.43.17.79.41,1.09s.55.53.92.69c.37.16.76.28,1.18.35.42.07.82.09,1.2.06.35-.03.74-.1,1.16-.21.42-.12.81-.29,1.16-.51.35-.23.64-.49.85-.79.21-.3.31-.67.28-1.1-.03-.4-.15-.81-.38-1.22-.22-.41-.52-.79-.88-1.14-.37-.35-.79-.62-1.26-.81-.47-.2-.96-.28-1.46-.24-.53.04-.99.19-1.39.44-.4.26-.74.58-1.02.96-.28.38-.49.78-.62,1.21-.13.43-.18.84-.15,1.24Z" fill="#f7f797"/>
    <path d="M162.32,350.09c2.97-.98,5.84-1.26,8.61-.83,2.77.43,5.32,1.36,7.64,2.79,2.32,1.43,4.35,3.28,6.07,5.53,1.72,2.25,3.03,4.71,3.91,7.38.82,2.48,1.2,4.96,1.15,7.45-.05,2.49-.53,4.83-1.44,7.02-.91,2.19-2.25,4.13-4,5.83-1.76,1.7-3.94,2.98-6.55,3.84-1.18.39-2.41.66-3.7.81-1.29.15-2.51.11-3.66-.13-1.15-.24-2.19-.72-3.11-1.44-.92-.72-1.61-1.76-2.06-3.12-.29-.87-.5-1.81-.65-2.82-.15-1.01-.28-2.04-.4-3.11-.12-1.06-.25-2.1-.4-3.12-.15-1.02-.37-1.97-.66-2.84-.37-1.12-.83-2.18-1.38-3.19-.55-1.01-1.13-2.01-1.74-3-.61-.99-1.19-2-1.74-3.02-.56-1.02-1.02-2.09-1.39-3.21-.88-2.67-.89-4.9-.02-6.71.86-1.81,2.7-3.18,5.5-4.1ZM170.03,359.31c-.62.2-1.04.54-1.28,1.01-.23.47-.36.99-.37,1.57-.01.58.06,1.17.21,1.76.15.6.3,1.12.44,1.55.13.38.3.88.52,1.5.22.62.51,1.21.87,1.77.36.56.77,1.01,1.23,1.33.47.33.99.4,1.58.2.62-.2,1.15-.55,1.61-1.05.46-.5.81-1.07,1.06-1.73.25-.66.38-1.36.4-2.1.02-.75-.09-1.49-.34-2.22-.18-.54-.48-1.07-.9-1.58-.42-.51-.9-.95-1.44-1.31-.54-.36-1.12-.62-1.75-.78-.63-.16-1.25-.13-1.87.07Z" fill="#f7f797"/>
  </g>
</svg>