<?xml version="1.0" encoding="UTF-8"?>
<svg id="Layer_2" xmlns="http://www.w3.org/2000/svg" viewBox="0 0 249.77 401.32">
  <g>
    <path d="M50.21,103.33c-.36,12.04.89,21.58,1.52,25.66,1.77,11.61,4.55,20.08,5.14,21.85,4.35,12.97,10.51,31.36,28.4,44.46,17.42,12.76,36.13,13.29,42.03,13.22,6.42-.08,19.45-.41,32.6-8.82,10.87-6.95,16.32-15.91,18.74-19.99,1.87-3.16,5.61-10.07,9.68-35.96.3-1.91,3.97-27.03.89-57.29-.49-4.78-1.27-10.88-5.77-13.77-7.45-4.77-19.5,2.82-21.32,4-.22-4.06-.83-9.98-2.66-16.88-2.56-9.65-6.67-18.05-7.55-17.76-.61.2.35,4.46,2.77,20.3,1.53,10.01,1.82,12.73,0,14.91-2.06,2.45-5.09,2.15-14.17,2.75-16.62,1.1-16.76,2.81-19.56,1.59-13.13-5.75-8.05-42.5-10.78-42.65-1.19-.07-2.81,6.94-3.9,15.13-2.39,17.93-.97,31.71-1.36,31.74-.7.06-4.3-44.29-6.73-44.21-.85.03-1.19,5.53-3.55,28.87-.7,6.9-1.3,12.65-1.73,16.7-4.23,1.7-8.54,3.39-12.93,5.06-6.16,2.35-12.24,4.56-18.21,6.66-2.05-5.46-4.19-13.06-4.44-22.2-.4-14.37,4.07-24.85,4-24.87-.11-.03-10.2,21.46-11.1,51.51Z" fill="none" stroke="#79142a" stroke-miterlimit="10" stroke-width="3"/>
    <path d="M64.71,172.14c-1.34.66-3.46,1.46-6.03,1.38-6.47-.19-10.65-5.87-13.45-9.33-6.14-7.58-6.45-15.78-6.51-18.22-.06-2.65-.12-7.76,2.82-12.58.74-1.21,2.01-2.98,4.16-4.71.06-.02.12-.04.18-.06,1.31-.41,3.24-.6,5.85.38" fill="none" stroke="#79142a" stroke-miterlimit="10" stroke-width="3"/>
    <path d="M55.95,166.45c-4.24.48-7.83,2.99-9.28,6.58-2.11,5.23,1.02,10.97,4.94,13.32,5.32,3.19,13.75,1.08,18.22-6.11" fill="none" stroke="#79142a" stroke-miterlimit="10" stroke-width="3"/>
    <path d="M190.4,106.75c.97-1.06,3.7-3.76,7.38-3.64,6.04.19,9.35,7.86,10.07,9.39,3.54,7.5,1.41,15.32.12,20.04-.95,3.5-3.66,13.41-11.24,16.82-2.43,1.09-4.65,1.28-6.09,1.12l-2.31-.26" fill="none" stroke="#79142a" stroke-miterlimit="10" stroke-width="3"/>
    <path d="M195.15,141.93c1.4-.54,4.55-1.5,7.43-.14,5.37,2.53,7.71,12.13,2.94,17.24-3.65,3.91-10.17,3.94-14.3,1.26-2.02-1.31-3.17-3.06-3.78-4.25" fill="none" stroke="#79142a" stroke-miterlimit="10" stroke-width="3"/>
    <g>
      <path d="M106.28,176.74c5.2,1.46,13.9,3.21,24.6,2.05,11.15-1.21,19.55-5.04,24.36-7.68" fill="none" stroke="#79142a" stroke-miterlimit="10" stroke-width="3"/>
      <path d="M116.9,186.82c1.3.88,7.93,5.16,16.68,3.47,7.32-1.42,11.57-6.14,12.78-7.58" fill="none" stroke="#79142a" stroke-miterlimit="10" stroke-width="3"/>
      <path d="M145.44,174.78c-.99-.82-8.91-7.15-19.23-4.84-7.22,1.62-11.35,6.51-12.58,8.08" fill="none" stroke="#79142a" stroke-miterlimit="10" stroke-width="3"/>
    </g>
    <path d="M118.26,130.06c-.19,2.91-.64,7.4-1.83,12.8-1.37,6.22-2.63,8.72-1.36,10.58.91,1.34,3.75,3.24,14.77.39" fill="none" stroke="#79142a" stroke-miterlimit="10" stroke-width="3"/>
    <ellipse cx="92.5" cy="128.66" rx="6.4" ry="8.43" transform="translate(-18.93 16) rotate(-8.97)" fill="#79142a" stroke="#79142a" stroke-miterlimit="10" stroke-width="3"/>
    <path d="M158.22,118c.73,4.6-1.52,8.77-5.01,9.32-3.49.55-6.91-2.73-7.64-7.32-.73-4.6,1.52-8.77,5.01-9.32,3.49-.55,6.91,2.73,7.64,7.32Z" fill="#79142a" stroke="#79142a" stroke-miterlimit="10" stroke-width="3"/>
    <path d="M76.2,125.18c2.21-1.73,7.15-5.12,14.33-6.1,5.31-.72,9.66.18,12.19.91" fill="none" stroke="#79142a" stroke-miterlimit="10" stroke-width="3"/>
    <path d="M138.68,115.12c1.23-1.3,5.04-4.97,11.28-6.1,6.72-1.21,11.89,1.32,13.41,2.13" fill="none" stroke="#79142a" stroke-miterlimit="10" stroke-width="3"/>
    <path d="M73.15,102.63c2.42-1.36,6.74-3.36,12.5-3.96,6.13-.64,11.04.62,13.72,1.52" fill="none" stroke="#79142a" stroke-miterlimit="10" stroke-width="3"/>
    <path d="M135.82,92.99c2.3-1.55,6.44-3.91,12.13-4.98,6.06-1.14,11.05-.29,13.8.38" fill="none" stroke="#79142a" stroke-miterlimit="10" stroke-width="3"/>
    <path d="M249.94,287.93c-6.01-12.21-17.06-29.91-35.22-40.79-10.5-6.29-25.43-11.52-28.27-12.51-7.11-2.49-11.75-6.59-17.61-5.1-5.1,1.3-6.33,4.93-11.12,9.27-12.97,11.75-31.68,10.27-32.44,10.2-13.2-1.23-23.86-9.38-27.35-12.05-5.69-4.35-6.15-6.31-10.2-7.42-5.59-1.52-10.44.67-25.95,8.34-11.18,5.53-16.77,8.29-17.61,8.81-17.92,10.83-29.75,27.9-36.15,38.93,5.46,6.92,46.92,57.65,118.52,59.21,73.87,1.61,118.13-50.46,123.41-56.89Z" fill="none" stroke="#79142a" stroke-miterlimit="10" stroke-width="3"/>
    <path d="M78.67,245l13.83-12.7-13.83,12.7Z" fill="none" stroke="#79142a" stroke-miterlimit="10" stroke-width="3"/>
    <path d="M92.5,254.27l10.21-13.87-10.21,13.87Z" fill="none" stroke="#79142a" stroke-miterlimit="10" stroke-width="3"/>
    <path d="M106.28,263.28l7.34-15.95-7.34,15.95Z" fill="none" stroke="#79142a" stroke-miterlimit="10" stroke-width="3"/>
    <path d="M124.51,267.4l.75-18.4-.75,18.4Z" fill="none" stroke="#79142a" stroke-miterlimit="10" stroke-width="3"/>
    <path d="M140.48,267.4l-2.06-18.4,2.06,18.4Z" fill="none" stroke="#79142a" stroke-miterlimit="10" stroke-width="3"/>
    <path d="M155.24,260.71l-6.27-15.71,6.27,15.71Z" fill="none" stroke="#79142a" stroke-miterlimit="10" stroke-width="3"/>
    <path d="M171.89,251.18l-14.19-12.38,14.19,12.38Z" fill="none" stroke="#79142a" stroke-miterlimit="10" stroke-width="3"/>
    <path d="M180.65,242.94l-14.16-10.64,14.16,10.64Z" fill="none" stroke="#79142a" stroke-miterlimit="10" stroke-width="3"/>
    <path d="M178.64,179.71c6.61,1.12,19.08,2.15,32.02-3.76,3.9-1.78,9.52-4.34,14.24-10.09,8.49-10.32,7.76-23.22,8.98-23.08.92.1,1.36,7.32.42,15.12-1.06,8.75-3.33,13.88-2.63,14.18.89.38,6.03-7.14,9.16-15.82,1.91-5.3,5.17-16.87,1.34-37.81-1.3-7.09-4.93-22.06-16.59-44.23-11.05-21.01-22.08-41.98-45.89-56.39-8.64-5.23-23.04-13.95-40.91-12.72-4.64.32-5.41,1.03-24.88,4.42-21.87,3.82-21.55,3.04-25.98,4.42-16.23,5.07-25.92,17.18-34.28,27.64-9.33,11.67-13.59,21.79-22.11,42.02-10.36,24.59-13.14,38.91-14.37,48.1-1.69,12.6-2.47,24.47,3.87,32.62.88,1.13,3.84,4.68,6.22,10.24,1.88,4.39,4.51,10.54,1.83,13.51-2.37,2.63-8.22,2.04-11.78-.42-3.94-2.72-4.28-7.38-5.47-7.15-1.14.21-2.03,4.7-.42,8.42,2.09,4.82,7.42,6.18,8,6.31,4.77,1.14,8.65-1.87,9.26-.84.43.73-1.14,2.68-2.97,3.98-4.58,3.24-9.99,1.76-10.07,2.33-.11.75,8.98,5.45,16.83,2.1,7.15-3.04,10.1-11.39,10.94-10.94.79.42-3.73,6.81-2.21,10.3,2.02,4.62,15.16,5.3,50.27-2.85" fill="none" stroke="#79142a" stroke-miterlimit="10" stroke-width="3"/>
    <path d="M214.67,155.67c-.62,3.36-1.74,7.65-3.84,12.34-1.88,4.2-4.03,7.58-5.93,10.14" fill="none" stroke="#79142a" stroke-miterlimit="10" stroke-width="3"/>
    <path d="M101.11,203.87c.25,2.38.52,7.96-2.39,14.05-3.38,7.07-8.96,10.49-11,11.61" fill="none" stroke="#79142a" stroke-miterlimit="10" stroke-width="3"/>
    <path d="M152.04,203.85c-.14,2.55-.09,7.87,2.77,13.64,3.68,7.41,9.7,10.91,11.9,12.05" fill="none" stroke="#79142a" stroke-miterlimit="10" stroke-width="3"/>
    <circle cx="105.63" cy="164.67" r=".65" fill="#79142a" stroke="#79142a" stroke-miterlimit="10" stroke-width="3"/>
  </g>
  <text transform="translate(46.69 370.77) rotate(22.14) scale(1.03 1)" fill="#f7f797" font-family="SuperFunky, &apos;Super Funky&apos;" font-size="42.98"><tspan x="0" y="0">G</tspan></text>
  <text transform="translate(82.78 384.71) rotate(9.64) scale(1.03 1)" fill="#f7f797" font-family="SuperFunky, &apos;Super Funky&apos;" font-size="42.98"><tspan x="0" y="0">L</tspan></text>
  <text transform="translate(117.41 390.65) rotate(-4.13) scale(1.03 1)" fill="#f7f797" font-family="SuperFunky, &apos;Super Funky&apos;" font-size="42.98"><tspan x="0" y="0">A</tspan></text>
  <text transform="translate(163.51 386.05) rotate(-18.28) scale(1.03 1)" fill="#f7f797" font-family="SuperFunky, &apos;Super Funky&apos;" font-size="42.98"><tspan x="0" y="0">D</tspan></text>
</svg>