<?xml version="1.0" encoding="UTF-8"?>
<svg id="Layer_2" xmlns="http://www.w3.org/2000/svg" viewBox="0 0 160.73 160.73">
  <circle cx="80.36" cy="80.36" r="80.11" fill="#ba888d"/>
  <g id="Layer_1-2">
    <g>
      <g>
        <path d="M115.4,36.64c.18.68.39,1.28.29,1.99-2.22.21-4.58.1-6.75.6l.24,2.8-3.69-.58c-.08-.5.63-.29.99-.29h1.57c.13-.97-.47-1.7-.84-2.54l8.19-1.99h.03-.03Z" fill="#742029"/>
        <path d="M111.16,27.61c-.6,1.1-3.85,1.78-4.39,2.51-.37.5.71,2.54-.1,3.24l-5.1,1.23c.47-1.12,3.37-1.23,3.82-1.94.63-.97-.81-2.59.24-3.4,1.07-.21,3.22-2.09,4-2.2.47-.08.99.6,1.52.52l.03.03Z" fill="#742029"/>
        <path d="M42.91,35.8c.18.21,1.73-.99,2.04-1.18.37-.18.29-.37.6.03l.99,3.11-1.57-1.99c-.58-.18-1.33,1.6-2.12,1.41,0-.29-.1-.5-.29-.71-1.41-1.7-2.88-3.37-4.24-5.05-.71-.89.5-.92.99-1.52.39,0,3.22,5.05,3.53,5.91h.03l.03-.03Z" fill="#742029"/>
        <path d="M42.34,44.54c-.52.1-.68-.29-.99-.58-.42-.39-2.28-2.12-2.59-2.22-1.02-.29-1.62.99-2.62,1.23-.68.18-3.58-2.54-4.39-2.98l-.13-1.41c.18-.21,1.12.58,1.39.73.52.37,2.28,2.01,2.49,2.04.89.24,2.43-1.49,3.01-1.39.37.08,3.22,3.92,3.85,4.5h0v.08Z" fill="#742029"/>
        <path d="M40.64,49.04l-2.28.58c-.21.78.6,1.02.58,1.7-1.12.21-4.58,2.2-5.44,1.94-.18-.03-.68-.52-.73-.68-.21-.47.29-.47.58-.58.78-.24,3.43-.78,3.82-1.28.42-.58-.92-1.31-.71-1.99,1.44-.21,2.8.31,4.24.29h-.03l-.03.03Z" fill="#742029"/>
        <path d="M98.19,22.8c0,1.18-.21,2.33-.29,3.51-.03.47-.58,1.02.18,1.23.5.13,2.04-.31,1.81.47-.29.97-1.91,2.77-2.41,3.82l.71-2.64c-.47-.78-.99-.08-1.7-.13-.21-1.12.18-2.2.29-3.22.13-1.39-.6-2.77,1.41-2.98h0v-.05Z" fill="#742029"/>
      </g>
      <path d="M59.55,137.9c-.08-3.92,2.04-7.43,2.77-11.22.21-1.12.5-2.77.37-3.85-.18-1.18-1.52-1.94-2.28-2.83-.58-.71-1.28-1.67-1.81-2.41-.47-.63-2.59-3.92-2.64-4.42-.18-.99.89-1.41,1.07-1.94.31-1.07-.31-2.98-.68-4.03-1.1-3.32-2.43-4.71-2.12-8.61.58-7.32,5.05-16.61,9.5-22.39.42-.58,1.62-2.2,2.22-2.3.58-.1.37.18.5.37,1.12,1.57,2.41,3.01,3.9,4.32.47.42,2.77,1.88,2.8,2.22-1.88,2.51-2.72,2.38-1.73,5.73,3.48,11.41,17.63,11.35,23.15,1.83,1.2-2.04,2.41-5.49,2.01-7.85-.18-.99-2.17-1.73-2.69-2.69-.21-.24-.47-.08-.71,0-.1-1.6.99-2.88,1.57-4.24.21-.52.42-1.91.71-2.12,1.2-.89,3.3.03,4.53.58.6.24,2.54,1.07,2.54,1.67,0,.78-1.6,4.53-1.41,4.68,2.41.47,3.19.42,5.31,1.62.73,2.49,3.09,5.91,3.61,8.45.42,1.88,1.28,7.09.71,8.5-.18.47-.21,2.54-.5,3.14-1.73,3.61-.97,6.02-1.67,9.6-.6,2.98-3.48,5.73-3.82,8.61-.21,1.81.24,5.13.58,7.01.34,1.88,1.94,6.64,1.94,7.93v4.24s-.39.42-.42.42h-47.24l-.05-.03Z" fill="#742029"/>
      <path d="M51.65,70.04c-.52-4.34-3.19-6.15-4.19-9.94-1.52-6.02-.39-12.43,2.69-17.76,6.91-11.82,27.99-18.84,39.97-11.33,5.52,3.48,11.3,13.76,13.86,19.72,1.23,2.88,1.44,8.5,1.41,11.61-.52.13-2.04-2.43-2.3-2.72-.29-.31-1.28-1.91-1.33-2.04-.6-1.23.29-.84-1.52-1.7-.24-.1-1.12-.39-1.2-.31-.1.1.08-.42,0,0-.24.24-3.69-.5-4.11-.81-.5-.39-1.07-3.69-1.33-4.6s-.24-1.07-1.23-.58c-2.8,1.33-5.65,3.51-8.63,4.92-.71.37-9.81,5.83-9.81,5.83-.03,0,3.53-7.09,4.34-4.5.37,1.2-6.44-1.67-9.31-.31-1.39.63-2.38,2.01-4.03,1.73-.08-.58-.08-.78.47-1.1.81-.5,2.3-1.23,3.22-1.6,1.81-.73,5.28-.84,5.05-3.24h-4.11c-1.91,0-8,4.08-9.26,5.65-2.49,3.09-3.03,8.66-4.53,12.4-.84,2.09-2.22,4.08-3.19,6.12l-.89,1.2c-.18-2.12.24-4.58,0-6.62h-.03l-.03-.03Z" fill="#742029"/>
      <path d="M92.83,78.08l-.99,2.22c-1.73,2.04-3.79,4.58-6.51,5.31-2.38.63-5.02,0-7.12-1.23-.89-.52-1.78-1.28-2.54-1.94l3.03,1.2c4.71,1.73,9.99-.18,13.05-4.03.42-.52.5-1.28,1.12-1.57h-.08l.03.03Z" fill="#742029"/>
      <path d="M98.87,60.6l.18,1.41c.42,2.17.58,3.85-1.57,5.1-1.81,1.07-.58-1.1-.47-2.12.29-2.43-1.18-4.08-1.67-6.41.52-.1.84-.21,1.28-.21,1.88.08,2.22,2.28,2.22,2.28h0l.03-.05Z" fill="#742029"/>
      <path d="M91.73,58.61c0,.6.13.52-.42.58-1.02.03-2.09-.1-3.09,0-1.52.18-2.9,1.2-4.39,1.57-.58.13-.73.24-1.12-.29.29-.42.71-.42,1.12-.58,2.51-.92,5.23-2.12,7.9-1.28Z" fill="#742029"/>
      <path d="M74.78,62.01h1.57c.24,0,.99-.13.71.42-.42.84-1.81.78-2.62,1.07-.13.03-.99.52-1.02.52-.58.08-.21,1.07-.58,1.39.08-2.09.92-2.93.92-2.93l1.07-.47h-.05Z" fill="#742029"/>
      <path d="M92.25,62.88l-1.28,1.7c-1.41,1.94-3.32,2.01-5.52,1.41,0-.6-.13-.52.42-.58,1.94-.1,3.48.42,4.79-1.41.58-.78.1-1.39,1.57-1.12h.03Z" fill="#742029"/>
      <path d="M86.63,76.38c-.71.13-1.2-.47-1.83-.58s-2.2-.1-2.8,0c-.92.13-2.01,1.02-2.98,1.12,1.62-2.09,5.89-2.83,7.61-.58v.03Z" fill="#742029"/>
      <path d="M70.28,69.34c-.1-.47.18-.58.42-.84.99-1.1.84-.13,1.7,0,1.57.24,2.38-.21,3.53-1.12,0,.97-1.02,1.73-1.88,1.91-1.33.29-2.41-.58-3.74.08h-.03v-.03Z" fill="#742029"/>
      <path d="M95.63,72.66c2.41,0,4.53,0,6.44,1.12l1.1.99s2.8,4.24,2.9,6.1c-.52-.21-.58-.92-.42-.37.81.37,1.23,1.88,1.6,2.64,1.02,2.17,2.93,7.4,3.4,9.99.37,1.83-.5,3.92-.21,5.7-.18.42-.21.73-.24,1.2-.08,2.22,1.81,7.69,2.41,10.02.81,3.11,1.88,5.81,3.51,8.53v.29c.63.1,1.88.99,2.69,1.1,4.32.68,8.06-.63,9.42-5.05,5.44-17.84-15.36-37.33-22.65-52.24-1.02-2.09-.39-2.51-.5-4.89-.03-1.07-.39-2.2-.58-3.22l-.52.42-.84,4.08c.31.21.81.24,0,0l-1.33-1.57c-.5-.73-1.83-1.81-3.22-2.09l-3.01-.73s-4.89-.63-5.34-.29c-2.38,1.91,2.72,4.13,4.45,4,.71.31,1.02.42,1.7.37l-.1.6c1.02.99,1.44,2.3,1.28,3.9" fill="#742029"/>
      <path d="M52.67,74.47c-.84,2.8-6.7,14.57-8.32,17.58-2.64,4.84-9.73,17.34-10.33,22.26-1.02,8.84,2.83,15.64,12.14,10.44,1.57-.37,2.72-.84,3.85-2.01l9.65-9.65.18-.6c.39-.47.29-.73-.29-.58l-.68-.08-6.85,7.01c2.01-5.89,2.22-12.11,2.3-18.08.18-4.03,2.01-8.5,3.69-12.14l.39-.1" fill="#742029"/>
      <path d="M65.18,75.22c1.94-1.44,4.89-5.81,6.25-7.82.63-.89,1.07-1.88,1.28-2.93.5-2.72,4.53-10.02,8.24-11.22" fill="#742029"/>
      <path d="M96.78,66.93l-3.4.97c-1.41.84-1.02,3.01.29,3.11l3.74.63" fill="#742029"/>
    </g>
  </g>
</svg>