<?xml version="1.0" encoding="UTF-8"?>
<svg id="Layer_2" xmlns="http://www.w3.org/2000/svg" viewBox="0 0 1174.46 1177.79">
  <path d="M1168.45,590.54c.33,92.73-22.05,161.94-29.87,184.43-28.22,81.16-68.65,134.43-89.89,161.94-53.5,69.29-109.6,111.42-139.29,131.66-45.45,30.98-85.21,49-105.89,57.63-36.93,15.42-113.68,46.58-216.28,45.55-27.53-.27-135.64-3.65-251.52-69.99-90.93-52.05-140.87-116.67-183.27-172.72C87.04,842.63,7.04,736.91,6.01,590.54c-.79-112.31,45.18-208.83,71.56-264.21,13.01-27.31,30.24-63.03,60.71-104.95C161.35,189.64,278.45,28.57,464.27,6.5c11.11-1.32,48.39.06,122.96,2.82,182.1,6.73,211.21,19.12,225.95,26.26,21.44,10.38,55.1,32.94,122.42,78.05,26.28,17.61,39.42,26.41,47.16,32.42,29.51,22.91,64.65,59.87,106.64,151.21,38.96,84.74,78.62,171.01,79.06,293.28Z" fill="none" stroke="#7f1626" stroke-miterlimit="10" stroke-width="12"/>
  <text transform="translate(240.29 292.07) rotate(-47.58) scale(1.03 1)" fill="#f2ed98" font-family="SuperFunky, &apos;Super Funky&apos;" font-size="66.42"><tspan x="0" y="0">H</tspan></text>
  <text transform="translate(274.58 254.32) rotate(-40.9) scale(1.03 1)" fill="#f2ed98" font-family="SuperFunky, &apos;Super Funky&apos;" font-size="66.42"><tspan x="0" y="0">V</tspan></text>
  <text transform="translate(315.72 219.4) rotate(-35.68) scale(1.03 1)" fill="#f2ed98" font-family="SuperFunky, &apos;Super Funky&apos;" font-size="66.42"><tspan x="0" y="0">i</tspan></text>
  <text transform="translate(338.12 202.82) rotate(-30.96) scale(1.03 1)" fill="#f2ed98" font-family="SuperFunky, &apos;Super Funky&apos;" font-size="66.42"><tspan x="0" y="0">l</tspan></text>
  <text transform="translate(376.98 179.32) rotate(-24.89) scale(1.03 1)" fill="#f2ed98" font-family="SuperFunky, &apos;Super Funky&apos;" font-size="66.42"><tspan x="0" y="0">k</tspan></text>
  <text transform="translate(421.44 158.71) rotate(-18.76) scale(1.03 1)" fill="#f2ed98" font-family="SuperFunky, &apos;Super Funky&apos;" font-size="66.42"><tspan x="0" y="0">e</tspan></text>
  <text transform="translate(464.74 143.8) rotate(-12.55) scale(1.03 1)" fill="#f2ed98" font-family="SuperFunky, &apos;Super Funky&apos;" font-size="66.42"><tspan x="0" y="0">n</tspan></text>
  <text transform="translate(514.25 133.28) rotate(-7.58) scale(1.03 1)" fill="#f2ed98" font-family="SuperFunky, &apos;Super Funky&apos;" font-size="66.42"><tspan x="0" y="0"> </tspan></text>
  <text transform="translate(540.38 129.33) rotate(-2.87) scale(1.03 1)" fill="#f2ed98" font-family="SuperFunky, &apos;Super Funky&apos;" font-size="66.42"><tspan x="0" y="0">C</tspan></text>
  <text transform="translate(587.74 127.32) rotate(1.88) scale(1.03 1)" fill="#f2ed98" font-family="SuperFunky, &apos;Super Funky&apos;" font-size="66.42"><tspan x="0" y="0">i</tspan></text>
  <text transform="translate(615.63 127.83) rotate(6.57) scale(1.03 1)" fill="#f2ed98" font-family="SuperFunky, &apos;Super Funky&apos;" font-size="66.42"><tspan x="0" y="0">l</tspan></text>
  <text transform="translate(660.79 132.97) rotate(12.42) scale(1.03 1)" fill="#f2ed98" font-family="SuperFunky, &apos;Super Funky&apos;" font-size="66.42"><tspan x="0" y="0">l</tspan></text>
  <text transform="translate(705.18 142.67) rotate(18.32) scale(1.03 1)" fill="#f2ed98" font-family="SuperFunky, &apos;Super Funky&apos;" font-size="66.42"><tspan x="0" y="0">e</tspan></text>
  <text transform="translate(748.8 157.49) rotate(23.01) scale(1.03 1)" fill="#f2ed98" font-family="SuperFunky, &apos;Super Funky&apos;" font-size="66.42"><tspan x="0" y="0"> </tspan></text>
  <text transform="translate(773.31 167.42) rotate(27.68) scale(1.03 1)" fill="#f2ed98" font-family="SuperFunky, &apos;Super Funky&apos;" font-size="66.42"><tspan x="0" y="0">e</tspan></text>
  <text transform="translate(813.95 188.55) rotate(33.82) scale(1.03 1)" fill="#f2ed98" font-family="SuperFunky, &apos;Super Funky&apos;" font-size="66.42"><tspan x="0" y="0">r</tspan></text>
  <text transform="translate(855.27 216.79) rotate(38.72) scale(1.03 1)" fill="#f2ed98" font-family="SuperFunky, &apos;Super Funky&apos;" font-size="66.42"><tspan x="0" y="0"> </tspan></text>
  <text transform="translate(876.19 232.97) rotate(43.4) scale(1.03 1)" fill="#f2ed98" font-family="SuperFunky, &apos;Super Funky&apos;" font-size="66.42"><tspan x="0" y="0">d</tspan></text>
  <text transform="translate(910.21 264.93) rotate(49.57) scale(1.03 1)" fill="#f2ed98" font-family="SuperFunky, &apos;Super Funky&apos;" font-size="66.42"><tspan x="0" y="0">u</tspan></text>
  <text transform="translate(942.51 303.34) rotate(54.98) scale(1.03 1)" fill="#f2ed98" font-family="SuperFunky, &apos;Super Funky&apos;" font-size="66.42"><tspan x="0" y="0">?</tspan></text>
  <text transform="translate(315.8 321.77) rotate(-40.85) scale(.96 1)" fill="#f2ed98" font-family="SuperFunky, &apos;Super Funky&apos;" font-size="39.07"><tspan x="0" y="0">N</tspan></text>
  <text transform="translate(336.74 303.48) rotate(-36.61) scale(.96 1)" fill="#f2ed98" font-family="SuperFunky, &apos;Super Funky&apos;" font-size="39.07"><tspan x="0" y="0">å</tspan></text>
  <text transform="translate(364.5 282.98) rotate(-32.32) scale(.96 1)" fill="#f2ed98" font-family="SuperFunky, &apos;Super Funky&apos;" font-size="39.07"><tspan x="0" y="0">r</tspan></text>
  <text transform="translate(387.93 268.34) rotate(-29.35) scale(.96 1)" fill="#f2ed98" font-family="SuperFunky, &apos;Super Funky&apos;" font-size="39.07"><tspan x="0" y="0"> </tspan></text>
  <text transform="translate(400.3 260.65) rotate(-24.99) scale(.96 1)" fill="#f2ed98" font-family="SuperFunky, &apos;Super Funky&apos;" font-size="70.33"><tspan x="0" y="0">D</tspan></text>
  <text transform="translate(442.4 240.86) rotate(-18.01) scale(.96 1)" fill="#f2ed98" font-family="SuperFunky, &apos;Super Funky&apos;" font-size="70.33"><tspan x="0" y="0">U</tspan></text>
  <text transform="translate(490.16 226.06) rotate(-13.15) scale(.96 1)" fill="#f2ed98" font-family="Times-Roman, Times" font-size="70.33"><tspan x="0" y="0"> </tspan></text>
  <text transform="translate(510.69 221.2) rotate(-9.17) scale(.96 1)" fill="#f2ed98" font-family="SuperFunky, &apos;Super Funky&apos;" font-size="39.07"><tspan x="0" y="0">h</tspan></text>
  <text transform="translate(538.45 216.57) rotate(-4.57) scale(.96 1)" fill="#f2ed98" font-family="SuperFunky, &apos;Super Funky&apos;" font-size="39.07"><tspan x="0" y="0">a</tspan></text>
  <text transform="translate(572.81 214.17) rotate(-1) scale(.96 1)" fill="#f2ed98" font-family="SuperFunky, &apos;Super Funky&apos;" font-size="39.07"><tspan x="0" y="0">r</tspan></text>
  <text transform="translate(600.46 214.08) rotate(3.02) scale(.96 1)" fill="#f2ed98" font-family="SuperFunky, &apos;Super Funky&apos;" font-size="39.07"><tspan x="0" y="0"> </tspan></text>
  <text transform="translate(615.05 214.51) rotate(6.64) scale(.96 1)" fill="#f2ed98" font-family="SuperFunky, &apos;Super Funky&apos;" font-size="39.07"><tspan x="0" y="0">m</tspan></text>
  <text transform="translate(649.6 218.7) rotate(11.06) scale(.96 1)" fill="#f2ed98" font-family="SuperFunky, &apos;Super Funky&apos;" font-size="39.07"><tspan x="0" y="0">e</tspan></text>
  <text transform="translate(674.49 223.51) rotate(14.98) scale(.96 1)" fill="#f2ed98" font-family="SuperFunky, &apos;Super Funky&apos;" font-size="39.07"><tspan x="0" y="0">n</tspan></text>
  <text transform="translate(701.37 230.68) rotate(19.07) scale(.96 1)" fill="#f2ed98" font-family="SuperFunky, &apos;Super Funky&apos;" font-size="39.07"><tspan x="0" y="0">s</tspan></text>
  <text transform="translate(726.95 239.49) rotate(22.91) scale(.96 1)" fill="#f2ed98" font-family="SuperFunky, &apos;Super Funky&apos;" font-size="39.07"><tspan x="0" y="0">t</tspan></text>
  <text transform="translate(751.65 249.9) rotate(26.81) scale(.96 1)" fill="#f2ed98" font-family="SuperFunky, &apos;Super Funky&apos;" font-size="39.07"><tspan x="0" y="0">r</tspan></text>
  <text transform="translate(774.51 261.36) rotate(30.43) scale(.96 1)" fill="#f2ed98" font-family="SuperFunky, &apos;Super Funky&apos;" font-size="39.07"><tspan x="0" y="0">u</tspan></text>
  <text transform="translate(798.39 275.22) rotate(34.77) scale(.96 1)" fill="#f2ed98" font-family="SuperFunky, &apos;Super Funky&apos;" font-size="39.07"><tspan x="0" y="0">a</tspan></text>
  <text transform="translate(823.66 292.75) rotate(38.46) scale(.96 1)" fill="#f2ed98" font-family="SuperFunky, &apos;Super Funky&apos;" font-size="39.07"><tspan x="0" y="0">t</tspan></text>
  <text transform="translate(844.68 309.62) rotate(41.33) scale(.96 1)" fill="#f2ed98" font-family="SuperFunky, &apos;Super Funky&apos;" font-size="39.07"><tspan x="0" y="0">i</tspan></text>
  <text transform="translate(856.39 319.68) rotate(44.29) scale(.96 1)" fill="#f2ed98" font-family="SuperFunky, &apos;Super Funky&apos;" font-size="39.07"><tspan x="0" y="0">o</tspan></text>
  <text transform="translate(876.91 339.69) rotate(48.02) scale(.96 1)" fill="#f2ed98" font-family="SuperFunky, &apos;Super Funky&apos;" font-size="39.07"><tspan x="0" y="0">n</tspan></text>
</svg>