<?xml version="1.0" encoding="UTF-8"?>
<svg id="Layer_2" xmlns="http://www.w3.org/2000/svg" viewBox="0 0 1174.46 1177.79">
  <path d="M1168.45,590.54c.33,92.73-22.05,161.94-29.87,184.43-28.22,81.16-68.65,134.43-89.89,161.94-53.5,69.29-109.6,111.42-139.29,131.66-45.45,30.98-85.21,49-105.89,57.63-36.93,15.42-113.68,46.58-216.28,45.55-27.53-.27-135.64-3.65-251.52-69.99-90.93-52.05-140.87-116.67-183.27-172.72C87.04,842.63,7.04,736.91,6.01,590.54c-.79-112.31,45.18-208.83,71.56-264.21,13.01-27.31,30.24-63.03,60.71-104.95C161.35,189.64,278.45,28.57,464.27,6.5c11.11-1.32,48.39.06,122.96,2.82,182.1,6.73,211.21,19.12,225.95,26.26,21.44,10.38,55.1,32.94,122.42,78.05,26.28,17.61,39.42,26.41,47.16,32.42,29.51,22.91,64.65,59.87,106.64,151.21,38.96,84.74,78.62,171.01,79.06,293.28Z" fill="none" stroke="#742027" stroke-miterlimit="10" stroke-width="12"/>
</svg>