<?xml version="1.0" encoding="UTF-8"?>
<svg id="Layer_2" xmlns="http://www.w3.org/2000/svg" viewBox="0 0 160.73 160.73">
  <circle cx="80.36" cy="80.36" r="80.11" fill="#ba888d"/>
  <g id="eDdXQS">
    <g>
      <path d="M75.81,112.44c-1.39,7.97-2.72,15.46-4.01,22.96-.87,5.07-4.31,8.46-8.98,8.78-4.08.28-7.14-2.51-6.98-6.6.66-17.21,1.36-34.42,2.1-51.63.07-1.61.08-3.04-1.42-4.07-.81-.56-.91-1.54-.99-2.42-.74-7.64-1.63-15.27-2.13-22.94-.34-5.11,1.77-8.92,5.61-11.96,3.42-2.71,7.35-4.39,11.54-5.48,1.14-.3,1.5-.74,1.41-1.97-.3-3.92.22-7.82.99-11.63,1.23-6.1,6.72-9.72,13.05-8.96,5.61.67,10.05,5.98,9.79,11.91-.14,3.13-.48,6.26-.93,9.36-.17,1.19.12,1.68,1.1,2.23,4.48,2.49,7.95,5.98,10.25,10.6.81,1.63,1.2,3.34,1.19,5.18-.04,6.21-.17,12.43.03,18.64.24,7.34-4,10.42-9.42,11.52-1.56.32-2.07.83-2,2.47.67,15.22,1.25,30.45,1.86,45.68.04.96.08,1.92.11,2.88.13,5.37-3.91,8.5-9.03,6.88-3.59-1.13-6.11-3.5-7.02-7.24-1.71-7.03-3.32-14.07-4.99-21.11-.22-.91-.29-1.88-1.09-3.08ZM104.11,65.58c0-3.14-.02-6.28,0-9.42,0-1.24-.16-2.42-.67-3.56-1.94-4.3-5.09-7.47-9.17-9.77-.77-.43-1.28-.41-1.97.32-5.54,5.87-12.9,5.67-18.16-.47-.5-.58-.92-.95-1.77-.71-3.98,1.09-7.8,2.5-11.12,5.04-3.27,2.51-4.93,5.65-4.58,9.95.6,7.21,1.33,14.41,2.06,21.6.08.76.38,1.32.92,1.82,2.98,2.78,6.28,5.06,10.15,6.44,3.66,1.31,7.41,1.29,11.19.69,1.12-.18,2.11-.63,2.29-1.96.17-1.27-.67-1.87-1.6-2.35-.85-.44-1.74-.81-2.63-1.18-2.78-1.14-5.67-2.05-8.17-3.79-1.4-.98-2.83-1.93-3.32-3.79-1.21-4.59-2.03-9.24-2.6-13.95-.14-1.14-.14-2.31,1.37-2.47,1.5-.16,1.75,1.02,1.92,2.12.32,2.02.52,4.06.89,6.07.44,2.39.93,4.78,1.58,7.11.26.91.89,2.36,2.21,1.33,1.97-1.55,4.19-2.11,6.55-2.44,3.7-.52,7.42-.44,11.13-.41,1.53.01,2.01-.5,1.96-2-.09-3.2-.02-6.4-.02-9.61,0-1.1.15-2.17,1.53-2.21,1.51-.04,1.68,1.09,1.71,2.26,0,.19,0,.38,0,.58,0,3.78,0,7.56,0,11.34,0,2.46-.34,2.78-2.74,2.83-3.71.08-7.43.16-11.14.27-1.54.05-3.06.27-4.54.73-.52.16-1.33.21-1.39.82-.07.69.76.68,1.24.92.06.03.12.05.18.07,3.13,1.38,6.67,2.03,8.83,5.11.17.25.69.35,1.05.35,3.58-.01,7.18.18,10.71-.67,4.29-1.03,6.05-3.24,6.07-7.63.01-3.14,0-6.28,0-9.42ZM60.16,112.71s-.01,0-.02,0c-.33,8.12-.67,16.25-.97,24.37-.11,3.08,1.53,4.41,4.49,3.64,2.95-.77,4.35-2.87,4.86-5.78,1.77-10.27,3.6-20.54,5.42-30.8.19-1.07.33-2.29,1.82-2.28,1.46.01,1.61,1.21,1.86,2.28,2.43,10.34,4.86,20.67,7.28,31.01.47,2.03,1.42,3.71,3.24,4.78,1.59.93,3.32,1.53,5.09.56,1.64-.9,1.44-2.56,1.38-4.1-.62-15.1-1.25-30.19-1.85-45.29-.19-4.85-.15-4.83-4.98-4.56-.79.04-1.32.21-1.61,1.02-.69,1.89-2.25,2.75-4.08,3.1-6.82,1.32-13.23.35-19.13-3.49-1.72-1.12-1.78-1.05-1.86.99-.31,8.19-.63,16.38-.94,24.57ZM83.69,44.05c3.96-.17,7.22-2.92,7.86-6.87.44-2.71.6-5.46.9-8.2.5-4.49-2.66-8.58-7.09-9.17-4.56-.61-8.66,2.33-9.34,6.84-.43,2.84-.74,5.71-.91,8.58-.3,4.89,3.78,9.02,8.57,8.81Z" fill="#742029"/>
      <path d="M36.52,77.32c-2.11,0-4.22.04-6.33-.01-2.02-.05-2.64-1.06-1.79-2.89.76-1.62,1.56-3.23,2.4-4.8.66-1.22.26-1.55-1-1.53-2.88.05-5.76.02-8.64.01-1.15,0-2.32-.09-2.31-1.62.01-1.5,1.16-1.63,2.32-1.63,4.09,0,8.19-.02,12.28,0,2.26.02,2.85,1.01,1.88,3.08-.74,1.56-1.5,3.11-2.32,4.63-.67,1.23-.24,1.55,1.01,1.53,2.88-.04,5.76-.01,8.64-.02,1.16,0,2.32.12,2.32,1.62,0,1.5-1.14,1.64-2.31,1.63-2.05,0-4.09,0-6.14,0Z" fill="#742029"/>
      <path d="M115,102.68c-.7,0-1.18-.39-1.65-.86-2.75-2.76-5.5-5.53-8.26-8.28-.84-.83-1.49-1.79-.48-2.8.99-.99,1.97-.41,2.82.45,2.02,2.05,4.1,4.04,6.07,6.14.88.93,1.44,1.03,2.12-.16.67-1.16,1.45-2.26,2.22-3.36,1.08-1.53,1.99-1.68,3.29-.42,2.88,2.82,5.71,5.69,8.56,8.54.78.78,1.01,1.72.21,2.55-.82.84-1.74.57-2.53-.21-2.13-2.12-4.31-4.2-6.37-6.38-.97-1.02-1.49-.8-2.13.27-.68,1.15-1.48,2.24-2.21,3.36-.4.62-.87,1.1-1.66,1.16Z" fill="#742029"/>
      <path d="M27.6,27.98c.34.14.82.29,1.28.52,3.37,1.69,6.75,3.37,10.11,5.1,2.19,1.13,2.31,1.83.75,3.83-.79,1.01-1.56,2.03-2.4,2.99-.71.81-.55,1.25.39,1.71,2.7,1.32,5.36,2.72,8.05,4.05,1.07.53,1.98,1.21,1.37,2.5-.62,1.32-1.72,1.02-2.79.48-3.48-1.76-6.98-3.49-10.45-5.27-1.97-1.01-2.1-1.78-.71-3.59.78-1.01,1.53-2.06,2.41-2.99.9-.96.6-1.47-.43-1.98-2.76-1.35-5.49-2.76-8.23-4.13-.91-.45-1.42-1.09-1.11-2.15.23-.8.86-1.06,1.78-1.09Z" fill="#742029"/>
      <path d="M49.61,91.97c.03.63-.44,1.09-.89,1.54-2.76,2.76-5.51,5.54-8.29,8.28-1.3,1.28-2.28,1.18-3.31-.28-.81-1.15-1.59-2.32-2.31-3.53-.6-1.01-1.1-.97-1.89-.16-2.01,2.07-4.09,4.06-6.12,6.1-.88.88-1.83,1.66-2.93.52-1.02-1.06-.26-1.99.55-2.8,2.67-2.67,5.32-5.36,8.01-8.01,1.59-1.57,2.41-1.48,3.66.35.73,1.05,1.48,2.1,2.11,3.2.61,1.07,1.12,1.14,2,.23,2.08-2.17,4.25-4.26,6.38-6.39.64-.64,1.37-.99,2.25-.55.56.28.82.79.79,1.51Z" fill="#742029"/>
      <path d="M134.95,29.74c.05.81-.59,1.2-1.31,1.56-2.69,1.34-5.35,2.75-8.07,4.02-1.23.58-1.36,1.08-.43,2.07.95,1.03,1.77,2.18,2.64,3.29.94,1.19.89,2.27-.53,3-3.76,1.92-7.53,3.81-11.32,5.68-.96.47-1.97.4-2.42-.73-.42-1.05.09-1.81,1.11-2.3,2.76-1.35,5.47-2.79,8.24-4.1,1.17-.55,1.2-1.06.4-1.97-.93-1.05-1.76-2.19-2.64-3.29-1.02-1.27-.92-2.34.6-3.11,3.71-1.88,7.4-3.78,11.14-5.6,1.49-.72,2.62-.06,2.58,1.48Z" fill="#742029"/>
      <path d="M124.21,77.31c-2.11,0-4.22,0-6.33,0-1.12,0-2.14-.23-2.18-1.58-.03-1.36.98-1.65,2.11-1.65,2.88,0,5.76-.07,8.64.02,1.73.06,1.83-.53,1.09-1.86-.8-1.45-1.53-2.95-2.22-4.47-.87-1.91-.32-2.88,1.72-2.9,4.29-.05,8.57-.01,12.86-.01,1.08,0,1.96.38,1.98,1.59.02,1.21-.84,1.63-1.93,1.63-2.75,0-5.5.01-8.25,0q-2.54,0-1.45,2.18c.68,1.37,1.41,2.73,2.05,4.12.85,1.85.26,2.86-1.75,2.91-2.11.05-4.22.01-6.33.01Z" fill="#742029"/>
    </g>
  </g>
</svg>