<?xml version="1.0" encoding="UTF-8"?>
<svg id="Layer_2" xmlns="http://www.w3.org/2000/svg" viewBox="0 0 160.73 160.73">
  <circle cx="80.36" cy="80.36" r="79.97" fill="#ba888d"/>
  <g>
    <path d="M114.93,90.55c-1.23-.56,4.47,2.24,6.75,6.02,2.17,3.6,2.21,9.8,2.17,8.43" fill="#ba888d" stroke="#7f1524" stroke-miterlimit="10" stroke-width="2"/>
    <path d="M116.52,82.59c-1.96-1.03,7.36,3.69,11.1,9.91,3.56,5.92,3.61,16.11,3.57,13.87" fill="#ba888d" stroke="#7f1524" stroke-miterlimit="10" stroke-width="2"/>
    <path d="M80.99,55.56c.91-.11,1.05,2.32,3.47,4.34,2.85,2.38,7.04,2.7,9.83,2.03,8.3-2,10.53-14.29,10.7-15.33,1.22-7.28-1.08-15.37-6.07-20.83-10.36-11.31-30.78-9.56-43.68-2.31-12.75,7.16-17.6,19.37-20.83,27.48-2.26,5.69-8.87,24.6-1.45,44.83,1.76,4.8,4.41,11.75,11.28,17.64,2.55,2.18,11.69,9.38,24.01,8.39,2.94-.24,8.29-.74,13.31-4.63.65-.5,8.56-6.84,8.39-16.78-.02-1.27-.14-8.25-4.92-11.86-.91-.69-3.69-2.78-6.2-1.97-1.43.46-2.46,1.77-3.06,1.39-.41-.26-.45-1.18-.17-1.74,1.04-2.07,7.53-.98,10.27-.23,6.47,1.78,15.13,7.4,15.92,14.53.21,1.91-.2,3.38.89,5.44,1.42,2.67,3.55,2.9,5.62,5.26,1.58,1.8,2.17,3.76,2.9,7.62,1.53,8.04,2.14,16.18,2.4,20.64.19,3.38,2.8,3.51,3.54,3.59,1.8.2,3.69-1.58,4.39-3.41.64-1.66.08-2.83-.97-6.7-1.37-5.08-.91-4.16-2.16-9.43-.91-3.85-1.69-6.35-2.34-8.02-.57-1.45-1.35-3.06-1.24-5.37.16-3.33,2.03-4.88,1.27-7.8-.35-1.34-1.06-2.23-1.45-2.72-1.92-2.4-4.61-3.02-5.99-3.5-4.89-1.7-3.52-5.83-10.93-11.63-3.52-2.76-5.52-3.58-10.22-7.58-4-3.41-6.03-5.16-7.23-7.76-2.81-6.06-.85-13.39.7-13.58Z" fill="none" stroke="#7e1625" stroke-miterlimit="10" stroke-width="2"/>
    <path d="M74.82,106.38c0,.92-.22,1.6-.3,1.82-.28.8-.68,1.33-.89,1.6-.53.68-1.08,1.1-1.38,1.3-.45.31-.84.48-1.05.57-.36.15-1.12.46-2.14.45-.27,0-1.34-.04-2.49-.69-.9-.51-1.39-1.15-1.81-1.71-.65-.85-1.44-1.9-1.45-3.34,0-1.11.45-2.06.71-2.61.13-.27.3-.62.6-1.04.23-.31,1.38-1.91,3.22-2.12.11-.01.48,0,1.21.03,1.8.07,2.09.19,2.23.26.21.1.54.33,1.21.77.26.17.39.26.47.32.29.23.64.59,1.05,1.49.38.84.78,1.69.78,2.9Z" fill="#7e1625"/>
    <path d="M64.62,93.64c0,.92-.22,1.6-.3,1.82-.28.8-.68,1.33-.89,1.6-.53.68-1.08,1.1-1.38,1.3-.45.31-.84.48-1.05.57-.36.15-1.12.46-2.14.45-.27,0-1.34-.04-2.49-.69-.9-.51-1.39-1.15-1.81-1.71-.65-.85-1.44-1.9-1.45-3.34,0-1.11.45-2.06.71-2.61.13-.27.3-.62.6-1.04.23-.31,1.38-1.91,3.22-2.12.11-.01.48,0,1.21.03,1.8.07,2.09.19,2.23.26.21.1.54.33,1.21.77.26.17.39.26.47.32.29.23.64.59,1.05,1.49.38.84.78,1.69.78,2.9Z" fill="#7e1625"/>
    <path d="M60.63,109.78c0,.92-.22,1.6-.3,1.82-.28.8-.68,1.33-.89,1.6-.53.68-1.08,1.1-1.38,1.3-.45.31-.84.48-1.05.57-.36.15-1.12.46-2.14.45-.27,0-1.34-.04-2.49-.69-.9-.51-1.39-1.15-1.81-1.71-.65-.85-1.44-1.9-1.45-3.34,0-1.11.45-2.06.71-2.61.13-.27.3-.62.6-1.04.23-.31,1.38-1.91,3.22-2.12.11-.01.48,0,1.21.03,1.8.07,2.09.19,2.23.26.21.1.54.33,1.21.77.26.17.39.26.47.32.29.23.64.59,1.05,1.49.38.84.78,1.69.78,2.9Z" fill="#7e1625"/>
    <path d="M114.93,103.55c0,.92-.22,1.6-.3,1.82-.28.8-.68,1.33-.89,1.6-.53.68-1.08,1.1-1.38,1.3-.45.31-.84.48-1.05.57-.36.15-1.12.46-2.14.45-.27,0-1.34-.04-2.49-.69-.9-.51-1.39-1.15-1.81-1.71-.65-.85-1.44-1.9-1.45-3.34,0-1.11.45-2.06.71-2.61.13-.27.3-.62.6-1.04.23-.31,1.38-1.91,3.22-2.12.11-.01.48,0,1.21.03,1.8.07,2.09.19,2.23.26.21.1.54.33,1.21.77.26.17.39.26.47.32.29.23.64.59,1.05,1.49.38.84.78,1.69.78,2.9Z" fill="#7e1625"/>
  </g>
</svg>