<?xml version="1.0" encoding="UTF-8"?>
<svg id="Layer_2" xmlns="http://www.w3.org/2000/svg" viewBox="0 0 950.22 382.16">
  <text transform="translate(53.84 338.63) rotate(-61.54) scale(1.03 1)" fill="#f7f7a3" font-family="SuperFunky, &apos;Super Funky&apos;" font-size="82"><tspan x="0" y="0">H</tspan></text>
  <text transform="translate(83.42 283.5) rotate(-53.31) scale(1.03 1)" fill="#f7f7a3" font-family="SuperFunky, &apos;Super Funky&apos;" font-size="82"><tspan x="0" y="0">V</tspan></text>
  <text transform="translate(123.69 230.82) rotate(-46.91) scale(1.03 1)" fill="#f7f7a3" font-family="SuperFunky, &apos;Super Funky&apos;" font-size="82"><tspan x="0" y="0">i</tspan></text>
  <text transform="translate(146.59 205.43) rotate(-41.15) scale(1.03 1)" fill="#f7f7a3" font-family="SuperFunky, &apos;Super Funky&apos;" font-size="82"><tspan x="0" y="0">l</tspan></text>
  <text transform="translate(188.39 168.55) rotate(-33.74) scale(1.03 1)" fill="#f7f7a3" font-family="SuperFunky, &apos;Super Funky&apos;" font-size="82"><tspan x="0" y="0">k</tspan></text>
  <text transform="translate(238.46 135.12) rotate(-26.26) scale(1.03 1)" fill="#f7f7a3" font-family="SuperFunky, &apos;Super Funky&apos;" font-size="82"><tspan x="0" y="0">e</tspan></text>
  <text transform="translate(288.72 109.97) rotate(-18.64) scale(1.03 1)" fill="#f7f7a3" font-family="SuperFunky, &apos;Super Funky&apos;" font-size="82"><tspan x="0" y="0">n</tspan></text>
  <text transform="translate(347.85 90.77) rotate(-12.53) scale(1.03 1)" fill="#f7f7a3" font-family="SuperFunky, &apos;Super Funky&apos;" font-size="82"><tspan x="0" y="0"> </tspan></text>
  <text transform="translate(379.3 83.03) rotate(-6.7) scale(1.03 1)" fill="#f7f7a3" font-family="SuperFunky, &apos;Super Funky&apos;" font-size="82"><tspan x="0" y="0">C</tspan></text>
  <text transform="translate(437.29 76.81) rotate(-.93) scale(1.03 1)" fill="#f7f7a3" font-family="SuperFunky, &apos;Super Funky&apos;" font-size="82"><tspan x="0" y="0">i</tspan></text>
  <text transform="translate(471.39 75.67) rotate(4.89) scale(1.03 1)" fill="#f7f7a3" font-family="SuperFunky, &apos;Super Funky&apos;" font-size="82"><tspan x="0" y="0">l</tspan></text>
  <text transform="translate(526.99 80.3) rotate(12.05) scale(1.03 1)" fill="#f7f7a3" font-family="SuperFunky, &apos;Super Funky&apos;" font-size="82"><tspan x="0" y="0">l</tspan></text>
  <text transform="translate(581.55 91.82) rotate(19.29) scale(1.03 1)" fill="#f7f7a3" font-family="SuperFunky, &apos;Super Funky&apos;" font-size="82"><tspan x="0" y="0">e</tspan></text>
  <text transform="translate(634.79 111.03) rotate(25.04) scale(1.03 1)" fill="#f7f7a3" font-family="SuperFunky, &apos;Super Funky&apos;" font-size="82"><tspan x="0" y="0"> </tspan></text>
  <text transform="translate(664.44 124.13) rotate(30.77) scale(1.03 1)" fill="#f7f7a3" font-family="SuperFunky, &apos;Super Funky&apos;" font-size="82"><tspan x="0" y="0">e</tspan></text>
  <text transform="translate(712.9 152.66) rotate(38.29) scale(1.03 1)" fill="#f7f7a3" font-family="SuperFunky, &apos;Super Funky&apos;" font-size="82"><tspan x="0" y="0">r</tspan></text>
  <text transform="translate(760.76 191.3) rotate(44.27) scale(1.03 1)" fill="#f7f7a3" font-family="SuperFunky, &apos;Super Funky&apos;" font-size="82"><tspan x="0" y="0"> </tspan></text>
  <text transform="translate(784.46 213.43) rotate(50.02) scale(1.03 1)" fill="#f7f7a3" font-family="SuperFunky, &apos;Super Funky&apos;" font-size="82"><tspan x="0" y="0">d</tspan></text>
  <text transform="translate(821.49 257.18) rotate(57.62) scale(1.03 1)" fill="#f7f7a3" font-family="SuperFunky, &apos;Super Funky&apos;" font-size="82"><tspan x="0" y="0">u</tspan></text>
  <text transform="translate(854.09 309.45) rotate(64.29) scale(1.03 1)" fill="#f7f7a3" font-family="SuperFunky, &apos;Super Funky&apos;" font-size="82"><tspan x="0" y="0">?</tspan></text>
  <text transform="translate(137.23 366.88) rotate(-51.27) scale(.96 1)" fill="#f7f7a3" font-family="SuperFunky, &apos;Super Funky&apos;" font-size="48"><tspan x="0" y="0">N</tspan></text>
  <text transform="translate(158.36 340.18) rotate(-46.28) scale(.96 1)" fill="#f7f7a3" font-family="SuperFunky, &apos;Super Funky&apos;" font-size="48"><tspan x="0" y="0">å</tspan></text>
  <text transform="translate(187.7 309.72) rotate(-41.22) scale(.96 1)" fill="#f7f7a3" font-family="SuperFunky, &apos;Super Funky&apos;" font-size="48"><tspan x="0" y="0">r</tspan></text>
  <text transform="translate(213.34 287.56) rotate(-37.7) scale(.96 1)" fill="#f7f7a3" font-family="SuperFunky, &apos;Super Funky&apos;" font-size="48"><tspan x="0" y="0"> </tspan></text>
  <text transform="translate(227.11 276.19) rotate(-33.27) scale(.96 1)" fill="#f7f7a3" font-family="SuperFunky, &apos;Super Funky&apos;" font-size="70"><tspan x="0" y="0">D</tspan></text>
  <text transform="translate(265.58 250.75) rotate(-26.54) scale(.96 1)" fill="#f7f7a3" font-family="SuperFunky, &apos;Super Funky&apos;" font-size="70"><tspan x="0" y="0">U</tspan></text>
  <text transform="translate(310.3 229.15) rotate(-21.81) scale(.96 1)" fill="#f7f7a3" font-family="Times-Roman, Times" font-size="70"><tspan x="0" y="0"> </tspan></text>
  <text transform="translate(329.55 221.23) rotate(-17.44) scale(.96 1)" fill="#f7f7a3" font-family="SuperFunky, &apos;Super Funky&apos;" font-size="48"><tspan x="0" y="0">h</tspan></text>
  <text transform="translate(362.34 210.68) rotate(-11.81) scale(.96 1)" fill="#f7f7a3" font-family="SuperFunky, &apos;Super Funky&apos;" font-size="48"><tspan x="0" y="0">a</tspan></text>
  <text transform="translate(403.71 202.21) rotate(-6.23) scale(.96 1)" fill="#f7f7a3" font-family="SuperFunky, &apos;Super Funky&apos;" font-size="48"><tspan x="0" y="0">r</tspan></text>
  <text transform="translate(437.36 198.78) rotate(-2.44) scale(.96 1)" fill="#f7f7a3" font-family="SuperFunky, &apos;Super Funky&apos;" font-size="48"><tspan x="0" y="0"> </tspan></text>
  <text transform="translate(455.15 197.52) rotate(1.95) scale(.96 1)" fill="#f7f7a3" font-family="SuperFunky, &apos;Super Funky&apos;" font-size="48"><tspan x="0" y="0">m</tspan></text>
  <text transform="translate(497.74 199.21) rotate(7.34) scale(.96 1)" fill="#f7f7a3" font-family="SuperFunky, &apos;Super Funky&apos;" font-size="48"><tspan x="0" y="0">e</tspan></text>
  <text transform="translate(528.47 203.07) rotate(12.12) scale(.96 1)" fill="#f7f7a3" font-family="SuperFunky, &apos;Super Funky&apos;" font-size="48"><tspan x="0" y="0">n</tspan></text>
  <text transform="translate(561.77 210.18) rotate(17.14) scale(.96 1)" fill="#f7f7a3" font-family="SuperFunky, &apos;Super Funky&apos;" font-size="48"><tspan x="0" y="0">s</tspan></text>
  <text transform="translate(593.46 219.91) rotate(21.86) scale(.96 1)" fill="#f7f7a3" font-family="SuperFunky, &apos;Super Funky&apos;" font-size="48"><tspan x="0" y="0">t</tspan></text>
  <text transform="translate(623.94 232.1) rotate(26.65) scale(.96 1)" fill="#f7f7a3" font-family="SuperFunky, &apos;Super Funky&apos;" font-size="48"><tspan x="0" y="0">r</tspan></text>
  <text transform="translate(651.95 246.02) rotate(31.08) scale(.96 1)" fill="#f7f7a3" font-family="SuperFunky, &apos;Super Funky&apos;" font-size="48"><tspan x="0" y="0">u</tspan></text>
  <text transform="translate(680.99 263.26) rotate(36.36) scale(.96 1)" fill="#f7f7a3" font-family="SuperFunky, &apos;Super Funky&apos;" font-size="48"><tspan x="0" y="0">a</tspan></text>
  <text transform="translate(711.34 285.57) rotate(40.84) scale(.96 1)" fill="#f7f7a3" font-family="SuperFunky, &apos;Super Funky&apos;" font-size="48"><tspan x="0" y="0">t</tspan></text>
  <text transform="translate(736.2 307.33) rotate(44.32) scale(.96 1)" fill="#f7f7a3" font-family="SuperFunky, &apos;Super Funky&apos;" font-size="48"><tspan x="0" y="0">i</tspan></text>
  <text transform="translate(749.91 320.34) rotate(47.89) scale(.96 1)" fill="#f7f7a3" font-family="SuperFunky, &apos;Super Funky&apos;" font-size="48"><tspan x="0" y="0">o</tspan></text>
  <text transform="translate(773.42 346.35) rotate(52.4) scale(.96 1)" fill="#f7f7a3" font-family="SuperFunky, &apos;Super Funky&apos;" font-size="48"><tspan x="0" y="0">n</tspan></text>
</svg>