<?xml version="1.0" encoding="UTF-8"?>
<svg id="Layer_2" xmlns="http://www.w3.org/2000/svg" viewBox="0 0 931.47 381.12">
  <g>
    <path d="M45.27,256.36c-1.05-.9-2.03-2.05-2.93-3.46-.9-1.41-1.55-2.97-1.94-4.69-.39-1.72-.4-3.51-.04-5.38.36-1.87,1.28-3.67,2.76-5.4,2.18-2.56,4.56-4.06,7.14-4.53,2.57-.46,5.08.35,7.52,2.43,1.01.86,1.87,1.75,2.58,2.66.71.91,1.35,1.81,1.9,2.69.55.88,1.08,1.69,1.58,2.42.5.73,1.05,1.35,1.64,1.85.46.39.9.6,1.32.62.42.02.89-.27,1.4-.88.78-.91,1.08-2.09.91-3.55-.17-1.46-.56-3.08-1.17-4.88-.61-1.79-1.29-3.72-2.04-5.79-.75-2.06-1.3-4.14-1.65-6.24-.35-2.1-.38-4.15-.09-6.15.29-2,1.17-3.87,2.66-5.6,1.11-1.3,2.33-2.24,3.67-2.83,1.33-.58,2.74-.87,4.21-.85,1.47.02,2.93.33,4.38.93,1.45.6,2.83,1.46,4.13,2.57,1.81,1.54,2.94,3.37,3.39,5.48.45,2.11.49,4.32.12,6.62-.37,2.31-.98,4.62-1.82,6.93-.85,2.31-1.63,4.47-2.36,6.47-.73,2-1.24,3.73-1.55,5.2-.3,1.46-.1,2.5.62,3.11.72.61,1.91.7,3.59.26,1.68-.44,3.66-1.07,5.93-1.9,2.27-.83,4.76-1.72,7.46-2.68,2.7-.95,5.46-1.61,8.28-1.97s5.61-.31,8.36.17c2.75.48,5.29,1.71,7.6,3.68,1.18,1.01,2.22,2.29,3.14,3.86.91,1.57,1.52,3.28,1.82,5.15.3,1.87.18,3.83-.34,5.89-.53,2.06-1.62,4.07-3.29,6.02-1.04,1.21-2.28,2.18-3.72,2.89-1.45.71-2.97,1.2-4.56,1.45-1.6.25-3.17.27-4.74.06-1.56-.21-3-.65-4.32-1.33-1.68-.84-3.22-1.83-4.6-2.97s-2.68-2.25-3.88-3.31c-1.2-1.06-2.31-2.01-3.34-2.85-1.03-.84-1.99-1.38-2.88-1.61-.53-.15-1.15-.33-1.88-.54-.73-.21-1.47-.36-2.23-.45-.76-.09-1.53-.03-2.32.16s-1.49.66-2.12,1.39c-.78.91-.97,1.81-.57,2.71.4.9,1.08,1.76,2.04,2.59,1.22,1.04,2.67,1.72,4.36,2.04,1.69.32,3.45.6,5.27.85,1.82.25,3.67.6,5.52,1.06,1.86.46,3.57,1.36,5.12,2.69,1.34,1.15,2.36,2.54,3.04,4.17.68,1.63,1.02,3.38,1.02,5.25s-.38,3.78-1.13,5.72c-.75,1.94-1.9,3.82-3.46,5.64-1.37,1.6-2.95,2.9-4.73,3.88-1.79.98-3.62,1.63-5.51,1.92s-3.75.22-5.59-.22c-1.84-.45-3.47-1.28-4.9-2.5-1.6-1.36-2.89-3.02-3.87-4.98-.98-1.96-1.95-4.04-2.9-6.24-.96-2.2-2.03-4.37-3.22-6.51s-2.77-4.05-4.75-5.74c-1.68-1.43-3.42-2.54-5.22-3.33s-3.67-1.58-5.61-2.37-4.01-1.75-6.21-2.88c-2.2-1.13-4.54-2.75-7.02-4.87Z" fill="#f7f797"/>
    <path d="M86.76,207.45c-2.83-3.18-4.43-6.32-4.8-9.44-.37-3.11.94-6,3.92-8.65,1.91-1.7,4.25-2.74,7-3.12,2.75-.38,5.49.19,8.2,1.69,1.26.73,2.61,1.65,4.06,2.77,1.45,1.11,2.92,2.32,4.42,3.61,1.5,1.29,2.99,2.59,4.49,3.88,1.5,1.3,2.94,2.47,4.34,3.52,1.02.72,2.08,1.42,3.19,2.1,1.1.68,2.15,1.21,3.13,1.59s1.92.59,2.79.62c.87.04,1.58-.19,2.14-.68.77-.68,1.05-1.78.84-3.3-.21-1.52-.7-3.22-1.47-5.12-.78-1.9-1.75-3.85-2.91-5.84-1.17-1.99-2.33-3.77-3.49-5.33-1.48-2.01-2.95-4.17-4.39-6.47-1.44-2.3-2.47-4.4-3.09-6.3-.76-2.14-.93-4.3-.51-6.48.42-2.19,1.95-4.45,4.59-6.8,1.15-1.02,2.38-1.84,3.7-2.46s2.67-.95,4.04-.99c1.38-.04,2.77.27,4.2.92,1.42.66,2.8,1.73,4.12,3.21,2.09,2.35,3.72,4.9,4.87,7.65s2.05,5.5,2.71,8.25c.65,2.75,1.22,5.4,1.71,7.96s1.1,4.85,1.82,6.87c.47,1.13,1.05,2.36,1.73,3.68.68,1.32,1.41,2.65,2.18,4s1.54,2.68,2.3,4,1.43,2.57,2.02,3.75c1.17,2.43,2.17,4.8,3,7.1.83,2.3,1.26,4.57,1.32,6.82.05,2.24-.38,4.42-1.28,6.53-.91,2.11-2.52,4.18-4.81,6.23-2.3,2.04-4.57,3.42-6.81,4.12-2.24.7-4.48.86-6.72.49-2.24-.37-4.5-1.2-6.77-2.46-2.27-1.27-4.64-2.81-7.09-4.62-1.51-1.1-2.84-2.1-3.99-3-1.15-.9-2.23-1.73-3.25-2.49-1.02-.76-2.02-1.46-3.01-2.09-.99-.64-2.02-1.22-3.09-1.74-3.07-1.48-5.82-2.7-8.23-3.66-2.42-.96-4.62-1.89-6.63-2.81s-3.84-1.94-5.53-3.07-3.34-2.6-4.96-4.41Z" fill="#f7f797"/>
    <path d="M147.33,138.57c3.3-2.33,6.38-3.46,9.21-3.4s5.11,1.31,6.83,3.75c.86,1.22,1.65,2.73,2.36,4.53.71,1.8,1.47,3.71,2.28,5.75.81,2.04,1.69,4.13,2.66,6.29.96,2.16,2.15,4.23,3.55,6.22,1.53,2.17,3.32,3.88,5.36,5.15,2.04,1.27,4.15,2.45,6.32,3.55,2.17,1.11,4.3,2.31,6.37,3.62,2.08,1.31,3.93,3.08,5.57,5.3l.24.34c7.49,10.61,6.53,19.24-2.88,25.87-4.14,2.92-8.12,4.22-11.94,3.91-3.82-.32-7.05-2.21-9.71-5.68l-.38-.54c-1.4-1.99-2.36-4.02-2.88-6.08-.52-2.07-1.02-4.21-1.49-6.41s-1.08-4.5-1.82-6.88c-.74-2.38-2.04-4.89-3.88-7.51-1.69-2.39-3.43-4.32-5.24-5.79-1.8-1.47-3.57-2.77-5.32-3.91s-3.43-2.3-5.07-3.48c-1.63-1.18-3.12-2.72-4.46-4.62-2.55-3.61-3.46-7.15-2.72-10.61.73-3.46,3.08-6.58,7.04-9.38Z" fill="#f7f797"/>
    <path d="M181.17,119.08c2.14-1.19,4.05-1.71,5.73-1.56,1.68.15,3.38,1.07,5.1,2.77.57.57,1.46,1.4,2.66,2.51,1.2,1.11,2.58,2.31,4.15,3.62,1.57,1.31,3.23,2.63,4.98,3.97s3.45,2.5,5.1,3.48,3.17,1.69,4.55,2.13c1.38.44,2.49.42,3.34-.05.6-.33.94-.92,1.03-1.76.09-.84.02-1.73-.21-2.68-.23-.95-.52-1.86-.88-2.74-.36-.88-.64-1.51-.85-1.89-.72-1.31-1.59-2.52-2.6-3.63-1.01-1.12-2.04-2.21-3.08-3.27-1.04-1.06-2.06-2.13-3.04-3.2s-1.83-2.25-2.56-3.56c-1.61-2.9-1.94-5.51-1.01-7.83.93-2.32,2.84-4.27,5.74-5.88,1.05-.58,2.24-.95,3.58-1.12,1.34-.17,2.66-.11,3.96.18,1.3.29,2.49.77,3.58,1.43,1.08.67,1.93,1.55,2.55,2.66,1.85,3.34,3.47,6.74,4.86,10.2,1.39,3.46,3.02,6.86,4.86,10.2,1.18,2.13,2.58,4.07,4.2,5.82s3.31,3.48,5.05,5.16c1.75,1.69,3.42,3.39,5.03,5.12,1.61,1.73,3,3.66,4.18,5.79,1.15,2.08,2,4.15,2.56,6.21.55,2.06.73,4.02.52,5.88-.21,1.85-.86,3.57-1.94,5.15-1.08,1.58-2.69,2.96-4.84,4.14-2.09,1.16-4.17,1.74-6.22,1.74s-4-.41-5.85-1.22c-1.85-.81-3.54-1.96-5.08-3.44-1.54-1.48-2.82-3.15-3.83-4.98-.7-1.26-1.82-2.69-3.36-4.3-1.54-1.61-3.2-3.11-4.98-4.49-1.78-1.39-3.51-2.45-5.19-3.2-1.68-.74-2.97-.87-3.87-.37-.45.25-.72.57-.83.98-.1.4-.11.85-.04,1.35.08.49.22.96.44,1.41s.4.82.56,1.11c.72,1.3,1.68,2.45,2.88,3.43,1.19.98,2.44,1.97,3.74,2.96,1.29.99,2.6,2.08,3.92,3.28,1.31,1.2,2.47,2.7,3.46,4.48.96,1.74,1.59,3.54,1.87,5.41.28,1.86.22,3.67-.18,5.41s-1.19,3.36-2.35,4.85c-1.16,1.49-2.69,2.77-4.58,3.81-1.79.99-3.64,1.57-5.54,1.73-1.9.16-3.72-.01-5.47-.53-1.75-.52-3.37-1.36-4.86-2.52-1.49-1.16-2.72-2.62-3.68-4.36-1.61-2.9-2.91-5.9-3.91-9.01-1-3.11-1.96-6.22-2.88-9.35-.92-3.12-1.88-6.24-2.88-9.35-1-3.11-2.29-6.09-3.87-8.94-1.21-2.18-2.62-4.17-4.24-5.99-1.62-1.82-2.92-3.6-3.88-5.34-1.31-2.37-1.47-4.62-.46-6.75,1-2.13,2.62-3.82,4.87-5.06Z" fill="#f7f797"/>
    <path d="M248.63,83.11c5.63-2.18,11.13-3,16.51-2.45,5.38.55,10.38,2.1,15,4.63s8.7,5.89,12.24,10.06c3.54,4.17,6.29,8.78,8.25,13.83,1.82,4.69,2.8,9.44,2.96,14.24.15,4.8-.54,9.36-2.08,13.66-1.54,4.3-3.92,8.17-7.13,11.62-3.22,3.44-7.3,6.12-12.24,8.04-2.23.87-4.58,1.51-7.04,1.93-2.46.42-4.82.46-7.06.12s-4.29-1.17-6.14-2.47c-1.85-1.3-3.27-3.24-4.27-5.81-.64-1.65-1.15-3.44-1.53-5.36s-.74-3.91-1.07-5.95c-.33-2.03-.69-4.03-1.08-5.98-.39-1.95-.91-3.75-1.54-5.4-.82-2.11-1.81-4.11-2.97-6.01-1.16-1.89-2.38-3.76-3.64-5.61-1.27-1.85-2.49-3.73-3.66-5.65-1.17-1.92-2.17-3.93-2.99-6.04-1.96-5.05-2.2-9.36-.71-12.93,1.49-3.57,4.89-6.39,10.2-8.45ZM264.4,100.12c-1.17.45-1.96,1.14-2.36,2.07-.4.93-.59,1.95-.55,3.06.03,1.11.23,2.24.58,3.38s.69,2.12,1,2.94c.28.72.66,1.67,1.15,2.85.49,1.18,1.1,2.29,1.84,3.33.74,1.04,1.58,1.86,2.51,2.45.93.59,1.95.67,3.07.23,1.17-.45,2.17-1.18,3-2.19.83-1,1.46-2.15,1.87-3.44.42-1.29.61-2.65.57-4.09-.04-1.44-.33-2.85-.87-4.24-.4-1.03-1.03-2.02-1.88-2.96s-1.82-1.74-2.9-2.39c-1.08-.65-2.23-1.09-3.45-1.33-1.22-.24-2.42-.13-3.59.32Z" fill="#f7f797"/>
    <path d="M313.38,61.21c3.82-.94,7.39-1.67,10.72-2.2,3.33-.53,6.29-.73,8.87-.6s4.73.7,6.45,1.71c1.71,1,2.83,2.55,3.34,4.64.49,1.99.5,3.67.05,5.07-.45,1.39-1.21,2.59-2.29,3.59-1.07,1-2.36,1.86-3.86,2.57s-3.03,1.4-4.6,2.07c-1.57.67-3.09,1.36-4.56,2.06-1.47.7-2.7,1.54-3.69,2.53-.43.39-.83.9-1.21,1.53-.37.63-.49,1.24-.34,1.83.15.59.44,1.02.89,1.28.44.26.94.42,1.48.49s1.11.05,1.71-.04c.59-.09,1.11-.19,1.55-.3,1.44-.35,2.97-.79,4.61-1.3,1.63-.51,3.23-.59,4.78-.23.94.23,1.99.62,3.15,1.19,1.17.57,1.88,1.39,2.14,2.46.28,1.13.06,2.12-.63,2.97-.7.86-1.65,1.64-2.85,2.37-1.2.72-2.51,1.41-3.93,2.07-1.42.66-2.74,1.33-3.96,1.99-1.21.67-2.19,1.38-2.91,2.12-.73.75-.97,1.6-.73,2.57.41,1.66,1.3,2.68,2.68,3.05s2.79.38,4.23.03c1.33-.33,2.62-.76,3.86-1.29,1.25-.53,2.48-1.08,3.69-1.63,1.21-.55,2.45-1.08,3.7-1.59,1.25-.51,2.55-.92,3.87-1.25,2.16-.53,4-.62,5.52-.29,1.52.34,2.81,1,3.88,1.99,1.06.99,1.93,2.25,2.59,3.76.66,1.52,1.23,3.21,1.69,5.09,1.09,4.46.92,8.25-.51,11.39-1.43,3.14-3.59,5.8-6.49,7.99s-6.22,3.96-9.96,5.3c-3.75,1.35-7.42,2.46-11.02,3.34-3.15.77-6.25,1.25-9.29,1.42-3.04.18-5.83-.11-8.39-.84-2.56-.74-4.77-2.03-6.63-3.88-1.86-1.85-3.2-4.44-4.02-7.77-.57-2.31-.66-4.49-.29-6.54.38-2.05.83-4.09,1.36-6.1.53-2.01.98-4.07,1.34-6.18s.25-4.37-.34-6.79c-.67-2.74-1.53-5.12-2.59-7.13-1.05-2.02-2.11-3.89-3.18-5.62-1.07-1.73-2.09-3.46-3.07-5.18-.98-1.72-1.73-3.63-2.24-5.72-.61-2.47-.58-4.68.09-6.64.66-1.96,1.75-3.69,3.26-5.2,1.51-1.51,3.32-2.78,5.45-3.81s4.32-1.83,6.59-2.38Z" fill="#f7f797"/>
    <path d="M401.22,86.92c.07.61.7,1.31,1.91,2.13,1.21.82,2.69,1.72,4.46,2.73,1.77,1,3.71,2.12,5.82,3.33s4.07,2.54,5.88,3.95c1.81,1.42,3.37,2.95,4.66,4.59,1.29,1.64,2.04,3.39,2.24,5.26.19,1.76-.07,3.47-.78,5.13-.71,1.66-1.69,3.17-2.95,4.53-1.26,1.36-2.71,2.49-4.36,3.39-1.65.9-3.33,1.44-5.03,1.62-1.08.12-2.17.16-3.29.15-1.12-.02-2.2-.17-3.23-.44-1.03-.28-2-.7-2.89-1.27-.89-.57-1.68-1.35-2.36-2.33-.6-.82-1.18-2.07-1.73-3.73-.55-1.66-1.11-3.48-1.66-5.45-.56-1.97-1.12-4.01-1.69-6.11-.57-2.11-1.19-4-1.86-5.68-.67-1.68-1.39-3.03-2.16-4.06s-1.64-1.49-2.6-1.39c-.96.1-1.75.52-2.36,1.25s-.86,1.57-.76,2.5c.17,1.54.69,2.94,1.57,4.21.88,1.27,1.82,2.5,2.81,3.7.99,1.2,1.92,2.45,2.81,3.74.88,1.29,1.42,2.77,1.59,4.41.21,1.92-.07,3.77-.82,5.55-.75,1.78-1.82,3.35-3.19,4.72-1.37,1.37-2.97,2.5-4.79,3.39-1.82.89-3.67,1.44-5.54,1.64-4.25.46-7.78-.15-10.6-1.82-2.82-1.67-4.5-4.56-5.06-8.67l-.07-.66c-.2-1.81-.09-3.62.32-5.41s.87-3.58,1.4-5.36c.52-1.78.99-3.57,1.4-5.36s.52-3.6.32-5.41c-.26-2.42-.78-4.74-1.57-6.96-.79-2.22-1.64-4.44-2.56-6.64-.92-2.21-1.78-4.44-2.57-6.69-.79-2.25-1.31-4.58-1.57-7-.29-2.75,0-5.32.89-7.72s2.18-4.53,3.87-6.38c1.69-1.85,3.72-3.36,6.09-4.53,2.37-1.17,4.91-1.9,7.63-2.2,3.57-.38,7.21-.23,10.92.45,3.71.69,7.09,1.9,10.15,3.66,3.05,1.76,5.64,4.05,7.75,6.88,2.11,2.83,3.38,6.22,3.8,10.18.32,2.97-.05,5.44-1.09,7.41-1.05,1.98-2.27,3.64-3.68,4.98-1.4,1.35-2.69,2.46-3.85,3.33-1.17.88-1.71,1.7-1.63,2.47ZM381.83,74.5c.07.66.2,1.47.39,2.42.19.95.47,1.84.85,2.66.37.82.88,1.5,1.51,2.05.63.54,1.43.76,2.39.66.74-.08,1.45-.42,2.12-1.02.68-.6,1.29-1.32,1.83-2.16.54-.84.96-1.71,1.26-2.64.3-.92.41-1.74.34-2.46-.08-.77-.32-1.49-.71-2.18-.39-.68-.88-1.27-1.48-1.76-.6-.49-1.27-.87-2.01-1.12-.74-.25-1.48-.34-2.22-.26-1.47.16-2.59.85-3.34,2.07-.76,1.22-1.07,2.46-.93,3.73Z" fill="#f7f797"/>
    <path d="M495.41,48.51c1.47.15,3.15.38,5.04.69,1.89.31,3.83.72,5.84,1.24s3.96,1.16,5.86,1.95c1.89.78,3.56,1.73,4.99,2.85,1.43,1.12,2.54,2.43,3.33,3.93.79,1.5,1.08,3.21.88,5.13-.29,2.75-1.02,4.73-2.21,5.94-1.19,1.21-3.25,1.66-6.2,1.35-1.36-.14-2.61-.48-3.76-1.02-1.15-.54-2.28-1.11-3.38-1.73-1.11-.62-2.24-1.19-3.38-1.73-1.15-.54-2.4-.88-3.76-1.02-1.3-.14-2.52.09-3.64.66-1.12.58-1.74,1.47-1.87,2.68-.11,1.04.62,2.12,2.2,3.23,1.57,1.11,3.57,2.3,5.98,3.58,2.41,1.28,5.02,2.68,7.81,4.19,2.79,1.52,5.36,3.26,7.7,5.22,2.34,1.97,4.23,4.19,5.66,6.68,1.43,2.48,1.98,5.29,1.65,8.42-.52,4.95-1.82,9.18-3.9,12.68-2.08,3.51-4.84,6.29-8.26,8.35-3.42,2.06-7.44,3.45-12.04,4.16s-9.68.78-15.23.2c-3.51-.37-6.85-1.33-10.01-2.88-3.16-1.55-5.9-3.56-8.22-6.03-2.32-2.47-4.09-5.28-5.31-8.43-1.22-3.16-1.64-6.49-1.27-10.01.16-1.48.54-2.99,1.16-4.51.62-1.52,1.45-2.88,2.49-4.07,1.04-1.2,2.29-2.12,3.73-2.78,1.44-.65,3.04-.89,4.8-.71,1.7.18,3.29.69,4.78,1.54,1.49.85,2.95,1.77,4.4,2.75s2.94,1.9,4.48,2.76c1.54.86,3.19,1.38,4.95,1.56,2.61.27,3.99-.33,4.14-1.82.11-1.04-.53-2.08-1.91-3.12-1.38-1.03-3.14-2.16-5.27-3.38-2.14-1.22-4.43-2.57-6.88-4.05-2.45-1.48-4.71-3.17-6.77-5.08-2.06-1.91-3.71-4.08-4.95-6.52-1.24-2.43-1.69-5.19-1.37-8.27.19-1.81.78-3.46,1.76-4.94.99-1.48,2.24-2.79,3.76-3.94s3.24-2.12,5.16-2.92c1.92-.8,3.87-1.43,5.87-1.89,1.99-.46,3.96-.77,5.9-.93,1.94-.16,3.7-.16,5.28,0Z" fill="#f7f797"/>
    <path d="M566.96,60.05c3.04.75,5.77,2.01,8.18,3.78,2.41,1.76,4.49,3.86,6.24,6.28,1.75,2.43,3.16,5.13,4.25,8.1,1.08,2.97,1.85,6.08,2.31,9.33.46,3.25.61,6.53.46,9.85-.15,3.32-.61,6.54-1.38,9.65-1.14,4.62-2.97,8.85-5.48,12.69-2.51,3.85-5.53,7.03-9.06,9.54s-7.5,4.22-11.92,5.12c-4.42.9-9.15.72-14.18-.52-4.31-1.07-8-2.82-11.07-5.26-3.06-2.44-5.44-5.39-7.14-8.86-1.7-3.46-2.71-7.33-3.03-11.6-.32-4.27.09-8.73,1.25-13.4,1.38-5.58,3.45-10.72,6.2-15.42,2.75-4.7,5.95-8.66,9.59-11.89,3.64-3.22,7.59-5.54,11.84-6.93,4.25-1.4,8.56-1.55,12.93-.47ZM550.1,90.47c-.51,2.04-.11,3.93,1.19,5.68,1.3,1.75,3.25,2.94,5.85,3.58,2.32.57,4.31.43,5.96-.45s2.73-2.33,3.24-4.37c.28-1.13.33-2.22.16-3.29s-.53-2.05-1.07-2.96c-.54-.9-1.24-1.68-2.11-2.32-.87-.64-1.88-1.11-3.04-1.39-1.16-.29-2.29-.35-3.38-.2-1.09.16-2.1.48-3.01.96-.91.49-1.7,1.13-2.37,1.93-.67.8-1.13,1.74-1.4,2.81Z" fill="#f7f797"/>
    <path d="M627.56,80.04c2.04.87,3.52,2.12,4.44,3.74.92,1.62,1.51,3.41,1.76,5.35.25,1.94.31,3.95.17,6.02s-.27,4-.38,5.79c-.11,1.79-.1,3.32.03,4.61.13,1.29.64,2.12,1.53,2.5.68.29,1.55.06,2.62-.69,1.06-.75,2.26-1.75,3.61-3.01,1.34-1.26,2.82-2.61,4.43-4.06s3.3-2.71,5.09-3.78c1.79-1.07,3.65-1.79,5.57-2.18,1.93-.38,3.91-.13,5.96.74,1.99.85,3.49,1.92,4.48,3.22,1,1.29,1.57,2.79,1.72,4.47.15,1.69-.06,3.6-.63,5.73-.57,2.13-1.39,4.47-2.48,7.01-.74,1.73-1.25,3.93-1.56,6.59s-.62,5.55-.95,8.65c-.33,3.1-.79,6.33-1.39,9.68-.59,3.35-1.55,6.58-2.87,9.68-1.78,4.17-3.63,7.5-5.55,9.98-1.93,2.48-3.89,4.3-5.9,5.46-2.01,1.15-4.04,1.71-6.11,1.68-2.06-.04-4.14-.5-6.23-1.39-2.15-.92-3.98-2.12-5.48-3.6-1.5-1.48-2.63-3.13-3.37-4.95s-1.09-3.77-1.04-5.85c.05-2.08.54-4.21,1.47-6.4,1.26-2.95,2.56-5.28,3.91-6.99,1.35-1.71,2.68-3.2,4-4.47,1.31-1.27,2.55-2.53,3.7-3.78,1.15-1.25,2.17-2.92,3.06-5,.5-1.17.69-2.17.58-3s-.48-1.38-1.11-1.64c-.58-.25-1.25-.02-2.01.68-.76.7-1.58,1.63-2.44,2.79s-1.78,2.44-2.75,3.83-1.97,2.63-3.02,3.71-2.14,1.9-3.27,2.44c-1.13.54-2.27.56-3.42.07-1.15-.49-1.94-1.34-2.36-2.54s-.64-2.57-.66-4.11c-.02-1.54.09-3.16.35-4.85.26-1.69.49-3.26.7-4.7.21-1.44.34-2.66.4-3.66.05-1-.13-1.59-.55-1.77-.52-.22-1.05-.18-1.59.13-.54.31-1.04.76-1.5,1.34-.47.58-.89,1.24-1.26,1.98-.38.74-.69,1.39-.92,1.95-.87,2.04-1.29,4.03-1.26,6,.03,1.97.17,3.93.41,5.9.24,1.97.39,3.91.45,5.82.05,1.91-.35,3.86-1.19,5.85-.85,1.98-1.93,3.79-3.24,5.42-1.32,1.63-2.94,2.86-4.87,3.69-1.93.83-4.24,1.18-6.91,1.06-2.68-.12-5.77-.93-9.28-2.42-2.25-.96-3.99-2.3-5.21-4.02-1.22-1.72-2.01-3.56-2.38-5.52s-.43-3.94-.17-5.93c.26-1.99.73-3.78,1.4-5.35,1.58-3.71,3.41-7.15,5.47-10.33,2.06-3.17,4.2-6.33,6.41-9.48,2.21-3.14,4.39-6.41,6.54-9.79,2.15-3.38,4.11-7.12,5.86-11.24.78-1.83,1.8-3.39,3.07-4.69,1.26-1.29,2.72-2.28,4.37-2.96,1.65-.68,3.47-.98,5.46-.92,1.98.07,4.08.57,6.28,1.51Z" fill="#f7f797"/>
    <path d="M749.78,127.82c5.9,4.43,10.3,9.62,13.21,15.55,2.9,5.94,4.53,12.12,4.88,18.55.35,6.43-.49,12.83-2.53,19.2-2.04,6.37-5.04,12.2-9.02,17.49-3.69,4.92-7.98,9-12.86,12.26-4.89,3.26-10.06,5.48-15.52,6.66-5.46,1.18-11.01,1.21-16.66.1-5.65-1.12-11.06-3.62-16.24-7.5-2.34-1.76-4.53-3.78-6.55-6.06-2.03-2.28-3.59-4.7-4.68-7.25-1.09-2.55-1.56-5.21-1.41-7.96.15-2.76,1.25-5.49,3.27-8.19,1.3-1.73,2.82-3.41,4.58-5.05,1.75-1.64,3.58-3.29,5.48-4.95s3.73-3.32,5.51-4.99,3.31-3.37,4.61-5.09c1.66-2.21,3.1-4.54,4.31-6.96,1.21-2.43,2.37-4.89,3.47-7.41,1.1-2.51,2.27-4.99,3.5-7.45,1.23-2.45,2.68-4.79,4.34-7,3.97-5.29,8.29-8.32,12.96-9.09,4.66-.76,9.78.94,15.35,5.12ZM742.32,155.16c-1.23-.92-2.45-1.29-3.67-1.11-1.22.18-2.4.65-3.53,1.4-1.13.75-2.18,1.68-3.13,2.78-.96,1.1-1.76,2.08-2.41,2.95-.57.76-1.31,1.77-2.21,3.03-.91,1.27-1.66,2.62-2.27,4.06-.61,1.45-.91,2.84-.92,4.19,0,1.35.57,2.46,1.74,3.33,1.22.92,2.63,1.49,4.21,1.7s3.17.12,4.78-.28c1.61-.4,3.14-1.08,4.61-2.05,1.47-.97,2.75-2.18,3.84-3.64.81-1.08,1.43-2.37,1.86-3.87.43-1.5.63-3.01.61-4.55-.02-1.54-.31-3.02-.85-4.44s-1.43-2.59-2.65-3.51Z" fill="#f7f797"/>
    <path d="M810.17,177.6c3.55,3.44,5.6,6.88,6.17,10.29.56,3.42-.42,6.44-2.96,9.05-1.27,1.31-2.91,2.59-4.9,3.85-2,1.26-4.13,2.61-6.39,4.04-2.26,1.43-4.58,2.97-6.96,4.62-2.38,1.65-4.6,3.54-6.67,5.67-2.26,2.33-3.92,4.86-4.97,7.6-1.06,2.74-2,5.54-2.84,8.4-.84,2.86-1.8,5.69-2.91,8.47-1.11,2.79-2.81,5.42-5.11,7.89l-.35.36c-11.05,11.39-21.63,12.19-31.72,2.4-4.45-4.32-6.91-8.8-7.39-13.46-.48-4.66,1.06-8.97,4.63-12.95l.56-.58c2.07-2.13,4.29-3.74,6.66-4.84,2.37-1.09,4.82-2.17,7.36-3.24,2.54-1.07,5.16-2.31,7.85-3.74s5.41-3.55,8.14-6.36c2.49-2.57,4.42-5.1,5.77-7.6,1.35-2.5,2.52-4.92,3.49-7.27.97-2.35,1.98-4.64,3.03-6.87,1.05-2.23,2.56-4.36,4.54-6.4,3.76-3.88,7.8-5.77,12.12-5.67,4.32.1,8.6,2.21,12.85,6.33Z" fill="#f7f797"/>
    <path d="M796.89,231.87c6-4.71,11.89-8.24,17.67-10.56,5.78-2.33,11.28-3.49,16.53-3.49s10.16,1.16,14.77,3.47c4.61,2.31,8.7,5.74,12.27,10.29,2.19,2.79,3.98,5.64,5.36,8.54,1.38,2.9,2.23,5.69,2.56,8.35.33,2.66.14,5.13-.56,7.41-.7,2.28-2.04,4.19-4,5.73-2.18,1.71-4.9,1.83-8.16.36-3.26-1.47-6.5-4.26-9.73-8.36-1.89-2.41-3.9-4.58-6.01-6.5-2.12-1.92-4.37-3.32-6.77-4.18-2.4-.86-4.94-1.06-7.62-.59s-5.54,1.89-8.56,4.27c-1.27,1-2.29,2.2-3.04,3.59-.76,1.39-1.22,2.88-1.38,4.47-.17,1.59.02,3.26.57,5,.55,1.74,1.47,3.43,2.76,5.07,1.12,1.42,2.42,2.7,3.91,3.83,1.49,1.13,2.98,2.04,4.47,2.73,1.49.69,2.88,1.1,4.19,1.23,1.3.13,2.3-.08,2.99-.62,1.54-1.21,1.02-3.46-1.56-6.74-.73-.93-1.55-1.86-2.45-2.79-.9-.93-1.72-1.86-2.45-2.79-1.59-2.03-2.38-3.77-2.38-5.24,0-1.47.78-2.8,2.32-4.02,1.54-1.21,3.07-1.77,4.6-1.69,1.53.08,2.98.56,4.35,1.43,1.37.87,2.65,1.95,3.83,3.23,1.18,1.29,2.25,2.53,3.19,3.73,3.27,4.16,5.91,7.96,7.91,11.38,2,3.43,3.12,6.73,3.35,9.92.23,3.19-.55,6.32-2.34,9.41-1.79,3.08-4.88,6.36-9.29,9.82-4.52,3.55-9.4,6.1-14.66,7.67-5.26,1.56-10.52,2.11-15.79,1.64-5.27-.47-10.31-1.97-15.14-4.51-4.83-2.54-9.09-6.16-12.79-10.87-3.66-4.65-5.91-9.52-6.77-14.61-.86-5.08-.49-10.2,1.09-15.34,1.58-5.14,4.33-10.24,8.22-15.29,3.89-5.05,8.73-9.85,14.52-14.4Z" fill="#f7f797"/>
  </g>
  <g>
    <path d="M206.64,256.67c-.87-1.57-1.26-3.01-1.16-4.31.1-1.3.51-2.5,1.24-3.61.73-1.1,1.71-2.1,2.94-3,1.23-.9,2.55-1.74,3.97-2.52,2.26-1.25,4.45-2.08,6.58-2.48,2.12-.4,4.1-.42,5.93-.05,1.83.37,3.47,1.07,4.91,2.11,1.44,1.04,2.62,2.39,3.54,4.05.85,1.55,1.49,3.11,1.91,4.7.42,1.58.59,3.09.5,4.51s-.44,2.71-1.07,3.87c-.63,1.15-1.58,2.08-2.86,2.79-.78.43-1.43.73-1.94.91-.51.17-.96.31-1.36.42s-.75.2-1.08.26-.69.21-1.09.44c-.29.16-.48.34-.58.54-.1.2-.14.39-.12.56.02.17.06.33.12.48s.12.26.17.35c.54.98,1.22,1.69,2.03,2.13.81.44,1.65.84,2.52,1.22.87.38,1.75.86,2.64,1.44.88.58,1.67,1.48,2.35,2.72.65,1.18,1.01,2.39,1.06,3.62.06,1.24-.11,2.43-.49,3.58-.39,1.15-.98,2.2-1.78,3.16-.8.96-1.75,1.74-2.85,2.34-1.3.72-2.6,1.15-3.88,1.29-1.29.14-2.51.04-3.67-.32-1.16-.35-2.22-.94-3.19-1.76-.97-.82-1.79-1.86-2.47-3.09-.7-1.27-1.21-2.58-1.53-3.95-.32-1.37-.59-2.74-.83-4.12-.23-1.38-.5-2.74-.81-4.09-.31-1.35-.82-2.68-1.54-3.97-.53-.96-1.15-1.84-1.87-2.66s-1.45-1.62-2.19-2.42c-.75-.8-1.48-1.62-2.2-2.45-.72-.83-1.35-1.72-1.88-2.68ZM223.76,255.8c.9-.5,1.53-1.13,1.88-1.89.35-.76.35-1.47,0-2.12-.34-.62-.9-.99-1.67-1.12-.77-.12-1.53.02-2.29.44-.41.22-.76.51-1.06.86s-.53.72-.7,1.1-.25.77-.26,1.16c-.01.39.08.76.26,1.09.31.56.82.89,1.54.99s1.48-.08,2.29-.52Z" fill="#f7f797"/>
    <path d="M249.88,224.84c-1.15.51-2.35.9-3.59,1.15s-2.45.3-3.61.13c-1.16-.17-2.23-.59-3.2-1.26-.97-.68-1.76-1.69-2.36-3.04-.47-1.06-.66-2.14-.58-3.25.08-1.11.38-2.17.9-3.17s1.18-1.91,2-2.71,1.73-1.43,2.73-1.88c1.15-.51,2.41-.95,3.77-1.31,1.36-.36,2.68-.51,3.96-.45,1.28.06,2.47.42,3.58,1.07,1.11.65,1.99,1.72,2.66,3.22.67,1.5.92,2.85.74,4.05s-.61,2.28-1.31,3.22-1.56,1.77-2.57,2.47c-1.01.7-2.05,1.28-3.11,1.75ZM244.67,270.03c-.46-1.03-.66-2.14-.6-3.35.06-1.21.24-2.44.53-3.69.29-1.26.65-2.49,1.07-3.7s.75-2.32.99-3.34c.4-1.62.57-3.13.51-4.53-.06-1.4-.24-2.72-.54-3.96-.3-1.24-.66-2.4-1.1-3.5-.43-1.09-.83-2.13-1.21-3.13-.37-.99-.66-1.94-.86-2.84-.2-.89-.2-1.77,0-2.63.22-.98.58-1.88,1.1-2.71.52-.83,1.14-1.6,1.86-2.3.72-.71,1.51-1.34,2.36-1.9.86-.56,1.74-1.04,2.65-1.44,1.33-.59,2.64-.97,3.94-1.12,1.29-.15,2.59.09,3.89.74.65.31,1.33.85,2.05,1.62.72.77,1.47,1.6,2.25,2.48.78.89,1.57,1.77,2.37,2.64.81.87,1.58,1.58,2.33,2.12,1.11.77,2.21,1.42,3.31,1.93,1.1.51,2.19,1,3.26,1.45,1.07.46,2.12.92,3.15,1.39,1.03.47,2,1.04,2.91,1.71.91.67,1.77,1.47,2.57,2.42.8.95,1.52,2.12,2.14,3.53.56,1.26.92,2.51,1.07,3.75.15,1.23.06,2.38-.29,3.45-.34,1.07-.93,2.05-1.78,2.96-.85.9-1.97,1.67-3.36,2.29-1.76.78-3.36,1.12-4.82,1.02-1.46-.11-2.78-.46-3.96-1.06-1.18-.6-2.24-1.34-3.19-2.22s-1.83-1.7-2.62-2.47-1.53-1.39-2.18-1.85c-.66-.46-1.28-.57-1.85-.31-.12.05-.24.13-.37.22s-.21.2-.26.33c-.55.95-.77,1.98-.64,3.08.13,1.1.38,2.23.75,3.39.37,1.15.75,2.32,1.13,3.51.38,1.18.52,2.34.4,3.46s-.57,2.21-1.38,3.25c-.8,1.04-2.19,2.01-4.16,2.88-3.12,1.39-5.84,1.81-8.17,1.27-2.33-.54-4.09-2.15-5.28-4.82ZM246.06,215.41c-.61.27-1.11.67-1.51,1.2-.4.53-.47,1.09-.21,1.68.28.62.71.94,1.3.97.6.04,1.15-.06,1.67-.29.24-.11.52-.27.82-.47s.6-.43.87-.68c.27-.24.48-.51.63-.78.15-.28.16-.55.05-.81-.3-.68-.82-1.05-1.56-1.12s-1.43.03-2.06.31ZM255,245.1c.2.44.48.77.85.99.37.22.78.35,1.23.38.45.03.91,0,1.38-.09s.9-.22,1.29-.39c.36-.16.74-.38,1.14-.67.4-.28.74-.61,1.03-.99.29-.37.49-.76.6-1.16.11-.4.07-.82-.13-1.26-.18-.41-.47-.79-.87-1.14-.39-.35-.85-.64-1.37-.87s-1.06-.35-1.64-.38c-.57-.03-1.12.08-1.63.3-.54.24-.98.58-1.3,1-.32.43-.55.89-.71,1.4-.15.51-.22,1.01-.2,1.51.02.5.13.96.31,1.37Z" fill="#f7f797"/>
    <path d="M296.97,216.45c-.67-2.38-.7-4.43-.1-6.15s2.02-2.89,4.25-3.52c1.44-.4,2.92-.35,4.46.15,1.53.51,2.82,1.5,3.85,2.98.47.7.95,1.53,1.42,2.48.47.95.93,1.96,1.38,3.02s.9,2.12,1.35,3.18c.45,1.06.91,2.04,1.37,2.95.35.64.73,1.27,1.13,1.91.4.64.81,1.18,1.23,1.63.42.45.85.8,1.3,1.04.45.24.88.3,1.29.19.57-.16,1-.66,1.28-1.51.28-.85.46-1.86.54-3.05.08-1.19.07-2.46-.03-3.8-.1-1.34-.25-2.56-.46-3.67-.26-1.43-.48-2.93-.64-4.5-.17-1.57-.17-2.93,0-4.08.15-1.31.61-2.48,1.39-3.52.78-1.04,2.15-1.83,4.13-2.38.86-.24,1.72-.35,2.56-.34.85.01,1.63.19,2.36.52s1.38.85,1.96,1.55,1.02,1.62,1.33,2.73c.49,1.76.69,3.51.59,5.24-.1,1.73-.33,3.4-.69,5-.36,1.6-.74,3.13-1.14,4.6-.4,1.46-.67,2.81-.8,4.05-.04.71-.05,1.5-.04,2.36.02.86.06,1.74.12,2.64.06.9.12,1.79.18,2.68s.09,1.71.1,2.48c0,1.57-.09,3.06-.25,4.47-.16,1.41-.51,2.71-1.05,3.9-.54,1.19-1.32,2.21-2.34,3.08-1.01.87-2.38,1.54-4.1,2.02-1.72.48-3.26.62-4.61.41s-2.56-.7-3.63-1.46c-1.08-.77-2.04-1.77-2.91-3.02-.86-1.24-1.71-2.65-2.52-4.22-.51-.96-.95-1.82-1.32-2.58-.37-.77-.72-1.47-1.06-2.13-.34-.66-.68-1.28-1.04-1.86-.35-.58-.74-1.15-1.17-1.7-1.23-1.56-2.35-2.9-3.37-4.01-1.02-1.12-1.93-2.17-2.74-3.16-.81-.99-1.51-2-2.11-3.02-.59-1.02-1.08-2.21-1.46-3.57Z" fill="#f7f797"/>
    <path d="M345.91,195.41c2.24-.43,4.34-.76,6.29-.97,1.95-.21,3.67-.24,5.17-.09,1.5.15,2.73.54,3.7,1.18.96.63,1.57,1.56,1.8,2.79.23,1.17.19,2.15-.11,2.95-.3.79-.78,1.47-1.43,2.02-.65.55-1.42,1.01-2.31,1.38-.89.37-1.8.72-2.73,1.07-.93.34-1.83.7-2.7,1.06s-1.61.82-2.22,1.36c-.26.21-.51.5-.74.86-.24.36-.32.71-.25,1.05.07.35.23.6.48.77.25.16.53.27.85.33.31.05.65.06.99.03s.65-.08.91-.13c.85-.16,1.75-.37,2.71-.62.96-.25,1.89-.25,2.78,0,.54.16,1.14.42,1.8.78.66.36,1.05.86,1.17,1.49.13.66-.02,1.23-.45,1.71-.43.48-1.01.91-1.72,1.29-.72.38-1.5.75-2.34,1.09-.84.34-1.63.69-2.35,1.04-.73.35-1.31.74-1.75,1.15-.44.41-.61.9-.5,1.47.19.98.68,1.6,1.47,1.85.79.26,1.61.3,2.46.14.78-.15,1.54-.36,2.28-.64.74-.27,1.47-.55,2.19-.84.72-.29,1.45-.56,2.2-.82.74-.26,1.51-.46,2.29-.61,1.27-.25,2.34-.25,3.21,0,.87.24,1.6.66,2.2,1.27.59.61,1.05,1.36,1.4,2.26.34.9.62,1.9.83,3,.51,2.62.3,4.82-.62,6.6-.92,1.78-2.25,3.27-4,4.46-1.74,1.19-3.72,2.12-5.94,2.79s-4.38,1.21-6.49,1.62c-1.85.36-3.67.54-5.43.56-1.77.01-3.38-.23-4.85-.73-1.46-.5-2.71-1.32-3.74-2.44-1.03-1.13-1.73-2.67-2.11-4.62-.26-1.36-.25-2.63.02-3.81.28-1.18.6-2.35.97-3.5.37-1.15.69-2.33.96-3.55s.27-2.53,0-3.95c-.31-1.61-.74-3.02-1.29-4.22-.55-1.2-1.12-2.32-1.69-3.36-.57-1.04-1.12-2.07-1.64-3.1-.52-1.03-.9-2.16-1.14-3.39-.28-1.45-.2-2.73.24-3.85.44-1.12,1.12-2.09,2.04-2.92.92-.83,2.01-1.52,3.27-2.05,1.26-.54,2.56-.94,3.89-1.2Z" fill="#f7f797"/>
    <path d="M395.71,211.73c.04.35.41.76,1.11,1.24.7.47,1.57,1,2.6,1.58,1.03.58,2.16,1.23,3.38,1.93,1.23.71,2.37,1.47,3.42,2.29,1.06.82,1.96,1.71,2.71,2.66.75.95,1.19,1.97,1.31,3.06.11,1.02-.04,2.02-.45,2.98-.41.96-.98,1.84-1.71,2.63-.73.79-1.58,1.45-2.54,1.97-.96.52-1.93.84-2.92.95-.63.07-1.26.1-1.92.09s-1.28-.09-1.88-.26c-.6-.16-1.16-.41-1.68-.74-.52-.33-.98-.78-1.37-1.35-.35-.48-.69-1.2-1.01-2.17-.32-.97-.65-2.02-.97-3.17-.33-1.14-.65-2.33-.99-3.55s-.7-2.32-1.08-3.3c-.39-.97-.81-1.76-1.26-2.36-.45-.6-.95-.87-1.51-.8s-1.02.3-1.37.73c-.35.43-.5.91-.44,1.46.1.89.4,1.71.92,2.45.51.74,1.06,1.45,1.63,2.15.58.7,1.12,1.42,1.64,2.17.52.75.83,1.61.93,2.57.12,1.12-.04,2.19-.47,3.23-.44,1.03-1.05,1.95-1.85,2.75-.8.8-1.72,1.46-2.78,1.98-1.06.52-2.13.84-3.22.96-2.47.27-4.52-.08-6.16-1.05s-2.62-2.65-2.95-5.04l-.04-.38c-.12-1.05-.05-2.1.18-3.15.24-1.04.5-2.08.81-3.12s.57-2.08.81-3.12c.24-1.04.3-2.09.18-3.15-.15-1.4-.46-2.75-.92-4.04-.46-1.29-.96-2.58-1.5-3.86-.54-1.28-1.04-2.58-1.5-3.89-.46-1.31-.77-2.66-.92-4.07-.17-1.6,0-3.09.51-4.49.51-1.4,1.26-2.63,2.24-3.71.98-1.08,2.16-1.96,3.54-2.64,1.38-.68,2.85-1.11,4.43-1.28,2.08-.23,4.19-.14,6.35.25,2.16.39,4.13,1.1,5.91,2.12,1.78,1.02,3.28,2.35,4.51,3.99s1.97,3.62,2.22,5.92c.19,1.72-.02,3.16-.63,4.31-.61,1.15-1.32,2.12-2.13,2.9-.81.79-1.56,1.43-2.24,1.94-.68.51-.99.99-.94,1.44ZM384.43,204.53c.04.38.12.85.23,1.4.11.55.27,1.07.49,1.55.22.48.51.88.88,1.19.37.32.83.44,1.39.38.43-.05.84-.24,1.24-.6.39-.35.75-.77,1.06-1.25s.56-1,.73-1.54c.17-.54.24-1.01.19-1.43-.05-.45-.19-.87-.41-1.26-.23-.4-.51-.74-.86-1.02-.35-.29-.74-.5-1.17-.65s-.86-.2-1.29-.15c-.86.09-1.5.5-1.94,1.21-.44.71-.62,1.43-.54,2.17Z" fill="#f7f797"/>
    <path d="M420.39,186.57c3.51-.09,6.68.54,9.52,1.89s5.27,3.18,7.3,5.47c2.03,2.29,3.61,4.93,4.73,7.9,1.12,2.98,1.72,6.04,1.81,9.19.08,2.92-.31,5.71-1.17,8.37-.86,2.66-2.13,5.02-3.82,7.07-1.69,2.05-3.75,3.71-6.18,4.96-2.44,1.25-5.19,1.92-8.27,2-1.39.04-2.8-.07-4.23-.32s-2.73-.69-3.89-1.32-2.12-1.48-2.88-2.55c-.76-1.07-1.16-2.41-1.2-4.02-.03-1.03.04-2.11.21-3.24.17-1.13.36-2.28.58-3.46.22-1.18.41-2.34.58-3.49.17-1.15.24-2.23.21-3.26-.04-1.32-.19-2.61-.45-3.87-.27-1.26-.56-2.53-.9-3.79-.33-1.26-.63-2.53-.9-3.81s-.42-2.58-.45-3.89c-.08-3.15.63-5.55,2.15-7.22,1.51-1.66,3.93-2.54,7.24-2.62ZM425.68,198.97c-.73.02-1.29.24-1.7.67-.4.43-.7.95-.9,1.57s-.31,1.27-.35,1.96c-.03.69-.04,1.3-.03,1.81.01.45.04,1.04.07,1.78.04.74.15,1.47.36,2.19.2.72.5,1.33.89,1.83.39.51.94.75,1.63.73.73-.02,1.42-.22,2.07-.61.65-.38,1.22-.89,1.7-1.52.48-.62.85-1.33,1.11-2.13.26-.79.38-1.62.36-2.49-.02-.64-.17-1.3-.45-1.99-.28-.68-.66-1.31-1.12-1.88-.46-.57-1.01-1.03-1.63-1.4-.62-.37-1.3-.54-2.03-.53Z" fill="#f7f797"/>
    <path d="M458.63,186.5c2.28.12,4.4.31,6.34.57,1.94.26,3.62.65,5.04,1.16s2.52,1.19,3.3,2.03c.79.85,1.15,1.89,1.08,3.15-.06,1.19-.33,2.13-.82,2.83-.48.7-1.11,1.24-1.88,1.62s-1.62.64-2.58.78c-.95.14-1.92.27-2.91.38-.98.11-1.95.24-2.88.38-.94.14-1.76.41-2.48.79-.31.15-.62.36-.93.65s-.48.61-.5.96c-.02.35.07.64.28.86.2.22.45.39.74.52.29.13.61.22.96.27s.65.08.92.1c.86.04,1.79.06,2.78.05,1-.01,1.9.21,2.7.67.48.28,1,.68,1.55,1.19.55.51.81,1.09.78,1.73-.04.67-.32,1.19-.85,1.55-.53.36-1.2.64-1.98.84-.79.2-1.64.37-2.54.5s-1.75.28-2.54.45-1.45.4-1.98.69c-.53.29-.81.73-.84,1.31-.05.99.28,1.71.98,2.15s1.49.68,2.35.73c.79.04,1.58.02,2.37-.07s1.56-.19,2.33-.29c.77-.11,1.54-.19,2.33-.27.78-.07,1.57-.09,2.37-.05,1.29.07,2.33.32,3.12.77s1.4,1.03,1.82,1.76c.43.73.7,1.57.81,2.53.12.96.15,1.99.09,3.12-.14,2.67-.87,4.75-2.19,6.26s-2.97,2.63-4.95,3.36-4.12,1.16-6.44,1.28-4.54.12-6.69.01c-1.88-.1-3.69-.35-5.41-.76-1.72-.41-3.23-1.04-4.53-1.88s-2.31-1.93-3.04-3.27c-.73-1.34-1.04-3.01-.93-5,.07-1.38.38-2.61.94-3.69.55-1.08,1.15-2.14,1.78-3.17s1.23-2.1,1.78-3.21c.55-1.11.87-2.39.95-3.84.09-1.64,0-3.11-.24-4.41-.25-1.3-.52-2.52-.83-3.66s-.59-2.28-.84-3.4c-.26-1.12-.35-2.31-.29-3.56.08-1.47.46-2.7,1.16-3.68.7-.98,1.59-1.76,2.69-2.35,1.09-.59,2.32-.99,3.67-1.21,1.36-.22,2.71-.29,4.07-.22Z" fill="#f7f797"/>
    <path d="M490.91,190.24c1.41.19,2.48.61,3.21,1.26s1.2,1.67,1.42,3.06c.07.46.19,1.16.37,2.09.17.93.4,1.98.68,3.13.28,1.16.59,2.35.95,3.58.35,1.23.74,2.36,1.17,3.39.43,1.03.89,1.89,1.38,2.57.49.68,1.02,1.06,1.58,1.14.39.05.76-.1,1.09-.46s.61-.8.83-1.32c.22-.52.4-1.05.54-1.58.14-.53.23-.93.26-1.18.12-.86.13-1.72.05-2.6-.08-.87-.18-1.73-.3-2.59-.12-.86-.22-1.71-.31-2.55s-.07-1.69.04-2.55c.26-1.91,1.01-3.24,2.25-4,1.24-.76,2.81-1.01,4.71-.75.69.09,1.38.33,2.06.71s1.28.87,1.78,1.46c.51.59.9,1.22,1.17,1.91s.36,1.39.26,2.13c-.3,2.2-.72,4.35-1.27,6.44-.55,2.1-.97,4.25-1.27,6.45-.19,1.4-.21,2.79-.06,4.17.15,1.38.34,2.77.57,4.16.23,1.39.42,2.77.57,4.14.15,1.37.13,2.75-.06,4.15-.19,1.37-.51,2.63-.96,3.79s-1.06,2.13-1.8,2.92c-.74.79-1.64,1.37-2.69,1.73-1.05.36-2.28.45-3.7.25-1.38-.19-2.55-.63-3.5-1.35s-1.73-1.58-2.31-2.6c-.58-1.02-.97-2.14-1.17-3.37-.2-1.23-.22-2.45-.06-3.66.11-.83.09-1.89-.07-3.17-.16-1.29-.42-2.56-.76-3.82-.35-1.26-.78-2.36-1.31-3.29-.53-.93-1.08-1.44-1.68-1.52-.29-.04-.54.02-.72.17-.19.15-.35.36-.48.62-.13.26-.23.53-.29.81-.06.29-.1.52-.12.71-.12.86-.07,1.73.15,2.6.22.87.46,1.76.72,2.68.26.91.49,1.87.69,2.89.2,1.02.22,2.11.06,3.29-.15,1.15-.49,2.21-1,3.17-.52.97-1.17,1.79-1.96,2.46-.79.67-1.72,1.15-2.78,1.45-1.06.29-2.21.36-3.46.19-1.18-.16-2.24-.53-3.18-1.11-.94-.58-1.73-1.3-2.37-2.14-.64-.85-1.1-1.8-1.39-2.86-.29-1.06-.36-2.17-.21-3.31.26-1.91.69-3.76,1.3-5.56.61-1.8,1.24-3.59,1.9-5.36.66-1.78,1.29-3.56,1.9-5.36.61-1.8,1.04-3.64,1.3-5.52.19-1.43.23-2.86.1-4.27-.13-1.41-.11-2.69.04-3.84.21-1.56.92-2.67,2.13-3.31,1.21-.65,2.55-.87,4.03-.67Z" fill="#f7f797"/>
    <path d="M539.69,197.92c.84.19,1.79.44,2.86.74,1.07.31,2.17.68,3.29,1.11,1.12.44,2.21.94,3.25,1.52s1.94,1.24,2.69,1.99c.75.75,1.3,1.58,1.65,2.5.35.92.41,1.93.16,3.03-.35,1.57-.91,2.66-1.68,3.28-.77.62-1.99.74-3.67.36-.78-.17-1.48-.46-2.1-.84-.63-.39-1.24-.8-1.84-1.23-.6-.43-1.21-.84-1.84-1.23-.62-.39-1.33-.67-2.1-.84-.74-.17-1.46-.12-2.14.13-.69.26-1.11.73-1.26,1.42-.13.6.21,1.27,1.05,2.02.83.75,1.9,1.57,3.21,2.48,1.31.9,2.72,1.89,4.23,2.95,1.51,1.06,2.87,2.24,4.09,3.54,1.22,1.29,2.16,2.71,2.82,4.24.66,1.53.78,3.19.38,4.98-.63,2.82-1.67,5.18-3.12,7.06-1.44,1.88-3.22,3.3-5.34,4.26-2.12.96-4.53,1.48-7.23,1.58-2.71.1-5.64-.21-8.81-.92-2-.45-3.87-1.23-5.59-2.34-1.72-1.11-3.16-2.46-4.34-4.04-1.17-1.58-2-3.33-2.49-5.23-.49-1.91-.51-3.86-.05-5.87.19-.85.51-1.69.97-2.52.46-.84,1.03-1.56,1.71-2.18.68-.62,1.46-1.07,2.34-1.35.88-.28,1.82-.31,2.82-.08.97.22,1.85.62,2.66,1.22s1.58,1.22,2.35,1.89c.77.67,1.57,1.3,2.4,1.9.83.6,1.75,1.01,2.75,1.24,1.49.33,2.33.08,2.52-.77.13-.6-.16-1.24-.89-1.93-.73-.69-1.67-1.46-2.82-2.31-1.15-.85-2.38-1.79-3.7-2.81-1.32-1.02-2.5-2.15-3.56-3.4-1.06-1.24-1.87-2.61-2.41-4.1-.55-1.49-.62-3.11-.23-4.87.23-1.03.68-1.95,1.35-2.73.67-.79,1.48-1.46,2.44-2.02.96-.56,2.02-1,3.18-1.33,1.16-.33,2.33-.56,3.52-.69,1.18-.13,2.34-.17,3.47-.13,1.13.04,2.15.16,3.05.37Z" fill="#f7f797"/>
    <path d="M561.57,209.94c.54-1.72,1.31-2.99,2.31-3.82,1-.83,2.16-1.36,3.46-1.6,1.3-.23,2.7-.21,4.2.05,1.5.27,3.02.64,4.57,1.12,2.47.77,4.58,1.78,6.34,3.04s3.14,2.67,4.14,4.25c1,1.57,1.62,3.24,1.88,5,.25,1.76.09,3.55-.47,5.36-.53,1.69-1.22,3.23-2.07,4.63-.85,1.4-1.82,2.56-2.91,3.49-1.09.92-2.27,1.56-3.54,1.9-1.27.34-2.6.3-3.99-.13-.85-.27-1.52-.53-2-.78-.48-.25-.89-.48-1.24-.69-.35-.21-.66-.41-.93-.6-.27-.19-.63-.35-1.07-.49-.32-.1-.58-.11-.79-.04-.21.07-.37.17-.48.3-.11.13-.2.28-.26.42-.06.15-.11.27-.14.36-.33,1.07-.38,2.05-.14,2.94.24.88.53,1.77.86,2.67.33.89.59,1.86.79,2.9.2,1.04.08,2.23-.34,3.58-.4,1.29-1.03,2.38-1.88,3.28-.85.9-1.83,1.6-2.93,2.12-1.1.52-2.27.82-3.51.9s-2.46-.06-3.66-.44c-1.42-.45-2.63-1.08-3.62-1.91-.99-.83-1.76-1.79-2.31-2.87s-.86-2.25-.93-3.52c-.07-1.27.1-2.58.52-3.93.43-1.38,1.03-2.66,1.79-3.83.76-1.17,1.57-2.32,2.4-3.44.83-1.12,1.63-2.26,2.39-3.42.76-1.16,1.36-2.44,1.8-3.86.33-1.04.54-2.11.63-3.19.09-1.08.17-2.17.24-3.26.06-1.09.14-2.19.24-3.28.1-1.1.31-2.17.64-3.21ZM574.03,221.71c.98.3,1.87.32,2.67.05.8-.27,1.3-.76,1.53-1.47.21-.67.09-1.33-.35-1.98-.44-.64-1.07-1.09-1.9-1.35-.44-.14-.89-.19-1.35-.17-.46.03-.89.11-1.28.26-.39.15-.73.35-1.02.61-.29.26-.49.58-.61.95-.19.61-.08,1.21.35,1.8.42.59,1.08,1.02,1.96,1.29Z" fill="#f7f797"/>
    <path d="M591.55,220.72c.51-1.28,1.14-2.31,1.9-3.09.75-.77,1.59-1.33,2.51-1.67.92-.34,1.91-.47,2.96-.38,1.05.09,2.12.35,3.19.78,1.11.44,2.06,1,2.86,1.68.8.68,1.41,1.44,1.83,2.26.42.82.66,1.69.71,2.59.05.9-.1,1.79-.44,2.65-.37.93-.96,1.8-1.76,2.62-.81.82-1.68,1.67-2.62,2.56-.94.89-1.87,1.86-2.77,2.92-.9,1.06-1.63,2.29-2.19,3.69-.75,1.88-.94,3.57-.57,5.06.37,1.5,1.23,2.51,2.58,3.05,1.02.4,1.96.44,2.84.12.88-.32,1.76-.73,2.64-1.2.89-.48,1.79-.87,2.71-1.18.92-.31,1.93-.25,3,.18,1.63.65,2.61,1.89,2.93,3.73.32,1.84-.04,4.07-1.09,6.7-1.91,4.81-4.91,7.76-8.98,8.85-4.07,1.09-9.11.45-15.11-1.95-1.91-.76-3.48-1.55-4.72-2.37-1.24-.82-2.17-1.71-2.79-2.67-.62-.96-.94-2.01-.96-3.16-.02-1.15.23-2.44.76-3.85l.18-.45c.45-1.13,1.01-2.28,1.69-3.43.67-1.15,1.36-2.32,2.07-3.51.71-1.19,1.41-2.39,2.1-3.6.7-1.21,1.28-2.41,1.76-3.61.48-1.2.8-2.35.98-3.47.18-1.12.33-2.23.46-3.32s.28-2.18.45-3.27.47-2.19.91-3.29Z" fill="#f7f797"/>
    <path d="M611.36,259.71c.51-1,1.25-1.86,2.23-2.57.98-.71,2.04-1.35,3.21-1.91,1.16-.56,2.34-1.06,3.55-1.49,1.21-.43,2.28-.88,3.22-1.33,1.51-.71,2.79-1.52,3.84-2.45,1.05-.93,1.96-1.89,2.74-2.9.78-1.01,1.45-2.03,2.03-3.05.58-1.02,1.14-1.99,1.68-2.9s1.1-1.73,1.67-2.45,1.25-1.27,2.05-1.66c.9-.45,1.83-.73,2.8-.84.97-.12,1.96-.12,2.96,0,1,.11,1.99.33,2.96.65s1.9.7,2.79,1.15c1.3.66,2.41,1.45,3.34,2.36.93.91,1.55,2.08,1.87,3.5.16.7.18,1.57.03,2.62s-.32,2.15-.52,3.31-.39,2.33-.56,3.5c-.17,1.18-.24,2.23-.19,3.15.09,1.35.29,2.61.58,3.79.29,1.18.6,2.33.92,3.45.32,1.12.62,2.23.9,3.33.28,1.1.44,2.21.5,3.34.06,1.13-.03,2.3-.26,3.52-.23,1.22-.7,2.51-1.4,3.89-.63,1.23-1.38,2.29-2.24,3.19-.87.89-1.82,1.54-2.86,1.95-1.04.41-2.18.56-3.42.47s-2.54-.48-3.89-1.18c-1.71-.87-2.99-1.91-3.82-3.11-.84-1.21-1.39-2.45-1.66-3.74-.27-1.29-.36-2.58-.28-3.88.08-1.29.17-2.49.27-3.6.1-1.1.12-2.06.07-2.86-.05-.8-.36-1.35-.92-1.63-.12-.06-.25-.11-.4-.15-.15-.04-.29-.04-.42,0-1.09.17-2.02.65-2.8,1.44-.78.79-1.5,1.7-2.17,2.71s-1.34,2.04-2.02,3.08c-.68,1.04-1.5,1.87-2.44,2.49s-2.08.94-3.4.97c-1.32.03-2.94-.45-4.85-1.42-3.04-1.55-5.08-3.4-6.12-5.56s-.89-4.53.44-7.14ZM637.24,252.08c-.22.43-.3.86-.24,1.29s.22.83.48,1.19c.26.37.57.71.93,1.02.36.31.73.56,1.12.76.35.18.77.34,1.24.47s.94.19,1.41.18c.47-.01.9-.1,1.28-.27.38-.17.68-.46.9-.89.2-.4.32-.87.35-1.39.03-.53-.04-1.06-.18-1.61-.15-.55-.39-1.05-.73-1.51-.34-.46-.76-.82-1.26-1.08-.53-.27-1.06-.4-1.59-.38-.53.02-1.04.13-1.53.33-.49.2-.93.47-1.3.8s-.66.7-.87,1.1Z" fill="#f7f797"/>
    <path d="M678.61,254.38c1.2.77,2,1.6,2.38,2.5.39.9.39,2.02,0,3.37-.13.45-.31,1.14-.55,2.05-.23.92-.47,1.96-.7,3.13-.24,1.17-.45,2.38-.65,3.65s-.32,2.46-.37,3.57c-.05,1.12.01,2.09.17,2.91.16.83.48,1.39.95,1.7.34.21.73.23,1.18.04.45-.19.89-.47,1.31-.85.42-.38.8-.78,1.15-1.21.35-.42.59-.74.73-.96.47-.73.85-1.51,1.14-2.33.29-.82.56-1.65.82-2.48.25-.83.52-1.64.79-2.44s.64-1.56,1.11-2.29c1.04-1.62,2.28-2.52,3.72-2.68,1.44-.17,2.97.27,4.59,1.3.59.38,1.11.88,1.57,1.52s.79,1.33,1,2.07c.21.75.3,1.49.26,2.23-.04.74-.26,1.42-.66,2.04-1.19,1.87-2.48,3.64-3.87,5.31-1.38,1.67-2.67,3.44-3.87,5.31-.76,1.19-1.37,2.44-1.82,3.76s-.86,2.65-1.24,4.01c-.38,1.36-.79,2.69-1.23,3.99-.44,1.3-1.04,2.55-1.8,3.74-.75,1.16-1.57,2.17-2.47,3.03-.9.86-1.85,1.48-2.86,1.89-1.01.4-2.06.55-3.17.43s-2.26-.56-3.46-1.32c-1.17-.75-2.04-1.65-2.61-2.7-.57-1.05-.9-2.16-1-3.33-.1-1.17.02-2.35.35-3.55.33-1.2.83-2.31,1.49-3.34.45-.7.87-1.67,1.27-2.91.4-1.23.7-2.5.92-3.79.22-1.29.28-2.47.2-3.54-.09-1.06-.38-1.76-.88-2.08-.25-.16-.5-.21-.73-.15-.24.06-.47.18-.7.36-.23.18-.43.38-.6.62-.17.23-.31.43-.41.6-.47.73-.79,1.54-.96,2.42-.17.88-.33,1.79-.48,2.73-.15.94-.34,1.91-.59,2.91-.25,1-.7,2.01-1.33,3.01-.62.97-1.37,1.79-2.25,2.46-.88.66-1.81,1.13-2.82,1.4-1,.27-2.05.32-3.13.14-1.09-.18-2.16-.61-3.22-1.29-1-.64-1.81-1.43-2.42-2.35-.61-.92-1.02-1.9-1.25-2.94-.22-1.04-.24-2.1-.06-3.18.18-1.09.59-2.12,1.21-3.09,1.04-1.62,2.21-3.12,3.53-4.5,1.31-1.37,2.64-2.73,3.98-4.06s2.67-2.69,3.98-4.06c1.31-1.37,2.48-2.86,3.5-4.46.78-1.22,1.41-2.49,1.89-3.83.48-1.33,1.03-2.49,1.65-3.46.85-1.33,1.96-2.03,3.32-2.11s2.68.28,3.94,1.09Z" fill="#f7f797"/>
  </g>
</svg>