<?xml version="1.0" encoding="UTF-8"?>
<svg id="Layer_2" xmlns="http://www.w3.org/2000/svg" viewBox="0 0 931.47 381.12">
  <g>
    <text transform="translate(83.9 291.81) rotate(-49.51) scale(1.03 1)" fill="#f7f797" font-family="SuperFunky, &apos;Super Funky&apos;" font-size="82.91"><tspan x="0" y="0">K</tspan></text>
    <text transform="translate(121.51 247) rotate(-41.67) scale(1.03 1)" fill="#f7f797" font-family="SuperFunky, &apos;Super Funky&apos;" font-size="82.91"><tspan x="0" y="0">v</tspan></text>
    <text transform="translate(172.12 203.06) rotate(-35.2) scale(1.03 1)" fill="#f7f797" font-family="SuperFunky, &apos;Super Funky&apos;" font-size="82.91"><tspan x="0" y="0">i</tspan></text>
    <text transform="translate(199.77 182.5) rotate(-28.96) scale(1.03 1)" fill="#f7f797" font-family="SuperFunky, &apos;Super Funky&apos;" font-size="82.91"><tspan x="0" y="0">n</tspan></text>
    <text transform="translate(254.47 152.26) rotate(-21.2) scale(1.03 1)" fill="#f7f797" font-family="SuperFunky, &apos;Super Funky&apos;" font-size="82.91"><tspan x="0" y="0">d</tspan></text>
    <text transform="translate(308.47 131.22) rotate(-13.78) scale(1.03 1)" fill="#f7f797" font-family="SuperFunky, &apos;Super Funky&apos;" font-size="82.91"><tspan x="0" y="0">e</tspan></text>
    <text transform="translate(363.59 117.4) rotate(-6.15) scale(1.03 1)" fill="#f7f797" font-family="SuperFunky, &apos;Super Funky&apos;" font-size="82.91"><tspan x="0" y="0">r</tspan></text>
    <text transform="translate(425.41 111.69) rotate(-.93) scale(1.03 1)" fill="#f7f797" font-family="SuperFunky, &apos;Super Funky&apos;" font-size="82.91"><tspan x="0" y="0"> </tspan></text>
    <text transform="translate(458.17 110.47) rotate(5.97) scale(1.03 1)" fill="#f7f797" font-family="SuperFunky, &apos;Super Funky&apos;" font-size="82.91"><tspan x="0" y="0">s</tspan></text>
    <text transform="translate(519 116.5) rotate(13.91) scale(1.03 1)" fill="#f7f797" font-family="SuperFunky, &apos;Super Funky&apos;" font-size="82.91"><tspan x="0" y="0">o</tspan></text>
    <text transform="translate(581.33 131.17) rotate(23.09) scale(1.03 1)" fill="#f7f797" font-family="SuperFunky, &apos;Super Funky&apos;" font-size="82.91"><tspan x="0" y="0">m</tspan></text>
    <text transform="translate(653.05 163.19) rotate(30.23) scale(1.03 1)" fill="#f7f797" font-family="SuperFunky, &apos;Super Funky&apos;" font-size="82.91"><tspan x="0" y="0"> </tspan></text>
    <text transform="translate(681.8 178.53) rotate(36.89) scale(1.03 1)" fill="#f7f797" font-family="SuperFunky, &apos;Super Funky&apos;" font-size="101.33"><tspan x="0" y="0">d</tspan></text>
    <text transform="translate(738.32 221.96) rotate(44.14) scale(1.03 1)" fill="#f7f797" font-family="SuperFunky, &apos;Super Funky&apos;" font-size="101.33"><tspan x="0" y="0">i</tspan></text>
    <text transform="translate(769.51 250.33) rotate(51.84) scale(1.03 1)" fill="#f7f797" font-family="SuperFunky, &apos;Super Funky&apos;" font-size="101.33"><tspan x="0" y="0">g</tspan></text>
    <text transform="translate(817.25 312.96) rotate(59.44) scale(1.03 1)" fill="#f7f797" font-family="SuperFunky, &apos;Super Funky&apos;" font-size="101.33"><tspan x="0" y="0"> </tspan></text>
    <text transform="translate(220.01 285.3) rotate(-28.91) scale(1.03 1)" fill="#f7f797" font-family="SuperFunky, &apos;Super Funky&apos;" font-size="48.21"><tspan x="0" y="0">P</tspan></text>
    <text transform="translate(245.04 270.97) rotate(-24.03) scale(1.03 1)" fill="#f7f797" font-family="SuperFunky, &apos;Super Funky&apos;" font-size="48.21"><tspan x="0" y="0">Å</tspan></text>
    <text transform="translate(286.95 252.81) rotate(-19.62) scale(1.03 1)" fill="#f7f797" font-family="SuperFunky, &apos;Super Funky&apos;" font-size="48.21"><tspan x="0" y="0"> </tspan></text>
    <text transform="translate(305.03 245.98) rotate(-15.63) scale(1.03 1)" fill="#f7f797" font-family="SuperFunky, &apos;Super Funky&apos;" font-size="48.21"><tspan x="0" y="0">v</tspan></text>
    <text transform="translate(341.04 235.92) rotate(-10.94) scale(1.03 1)" fill="#f7f797" font-family="SuperFunky, &apos;Super Funky&apos;" font-size="48.21"><tspan x="0" y="0">e</tspan></text>
    <text transform="translate(373.85 229.49) rotate(-6.23) scale(1.03 1)" fill="#f7f797" font-family="SuperFunky, &apos;Super Funky&apos;" font-size="48.21"><tspan x="0" y="0">r</tspan></text>
    <text transform="translate(410.03 225.56) rotate(-1.51) scale(1.03 1)" fill="#f7f797" font-family="SuperFunky, &apos;Super Funky&apos;" font-size="48.21"><tspan x="0" y="0">d</tspan></text>
    <text transform="translate(444.16 224.65) rotate(2.98) scale(1.03 1)" fill="#f7f797" font-family="SuperFunky, &apos;Super Funky&apos;" font-size="48.21"><tspan x="0" y="0">e</tspan></text>
    <text transform="translate(477.57 226.29) rotate(7.69) scale(1.03 1)" fill="#f7f797" font-family="SuperFunky, &apos;Super Funky&apos;" font-size="48.21"><tspan x="0" y="0">n</tspan></text>
    <text transform="translate(513.97 231.16) rotate(12.69) scale(1.03 1)" fill="#f7f797" font-family="SuperFunky, &apos;Super Funky&apos;" font-size="48.21"><tspan x="0" y="0">s</tspan></text>
    <text transform="translate(550.14 239.4) rotate(17.33) scale(1.03 1)" fill="#f7f797" font-family="SuperFunky, &apos;Super Funky&apos;" font-size="48.21"><tspan x="0" y="0">p</tspan></text>
    <text transform="translate(580 248.65) rotate(21.71) scale(1.03 1)" fill="#f7f797" font-family="SuperFunky, &apos;Super Funky&apos;" font-size="48.21"><tspan x="0" y="0">l</tspan></text>
    <text transform="translate(610.86 260.59) rotate(27.05) scale(1.03 1)" fill="#f7f797" font-family="SuperFunky, &apos;Super Funky&apos;" font-size="48.21"><tspan x="0" y="0">a</tspan></text>
    <text transform="translate(651.33 281.45) rotate(32.6) scale(1.03 1)" fill="#f7f797" font-family="SuperFunky, &apos;Super Funky&apos;" font-size="48.21"><tspan x="0" y="0">n</tspan></text>
  </g>
  <g>
    <text transform="translate(991.21 337.96) rotate(-61.54) scale(1.03 1)" fill="#f7f797" font-family="SuperFunky, &apos;Super Funky&apos;" font-size="82"><tspan x="0" y="0">H</tspan></text>
    <text transform="translate(1020.79 282.83) rotate(-53.31) scale(1.03 1)" fill="#f7f797" font-family="SuperFunky, &apos;Super Funky&apos;" font-size="82"><tspan x="0" y="0">V</tspan></text>
    <text transform="translate(1061.06 230.15) rotate(-46.91) scale(1.03 1)" fill="#f7f797" font-family="SuperFunky, &apos;Super Funky&apos;" font-size="82"><tspan x="0" y="0">i</tspan></text>
    <text transform="translate(1083.96 204.76) rotate(-41.15) scale(1.03 1)" fill="#f7f797" font-family="SuperFunky, &apos;Super Funky&apos;" font-size="82"><tspan x="0" y="0">l</tspan></text>
    <text transform="translate(1125.77 167.88) rotate(-33.74) scale(1.03 1)" fill="#f7f797" font-family="SuperFunky, &apos;Super Funky&apos;" font-size="82"><tspan x="0" y="0">k</tspan></text>
    <text transform="translate(1175.83 134.45) rotate(-26.26) scale(1.03 1)" fill="#f7f797" font-family="SuperFunky, &apos;Super Funky&apos;" font-size="82"><tspan x="0" y="0">e</tspan></text>
    <text transform="translate(1226.09 109.3) rotate(-18.64) scale(1.03 1)" fill="#f7f797" font-family="SuperFunky, &apos;Super Funky&apos;" font-size="82"><tspan x="0" y="0">n</tspan></text>
    <text transform="translate(1285.22 90.11) rotate(-12.53) scale(1.03 1)" fill="#f7f797" font-family="SuperFunky, &apos;Super Funky&apos;" font-size="82"><tspan x="0" y="0"> </tspan></text>
    <text transform="translate(1316.65 82.37) rotate(-6.7) scale(1.03 1)" fill="#f7f797" font-family="SuperFunky, &apos;Super Funky&apos;" font-size="82"><tspan x="0" y="0">C</tspan></text>
    <text transform="translate(1374.67 76.14) rotate(-.93) scale(1.03 1)" fill="#f7f797" font-family="SuperFunky, &apos;Super Funky&apos;" font-size="82"><tspan x="0" y="0">i</tspan></text>
    <text transform="translate(1408.77 75) rotate(4.89) scale(1.03 1)" fill="#f7f797" font-family="SuperFunky, &apos;Super Funky&apos;" font-size="82"><tspan x="0" y="0">l</tspan></text>
    <text transform="translate(1464.36 79.63) rotate(12.05) scale(1.03 1)" fill="#f7f797" font-family="SuperFunky, &apos;Super Funky&apos;" font-size="82"><tspan x="0" y="0">l</tspan></text>
    <text transform="translate(1518.93 91.15) rotate(19.29) scale(1.03 1)" fill="#f7f797" font-family="SuperFunky, &apos;Super Funky&apos;" font-size="82"><tspan x="0" y="0">e</tspan></text>
    <text transform="translate(1572.17 110.36) rotate(25.04) scale(1.03 1)" fill="#f7f797" font-family="SuperFunky, &apos;Super Funky&apos;" font-size="82"><tspan x="0" y="0"> </tspan></text>
    <text transform="translate(1601.82 123.46) rotate(30.77) scale(1.03 1)" fill="#f7f797" font-family="SuperFunky, &apos;Super Funky&apos;" font-size="82"><tspan x="0" y="0">e</tspan></text>
    <text transform="translate(1650.28 151.99) rotate(38.29) scale(1.03 1)" fill="#f7f797" font-family="SuperFunky, &apos;Super Funky&apos;" font-size="82"><tspan x="0" y="0">r</tspan></text>
    <text transform="translate(1698.13 190.64) rotate(44.27) scale(1.03 1)" fill="#f7f797" font-family="SuperFunky, &apos;Super Funky&apos;" font-size="82"><tspan x="0" y="0"> </tspan></text>
    <text transform="translate(1721.84 212.76) rotate(50.02) scale(1.03 1)" fill="#f7f797" font-family="SuperFunky, &apos;Super Funky&apos;" font-size="82"><tspan x="0" y="0">d</tspan></text>
    <text transform="translate(1758.86 256.51) rotate(57.62) scale(1.03 1)" fill="#f7f797" font-family="SuperFunky, &apos;Super Funky&apos;" font-size="82"><tspan x="0" y="0">u</tspan></text>
    <text transform="translate(1791.46 308.78) rotate(64.29) scale(1.03 1)" fill="#f7f797" font-family="SuperFunky, &apos;Super Funky&apos;" font-size="82"><tspan x="0" y="0">?</tspan></text>
  </g>
</svg>