<?xml version="1.0" encoding="UTF-8"?>
<svg id="Layer_2" xmlns="http://www.w3.org/2000/svg" viewBox="0 0 950.22 382.16">
  <g>
    <path d="M56.49,296.22c-3.41-1.85-5.98-1.19-7.7,1.98-.97,1.78-1.23,3.42-.79,4.91.44,1.49,1.55,2.71,3.32,3.68,1.15.62,2.41,1.06,3.76,1.32,1.35.25,2.72.45,4.11.59,1.38.14,2.77.35,4.15.61s2.69.74,3.94,1.42c1.59.86,3.15,1.9,4.7,3.12,1.54,1.22,2.78,2.64,3.7,4.27.92,1.62,1.39,3.48,1.41,5.57.02,2.09-.69,4.45-2.11,7.08-1.4,2.58-3.05,4.48-4.97,5.72s-3.92,1.99-6.03,2.26c-2.11.27-4.22.16-6.36-.32s-4.1-1.18-5.91-2.1l-.51-.27c-1.68-.91-3.18-2.13-4.51-3.64-1.32-1.52-2.66-3.12-4.01-4.82-1.35-1.69-2.8-3.36-4.33-4.99-1.54-1.63-3.34-3.01-5.41-4.13-1.83-.99-3.75-1.71-5.77-2.17-2.02-.46-4.06-.85-6.11-1.2-2.05-.34-4.1-.75-6.15-1.22-2.05-.47-4.03-1.22-5.95-2.27-1.54-.83-2.84-1.75-3.92-2.75-1.08-1-1.83-2.16-2.26-3.49-.43-1.32-.51-2.82-.22-4.5.29-1.67,1.03-3.62,2.24-5.85.97-1.78,2.22-3.04,3.77-3.77,1.55-.73,3.13-.88,4.77-.45,1.36.35,2.78.92,4.26,1.69,1.48.77,2.94,1.58,4.38,2.42,1.44.84,2.88,1.63,4.33,2.34,1.44.72,2.81,1.19,4.09,1.4,1.28.21,2.48.08,3.58-.41,1.11-.49,2.07-1.5,2.91-3.04.94-1.73,1.22-3.36.83-4.89-.39-1.52-1.35-2.7-2.89-3.54-.72-.39-1.53-.7-2.43-.93-.9-.23-1.87-.48-2.9-.75-1.03-.27-2.13-.59-3.3-.97-1.16-.37-2.37-.9-3.62-1.58-3.17-1.72-5.24-3.75-6.21-6.1s-.74-4.84.69-7.46c1.85-3.42,4.3-5.38,7.34-5.88,3.04-.5,6.62.37,10.76,2.61,1.06.57,2.18,1.26,3.36,2.06,1.18.8,2.38,1.64,3.58,2.52,1.2.88,2.4,1.72,3.58,2.52,1.18.8,2.28,1.48,3.29,2.02,1.92,1.04,3.74,1.71,5.45,1.99,1.71.29,3.53.6,5.46.94,1.59.28,3.27.44,5.06.48,1.78.04,3.61.13,5.49.28,1.88.15,3.75.42,5.63.79,1.88.38,3.73,1.06,5.56,2.05,2.12,1.15,3.96,2.5,5.54,4.06,1.58,1.56,2.78,3.27,3.61,5.13.83,1.86,1.22,3.83,1.17,5.92-.05,2.09-.67,4.25-1.88,6.48-1.29,2.38-2.69,4.13-4.21,5.27-1.52,1.13-3.09,1.82-4.71,2.06-1.62.24-3.28.11-4.97-.38-1.69-.5-3.33-1.18-4.91-2.04l-.5-.27c-1.44-.78-2.77-1.69-3.97-2.73-1.21-1.04-2.38-2.09-3.51-3.15-1.13-1.06-2.24-2.08-3.33-3.06-1.09-.97-2.23-1.79-3.44-2.44Z" fill="#f7f797"/>
    <path d="M41.86,252.12c-3.38-2.51-5.55-5.24-6.53-8.19-.98-2.94-.29-6,2.07-9.16,1.52-2.03,3.57-3.51,6.16-4.42,2.59-.92,5.35-.91,8.28,0,1.37.46,2.86,1.08,4.49,1.87,1.63.79,3.29,1.66,5,2.62,1.71.96,3.42,1.91,5.12,2.87,1.71.96,3.34,1.81,4.9,2.55,1.13.49,2.3.96,3.51,1.4,1.21.44,2.32.75,3.36.92,1.03.17,1.97.19,2.83.05.85-.14,1.5-.5,1.93-1.09.61-.81.66-1.93.15-3.36-.5-1.43-1.32-2.99-2.45-4.67-1.13-1.68-2.46-3.38-3.99-5.08-1.53-1.7-3.01-3.19-4.44-4.47-1.84-1.65-3.69-3.45-5.54-5.39-1.86-1.94-3.27-3.77-4.25-5.48-1.16-1.92-1.76-3.98-1.79-6.18-.03-2.2,1-4.7,3.09-7.5.91-1.22,1.94-2.26,3.09-3.12,1.15-.86,2.39-1.45,3.72-1.76,1.32-.31,2.74-.29,4.25.06,1.51.35,3.05,1.12,4.63,2.29,2.5,1.86,4.58,4.01,6.24,6.44,1.66,2.43,3.08,4.92,4.27,7.45,1.18,2.53,2.26,4.99,3.25,7.38s2.03,4.48,3.14,6.29c.69,1,1.49,2.08,2.41,3.22.92,1.14,1.89,2.29,2.91,3.43,1.02,1.15,2.03,2.29,3.03,3.42,1,1.13,1.9,2.21,2.71,3.23,1.62,2.12,3.17,4.3,4.65,6.52,1.48,2.23,2.58,4.5,3.29,6.83.72,2.33.96,4.68.72,7.07-.24,2.38-1.27,4.8-3.09,7.24-1.82,2.44-3.85,4.14-6.1,5.1-2.25.96-4.62,1.39-7.1,1.3-2.49-.09-5.05-.6-7.71-1.53-2.65-.92-5.35-2.02-8.09-3.28-1.68-.76-3.17-1.46-4.46-2.11-1.29-.65-2.51-1.23-3.64-1.77-1.14-.53-2.25-1.01-3.33-1.43-1.08-.42-2.2-.78-3.34-1.07-3.27-.82-6.18-1.46-8.71-1.9-2.53-.45-4.86-.91-6.98-1.41-2.12-.49-4.11-1.11-5.97-1.87s-3.75-1.85-5.68-3.29Z" fill="#f7f797"/>
    <path d="M86.74,173.33c2.73-2.92,5.48-4.63,8.24-5.14,2.76-.51,5.21.25,7.37,2.26,1.08,1.01,2.14,2.31,3.19,3.91,1.05,1.6,2.17,3.3,3.36,5.11,1.19,1.81,2.47,3.66,3.84,5.56,1.37,1.9,2.93,3.67,4.69,5.31,1.92,1.79,3.99,3.1,6.22,3.91,2.23.82,4.51,1.54,6.84,2.17,2.33.63,4.63,1.38,6.9,2.23,2.27.85,4.43,2.19,6.46,4.02l.3.28c9.38,8.78,10.18,17.32,2.4,25.63-3.43,3.66-7.02,5.72-10.78,6.18-3.76.46-7.27-.73-10.54-3.56l-.48-.45c-1.76-1.64-3.09-3.42-4.01-5.31-.92-1.9-1.83-3.87-2.73-5.91-.9-2.04-1.95-4.14-3.15-6.3-1.2-2.16-2.95-4.33-5.27-6.49-2.12-1.98-4.19-3.5-6.23-4.56-2.04-1.06-4.02-1.96-5.94-2.72-1.92-.75-3.79-1.53-5.61-2.35-1.82-.81-3.57-2.01-5.24-3.58-3.19-2.99-4.78-6.23-4.77-9.73.01-3.5,1.66-6.99,4.93-10.49Z" fill="#f7f797"/>
    <path d="M113.27,166.27c-1.54-1.77-2.61-3.52-3.2-5.26-.58-1.74-.78-3.44-.58-5.1.2-1.66.77-3.25,1.72-4.77.95-1.52,2.17-2.93,3.66-4.23,1.53-1.33,3.12-2.34,4.77-3.02,1.65-.68,3.26-1.02,4.84-1.01,1.57,0,3.06.32,4.47.94,1.41.62,2.63,1.53,3.67,2.73,1.12,1.28,1.98,2.84,2.59,4.7.61,1.86,1.23,3.85,1.84,5.96.61,2.12,1.37,4.27,2.27,6.45.9,2.19,2.2,4.25,3.89,6.19,2.27,2.59,4.67,4.19,7.22,4.8,2.55.6,4.76.09,6.62-1.54,1.4-1.22,2.2-2.63,2.38-4.21.19-1.58.27-3.23.23-4.94s.07-3.38.33-5.02c.25-1.64,1.12-3.1,2.61-4.4,2.25-1.96,4.89-2.48,7.92-1.53,3.03.94,6.13,3.23,9.3,6.85,5.79,6.63,7.93,13.45,6.43,20.46-1.51,7.01-6.4,14.14-14.67,21.37-2.63,2.3-5.05,4.07-7.26,5.31-2.21,1.24-4.28,1.96-6.2,2.15-1.93.19-3.77-.14-5.53-1-1.76-.86-3.51-2.24-5.24-4.13l-.54-.62c-1.37-1.56-2.66-3.3-3.88-5.21-1.22-1.91-2.46-3.86-3.71-5.85-1.25-1.99-2.53-3.98-3.82-5.97-1.29-1.99-2.66-3.81-4.1-5.46-1.44-1.65-2.94-3.04-4.5-4.18-1.56-1.14-3.11-2.23-4.66-3.28-1.55-1.04-3.08-2.12-4.61-3.22-1.52-1.1-2.95-2.41-4.28-3.94Z" fill="#f7f797"/>
    <path d="M161.15,124.42c-.76-1.14-1.38-2.5-1.86-4.08-.48-1.58-.68-3.25-.58-4.98.09-1.74.56-3.45,1.4-5.13.84-1.68,2.2-3.15,4.08-4.4,2.76-1.85,5.43-2.64,8.01-2.39s4.74,1.7,6.5,4.33c.73,1.09,1.31,2.17,1.75,3.22.43,1.06.8,2.08,1.08,3.07.29.99.57,1.9.86,2.73.28.83.64,1.56,1.06,2.2.33.5.7.82,1.09.95s.92-.02,1.57-.46c.98-.66,1.59-1.7,1.82-3.14.23-1.43.29-3.09.19-4.96-.1-1.87-.23-3.89-.38-6.05-.16-2.16-.12-4.29.11-6.38.23-2.09.75-4.05,1.56-5.88.81-1.83,2.16-3.36,4.03-4.62,1.41-.94,2.82-1.51,4.25-1.7,1.43-.2,2.84-.09,4.23.33s2.7,1.1,3.92,2.06c1.22.96,2.3,2.15,3.24,3.56,1.31,1.96,1.89,4,1.75,6.13-.14,2.13-.69,4.24-1.66,6.34-.97,2.1-2.17,4.13-3.6,6.1-1.43,1.97-2.76,3.81-3.99,5.52s-2.19,3.22-2.87,4.53c-.68,1.31-.77,2.35-.25,3.13.52.77,1.63,1.18,3.35,1.21s3.77-.04,6.16-.22c2.39-.18,4.99-.36,7.82-.54,2.83-.18,5.63-.06,8.41.35,2.78.41,5.42,1.21,7.91,2.41,2.49,1.2,4.57,3.04,6.24,5.54.85,1.27,1.5,2.78,1.95,4.52.45,1.74.56,3.53.35,5.39-.22,1.86-.85,3.69-1.91,5.51-1.05,1.82-2.63,3.44-4.74,4.84-1.31.88-2.75,1.46-4.32,1.75-1.57.29-3.14.34-4.73.15-1.59-.19-3.09-.6-4.52-1.22-1.43-.62-2.68-1.43-3.75-2.42-1.38-1.25-2.57-2.6-3.58-4.07-1.01-1.46-1.94-2.86-2.8-4.19-.86-1.33-1.66-2.54-2.41-3.61-.75-1.08-1.52-1.84-2.3-2.31-.46-.28-1.01-.62-1.65-1.02-.64-.4-1.31-.74-2.01-1.03-.7-.29-1.45-.44-2.25-.47-.8-.03-1.59.23-2.39.76-.98.66-1.41,1.47-1.27,2.43.13.96.55,1.97,1.25,3.01.88,1.32,2.08,2.36,3.61,3.11,1.52.76,3.12,1.5,4.79,2.22,1.67.73,3.33,1.56,4.97,2.5,1.64.94,3.03,2.25,4.15,3.93.97,1.45,1.56,3.05,1.77,4.78.21,1.73.06,3.49-.44,5.27-.5,1.78-1.38,3.5-2.61,5.15-1.24,1.65-2.84,3.13-4.81,4.44-1.73,1.16-3.58,1.96-5.55,2.42-1.97.46-3.89.57-5.76.35s-3.63-.8-5.26-1.71-2.96-2.15-3.99-3.69c-1.15-1.73-1.93-3.66-2.34-5.79-.41-2.13-.77-4.37-1.08-6.72-.32-2.35-.75-4.71-1.31-7.06-.56-2.36-1.55-4.6-2.98-6.74-1.21-1.82-2.57-3.34-4.07-4.58-1.5-1.23-3.07-2.49-4.7-3.76-1.63-1.28-3.34-2.75-5.13-4.41-1.79-1.67-3.58-3.84-5.37-6.52Z" fill="#f7f797"/>
    <path d="M228.24,66.46c3.49-1.72,6.78-3.19,9.88-4.42,3.1-1.22,5.92-2.05,8.44-2.47s4.72-.33,6.59.27c1.87.6,3.27,1.86,4.22,3.77.89,1.81,1.27,3.44,1.13,4.88-.14,1.44-.62,2.76-1.44,3.96-.82,1.2-1.88,2.3-3.18,3.3s-2.63,2-4,2.98c-1.37.98-2.69,1.97-3.96,2.96s-2.28,2.07-3.03,3.23c-.33.47-.61,1.05-.84,1.74-.22.69-.21,1.31.06,1.84.27.54.64.89,1.13,1.04.49.16,1,.21,1.54.16.54-.05,1.09-.18,1.64-.4.56-.21,1.03-.42,1.44-.62,1.31-.65,2.71-1.39,4.17-2.24,1.47-.85,2.99-1.26,4.57-1.25.95.02,2.05.18,3.3.48,1.25.3,2.11.94,2.6,1.92.51,1.03.51,2.03.02,3.01-.49.97-1.24,1.94-2.25,2.89-1.01.95-2.12,1.9-3.36,2.84-1.23.94-2.36,1.87-3.39,2.77-1.03.91-1.82,1.8-2.36,2.67-.54.88-.59,1.76-.16,2.64.75,1.52,1.83,2.31,3.25,2.38,1.41.07,2.78-.23,4.09-.88,1.21-.6,2.36-1.29,3.46-2.07,1.09-.78,2.16-1.57,3.22-2.36,1.05-.79,2.13-1.57,3.24-2.33,1.1-.76,2.26-1.44,3.47-2.03,1.97-.97,3.73-1.46,5.27-1.46,1.54,0,2.93.37,4.17,1.1,1.24.73,2.34,1.76,3.31,3.08.97,1.32,1.87,2.84,2.72,4.56,2.01,4.07,2.66,7.77,1.95,11.11-.71,3.34-2.23,6.37-4.56,9.11-2.33,2.73-5.16,5.15-8.49,7.25-3.33,2.1-6.64,3.96-9.92,5.58-2.88,1.42-5.77,2.54-8.66,3.36-2.89.82-5.66,1.15-8.28.98s-5.04-.94-7.23-2.33-4.04-3.6-5.54-6.64c-1.04-2.11-1.6-4.2-1.67-6.26-.08-2.06-.07-4.12.01-6.18.09-2.05.08-4.14-.02-6.25-.1-2.11-.7-4.27-1.78-6.48-1.23-2.5-2.58-4.61-4.02-6.34-1.45-1.72-2.87-3.31-4.27-4.75-1.4-1.44-2.76-2.89-4.08-4.34-1.32-1.45-2.44-3.14-3.39-5.05-1.11-2.25-1.56-4.4-1.33-6.43s.9-3.93,2.04-5.71c1.13-1.78,2.62-3.39,4.44-4.84,1.83-1.45,3.78-2.69,5.85-3.71Z" fill="#f7f797"/>
    <path d="M281.86,44.95c2.29-.77,4.25-.94,5.85-.5,1.61.44,3.1,1.64,4.47,3.6.46.65,1.17,1.62,2.14,2.91.97,1.29,2.1,2.71,3.4,4.26,1.29,1.55,2.68,3.14,4.14,4.75,1.47,1.61,2.91,3.04,4.35,4.29,1.43,1.25,2.78,2.21,4.05,2.88,1.27.67,2.35.85,3.26.54.64-.22,1.08-.72,1.31-1.53.24-.8.33-1.68.27-2.64s-.18-1.9-.37-2.82c-.19-.92-.36-1.58-.5-2-.47-1.4-1.1-2.73-1.88-3.99-.78-1.26-1.59-2.51-2.42-3.73-.83-1.22-1.62-2.44-2.39-3.65s-1.39-2.52-1.86-3.92c-1.05-3.11-.92-5.71.4-7.79s3.53-3.66,6.62-4.7c1.12-.38,2.35-.53,3.68-.46,1.33.07,2.6.36,3.82.88,1.21.51,2.29,1.19,3.23,2.03.94.84,1.61,1.85,2.01,3.04,1.21,3.57,2.18,7.17,2.92,10.78.74,3.62,1.72,7.21,2.92,10.78.77,2.28,1.79,4.42,3.06,6.41,1.27,2,2.6,3.97,4,5.92,1.4,1.95,2.73,3.91,3.99,5.88,1.26,1.97,2.27,4.09,3.04,6.37.75,2.23,1.21,4.39,1.39,6.5s0,4.04-.54,5.81c-.53,1.77-1.47,3.32-2.8,4.67-1.33,1.34-3.15,2.4-5.44,3.18-2.24.76-4.36.95-6.36.59-2-.37-3.82-1.11-5.48-2.22-1.66-1.12-3.1-2.53-4.33-4.25-1.23-1.72-2.18-3.56-2.85-5.53-.45-1.35-1.29-2.94-2.5-4.78-1.22-1.84-2.57-3.59-4.05-5.25-1.48-1.66-2.98-3-4.48-4.03-1.5-1.02-2.74-1.37-3.7-1.05-.48.16-.81.43-.98.81-.17.38-.26.81-.27,1.3-.01.5.05.98.18,1.46.13.47.25.87.35,1.18.47,1.4,1.2,2.68,2.19,3.85.99,1.17,2.02,2.35,3.11,3.54,1.08,1.19,2.16,2.49,3.23,3.89,1.07,1.4,1.92,3.06,2.57,4.97.63,1.87.92,3.73.86,5.59s-.43,3.61-1.13,5.23c-.7,1.62-1.75,3.06-3.14,4.3-1.39,1.25-3.1,2.22-5.13,2.9-1.92.65-3.82.88-5.69.71-1.87-.18-3.62-.67-5.23-1.48-1.61-.81-3.04-1.92-4.29-3.31-1.25-1.4-2.18-3.03-2.81-4.89-1.05-3.11-1.79-6.26-2.21-9.46-.43-3.2-.81-6.4-1.14-9.61-.34-3.2-.72-6.41-1.15-9.61-.43-3.2-1.16-6.33-2.19-9.39-.79-2.33-1.81-4.52-3.07-6.58-1.26-2.06-2.2-4.02-2.83-5.88-.86-2.54-.61-4.76.74-6.65,1.35-1.9,3.23-3.25,5.63-4.06Z" fill="#f7f797"/>
    <path d="M379.31,59.42c-.38-3.2-.55-6.49-.52-9.85.03-3.36.33-6.67.92-9.93.58-3.26,1.49-6.38,2.73-9.36,1.24-2.98,2.88-5.65,4.93-8.01,2.05-2.36,4.53-4.33,7.43-5.91,2.91-1.58,6.35-2.6,10.32-3.07,1.68-.2,3.68-.23,5.99-.08,2.31.14,4.55.57,6.7,1.28,2.15.71,4.03,1.73,5.64,3.05,1.6,1.33,2.53,3.05,2.78,5.16.17,1.47-.11,2.66-.86,3.57s-1.79,1.7-3.13,2.35c-1.34.65-2.88,1.21-4.61,1.66-1.73.45-3.51.95-5.31,1.49-1.81.54-3.56,1.19-5.26,1.94s-3.19,1.72-4.47,2.92c-1.28,1.2-2.24,2.67-2.88,4.43-.65,1.75-.81,3.93-.51,6.54.15,1.25.41,2.42.79,3.5.38,1.08.92,2.01,1.6,2.78.69.77,1.53,1.35,2.54,1.72,1.01.38,2.24.48,3.7.31,1.51-.18,2.98-.56,4.42-1.14,1.43-.58,2.85-1.2,4.25-1.86,1.4-.66,2.81-1.28,4.25-1.86,1.43-.58,2.94-.96,4.5-1.15,1.96-.23,3.58-.1,4.85.38,1.28.48,2.28,1.22,3.02,2.2.74.99,1.29,2.19,1.66,3.6.37,1.42.65,2.97.84,4.65.99,8.42-.41,15.25-4.18,20.51-3.78,5.26-10.09,8.41-18.93,9.45-5.71.67-10.53.34-14.46-.98-3.93-1.33-7.2-3.42-9.8-6.28-2.61-2.86-4.61-6.35-6-10.48-1.39-4.13-2.38-8.64-2.95-13.52Z" fill="#f7f797"/>
    <path d="M452.95,10.29c4-.07,7.14.72,9.42,2.35,2.28,1.63,3.45,3.92,3.49,6.87.02,1.48-.18,3.15-.6,5.01-.42,1.87-.87,3.86-1.34,5.97-.47,2.11-.92,4.32-1.33,6.62-.41,2.3-.6,4.66-.56,7.06.04,2.62.55,5.02,1.51,7.19.96,2.17,2.03,4.31,3.19,6.43s2.23,4.28,3.19,6.51c.97,2.23,1.5,4.71,1.6,7.44v.41c.21,12.84-5.37,19.36-16.75,19.54-5.02.08-8.99-1.07-11.93-3.46-2.94-2.39-4.53-5.74-4.77-10.05v-.66c-.05-2.4.29-4.6,1.02-6.58.73-1.98,1.51-4,2.35-6.07s1.62-4.28,2.34-6.64c.72-2.36,1.06-5.13,1.01-8.3-.05-2.9-.4-5.45-1.05-7.65-.66-2.2-1.38-4.26-2.17-6.16-.79-1.9-1.53-3.79-2.21-5.66-.68-1.88-1.04-3.96-1.07-6.26-.07-4.37,1.15-7.77,3.68-10.19,2.52-2.42,6.18-3.67,10.97-3.75Z" fill="#f7f797"/>
    <path d="M476.45,24.5c.2-2.34.72-4.33,1.57-5.96.85-1.63,1.93-2.95,3.27-3.96,1.33-1.01,2.87-1.7,4.63-2.07,1.76-.37,3.62-.47,5.58-.3,2.02.17,3.85.62,5.48,1.33,1.64.72,3,1.64,4.09,2.78,1.09,1.14,1.9,2.43,2.43,3.87.53,1.44.72,2.96.59,4.54-.14,1.69-.67,3.4-1.58,5.13-.91,1.73-1.92,3.55-3.01,5.46-1.1,1.91-2.12,3.95-3.07,6.12-.95,2.17-1.53,4.53-1.75,7.09-.29,3.43.23,6.27,1.56,8.53s3.24,3.49,5.71,3.7c1.85.16,3.41-.24,4.68-1.2,1.27-.96,2.51-2.05,3.71-3.26,1.21-1.21,2.49-2.3,3.84-3.25s3.01-1.35,4.98-1.18c2.98.25,5.18,1.8,6.6,4.64,1.42,2.84,1.93,6.65,1.52,11.45-.75,8.77-4.17,15.05-10.26,18.83-6.09,3.79-14.61,5.21-25.56,4.27-3.48-.3-6.44-.81-8.86-1.54-2.43-.73-4.38-1.72-5.86-2.97-1.48-1.25-2.52-2.81-3.12-4.67-.6-1.86-.83-4.08-.66-6.64l.07-.82c.18-2.07.53-4.21,1.06-6.41.53-2.2,1.07-4.45,1.64-6.73.56-2.28,1.11-4.58,1.65-6.9.54-2.31.9-4.56,1.09-6.74.19-2.18.15-4.23-.11-6.14-.26-1.92-.55-3.79-.88-5.63-.32-1.84-.62-3.69-.88-5.55-.26-1.86-.31-3.8-.14-5.81Z" fill="#f7f797"/>
    <path d="M538.38,30.16c.49-2.3,1.26-4.2,2.3-5.71,1.04-1.51,2.29-2.68,3.73-3.52,1.45-.84,3.06-1.33,4.85-1.48,1.79-.15,3.65-.02,5.58.39,1.98.42,3.74,1.09,5.28,2.01,1.53.91,2.77,2,3.71,3.27.94,1.26,1.58,2.64,1.92,4.14.34,1.5.35,3.02.02,4.57-.35,1.66-1.09,3.29-2.21,4.89s-2.34,3.29-3.67,5.04c-1.33,1.76-2.59,3.65-3.81,5.68-1.21,2.03-2.09,4.31-2.62,6.82-.72,3.37-.56,6.25.49,8.66,1.04,2.4,2.78,3.86,5.2,4.38,1.82.39,3.42.18,4.8-.61,1.38-.79,2.74-1.72,4.09-2.77,1.35-1.05,2.75-1.97,4.22-2.75,1.46-.78,3.16-.96,5.09-.55,2.92.62,4.91,2.43,5.97,5.43,1.06,2.99,1.09,6.84.08,11.55-1.84,8.61-6.02,14.41-12.53,17.41-6.52,3-15.15,3.35-25.9,1.05-3.42-.73-6.28-1.61-8.6-2.63-2.32-1.03-4.13-2.25-5.44-3.68-1.31-1.43-2.15-3.1-2.52-5.02-.37-1.92-.31-4.15.17-6.67l.17-.8c.43-2.03,1.05-4.11,1.85-6.23.8-2.12,1.62-4.28,2.46-6.48.84-2.2,1.68-4.41,2.5-6.64.82-2.23,1.46-4.41,1.92-6.55.46-2.14.67-4.17.66-6.11s-.08-3.83-.17-5.7c-.09-1.86-.15-3.74-.18-5.62-.03-1.88.17-3.81.59-5.79Z" fill="#f7f797"/>
    <path d="M623.41,36.45c3.67,1.28,7.03,2.61,10.08,3.96,3.05,1.36,5.61,2.79,7.68,4.29,2.07,1.51,3.54,3.14,4.42,4.89.88,1.76.96,3.64.26,5.65-.67,1.91-1.57,3.32-2.69,4.23-1.12.91-2.4,1.49-3.83,1.74-1.43.25-2.96.27-4.58.05-1.62-.22-3.27-.48-4.93-.77-1.66-.29-3.29-.54-4.88-.75-1.6-.21-3.07-.18-4.42.1-.57.09-1.18.3-1.83.62-.65.32-1.07.77-1.27,1.34-.2.57-.18,1.08.04,1.54s.55.86.97,1.21c.42.35.89.65,1.43.89.54.25,1.02.44,1.45.59,1.38.48,2.89.96,4.52,1.41,1.63.46,2.99,1.25,4.09,2.39.65.69,1.31,1.59,1.97,2.69s.81,2.17.45,3.2c-.38,1.08-1.09,1.79-2.13,2.12-1.04.33-2.26.47-3.64.42s-2.85-.18-4.38-.4c-1.54-.22-2.99-.38-4.35-.48-1.37-.1-2.55-.04-3.56.19-1.01.23-1.67.8-2,1.73-.56,1.6-.37,2.93.58,3.98.94,1.05,2.11,1.82,3.49,2.31,1.28.45,2.57.79,3.9,1.02,1.32.23,2.63.44,3.94.64,1.3.2,2.61.42,3.93.68s2.61.61,3.88,1.06c2.07.73,3.65,1.64,4.73,2.74,1.08,1.1,1.79,2.35,2.14,3.75.35,1.4.39,2.9.12,4.52-.27,1.62-.72,3.33-1.35,5.13-1.5,4.28-3.69,7.34-6.57,9.17-2.88,1.83-6.11,2.87-9.69,3.12-3.58.25-7.29-.08-11.12-.98s-7.48-1.97-10.93-3.18c-3.03-1.06-5.85-2.34-8.46-3.83-2.61-1.49-4.78-3.24-6.5-5.23-1.72-1.99-2.85-4.26-3.4-6.79-.54-2.54-.26-5.4.86-8.6.78-2.22,1.88-4.08,3.3-5.58,1.42-1.5,2.89-2.94,4.42-4.32,1.53-1.38,3.01-2.84,4.45-4.39,1.44-1.55,2.57-3.49,3.38-5.81.92-2.63,1.49-5.07,1.71-7.31.22-2.24.35-4.37.4-6.38.05-2.01.13-3.99.25-5.95.12-1.96.53-3.94,1.23-5.95.83-2.37,2.05-4.19,3.66-5.45,1.61-1.26,3.44-2.11,5.5-2.55,2.06-.44,4.25-.51,6.57-.22,2.32.29,4.56.82,6.75,1.58Z" fill="#f7f797"/>
    <path d="M716.48,78.2c3.34,1.99,6.37,3.95,9.09,5.89,2.72,1.94,4.94,3.85,6.67,5.74,1.73,1.89,2.85,3.78,3.36,5.67.51,1.89.22,3.76-.87,5.59-1.04,1.74-2.19,2.94-3.48,3.61-1.28.67-2.65.98-4.1.94-1.45-.04-2.95-.33-4.5-.87-1.55-.54-3.11-1.12-4.67-1.73-1.57-.62-3.12-1.19-4.64-1.71s-2.98-.78-4.36-.78c-.58-.02-1.21.06-1.92.24-.7.19-1.21.54-1.51,1.06-.31.52-.4,1.02-.26,1.51.13.49.37.95.71,1.38.34.42.75.81,1.23,1.16.48.35.91.64,1.3.87,1.26.75,2.64,1.51,4.15,2.28,1.51.77,2.69,1.82,3.53,3.15.5.81.97,1.82,1.4,3.03.43,1.21.36,2.28-.2,3.22-.59.99-1.42,1.54-2.51,1.65-1.09.12-2.3.01-3.65-.31s-2.75-.75-4.21-1.27c-1.46-.52-2.85-.97-4.17-1.34-1.32-.37-2.5-.55-3.52-.52-1.03.02-1.8.46-2.3,1.3-.87,1.46-.94,2.79-.23,4.02.71,1.22,1.7,2.21,2.96,2.96,1.16.69,2.37,1.28,3.62,1.77,1.25.49,2.49.96,3.73,1.41,1.24.45,2.48.93,3.71,1.45,1.24.51,2.44,1.12,3.6,1.81,1.89,1.12,3.25,2.33,4.09,3.63.84,1.29,1.29,2.66,1.35,4.1.06,1.44-.2,2.92-.78,4.45-.58,1.53-1.36,3.12-2.34,4.76-2.32,3.9-5.07,6.46-8.26,7.68-3.19,1.22-6.56,1.6-10.12,1.13-3.56-.47-7.13-1.52-10.7-3.17-3.58-1.65-6.94-3.42-10.08-5.29-2.76-1.64-5.27-3.46-7.53-5.44-2.26-1.98-4.04-4.12-5.33-6.42-1.29-2.29-1.95-4.74-1.98-7.33-.03-2.59.82-5.35,2.56-8.26,1.2-2.02,2.65-3.62,4.34-4.81,1.69-1.19,3.42-2.3,5.19-3.35,1.77-1.05,3.52-2.19,5.23-3.42,1.72-1.23,3.21-2.91,4.47-5.02,1.43-2.4,2.47-4.67,3.13-6.82.66-2.15,1.21-4.21,1.66-6.17.45-1.96.92-3.89,1.43-5.78.5-1.89,1.3-3.76,2.39-5.59,1.29-2.16,2.84-3.7,4.67-4.62s3.79-1.38,5.9-1.4c2.11-.02,4.27.35,6.48,1.09,2.21.75,4.31,1.71,6.3,2.89Z" fill="#f7f797"/>
    <path d="M760.59,157.18c-.37.47-.42,1.41-.13,2.82.29,1.41.71,3.08,1.26,5.02.55,1.94,1.15,4.06,1.8,6.38.65,2.32,1.12,4.61,1.42,6.87.3,2.26.34,4.41.12,6.47-.22,2.05-.91,3.81-2.06,5.27-1.08,1.37-2.45,2.4-4.1,3.08-1.65.68-3.39,1.07-5.22,1.16-1.83.09-3.64-.12-5.43-.63-1.79-.51-3.35-1.28-4.67-2.33-.84-.66-1.65-1.39-2.43-2.18-.78-.79-1.43-1.64-1.97-2.55-.54-.91-.92-1.88-1.16-2.9-.24-1.02-.25-2.12-.05-3.28.14-1,.6-2.28,1.36-3.84.76-1.56,1.63-3.22,2.6-5,.97-1.78,1.98-3.6,3.04-5.49,1.06-1.88,1.93-3.65,2.62-5.3.69-1.65,1.12-3.1,1.29-4.36.17-1.26-.12-2.19-.88-2.78-.75-.59-1.6-.84-2.53-.75-.94.1-1.7.51-2.27,1.24-.95,1.2-1.55,2.56-1.81,4.06-.26,1.5-.45,3.02-.58,4.56-.13,1.53-.33,3.06-.61,4.59-.27,1.53-.92,2.93-1.93,4.22-1.19,1.5-2.66,2.62-4.42,3.35-1.76.73-3.6,1.11-5.52,1.13-1.92.02-3.83-.29-5.73-.92-1.9-.63-3.59-1.53-5.05-2.68-3.32-2.62-5.39-5.49-6.22-8.62-.83-3.13-.02-6.34,2.43-9.63l.41-.51c1.12-1.42,2.44-2.62,3.97-3.6s3.1-1.92,4.7-2.82c1.6-.89,3.17-1.83,4.7-2.82,1.53-.98,2.86-2.19,3.97-3.6,1.49-1.89,2.73-3.89,3.71-6,.98-2.11,1.92-4.27,2.79-6.47.88-2.2,1.81-4.37,2.82-6.5,1-2.13,2.25-4.14,3.74-6.03,1.69-2.15,3.68-3.76,5.98-4.84,2.29-1.08,4.67-1.69,7.15-1.83,2.48-.14,4.96.2,7.44,1.01,2.48.81,4.79,2.05,6.91,3.73,2.79,2.2,5.25,4.83,7.4,7.88,2.15,3.05,3.69,6.26,4.63,9.61.94,3.35,1.18,6.76.71,10.22-.47,3.46-1.92,6.73-4.36,9.82-1.83,2.32-3.8,3.81-5.91,4.48-2.11.67-4.12.99-6.05.97-1.92-.02-3.6-.12-5.03-.31-1.43-.19-2.38.02-2.86.62ZM755.5,134.99c-.41.51-.87,1.17-1.4,1.98-.53.8-.94,1.62-1.25,2.46-.3.84-.42,1.67-.35,2.49.07.82.48,1.53,1.23,2.12.57.45,1.31.71,2.21.75.9.05,1.82-.04,2.79-.26.96-.22,1.87-.55,2.72-.99.85-.44,1.5-.94,1.94-1.5.47-.6.81-1.28,1.01-2.03.2-.75.25-1.51.17-2.27s-.3-1.49-.65-2.18c-.35-.69-.81-1.27-1.39-1.72-1.15-.91-2.42-1.19-3.79-.85-1.38.34-2.46,1-3.24,1.99Z" fill="#f7f797"/>
    <path d="M847.36,185.96c3.84,4.58,6.35,9.47,7.55,14.68,1.19,5.21,1.34,10.38.44,15.52-.91,5.13-2.75,10.02-5.52,14.67-2.78,4.64-6.22,8.69-10.32,12.13-3.81,3.2-7.95,5.63-12.39,7.3-4.45,1.67-8.93,2.47-13.45,2.4-4.52-.07-8.9-1.07-13.15-2.98-4.25-1.92-8.05-4.88-11.42-8.9-1.52-1.81-2.87-3.81-4.05-5.98-1.18-2.17-1.96-4.37-2.36-6.57-.39-2.21-.27-4.39.36-6.53.63-2.14,1.99-4.09,4.08-5.85,1.34-1.12,2.85-2.17,4.54-3.14,1.68-.97,3.42-1.93,5.23-2.89,1.8-.96,3.55-1.93,5.26-2.92,1.71-.99,3.23-2.04,4.57-3.17,1.72-1.44,3.28-3,4.68-4.69,1.4-1.69,2.77-3.42,4.1-5.2,1.33-1.78,2.7-3.52,4.13-5.22,1.42-1.71,2.99-3.28,4.71-4.72,4.11-3.44,8.07-5.04,11.88-4.78,3.82.26,7.54,2.54,11.16,6.86ZM836.45,206.13c-.8-.95-1.69-1.47-2.69-1.55-1-.08-2.01.07-3.04.46-1.03.39-2.03.93-2.98,1.62-.96.69-1.77,1.32-2.44,1.88-.59.49-1.35,1.15-2.3,1.98-.95.83-1.79,1.76-2.53,2.79-.74,1.03-1.24,2.07-1.5,3.13-.26,1.06,0,2.04.76,2.95.79.95,1.8,1.65,3,2.11,1.21.46,2.48.68,3.82.66,1.34-.02,2.67-.28,4.01-.77,1.33-.49,2.57-1.21,3.7-2.16.84-.7,1.56-1.6,2.17-2.7.61-1.1,1.05-2.26,1.31-3.47.27-1.22.31-2.43.15-3.65-.17-1.22-.65-2.31-1.45-3.26Z" fill="#f7f797"/>
    <path d="M881.02,288.89c-.92.59-1.94,1.38-3.05,2.39-1.11,1-2.35,2.14-3.71,3.41s-2.94,2.61-4.72,4.04c-1.78,1.43-3.78,2.85-5.99,4.25-2.54,1.61-5.27,2.59-8.19,2.94-2.92.35-5.89,0-8.92-1.05-3.03-1.05-6.04-2.84-9.04-5.38-3-2.54-5.84-5.92-8.53-10.16-2.54-4-4.29-7.79-5.27-11.37-.98-3.58-1.26-6.91-.84-9.98s1.52-5.87,3.31-8.41c1.79-2.54,4.16-4.74,7.12-6.62,3.05-1.93,6.09-3.58,9.14-4.95,3.05-1.37,5.59-2.69,7.62-3.98,1.34-.85,2.62-1.79,3.83-2.83,1.22-1.04,2.44-2.1,3.67-3.18,1.23-1.08,2.48-2.16,3.77-3.24,1.29-1.08,2.67-2.09,4.15-3.03,1.89-1.2,3.81-2.11,5.74-2.74,1.93-.62,3.83-.88,5.69-.75,1.86.12,3.6.65,5.23,1.59,1.63.94,3.05,2.35,4.25,4.26,2.17,3.43,2.77,6.77,1.79,10.02-.98,3.26-3.38,6.1-7.21,8.53-1.66,1.05-3.33,1.91-5.01,2.58-1.68.67-3.29,1.24-4.84,1.71s-2.99.93-4.34,1.35c-1.35.42-2.49.93-3.41,1.51-.97.62-1.94,1.38-2.91,2.3s-1.77,1.93-2.4,3.03-1.03,2.24-1.19,3.41c-.17,1.17.12,2.33.84,3.47.63,1,1.45,1.75,2.45,2.25s2.11.77,3.32.8c1.21.03,2.47-.17,3.76-.58s2.56-1.02,3.8-1.81c1.25-.79,2.38-1.69,3.39-2.7,1.01-1.01,2.01-2.04,2.99-3.1.98-1.06,2-2.1,3.06-3.14,1.06-1.04,2.28-2,3.66-2.87,1.57-1,3.14-1.74,4.7-2.23,1.56-.49,3.1-.63,4.59-.41,1.5.22,2.93.79,4.3,1.73,1.37.93,2.64,2.33,3.82,4.18.88,1.38,1.46,2.84,1.76,4.39.3,1.54.28,3.06-.07,4.55-.35,1.49-.99,2.9-1.93,4.23s-2.21,2.51-3.83,3.53c-1.62,1.03-3.2,1.92-4.76,2.67-1.56.75-3.04,1.43-4.45,2.02s-2.71,1.15-3.93,1.69c-1.21.54-2.28,1.1-3.21,1.68Z" fill="#f7f797"/>
    <path d="M857.34,318.48c4.09-1.97,7.55-2.56,10.39-1.76,2.84.79,5.26,3.27,7.26,7.43.73,1.52,1.2,3.03,1.41,4.53.21,1.5.15,2.9-.16,4.21-.31,1.31-.89,2.52-1.74,3.65-.85,1.13-1.98,2.06-3.38,2.8l-.44.21c-2.17,1.04-4.08,1.62-5.72,1.72-1.65.1-3.11-.19-4.39-.89-1.28-.7-2.44-1.76-3.5-3.2-1.05-1.43-2.08-3.19-3.08-5.27-1.37-2.84-1.89-5.44-1.56-7.78.33-2.35,1.97-4.23,4.92-5.65ZM908.61,309.85c1.28-.62,2.26-1.32,2.94-2.12.68-.8.64-1.98-.12-3.55-.66-1.37-1.63-2.42-2.92-3.14-1.29-.72-2.6-1.33-3.92-1.82-1.33-.49-2.58-.98-3.76-1.47-1.18-.5-2.01-1.25-2.5-2.27-.32-.66-.45-1.38-.4-2.15.05-.77.25-1.5.6-2.16.35-.67.77-1.28,1.26-1.83.49-.55,1.04-.97,1.63-1.25,1.97-.95,4.1-1.33,6.4-1.16,2.3.17,4.56.81,6.78,1.89,2.22,1.09,4.29,2.59,6.22,4.51,1.92,1.92,3.49,4.12,4.68,6.61,1.08,2.23,1.76,4.56,2.04,6.99.29,2.43.16,4.74-.39,6.94-.55,2.2-1.52,4.22-2.91,6.05-1.4,1.83-3.25,3.3-5.57,4.42-2.61,1.26-5.01,1.79-7.2,1.59-2.19-.2-4.16-.64-5.92-1.33-1.76-.69-3.3-1.34-4.62-1.95-1.33-.61-2.43-.71-3.32-.28-.79.38-1.5.86-2.13,1.45-.63.58-1.23,1.19-1.81,1.81-.58.62-1.16,1.21-1.74,1.78-.58.56-1.21,1.01-1.9,1.34-1.18.57-2.46.73-3.82.48-1.36-.25-2.68-.76-3.96-1.52-1.28-.76-2.45-1.71-3.51-2.86-1.07-1.14-1.91-2.35-2.52-3.62-1.61-3.35-2.08-6.52-1.39-9.51.68-2.99,2.73-5.3,6.12-6.94,2.12-1.02,4.08-1.51,5.89-1.47,1.81.04,3.52.35,5.14.95,1.62.6,3.16,1.33,4.6,2.19,1.45.87,2.85,1.66,4.2,2.39,1.35.72,2.67,1.23,3.96,1.52,1.29.29,2.57.12,3.86-.5Z" fill="#f7f797"/>
  </g>
  <g>
    <path d="M112.97,337.44c.83-1.03,1.69-1.67,2.58-1.92.89-.25,1.98-.09,3.26.46.43.18,1.08.45,1.95.79s1.86.71,2.98,1.08c1.11.38,2.27.75,3.48,1.11,1.21.36,2.35.63,3.43.83,1.08.19,2.02.27,2.83.23.81-.04,1.38-.26,1.71-.67.23-.29.27-.66.12-1.11-.15-.45-.39-.9-.73-1.35s-.7-.87-1.09-1.26c-.39-.39-.68-.66-.88-.82-.67-.54-1.4-1-2.18-1.39-.78-.39-1.56-.76-2.34-1.11-.78-.35-1.55-.71-2.3-1.08-.75-.37-1.46-.82-2.14-1.36-1.5-1.2-2.28-2.5-2.33-3.88-.06-1.39.47-2.78,1.59-4.17.4-.5.93-.93,1.58-1.28.65-.35,1.34-.57,2.08-.67.74-.1,1.46-.08,2.17.06s1.35.43,1.93.89c1.72,1.38,3.34,2.84,4.86,4.37,1.52,1.54,3.14,2.99,4.86,4.37,1.1.88,2.27,1.62,3.51,2.22,1.24.6,2.51,1.17,3.79,1.71s2.55,1.11,3.78,1.7,2.39,1.33,3.49,2.21c1.07.86,1.99,1.78,2.75,2.74.76.96,1.3,1.95,1.63,2.96s.39,2.02.2,3.05c-.19,1.03-.7,2.06-1.53,3.09-.81,1.01-1.74,1.71-2.79,2.1-1.06.4-2.15.56-3.29.5s-2.27-.34-3.41-.81-2.18-1.1-3.13-1.86c-.65-.52-1.56-1.05-2.72-1.59s-2.37-1-3.6-1.38c-1.23-.38-2.37-.6-3.41-.66-1.04-.06-1.73.12-2.07.55-.17.21-.24.44-.2.67.04.23.14.47.29.71s.34.46.55.65c.21.19.4.35.55.47.67.54,1.43.95,2.27,1.23.84.28,1.71.55,2.6.82.9.27,1.82.58,2.77.95.95.37,1.89.93,2.82,1.67.9.72,1.64,1.54,2.21,2.46.58.92.96,1.87,1.16,2.85s.17,1.98-.08,2.98c-.25,1-.74,1.96-1.47,2.87-.69.86-1.51,1.52-2.44,1.97-.94.45-1.91.71-2.93.78-1.02.07-2.05-.05-3.08-.38-1.04-.32-2-.84-2.9-1.56-1.5-1.2-2.87-2.51-4.1-3.94-1.24-1.42-2.45-2.86-3.65-4.31-1.19-1.45-2.41-2.89-3.65-4.31s-2.59-2.73-4.06-3.91c-1.12-.9-2.31-1.67-3.57-2.3-1.26-.63-2.33-1.31-3.23-2.03-1.22-.98-1.83-2.12-1.8-3.43s.46-2.5,1.33-3.58Z" fill="#f7f797"/>
    <path d="M144.35,296.98c-.81.84-1.71,1.59-2.7,2.23-.99.65-2.03,1.09-3.12,1.32-1.09.23-2.19.21-3.32-.08s-2.21-.94-3.28-1.95c-.83-.8-1.43-1.71-1.8-2.74-.37-1.03-.52-2.08-.47-3.16.05-1.07.28-2.11.68-3.11s.95-1.87,1.65-2.6c.81-.85,1.74-1.66,2.79-2.44,1.05-.78,2.16-1.35,3.31-1.72,1.15-.37,2.34-.44,3.57-.22s2.43.89,3.61,2.02c1.18,1.13,1.93,2.26,2.26,3.4s.37,2.26.12,3.34c-.24,1.09-.67,2.11-1.29,3.08-.61.96-1.29,1.84-2.04,2.62ZM137.25,289.75c-.43.44-.71.97-.85,1.58-.14.61.02,1.14.48,1.58.48.46,1,.61,1.53.45.54-.17.98-.44,1.35-.82.17-.18.35-.41.54-.7s.35-.59.49-.9c.14-.31.22-.62.24-.91.02-.3-.07-.55-.28-.75-.53-.51-1.14-.67-1.82-.49-.68.18-1.24.5-1.69.97ZM157.66,339.45c-.81-.77-1.43-1.71-1.85-2.82-.42-1.11-.76-2.28-1-3.51-.24-1.23-.41-2.46-.52-3.69s-.26-2.34-.46-3.34c-.29-1.6-.74-3.01-1.34-4.25-.61-1.24-1.29-2.37-2.04-3.39-.75-1.02-1.54-1.95-2.35-2.79-.81-.84-1.58-1.65-2.3-2.42-.72-.77-1.35-1.53-1.88-2.27-.53-.74-.88-1.53-1.05-2.38-.2-.95-.23-1.89-.1-2.81.13-.92.37-1.82.72-2.7.35-.88.79-1.71,1.33-2.5s1.12-1.52,1.75-2.18c.94-.98,1.94-1.75,3.01-2.32,1.07-.57,2.31-.78,3.72-.62.69.07,1.51.32,2.45.78.94.45,1.93.95,2.96,1.49,1.03.54,2.08,1.07,3.13,1.59,1.05.52,2.02.9,2.89,1.14,1.28.33,2.5.54,3.67.64,1.17.1,2.32.17,3.44.22,1.12.05,2.23.12,3.32.21s2.17.28,3.24.57,2.14.74,3.22,1.32c1.08.58,2.17,1.41,3.28,2.47.99.95,1.8,1.96,2.42,3.02s.99,2.13,1.12,3.21c.12,1.07,0,2.16-.4,3.26-.39,1.1-1.07,2.16-2.04,3.18-1.23,1.29-2.51,2.13-3.84,2.52s-2.62.51-3.9.36-2.5-.46-3.68-.94c-1.18-.47-2.28-.93-3.29-1.36s-1.89-.74-2.65-.94-1.35-.09-1.75.34c-.08.09-.16.2-.24.32-.07.12-.11.25-.1.38-.11,1.04.11,2.04.66,2.99.55.95,1.22,1.89,2,2.8.78.92,1.58,1.85,2.38,2.79.8.94,1.38,1.94,1.72,2.99.34,1.05.37,2.18.08,3.39s-1.13,2.54-2.51,3.98c-2.19,2.29-4.42,3.57-6.68,3.86s-4.45-.58-6.55-2.6ZM156.87,313.54c.35.33.73.54,1.14.61s.82.05,1.23-.07c.41-.12.8-.3,1.18-.53.38-.23.71-.5.98-.79.25-.27.5-.59.74-.98.24-.39.41-.8.51-1.23.1-.43.12-.85.06-1.25s-.26-.77-.61-1.1c-.32-.31-.73-.56-1.21-.74-.49-.19-1-.3-1.54-.33-.54-.03-1.08.04-1.59.21-.51.17-.95.44-1.31.82-.38.4-.63.85-.74,1.33-.11.49-.14.99-.07,1.5.07.51.21.99.43,1.43.22.44.49.82.81,1.13Z" fill="#f7f797"/>
    <path d="M194.19,283.81c.23.26.75.4,1.56.42.81.01,1.78-.01,2.9-.08,1.12-.07,2.36-.14,3.71-.21,1.35-.07,2.66-.05,3.94.06,1.28.11,2.49.35,3.61.73s2.05.97,2.76,1.79c.67.77,1.13,1.65,1.38,2.65s.31,2.01.21,3.04c-.1,1.03-.37,2-.8,2.94-.43.93-.99,1.7-1.69,2.31-.44.38-.91.74-1.42,1.08-.5.33-1.03.59-1.58.78-.55.19-1.12.28-1.71.29-.59,0-1.2-.12-1.83-.37-.55-.2-1.22-.61-2.02-1.23-.8-.62-1.66-1.3-2.57-2.06-.91-.76-1.84-1.54-2.8-2.36-.96-.82-1.87-1.52-2.73-2.1s-1.63-1-2.32-1.25-1.23-.2-1.62.14c-.39.34-.6.78-.63,1.31-.03.53.14,1,.5,1.41.59.68,1.29,1.18,2.11,1.5s1.65.62,2.49.88c.84.26,1.68.56,2.51.9.83.34,1.56.87,2.19,1.59.74.84,1.24,1.8,1.5,2.87.26,1.07.32,2.13.17,3.2-.15,1.07-.48,2.09-.99,3.07-.51.98-1.15,1.8-1.91,2.47-1.73,1.52-3.51,2.32-5.32,2.4-1.81.08-3.53-.77-5.16-2.53l-.25-.29c-.7-.79-1.25-1.68-1.68-2.65-.42-.97-.81-1.96-1.18-2.96-.37-1-.76-1.98-1.18-2.96-.42-.97-.98-1.85-1.68-2.65-.93-1.06-1.94-1.99-3.03-2.8s-2.22-1.59-3.37-2.34-2.28-1.54-3.39-2.36-2.12-1.76-3.05-2.82c-1.05-1.2-1.79-2.51-2.2-3.91-.41-1.4-.55-2.8-.42-4.19s.53-2.73,1.18-4c.66-1.28,1.54-2.4,2.65-3.38,1.46-1.28,3.13-2.32,5.01-3.14,1.88-.82,3.79-1.28,5.74-1.39,1.95-.11,3.87.18,5.75.86,1.89.69,3.59,1.89,5.11,3.63,1.14,1.3,1.81,2.58,2,3.83.2,1.25.21,2.41.04,3.47-.17,1.07-.37,1.98-.59,2.75-.22.77-.19,1.32.11,1.66ZM181.4,283.91c.25.29.58.63.99,1.02s.83.72,1.27.99.9.44,1.36.5.89-.08,1.29-.42c.3-.26.5-.64.6-1.13.1-.49.13-1.02.09-1.58-.04-.56-.15-1.1-.32-1.63-.17-.53-.4-.95-.67-1.26-.29-.34-.64-.61-1.04-.81s-.82-.33-1.25-.38c-.43-.05-.85-.02-1.27.09-.42.11-.78.29-1.08.56-.6.53-.87,1.2-.79,2,.07.81.35,1.49.84,2.04Z" fill="#f7f797"/>
    <path d="M209.13,220.75c3.97-2.61,8.12-4.08,12.42-4.43,4.31-.34,8.51.18,12.61,1.56,4.1,1.39,7.94,3.51,11.51,6.39,3.58,2.88,6.62,6.22,9.13,10.04,2.33,3.55,4.02,7.27,5.07,11.16,1.05,3.89,1.39,7.7,1.02,11.43-.37,3.73-1.48,7.23-3.32,10.51-1.85,3.28-4.51,6.06-8,8.35-1.57,1.03-3.28,1.9-5.13,2.61s-3.67,1.08-5.49,1.13-3.58-.32-5.27-1.1c-1.7-.79-3.18-2.15-4.46-4.11-.82-1.25-1.56-2.63-2.24-4.14-.67-1.51-1.33-3.07-1.99-4.68-.65-1.61-1.32-3.18-2.01-4.71-.68-1.53-1.44-2.92-2.26-4.17-1.05-1.6-2.21-3.08-3.48-4.45-1.27-1.37-2.58-2.71-3.93-4.03-1.35-1.32-2.67-2.67-3.95-4.06-1.29-1.39-2.45-2.88-3.5-4.48-2.51-3.82-3.53-7.3-3.06-10.43.47-3.13,2.58-5.92,6.33-8.38ZM224.74,232.28c-.83.54-1.31,1.22-1.44,2.03-.14.81-.08,1.67.16,2.57.24.9.61,1.79,1.11,2.67.49.88.95,1.62,1.36,2.25.36.55.84,1.26,1.45,2.15s1.3,1.7,2.08,2.44,1.59,1.29,2.43,1.62c.84.34,1.65.25,2.44-.26.82-.54,1.46-1.28,1.92-2.22.46-.94.72-1.97.8-3.08.08-1.11-.04-2.25-.35-3.41-.31-1.16-.81-2.28-1.5-3.33-.51-.78-1.19-1.49-2.04-2.13-.85-.64-1.76-1.15-2.73-1.52-.97-.37-1.95-.56-2.95-.57-1-.01-1.91.25-2.74.79Z" fill="#f7f797"/>
    <path d="M294.64,204.46c.42.84,1,1.77,1.74,2.81.74,1.04,1.59,2.2,2.53,3.47.94,1.28,1.93,2.74,2.98,4.38,1.05,1.64,2.07,3.47,3.07,5.47,1.15,2.29,1.77,4.68,1.88,7.16.11,2.48-.35,4.92-1.37,7.34-1.03,2.42-2.65,4.74-4.87,6.97-2.22,2.23-5.12,4.24-8.69,6.02-3.37,1.68-6.53,2.74-9.47,3.17-2.95.43-5.64.3-8.09-.38-2.45-.68-4.64-1.91-6.58-3.68-1.94-1.77-3.57-3.99-4.91-6.67-1.38-2.75-2.53-5.48-3.45-8.18-.92-2.7-1.84-4.96-2.76-6.8-.61-1.21-1.29-2.38-2.05-3.51-.77-1.13-1.55-2.27-2.34-3.41-.79-1.14-1.59-2.31-2.39-3.5-.8-1.19-1.53-2.46-2.2-3.79-.86-1.71-1.48-3.41-1.87-5.09s-.48-3.29-.27-4.83.74-2.94,1.59-4.2c.85-1.26,2.08-2.29,3.68-3.09,2.89-1.44,5.62-1.58,8.18-.41,2.57,1.17,4.71,3.49,6.44,6.95.75,1.5,1.35,2.99,1.78,4.47s.8,2.88,1.1,4.22.57,2.6.83,3.77c.26,1.17.6,2.18,1.02,3.01.44.88,1,1.77,1.68,2.68.68.91,1.45,1.69,2.29,2.34.85.65,1.74,1.1,2.67,1.37.93.26,1.88.15,2.84-.33.84-.42,1.5-1.02,1.96-1.8.46-.78.74-1.68.84-2.69.1-1.01.01-2.08-.25-3.2-.26-1.12-.67-2.25-1.23-3.38-.56-1.13-1.22-2.17-1.97-3.12-.75-.96-1.52-1.9-2.32-2.83s-1.58-1.9-2.35-2.9c-.77-.99-1.47-2.12-2.1-3.37-.71-1.42-1.21-2.81-1.52-4.17-.3-1.36-.32-2.65-.06-3.88.26-1.23.81-2.36,1.64-3.4.83-1.04,2.03-1.95,3.6-2.73,1.16-.58,2.38-.91,3.64-1,1.26-.08,2.48.1,3.66.56,1.18.46,2.28,1.15,3.29,2.07,1.02.93,1.89,2.12,2.62,3.58.73,1.46,1.35,2.88,1.87,4.27.52,1.39.97,2.7,1.37,3.94.39,1.24.77,2.39,1.13,3.47.36,1.07.75,2.03,1.17,2.86Z" fill="#f7f797"/>
    <path d="M346.48,204.94c-.68-2.17-1.96-2.96-3.84-2.37-1.06.33-1.78.89-2.16,1.68-.38.79-.39,1.75-.04,2.88.23.73.57,1.43,1.02,2.09.45.66.93,1.31,1.43,1.94s.98,1.28,1.44,1.96.81,1.42,1.06,2.21c.32,1.01.56,2.08.72,3.22s.13,2.23-.11,3.28c-.24,1.05-.74,2-1.52,2.87-.78.86-1.94,1.54-3.5,2.03-1.53.48-2.91.58-4.14.29-1.23-.28-2.32-.8-3.27-1.56-.95-.76-1.76-1.68-2.44-2.76-.68-1.08-1.21-2.18-1.59-3.3l-.1-.32c-.34-1.07-.49-2.19-.45-3.36.04-1.17.1-2.38.19-3.63.09-1.25.13-2.53.12-3.84,0-1.31-.22-2.62-.63-3.93-.36-1.16-.87-2.25-1.51-3.27-.64-1.02-1.31-2.03-2.01-3.02s-1.37-2-2.02-3.04c-.65-1.04-1.16-2.17-1.55-3.39-.31-.98-.49-1.89-.55-2.75-.06-.85.07-1.64.39-2.36.32-.72.85-1.37,1.59-1.94.74-.57,1.77-1.06,3.09-1.47,1.06-.33,2.03-.33,2.93,0,.9.34,1.59.94,2.08,1.79.42.71.78,1.53,1.08,2.45s.59,1.86.86,2.8c.26.94.55,1.86.86,2.75.31.89.69,1.65,1.12,2.26.44.62.97,1.05,1.6,1.31.63.26,1.4.24,2.31-.04,1.03-.32,1.75-.88,2.16-1.66.41-.79.47-1.66.16-2.64-.14-.46-.35-.92-.63-1.39s-.57-.97-.88-1.51-.64-1.12-.96-1.76c-.33-.63-.62-1.35-.87-2.14-.63-2.02-.71-3.7-.21-5.07.49-1.36,1.51-2.29,3.07-2.78,2.02-.63,3.74-.43,5.15.62,1.41,1.05,2.53,2.89,3.35,5.51.21.67.4,1.42.58,2.23.18.82.34,1.65.5,2.51.16.86.32,1.69.5,2.51.18.82.37,1.55.57,2.19.38,1.22.87,2.24,1.45,3.07.58.82,1.2,1.7,1.84,2.64.53.77,1.15,1.53,1.85,2.29.7.75,1.4,1.54,2.1,2.38.7.84,1.36,1.72,1.97,2.65s1.1,1.98,1.47,3.13c.42,1.34.66,2.66.71,3.95.05,1.29-.11,2.49-.47,3.59-.36,1.1-.94,2.07-1.74,2.91-.8.84-1.86,1.46-3.18,1.88-1.41.44-2.63.58-3.66.42-1.04-.16-1.92-.53-2.67-1.1-.74-.57-1.36-1.31-1.85-2.21-.49-.9-.9-1.86-1.21-2.87l-.1-.32c-.29-.92-.48-1.84-.58-2.76-.1-.93-.18-1.84-.23-2.74-.06-.9-.12-1.78-.2-2.63s-.23-1.65-.47-2.42Z" fill="#f7f797"/>
    <path d="M362.16,209.69c-.23-1.1-.21-2.22.07-3.37.28-1.15.67-2.3,1.16-3.46s1.05-2.26,1.66-3.34c.61-1.08,1.11-2.08,1.51-3.01.66-1.48,1.1-2.9,1.3-4.27.2-1.37.28-2.68.23-3.95-.04-1.27-.16-2.47-.36-3.63-.19-1.15-.37-2.25-.52-3.3-.16-1.05-.24-2.03-.26-2.94-.02-.91.14-1.76.48-2.55.38-.9.88-1.69,1.51-2.38s1.33-1.29,2.12-1.82c.79-.52,1.62-.96,2.51-1.31.88-.35,1.78-.62,2.68-.81,1.32-.28,2.59-.35,3.8-.21,1.21.14,2.35.67,3.42,1.59.53.45,1.06,1.12,1.58,2.02s1.05,1.87,1.6,2.9c.55,1.03,1.11,2.06,1.68,3.08.58,1.02,1.16,1.88,1.74,2.58.87.99,1.76,1.86,2.67,2.61.91.74,1.81,1.45,2.71,2.13s1.77,1.36,2.62,2.05c.85.69,1.63,1.46,2.34,2.3.71.85,1.35,1.82,1.9,2.91.56,1.09,1,2.39,1.31,3.89.28,1.35.38,2.63.29,3.86-.09,1.23-.39,2.32-.89,3.28-.51.96-1.23,1.78-2.17,2.46-.94.69-2.1,1.18-3.49,1.46-1.75.37-3.28.33-4.59-.09-1.31-.43-2.45-1.07-3.41-1.91-.96-.85-1.8-1.8-2.51-2.86s-1.36-2.05-1.94-2.98c-.59-.92-1.14-1.68-1.65-2.28-.52-.59-1.06-.83-1.63-.71-.12.03-.25.07-.37.13-.13.06-.23.14-.3.26-.68.8-1.07,1.74-1.15,2.84-.08,1.1-.06,2.24.06,3.44.12,1.2.25,2.42.39,3.65.13,1.23.04,2.38-.27,3.44-.31,1.06-.93,2.01-1.86,2.84-.93.83-2.37,1.45-4.32,1.86-3.1.65-5.66.45-7.69-.6s-3.34-3-3.93-5.85ZM376.17,187.88c.1.47.3.85.59,1.15.3.3.65.51,1.05.64.4.13.83.2,1.27.22.44.02.86,0,1.25-.09.36-.08.75-.21,1.17-.39.42-.19.79-.43,1.12-.72.33-.3.58-.63.76-.99s.21-.78.12-1.25c-.09-.44-.29-.87-.58-1.3-.29-.43-.66-.81-1.09-1.15-.43-.33-.91-.58-1.43-.73-.52-.15-1.03-.18-1.54-.07-.54.11-1,.34-1.37.68-.37.34-.67.74-.9,1.19-.23.46-.39.93-.46,1.42s-.06.95.03,1.39Z" fill="#f7f797"/>
    <path d="M423.88,184.7c.04.35.38.76,1.04,1.24.66.48,1.46,1.01,2.42,1.59.96.59,2.01,1.24,3.16,1.95,1.14.71,2.21,1.48,3.2,2.31.99.83,1.83,1.71,2.54,2.67.71.95,1.12,1.97,1.24,3.05.11,1.02-.02,2.01-.39,2.96-.38.96-.9,1.83-1.57,2.61-.67.78-1.45,1.43-2.34,1.95-.89.51-1.79.82-2.71.92-.58.06-1.17.09-1.78.07-.6-.02-1.19-.11-1.75-.27-.56-.16-1.08-.41-1.57-.75-.49-.33-.91-.79-1.28-1.36-.33-.48-.65-1.2-.96-2.17-.31-.96-.61-2.02-.92-3.16-.31-1.14-.62-2.32-.94-3.54s-.66-2.32-1.03-3.29c-.37-.97-.76-1.76-1.18-2.36-.42-.6-.89-.87-1.41-.81s-.94.29-1.27.72-.46.9-.4,1.44c.1.89.39,1.71.87,2.44s.99,1.45,1.53,2.15,1.05,1.42,1.54,2.17.78,1.6.88,2.56c.12,1.11-.02,2.18-.42,3.21-.4,1.02-.97,1.93-1.7,2.72-.73.79-1.59,1.44-2.57,1.95s-1.97.82-2.98.93c-2.29.25-4.2-.11-5.73-1.09-1.53-.98-2.46-2.65-2.78-5.03l-.04-.38c-.11-1.05-.07-2.09.15-3.13.21-1.04.45-2.07.73-3.1.27-1.03.52-2.06.73-3.1s.26-2.08.15-3.13c-.15-1.4-.45-2.74-.88-4.03-.44-1.29-.91-2.57-1.42-3.85-.51-1.28-.99-2.57-1.42-3.88-.44-1.3-.73-2.66-.88-4.05-.17-1.59-.03-3.08.44-4.47s1.15-2.61,2.06-3.68,1.99-1.93,3.27-2.6,2.64-1.08,4.11-1.24c1.93-.21,3.89-.11,5.9.3,2.01.41,3.84,1.12,5.5,2.15,1.66,1.03,3.07,2.36,4.22,4.01s1.86,3.61,2.11,5.9c.19,1.72,0,3.15-.55,4.29s-1.21,2.1-1.96,2.87c-.75.78-1.44,1.41-2.06,1.92-.63.5-.91.98-.87,1.42ZM413.35,177.45c.04.38.12.85.22,1.4s.26,1.07.47,1.54c.21.48.48.87.83,1.19.34.32.78.45,1.29.39.4-.04.78-.24,1.14-.58s.69-.76.98-1.24c.29-.48.51-.99.67-1.52.16-.53.22-1.01.17-1.42-.05-.45-.18-.87-.39-1.26-.21-.39-.48-.74-.81-1.02-.33-.29-.69-.5-1.09-.65-.4-.15-.8-.2-1.2-.16-.79.09-1.39.48-1.8,1.19-.4.7-.56,1.42-.48,2.15Z" fill="#f7f797"/>
    <path d="M468.56,160.23c1.2.04,2.19.4,2.96,1.09.78.68,1.42,1.52,1.92,2.52.5.99.92,2.06,1.25,3.21.33,1.15.64,2.21.93,3.2s.59,1.81.91,2.48c.32.67.73,1.01,1.26,1.03.4.01.79-.29,1.19-.92s.8-1.42,1.24-2.38c.43-.96.91-2,1.44-3.12.53-1.12,1.14-2.15,1.84-3.11s1.49-1.73,2.39-2.35c.9-.61,1.95-.89,3.14-.85,1.17.04,2.13.3,2.88.79.75.49,1.33,1.17,1.73,2.05s.66,1.95.79,3.22c.12,1.27.16,2.7.11,4.3-.04,1.09.13,2.38.49,3.88.36,1.5.76,3.12,1.2,4.87.43,1.74.82,3.58,1.17,5.52s.49,3.88.42,5.83c-.09,2.62-.38,4.8-.87,6.55s-1.13,3.14-1.92,4.19c-.79,1.04-1.71,1.78-2.75,2.19-1.05.41-2.18.6-3.41.56-1.26-.04-2.41-.31-3.46-.79s-1.93-1.14-2.66-1.96c-.73-.83-1.28-1.8-1.65-2.94-.38-1.13-.54-2.39-.5-3.76.06-1.86.27-3.38.62-4.59s.73-2.29,1.15-3.25c.42-.96.79-1.9,1.13-2.82.34-.92.53-2.03.57-3.34.03-.73-.07-1.31-.29-1.74s-.51-.64-.88-.65c-.34-.01-.63.25-.88.79-.25.54-.48,1.21-.69,2.02-.21.81-.43,1.69-.64,2.64-.22.95-.49,1.83-.81,2.64-.32.8-.71,1.47-1.18,2-.46.53-1.04.78-1.71.76-.68-.02-1.23-.31-1.68-.88-.44-.56-.82-1.25-1.13-2.08-.31-.83-.56-1.72-.76-2.69-.2-.97-.38-1.86-.55-2.68s-.34-1.51-.51-2.06c-.17-.55-.37-.83-.62-.84-.31,0-.57.12-.78.41s-.38.63-.5,1.04c-.12.41-.21.86-.25,1.34s-.08.89-.09,1.25c-.04,1.28.13,2.45.53,3.5.39,1.05.84,2.09,1.35,3.1s.95,2.03,1.35,3.05c.4,1.02.57,2.16.53,3.4-.04,1.25-.24,2.45-.58,3.61-.35,1.16-.93,2.16-1.74,3.01s-1.91,1.53-3.28,2.03-3.09.71-5.14.64c-1.32-.04-2.46-.4-3.4-1.08-.95-.67-1.7-1.5-2.27-2.48-.57-.98-.98-2.03-1.23-3.16-.25-1.13-.36-2.19-.33-3.18.08-2.33.33-4.58.76-6.72.43-2.15.89-4.3,1.4-6.46.5-2.16.97-4.38,1.4-6.65.43-2.28.69-4.71.78-7.3.04-1.15.25-2.21.64-3.17.39-.96.93-1.8,1.63-2.51s1.56-1.26,2.57-1.64c1.01-.38,2.16-.55,3.46-.51Z" fill="#f7f797"/>
    <path d="M514.16,162.32c2.11.27,4.05.6,5.83.99,1.78.39,3.3.89,4.58,1.48,1.27.6,2.24,1.35,2.9,2.24.66.89.91,1.96.75,3.2-.15,1.17-.48,2.09-.98,2.75-.5.66-1.12,1.15-1.87,1.48-.74.32-1.55.53-2.45.61-.89.08-1.8.14-2.72.18s-1.82.1-2.7.18c-.88.08-1.67.29-2.36.62-.29.12-.6.32-.91.58-.31.27-.49.57-.54.92s.02.64.19.87c.17.23.39.42.65.57.26.15.55.26.87.33s.6.12.84.16c.79.1,1.65.18,2.57.23.92.05,1.74.34,2.45.85.42.31.87.74,1.35,1.29.47.54.67,1.13.59,1.77-.09.67-.39,1.16-.91,1.48s-1.16.55-1.9.7c-.75.14-1.54.25-2.39.32-.85.07-1.64.16-2.38.28-.74.11-1.37.3-1.88.55-.51.26-.81.67-.88,1.24-.13.98.12,1.72.74,2.2.62.48,1.33.78,2.12.88.73.09,1.46.12,2.2.09s1.46-.08,2.18-.13c.72-.05,1.45-.09,2.18-.11s1.46.02,2.2.11c1.19.15,2.13.48,2.83.97.7.49,1.21,1.12,1.55,1.87.34.75.52,1.61.55,2.56.03.96-.02,1.99-.17,3.1-.34,2.63-1.18,4.65-2.52,6.06s-2.96,2.41-4.85,3.01-3.91.88-6.06.84c-2.15-.03-4.22-.18-6.2-.43-1.74-.22-3.39-.6-4.95-1.12-1.56-.52-2.91-1.25-4.05-2.17-1.14-.92-1.99-2.07-2.55-3.45-.57-1.38-.72-3.05-.47-5.02.18-1.36.56-2.56,1.16-3.6.6-1.04,1.23-2.04,1.9-3.02.67-.98,1.3-2,1.91-3.07.6-1.07,1-2.31,1.18-3.74.21-1.62.25-3.08.12-4.39-.13-1.31-.29-2.54-.48-3.69-.19-1.15-.36-2.3-.51-3.43s-.14-2.32.02-3.55c.19-1.46.64-2.65,1.37-3.58.72-.92,1.61-1.64,2.67-2.15,1.06-.51,2.22-.83,3.49-.95,1.27-.13,2.53-.11,3.78.05Z" fill="#f7f797"/>
    <path d="M543.94,168.2c1.29.28,2.25.76,2.87,1.45.62.69.97,1.73,1.05,3.12.03.46.08,1.16.16,2.1.08.94.2,1.98.36,3.15.16,1.16.35,2.37.57,3.61s.48,2.39.79,3.44c.31,1.05.66,1.93,1.06,2.63.4.71.85,1.12,1.36,1.23.36.08.71-.05,1.05-.39s.63-.76.88-1.26c.25-.5.46-1.01.64-1.53.17-.52.29-.9.34-1.15.18-.84.27-1.7.27-2.57s-.02-1.73-.06-2.59c-.04-.86-.06-1.71-.07-2.54s.08-1.68.26-2.52c.4-1.88,1.21-3.15,2.43-3.82,1.21-.67,2.69-.82,4.44-.45.63.13,1.25.41,1.85.84.6.42,1.11.94,1.53,1.56.42.61.73,1.27.92,1.96s.22,1.41.06,2.12c-.46,2.16-1.04,4.26-1.73,6.3-.69,2.04-1.27,4.15-1.73,6.3-.29,1.38-.43,2.75-.42,4.13s.07,2.77.17,4.16.15,2.77.17,4.14c.02,1.36-.12,2.73-.41,4.11-.29,1.35-.69,2.58-1.22,3.69-.52,1.12-1.16,2.04-1.92,2.78-.76.74-1.64,1.25-2.64,1.54-1.01.29-2.16.3-3.45.02-1.26-.27-2.31-.79-3.13-1.56-.83-.77-1.46-1.67-1.92-2.72-.45-1.05-.72-2.18-.8-3.41s0-2.44.26-3.63c.17-.81.24-1.86.21-3.15-.04-1.29-.17-2.56-.38-3.84-.21-1.27-.53-2.39-.93-3.34s-.88-1.49-1.42-1.61c-.27-.06-.5-.02-.69.12-.19.14-.35.33-.5.58-.15.25-.26.51-.33.79-.08.28-.13.51-.17.7-.18.85-.21,1.71-.08,2.59.12.88.27,1.78.43,2.7.16.92.29,1.89.39,2.91s.02,2.11-.23,3.26c-.24,1.13-.64,2.15-1.2,3.08-.56.93-1.24,1.7-2.03,2.31-.79.62-1.69,1.04-2.7,1.26-1.01.23-2.08.21-3.22-.03-1.08-.23-2.04-.67-2.86-1.3-.82-.64-1.49-1.39-2.01-2.27-.52-.88-.87-1.86-1.05-2.93s-.15-2.17.09-3.29c.4-1.88.96-3.69,1.69-5.43.72-1.74,1.46-3.47,2.22-5.19.76-1.72,1.5-3.45,2.22-5.19.72-1.74,1.28-3.54,1.67-5.38.3-1.41.46-2.81.46-4.22,0-1.41.13-2.67.37-3.8.33-1.53,1.08-2.58,2.26-3.15,1.17-.56,2.44-.7,3.79-.41Z" fill="#f7f797"/>
    <path d="M588.72,178.82c.76.23,1.63.54,2.59.9.97.37,1.95.79,2.96,1.29s1.97,1.06,2.88,1.69c.92.63,1.69,1.34,2.31,2.12.63.78,1.06,1.63,1.31,2.56.24.93.2,1.93-.13,3-.47,1.53-1.09,2.58-1.86,3.14-.77.57-1.92.62-3.45.14-.71-.22-1.33-.54-1.88-.96s-1.08-.86-1.6-1.32c-.52-.46-1.05-.9-1.6-1.32s-1.17-.74-1.88-.96c-.68-.21-1.35-.21-2.01,0-.66.21-1.1.66-1.3,1.33-.18.58.08,1.27.79,2.05.71.79,1.63,1.66,2.76,2.63,1.13.97,2.35,2.03,3.66,3.16,1.3,1.14,2.47,2.38,3.48,3.74,1.02,1.35,1.76,2.8,2.23,4.35.47,1.55.44,3.2-.1,4.94-.85,2.75-2.03,5.02-3.54,6.79-1.51,1.78-3.3,3.08-5.35,3.9s-4.35,1.2-6.87,1.15c-2.52-.06-5.23-.53-8.11-1.42-1.82-.56-3.48-1.44-4.98-2.64-1.5-1.2-2.72-2.61-3.66-4.24s-1.56-3.4-1.84-5.31c-.28-1.91-.12-3.85.49-5.8.25-.83.63-1.64,1.14-2.44.5-.8,1.1-1.48,1.79-2.06.69-.57,1.46-.97,2.3-1.2.84-.22,1.72-.2,2.63.08.88.27,1.67.72,2.36,1.35.69.63,1.36,1.3,2.01,2,.65.7,1.34,1.38,2.06,2.02.72.64,1.54,1.1,2.45,1.38,1.35.42,2.16.21,2.41-.61.18-.58-.04-1.23-.65-1.96-.61-.72-1.42-1.54-2.41-2.45-.99-.91-2.05-1.9-3.18-2.99-1.13-1.08-2.13-2.27-3-3.56-.87-1.29-1.5-2.69-1.87-4.19s-.29-3.11.23-4.83c.31-1.01.81-1.88,1.51-2.62.69-.74,1.51-1.36,2.45-1.86.94-.5,1.97-.88,3.08-1.13s2.22-.42,3.33-.48c1.11-.06,2.19-.04,3.24.07,1.05.11,1.98.29,2.8.54Z" fill="#f7f797"/>
    <path d="M624.49,190.99c.83.33,1.74.72,2.74,1.15,1,.44,1.99.91,2.98,1.43.99.52,1.92,1.09,2.79,1.71.87.63,1.61,1.3,2.22,2.03.73.91,1.16,1.79,1.31,2.62.14.83,0,1.82-.46,2.94-.51,1.28-1.17,2.24-1.97,2.88-.8.64-1.88.69-3.22.16-.63-.25-1.14-.56-1.54-.93-.4-.37-.75-.74-1.04-1.12-.3-.38-.59-.73-.87-1.05-.29-.32-.63-.56-1.03-.72-.34-.14-.67-.12-.99.04s-.61.41-.89.73c-.28.32-.53.69-.75,1.12-.22.43-.41.84-.56,1.22-.71,1.78-1.14,3.62-1.27,5.52-.13,1.9-.21,3.81-.22,5.76s-.09,3.86-.22,5.76c-.13,1.89-.55,3.72-1.25,5.47-.57,1.43-1.34,2.56-2.32,3.42s-2.05,1.45-3.23,1.8c-1.18.35-2.42.47-3.72.35-1.29-.12-2.55-.43-3.78-.92-1.23-.49-2.36-1.14-3.39-1.96s-1.86-1.76-2.49-2.84c-.63-1.08-1-2.26-1.13-3.56s.08-2.66.62-4.09l.07-.18c.7-1.75,1.65-3.35,2.85-4.8,1.19-1.45,2.45-2.88,3.76-4.29,1.31-1.4,2.56-2.84,3.77-4.31,1.2-1.47,2.15-3.08,2.86-4.83.2-.5.41-.99.61-1.46.2-.47.34-.91.41-1.34.07-.42.01-.79-.17-1.13-.18-.33-.56-.61-1.13-.84-.46-.18-.92-.27-1.39-.25-.47.02-.96.06-1.46.11-.5.06-1,.09-1.5.09-.5,0-1.01-.09-1.52-.3-1.2-.48-2-1.21-2.41-2.18-.41-.97-.34-2.11.18-3.42.45-1.13,1.13-1.94,2.05-2.44.91-.5,1.94-.78,3.08-.86s2.37,0,3.67.26c1.31.25,2.58.56,3.82.94s2.4.78,3.49,1.22c1.08.43,1.97.79,2.65,1.06Z" fill="#f7f797"/>
    <path d="M650.39,228.35c-.16.32-.09.85.2,1.61s.68,1.64,1.17,2.65c.49,1.02,1.02,2.13,1.6,3.35.57,1.22,1.05,2.44,1.43,3.67.38,1.23.61,2.44.69,3.62.08,1.19-.13,2.26-.62,3.24-.46.91-1.11,1.67-1.94,2.27-.83.6-1.75,1.05-2.74,1.34s-2,.41-3.02.36c-1.03-.05-1.95-.28-2.77-.69-.52-.26-1.03-.56-1.53-.9-.5-.34-.94-.73-1.32-1.17s-.68-.93-.91-1.48-.34-1.16-.34-1.84c-.02-.58.11-1.36.37-2.34.27-.98.58-2.03.94-3.15s.74-2.29,1.13-3.49c.39-1.2.7-2.31.92-3.32s.31-1.89.29-2.62c-.03-.73-.28-1.21-.74-1.45-.47-.23-.95-.26-1.46-.09s-.88.51-1.12,1c-.4.8-.6,1.64-.59,2.52,0,.88.05,1.76.12,2.64s.11,1.77.11,2.66c0,.89-.22,1.77-.65,2.63-.5,1-1.2,1.82-2.09,2.47-.89.64-1.86,1.1-2.9,1.36-1.04.26-2.12.34-3.21.24-1.1-.11-2.1-.38-3.01-.84-2.06-1.03-3.47-2.38-4.22-4.03-.75-1.65-.62-3.56.4-5.73l.17-.34c.47-.94,1.08-1.79,1.82-2.55.74-.76,1.5-1.49,2.29-2.21.79-.71,1.55-1.45,2.29-2.21s1.35-1.61,1.82-2.55c.63-1.26,1.11-2.55,1.45-3.87.33-1.32.63-2.65.9-4.01.27-1.35.57-2.7.91-4.03s.83-2.63,1.46-3.88c.72-1.43,1.65-2.6,2.79-3.51,1.15-.91,2.39-1.57,3.72-1.97,1.34-.4,2.72-.54,4.15-.41,1.43.13,2.81.52,4.13,1.19,1.73.87,3.33,2.02,4.8,3.45,1.46,1.43,2.62,3.03,3.45,4.79s1.29,3.65,1.37,5.65-.4,4.04-1.44,6.1c-.77,1.54-1.71,2.64-2.79,3.3-1.09.66-2.15,1.1-3.2,1.35-1.05.24-1.98.41-2.77.49-.8.08-1.3.32-1.5.72ZM645.48,216.54c-.17.34-.36.78-.57,1.3s-.36,1.04-.44,1.55c-.08.51-.07.99.05,1.45s.41.79.88,1.03c.36.18.78.22,1.28.13s.99-.26,1.5-.51c.5-.25.96-.55,1.39-.91.42-.36.73-.73.91-1.1.2-.4.32-.82.35-1.27.04-.45,0-.88-.12-1.3-.12-.42-.3-.8-.56-1.14s-.56-.61-.92-.79c-.71-.36-1.43-.35-2.15.02s-1.25.89-1.58,1.54Z" fill="#f7f797"/>
    <path d="M689.42,245.85c-.33.55-.66,1.23-.99,2.04-.33.81-.69,1.72-1.08,2.74s-.88,2.12-1.44,3.33c-.57,1.21-1.25,2.47-2.04,3.79-.91,1.51-2.06,2.75-3.45,3.72-1.39.97-2.98,1.6-4.75,1.9s-3.71.21-5.82-.26c-2.11-.47-4.33-1.41-6.67-2.82-2.21-1.33-3.98-2.78-5.31-4.32-1.33-1.55-2.24-3.16-2.75-4.82-.5-1.67-.6-3.39-.28-5.16s1-3.54,2.06-5.29c1.09-1.81,2.25-3.47,3.47-5s2.2-2.89,2.93-4.09c.48-.79.9-1.62,1.28-2.48.37-.86.74-1.73,1.11-2.61.37-.88.75-1.77,1.15-2.67.4-.9.86-1.79,1.39-2.66.68-1.12,1.43-2.11,2.26-2.95s1.73-1.49,2.7-1.93c.97-.45,1.97-.65,3.01-.62,1.04.03,2.09.36,3.14,1,1.9,1.14,2.98,2.67,3.24,4.59.26,1.91-.29,4.01-1.66,6.28-.59.99-1.24,1.88-1.93,2.67s-1.38,1.52-2.04,2.19c-.67.66-1.29,1.29-1.88,1.87s-1.04,1.15-1.37,1.7c-.35.57-.66,1.23-.94,1.96-.28.73-.45,1.46-.51,2.19-.06.73,0,1.41.19,2.05.19.64.6,1.15,1.23,1.53.55.33,1.14.49,1.76.47s1.24-.19,1.87-.5c.62-.32,1.21-.76,1.76-1.32s1.05-1.21,1.5-1.95.81-1.5,1.08-2.29c.28-.79.54-1.58.79-2.38s.52-1.61.81-2.42c.29-.81.69-1.63,1.18-2.45.56-.93,1.18-1.73,1.86-2.41.68-.67,1.42-1.16,2.23-1.46.81-.3,1.67-.4,2.58-.3.91.1,1.88.46,2.9,1.08.76.46,1.4,1.04,1.91,1.74.51.7.85,1.48,1.02,2.33s.17,1.74,0,2.67c-.17.93-.54,1.87-1.11,2.83s-1.17,1.84-1.79,2.65c-.61.81-1.21,1.55-1.78,2.23-.57.68-1.1,1.32-1.59,1.93-.49.6-.9,1.18-1.23,1.72Z" fill="#f7f797"/>
    <path d="M681.62,262.47c.66-.9,1.52-1.63,2.56-2.2,1.04-.56,2.16-1.04,3.35-1.44s2.39-.72,3.59-.99c1.21-.26,2.29-.56,3.25-.88,1.54-.49,2.89-1.12,4.05-1.88,1.15-.76,2.19-1.58,3.1-2.46s1.73-1.77,2.46-2.69c.73-.91,1.43-1.78,2.11-2.59s1.35-1.53,2.01-2.15,1.41-1.07,2.22-1.35c.92-.32,1.84-.47,2.77-.46.93,0,1.85.13,2.77.37s1.8.57,2.65.99c.85.43,1.65.91,2.39,1.46,1.09.8,1.98,1.7,2.69,2.69.7.99,1.07,2.2,1.1,3.61.02.69-.13,1.54-.46,2.53-.33.99-.7,2.03-1.1,3.12-.4,1.09-.8,2.2-1.17,3.31-.38,1.11-.63,2.12-.76,3.02-.16,1.31-.22,2.55-.16,3.72.05,1.17.13,2.32.22,3.44.09,1.12.16,2.23.22,3.32.05,1.09,0,2.19-.15,3.28-.16,1.1-.46,2.22-.9,3.36-.44,1.14-1.12,2.34-2.03,3.57-.82,1.11-1.71,2.04-2.69,2.79-.97.75-1.99,1.26-3.04,1.52s-2.14.27-3.28.03c-1.14-.24-2.28-.78-3.42-1.62-1.44-1.06-2.43-2.22-2.99-3.48-.56-1.27-.84-2.54-.85-3.82-.01-1.28.14-2.54.46-3.78.32-1.24.62-2.38.92-3.43.3-1.05.5-1.97.59-2.75.1-.78-.09-1.35-.56-1.69-.1-.07-.21-.14-.34-.19-.13-.06-.26-.07-.39-.05-1.05.02-2.01.37-2.88,1.04-.87.67-1.72,1.45-2.53,2.34-.81.89-1.63,1.8-2.46,2.72-.83.92-1.74,1.62-2.74,2.09s-2.12.65-3.35.51c-1.24-.14-2.66-.79-4.27-1.98-2.55-1.88-4.11-3.92-4.68-6.13-.57-2.21,0-4.48,1.73-6.83ZM707.21,258.36c-.29.39-.44.79-.46,1.21-.02.42.05.82.23,1.21.17.39.4.75.68,1.1s.58.64.9.88c.3.22.65.42,1.07.61.42.19.84.3,1.29.35.44.05.86.02,1.25-.1s.72-.36,1.01-.75c.27-.36.46-.79.58-1.3.12-.51.17-1.03.13-1.57-.04-.54-.17-1.06-.41-1.55-.23-.49-.56-.89-.98-1.2-.45-.33-.92-.52-1.42-.57-.5-.05-1,0-1.49.12s-.95.33-1.36.61c-.41.27-.75.59-1.02.95Z" fill="#f7f797"/>
    <path d="M750.09,268.32c.67.58,1.41,1.24,2.22,1.98.8.74,1.59,1.51,2.35,2.32.76.81,1.46,1.65,2.08,2.53.62.88,1.1,1.76,1.44,2.64.39,1.1.52,2.07.39,2.9-.13.84-.6,1.71-1.39,2.63-.9,1.04-1.84,1.74-2.8,2.08-.97.35-2,.04-3.09-.9-.51-.44-.9-.9-1.16-1.38-.26-.48-.47-.94-.62-1.39-.16-.45-.32-.88-.48-1.27-.17-.4-.41-.74-.74-1.02-.28-.24-.59-.33-.95-.28-.35.05-.71.19-1.08.4s-.72.48-1.07.82c-.35.33-.66.66-.93.97-1.25,1.45-2.25,3.05-2.99,4.8-.74,1.75-1.44,3.54-2.08,5.37s-1.34,3.62-2.08,5.37c-.74,1.75-1.73,3.34-2.96,4.77-1,1.16-2.1,1.99-3.3,2.48-1.2.49-2.41.71-3.65.66-1.23-.05-2.44-.35-3.63-.88-1.18-.54-2.27-1.24-3.27-2.1-1-.87-1.86-1.85-2.57-2.95-.71-1.1-1.19-2.27-1.43-3.49s-.21-2.47.09-3.73c.3-1.26.94-2.49,1.92-3.67l.13-.14c1.24-1.43,2.65-2.63,4.25-3.62s3.25-1.93,4.95-2.83c1.69-.9,3.35-1.85,4.96-2.85,1.61-1,3.04-2.21,4.27-3.64.36-.41.71-.81,1.05-1.18.35-.38.62-.75.82-1.13s.27-.75.21-1.12c-.06-.37-.33-.76-.79-1.16-.37-.32-.78-.55-1.23-.69-.45-.14-.93-.26-1.42-.37-.5-.11-.98-.24-1.45-.4s-.92-.42-1.34-.78c-.98-.84-1.5-1.79-1.57-2.84-.07-1.05.36-2.11,1.28-3.18.79-.92,1.7-1.47,2.73-1.64,1.02-.17,2.09-.11,3.19.19,1.1.3,2.23.78,3.39,1.44,1.16.66,2.26,1.37,3.31,2.13s2.02,1.52,2.9,2.29c.88.76,1.6,1.39,2.16,1.87Z" fill="#f7f797"/>
    <path d="M769.83,285.96c1.56,1.53,2.44,3.07,2.64,4.62.2,1.56-.31,2.96-1.51,4.19-.6.62-1.38,1.23-2.31,1.84-.94.61-1.93,1.25-2.99,1.94-1.06.69-2.15,1.43-3.26,2.22-1.12.79-2.17,1.69-3.15,2.7-1.07,1.1-1.88,2.28-2.41,3.55-.53,1.27-1.01,2.57-1.45,3.89-.43,1.32-.92,2.63-1.48,3.92-.55,1.29-1.38,2.52-2.47,3.69l-.17.17c-5.25,5.38-10.1,5.9-14.55,1.56-1.96-1.91-3.01-3.93-3.14-6.06s.64-4.12,2.34-6l.27-.28c.98-1.01,2.03-1.78,3.13-2.31,1.1-.54,2.24-1.06,3.42-1.59,1.18-.53,2.4-1.14,3.66-1.83,1.26-.7,2.54-1.71,3.83-3.04,1.18-1.21,2.11-2.4,2.77-3.56.66-1.16,1.24-2.29,1.72-3.38s.99-2.16,1.51-3.19c.52-1.04,1.25-2.04,2.19-3,1.79-1.83,3.67-2.76,5.64-2.78,1.97-.02,3.89.88,5.77,2.71Z" fill="#f7f797"/>
    <path d="M790.33,307.8c1.13,1.26,1.96,2.66,2.47,4.2.51,1.54.77,3.15.76,4.81,0,1.66-.25,3.36-.74,5.08s-1.16,3.43-2.03,5.1-1.88,3.27-3.04,4.8c-1.16,1.53-2.43,2.91-3.81,4.16-2.04,1.85-4.27,3.31-6.68,4.39-2.41,1.08-4.83,1.69-7.26,1.84-2.43.15-4.8-.22-7.11-1.1-2.3-.88-4.4-2.36-6.27-4.43-1.61-1.78-2.71-3.7-3.29-5.76-.59-2.06-.7-4.16-.32-6.3.37-2.14,1.19-4.27,2.45-6.38,1.26-2.11,2.92-4.1,4.99-5.97,2.47-2.23,5.1-4.05,7.9-5.46,2.8-1.41,5.56-2.34,8.28-2.79,2.72-.45,5.28-.38,7.67.22,2.39.59,4.4,1.79,6.03,3.59ZM772.63,317.2c-.9.82-1.35,1.83-1.33,3.04.01,1.21.51,2.35,1.48,3.42.87.96,1.82,1.47,2.86,1.55,1.04.08,2.01-.29,2.91-1.11.5-.45.88-.96,1.16-1.51.27-.56.44-1.13.49-1.71.05-.59-.01-1.16-.2-1.72-.18-.56-.49-1.08-.92-1.56-.43-.48-.92-.84-1.47-1.09-.55-.25-1.11-.39-1.69-.43-.57-.04-1.15.03-1.71.21-.57.18-1.09.49-1.56.92Z" fill="#f7f797"/>
    <path d="M807.77,329.74c.81,1.05,1.22,2.04,1.25,2.96.03.93-.38,1.95-1.22,3.06-.28.37-.69.94-1.23,1.71s-1.13,1.64-1.76,2.63-1.26,2.03-1.9,3.12c-.64,1.09-1.17,2.13-1.61,3.14-.44,1-.74,1.9-.89,2.7-.15.8-.07,1.4.25,1.82.23.29.58.42,1.05.38s.97-.17,1.49-.39c.51-.22,1.01-.47,1.48-.76.47-.28.8-.5,1.01-.66.68-.53,1.31-1.12,1.87-1.79s1.1-1.33,1.63-2.01c.53-.68,1.06-1.34,1.59-1.98s1.14-1.23,1.83-1.76c1.52-1.17,2.96-1.62,4.32-1.35,1.36.27,2.59,1.12,3.67,2.53.39.51.68,1.12.87,1.84.19.71.24,1.44.16,2.18-.08.74-.27,1.44-.57,2.1-.3.66-.74,1.21-1.33,1.66-1.75,1.35-3.55,2.58-5.4,3.69s-3.65,2.34-5.4,3.69c-1.12.86-2.11,1.82-2.99,2.88-.88,1.06-1.73,2.16-2.56,3.28s-1.68,2.21-2.54,3.27c-.87,1.05-1.85,2.01-2.97,2.87-1.09.84-2.19,1.52-3.31,2.03-1.12.51-2.21.8-3.26.88-1.05.07-2.06-.1-3.01-.53s-1.84-1.17-2.64-2.21c-.79-1.02-1.25-2.09-1.38-3.21s-.04-2.22.3-3.31.86-2.13,1.6-3.12c.73-.99,1.58-1.86,2.54-2.6.66-.51,1.39-1.26,2.19-2.27.8-1,1.53-2.06,2.19-3.17s1.14-2.16,1.45-3.15c.3-.99.29-1.71-.05-2.15-.17-.22-.37-.34-.6-.35s-.49.03-.76.12c-.27.09-.53.22-.76.38s-.43.3-.58.42c-.68.53-1.26,1.17-1.73,1.92-.47.75-.94,1.53-1.41,2.34-.47.81-1,1.63-1.58,2.47-.59.84-1.35,1.62-2.29,2.34-.91.7-1.88,1.23-2.91,1.57s-2.04.5-3.04.45-1.96-.3-2.88-.78c-.92-.48-1.73-1.18-2.44-2.11-.68-.88-1.12-1.82-1.34-2.84-.22-1.02-.24-2.03-.07-3.04.17-1.01.54-1.98,1.09-2.91s1.29-1.75,2.2-2.45c1.52-1.17,3.12-2.19,4.8-3.05,1.68-.86,3.36-1.71,5.05-2.52s3.38-1.66,5.05-2.52c1.68-.87,3.26-1.87,4.76-3.03,1.14-.88,2.17-1.85,3.08-2.93.91-1.07,1.82-1.96,2.74-2.66,1.24-.96,2.49-1.27,3.76-.94,1.26.33,2.31,1.04,3.16,2.14Z" fill="#f7f797"/>
  </g>
</svg>