<?xml version="1.0" encoding="UTF-8"?>
<svg id="Layer_2" xmlns="http://www.w3.org/2000/svg" viewBox="0 0 160.73 160.73">
  <circle cx="80.36" cy="80.36" r="79.97" fill="#c2858c"/>
  <g id="AaMVTK">
    <g>
      <path d="M104.45,26.14c.49.24,1.04.27,1.55.43,2.18.66,4.24,1.54,5.89,3.17,2.49,2.45,2.84,5.8,1.01,8.99-1.24,2.16-3.06,3.73-5.08,5.1-3.07,2.08-6.43,3.6-9.88,4.95-2.35.92-4.74,1.72-7.15,2.45-.76.23-1.25.74-1.39,1.53-.13.73.13,1.34.7,1.8.51.41,1.09.51,1.72.34,4.05-1.08,8-2.41,11.74-4.34.3-.16.6-.32.9-.46.67-.3,1.3.06,1.33.81.03.68.01,1.36-.01,2.03-.01.35.07.62.35.84.29.24.54.51.81.77.64.64.55,1.29-.26,1.71-2.57,1.35-5.24,2.44-7.99,3.38-2.64.91-5.33,1.65-8.06,2.26-.76.17-1.2.63-1.25,1.28-.05.61.3,1.18.89,1.4.23.08.49.11.75.13,3.32.22,6.63.27,9.95.08,2.3-.14,4.58-.44,6.84-.88.73-.14,1.21.31,1.14,1.07-.08.77-.16,1.55-.26,2.32-.04.32.02.59.19.86.15.23.27.47.39.71.38.76.1,1.33-.73,1.5-1.74.35-3.51.59-5.28.75-2.65.25-5.31.34-7.97.28-1.59-.03-3.18-.13-4.77-.2-.61-.03-1,.19-1.11.65-.11.45.13.87.69,1.09,4.98,1.97,10.12,3.13,15.5,2.97,2.78-.08,5.48-.61,8.06-1.68.7-.29,1.01-.2,1.5.4.53.64,1.04,1.29,1.58,1.92.3.36.37.73.25,1.18-.16.6-.31,1.21-.44,1.83-.09.44-.34.7-.76.87-2.89,1.14-5.89,1.78-8.98,1.99-5.4.36-10.63-.55-15.75-2.17-.76-.24-1.32-.04-1.58.56-.25.59.02,1.17.74,1.51,4.97,2.36,10.12,4.14,15.63,4.65,3.47.32,6.87.05,10.12-1.3,1.02-.42,1.98-.96,2.89-1.58,1.64-1.1,3.62-.79,4.67.74,1.01,1.47.59,3.53-.96,4.62-1.63,1.15-3.39,2.04-5.27,2.71-4.09,1.44-8.3,1.71-12.58,1.28-3.4-.34-6.7-1.13-9.94-2.2-.13-.04-.24-.12-.46-.06.25.26.47.49.7.71,1.23,1.24,2.37,2.56,3.78,3.6,2.6,1.93,5.56,2.91,8.73,3.31,2.76.35,5.44.07,7.98-1.15,1.15-.55,2.18-1.29,3.14-2.13,1.69-1.47,4.27-.92,5.16,1.1.56,1.27.21,2.84-.91,3.85-2.49,2.24-5.37,3.75-8.64,4.5-2.9.66-5.81.66-8.73.18-.13-.02-.27-.04-.4-.06-.03,0-.06.02-.15.05.38.54.82,1,1.31,1.41,3.27,2.76,6.92,3.37,10.91,1.89.92-.34,1.65-.97,2.38-1.61,1.84-1.62,4.68-.83,5.3,1.49.34,1.3-.02,2.46-.99,3.39-2.38,2.29-5.23,3.57-8.5,3.94-1.71.19-3.41.13-5.12-.11-.13-.02-.29-.11-.39,0-.11.14.03.28.1.41.89,1.8,2.34,2.68,4.35,2.7,2.07.02,3.91-.63,5.61-1.8,1.74-1.21,4.13-.44,4.88,1.53.5,1.32.04,2.94-1.17,3.81-2.93,2.11-6.2,3.12-9.82,2.96-.16,0-.38-.11-.48.03-.12.17.07.35.14.5.93,1.88,3.11,2.62,5.01,1.72.62-.3,1.2-.7,1.92-.77,1.53-.16,2.91.64,3.45,2.04.52,1.34.09,3.04-1.17,3.84-3.1,1.96-6.46,2.65-10,1.46-2.71-.91-4.46-2.89-5.3-5.62-1.77-5.75-3.9-11.36-6.6-16.75-2.46-4.91-5.31-9.56-8.95-13.69-1.54-1.74-3.21-3.35-5.04-4.78-3.9-3.04-8.68-3.02-12.75.1-2.43,1.86-4.54,4.06-6.45,6.45-4.45,5.6-7.7,11.88-10.42,18.46-1.37,3.32-2.55,6.71-3.59,10.14-1.32,4.36-5.37,6.82-9.96,6.11-1.71-.27-3.31-.84-4.8-1.71-1.98-1.16-2.16-4.13-.25-5.44,1.2-.82,2.46-.75,3.7-.1,1.46.76,2.84.64,4.15-.32.46-.33.8-.77,1.07-1.27.17-.31.11-.4-.25-.39-1.33.04-2.64-.08-3.93-.39-2.05-.48-3.94-1.33-5.65-2.56-1.36-.98-1.78-2.75-1.01-4.21.76-1.44,2.47-2.06,4.06-1.47.37.14.7.34,1.03.55,1.52,1.02,3.19,1.56,5.02,1.55,1.9-.01,3.28-.93,4.15-2.6.07-.14.24-.3.11-.45-.1-.11-.29-.02-.44,0-3.2.39-6.32.15-9.29-1.22-1.49-.69-2.82-1.62-3.98-2.77-1.27-1.25-1.39-3.13-.29-4.46,1.06-1.29,2.96-1.53,4.41-.55.15.1.3.22.44.34,2.95,2.63,6.28,2.84,9.81,1.47,1.67-.65,3.04-1.74,4.26-3.24-.51.06-.9.1-1.28.14-4.59.54-8.94-.13-12.99-2.46-1.16-.67-2.24-1.47-3.24-2.35-1.45-1.28-1.61-3.33-.38-4.72,1.19-1.35,3.27-1.44,4.71-.18,1.77,1.55,3.77,2.64,6.09,3.09,3.52.68,6.91.17,10.17-1.27,1.93-.85,3.6-2.09,5.02-3.64,1.02-1.11,2.06-2.2,3.15-3.25.07-.06.18-.11.16-.27-1.51.56-3.02,1.1-4.56,1.54-4.18,1.2-8.42,1.89-12.79,1.59-4.14-.28-7.97-1.47-11.43-3.8-1.48-.99-2.06-2.67-1.46-4.15.75-1.84,3.05-2.65,4.71-1.51,4.21,2.89,8.87,3.4,13.76,2.74,5.5-.75,10.59-2.75,15.47-5.33.48-.25.63-.61.46-.99-.18-.4-.55-.52-1.08-.34-2.97,1.02-6.01,1.75-9.13,2.15-5.97.77-11.8.33-17.36-2.18-2.98-1.35-5.66-3.12-7.76-5.68-1.3-1.58-2.32-3.33-3.06-5.24-.53-1.37-.09-2.85,1.05-3.74,1.09-.85,2.6-.89,3.8-.1.72.48,1.1,1.21,1.44,1.98,1.12,2.56,2.95,4.46,5.35,5.85,4.15,2.41,8.65,3.12,13.36,2.83,4.3-.26,8.42-1.31,12.41-2.89.17-.07.35-.13.52-.21.37-.18.58-.47.49-.9-.09-.44-.4-.66-.85-.64-1.08.04-2.16.11-3.25.14-5.42.13-10.8-.15-16.09-1.47-3.28-.82-6.39-2.02-9.07-4.16-2.67-2.14-4.36-4.88-4.86-8.29-.27-1.81.96-3.54,2.66-3.79,1.88-.28,3.45.88,3.77,2.78.35,2.09,1.55,3.61,3.26,4.76,2.16,1.45,4.6,2.2,7.12,2.72,5.05,1.03,10.15,1.13,15.28.87.2-.01.41-.02.61-.03.81-.05,1.36-.55,1.44-1.3.08-.73-.39-1.36-1.19-1.54-1.57-.35-3.13-.75-4.67-1.19-4.07-1.18-8.05-2.63-11.78-4.66-3.07-1.67-5.97-3.61-8.36-6.22-1.64-1.79-2.95-3.79-3.79-6.08-.78-2.12.58-4.29,2.75-4.46,1.34-.1,2.71.63,3.23,1.94,1.34,3.42,3.9,5.71,6.87,7.65,3.3,2.16,6.92,3.62,10.64,4.85,1.27.42,2.56.78,3.84,1.14,1.15.32,2.12-.21,2.4-1.25.27-1.01-.3-1.93-1.44-2.26-3.41-1.02-6.77-2.15-10.04-3.57-3.42-1.49-6.76-3.13-9.64-5.57-1.64-1.39-2.99-3-3.7-5.06-1.09-3.15-.16-6.16,2.5-8.17,1.77-1.35,3.79-2.15,5.93-2.67.24-.06.51-.04.72-.21h1.02c.1.15.27.11.41.16,1.23.41,2.01,1.24,2.26,2.51.24,1.25-.16,2.31-1.12,3.14-.44.38-.98.58-1.55.71-1.32.28-2.57.73-3.67,1.53-.42.3-.5.63-.25,1.09.28.51.61.97,1.02,1.39,1.12,1.16,2.45,2.03,3.84,2.81,4.23,2.38,8.77,3.98,13.37,5.44.41.13.43-.05.47-.37.39-3.47,2.91-6.23,6.33-6.95,1.14-.24,2.29-.16,3.44-.16,3.97.02,7.31,2.93,7.86,6.86.06.43.14.53.59.39,2.5-.8,4.97-1.67,7.39-2.69,2.67-1.12,5.29-2.34,7.64-4.08.9-.67,1.73-1.42,2.31-2.4.47-.8.42-1.01-.36-1.53-1.08-.71-2.28-1.11-3.53-1.37-1.47-.3-2.55-1.52-2.62-2.97-.08-1.58.81-2.87,2.27-3.35.16-.05.34-.03.46-.18h1.02ZM103.97,52.55c-.25-.05-.4.08-.56.16-3.56,1.7-7.27,2.96-11.07,3.96-.55.14-1.1.2-1.66.1-1.73-.31-2.98-1.66-3.11-3.35-.14-1.83.85-3.34,2.6-3.9,2.08-.66,4.16-1.32,6.2-2.1,3.6-1.36,7.12-2.9,10.33-5.05,1.79-1.19,3.42-2.55,4.54-4.44,1.71-2.89,1.2-5.59-1.48-7.6-1.64-1.23-3.54-1.9-5.54-2.3-.79-.16-1.5.33-1.68,1.11-.17.71.3,1.47,1.06,1.67.39.11.79.18,1.18.29,1.26.37,2.47.84,3.5,1.67,1.13.91,1.35,1.94.73,3.25-.26.55-.6,1.06-1,1.52-1.1,1.27-2.45,2.23-3.87,3.09-3.28,1.97-6.81,3.39-10.41,4.67-1.42.5-2.85.96-4.29,1.41-1.04.32-1.81-.24-1.89-1.33-.01-.2-.03-.41-.05-.61-.25-2.45-1.98-4.53-4.33-5.25-1.18-.36-2.38-.29-3.58-.28-3.4.03-6.08,2.7-6.16,6.09-.03,1.35-.78,1.9-2.07,1.52-3.8-1.12-7.52-2.46-11.13-4.1-2.19-1-4.32-2.12-6.22-3.61-1.09-.85-2.05-1.82-2.68-3.08-.64-1.28-.43-2.34.67-3.26.48-.4,1.03-.71,1.6-.98,1-.47,2.05-.78,3.13-1.03.74-.17,1.21-.91,1.08-1.62-.13-.73-.83-1.32-1.54-1.18-2.48.47-4.81,1.32-6.64,3.15-1.52,1.52-1.89,3.35-1.18,5.38.64,1.82,1.85,3.22,3.3,4.42,2.98,2.46,6.43,4.11,9.98,5.58,2.99,1.24,6.06,2.24,9.15,3.19,1.93.59,2.96,2.56,2.42,4.47-.55,1.93-2.49,3.05-4.46,2.53-4.4-1.15-8.67-2.66-12.69-4.81-2.4-1.28-4.65-2.78-6.58-4.71-1.46-1.45-2.6-3.11-3.36-5.03-.34-.87-1.19-1.24-1.93-.91-.76.33-1.05,1.14-.7,2.01.17.42.35.85.55,1.25,1.56,3.17,4,5.56,6.84,7.57,3.95,2.79,8.35,4.66,12.92,6.16,2.33.77,4.71,1.37,7.1,1.94,1.57.37,2.58,1.84,2.44,3.42-.14,1.58-1.38,2.86-2.92,2.96-5.19.35-10.36.27-15.49-.63-2.88-.5-5.68-1.27-8.23-2.78-2.46-1.46-4.18-3.46-4.69-6.36-.16-.93-.83-1.45-1.67-1.31-.74.12-1.27.91-1.14,1.78.38,2.5,1.51,4.62,3.34,6.35,1.57,1.48,3.43,2.52,5.43,3.31,3.99,1.59,8.18,2.22,12.44,2.51,3.35.23,6.7.18,10.05,0,1.48-.08,2.53.72,2.82,2.08.28,1.29-.39,2.48-1.73,3.02-4.14,1.67-8.41,2.8-12.87,3.13-4.53.34-8.93-.16-13.09-2.08-3.32-1.53-6.05-3.72-7.66-7.1-.2-.41-.36-.84-.57-1.24-.33-.63-1.15-.93-1.79-.66-.67.28-1.03,1-.82,1.71.09.31.21.61.34.9,1.61,3.52,4.15,6.17,7.52,8.07,4.16,2.35,8.65,3.37,13.38,3.4,4.36.03,8.59-.75,12.73-2.05.4-.13.8-.26,1.21-.39,1.33-.42,2.67.14,3.19,1.34.55,1.28.08,2.66-1.18,3.34-2.21,1.19-4.48,2.23-6.83,3.11-3.9,1.47-7.9,2.52-12.09,2.7-4.38.18-8.49-.65-12.15-3.2-.23-.16-.48-.25-.76-.26-.61-.01-1.18.36-1.39.93-.2.55.01,1.25.55,1.68.61.49,1.29.87,1.98,1.24,4.39,2.36,9.09,2.86,13.95,2.35,4.85-.51,9.43-1.97,13.86-3.94.97-.43,1.93-.92,2.89-1.37.63-.29,1.29-.01,1.36.64.11.93.04,1.31-.73,1.7-.18.09-.35.21-.51.33-2.38,1.68-4.47,3.68-6.41,5.84-2.04,2.27-4.46,3.99-7.35,5-3.24,1.14-6.56,1.5-9.95.82-2.6-.52-4.87-1.71-6.85-3.46-.72-.64-1.63-.62-2.17.02-.54.63-.44,1.48.27,2.11,2.26,2,4.85,3.38,7.8,4.05,3.39.77,6.76.55,10.11-.27.45-.11.85-.09,1.14.31.27.37.19.76-.03,1.14-1.31,2.32-3.09,4.16-5.48,5.35-3.51,1.73-7.05,1.87-10.59.05-.74-.38-1.38-.91-2-1.47-.7-.63-1.6-.64-2.14-.04-.56.61-.48,1.46.2,2.12,2.1,2.04,4.62,3.14,7.51,3.47,2.02.23,4.02.04,6.01-.38.43-.09.86-.12,1.17.27.29.36.22.76.04,1.15-.27.6-.5,1.22-.79,1.81-1.04,2.14-2.73,3.43-5.1,3.7-2.44.28-4.66-.42-6.7-1.72-.26-.16-.5-.35-.8-.44-.71-.23-1.43.03-1.74.65-.32.62-.15,1.39.44,1.81,1.63,1.17,3.41,2,5.39,2.39,1.51.3,3.02.33,4.55.12.97-.13,1.42.41,1.14,1.34-.09.31-.18.62-.28.92-1.12,3.43-4.87,4.97-8.05,3.32-.22-.12-.46-.21-.71-.27-.84-.21-1.62.36-1.69,1.22-.05.67.27,1.13.83,1.45,1.28.73,2.64,1.21,4.1,1.42,3.71.53,6.77-1.39,7.86-4.97,1-3.27,2.12-6.5,3.4-9.67,2.78-6.85,6.14-13.37,10.73-19.21,2.1-2.67,4.44-5.12,7.16-7.17,4.58-3.46,10.41-3.36,14.9.21,2.62,2.09,4.93,4.48,7,7.12,4.12,5.27,7.22,11.11,9.85,17.23,1.66,3.86,3.01,7.83,4.29,11.83.76,2.36,2.4,3.94,4.83,4.49,2.65.6,5.14.02,7.46-1.35.17-.1.32-.26.44-.42.42-.56.41-1.23-.01-1.73-.44-.53-1.11-.67-1.74-.37-.33.16-.65.36-.99.51-2.19,1.01-4.66.53-6.36-1.19-1.03-1.05-1.46-2.39-1.78-3.76-.16-.68.4-1.14,1.13-1.02,1.98.32,3.95.27,5.89-.26,1.57-.43,3.01-1.12,4.34-2.06.89-.63,1.02-1.64.34-2.31-.53-.52-1.22-.54-1.94-.05-1.79,1.23-3.75,1.91-5.93,2-3.03.12-5.44-1.27-6.58-3.83-.25-.57-.49-1.15-.75-1.72-.2-.43-.36-.86-.01-1.28.35-.43.8-.34,1.26-.24,2.67.6,5.36.78,8.06.13,2.23-.53,4.17-1.59,5.8-3.19.67-.65.69-1.56.12-2.13-.58-.58-1.38-.55-2.08.08-.79.7-1.61,1.35-2.59,1.77-2.65,1.15-5.39,1.29-8.15.54-3.57-.98-6.1-3.26-7.84-6.47-.19-.36-.19-.72.06-1.05.28-.36.66-.4,1.06-.29,1.69.45,3.4.75,5.15.84,4.1.21,7.9-.68,11.33-2.99.69-.46,1.36-.96,1.96-1.53.85-.82.72-2.01-.26-2.45-.63-.29-1.17-.09-1.67.36-2.85,2.53-6.21,3.79-9.99,3.75-5.77-.07-10.8-1.95-14.8-6.27-1.82-1.96-3.68-3.89-5.85-5.47-.23-.17-.38-.38-.4-.67-.07-.77.64-1.2,1.43-.86,5.2,2.27,10.57,3.9,16.27,4.26,4.08.25,8.04-.24,11.81-1.92,1.16-.52,2.27-1.13,3.31-1.88.51-.37.8-.89.7-1.53-.09-.57-.46-.93-1.01-1.1-.5-.15-.92.01-1.33.3-1.34.93-2.79,1.66-4.34,2.18-3.85,1.3-7.78,1.37-11.75.78-5.07-.74-9.85-2.43-14.45-4.64-1.53-.73-2.18-2.33-1.58-3.81.59-1.46,2.15-2.16,3.74-1.65,3.35,1.07,6.76,1.82,10.28,2.09,4.15.32,8.22-.06,12.18-1.4.53-.18.97-.35,1.07-1.03.06-.44.07-.78-.27-1.09-.2-.18-.36-.4-.51-.63-.18-.27-.36-.31-.68-.19-2.43.92-4.95,1.39-7.54,1.5-5.84.25-11.4-1.02-16.79-3.15-1.27-.5-1.93-1.85-1.61-3.15.32-1.31,1.52-2.15,2.89-2.06,2.42.17,4.83.28,7.26.23,2.93-.06,5.85-.26,8.75-.71.46-.07.64-.17.35-.63-.14-.22-.08-.5-.05-.75.04-.39.08-.78.15-1.16.06-.33-.02-.42-.36-.36-4.73.79-9.5.89-14.28.65-.79-.04-1.6-.02-2.37-.22-1.46-.37-2.42-1.68-2.39-3.2.04-1.56,1.06-2.74,2.71-3.11,2.53-.55,5.02-1.25,7.48-2.07,2.3-.77,4.55-1.65,6.73-2.72.19-.09.5-.18.16-.43-.62-.46-.74-1.09-.67-1.8.02-.18,0-.37,0-.55Z" fill="#742029"/>
      <path d="M110.56,64.95c.13-1.95-.03-1.69,1.67-2.37,1.02-.41,1.99-.93,2.88-1.59,1.61-1.18,2.63-2.72,2.96-4.73.25-1.49,1.49-2.53,2.96-2.6,2.17-.11,3.75,1.72,3.39,3.98-.34,2.16-1.18,4.12-2.54,5.84-1.97,2.49-4.59,4.05-7.48,5.22-.2.08-.41.16-.62.24-.52.21-.95.11-1.32-.33-.44-.52-.86-1.05-1.34-1.52-.47-.47-.68-.99-.57-1.64.03-.16,0-.34,0-.51ZM112.42,65.13c-.12.4.01.7.29.97.22.21.42.44.6.68.17.23.34.25.61.14,1.65-.68,3.21-1.52,4.6-2.64,2.19-1.77,3.58-4.02,4.08-6.8.02-.1.03-.2.04-.3.06-.86-.46-1.59-1.2-1.69-.82-.1-1.48.4-1.63,1.31-.29,1.76-1.06,3.26-2.31,4.53-1.26,1.29-2.78,2.2-4.44,2.87-.46.19-.78.39-.65.93Z" fill="#742029"/>
      <path d="M121.8,40.25c-.15,2.22-.77,4.36-1.73,6.39-1.19,2.51-2.79,4.75-4.66,6.8-.72.79-1.48.63-1.82-.39-.07-.22-.17-.44-.22-.67-.25-1.13-.79-2.04-1.79-2.7-.65-.42-.65-.94-.15-1.55,1.57-1.93,2.89-4,3.54-6.44.17-.64.24-1.3.33-1.95.24-1.86,1.68-3.1,3.47-2.99,1.72.11,3.05,1.63,3.03,3.5ZM114.92,51.19c1.2-1.43,2.24-2.87,3.06-4.45,1.05-2.02,1.78-4.13,1.98-6.4.08-.89-.48-1.66-1.26-1.75-.81-.1-1.46.49-1.58,1.42-.07.54-.13,1.08-.25,1.6-.53,2.54-1.75,4.74-3.31,6.78-.22.28-.22.46.08.64.59.35.91.89,1.06,1.54.04.18.12.35.22.62Z" fill="#742029"/>
      <path d="M124.37,64.67c2.56.01,4.07,2.31,3.19,4.59-.84,2.18-2.08,4.13-3.67,5.85-1.37,1.47-2.97,2.65-4.7,3.67-.39.23-.79.35-1.19.07-.38-.26-.44-.64-.35-1.08.11-.51.14-1.04.26-1.55.08-.35-.02-.57-.27-.79-.41-.37-.81-.77-1.2-1.17-.5-.51-.46-1.16.16-1.54,2.35-1.47,3.96-3.53,5.01-6.08.54-1.3,1.61-1.91,2.76-1.96ZM119.83,76.11c.17.02.25-.1.36-.18,1.97-1.44,3.55-3.23,4.73-5.36.41-.74.84-1.48,1.03-2.31.14-.59-.04-1.12-.53-1.49-.46-.35-.97-.37-1.48-.11-.42.21-.62.6-.79,1.02-.89,2.15-2.21,3.98-4.01,5.47-.65.53-.64.53-.04,1.13.3.29.65.54.77.98.08.29-.12.56-.03.85Z" fill="#742029"/>
    </g>
  </g>
</svg>