<?xml version="1.0" encoding="UTF-8"?>
<svg id="Layer_2" xmlns="http://www.w3.org/2000/svg" viewBox="0 0 249.77 401.32">
  <g>
    <path d="M46.81,106.24c-.36,11.94.89,21.38,1.5,25.44,1.75,11.51,4.51,19.91,5.1,21.66,4.31,12.86,10.42,31.08,28.14,44.06,17.27,12.65,35.81,13.17,41.66,13.1,6.36-.08,19.28-.4,32.32-8.74,10.77-6.89,16.18-15.77,18.57-19.82,1.86-3.13,5.56-9.98,9.6-35.64.3-1.89,3.93-26.79.88-56.78-.48-4.74-1.26-10.79-5.72-13.64-7.38-4.72-19.33,2.8-21.13,3.96-.22-4.03-.83-9.89-2.64-16.73-2.54-9.56-6.61-17.89-7.48-17.61-.6.19.34,4.42,2.74,20.12,1.52,9.92,1.81,12.62,0,14.78-2.04,2.43-5.04,2.13-14.04,2.72-16.47,1.09-16.61,2.79-19.39,1.57-13.02-5.7-7.98-42.12-10.69-42.27-1.18-.07-2.78,6.88-3.86,15-2.36,17.77-.96,31.42-1.35,31.46-.7.06-4.26-43.89-6.67-43.82-.85.03-1.18,5.48-3.52,28.61-.69,6.84-1.29,12.54-1.71,16.55-4.19,1.69-8.46,3.36-12.81,5.01-6.11,2.33-12.13,4.52-18.05,6.6-2.03-5.41-4.15-12.94-4.4-22.01-.39-14.24,4.04-24.63,3.96-24.65-.11-.03-10.11,21.27-11,51.06Z" fill="none" stroke="#79142a" stroke-miterlimit="10" stroke-width="3"/>
    <path d="M61.18,174.44c-1.33.66-3.42,1.45-5.97,1.37-6.42-.19-10.56-5.82-13.33-9.25-6.08-7.51-6.39-15.64-6.45-18.06-.06-2.63-.11-7.69,2.8-12.47.73-1.2,2-2.95,4.12-4.67.06-.02.12-.04.18-.06,1.3-.4,3.21-.59,5.8.37" fill="none" stroke="#79142a" stroke-miterlimit="10" stroke-width="3"/>
    <path d="M52.49,168.8c-4.2.48-7.76,2.96-9.2,6.53-2.09,5.19,1.02,10.88,4.89,13.2,5.27,3.16,13.63,1.07,18.06-6.06" fill="none" stroke="#79142a" stroke-miterlimit="10" stroke-width="3"/>
    <path d="M185.75,109.63c.96-1.05,3.67-3.73,7.31-3.61,5.99.19,9.26,7.79,9.98,9.31,3.51,7.43,1.39,15.18.12,19.87-.95,3.47-3.62,13.29-11.14,16.67-2.41,1.08-4.61,1.27-6.03,1.11l-2.29-.25" fill="none" stroke="#79142a" stroke-miterlimit="10" stroke-width="3"/>
    <path d="M190.47,144.5c1.38-.53,4.51-1.49,7.36-.14,5.32,2.51,7.64,12.02,2.92,17.09-3.62,3.88-10.08,3.9-14.17,1.25-2-1.3-3.14-3.03-3.75-4.21" fill="none" stroke="#79142a" stroke-miterlimit="10" stroke-width="3"/>
    <g>
      <path d="M98.88,188.96c2.65-2.32,12.98-10.85,28.41-10.81,11.65.03,20.05,4.94,23.39,7.15" fill="none" stroke="#79142a" stroke-miterlimit="10" stroke-width="3"/>
      <path d="M112.9,188.99c1.29.87,7.86,5.11,16.53,3.44,7.25-1.4,11.47-6.08,12.67-7.52" fill="none" stroke="#79142a" stroke-miterlimit="10" stroke-width="3"/>
      <path d="M141.19,177.06c-.98-.81-8.83-7.09-19.06-4.8-7.16,1.6-11.25,6.45-12.47,8.01" fill="none" stroke="#79142a" stroke-miterlimit="10" stroke-width="3"/>
    </g>
    <path d="M114.26,132.73c-.19,2.88-.64,7.33-1.81,12.69-1.35,6.17-2.6,8.64-1.34,10.49.91,1.33,3.71,3.21,14.64.39" fill="none" stroke="#79142a" stroke-miterlimit="10" stroke-width="3"/>
    <ellipse cx="88.73" cy="131.35" rx="6.34" ry="8.35" transform="translate(-19.4 15.44) rotate(-8.97)" fill="#79142a" stroke="#79142a" stroke-miterlimit="10" stroke-width="3"/>
    <path d="M153.86,120.78c.72,4.56-1.5,8.69-4.96,9.24s-6.85-2.7-7.57-7.26c-.72-4.56,1.5-8.69,4.96-9.24,3.46-.55,6.85,2.7,7.57,7.26Z" fill="#79142a" stroke="#79142a" stroke-miterlimit="10" stroke-width="3"/>
    <path d="M72.56,127.9c2.19-1.72,7.09-5.08,14.2-6.04,5.26-.71,9.57.18,12.08.91" fill="none" stroke="#79142a" stroke-miterlimit="10" stroke-width="3"/>
    <path d="M134.5,117.93c1.22-1.29,5-4.93,11.18-6.04,6.66-1.2,11.79,1.31,13.29,2.11" fill="none" stroke="#79142a" stroke-miterlimit="10" stroke-width="3"/>
    <path d="M69.54,105.54c4.06.01,8.36.17,12.88.53,7.82.62,14.96,1.72,21.33,3.05" fill="none" stroke="#79142a" stroke-miterlimit="10" stroke-width="3"/>
    <path d="M129.35,103.03c4.35-2.47,9.43-5,15.23-7.31,4.53-1.8,8.82-3.2,12.76-4.29" fill="none" stroke="#79142a" stroke-miterlimit="10" stroke-width="3"/>
    <path d="M244.76,289.21c-5.95-12.11-16.91-29.65-34.91-40.42-10.41-6.23-25.2-11.42-28.02-12.4-7.05-2.47-11.65-6.53-17.46-5.05-5.05,1.29-6.28,4.89-11.02,9.19-12.86,11.65-31.4,10.18-32.16,10.11-13.08-1.22-23.64-9.3-27.1-11.94-5.63-4.31-6.1-6.26-10.11-7.35-5.54-1.51-10.35.66-25.72,8.27-11.08,5.48-16.62,8.22-17.46,8.73-17.76,10.73-29.48,27.65-35.83,38.59,5.41,6.86,46.5,57.14,117.47,58.68,73.21,1.59,117.09-50.01,122.32-56.39Z" fill="none" stroke="#79142a" stroke-miterlimit="10" stroke-width="3"/>
    <path d="M75.02,246.66l13.71-12.59-13.71,12.59Z" fill="none" stroke="#79142a" stroke-miterlimit="10" stroke-width="3"/>
    <path d="M88.73,255.84l10.12-13.75-10.12,13.75Z" fill="none" stroke="#79142a" stroke-miterlimit="10" stroke-width="3"/>
    <path d="M102.38,264.78l7.28-15.81-7.28,15.81Z" fill="none" stroke="#79142a" stroke-miterlimit="10" stroke-width="3"/>
    <path d="M120.45,268.86l.74-18.24-.74,18.24Z" fill="none" stroke="#79142a" stroke-miterlimit="10" stroke-width="3"/>
    <path d="M136.27,268.86l-2.04-18.24,2.04,18.24Z" fill="none" stroke="#79142a" stroke-miterlimit="10" stroke-width="3"/>
    <path d="M150.91,262.23l-6.21-15.57,6.21,15.57Z" fill="none" stroke="#79142a" stroke-miterlimit="10" stroke-width="3"/>
    <path d="M167.41,252.78l-14.06-12.27,14.06,12.27Z" fill="none" stroke="#79142a" stroke-miterlimit="10" stroke-width="3"/>
    <path d="M176.09,244.61l-14.04-10.55,14.04,10.55Z" fill="none" stroke="#79142a" stroke-miterlimit="10" stroke-width="3"/>
    <path d="M174.1,181.94c6.55,1.11,18.91,2.13,31.73-3.73,3.87-1.77,9.43-4.31,14.11-10,8.41-10.23,7.69-23.01,8.9-22.88.91.1,1.35,7.25.41,14.98-1.05,8.67-3.3,13.76-2.6,14.06.88.38,5.98-7.07,9.08-15.68,1.89-5.25,5.13-16.72,1.33-37.47-1.29-7.03-4.88-21.87-16.44-43.84-10.95-20.83-21.88-41.6-45.48-55.89-8.56-5.18-22.83-13.82-40.55-12.6-4.59.32-5.36,1.02-24.66,4.38-21.67,3.78-21.36,3.01-25.75,4.38-16.09,5.02-25.69,17.03-33.97,27.4-9.24,11.57-13.47,21.59-21.92,41.64-10.27,24.37-13.02,38.57-14.25,47.67-1.68,12.49-2.45,24.25,3.84,32.33.87,1.12,3.8,4.64,6.16,10.15,1.87,4.36,4.47,10.44,1.82,13.39-2.35,2.6-8.15,2.02-11.68-.42-3.91-2.7-4.24-7.31-5.42-7.09-1.13.21-2.01,4.65-.42,8.34,2.07,4.77,7.36,6.12,7.92,6.26,4.73,1.13,8.57-1.86,9.18-.83.42.72-1.13,2.66-2.95,3.95-4.54,3.21-9.9,1.75-9.98,2.31-.11.74,8.9,5.4,16.68,2.09,7.08-3.01,10.01-11.29,10.84-10.84.78.42-3.7,6.75-2.19,10.21,2,4.58,15.03,5.25,49.83-2.82" fill="none" stroke="#79142a" stroke-miterlimit="10" stroke-width="3"/>
    <path d="M209.8,158.12c-.62,3.33-1.72,7.58-3.81,12.23-1.86,4.17-4,7.51-5.87,10.05" fill="none" stroke="#79142a" stroke-miterlimit="10" stroke-width="3"/>
    <path d="M97.26,205.89c.25,2.36.52,7.88-2.37,13.93-3.35,7-8.88,10.4-10.9,11.51" fill="none" stroke="#79142a" stroke-miterlimit="10" stroke-width="3"/>
    <path d="M147.73,205.87c-.14,2.52-.09,7.8,2.75,13.52,3.65,7.35,9.62,10.82,11.8,11.95" fill="none" stroke="#79142a" stroke-miterlimit="10" stroke-width="3"/>
    <circle cx="101.74" cy="167.04" r=".64" fill="#79142a" stroke="#79142a" stroke-miterlimit="10" stroke-width="3"/>
  </g>
  <text transform="translate(68.21 381.93) rotate(14.12) scale(1.03 1)" fill="#f7f797" font-family="SuperFunky, &apos;Super Funky&apos;" font-size="42.98"><tspan x="0" y="0">V</tspan></text>
  <text transform="translate(107.68 391.17) rotate(.43) scale(1.03 1)" fill="#f7f797" font-family="SuperFunky, &apos;Super Funky&apos;" font-size="42.98"><tspan x="0" y="0">r</tspan></text>
  <text transform="translate(144.93 390.99) rotate(-11.56) scale(1.03 1)" fill="#f7f797" font-family="SuperFunky, &apos;Super Funky&apos;" font-size="42.98"><tspan x="0" y="0">e</tspan></text>
  <text transform="translate(178.75 383.63) rotate(-23.35) scale(1.03 1)" fill="#f7f797" font-family="SuperFunky, &apos;Super Funky&apos;" font-size="42.98"><tspan x="0" y="0">d</tspan></text>
</svg>