<?xml version="1.0" encoding="UTF-8"?>
<svg id="Layer_2" xmlns="http://www.w3.org/2000/svg" viewBox="0 0 249.77 401.32">
  <g>
    <path d="M46.81,106.24c-.36,11.94.89,21.38,1.5,25.44,1.75,11.51,4.51,19.91,5.1,21.66,4.31,12.86,10.42,31.08,28.14,44.06,17.27,12.65,35.81,13.17,41.66,13.1,6.36-.08,19.28-.4,32.32-8.74,10.77-6.89,16.18-15.77,18.57-19.82,1.86-3.13,5.56-9.98,9.6-35.64.3-1.89,3.93-26.79.88-56.78-.48-4.74-1.26-10.79-5.72-13.64-7.38-4.72-19.33,2.8-21.13,3.96-.22-4.03-.83-9.89-2.64-16.73-2.54-9.56-6.61-17.89-7.48-17.61-.6.19.34,4.42,2.74,20.12,1.52,9.92,1.81,12.62,0,14.78-2.04,2.43-5.04,2.13-14.04,2.72-16.47,1.09-16.61,2.79-19.39,1.57-13.02-5.7-7.98-42.12-10.69-42.27-1.18-.07-2.78,6.88-3.86,15-2.36,17.77-.96,31.42-1.35,31.46-.7.06-4.26-43.89-6.67-43.82-.85.03-1.18,5.48-3.52,28.61-.69,6.84-1.29,12.54-1.71,16.55-4.19,1.69-8.46,3.36-12.81,5.01-6.11,2.33-12.13,4.52-18.05,6.6-2.03-5.41-4.15-12.94-4.4-22.01-.39-14.24,4.04-24.63,3.96-24.65-.11-.03-10.11,21.27-11,51.06Z" fill="none" stroke="#79142a" stroke-miterlimit="10" stroke-width="3"/>
    <path d="M61.18,174.44c-1.33.66-3.42,1.45-5.97,1.37-6.42-.19-10.56-5.82-13.33-9.25-6.08-7.51-6.39-15.64-6.45-18.06-.06-2.63-.11-7.69,2.8-12.47.73-1.2,2-2.95,4.12-4.67.06-.02.12-.04.18-.06,1.3-.4,3.21-.59,5.8.37" fill="none" stroke="#79142a" stroke-miterlimit="10" stroke-width="3"/>
    <path d="M52.49,168.8c-4.2.48-7.76,2.96-9.2,6.53-2.09,5.19,1.02,10.88,4.89,13.2,5.27,3.16,13.63,1.07,18.06-6.06" fill="none" stroke="#79142a" stroke-miterlimit="10" stroke-width="3"/>
    <path d="M185.75,109.63c.96-1.05,3.67-3.73,7.31-3.61,5.99.19,9.26,7.79,9.98,9.31,3.51,7.43,1.39,15.18.12,19.87-.95,3.47-3.62,13.29-11.14,16.67-2.41,1.08-4.61,1.27-6.03,1.11l-2.29-.25" fill="none" stroke="#79142a" stroke-miterlimit="10" stroke-width="3"/>
    <path d="M190.47,144.5c1.38-.53,4.51-1.49,7.36-.14,5.32,2.51,7.64,12.02,2.92,17.09-3.62,3.88-10.08,3.9-14.17,1.25-2-1.3-3.14-3.03-3.75-4.21" fill="none" stroke="#79142a" stroke-miterlimit="10" stroke-width="3"/>
    <g>
      <path d="M98.88,188.96c2.65-2.32,12.98-10.85,28.41-10.81,11.65.03,20.05,4.94,23.39,7.15" fill="none" stroke="#79142a" stroke-miterlimit="10" stroke-width="3"/>
      <path d="M112.9,188.99c1.29.87,7.86,5.11,16.53,3.44,7.25-1.4,11.47-6.08,12.67-7.52" fill="none" stroke="#79142a" stroke-miterlimit="10" stroke-width="3"/>
      <path d="M141.19,177.06c-.98-.81-8.83-7.09-19.06-4.8-7.16,1.6-11.25,6.45-12.47,8.01" fill="none" stroke="#79142a" stroke-miterlimit="10" stroke-width="3"/>
    </g>
    <path d="M114.26,132.73c-.19,2.88-.64,7.33-1.81,12.69-1.35,6.17-2.6,8.64-1.34,10.49.91,1.33,3.71,3.21,14.64.39" fill="none" stroke="#79142a" stroke-miterlimit="10" stroke-width="3"/>
    <ellipse cx="88.73" cy="131.35" rx="6.34" ry="8.35" transform="translate(-19.4 15.44) rotate(-8.97)" fill="#79142a" stroke="#79142a" stroke-miterlimit="10" stroke-width="3"/>
    <path d="M153.86,120.78c.72,4.56-1.5,8.69-4.96,9.24s-6.85-2.7-7.57-7.26c-.72-4.56,1.5-8.69,4.96-9.24,3.46-.55,6.85,2.7,7.57,7.26Z" fill="#79142a" stroke="#79142a" stroke-miterlimit="10" stroke-width="3"/>
    <path d="M72.56,127.9c2.19-1.72,7.09-5.08,14.2-6.04,5.26-.71,9.57.18,12.08.91" fill="none" stroke="#79142a" stroke-miterlimit="10" stroke-width="3"/>
    <path d="M134.5,117.93c1.22-1.29,5-4.93,11.18-6.04,6.66-1.2,11.79,1.31,13.29,2.11" fill="none" stroke="#79142a" stroke-miterlimit="10" stroke-width="3"/>
    <path d="M69.54,105.54c4.06.01,8.36.17,12.88.53,7.82.62,14.96,1.72,21.33,3.05" fill="none" stroke="#79142a" stroke-miterlimit="10" stroke-width="3"/>
    <path d="M129.35,103.03c4.35-2.47,9.43-5,15.23-7.31,4.53-1.8,8.82-3.2,12.76-4.29" fill="none" stroke="#79142a" stroke-miterlimit="10" stroke-width="3"/>
    <path d="M244.76,289.21c-5.95-12.11-16.91-29.65-34.91-40.42-10.41-6.23-25.2-11.42-28.02-12.4-7.05-2.47-11.65-6.53-17.46-5.05-5.05,1.29-6.28,4.89-11.02,9.19-12.86,11.65-31.4,10.18-32.16,10.11-13.08-1.22-23.64-9.3-27.1-11.94-5.63-4.31-6.1-6.26-10.11-7.35-5.54-1.51-10.35.66-25.72,8.27-11.08,5.48-16.62,8.22-17.46,8.73-17.76,10.73-29.48,27.65-35.83,38.59,5.41,6.86,46.5,57.14,117.47,58.68,73.21,1.59,117.09-50.01,122.32-56.39Z" fill="none" stroke="#79142a" stroke-miterlimit="10" stroke-width="3"/>
    <path d="M75.02,246.66l13.71-12.59-13.71,12.59Z" fill="none" stroke="#79142a" stroke-miterlimit="10" stroke-width="3"/>
    <path d="M88.73,255.84l10.12-13.75-10.12,13.75Z" fill="none" stroke="#79142a" stroke-miterlimit="10" stroke-width="3"/>
    <path d="M102.38,264.78l7.28-15.81-7.28,15.81Z" fill="none" stroke="#79142a" stroke-miterlimit="10" stroke-width="3"/>
    <path d="M120.45,268.86l.74-18.24-.74,18.24Z" fill="none" stroke="#79142a" stroke-miterlimit="10" stroke-width="3"/>
    <path d="M136.27,268.86l-2.04-18.24,2.04,18.24Z" fill="none" stroke="#79142a" stroke-miterlimit="10" stroke-width="3"/>
    <path d="M150.91,262.23l-6.21-15.57,6.21,15.57Z" fill="none" stroke="#79142a" stroke-miterlimit="10" stroke-width="3"/>
    <path d="M167.41,252.78l-14.06-12.27,14.06,12.27Z" fill="none" stroke="#79142a" stroke-miterlimit="10" stroke-width="3"/>
    <path d="M176.09,244.61l-14.04-10.55,14.04,10.55Z" fill="none" stroke="#79142a" stroke-miterlimit="10" stroke-width="3"/>
    <path d="M174.1,181.94c6.55,1.11,18.91,2.13,31.73-3.73,3.87-1.77,9.43-4.31,14.11-10,8.41-10.23,7.69-23.01,8.9-22.88.91.1,1.35,7.25.41,14.98-1.05,8.67-3.3,13.76-2.6,14.06.88.38,5.98-7.07,9.08-15.68,1.89-5.25,5.13-16.72,1.33-37.47-1.29-7.03-4.88-21.87-16.44-43.84-10.95-20.83-21.88-41.6-45.48-55.89-8.56-5.18-22.83-13.82-40.55-12.6-4.59.32-5.36,1.02-24.66,4.38-21.67,3.78-21.36,3.01-25.75,4.38-16.09,5.02-25.69,17.03-33.97,27.4-9.24,11.57-13.47,21.59-21.92,41.64-10.27,24.37-13.02,38.57-14.25,47.67-1.68,12.49-2.45,24.25,3.84,32.33.87,1.12,3.8,4.64,6.16,10.15,1.87,4.36,4.47,10.44,1.82,13.39-2.35,2.6-8.15,2.02-11.68-.42-3.91-2.7-4.24-7.31-5.42-7.09-1.13.21-2.01,4.65-.42,8.34,2.07,4.77,7.36,6.12,7.92,6.26,4.73,1.13,8.57-1.86,9.18-.83.42.72-1.13,2.66-2.95,3.95-4.54,3.21-9.9,1.75-9.98,2.31-.11.74,8.9,5.4,16.68,2.09,7.08-3.01,10.01-11.29,10.84-10.84.78.42-3.7,6.75-2.19,10.21,2,4.58,15.03,5.25,49.83-2.82" fill="none" stroke="#79142a" stroke-miterlimit="10" stroke-width="3"/>
    <path d="M209.8,158.12c-.62,3.33-1.72,7.58-3.81,12.23-1.86,4.17-4,7.51-5.87,10.05" fill="none" stroke="#79142a" stroke-miterlimit="10" stroke-width="3"/>
    <path d="M97.26,205.89c.25,2.36.52,7.88-2.37,13.93-3.35,7-8.88,10.4-10.9,11.51" fill="none" stroke="#79142a" stroke-miterlimit="10" stroke-width="3"/>
    <path d="M147.73,205.87c-.14,2.52-.09,7.8,2.75,13.52,3.65,7.35,9.62,10.82,11.8,11.95" fill="none" stroke="#79142a" stroke-miterlimit="10" stroke-width="3"/>
    <circle cx="101.74" cy="167.04" r=".64" fill="#79142a" stroke="#79142a" stroke-miterlimit="10" stroke-width="3"/>
  </g>
  <g>
    <path d="M63.69,351.5c.68-2.04,1.66-3.54,2.94-4.49,1.28-.95,2.87-1.1,4.79-.46,1.23.41,2.28,1.18,3.14,2.29.86,1.11,1.3,2.46,1.32,4.03,0,.74-.07,1.57-.19,2.48-.12.92-.28,1.87-.48,2.85s-.38,1.97-.58,2.95c-.19.98-.34,1.92-.46,2.79-.06.63-.1,1.27-.12,1.93-.02.66,0,1.25.09,1.78.08.53.22.99.43,1.38.2.39.48.65.84.77.49.17,1.05.01,1.66-.46.61-.47,1.24-1.12,1.88-1.94.64-.82,1.25-1.74,1.83-2.75.58-1.02,1.07-1.97,1.46-2.88.51-1.16,1.09-2.34,1.74-3.56.65-1.21,1.31-2.2,1.99-2.94.75-.87,1.65-1.49,2.72-1.86,1.07-.37,2.45-.27,4.15.3.74.25,1.41.58,2.01,1.01.6.42,1.09.93,1.45,1.53.36.59.58,1.29.65,2.08.07.79-.05,1.66-.37,2.62-.51,1.51-1.22,2.87-2.14,4.07-.92,1.2-1.9,2.29-2.94,3.27-1.04.98-2.07,1.9-3.07,2.76-1,.86-1.86,1.7-2.56,2.53-.38.49-.77,1.06-1.18,1.69-.41.63-.81,1.29-1.21,1.97-.4.68-.79,1.35-1.18,2.02-.39.67-.77,1.28-1.14,1.83-.77,1.13-1.58,2.23-2.43,3.31-.85,1.07-1.78,1.97-2.8,2.7-1.02.72-2.13,1.21-3.33,1.48-1.2.26-2.54.15-4.02-.35s-2.63-1.21-3.46-2.15c-.83-.94-1.42-2.02-1.77-3.25-.35-1.22-.51-2.56-.49-3.99.02-1.44.13-2.93.31-4.46.1-.94.21-1.78.31-2.51.11-.73.2-1.42.28-2.06s.13-1.25.16-1.85c.03-.6.03-1.19-.01-1.8-.12-1.72-.28-3.24-.47-4.54-.19-1.3-.33-2.51-.43-3.62-.1-1.11-.12-2.18-.05-3.2.07-1.03.3-2.12.69-3.29Z" fill="#f7f797"/>
    <path d="M114.45,377.23c-.03.31.22.72.75,1.24.52.52,1.18,1.11,1.96,1.78.79.67,1.65,1.4,2.58,2.21.93.81,1.79,1.65,2.55,2.52.77.88,1.4,1.78,1.89,2.72.49.94.69,1.88.62,2.83-.07.89-.36,1.72-.87,2.48-.51.76-1.14,1.42-1.9,1.97-.76.56-1.59.98-2.49,1.27-.91.29-1.79.4-2.66.33-.55-.04-1.1-.12-1.65-.24-.56-.12-1.08-.29-1.56-.53-.49-.24-.93-.54-1.32-.91-.39-.37-.71-.83-.95-1.38-.22-.47-.39-1.14-.51-2.02-.12-.88-.22-1.84-.31-2.87-.09-1.03-.18-2.1-.26-3.2-.08-1.1-.21-2.1-.39-3-.17-.9-.4-1.64-.69-2.23-.29-.58-.67-.9-1.16-.94s-.92.09-1.29.4c-.37.31-.58.7-.62,1.17-.06.78.06,1.53.38,2.24.32.71.67,1.42,1.05,2.11.38.69.73,1.4,1.04,2.13.32.73.44,1.51.37,2.35-.08.98-.39,1.87-.93,2.68-.54.81-1.22,1.49-2.03,2.05-.81.55-1.71.96-2.71,1.24-.99.27-1.96.37-2.91.29-2.16-.17-3.86-.81-5.1-1.91-1.24-1.1-1.81-2.7-1.7-4.79l.03-.33c.07-.92.3-1.81.67-2.66s.77-1.7,1.2-2.54c.43-.84.83-1.68,1.2-2.54s.6-1.74.67-2.66c.1-1.23.06-2.43-.12-3.61-.18-1.18-.4-2.36-.65-3.55-.25-1.19-.47-2.38-.65-3.57-.18-1.19-.22-2.41-.12-3.63.11-1.39.5-2.65,1.17-3.76.67-1.11,1.51-2.05,2.53-2.81,1.02-.76,2.17-1.32,3.46-1.68,1.29-.36,2.62-.48,4-.37,1.81.15,3.61.57,5.39,1.26,1.78.69,3.35,1.62,4.71,2.78,1.35,1.16,2.42,2.55,3.2,4.16.78,1.61,1.09,3.42.93,5.43-.12,1.51-.54,2.7-1.25,3.59-.71.88-1.48,1.59-2.3,2.13-.83.54-1.57.97-2.23,1.29-.66.33-1.01.68-1.04,1.07ZM105.97,369.22c-.03.33-.04.75-.04,1.24,0,.49.06.96.17,1.4.11.44.29.83.56,1.16.26.33.64.52,1.13.55.37.03.76-.07,1.15-.31.39-.23.77-.53,1.12-.9.35-.37.64-.76.88-1.19.24-.43.37-.83.4-1.19.03-.39-.02-.77-.15-1.15-.13-.37-.32-.71-.57-1.02-.25-.3-.55-.55-.9-.75-.35-.2-.71-.31-1.08-.34-.75-.06-1.37.18-1.86.71-.49.54-.76,1.13-.82,1.77Z" fill="#f7f797"/>
    <path d="M135.84,356.66c1.98-.23,3.82-.36,5.53-.42,1.71-.05,3.21.04,4.5.27,1.29.23,2.33.66,3.13,1.27s1.26,1.46,1.38,2.55c.12,1.03.02,1.88-.3,2.55s-.78,1.22-1.38,1.66c-.6.44-1.3.78-2.1,1.04-.8.26-1.61.51-2.44.74-.83.24-1.64.48-2.42.74-.78.26-1.46.6-2.02,1.03-.24.17-.48.4-.71.69-.23.29-.32.59-.29.9s.16.54.36.7c.21.16.45.27.71.34.27.07.56.1.86.09.3,0,.57-.02.8-.05.75-.08,1.55-.2,2.4-.36.85-.15,1.66-.09,2.42.19.46.17.96.44,1.51.8.55.36.86.82.92,1.37.07.58-.1,1.07-.51,1.45-.41.38-.94.72-1.58,1-.65.29-1.35.55-2.11.79s-1.46.49-2.12.75c-.65.26-1.19.55-1.6.88-.41.33-.59.74-.53,1.24.1.86.48,1.43,1.15,1.71.67.28,1.38.37,2.12.29.69-.08,1.36-.21,2.02-.4.66-.19,1.31-.38,1.96-.58.65-.2,1.3-.39,1.96-.56.66-.17,1.34-.3,2.03-.38,1.12-.13,2.05-.06,2.79.21.74.27,1.35.68,1.82,1.25.47.57.83,1.25,1.06,2.06.24.8.41,1.69.52,2.67.26,2.31-.07,4.21-.99,5.69-.92,1.48-2.18,2.68-3.77,3.6s-3.38,1.59-5.35,2.03c-1.97.44-3.89.76-5.75.97-1.63.19-3.22.23-4.76.12-1.54-.11-2.92-.43-4.16-.96-1.24-.54-2.26-1.33-3.08-2.38s-1.32-2.44-1.52-4.16c-.14-1.2-.04-2.3.28-3.31s.68-2,1.08-2.98.75-1.98,1.07-3.02.4-2.18.26-3.43c-.16-1.42-.44-2.67-.84-3.75-.4-1.08-.81-2.09-1.24-3.03-.43-.94-.83-1.87-1.21-2.8-.38-.93-.63-1.94-.76-3.02-.15-1.28.01-2.39.47-3.33.46-.94,1.12-1.74,1.97-2.4.85-.66,1.85-1.18,2.98-1.57,1.13-.38,2.29-.64,3.46-.78Z" fill="#f7f797"/>
    <path d="M161.31,352.17c2.91-.95,5.72-1.21,8.42-.78,2.7.43,5.19,1.35,7.46,2.76,2.27,1.41,4.24,3.22,5.91,5.43,1.68,2.21,2.94,4.62,3.79,7.23.79,2.42,1.15,4.85,1.1,7.28-.06,2.43-.54,4.72-1.43,6.85-.9,2.13-2.21,4.03-3.93,5.68-1.72,1.65-3.86,2.89-6.41,3.72-1.15.38-2.36.64-3.62.78-1.26.14-2.45.1-3.57-.14-1.12-.24-2.14-.71-3.03-1.42-.9-.71-1.56-1.73-2-3.06-.28-.85-.49-1.77-.62-2.76s-.26-2-.37-3.04c-.11-1.04-.24-2.06-.38-3.06s-.35-1.92-.63-2.78c-.36-1.09-.8-2.13-1.33-3.12-.54-.99-1.1-1.97-1.69-2.94-.59-.97-1.15-1.96-1.69-2.96s-.99-2.05-1.34-3.14c-.85-2.61-.85-4.8,0-6.56.85-1.76,2.65-3.09,5.39-3.99ZM168.81,361.21c-.6.2-1.02.52-1.25.98-.23.46-.35.97-.37,1.53-.01.56.05,1.14.2,1.72.15.59.29,1.09.43,1.52.12.37.29.86.5,1.47.21.61.49,1.19.84,1.74.35.55.75.99,1.2,1.31.45.32.97.39,1.55.2.6-.2,1.13-.54,1.58-1.02.45-.48.8-1.05,1.04-1.69.25-.64.38-1.32.4-2.05.02-.73-.09-1.45-.32-2.17-.17-.53-.46-1.05-.87-1.55-.41-.5-.87-.93-1.4-1.29-.53-.36-1.1-.62-1.71-.77-.61-.15-1.22-.13-1.82.06Z" fill="#f7f797"/>
  </g>
</svg>