<?xml version="1.0" encoding="UTF-8"?>
<svg id="Layer_2" xmlns="http://www.w3.org/2000/svg" viewBox="0 0 160.73 160.73">
  <circle cx="80.36" cy="80.36" r="79.97" fill="#ba888d"/>
  <g id="_x38_1rvvD">
    <g>
      <path d="M82.34,112.64c.14-2.33-.07-4.58.2-6.81.32-2.64,1.45-4.89,3.06-6.96,1.67-2.15,3.7-3.98,5.33-6.16,1.65-2.22,2.72-4.68,3.42-7.33.38-1.46.75-2.92,1.15-4.38,1.11-4.06,3.55-7.04,7.3-8.96.52-.27,1.01-.59,1.53-.88.27-.15.63-.28.45-.66-.14-.3-.44-.08-.66-.05-4.18.67-8.24,1.88-12.35,2.83-5.92,1.37-11.87,1.92-17.92.87-4.97-.86-9.83-2.18-14.76-3.23-.9-.19-1.81-.36-2.72-.53-.17-.03-.4-.16-.48.13-.05.21.03.38.23.49.22.12.43.27.66.37,5.12,2.25,7.89,6.3,9.02,11.66.56,2.66,1.26,5.28,2.62,7.68,1.26,2.21,2.97,4.06,4.67,5.92.7.76,1.36,1.57,2.04,2.34,2.23,2.51,3.21,5.49,3.25,8.79.04,3.28.05,6.56.18,9.83.03.64.02,1.3-.27,1.89-1.06,2.13-3,2.46-5.08,1.14-.66-.42-1.23-.97-1.77-1.54-.55-.57-1.09-.49-1.46.22-.56,1.07-.28,2.1.3,3.03,1.13,1.79,2.1,3.64,2.54,5.72.56,2.6.94,5.24,1.22,7.88.52,4.76.93,9.53,1.28,14.3.13,1.73-1.31,3.24-2.91,2.97-.97-.17-2.2-1.48-2.34-2.57-.32-2.53-.67-5.05-.92-7.59-.63-6.35-2.28-12.42-4.77-18.29-1.31-3.09-1.4-6.31-.94-9.58.25-1.77.53-3.54.83-5.31.34-2.03-.29-3.82-1.36-5.49-1.21-1.88-2.74-3.53-4.08-5.32-2.52-3.36-4.09-7.12-4.99-11.19-.07-.32-.01-.73-.4-.86-.38-.12-.53.27-.72.48-1.98,2.16-4.21,4.01-6.7,5.56-.33.21-.68.41-.87.77-1.84,3.48-4.84,5.2-8.65,5.5-2.81.23-5.46-.32-7.63-2.34-.73-.68-1.25-1.51-1.43-2.42-.78-3.77.41-7.13,4.29-8.96,1.03-.49,2.17-.79,2.74-1.93.18-.35.54-.41.94-.42,3.33-.05,5.95,1.33,8,3.89.78.97.84,1,1.95.48,2.71-1.27,4.51-3.5,6.27-5.82.92-1.21.82-2.26.26-3.53-1.05-2.38-2.55-4.42-4.52-6.08-3.3-2.77-7-4.85-11.23-5.81-4.13-.94-7.96-.33-11.29,2.47-2.87,2.42-3.78,6.45-2.2,9.75.97,2.02,2.83,2.91,5.41,2.56,1.11-.15,2.21-.36,3.31-.54.19-.03.39-.06.58-.08,1.21-.1,2.06.4,2.22,1.3.18,1.09-.41,2.02-1.51,2.39-.85.28-1.72.5-2.53.9-3.31,1.63-4.89,4.66-4.27,8.31.14.85.35,1.7.55,2.54.14.61.12,1.2-.38,1.62-.51.42-1.1.46-1.74.23-1.41-.5-2.17-1.59-2.48-2.95-.6-2.68-1.96-4.92-3.49-7.18-3.05-4.5-4.25-9.56-3.27-14.96,1.23-6.79,5.5-10.97,11.94-13.01,5.83-1.84,11.53-1.12,17,1.43,2.68,1.25,5.34,2.45,8.28,2.92,3.36.53,6.5-.06,9.48-1.72,3.39-1.88,6.89-3.48,10.72-4.29,8.07-1.69,15.81-.66,23.26,2.78,1.52.7,3.05,1.41,4.56,2.14,3.54,1.7,7.16,1.47,10.82.46,1.79-.5,3.44-1.33,5.12-2.1,6.03-2.78,12.23-3.61,18.6-1.31,7.19,2.59,11.52,9.06,11.2,16.72-.19,4.65-1.85,8.78-4.69,12.45-1.14,1.47-1.78,3.16-2.18,4.95-.34,1.54-1.02,2.84-2.5,3.58-.65.32-1.31.32-1.89-.15-.6-.48-.66-1.12-.49-1.83.18-.73.37-1.47.49-2.21.65-4.04-1.3-7.35-5.14-8.75-.6-.22-1.23-.39-1.84-.58-.99-.32-1.61-1.36-1.41-2.37.17-.86.98-1.45,2.04-1.33,1.19.13,2.37.4,3.56.57.94.13,1.9.22,2.84,0,2.12-.49,3.59-2.44,3.82-4.89.4-4.36-2.44-7.79-6.11-9.26-3.85-1.55-7.65-1.19-11.35.43-3.16,1.39-6.17,3.08-8.67,5.52-1.95,1.9-3.48,4.09-4.24,6.76-.09.32-.19.63.01.96,1.73,2.87,3.75,5.44,6.85,6.98,1.09.54,1.29.5,2.02-.45,1.96-2.58,4.54-3.91,7.8-3.89.59,0,1.05.16,1.34.69.41.77,1.08,1.15,1.88,1.44,2.12.77,3.83,2.08,4.62,4.23,1.49,4.07.27,7.67-3.89,9.12-4.08,1.42-7.9.66-11.25-2.11-.45-.37-.91-.81-1.15-1.32-.71-1.49-1.95-2.37-3.28-3.22-2.01-1.29-3.73-2.94-5.39-4.65-.17-.17-.28-.5-.58-.41-.32.1-.29.46-.35.72-.43,2.12-1.14,4.16-2.01,6.13-1.35,3.05-3.34,5.68-5.45,8.23-.75.91-1.46,1.85-2.1,2.84-1.16,1.8-1.22,3.8-.88,5.84.29,1.71.59,3.42.83,5.14.46,3.34.08,6.55-1.3,9.68-2.19,4.96-3.57,10.18-4.26,15.56-.41,3.22-.8,6.45-1.2,9.67-.16,1.28-1.77,2.57-3.01,2.42-1.32-.16-2.33-1.47-2.2-2.91.38-4.32.73-8.65,1.16-12.96.35-3.45.81-6.89,1.68-10.27.46-1.77,1.42-3.28,2.3-4.83.51-.89.68-1.84.28-2.82-.35-.86-.96-.97-1.6-.32-.85.86-1.71,1.69-2.91,2.08-1.93.61-3.76-.54-3.96-2.56-.2-2.05.14-4.09.09-6.03Z" fill="#742029"/>
      <path d="M62.26,43.75c.5,1.87,1.03,3.66,1.25,5.53.49,4.22-.6,7.77-4.27,10.25-.39.26-.82.49-1.26.66-1,.39-2.09-.37-1.95-1.45.45-3.55-.35-6.88-1.6-10.17-2.1-5.55-1.74-10.91,1.12-16.18,2.02-3.71,4.3-7.19,7.07-10.37.38-.44.79-.79,1.36-.5.61.3.69.85.53,1.51-.73,2.95-1.23,5.94-.59,8.98.65,3.13,2.59,5.4,5.06,7.28.06.04.15.03.26.06.13-1.97-.1-3.91.17-5.86.57-4.04,2.16-7.63,4.63-10.83,1.95-2.53,3.33-5.29,3.77-8.49.24-1.72-.35-3.25-1.07-4.76-.43-.91-.24-1.36.64-1.82.42-.22.75-.1,1.11.06,2.98,1.31,5.31,3.4,7.25,5.96,3.64,4.79,4.27,10.07,2.59,15.75-1.14,3.89-1.05,7.69,1.22,11.24.09.14.17.29.28.42.35.42.55,1.22,1.09,1.14.5-.08.58-.89.79-1.39.42-1.05.51-2.17.49-3.3-.02-1.68-.09-3.36.2-5.03.63-3.59,2.89-6.02,5.72-8.05.59-.43,1.12-.74,1.78-.12.41.39.56.79.37,1.35-.26.77-.49,1.55-.69,2.33-.65,2.55-.05,4.87,1.33,7.05,1.28,2.04,2.76,3.94,3.89,6.08,2.5,4.75,2.4,9.51.12,14.28-.76,1.59-1.54,3.18-2.82,4.45-.79.78-1.56.84-2.34.07-.7-.67-1.22-1.47-1.22-2.5,0-1.65.05-3.3.05-4.95,0-2.54-.68-4.8-2.62-6.51-1.99,3.23-4.52,5.89-7.88,7.71-.32.17-.66.31-1,.44-1.21.45-1.83.05-1.82-1.25,0-1.42.08-2.85.16-4.27.25-4.16-1.11-7.82-3.41-11.19-.86-1.26-1.79-2.49-3.04-3.56-.44,2.41-.8,4.75-1.29,7.06-.93,4.33-2.74,8.22-5.84,11.44-.76.79-1.02.77-1.47-.21-.93-2.01-2.2-3.76-3.85-5.24-1.29-1.16-2.7-2.16-4.28-3.06Z" fill="#742029"/>
    </g>
  </g>
</svg>