<?xml version="1.0" encoding="UTF-8"?>
<svg id="Layer_2" xmlns="http://www.w3.org/2000/svg" viewBox="0 0 2401.05 872.41">
  <text transform="translate(198.56 736.41) rotate(-52.39)" fill="#bb8a8d" font-family="SuperFunky, &apos;Super Funky&apos;" font-size="266.4"><tspan x="0" y="0">M</tspan></text>
  <text transform="translate(352.87 543.81) rotate(-38.19)" fill="#bb8a8d" font-family="SuperFunky, &apos;Super Funky&apos;" font-size="266.4"><tspan x="0" y="0">E</tspan></text>
  <text transform="translate(495.86 430.82) rotate(-27.7)" fill="#bb8a8d" font-family="SuperFunky, &apos;Super Funky&apos;" font-size="266.4"><tspan x="0" y="0">N</tspan></text>
  <text transform="translate(673.73 337.76) rotate(-18.1)" fill="#bb8a8d" font-family="SuperFunky, &apos;Super Funky&apos;" font-size="266.4"><tspan x="0" y="0">S</tspan></text>
  <text transform="translate(860.17 276.85) rotate(-9.83)" fill="#bb8a8d" font-family="SuperFunky, &apos;Super Funky&apos;" font-size="266.4"><tspan x="0" y="0">T</tspan></text>
  <text transform="translate(1052.08 243.61) rotate(-1.86)" fill="#bb8a8d" font-family="SuperFunky, &apos;Super Funky&apos;" font-size="266.4"><tspan x="0" y="0">R</tspan></text>
  <text transform="translate(1237.93 236.66) rotate(5.5)" fill="#bb8a8d" font-family="SuperFunky, &apos;Super Funky&apos;" font-size="266.4"><tspan x="0" y="0">U</tspan></text>
  <text transform="translate(1437.06 253.6) rotate(14.84)" fill="#bb8a8d" font-family="SuperFunky, &apos;Super Funky&apos;" font-size="266.4"><tspan x="0" y="0">A</tspan></text>
  <text transform="translate(1651.53 310.23) rotate(23.7)" fill="#bb8a8d" font-family="SuperFunky, &apos;Super Funky&apos;" font-size="266.4"><tspan x="0" y="0">T</tspan></text>
  <text transform="translate(1828.68 390.88) rotate(31.52)" fill="#bb8a8d" font-family="SuperFunky, &apos;Super Funky&apos;" font-size="266.4"><tspan x="0" y="0">I</tspan></text>
  <text transform="translate(1926.77 446.26) rotate(40.72)" fill="#bb8a8d" font-family="SuperFunky, &apos;Super Funky&apos;" font-size="266.4"><tspan x="0" y="0">O</tspan></text>
  <text transform="translate(2081.52 578.28) rotate(54.56)" fill="#bb8a8d" font-family="SuperFunky, &apos;Super Funky&apos;" font-size="266.4"><tspan x="0" y="0">N</tspan></text>
</svg>