<?xml version="1.0" encoding="UTF-8"?>
<svg id="Layer_2" xmlns="http://www.w3.org/2000/svg" viewBox="0 0 2401.05 872.41">
  <path d="M75.43,553.13c4.23-5.49,9.19-8.95,14.89-10.39,5.7-1.43,11.65-1.73,17.84-.89,6.19.85,12.43,2.35,18.72,4.5,6.3,2.16,12.16,4.15,17.59,5.98,5.43,1.83,10.18,3.08,14.26,3.75,4.08.68,7.03-.18,8.88-2.58,1.41-1.83,1.36-4.67-.16-8.53-1.51-3.86-3.71-8.35-6.59-13.49-2.88-5.13-5.95-10.75-9.21-16.85-3.26-6.09-5.87-12.31-7.83-18.64-1.96-6.33-2.8-12.58-2.53-18.76.28-6.18,2.53-12.01,6.75-17.5,4.12-5.35,8.55-8.99,13.3-10.94,4.75-1.94,9.78-2.44,15.1-1.48,5.32.96,11.05,3.19,17.2,6.7,6.15,3.51,12.75,7.97,19.78,13.39,4.79,3.69,11.18,7.1,19.18,10.24,8.01,3.14,16.67,6.51,26.01,10.11,9.33,3.6,18.95,7.7,28.86,12.31,9.9,4.6,19.15,10.21,27.73,16.82,11.54,8.89,20.42,17.3,26.64,25.23,6.22,7.93,10.36,15.43,12.42,22.51,2.06,7.08,2.25,13.73.6,19.96-1.66,6.23-4.66,12.16-8.99,17.79-4.45,5.77-9.52,10.32-15.23,13.66-5.71,3.33-11.65,5.37-17.82,6.11-6.18.74-12.45.16-18.84-1.73-6.39-1.89-12.61-5.17-18.66-9.83-8.16-6.28-14.37-12.19-18.63-17.72-4.26-5.52-7.86-10.82-10.8-15.88-2.94-5.06-5.9-9.87-8.9-14.42-3-4.55-7.38-9.05-13.15-13.49-3.24-2.49-6.17-3.92-8.82-4.27-2.64-.35-4.61.31-5.91,2-1.19,1.55-1,3.77.58,6.67,1.58,2.9,3.84,6.15,6.77,9.76s6.19,7.46,9.76,11.56c3.57,4.1,6.63,8.19,9.19,12.29,2.56,4.1,4.25,8.09,5.07,11.97.82,3.89.04,7.37-2.35,10.47-2.39,3.1-5.58,4.78-9.6,5.05-4.02.27-8.42-.21-13.2-1.42-4.78-1.21-9.69-2.92-14.72-5.12s-9.7-4.22-13.99-6.07c-4.29-1.85-7.96-3.27-11-4.27-3.04-1-5-.93-5.86.19-1.08,1.41-1.35,3.06-.78,4.95.56,1.89,1.57,3.79,3.02,5.69,1.45,1.9,3.17,3.74,5.18,5.5,2,1.77,3.78,3.25,5.32,4.44,5.63,4.34,11.49,7.28,17.58,8.83,6.09,1.55,12.27,2.78,18.52,3.68,6.26.9,12.36,2.07,18.31,3.51,5.95,1.45,11.67,4.28,17.15,8.51,5.49,4.23,10.25,9.02,14.31,14.38,4.05,5.36,6.63,11.33,7.74,17.9,1.1,6.57.47,13.87-1.91,21.9-2.38,8.03-7.2,16.77-14.46,26.19-4.66,6.05-10.11,10.21-16.33,12.47-6.23,2.26-12.51,3.14-18.84,2.63-6.33-.51-12.48-1.99-18.43-4.45-5.95-2.45-11.11-5.36-15.47-8.72-10.27-7.91-19.53-16.33-27.78-25.27-8.25-8.93-16.4-18.07-24.45-27.41-8.05-9.34-16.48-18.69-25.3-28.06-8.81-9.36-18.92-18.44-30.31-27.22-5.07-3.9-9.12-8.31-12.17-13.24-3.05-4.92-4.99-10.18-5.84-15.77-.85-5.59-.43-11.37,1.26-17.35,1.69-5.98,4.82-11.93,9.37-17.84Z" fill="#bb8a8d"/>
  <path d="M272.68,333.7c9.63-7.58,18.84-14.25,27.63-20.03,8.79-5.78,16.96-10.12,24.51-13.01,7.55-2.89,14.45-3.96,20.68-3.22,6.23.75,11.49,3.84,15.78,9.28,4.06,5.17,6.39,10.06,6.97,14.68.59,4.62.02,9.08-1.69,13.36-1.71,4.29-4.23,8.41-7.55,12.38-3.32,3.97-6.77,7.92-10.33,11.86-3.57,3.94-6.98,7.86-10.23,11.77-3.25,3.91-5.63,7.93-7.13,12.05-.71,1.69-1.17,3.69-1.38,6-.21,2.32.29,4.24,1.49,5.77,1.21,1.54,2.62,2.4,4.24,2.59,1.62.2,3.25.04,4.89-.46,1.64-.5,3.25-1.25,4.82-2.27,1.58-1.01,2.92-1.96,4.04-2.84,3.63-2.85,7.43-6.07,11.4-9.64,3.97-3.57,8.41-5.82,13.33-6.76,2.97-.53,6.5-.71,10.59-.54,4.09.17,7.23,1.66,9.43,4.45,2.31,2.93,3.03,6.09,2.19,9.46-.85,3.38-2.5,6.88-4.95,10.51-2.46,3.63-5.27,7.31-8.43,11.04-3.16,3.73-6.03,7.34-8.6,10.83-2.57,3.49-4.38,6.78-5.45,9.88-1.07,3.1-.61,5.9,1.37,8.42,3.4,4.33,7.33,6.16,11.77,5.49,4.44-.67,8.48-2.43,12.11-5.29,3.35-2.64,6.45-5.52,9.29-8.66,2.84-3.13,5.62-6.28,8.34-9.44,2.72-3.15,5.52-6.26,8.42-9.33,2.89-3.07,6.02-5.92,9.37-8.56,5.44-4.28,10.56-6.89,15.35-7.84,4.79-.94,9.37-.65,13.74.88,4.37,1.54,8.52,4.09,12.46,7.65,3.94,3.57,7.83,7.8,11.67,12.68,9.12,11.59,13.74,22.86,13.89,33.82.14,10.96-2.44,21.46-7.75,31.52-5.31,10.05-12.41,19.42-21.29,28.1-8.88,8.68-17.86,16.59-26.93,23.72-7.96,6.26-16.15,11.57-24.58,15.94-8.43,4.37-16.78,7.1-25.07,8.2-8.29,1.1-16.33.14-24.13-2.88-7.8-3.02-15.1-8.86-21.91-17.51-4.72-6-7.93-12.24-9.62-18.7-1.69-6.46-3.13-12.96-4.31-19.49-1.18-6.53-2.67-13.09-4.48-19.7-1.8-6.6-5.18-13.04-10.12-19.33-5.6-7.12-11.26-12.95-16.98-17.49-5.72-4.54-11.27-8.65-16.65-12.33-5.38-3.68-10.63-7.4-15.74-11.18-5.12-3.77-9.81-8.38-14.09-13.83-5.05-6.42-7.94-12.9-8.68-19.44-.74-6.54.03-12.96,2.3-19.27,2.27-6.3,5.74-12.31,10.4-18.01s9.86-10.8,15.58-15.31Z" fill="#bb8a8d"/>
  <path d="M439.39,226.38c6.76-3.55,12.77-5,18.03-4.35,5.26.65,10.56,3.78,15.91,9.4,1.78,1.88,4.54,4.64,8.27,8.3,3.73,3.66,8.03,7.67,12.93,12.02,4.89,4.35,10.06,8.76,15.51,13.22,5.45,4.46,10.75,8.35,15.9,11.66,5.15,3.32,9.88,5.75,14.21,7.29,4.32,1.55,7.81,1.61,10.49.21,1.89-.99,2.98-2.82,3.29-5.49.3-2.66.11-5.52-.59-8.57-.69-3.04-1.59-5.98-2.68-8.82-1.09-2.84-1.96-4.88-2.62-6.14-2.23-4.25-4.91-8.2-8.04-11.88-3.13-3.67-6.32-7.26-9.57-10.77-3.25-3.51-6.39-7.02-9.44-10.54s-5.69-7.4-7.92-11.64c-4.95-9.44-5.93-17.8-2.94-25.09,2.99-7.29,9.05-13.33,18.17-18.11,3.3-1.73,7.05-2.8,11.26-3.2,4.2-.4,8.34-.06,12.41,1.01,4.07,1.07,7.8,2.73,11.18,4.96,3.38,2.24,6.02,5.17,7.92,8.78,5.7,10.85,10.68,21.88,14.95,33.07,4.27,11.2,9.26,22.22,14.95,33.07,3.63,6.92,7.97,13.27,13.01,19.05,5.04,5.78,10.27,11.46,15.71,17.03,5.43,5.57,10.65,11.21,15.65,16.91,5,5.7,9.31,12.01,12.94,18.93,3.55,6.76,6.16,13.46,7.84,20.1,1.68,6.64,2.16,12.91,1.44,18.8-.72,5.89-2.8,11.29-6.23,16.21-3.44,4.91-8.54,9.15-15.3,12.69-6.6,3.47-13.13,5.09-19.57,4.85-6.44-.23-12.55-1.74-18.32-4.52-5.78-2.79-11.06-6.64-15.84-11.54-4.79-4.91-8.74-10.35-11.88-16.33-2.15-4.09-5.62-8.79-10.41-14.09-4.79-5.31-9.96-10.27-15.49-14.89-5.54-4.62-10.93-8.2-16.18-10.76-5.25-2.56-9.3-3.09-12.13-1.61-1.42.74-2.29,1.76-2.62,3.03-.33,1.28-.38,2.71-.15,4.29.23,1.59.68,3.11,1.34,4.56.66,1.46,1.24,2.66,1.74,3.6,2.23,4.25,5.2,8,8.92,11.26,3.72,3.27,7.6,6.54,11.63,9.84,4.03,3.3,8.1,6.93,12.19,10.9,4.09,3.97,7.66,8.87,10.72,14.68,2.97,5.66,4.87,11.48,5.71,17.46.83,5.98.59,11.73-.73,17.23s-3.82,10.58-7.5,15.22c-3.68,4.64-8.51,8.53-14.49,11.67-5.66,2.97-11.47,4.61-17.42,4.93-5.96.31-11.67-.45-17.14-2.28-5.48-1.84-10.54-4.7-15.18-8.58-4.65-3.88-8.45-8.65-11.42-14.31-4.95-9.44-8.96-19.16-12.02-29.2-3.06-10.03-5.98-20.08-8.76-30.15-2.78-10.07-5.7-20.12-8.76-30.15-3.06-10.03-7.02-19.68-11.89-28.96-3.71-7.08-8.09-13.6-13.14-19.58-5.04-5.97-9.05-11.8-12.02-17.46-4.04-7.7-4.47-14.9-1.26-21.6,3.2-6.69,8.35-11.9,15.42-15.62Z" fill="#bb8a8d"/>
  <path d="M698.99,108.08c4.39-1.43,9.46-2.91,15.23-4.42,5.77-1.51,11.84-2.79,18.22-3.85,6.38-1.06,12.77-1.65,19.18-1.78s12.37.54,17.89,2c5.52,1.47,10.38,3.89,14.57,7.29,4.19,3.39,7.25,8.05,9.19,13.95,2.76,8.44,3.24,15.2,1.44,20.27-1.8,5.07-7.09,9.04-15.87,11.91-4.05,1.32-8.06,1.93-12.02,1.83-3.96-.11-7.92-.35-11.87-.74-3.96-.39-7.92-.64-11.87-.74-3.96-.11-7.96.5-12.02,1.83-3.89,1.27-7.04,3.47-9.47,6.6-2.44,3.13-3.04,6.56-1.83,10.27,1.05,3.21,4.53,5.43,10.45,6.67,5.92,1.25,13.14,2.2,21.68,2.86,8.53.67,17.75,1.44,27.66,2.31,9.91.87,19.47,2.7,28.7,5.47,9.22,2.78,17.48,6.9,24.78,12.36,7.29,5.46,12.52,13,15.66,22.63,4.97,15.19,6.77,29.28,5.4,42.24s-5.58,24.67-12.63,35.1c-7.06,10.43-16.66,19.64-28.8,27.63-12.15,7.99-26.5,14.69-43.04,20.09-10.47,3.42-21.21,4.87-32.21,4.36-11.01-.51-21.41-2.91-31.21-7.17-9.8-4.27-18.49-10.26-26.05-17.97-7.56-7.71-13.11-16.97-16.65-27.77-1.49-4.56-2.35-9.46-2.57-14.72-.22-5.25.37-10.3,1.77-15.15,1.4-4.85,3.73-9.16,6.98-12.93,3.25-3.77,7.49-6.51,12.73-8.22,5.06-1.66,10.26-2.18,15.59-1.59,5.33.6,10.69,1.41,16.08,2.45,5.39,1.04,10.83,1.83,16.33,2.37,5.5.54,10.87-.05,16.1-1.76,7.76-2.54,10.9-6.09,9.41-10.64-1.05-3.2-4.21-5.44-9.48-6.71-5.27-1.26-11.74-2.33-19.4-3.19-7.66-.86-15.94-1.89-24.83-3.09-8.9-1.2-17.52-3.29-25.87-6.26-8.35-2.97-15.87-7.24-22.54-12.81-6.68-5.57-11.56-13.08-14.65-22.54-1.82-5.57-2.3-11.16-1.42-16.77.87-5.61,2.73-11.07,5.57-16.4,2.84-5.32,6.46-10.38,10.87-15.19,4.41-4.8,9.15-9.16,14.23-13.06,5.07-3.9,10.26-7.32,15.56-10.27,5.3-2.94,10.31-5.19,15.03-6.74Z" fill="#bb8a8d"/>
  <path d="M926.4,49.07c5.07-.88,10.73-1.77,16.98-2.67,6.24-.9,12.57-1.59,18.97-2.07,6.41-.48,12.7-.53,18.9-.17,6.19.37,11.86,1.37,17.01,3,6.32,2.15,11.09,4.97,14.31,8.47,3.22,3.5,5.41,8.57,6.56,15.22,1.3,7.53.94,13.99-1.1,19.39-2.04,5.4-7.17,8.81-15.39,10.24-3.85.67-7.31.73-10.38.18-3.07-.55-5.9-1.28-8.49-2.18-2.59-.9-5.07-1.69-7.44-2.36-2.37-.67-4.78-.79-7.23-.37-2.1.36-3.68,1.41-4.73,3.12-1.05,1.72-1.79,3.74-2.19,6.06-.41,2.33-.52,4.82-.32,7.49s.49,5.15.88,7.42c1.82,10.5,5.25,20.41,10.29,29.72,5.04,9.31,10.43,18.56,16.17,27.75,5.74,9.19,11.13,18.44,16.17,27.75,5.04,9.31,8.45,19.13,10.24,29.45,1.46,8.4,1.06,16.04-1.17,22.91-2.23,6.88-5.74,12.89-10.53,18.05s-10.55,9.35-17.28,12.59c-6.74,3.24-13.87,5.51-21.39,6.82-7.53,1.3-15.05,1.57-22.57.8-7.53-.77-14.45-2.77-20.78-6-6.33-3.23-11.74-7.7-16.25-13.41s-7.57-12.75-9.2-21.12l-.18-1.05c-1.79-10.32-1.92-20.66-.38-31.03,1.54-10.36,3.43-20.78,5.67-31.26,2.24-10.48,4.12-20.95,5.64-31.4,1.52-10.45,1.39-20.83-.4-31.16-.52-2.97-.98-5.87-1.37-8.69-.4-2.81-1.06-5.31-1.98-7.5-.92-2.18-2.33-3.79-4.21-4.81-1.89-1.02-4.59-1.23-8.08-.63-2.8.49-5.33,1.47-7.6,2.94-2.27,1.48-4.56,3.09-6.87,4.84-2.31,1.75-4.69,3.38-7.13,4.89-2.44,1.51-5.24,2.53-8.39,3.08-7.35,1.27-13.48.22-18.39-3.17-4.91-3.38-8.04-8.92-9.37-16.63-1.15-6.65-.23-12.49,2.78-17.52,3-5.02,7.2-9.4,12.59-13.13,5.39-3.73,11.68-6.93,18.88-9.63,7.19-2.69,14.41-4.97,21.66-6.86,7.24-1.89,14.19-3.41,20.84-4.56,6.65-1.15,12.07-2.09,16.27-2.82Z" fill="#bb8a8d"/>
  <path d="M1176.07,155.08c.06,1.96,1.88,4.38,5.43,7.29,3.56,2.91,7.97,6.18,13.25,9.83,5.27,3.65,11.04,7.68,17.32,12.1,6.27,4.42,12.07,9.12,17.38,14.09,5.31,4.98,9.8,10.26,13.44,15.82,3.65,5.57,5.57,11.37,5.76,17.4.18,5.68-1.02,11.09-3.6,16.24-2.59,5.15-5.99,9.74-10.21,13.79-4.22,4.04-9,7.31-14.34,9.8-5.34,2.48-10.67,3.81-16,3.99-3.37.11-6.8,0-10.27-.33-3.48-.33-6.79-1.07-9.93-2.21-3.15-1.14-6.04-2.74-8.69-4.78-2.64-2.05-4.91-4.73-6.79-8.04-1.69-2.79-3.2-6.92-4.53-12.38-1.34-5.47-2.64-11.42-3.91-17.86-1.28-6.44-2.56-13.11-3.85-20-1.29-6.89-2.78-13.1-4.47-18.65-1.69-5.54-3.62-10.05-5.77-13.54-2.16-3.48-4.75-5.18-7.76-5.08-3.02.1-5.56,1.25-7.62,3.45-2.06,2.2-3.04,4.81-2.94,7.83.16,4.97,1.47,9.59,3.92,13.87,2.45,4.28,5.07,8.46,7.87,12.54,2.8,4.09,5.42,8.31,7.88,12.67,2.45,4.36,3.76,9.21,3.94,14.53.2,6.21-1.07,12.07-3.83,17.58-2.75,5.51-6.42,10.29-10.99,14.35-4.58,4.06-9.8,7.29-15.68,9.71-5.88,2.41-11.74,3.71-17.6,3.9-13.31.43-24.16-2.37-32.53-8.4-8.37-6.04-12.95-15.7-13.74-29.01l-.07-2.13c-.19-5.86.55-11.61,2.24-17.26,1.68-5.65,3.54-11.26,5.58-16.84,2.04-5.57,3.9-11.19,5.58-16.84,1.68-5.65,2.43-11.41,2.24-17.26-.25-7.81-1.35-15.37-3.27-22.68-1.93-7.31-4.07-14.61-6.44-21.91-2.37-7.29-4.52-14.65-6.45-22.05-1.93-7.4-3.02-15-3.27-22.82-.29-8.87,1.22-17.05,4.53-24.54,3.31-7.48,7.81-13.98,13.49-19.5,5.68-5.52,12.34-9.86,19.97-13.04,7.63-3.18,15.7-4.91,24.22-5.19,11.18-.36,22.46,1,33.85,4.1,11.38,3.09,21.62,7.83,30.71,14.19,9.09,6.37,16.59,14.34,22.5,23.92,5.91,9.58,9.07,20.76,9.49,33.54.31,9.59-1.39,17.42-5.1,23.49-3.71,6.08-7.9,11.1-12.57,15.07-4.67,3.98-8.92,7.22-12.74,9.74-3.83,2.52-5.7,5.03-5.62,7.51ZM1118.65,110.57c.07,2.13.29,4.75.66,7.84.37,3.1,1.04,6.01,2.02,8.73.98,2.73,2.38,5.03,4.22,6.93,1.84,1.9,4.26,2.79,7.28,2.7,2.3-.08,4.59-.99,6.84-2.75,2.25-1.76,4.31-3.91,6.19-6.47,1.87-2.55,3.38-5.26,4.53-8.14,1.15-2.88,1.69-5.47,1.61-7.78-.08-2.48-.65-4.86-1.7-7.14-1.05-2.27-2.45-4.27-4.19-5.99-1.75-1.72-3.74-3.08-6-4.07-2.26-.99-4.54-1.45-6.84-1.38-4.62.15-8.24,2.09-10.87,5.82-2.64,3.73-3.88,7.64-3.75,11.72Z" fill="#bb8a8d"/>
  <path d="M1432.32,146.7c-.34,3.54-.34,7.73,0,12.58.34,4.85.75,10.29,1.24,16.31.49,6.03.78,12.75.87,20.16.09,7.41-.27,15.36-1.09,23.85-.94,9.72-3.8,18.68-8.61,26.87-4.8,8.19-11.45,15.13-19.94,20.83-8.49,5.69-18.79,9.88-30.91,12.55-12.12,2.67-26.05,3.25-41.78,1.73-14.85-1.43-27.67-4.45-38.47-9.05-10.8-4.61-19.6-10.5-26.4-17.66-6.8-7.17-11.62-15.57-14.44-25.21s-3.69-20.11-2.6-31.43c1.12-11.67,2.95-22.77,5.48-33.33,2.53-10.55,4.17-19.71,4.92-27.49.49-5.13.63-10.28.42-15.48-.22-5.19-.47-10.44-.76-15.73-.29-5.29-.54-10.66-.72-16.13-.19-5.46-.01-11.02.53-16.68.7-7.25,2.15-13.98,4.35-20.19,2.2-6.21,5.26-11.58,9.18-16.11,3.92-4.53,8.61-7.96,14.1-10.28,5.48-2.32,11.77-3.15,18.84-2.47,12.73,1.22,22.18,6.33,28.37,15.31,6.18,8.98,8.57,20.81,7.16,35.48-.61,6.36-1.73,12.37-3.34,18.01-1.61,5.64-3.33,10.92-5.14,15.83-1.81,4.91-3.5,9.52-5.08,13.83-1.58,4.31-2.53,8.23-2.87,11.77-.36,3.71-.34,7.73.04,12.05.39,4.32,1.33,8.38,2.84,12.18,1.51,3.8,3.56,7.08,6.15,9.82,2.59,2.75,6.01,4.32,10.25,4.73,3.71.36,7.16-.25,10.34-1.81,3.18-1.57,5.99-3.88,8.43-6.95,2.44-3.06,4.39-6.67,5.86-10.81,1.47-4.14,2.43-8.6,2.89-13.37.46-4.77.42-9.46-.12-14.06-.54-4.6-1.17-9.21-1.88-13.83-.72-4.62-1.34-9.32-1.86-14.1-.52-4.78-.53-9.82-.02-15.12.58-6.01,1.78-11.51,3.6-16.51,1.82-5,4.45-9.21,7.91-12.62,3.45-3.42,7.67-5.95,12.64-7.62s10.91-2.16,17.81-1.5c5.12.49,9.9,1.89,14.32,4.19,4.42,2.3,8.13,5.38,11.15,9.24,3.02,3.86,5.26,8.31,6.74,13.36,1.47,5.05,1.92,10.67,1.32,16.85-.6,6.19-1.47,12.04-2.62,17.55-1.16,5.51-2.36,10.66-3.63,15.44-1.26,4.79-2.41,9.27-3.44,13.45-1.03,4.18-1.71,8.04-2.05,11.58Z" fill="#bb8a8d"/>
  <path d="M1438.75,248.26c1.59-6.01,4.57-11.51,8.92-16.51,4.36-5,9.28-9.71,14.77-14.14,5.49-4.42,11.17-8.52,17.04-12.3,5.87-3.77,11.02-7.46,15.47-11.06,7.18-5.63,13.03-11.57,17.54-17.81,4.5-6.25,8.24-12.56,11.22-18.94,2.97-6.38,5.42-12.66,7.34-18.86,1.92-6.2,3.8-12.08,5.64-17.66,1.84-5.57,3.87-10.64,6.09-15.2,2.21-4.55,5.2-8.36,8.95-11.41,4.23-3.47,8.83-6.11,13.81-7.92,4.98-1.8,10.17-3,15.56-3.59,5.39-.59,10.82-.62,16.29-.09,5.46.53,10.77,1.48,15.92,2.84,7.55,2,14.28,4.89,20.17,8.65,5.89,3.77,10.44,9.29,13.66,16.57,1.63,3.56,2.64,8.24,3.03,14.03.39,5.8.69,11.94.9,18.43.21,6.49.5,13,.89,19.53.38,6.53,1.2,12.26,2.47,17.19,1.97,7.14,4.36,13.7,7.19,19.68,2.82,5.98,5.69,11.8,8.61,17.44,2.91,5.64,5.7,11.25,8.36,16.82,2.66,5.57,4.75,11.36,6.28,17.37,1.53,6.01,2.36,12.43,2.48,19.26.12,6.83-.91,14.36-3.1,22.61-1.96,7.38-4.72,14-8.29,19.85-3.57,5.85-7.88,10.49-12.93,13.94-5.05,3.44-10.87,5.66-17.48,6.67-6.6,1.01-13.86.46-21.75-1.63-9.96-2.64-17.79-6.69-23.51-12.16-5.72-5.47-10-11.52-12.83-18.14-2.84-6.63-4.75-13.47-5.72-20.53-.98-7.06-1.81-13.61-2.5-19.68-.69-6.06-1.62-11.22-2.79-15.48-1.17-4.26-3.39-6.82-6.64-7.69-.69-.18-1.44-.29-2.26-.32-.82-.03-1.55.14-2.2.52-5.55,2.21-9.93,5.91-13.14,11.12-3.22,5.21-6.03,10.94-8.42,17.2-2.39,6.26-4.81,12.6-7.25,19.03-2.44,6.42-5.81,11.87-10.12,16.34-4.31,4.46-9.91,7.57-16.8,9.33-6.9,1.75-15.92,1.15-27.08-1.8-17.68-4.69-30.44-12.2-38.26-22.54-7.83-10.34-9.67-23.33-5.53-38.95ZM1566.48,176c-.68,2.58-.63,4.98.16,7.21.79,2.23,2.06,4.18,3.83,5.84,1.76,1.66,3.77,3.11,6.01,4.35,2.24,1.24,4.48,2.15,6.71,2.74,2.06.55,4.4.89,7.03,1.04,2.62.14,5.17-.1,7.64-.73,2.46-.63,4.61-1.63,6.44-2.98,1.83-1.35,3.08-3.32,3.77-5.89.64-2.4.74-5.04.31-7.91-.44-2.87-1.34-5.68-2.72-8.44-1.38-2.75-3.23-5.17-5.52-7.25-2.3-2.08-4.91-3.5-7.82-4.28-3.09-.82-6.02-.86-8.79-.12-2.77.74-5.34,1.94-7.71,3.61-2.37,1.67-4.36,3.62-5.96,5.86-1.61,2.24-2.72,4.56-3.36,6.96Z" fill="#bb8a8d"/>
  <path d="M1832.57,156.94c4.71,2.07,9.92,4.46,15.63,7.15,5.7,2.7,11.35,5.62,16.96,8.75,5.6,3.14,10.88,6.57,15.84,10.3,4.95,3.73,9.13,7.7,12.52,11.9,4.08,5.28,6.5,10.27,7.25,14.97.75,4.69-.23,10.13-2.94,16.31-3.07,6.99-6.95,12.18-11.63,15.55-4.68,3.38-10.85,3.39-18.49.03-3.58-1.57-6.49-3.43-8.75-5.59-2.26-2.15-4.21-4.32-5.87-6.51s-3.29-4.21-4.9-6.08c-1.61-1.87-3.55-3.3-5.82-4.3-1.95-.86-3.84-.86-5.67-.01-1.83.85-3.55,2.13-5.18,3.84-1.63,1.71-3.09,3.73-4.41,6.07-1.31,2.33-2.44,4.56-3.36,6.67-4.28,9.76-6.9,19.91-7.84,30.45-.95,10.54-1.56,21.23-1.85,32.06-.29,10.83-.91,21.52-1.85,32.06-.95,10.54-3.52,20.62-7.73,30.21-3.43,7.81-7.97,13.96-13.63,18.46-5.66,4.5-11.91,7.57-18.74,9.23s-13.96,1.97-21.36.95c-7.41-1.02-14.61-3.07-21.6-6.14-6.99-3.07-13.41-7.01-19.26-11.8-5.85-4.8-10.52-10.29-14.01-16.48-3.49-6.19-5.54-12.9-6.14-20.15-.6-7.25.73-14.81,3.99-22.69l.43-.98c4.21-9.59,9.82-18.28,16.83-26.07,7-7.79,14.34-15.43,21.99-22.93,7.66-7.5,15-15.19,22.05-23.05,7.04-7.87,12.67-16.6,16.88-26.19,1.21-2.76,2.43-5.43,3.66-8,1.22-2.56,2.05-5.01,2.5-7.34.44-2.33.15-4.44-.85-6.34-1.01-1.9-3.14-3.56-6.39-4.99-2.6-1.14-5.26-1.73-7.96-1.75-2.71-.02-5.51.06-8.4.24-2.89.18-5.77.23-8.64.13s-5.77-.78-8.69-2.07c-6.83-3-11.36-7.26-13.58-12.8-2.23-5.53-1.77-11.88,1.37-19.04,2.71-6.18,6.71-10.54,11.99-13.07,5.28-2.53,11.19-3.86,17.75-3.99,6.55-.13,13.57.67,21.06,2.4,7.48,1.73,14.76,3.82,21.84,6.24,7.08,2.43,13.71,5,19.89,7.71,6.18,2.71,11.22,4.93,15.12,6.64Z" fill="#bb8a8d"/>
  <path d="M1986.17,234.96c10.75,6.59,17.73,14.05,20.96,22.39,3.22,8.33,2.33,16.58-2.68,24.76-2.51,4.09-5.95,8.34-10.31,12.74-4.37,4.4-9.02,9.11-13.96,14.1-4.94,4.99-9.96,10.3-15.07,15.91-5.11,5.61-9.71,11.76-13.79,18.42-4.46,7.27-7.29,14.7-8.51,22.28-1.22,7.59-2.12,15.26-2.71,23.02-.59,7.76-1.54,15.51-2.85,23.25-1.31,7.74-4.21,15.44-8.7,23.1l-.7,1.14c-21.82,35.58-48.02,43.99-78.6,25.24-13.48-8.26-22.04-18.16-25.71-29.67-3.67-11.52-2.06-23.4,4.82-35.64l1.11-1.82c4.08-6.66,8.82-12.09,14.21-16.29s10.99-8.42,16.82-12.65c5.83-4.24,11.76-8.98,17.8-14.24,6.03-5.25,11.75-12.27,17.13-21.06,4.92-8.02,8.43-15.61,10.52-22.77,2.09-7.15,3.74-14,4.95-20.56,1.21-6.55,2.54-12.98,4-19.27,1.46-6.29,4.14-12.62,8.04-18.97,7.43-12.11,16.6-19.35,27.53-21.71,10.93-2.36,22.82.4,35.7,8.3Z" fill="#bb8a8d"/>
  <path d="M2143.74,351.82c7.4,6.37,13.18,13.75,17.33,22.13,4.15,8.38,6.89,17.24,8.22,26.59,1.32,9.35,1.33,19.01,0,29-1.33,9.98-3.74,19.93-7.21,29.82-3.48,9.89-7.86,19.48-13.15,28.75-5.29,9.27-11.29,17.82-18.01,25.62-9.97,11.58-21.28,21.11-33.94,28.61-12.67,7.5-25.77,12.38-39.33,14.65s-27.17,1.62-40.85-1.95c-13.68-3.58-26.65-10.63-38.89-21.18-10.5-9.04-18.25-19.17-23.24-30.37-4.99-11.21-7.32-22.94-6.98-35.18.34-12.24,3.19-24.67,8.54-37.29,5.35-12.62,13.07-24.78,23.15-36.49,12.05-14,25.37-25.79,39.95-35.39s29.34-16.46,44.27-20.6c14.93-4.14,29.36-5.25,43.29-3.33,13.93,1.92,26.22,7.45,36.85,16.61ZM2051.95,415.17c-4.4,5.12-6.07,11.06-4.99,17.85,1.07,6.78,4.77,12.9,11.1,18.34,5.65,4.87,11.43,7.2,17.34,7.01,5.9-.19,11.06-2.84,15.46-7.96,2.43-2.83,4.19-5.89,5.26-9.18,1.08-3.29,1.52-6.6,1.34-9.92-.19-3.32-1.02-6.51-2.51-9.54-1.49-3.04-3.64-5.77-6.47-8.21-2.83-2.43-5.89-4.19-9.18-5.26-3.29-1.08-6.57-1.55-9.84-1.44-3.27.12-6.42.86-9.47,2.22-3.05,1.36-5.73,3.39-8.05,6.08Z" fill="#bb8a8d"/>
  <path d="M2276.49,494.8c4.43,6.22,6.67,11.98,6.74,17.28.06,5.3-2.33,10.97-7.17,17.04-1.62,2.02-3.99,5.12-7.11,9.31-3.13,4.19-6.52,8.99-10.17,14.43-3.66,5.43-7.33,11.15-11.01,17.15-3.69,6-6.83,11.77-9.41,17.33-2.59,5.55-4.36,10.57-5.31,15.06-.95,4.49-.55,7.96,1.2,10.42,1.24,1.74,3.19,2.58,5.88,2.52,2.68-.06,5.49-.63,8.41-1.73,2.92-1.1,5.71-2.38,8.38-3.84,2.66-1.46,4.58-2.6,5.73-3.43,3.91-2.78,7.47-5.97,10.69-9.57,3.21-3.6,6.34-7.24,9.39-10.93,3.04-3.69,6.1-7.28,9.17-10.78,3.07-3.49,6.56-6.63,10.47-9.41,8.68-6.18,16.84-8.28,24.46-6.29,7.62,1.98,14.42,7.17,20.4,15.57,2.16,3.04,3.72,6.61,4.69,10.72.96,4.11,1.19,8.26.67,12.44-.52,4.18-1.65,8.09-3.41,11.75-1.76,3.65-4.31,6.66-7.63,9.03-9.98,7.1-20.24,13.53-30.76,19.27-10.52,5.74-20.77,12.16-30.76,19.27-6.37,4.53-12.08,9.68-17.12,15.45-5.05,5.77-9.97,11.72-14.76,17.86-4.79,6.13-9.68,12.06-14.65,17.78-4.98,5.72-10.65,10.85-17.01,15.38-6.22,4.43-12.51,7.92-18.86,10.48-6.35,2.56-12.5,3.88-18.43,3.96-5.94.08-11.57-1.25-16.9-3.99-5.33-2.75-10.21-7.23-14.64-13.45-4.32-6.08-6.81-12.32-7.45-18.73s.03-12.67,2.02-18.76c1.98-6.1,5.09-11.85,9.31-17.25,4.22-5.4,9.08-10.06,14.58-13.97,3.76-2.68,7.95-6.75,12.56-12.21,4.61-5.46,8.83-11.25,12.67-17.35,3.83-6.11,6.66-11.93,8.49-17.48,1.82-5.55,1.81-9.63-.04-12.23-.93-1.3-2.05-2.03-3.36-2.19-1.31-.16-2.74-.01-4.27.43-1.54.44-2.99,1.09-4.34,1.94-1.36.85-2.46,1.59-3.33,2.21-3.91,2.78-7.23,6.23-9.96,10.36-2.74,4.12-5.46,8.41-8.18,12.85-2.72,4.44-5.78,8.96-9.16,13.55-3.39,4.59-7.75,8.79-13.11,12.6-5.21,3.71-10.72,6.37-16.54,8.01-5.81,1.63-11.54,2.16-17.17,1.59-5.63-.57-11-2.36-16.09-5.39-5.1-3.03-9.6-7.29-13.51-12.78-3.71-5.21-6.12-10.74-7.23-16.6-1.11-5.86-1.13-11.62-.05-17.3,1.08-5.68,3.23-11.08,6.45-16.2,3.22-5.13,7.43-9.54,12.64-13.25,8.68-6.18,17.78-11.46,27.31-15.84,9.52-4.38,19.09-8.63,28.7-12.74,9.61-4.11,19.17-8.36,28.7-12.74,9.52-4.38,18.55-9.61,27.09-15.68,6.51-4.63,12.39-9.85,17.63-15.65,5.24-5.8,10.47-10.56,15.68-14.26,7.09-5.04,14.17-6.43,21.24-4.16,7.06,2.27,12.92,6.67,17.55,13.18Z" fill="#bb8a8d"/>
</svg>