<?xml version="1.0" encoding="UTF-8"?>
<svg id="Layer_2" xmlns="http://www.w3.org/2000/svg" viewBox="0 0 249.77 401.32">
  <g>
    <path d="M47.47,101.73c-.36,12.11.9,21.69,1.52,25.8,1.78,11.67,4.58,20.19,5.17,21.97,4.37,13.04,10.57,31.52,28.54,44.69,17.52,12.83,36.32,13.36,42.25,13.28,6.45-.08,19.56-.41,32.78-8.87,10.93-6.99,16.41-16,18.84-20.1,1.88-3.18,5.64-10.12,9.73-36.15.3-1.92,3.99-27.17.89-57.59-.49-4.8-1.27-10.94-5.8-13.84-7.49-4.79-19.6,2.84-21.43,4.02-.22-4.09-.84-10.03-2.68-16.96-2.57-9.7-6.7-18.14-7.59-17.86-.61.2.35,4.49,2.78,20.41,1.54,10.06,1.83,12.8,0,14.99-2.07,2.47-5.11,2.16-14.24,2.76-16.7,1.11-16.85,2.83-19.66,1.59-13.2-5.78-8.1-42.72-10.84-42.88-1.2-.07-2.82,6.97-3.92,15.21-2.4,18.03-.97,31.87-1.37,31.91-.71.06-4.32-44.52-6.77-44.44-.86.03-1.2,5.56-3.57,29.02-.7,6.94-1.31,12.72-1.74,16.79-4.25,1.71-8.58,3.41-12.99,5.08-6.2,2.36-12.3,4.59-18.3,6.7-2.06-5.49-4.21-13.13-4.46-22.32-.4-14.44,4.09-24.98,4.02-25-.11-.03-10.26,21.57-11.16,51.78Z" fill="none" stroke="#79142a" stroke-miterlimit="10" stroke-width="3"/>
    <path d="M62.04,170.9c-1.35.66-3.47,1.47-6.06,1.39-6.51-.2-10.71-5.9-13.52-9.38-6.17-7.61-6.48-15.86-6.54-18.32-.06-2.66-.12-7.8,2.83-12.65.74-1.22,2.02-2.99,4.18-4.74.06-.02.12-.04.18-.06,1.31-.41,3.25-.6,5.88.38" fill="none" stroke="#79142a" stroke-miterlimit="10" stroke-width="3"/>
    <path d="M53.24,165.18c-4.26.48-7.87,3-9.33,6.62-2.12,5.26,1.03,11.03,4.96,13.39,5.35,3.2,13.82,1.09,18.32-6.15" fill="none" stroke="#79142a" stroke-miterlimit="10" stroke-width="3"/>
    <path d="M188.39,105.16c.98-1.07,3.72-3.78,7.41-3.66,6.08.19,9.39,7.9,10.12,9.44,3.56,7.54,1.41,15.4.12,20.15-.96,3.52-3.68,13.48-11.3,16.91-2.44,1.1-4.67,1.29-6.12,1.13l-2.32-.26" fill="none" stroke="#79142a" stroke-miterlimit="10" stroke-width="3"/>
    <path d="M193.17,140.53c1.4-.54,4.57-1.51,7.47-.14,5.39,2.55,7.75,12.2,2.96,17.33-3.67,3.93-10.22,3.96-14.37,1.27-2.03-1.31-3.18-3.08-3.8-4.27" fill="none" stroke="#79142a" stroke-miterlimit="10" stroke-width="3"/>
    <g>
      <path d="M103.92,180.05c5.94-2.53,14.52-5.43,25.18-6.64,11.31-1.28,20.82-.19,27.36,1.07" fill="none" stroke="#79142a" stroke-miterlimit="10" stroke-width="3"/>
      <path d="M114.51,185.65c1.3.88,7.97,5.19,16.77,3.48,7.36-1.42,11.63-6.17,12.85-7.62" fill="none" stroke="#79142a" stroke-miterlimit="10" stroke-width="3"/>
      <path d="M143.19,173.55c-1-.83-8.96-7.19-19.33-4.87-7.26,1.62-11.41,6.54-12.64,8.12" fill="none" stroke="#79142a" stroke-miterlimit="10" stroke-width="3"/>
    </g>
    <path d="M115.88,128.6c-.2,2.92-.65,7.44-1.84,12.87-1.37,6.26-2.64,8.77-1.36,10.64.92,1.35,3.77,3.26,14.84.39" fill="none" stroke="#79142a" stroke-miterlimit="10" stroke-width="3"/>
    <ellipse cx="89.99" cy="127.19" rx="6.43" ry="8.47" transform="translate(-18.73 15.59) rotate(-8.97)" fill="#79142a" stroke="#79142a" stroke-miterlimit="10" stroke-width="3"/>
    <path d="M156.04,116.47c.73,4.62-1.52,8.81-5.04,9.37-3.51.55-6.95-2.74-7.68-7.36-.73-4.62,1.52-8.81,5.04-9.37,3.51-.55,6.95,2.74,7.68,7.36Z" fill="#79142a" stroke="#79142a" stroke-miterlimit="10" stroke-width="3"/>
    <path d="M73.59,123.69c2.22-1.74,7.19-5.15,14.4-6.13,5.34-.72,9.71.18,12.26.92" fill="none" stroke="#79142a" stroke-miterlimit="10" stroke-width="3"/>
    <path d="M136.41,113.58c1.24-1.31,5.07-5,11.34-6.13,6.75-1.22,11.95,1.33,13.48,2.14" fill="none" stroke="#79142a" stroke-miterlimit="10" stroke-width="3"/>
    <path d="M66.91,105.69c2.67.36,7.32.67,12.99-.6,6.04-1.34,10.42-3.84,12.76-5.38" fill="none" stroke="#79142a" stroke-miterlimit="10" stroke-width="3"/>
    <path d="M136.93,91.57c2.32,1.41,6.49,3.56,12.21,4.59,6.09,1.1,11.1.4,13.85-.16" fill="none" stroke="#79142a" stroke-miterlimit="10" stroke-width="3"/>
    <path d="M248.24,287.29c-6.04-12.28-17.15-30.07-35.41-41-10.56-6.32-25.56-11.58-28.42-12.58-7.15-2.51-11.81-6.62-17.7-5.12-5.12,1.3-6.37,4.96-11.18,9.32-13.04,11.81-31.85,10.32-32.61,10.25-13.27-1.24-23.98-9.43-27.49-12.11-5.71-4.37-6.18-6.35-10.25-7.45-5.62-1.53-10.5.67-26.09,8.39-11.24,5.56-16.85,8.34-17.7,8.85-18.02,10.88-29.9,28.05-36.34,39.14,5.49,6.96,47.16,57.95,119.14,59.52,74.26,1.61,118.75-50.72,124.06-57.19Z" fill="none" stroke="#79142a" stroke-miterlimit="10" stroke-width="3"/>
    <path d="M76.08,244.14l13.9-12.77-13.9,12.77Z" fill="none" stroke="#79142a" stroke-miterlimit="10" stroke-width="3"/>
    <path d="M89.99,253.46l10.27-13.95-10.27,13.95Z" fill="none" stroke="#79142a" stroke-miterlimit="10" stroke-width="3"/>
    <path d="M103.84,262.52l7.38-16.03-7.38,16.03Z" fill="none" stroke="#79142a" stroke-miterlimit="10" stroke-width="3"/>
    <path d="M122.16,266.66l.75-18.5-.75,18.5Z" fill="none" stroke="#79142a" stroke-miterlimit="10" stroke-width="3"/>
    <path d="M138.21,266.66l-2.07-18.5,2.07,18.5Z" fill="none" stroke="#79142a" stroke-miterlimit="10" stroke-width="3"/>
    <path d="M153.05,259.93l-6.3-15.79,6.3,15.79Z" fill="none" stroke="#79142a" stroke-miterlimit="10" stroke-width="3"/>
    <path d="M169.79,250.35l-14.26-12.44,14.26,12.44Z" fill="none" stroke="#79142a" stroke-miterlimit="10" stroke-width="3"/>
    <path d="M178.59,242.07l-14.24-10.7,14.24,10.7Z" fill="none" stroke="#79142a" stroke-miterlimit="10" stroke-width="3"/>
    <path d="M176.57,178.5c6.65,1.12,19.17,2.16,32.18-3.78,3.92-1.79,9.57-4.37,14.31-10.14,8.53-10.38,7.8-23.34,9.03-23.2.92.1,1.36,7.36.42,15.2-1.06,8.8-3.35,13.95-2.64,14.26.89.39,6.07-7.17,9.21-15.9,1.92-5.33,5.2-16.96,1.35-38-1.3-7.13-4.95-22.18-16.67-44.46-11.11-21.12-22.19-42.2-46.13-56.69-8.68-5.26-23.16-14.02-41.12-12.78-4.66.32-5.44,1.03-25.01,4.45-21.98,3.84-21.67,3.06-26.12,4.45-16.32,5.09-26.06,17.27-34.46,27.79-9.37,11.73-13.66,21.9-22.23,42.24-10.42,24.72-13.21,39.12-14.45,48.35-1.7,12.67-2.49,24.59,3.89,32.79.88,1.13,3.86,4.7,6.25,10.29,1.89,4.42,4.54,10.59,1.84,13.58-2.38,2.64-8.27,2.05-11.85-.42-3.96-2.74-4.3-7.42-5.5-7.19-1.15.22-2.04,4.72-.42,8.46,2.1,4.84,7.46,6.21,8.04,6.35,4.8,1.14,8.69-1.88,9.31-.85.43.73-1.14,2.7-2.99,4-4.6,3.26-10.04,1.77-10.13,2.34-.11.75,9.03,5.47,16.92,2.12,7.18-3.06,10.16-11.45,11-11,.79.42-3.75,6.85-2.22,10.35,2.03,4.64,15.24,5.33,50.53-2.86" fill="none" stroke="#79142a" stroke-miterlimit="10" stroke-width="3"/>
    <path d="M212.78,154.34c-.62,3.38-1.75,7.69-3.86,12.4-1.89,4.22-4.05,7.62-5.96,10.19" fill="none" stroke="#79142a" stroke-miterlimit="10" stroke-width="3"/>
    <path d="M98.64,202.79c.26,2.4.53,8-2.41,14.12-3.4,7.1-9.01,10.54-11.06,11.67" fill="none" stroke="#79142a" stroke-miterlimit="10" stroke-width="3"/>
    <path d="M149.83,202.77c-.15,2.56-.1,7.91,2.79,13.71,3.7,7.45,9.76,10.97,11.96,12.12" fill="none" stroke="#79142a" stroke-miterlimit="10" stroke-width="3"/>
    <circle cx="103.18" cy="163.39" r=".65" fill="#79142a" stroke="#79142a" stroke-miterlimit="10" stroke-width="3"/>
  </g>
  <text transform="translate(51.22 374.65) rotate(20.6) scale(1.03 1)" fill="#f7f797" font-family="SuperFunky, &apos;Super Funky&apos;" font-size="42.98"><tspan x="0" y="0">T</tspan></text>
  <text transform="translate(85.77 387.16) rotate(7.89) scale(1.03 1)" fill="#f7f797" font-family="SuperFunky, &apos;Super Funky&apos;" font-size="42.98"><tspan x="0" y="0">R</tspan></text>
  <text transform="translate(122.04 391.24) rotate(-2.03) scale(1.03 1)" fill="#f7f797" font-family="SuperFunky, &apos;Super Funky&apos;" font-size="42.98"><tspan x="0" y="0">i</tspan></text>
  <text transform="translate(144.37 390.81) rotate(-12.28) scale(1.03 1)" fill="#f7f797" font-family="SuperFunky, &apos;Super Funky&apos;" font-size="42.98"><tspan x="0" y="0">s</tspan></text>
  <text transform="translate(180.19 382.55) rotate(-24.39) scale(1.03 1)" fill="#f7f797" font-family="SuperFunky, &apos;Super Funky&apos;" font-size="42.98"><tspan x="0" y="0">t</tspan></text>
</svg>