<?xml version="1.0" encoding="UTF-8"?>
<svg id="Layer_2" xmlns="http://www.w3.org/2000/svg" viewBox="0 0 249.77 401.32">
  <g>
    <path d="M47.47,101.73c-.36,12.11.9,21.69,1.52,25.8,1.78,11.67,4.58,20.19,5.17,21.97,4.37,13.04,10.57,31.52,28.54,44.69,17.52,12.83,36.32,13.36,42.25,13.28,6.45-.08,19.56-.41,32.78-8.87,10.93-6.99,16.41-16,18.84-20.1,1.88-3.18,5.64-10.12,9.73-36.15.3-1.92,3.99-27.17.89-57.59-.49-4.8-1.27-10.94-5.8-13.84-7.49-4.79-19.6,2.84-21.43,4.02-.22-4.09-.84-10.03-2.68-16.96-2.57-9.7-6.7-18.14-7.59-17.86-.61.2.35,4.49,2.78,20.41,1.54,10.06,1.83,12.8,0,14.99-2.07,2.47-5.11,2.16-14.24,2.76-16.7,1.11-16.85,2.83-19.66,1.59-13.2-5.78-8.1-42.72-10.84-42.88-1.2-.07-2.82,6.97-3.92,15.21-2.4,18.03-.97,31.87-1.37,31.91-.71.06-4.32-44.52-6.77-44.44-.86.03-1.2,5.56-3.57,29.02-.7,6.94-1.31,12.72-1.74,16.79-4.25,1.71-8.58,3.41-12.99,5.08-6.2,2.36-12.3,4.59-18.3,6.7-2.06-5.49-4.21-13.13-4.46-22.32-.4-14.44,4.09-24.98,4.02-25-.11-.03-10.26,21.57-11.16,51.78Z" fill="none" stroke="#79142a" stroke-miterlimit="10" stroke-width="3"/>
    <path d="M62.04,170.9c-1.35.66-3.47,1.47-6.06,1.39-6.51-.2-10.71-5.9-13.52-9.38-6.17-7.61-6.48-15.86-6.54-18.32-.06-2.66-.12-7.8,2.83-12.65.74-1.22,2.02-2.99,4.18-4.74.06-.02.12-.04.18-.06,1.31-.41,3.25-.6,5.88.38" fill="none" stroke="#79142a" stroke-miterlimit="10" stroke-width="3"/>
    <path d="M53.24,165.18c-4.26.48-7.87,3-9.33,6.62-2.12,5.26,1.03,11.03,4.96,13.39,5.35,3.2,13.82,1.09,18.32-6.15" fill="none" stroke="#79142a" stroke-miterlimit="10" stroke-width="3"/>
    <path d="M188.39,105.16c.98-1.07,3.72-3.78,7.41-3.66,6.08.19,9.39,7.9,10.12,9.44,3.56,7.54,1.41,15.4.12,20.15-.96,3.52-3.68,13.48-11.3,16.91-2.44,1.1-4.67,1.29-6.12,1.13l-2.32-.26" fill="none" stroke="#79142a" stroke-miterlimit="10" stroke-width="3"/>
    <path d="M193.17,140.53c1.4-.54,4.57-1.51,7.47-.14,5.39,2.55,7.75,12.2,2.96,17.33-3.67,3.93-10.22,3.96-14.37,1.27-2.03-1.31-3.18-3.08-3.8-4.27" fill="none" stroke="#79142a" stroke-miterlimit="10" stroke-width="3"/>
    <g>
      <path d="M103.92,180.05c5.94-2.53,14.52-5.43,25.18-6.64,11.31-1.28,20.82-.19,27.36,1.07" fill="none" stroke="#79142a" stroke-miterlimit="10" stroke-width="3"/>
      <path d="M114.51,185.65c1.3.88,7.97,5.19,16.77,3.48,7.36-1.42,11.63-6.17,12.85-7.62" fill="none" stroke="#79142a" stroke-miterlimit="10" stroke-width="3"/>
      <path d="M143.19,173.55c-1-.83-8.96-7.19-19.33-4.87-7.26,1.62-11.41,6.54-12.64,8.12" fill="none" stroke="#79142a" stroke-miterlimit="10" stroke-width="3"/>
    </g>
    <path d="M115.88,128.6c-.2,2.92-.65,7.44-1.84,12.87-1.37,6.26-2.64,8.77-1.36,10.64.92,1.35,3.77,3.26,14.84.39" fill="none" stroke="#79142a" stroke-miterlimit="10" stroke-width="3"/>
    <ellipse cx="89.99" cy="127.19" rx="6.43" ry="8.47" transform="translate(-18.73 15.59) rotate(-8.97)" fill="#79142a" stroke="#79142a" stroke-miterlimit="10" stroke-width="3"/>
    <path d="M156.04,116.47c.73,4.62-1.52,8.81-5.04,9.37-3.51.55-6.95-2.74-7.68-7.36-.73-4.62,1.52-8.81,5.04-9.37,3.51-.55,6.95,2.74,7.68,7.36Z" fill="#79142a" stroke="#79142a" stroke-miterlimit="10" stroke-width="3"/>
    <path d="M73.59,123.69c2.22-1.74,7.19-5.15,14.4-6.13,5.34-.72,9.71.18,12.26.92" fill="none" stroke="#79142a" stroke-miterlimit="10" stroke-width="3"/>
    <path d="M136.41,113.58c1.24-1.31,5.07-5,11.34-6.13,6.75-1.22,11.95,1.33,13.48,2.14" fill="none" stroke="#79142a" stroke-miterlimit="10" stroke-width="3"/>
    <path d="M66.91,105.69c2.67.36,7.32.67,12.99-.6,6.04-1.34,10.42-3.84,12.76-5.38" fill="none" stroke="#79142a" stroke-miterlimit="10" stroke-width="3"/>
    <path d="M136.93,91.57c2.32,1.41,6.49,3.56,12.21,4.59,6.09,1.1,11.1.4,13.85-.16" fill="none" stroke="#79142a" stroke-miterlimit="10" stroke-width="3"/>
    <path d="M248.24,287.29c-6.04-12.28-17.15-30.07-35.41-41-10.56-6.32-25.56-11.58-28.42-12.58-7.15-2.51-11.81-6.62-17.7-5.12-5.12,1.3-6.37,4.96-11.18,9.32-13.04,11.81-31.85,10.32-32.61,10.25-13.27-1.24-23.98-9.43-27.49-12.11-5.71-4.37-6.18-6.35-10.25-7.45-5.62-1.53-10.5.67-26.09,8.39-11.24,5.56-16.85,8.34-17.7,8.85-18.02,10.88-29.9,28.05-36.34,39.14,5.49,6.96,47.16,57.95,119.14,59.52,74.26,1.61,118.75-50.72,124.06-57.19Z" fill="none" stroke="#79142a" stroke-miterlimit="10" stroke-width="3"/>
    <path d="M76.08,244.14l13.9-12.77-13.9,12.77Z" fill="none" stroke="#79142a" stroke-miterlimit="10" stroke-width="3"/>
    <path d="M89.99,253.46l10.27-13.95-10.27,13.95Z" fill="none" stroke="#79142a" stroke-miterlimit="10" stroke-width="3"/>
    <path d="M103.84,262.52l7.38-16.03-7.38,16.03Z" fill="none" stroke="#79142a" stroke-miterlimit="10" stroke-width="3"/>
    <path d="M122.16,266.66l.75-18.5-.75,18.5Z" fill="none" stroke="#79142a" stroke-miterlimit="10" stroke-width="3"/>
    <path d="M138.21,266.66l-2.07-18.5,2.07,18.5Z" fill="none" stroke="#79142a" stroke-miterlimit="10" stroke-width="3"/>
    <path d="M153.05,259.93l-6.3-15.79,6.3,15.79Z" fill="none" stroke="#79142a" stroke-miterlimit="10" stroke-width="3"/>
    <path d="M169.79,250.35l-14.26-12.44,14.26,12.44Z" fill="none" stroke="#79142a" stroke-miterlimit="10" stroke-width="3"/>
    <path d="M178.59,242.07l-14.24-10.7,14.24,10.7Z" fill="none" stroke="#79142a" stroke-miterlimit="10" stroke-width="3"/>
    <path d="M176.57,178.5c6.65,1.12,19.17,2.16,32.18-3.78,3.92-1.79,9.57-4.37,14.31-10.14,8.53-10.38,7.8-23.34,9.03-23.2.92.1,1.36,7.36.42,15.2-1.06,8.8-3.35,13.95-2.64,14.26.89.39,6.07-7.17,9.21-15.9,1.92-5.33,5.2-16.96,1.35-38-1.3-7.13-4.95-22.18-16.67-44.46-11.11-21.12-22.19-42.2-46.13-56.69-8.68-5.26-23.16-14.02-41.12-12.78-4.66.32-5.44,1.03-25.01,4.45-21.98,3.84-21.67,3.06-26.12,4.45-16.32,5.09-26.06,17.27-34.46,27.79-9.37,11.73-13.66,21.9-22.23,42.24-10.42,24.72-13.21,39.12-14.45,48.35-1.7,12.67-2.49,24.59,3.89,32.79.88,1.13,3.86,4.7,6.25,10.29,1.89,4.42,4.54,10.59,1.84,13.58-2.38,2.64-8.27,2.05-11.85-.42-3.96-2.74-4.3-7.42-5.5-7.19-1.15.22-2.04,4.72-.42,8.46,2.1,4.84,7.46,6.21,8.04,6.35,4.8,1.14,8.69-1.88,9.31-.85.43.73-1.14,2.7-2.99,4-4.6,3.26-10.04,1.77-10.13,2.34-.11.75,9.03,5.47,16.92,2.12,7.18-3.06,10.16-11.45,11-11,.79.42-3.75,6.85-2.22,10.35,2.03,4.64,15.24,5.33,50.53-2.86" fill="none" stroke="#79142a" stroke-miterlimit="10" stroke-width="3"/>
    <path d="M212.78,154.34c-.62,3.38-1.75,7.69-3.86,12.4-1.89,4.22-4.05,7.62-5.96,10.19" fill="none" stroke="#79142a" stroke-miterlimit="10" stroke-width="3"/>
    <path d="M98.64,202.79c.26,2.4.53,8-2.41,14.12-3.4,7.1-9.01,10.54-11.06,11.67" fill="none" stroke="#79142a" stroke-miterlimit="10" stroke-width="3"/>
    <path d="M149.83,202.77c-.15,2.56-.1,7.91,2.79,13.71,3.7,7.45,9.76,10.97,11.96,12.12" fill="none" stroke="#79142a" stroke-miterlimit="10" stroke-width="3"/>
    <circle cx="103.18" cy="163.39" r=".65" fill="#79142a" stroke="#79142a" stroke-miterlimit="10" stroke-width="3"/>
  </g>
  <g>
    <path d="M74.61,345.96c.78.34,1.65.74,2.6,1.18.95.44,1.89.93,2.83,1.44.93.52,1.82,1.08,2.65,1.69.83.61,1.53,1.26,2.1,1.95.69.86,1.1,1.67,1.23,2.44.13.76-.01,1.64-.45,2.64-.49,1.13-1.12,1.97-1.89,2.51s-1.79.53-3.06-.02c-.6-.26-1.08-.57-1.46-.92-.38-.35-.71-.71-.99-1.06-.28-.36-.55-.69-.82-.99-.27-.31-.59-.54-.97-.71-.32-.14-.64-.14-.94,0-.3.14-.58.34-.85.62-.26.28-.5.6-.72.98-.21.38-.39.74-.54,1.08-.69,1.58-1.1,3.22-1.23,4.93-.13,1.71-.21,3.44-.23,5.2-.02,1.76-.1,3.49-.23,5.2-.13,1.71-.54,3.34-1.21,4.89-.55,1.26-1.29,2.25-2.21,2.97-.93.72-1.95,1.21-3.08,1.47-1.13.26-2.31.3-3.53.13-1.23-.18-2.42-.52-3.59-1.02-1.16-.51-2.24-1.15-3.21-1.94-.98-.79-1.76-1.68-2.36-2.69-.59-1.01-.95-2.1-1.06-3.28-.12-1.18.09-2.4.61-3.67l.07-.16c.67-1.55,1.58-2.95,2.72-4.2,1.14-1.25,2.34-2.48,3.59-3.69,1.25-1.21,2.45-2.44,3.6-3.71,1.15-1.27,2.06-2.67,2.73-4.22.19-.45.39-.88.59-1.29.2-.41.33-.81.4-1.19.07-.38.02-.72-.16-1.03-.17-.31-.53-.58-1.07-.82-.43-.19-.87-.29-1.32-.29-.45,0-.91,0-1.39.03-.48.03-.95.03-1.43.01-.48-.02-.96-.14-1.44-.35-1.14-.5-1.9-1.19-2.28-2.09-.38-.9-.32-1.93.18-3.08.43-1,1.09-1.7,1.95-2.1.87-.4,1.84-.61,2.93-.62,1.08-.01,2.25.13,3.49.42,1.24.29,2.45.64,3.63,1.04,1.18.4,2.28.83,3.31,1.28,1.03.45,1.87.81,2.52,1.1Z" fill="#f7f797"/>
    <path d="M102.13,375.4c-.06.31.15.76.62,1.34.47.59,1.07,1.26,1.8,2.03.73.77,1.52,1.61,2.38,2.53.86.92,1.63,1.87,2.32,2.85.69.98,1.22,1.97,1.62,2.98s.5,1.99.32,2.95c-.17.9-.56,1.71-1.16,2.43-.6.72-1.32,1.32-2.15,1.8-.83.48-1.72.82-2.68,1.02-.96.2-1.87.21-2.74.05-.55-.11-1.1-.25-1.66-.43-.55-.18-1.06-.42-1.53-.71-.47-.29-.88-.65-1.24-1.07-.36-.42-.63-.92-.82-1.51-.18-.5-.27-1.21-.3-2.11s-.02-1.89,0-2.95c.02-1.06.05-2.16.09-3.29.04-1.13.01-2.16-.06-3.1-.08-.93-.23-1.71-.45-2.34-.23-.63-.59-.99-1.08-1.08-.49-.09-.95,0-1.36.27-.41.27-.66.65-.76,1.12-.15.79-.1,1.56.14,2.32.24.76.52,1.52.83,2.26.31.74.58,1.5.83,2.28.24.78.28,1.59.12,2.43-.19.98-.6,1.86-1.25,2.63-.64.77-1.41,1.39-2.29,1.86-.89.47-1.85.79-2.89.96-1.04.17-2.04.16-2.99-.03-2.18-.42-3.84-1.25-4.98-2.5-1.14-1.25-1.54-2.94-1.2-5.06l.06-.34c.18-.93.5-1.81.98-2.64.47-.83.98-1.64,1.51-2.45.53-.8,1.03-1.62,1.51-2.45s.8-1.71.98-2.64c.24-1.24.33-2.47.28-3.69-.05-1.22-.14-2.45-.27-3.68-.13-1.23-.21-2.47-.26-3.7-.05-1.23.04-2.47.28-3.71.27-1.41.8-2.64,1.61-3.7.8-1.06,1.76-1.92,2.88-2.58s2.35-1.1,3.7-1.33c1.35-.22,2.72-.2,4.11.06,1.83.35,3.61.97,5.35,1.87,1.74.9,3.23,2.02,4.48,3.35,1.25,1.33,2.18,2.86,2.8,4.58.62,1.72.73,3.6.35,5.62-.29,1.52-.85,2.69-1.66,3.51-.82.82-1.68,1.46-2.58,1.91-.9.46-1.7.81-2.41,1.07-.71.26-1.1.58-1.18.98ZM94.4,366.31c-.06.34-.12.76-.17,1.26-.05.5-.05.98.02,1.45.06.46.21.88.44,1.24.23.36.59.59,1.09.69.38.07.78.01,1.21-.19.43-.2.84-.46,1.23-.79.39-.33.74-.7,1.03-1.12s.47-.8.54-1.17c.07-.39.07-.79-.02-1.19-.09-.4-.25-.76-.47-1.1-.22-.33-.5-.62-.83-.86s-.68-.39-1.06-.47c-.75-.14-1.41.03-1.97.52-.56.49-.9,1.06-1.03,1.71Z" fill="#f7f797"/>
    <path d="M124.2,356.18c2.1.03,3.73.5,4.9,1.39,1.17.89,1.74,2.11,1.71,3.66-.01.77-.14,1.65-.4,2.62-.25.97-.52,2.01-.8,3.1-.28,1.1-.55,2.25-.81,3.45-.26,1.2-.39,2.43-.41,3.69-.02,1.38.2,2.64.67,3.79.47,1.15.99,2.29,1.56,3.42.57,1.13,1.09,2.28,1.56,3.46.47,1.18.71,2.49.71,3.92v.21c-.11,6.73-3.15,10.05-9.11,9.96-2.63-.04-4.69-.71-6.19-2.01-1.5-1.3-2.28-3.08-2.33-5.35v-.34c.03-1.26.24-2.4.66-3.43s.86-2.07,1.33-3.14c.47-1.07.92-2.21,1.34-3.44s.64-2.67.67-4.33c.02-1.52-.12-2.86-.42-4.03-.31-1.16-.65-2.25-1.03-3.26-.38-1.01-.74-2.01-1.06-3-.32-.99-.48-2.09-.46-3.3.04-2.29.74-4.05,2.1-5.27,1.36-1.23,3.3-1.82,5.81-1.78Z" fill="#f7f797"/>
    <path d="M147.33,355.39c.76-.12,1.63-.24,2.62-.34.99-.1,2.02-.16,3.09-.18,1.08-.02,2.14.04,3.19.17s2.02.38,2.88.75,1.6.87,2.2,1.51c.6.64.98,1.46,1.14,2.45.23,1.41.13,2.5-.29,3.27-.43.77-1.4,1.28-2.91,1.52-.7.12-1.37.12-2.02,0s-1.29-.25-1.93-.4c-.64-.16-1.28-.29-1.93-.4-.65-.11-1.32-.11-2.02,0-.67.11-1.25.39-1.73.83-.48.44-.67.97-.57,1.6.09.54.6.98,1.54,1.31.94.34,2.1.66,3.48.97,1.38.31,2.88.65,4.48,1.03,1.6.38,3.13.89,4.57,1.56s2.69,1.52,3.74,2.56c1.05,1.05,1.72,2.37,1.98,3.99.42,2.55.35,4.84-.22,6.87-.56,2.04-1.56,3.81-2.99,5.31-1.43,1.5-3.25,2.74-5.45,3.73-2.2.99-4.73,1.72-7.59,2.19-1.81.3-3.61.27-5.4-.07-1.79-.34-3.44-.97-4.94-1.89s-2.77-2.08-3.81-3.49-1.71-3.02-2.01-4.83c-.13-.76-.14-1.57-.04-2.41.1-.84.33-1.64.69-2.38.36-.74.85-1.37,1.48-1.9s1.4-.86,2.3-1.01c.87-.14,1.74-.11,2.6.12.86.22,1.72.48,2.57.77.86.3,1.73.55,2.62.77.89.22,1.78.25,2.69.1,1.34-.22,1.95-.71,1.82-1.48-.09-.54-.55-.97-1.38-1.3-.83-.33-1.87-.65-3.1-.97-1.24-.32-2.57-.68-3.99-1.08-1.43-.4-2.79-.94-4.08-1.61-1.29-.67-2.42-1.53-3.37-2.58-.95-1.05-1.56-2.36-1.82-3.95-.15-.93-.09-1.84.2-2.71.29-.88.74-1.7,1.34-2.49.6-.78,1.33-1.5,2.18-2.17.85-.66,1.74-1.24,2.68-1.75.93-.5,1.87-.92,2.82-1.27.95-.34,1.83-.58,2.64-.72Z" fill="#f7f797"/>
    <path d="M176.93,346.72c.8-.31,1.69-.65,2.68-1.01.99-.36,1.99-.68,3.02-.98,1.03-.29,2.05-.52,3.07-.67,1.02-.15,1.97-.19,2.86-.11,1.1.12,1.96.41,2.6.85.63.44,1.15,1.17,1.55,2.18.45,1.15.6,2.18.44,3.11-.16.93-.89,1.64-2.18,2.15-.6.24-1.17.37-1.68.38-.52.02-1,0-1.45-.05-.45-.05-.88-.09-1.28-.12-.41-.02-.8.04-1.19.19-.33.13-.55.35-.67.66-.12.31-.17.65-.16,1.03,0,.38.07.78.19,1.2.12.42.24.8.38,1.14.63,1.6,1.5,3.05,2.61,4.35,1.11,1.3,2.28,2.58,3.51,3.84,1.22,1.26,2.39,2.54,3.51,3.84,1.11,1.3,1.98,2.74,2.6,4.31.5,1.28.68,2.5.54,3.67-.14,1.17-.52,2.24-1.14,3.22-.61.98-1.42,1.84-2.41,2.59-.99.74-2.08,1.35-3.26,1.81-1.18.46-2.4.77-3.64.9-1.25.14-2.44.06-3.57-.24-1.13-.29-2.15-.82-3.07-1.57-.91-.75-1.64-1.76-2.17-3.03l-.06-.16c-.62-1.57-.97-3.21-1.05-4.9-.08-1.69-.1-3.41-.07-5.15.03-1.74,0-3.46-.08-5.16-.08-1.71-.43-3.35-1.05-4.92-.18-.45-.34-.9-.5-1.33s-.34-.81-.56-1.12c-.22-.31-.5-.52-.84-.62-.34-.1-.78-.04-1.33.18-.44.17-.82.42-1.14.73s-.64.65-.96,1c-.32.36-.65.7-1,1.02-.35.32-.77.58-1.27.77-1.15.45-2.19.5-3.09.13-.91-.37-1.59-1.14-2.05-2.31-.4-1.01-.43-1.97-.1-2.87.33-.9.87-1.74,1.63-2.51.76-.77,1.68-1.5,2.76-2.17,1.08-.67,2.19-1.28,3.3-1.83s2.2-1.03,3.24-1.44c1.04-.41,1.9-.75,2.56-1.01Z" fill="#f7f797"/>
  </g>
</svg>