<?xml version="1.0" encoding="UTF-8"?>
<svg xmlns="http://www.w3.org/2000/svg" viewBox="0 0 2476.5 12505.18">
  <g id="Lag_1">
    <circle cx="2932.24" cy="6057.44" r="473.06" fill="#ba888d"/>
    <circle cx="2931.65" cy="5010.3" r="473.06" fill="#ba888d"/>
    <circle cx="2931.65" cy="7104.59" r="473.06" fill="#ba888d"/>
    <circle cx="2931.65" cy="8151.74" r="473.06" fill="#ba888d"/>
    <g>
      <text transform="translate(2535.33 3438.07) rotate(-46.21) scale(1.03 1)" fill="#f2ed98" font-family="SuperFunky, &apos;Super Funky&apos;" font-size="84.37"><tspan x="0" y="0">H</tspan></text>
      <text transform="translate(2579.56 3391.6) rotate(-36.9) scale(1.03 1)" fill="#f2ed98" font-family="SuperFunky, &apos;Super Funky&apos;" font-size="84.37"><tspan x="0" y="0">O</tspan></text>
      <text transform="translate(2630.93 3351.91) rotate(-26.46) scale(1.03 1)" fill="#f2ed98" font-family="SuperFunky, &apos;Super Funky&apos;" font-size="84.37"><tspan x="0" y="0">M</tspan></text>
      <text transform="translate(2702.03 3316.99) rotate(-15.96) scale(1.03 1)" fill="#f2ed98" font-family="SuperFunky, &apos;Super Funky&apos;" font-size="84.37"><tspan x="0" y="0">O</tspan></text>
      <text transform="translate(2764.55 3298.99) rotate(-6.62) scale(1.03 1)" fill="#f2ed98" font-family="SuperFunky, &apos;Super Funky&apos;" font-size="84.37"><tspan x="0" y="0">N</tspan></text>
      <text transform="translate(2827.79 3292.26) rotate(.93) scale(1.03 1)" fill="#f2ed98" font-family="SuperFunky, &apos;Super Funky&apos;" font-size="84.37"><tspan x="0" y="0">-</tspan></text>
      <text transform="translate(2866.5 3291.88) rotate(8.07) scale(1.03 1)" fill="#f2ed98" font-family="SuperFunky, &apos;Super Funky&apos;" font-size="84.37"><tspan x="0" y="0">n</tspan></text>
      <text transform="translate(2929.43 3301.6) rotate(15.25) scale(1.03 1)" fill="#f2ed98" font-family="SuperFunky, &apos;Super Funky&apos;" font-size="84.37"><tspan x="0" y="0">i</tspan></text>
      <text transform="translate(2963.31 3309.57) rotate(22.75) scale(1.03 1)" fill="#f2ed98" font-family="SuperFunky, &apos;Super Funky&apos;" font-size="84.37"><tspan x="0" y="0">v</tspan></text>
      <text transform="translate(3022.74 3334.47) rotate(31.39) scale(1.03 1)" fill="#f2ed98" font-family="SuperFunky, &apos;Super Funky&apos;" font-size="84.37"><tspan x="0" y="0">e</tspan></text>
      <text transform="translate(3072.34 3363.43) rotate(41.21) scale(1.03 1)" fill="#f2ed98" font-family="SuperFunky, &apos;Super Funky&apos;" font-size="84.37"><tspan x="0" y="0">a</tspan></text>
      <text transform="translate(3131.14 3415.56) rotate(51.38) scale(1.03 1)" fill="#f2ed98" font-family="SuperFunky, &apos;Super Funky&apos;" font-size="84.37"><tspan x="0" y="0">u</tspan></text>
    </g>
  </g>
  <g id="Layer_2">
    <text transform="translate(2085.29 -452.38) rotate(-52.39)" fill="#bb8a8d" font-family="SuperFunky, &apos;Super Funky&apos;" font-size="266.4"><tspan x="0" y="0">M</tspan></text>
    <text transform="translate(2239.61 -644.98) rotate(-38.19)" fill="#bb8a8d" font-family="SuperFunky, &apos;Super Funky&apos;" font-size="266.4"><tspan x="0" y="0">E</tspan></text>
    <text transform="translate(2382.59 -757.98) rotate(-27.7)" fill="#bb8a8d" font-family="SuperFunky, &apos;Super Funky&apos;" font-size="266.4"><tspan x="0" y="0">N</tspan></text>
    <text transform="translate(2560.46 -851.04) rotate(-18.1)" fill="#bb8a8d" font-family="SuperFunky, &apos;Super Funky&apos;" font-size="266.4"><tspan x="0" y="0">S</tspan></text>
    <text transform="translate(2746.9 -911.94) rotate(-9.83)" fill="#bb8a8d" font-family="SuperFunky, &apos;Super Funky&apos;" font-size="266.4"><tspan x="0" y="0">T</tspan></text>
    <text transform="translate(2938.81 -945.18) rotate(-1.86)" fill="#bb8a8d" font-family="SuperFunky, &apos;Super Funky&apos;" font-size="266.4"><tspan x="0" y="0">R</tspan></text>
    <text transform="translate(3124.66 -952.13) rotate(5.5)" fill="#bb8a8d" font-family="SuperFunky, &apos;Super Funky&apos;" font-size="266.4"><tspan x="0" y="0">U</tspan></text>
    <text transform="translate(3323.79 -935.19) rotate(14.84)" fill="#bb8a8d" font-family="SuperFunky, &apos;Super Funky&apos;" font-size="266.4"><tspan x="0" y="0">A</tspan></text>
    <text transform="translate(3538.27 -878.57) rotate(23.7)" fill="#bb8a8d" font-family="SuperFunky, &apos;Super Funky&apos;" font-size="266.4"><tspan x="0" y="0">T</tspan></text>
    <text transform="translate(3715.41 -797.91) rotate(31.52)" fill="#bb8a8d" font-family="SuperFunky, &apos;Super Funky&apos;" font-size="266.4"><tspan x="0" y="0">I</tspan></text>
    <text transform="translate(3813.5 -742.54) rotate(40.72)" fill="#bb8a8d" font-family="SuperFunky, &apos;Super Funky&apos;" font-size="266.4"><tspan x="0" y="0">O</tspan></text>
    <text transform="translate(3968.25 -610.51) rotate(54.56)" fill="#bb8a8d" font-family="SuperFunky, &apos;Super Funky&apos;" font-size="266.4"><tspan x="0" y="0">N</tspan></text>
    <text transform="translate(769.42 10261.6)" fill="#1d1d1b" font-family="MyriadPro-Regular, &apos;Myriad Pro&apos;" font-size="49.48"><tspan x="0" y="0" letter-spacing="0em">M</tspan><tspan x="40.08" y="0">enstru</tspan><tspan x="171.73" y="0" letter-spacing="0em">a</tspan><tspan x="195.38" y="0">tion</tspan></text>
    <path d="M2196.55,10856.25h-55.15c-130.27,0-235.88-102.41-235.88-228.74v-6047.45c0-10.03-.59-19.93-1.69-29.68v-2306.52c0-232.2-115.84-451.27-313.62-593.08l-160.65-115.19c-37.46-26.86-59.4-68.35-59.4-112.32v-359.21c0-.47.03-.94.09-1.41.6-4.63,1.34-9.23,1.36-13.89.18-31.5.54-63.02,0-94.51-.68-39.27,3.26-78.08,11.99-116.47,13.27-58.38,37.91-112.15,74.93-161.11,11.76-15.55,25.04-29.96,36.73-45.52,30.3-40.33,47.36-86,62.44-132.53,10.19-31.44,16.04-63.97,29.31-94.67,23.39-54.12,63.2-92.99,121.46-114.7,46.77-17.43,94.84-30.63,144.84-38.21,47.39-7.17,94.79-12.29,142.79-10.84,11.63.35,23.21,1.21,34.62,2.99,55.18,8.61,73.58,74.15,30,106.77-.24.18-.48.36-.72.54-28.03,20.87-61.39,32.15-94.45,44.01-19.12,6.85-37.47,5.95-56.05-.82-28.54-10.41-53.02-26.52-75.09-46.03-8.39-7.42-16.71-14.86-26.84-20.32-22.66-12.22-46.93-9.51-65.36,7.26-2.39,2.17-5.22,3.91-8.28,5.14-14.94,6.02-25.27,16.99-31.5,30.14-13.79,29.1-22.01,59.45-15.12,91.7.72,3.36,1.07,6.69.56,10.13-2.62,17.71-6.78,35.02-12.06,52.27-8.67,28.3-16.78,57.03-9.21,86.88,4.53,17.87,14.53,32.36,30.26,44.12,26.75,20.01,58.68,17.17,88.21,14.6,31.89-2.78,53.82-24.67,70.54-49.57,15.17-22.59,30.43-45.09,46.9-66.9,14.45-19.13,31.68-35.83,49.63-52.04,16.61-15,38.69-18.35,59.27-25.06,57.02-18.59,108.34-44.94,146.09-90.63,36.7-44.41,40.08-105.86,7.52-152.01-19.1-27.07-48.25-41.76-80.16-52.24-48.97-16.08-100.18-19-151.38-20.67-27.08-.89-54.24-.26-81.4.8-50.31,1.96-100.66-3.41-149.1-16.21-42.06-11.11-83.06-25.01-122.27-42.98-32.53-14.91-63.82-31.98-96.58-46.59C1401.17,18.44,1313.01,3.57,1222,.32c-27.72-.99-55.38.46-83.08,2.92-40.78,3.63-80.99,9.73-120.59,19.34-52.64,12.77-103.07,31.45-153.38,50.35-39.79,14.95-80.84,25.29-123.23,30.97-32.4,4.34-64.95,4.19-97.61,2.3-36.11-2.09-70.96-10.75-106.41-16.28-51.56-8.05-103.14-13.25-155.51-6.59-55.68,7.07-103.04,27.29-135.32,71.77-21.21,29.23-31.34,62.37-31.38,97.19-.05,47.46,20.8,88.17,54.59,122.91,38.83,39.92,85.92,69.36,139.42,89.79,15.47,5.91,29.13,13.5,40.78,24.98,25.14,24.78,43.97,53.41,61.81,82.83,10.15,16.74,17.22,35.47,31.73,49.48,14.04,13.54,27.45,30.15,52.54,23.47,2.62-.7,5.95.8,8.93,1.37,26.9,5.19,52.91,3.03,77.1-9.52,33.43-17.34,54.45-45.26,47.6-84.91-3.65-21.11-10.21-41.41-16.84-61.69-5.71-17.48-7.47-35.13-5.22-52.95,3.23-25.49-1.89-49.51-11.33-73.23-8.62-21.66-46.94-48.34-70.7-45.06-14.5,2-26.65,7.47-38.21,15.05-25.47,16.71-51.55,32.29-81.62,41.28-26.2,7.83-51.71,11.24-75.96-5.19-5.14-3.48-11.2-5.77-16.65-8.88-33.69-19.26-65.11-40.98-88.25-71.47-15.57-20.51-23.93-42.93-16.97-68.07,8.15-29.48,32.91-43.15,61.43-51.82,33.13-10.07,67.62-8.78,101.62-6.57,40.26,2.62,79.38,11.87,117.75,23.43,40.8,12.29,79.62,28.55,115.1,51.2,27.62,17.63,51.38,38.72,70.66,64.47,18.93,25.28,32.73,52.75,40,82.39,13.35,54.41,24.37,109.32,45.67,161.77,11.98,29.51,25.65,58.4,45.78,83.86,25.82,32.65,52.66,64.45,71.97,101.18,23.39,44.49,38.55,91.11,45.83,140.04,3.97,26.65,5.13,53.41,5.34,80.22,0,.75-.07,1.5-.21,2.24-.39,2.17-.61,4.4-.61,6.67v466.37c0,39.4-17.53,77.05-48.43,104.02l-178.15,155.49c-181.71,158.59-284.78,379.98-284.78,611.69v2253.73c-.93,8.95-1.41,18.03-1.41,27.21v6047.45c0,126.33-105.61,228.74-235.88,228.74h0c-153.97,0-279.95,122.16-279.95,271.48v1105.98c0,149.31,125.98,271.48,279.95,271.48h1916.6c153.97,0,279.95-122.16,279.95-271.48v-1105.98c0-149.31-125.98-271.48-279.95-271.48Z" fill="#b9888d"/>
  </g>
</svg>