<?xml version="1.0" encoding="UTF-8"?>
<svg id="Layer_1" xmlns="http://www.w3.org/2000/svg" viewBox="0 0 214.81 517.37">
  <defs>
    <style>
      .cls-1 {
        fill: #f7f7a3;
        stroke: #f7f7a3;
        stroke-miterlimit: 10;
        stroke-width: 4px;
      }
    </style>
  </defs>
  <path class="cls-1" d="M36.71,91.48c.21,7.61-1.36,14.76-5.32,21.33-.26.42-.69.92-.63,1.32.74,5.07-3.68,7.75-5.51,11.6-1.05,2.2-1.66,4.65-.99,6.32,1.31,3.25-.58,4.14-2.52,5.41"/>
  <path class="cls-1" d="M45.7,420.98c.91,0,.97,1.07,1.67,1.33-2.23,4.69,1.27,8.64,1.76,12.98.53,4.66,2.2,9.2,1.25,14.01-.08.43-.15.91.3,1.34,3.1,3.01,2.92,7.62,5.32,11,1.03,1.45,1.49,3.16,1.36,4.98"/>
  <path class="cls-1" d="M157.27,110.3c2.47,1,3.55,2.82,3.7,5.5.28,5.09,1.29,10.06,2.54,15.02.57,2.24,1.45,4.18,2.77,5.96,2.59,3.53,4.09,7.79,7.58,10.75,1.07.91.14,3.21,1.73,4.25"/>
  <path class="cls-1" d="M203.89,292.71c1.11,0,2.22-.06,3.33.02,1.12.08,2.2-.12,2.27-1.35.05-.95.78-2.5-1.26-2.72-.49-.05-.87-.86-1.34-1.27-2.6-2.24-3.92-1.65-5.06,1.64-.94,2.74-1.86,5.56-5.22,6.79-2.04.75-3.7,2.56-4.36,4.89-.91,3.22-3.22,5.08-5.98,6.7-3.36,1.97-6.59,4.14-10.67,4.35-.47.02-.89.83-1.34,1.28"/>
  <path class="cls-1" d="M175.25,314.7c-.81.2-1.66-.81-1.95-.6-4.38,3.18-9.71,1.2-14.37,2.74-2.26.75-11.08.65-13.65.23-.96-.16-2.12.53-2.96.22-1.97-.73-2.13-2.69-.69-5.59"/>
  <path class="cls-1" d="M193.57,180.77c.5.97.5,2.04,1.26,3.05,3.29,4.39,5.15,9.34,5.08,14.94-.04,3.15,3.5,6.28,6.64,6"/>
  <path class="cls-1" d="M15.4,176.77c-2.54-.64-4.15.68-5.31,2.68-1.02,1.77.06,3.8-.57,5.62,1.22.97,2.18-.03,3.22-.3"/>
  <path class="cls-1" d="M176.25,152.61c2.58.39,2.78,2.84,3.6,4.53,2.52,5.19,6.3,9.41,10.11,13.58,1.9,2.09,1.55,4.88,2.82,7,1.08.48,2.19-.4,3.12.37"/>
  <path class="cls-1" d="M57.36,1.52c-.3.59-1.56.25-1.33,1.33.86,4.08-2.12,7.07-3.09,10.64-.76,2.79-1.5,5.79-4.54,7.41-1.52.81-.83,2.71-.58,3.91.28,1.34.54,2.65.55,4.02"/>
  <path class="cls-1" d="M72.01,81.48c-2.96,1.1-5.15,3.51-8.3,4.42-3.01.87-5.9,1.63-9.02.92-.77-.18-1.12.2-1,.99"/>
  <path class="cls-1" d="M24.06,356.35c.53.47,1.26.34,1.78,1.27,1.01,1.8,2.5,3.48,4.88,3.73"/>
  <path class="cls-1" d="M131.29,322.7c-.89-.2-1.79-.4-3.14-.7-1.22,3.43-4.9,5.05-6.76,8.57-1.08,2.05-4.52,3.29-7.13,3.92-1.34.33-2.81,1.07-3.14,1.62-1.84,3.08-5.09,3.11-7.83,3.8-2.75.69-4.3,3.01-6.9,3.95-2.56.92-4.82,2.64-7.71,1.8-1.77-.51-2.06,1.47-3.34,1.69"/>
  <path class="cls-1" d="M134.62,501.27c2.42.5,4.7,1.03,2.72,4.36-.25.41-.18,1.26.24,1.99,1.86,3.27.78,6.85.87,10.3"/>
  <path class="cls-1" d="M39.38,31.51c-2.36,2.31-4.06,5.27-7.31,6.71-2.59,1.15-.58,3.53-1.02,5.29"/>
  <path class="cls-1" d="M192.57,462.63c-1.55.8-1.47-2.08-3.29-1.05-.04.11-.48.7-.33,1.03,1.21,2.57,2.56,5.07,2.7,8.01,0,.13.49,1.81,1.59.67"/>
  <path class="cls-1" d="M16.73,160.78c.51,1.42-1.02,1.92-1.43,2.96-1,2.48-.79,3.95,2.1,4.37"/>
  <path class="cls-1" d="M60.02,489.95c.82.63,1.79.42,2.66.3,3.74-.48,5,.21,5.64,3.7.88,4.88,2.99,9.11,5.98,13.02.98,1.28,1.77,2.75,1.11,4.66-.38,1.09-.07,2.42-.07,3.64h3.33"/>
  <path class="cls-1" d="M15.06,73.15c3.53,5.28,8.79,8.02,14.68,9.56,1.75.46,3.04,1.57,4.56,2.26,2.08.94,3.89,1.57,6.06.84.23-.08.59-.37.65-.31,3.78,3.64,8.19,1.27,12.34,1.31"/>
  <path class="cls-1" d="M208.89,320.7c1.55,2.48-.58,4.88.08,7.37-2.33-.11-4.26,1.3-6.41.62"/>
  <path class="cls-1" d="M190.24,489.28c-1.23,1.55-1.91,3.12.35,4.3.88.46.83,1.48.61,1.64-5.29,3.79-.44,6.43,1.1,9.35.35.65.04,1.17.27,1.7"/>
  <path class="cls-1" d="M133.96,352.35c1.91.17,2.23,2.1,1.88,2.95-1.24,3.01-.68,5.84.16,8.7.22.75.45,1.35-.03,2.01h-4.67"/>
  <path class="cls-1" d="M143.95,257.4c1.22-1.95,2.44.36,3.66,0,1.24,2.37.23,4.51-.67,6.66"/>
  <path class="cls-1" d="M144.95,252.06c2.13,1.03,4.05,2.16,2.33,5"/>
  <path class="cls-1" d="M203.56,406.99c-1.8,0-1.28,2.07-2.34,2.64-1.42.77-2.24,2.42-3.98,2.69"/>
  <path class="cls-1" d="M146.28,319.03c-.19,2.03-.78,3.85-2.29,5.37-.53.53-.96.06-1.37.29"/>
  <path class="cls-1" d="M131.29,415.32c2.18-.09,1.12,2.15,2.18,3.16,1.81,1.74,4.11.95,5.82,2.17"/>
  <path class="cls-1" d="M75.01,512.6c-1.89.22-3.77.44-5.66.67"/>
  <path class="cls-1" d="M203.89,422.98c-2.25-.42-2.25,2.81-4.33,2.67"/>
  <path class="cls-1" d="M130.96,364.67c.01,2.05.24,3.96,2.82,4.4.04,0,1,.95.18,1.6"/>
  <path class="cls-1" d="M130.63,463.62c.66-1.34,1.31-2.68,2.14-4.37,1.97,1.8,2.1,4.86,4.52,6.04"/>
  <path class="cls-1" d="M140.28,430.97c-.95,2.24-2.96,1.54-4.66,1.67"/>
  <path class="cls-1" d="M16.73,171.44c.25,1.75.04,2.03-1.33,1.66-.68-.19-1.33-.44-2-.66"/>
  <path class="cls-1" d="M139.62,234.07c2.68,3.74,4.13,8.06,5.64,12.33,1.03,2.89-.45,5.17-2.15,7.32"/>
  <path class="cls-1" d="M41.71,409.99c.16,3.11,1.94,5.72,2.71,8.65.65,2.5.17,4.17-2.38,5.01"/>
  <path class="cls-1" d="M192.24,456.63c-.23,1.67-.21,3.3,1,4.66"/>
  <path class="cls-1" d="M15.73,55.5c.3-1.49,2.63-3.49-1-4"/>
  <path class="cls-1" d="M137.95,361.01c-3.47-1.97-5.54.82-7.99,2.33"/>
  <path class="cls-1" d="M60.36,471.62c-1.84,1.16-1.56,3.59-3,5"/>
  <path class="cls-1" d="M45.04,30.18c-1.39,1.69-3.45.06-5,1"/>
  <path class="cls-1" d="M21.39,62.16c-.99-.15-1.99-.31-2.94-.45-.83,2.51-.1,5.21-.87,7.4-1.25,3.54-4.64,4.42-8.18,4.38"/>
  <path class="cls-1" d="M211.89,272.39c-2.66-.22-3.86.51-4.55,3.61-.72,3.22-.6,6.86-2.77,9.71"/>
  <path class="cls-1" d="M43.7,417.31h-5"/>
  <path class="cls-1" d="M141.95,506.27c-3.36.16-6.68-.23-9.99-.67"/>
  <path class="cls-1" d="M201.9,437.3c-1.69,1.93-3.68,1.02-5.67.71-.99-.15-2.37-1.32-2.99.62"/>
  <path class="cls-1" d="M58.69,482.28c1.58.88,3.3.63,5,.67"/>
  <path class="cls-1" d="M211.89,261.06c-1.74-1.13-2.14,1.1-3.77,1.39,2.59,3.2,1.04,6.59.77,9.93"/>
  <path class="cls-1" d="M41.71,412.98c-1.51.03-3.08-.19-4.33,1"/>
  <path class="cls-1" d="M49.37,428.14c-2.33.06-4.66.11-6.99.17"/>
  <path class="cls-1" d="M207.89,295.38c3.29,4.41,2.12,9.44,2,14.33"/>
  <path class="cls-1" d="M197.23,296.04c.14,1.51-.31,3.34,2,3.66"/>
  <path class="cls-1" d="M208.56,326.03c-1.57.14-3.23-.44-4.66.67"/>
  <path class="cls-1" d="M177.58,312.03c.15,1.59,2.12,2.8,1,4.66"/>
  <path class="cls-1" d="M207.89,213.42c-2.04,2.33-.58,4.48.33,6.66"/>
  <path class="cls-1" d="M17.73,148.12c1.84,2.54,1.83,2.52-.66,4.34-1,.73-1.07,1.86-1.01,2.99"/>
  <path class="cls-1" d="M133.96,439.3c-.19,1.3-.52,2.56.65,3.68,1.34,1.28.99,3.03,1.02,4.65"/>
  <path class="cls-1" d="M12.07,276.05c-.96,2.82.21,4.7,2.66,6"/>
  <path class="cls-1" d="M31.38,371c.67,2.11,1.35,4.21,1.99,6.33.4,1.32,1.25,2.6.03,4.02-.85.99-.18,2.02.31,2.98,2.19,4.29,3.05,8.89,3.91,13.61.45,2.5-1.18,4.76.09,7.04"/>
  <path class="cls-1" d="M9.4,190.1c-2.73,4.28-1.73,9.9-4.59,14.3.33.42.96,1.22,1.59,2.03"/>
  <path class="cls-1" d="M211.89,284.05c1.59,1.94,1.75,4.38,2.29,6.67.17.69.26,1.21,1.04,1.32"/>
  <path class="cls-1" d="M207.22,218.42c-.56.33-1.07.81-1.67.97-2.07.56-1.36,1.42-.33,2.36"/>
  <path class="cls-1" d="M31.38,45.5c-.29-.58-.58-1.15-.98-1.95-2.59,2.05-6.12,1.81-8.6,3.97,1,1.25,1.45,2.53,2.91,2.65"/>
  <path class="cls-1" d="M192.57,452.96c.26-2.09-.91-2.54-2.66-2.33"/>
  <path class="cls-1" d="M33.05,384c-1.11.81-2.82-1.61-3.66.67"/>
  <path class="cls-1" d="M61.02,472.29c2.38,1.13,1.49,3.53,1.94,5.35.97,3.95,1.61,7.98,2.39,11.98"/>
  <path class="cls-1" d="M206.56,229.08c1.95,1.39,1.97,3.92,3.36,5.38-.18,1.91-2.77.6-2.74,2.61.02,1.36.64,2.43,1.43,3.28.74.79.54,1.56.61,2.38"/>
  <path class="cls-1" d="M136.62,429.64c-3.21,4.23-2.63,7.05,2,9.66"/>
  <path class="cls-1" d="M201.56,422.65c-1.16-.96-1.96-2.8-4-1.67"/>
  <path class="cls-1" d="M134.62,314.7c-.14-1.74,1.17-2.48,2.27-1.88,1.12.61,2.53.15,3.4,1.21"/>
  <path class="cls-1" d="M212.55,249.4c-4.21.28-4.87,1.28-2.99,4.66.53.96,1.26,1.69.74,3.04-.32.82.6,1.51,1.58,1.63"/>
  <path class="cls-1" d="M134.62,427.98c1.27-.4,3.63,1.24,3.46-2.01-.03-.51,1.65-.55,2.54,0"/>
  <path class="cls-1" d="M147.28,302.04c.62-2.43-1.73-4.24-1.42-6.67.05-.42-1.13-.76-1.91-.66"/>
  <path class="cls-1" d="M137.62,473.95c.59,2.53.62,4.95-1.33,7"/>
  <path class="cls-1" d="M63.02,479.62c-1.17.51-2.94-1.15-3.66,1"/>
  <path class="cls-1" d="M131.29,390c1.36.21,2.97-.54,4,1"/>
  <path class="cls-1" d="M148.28,268.72c1.27,2.07.68,5.11-1.33,6.83"/>
  <path class="cls-1" d="M210.22,243.74c.19,1.09.91,2.26-.66,3.01-1.48.71-.19,1.54,0,2.32"/>
  <path class="cls-1" d="M143.28,242.4c-1.11.55-2.83-.11-3.33,1.67"/>
  <path class="cls-1" d="M18.06,77.49c-1.33.22-2.66.44-4,.67"/>
  <path class="cls-1" d="M192.24,471.95c1.21,1.73-.27,3.88.91,5.72.3.46-.37,1.65-1.58,1.63-.88-.02-1.73.25-2.33.98"/>
  <path class="cls-1" d="M49.37,438.64h-4"/>
  <path class="cls-1" d="M139.29,486.28c-1.9-.64-3.53-.44-4.31,1.67-.6,1.62-.6,2.99,1.28,4.05,1.47.83,1.55,3.95,4.36,2.6"/>
  <path class="cls-1" d="M55.36,444.63c-1.42-.97-2.65.41-4,.33"/>
  <path class="cls-1" d="M18.73,145.45c1.8-.03,1.1,2.45,2.66,2.67"/>
  <path class="cls-1" d="M136.29,412.32c1.09.8,2.7-.27,3.66,1"/>
  <path class="cls-1" d="M204.56,312.7c.33.22.64.5,1,.66q4.57,2.06,2.99,7.02c-1.33-.14-2.7.26-3.99-.35"/>
  <path class="cls-1" d="M130.29,398.32c-1.33,1.75.8,2.63,1,4"/>
  <path class="cls-1" d="M36.04,392.99l-4,1"/>
  <path class="cls-1" d="M13.4,296.71c-1.06,2.67-.62,5.16.63,7.68.76,1.53,1.94,1.72,3.36,1.65"/>
  <path class="cls-1" d="M10.73,59.16c.11.33.41.76.3.99-1.42,2.91-.09,5.79.03,8.68"/>
  <path class="cls-1" d="M135.29,474.62c-1.74-.12-2.2,1.58-3.53,2,.6,2.11,2.65,2.65,3.2,4.33"/>
  <path class="cls-1" d="M11.4,196.76c-1.04,1.23-2.42.58-3.66.67"/>
  <path class="cls-1" d="M193.9,485.28c-2.25-.67-4.77-.23-6.83-1.67"/>
  <path class="cls-1" d="M62.35,476.95c-1.22.11-2.44.22-3.66.33"/>
  <path class="cls-1" d="M201.9,205.42c.23.41-.41,1.38.32,1.27,1.79-.28,2.38,1.62,3.98,1.9.94.16,1.73,2.04-.3,2.83"/>
  <path class="cls-1" d="M11.4,287.05c1.53-.03,3.11-.14,3.42,2.33h-4.09"/>
  <path class="cls-1" d="M141.95,427.31c-1.62.09-3.48-.45-4.33,1.67"/>
  <path class="cls-1" d="M195.9,455.63c-2.45-.1-4.84,1.29-7.33.33"/>
  <path class="cls-1" d="M132.62,370.67c1.77.25,3.48.99,5.33.67"/>
  <path class="cls-1" d="M137.95,326.03c.92.63,2.23.18,3.03,1.31.67.94,1.85,1.02,2.96,1.02"/>
  <path class="cls-1" d="M209.22,338.69c-.11,1-.26,2-.32,3-.07,1.19.49.73.99.33"/>
  <path class="cls-1" d="M175.25,143.45c-1.26-.36-2.5-.41-3.66.33"/>
  <path class="cls-1" d="M133.29,459.63c.91-3.73,2.34-7.4.71-11.6,1.65.95,3.8-1.79,4.62,1.27"/>
  <path class="cls-1" d="M21.06,327.19c-1.47,1.15-3.32,1.03-5,1.5"/>
  <path class="cls-1" d="M146.28,258.06c-.1,1.45-2.36.4-2.33,2"/>
  <path class="cls-1" d="M210.55,333.36c-1.74,1-1.76,1.23-.22,3.86-1.88,2.3-4.48-.48-6.44.8"/>
  <path class="cls-1" d="M143.28,280.72q2.98,1.89,4.33,4.33"/>
  <path class="cls-1" d="M134.29,491.61c-2.95,3.09-2.95,3.17.33,4.33"/>
  <path class="cls-1" d="M137.29,492.28c1.07-.47,2.12-1.19,3.33-.33"/>
  <path class="cls-1" d="M53.36,437.3h-3.33"/>
  <path class="cls-1" d="M201.23,368.01c1.26-.92,2.48-1.76,4.02-.36.71.64,1.69.78,2.64.36"/>
  <path class="cls-1" d="M10.73,217.42c-.53,2.89-1.89,5.77,0,8.66"/>
  <path class="cls-1" d="M200.56,372c2.33,1.27.11,2.9.32,4.3,1.06,1.55,3.37.71,4.35,2.36"/>
  <path class="cls-1" d="M135.95,391.33c-1.37,1.71-3.45,1.79-5.33,2.33"/>
  <path class="cls-1" d="M137.29,513.6c-1.17.7-3.57-.38-3.33,2.33"/>
  <path class="cls-1" d="M38.71,400.66c1.42-.34,2.25.81,3.33,1.33"/>
  <path class="cls-1" d="M142.62,304.7c-.44,2.11-.89,4.22-1.33,6.33"/>
  <path class="cls-1" d="M193.24,178.44c.14,3.5,2.52,2.13,4.33,2"/>
  <path class="cls-1" d="M12.4,178.44c.61.94.98,1.91.33,3"/>
  <path class="cls-1" d="M142.95,306.37c.91-.9,1.91-1.04,3-.33"/>
  <path class="cls-1" d="M211.22,310.7c-1.55-.25-2.91-1.84-4.66-.67"/>
  <path class="cls-1" d="M205.89,341.69c2.88,1.15,3.32,2.11,2.32,5.33-.56,1.79-1.22,3.56-.08,5.42.77-.4,1.43-.74,2.09-1.09"/>
  <path class="cls-1" d="M30.05,348.02c-.97.8-2.04,1.27-3.36.93-.69-1.54,2.54-3.19.3-4.48-1.42-.82-.32-3.34-2.6-3.11"/>
  <path class="cls-1" d="M195.23,174.1c-1-.11-2-.22-3-.33"/>
  <path class="cls-1" d="M20.06,137.79c-1.68,2.52-.88,4.8,2.31,6.65.8-.27-.27-1.67,1.02-1.65"/>
  <path class="cls-1" d="M21.06,48.5c-1.06.62-1.09,1.62-1,2.67.17,2.03-.37,3.7-2.33,4.66"/>
  <path class="cls-1" d="M12.73,171.44c1.16,1.95-1.09,3.47-.67,5.33"/>
  <path class="cls-1" d="M12.4,293.38c1.4-.21,1.6.92,1.27,1.64-.76,1.68.76,1.48,1.39,2.03"/>
  <path class="cls-1" d="M203.89,363.34c-1,.11-2,.22-3,.33"/>
  <path class="cls-1" d="M193.9,480.62c-2,1.36-3.29,2.86-3.13,5.67.12,2.07.69,2.54,2.46,2.32"/>
  <path class="cls-1" d="M133.12,318.36c.51.93,1.06,1.86.83,3"/>
  <path class="cls-1" d="M36.04,376c-.93-.52-1.92-.79-3-.67"/>
  <path class="cls-1" d="M5.41,212.08c.45-.21.9-.42,1.4-.66,1.33,1.32-.08,3.25,1.03,4.48-.65,1.02-1.21.17-1.77.18"/>
  <path class="cls-1" d="M207.22,213.08c-1.65-1.03-2.04.8-3,1.33"/>
  <path class="cls-1" d="M203.23,393.33c-1.22.67-2.18,2.05-2.33,3.33"/>
  <path class="cls-1" d="M6.4,208.75c-.89.67-1.82,1.28-2.65,2.02-.58.51-.69,1.1.32,1.32"/>
  <path class="cls-1" d="M197.23,388c2.52-.91,4.48-.13,5.99,2"/>
  <path class="cls-1" d="M199.23,423.31c.11,1.78-.28,3.59.33,5.33"/>
  <path class="cls-1" d="M45.37,26.18c0,1,.24,2.08-.05,2.98-.55,1.68.53,1.31,1.38,1.35"/>
  <path class="cls-1" d="M201.9,380.67c.83.28,2.16.71,1.58,1.61-1.01,1.55.97,1.96.75,3.06"/>
  <path class="cls-1" d="M185.91,468.96c2.4,1.27,2.6,1.85.97,3.3-.6.53-.58,1.65-1.64,1.69"/>
  <path class="cls-1" d="M194.57,466.62c-.89.33-1.78.67-2.66,1"/>
  <path class="cls-1" d="M129.96,376c1.53,2.34,1.19,5.09,1.63,7.67.13.74-.67.1-.96.33"/>
  <path class="cls-1" d="M27.39,129.46c.42,2.61-2,1.55-3,2.33"/>
  <path class="cls-1" d="M50.7,24.18c-.89.11-1.78.22-2.66.33"/>
  <path class="cls-1" d="M133.96,452.63h-2.66"/>
  <path class="cls-1" d="M194.24,507.6c-1.94-2.3-2.74-.41-3.66,1"/>
  <path class="cls-1" d="M57.36,451.3c-.31,1.21-1.46,1.24-2.33,1.67"/>
  <path class="cls-1" d="M124.63,322.03c.89.22,1.78.44,2.66.67"/>
  <path class="cls-1" d="M183.91,483.95c.87.26,1.59,1.72,2.66.33"/>
  <path class="cls-1" d="M205.89,321.7c-.83.56-1.09,1.44-1.33,2.33"/>
  <path class="cls-1" d="M137.29,407.32c-2,.48-4-.96-5.99,0"/>
  <path class="cls-1" d="M194.24,450.63c.04.76.17,1.63-.68,1.98-1.77.74-1.55,1.97-.99,3.35"/>
  <path class="cls-1" d="M138.29,346.35c-.92.79-.98,1.71-.32,2.66.73,1.05,1.7.74,2.65.34"/>
  <path class="cls-1" d="M22.06,140.12c-1.55.11-3.11.22-4.66.33"/>
  <path class="cls-1" d="M135.95,441.64c1.47-1.59,2.69-.13,4,.33"/>
  <path class="cls-1" d="M142.62,246.73c.49,1.22,1.56.41,2.33.67"/>
  <path class="cls-1" d="M144.61,330.69c-.89.22-1.78.44-2.66.67"/>
  <path class="cls-1" d="M206.56,329.69c-.62,2.45-3.34,2.64-4.66,4.33"/>
  <path class="cls-1" d="M24.72,334.02c-2.33-.05-2,.83-1.46,2.7.68,2.33,1.9,5.05-.54,7.29"/>
  <path class="cls-1" d="M187.91,497.61c-.77-1.02-1.71-.74-2.66-.33"/>
  <path class="cls-1" d="M26.72,339.69c-1.79-.11-3.49-.99-5.33-.66-1.57.29-1.35-.75-1.33-1.68"/>
  <path class="cls-1" d="M208.22,262.73h-2.33"/>
  <path class="cls-1" d="M129.29,468.62c.78.33,1.55.67,2.33,1"/>
  <path class="cls-1" d="M193.24,501.27c-.78.11-1.55.22-2.33.33"/>
  <path class="cls-1" d="M66.35,500.27c-1.8,1.07.24,2.49-.33,3.66"/>
  <path class="cls-1" d="M137.29,467.29c-1.65-.35-2.55,1.34-2.52,1.99.07,2.03-1.85,1.41-2.47,2.34"/>
  <path class="cls-1" d="M141.95,324.36c-1.47-1.19-1.13.63-1.67,1"/>
  <path class="cls-1" d="M43.04,31.84c-.36.86-.77,1.74.67,2"/>
  <path class="cls-1" d="M143.95,279.38c.93.18,1.33.89,1.67,1.67"/>
  <path class="cls-1" d="M19.73,51.17c-.78-.11-1.55-.22-2.33-.33"/>
  <path class="cls-1" d="M206.56,230.41c-.69.78-.27,1.55,0,2.33"/>
  <path class="cls-1" d="M208.56,357.35c-1.47-.72-2.38-.3-2.66,1.33-.4,2.3-1.95,2.85-4,2.66"/>
  <path class="cls-1" d="M135.62,364.01h-2.33"/>
  <path class="cls-1" d="M138.62,435.31c-.78.11-1.55.22-2.33.33"/>
  <path class="cls-1" d="M12.73,286.71c-.52-3.38,1.5-2.53,3.33-2"/>
  <path class="cls-1" d="M17.06,318.7h-2.33"/>
  <path class="cls-1" d="M33.38,370.67c-1.23.05-2.29-.11-3.37-.94-1.12-.86-2.35-1.82-3.95-1.72"/>
  <path class="cls-1" d="M134.29,470.95c1.65.43,3.83-1.85,5,1"/>
  <path class="cls-1" d="M148.94,288.38c-.78-.22-1.55-.44-2.33-.67"/>
  <path class="cls-1" d="M18.73,316.03c-1.55-.98-3.11.53-4.66,0"/>
  <path class="cls-1" d="M199.23,396.99c1.32.59,2.64,1.17,4.2,1.87-1.56.82-.93,3.17-2.87,3.8"/>
  <path class="cls-1" d="M137.29,315.37c-1.88.61-3.45-1.28-5.33-.67"/>
  <path class="cls-1" d="M13.4,310.37c.55-.23,1.11-.45,1.87-.77,1.88,1.48-.34,4.39,1.79,5.76"/>
  <path class="cls-1" d="M136.62,402.66c-2.29-.51-4.54-.53-6.66.67"/>
  <path class="cls-1" d="M139.95,420.65c-1.21.16-.77,1.46-.61,1.61.77.68,1.72.61,2.61.06"/>
  <path class="cls-1" d="M185.91,312.03c-.09-1.48-1.65-.02-2-1"/>
  <path class="cls-1" d="M143.95,311.37c-1.84.29-3.54-.56-5.33-.67"/>
  <path class="cls-1" d="M9.07,186.1c-.71.53-.45,1.89-1.67,2"/>
  <path class="cls-1" d="M55.36,4.52c-.81.04-1.81-.28-2,1"/>
  <path class="cls-1" d="M205.89,222.08c.92,1.81,1.23,3.61.75,5.68-.26,1.09-.71.99-1.41.98"/>
  <path class="cls-1" d="M201.9,390.33c-1.44,1.18-2.63-.59-4-.33"/>
  <path class="cls-1" d="M138.29,336.36c.95-2.47,2.9-.62,4.33-1"/>
  <path class="cls-1" d="M133.29,484.28c.09-.22.75-.74.02-.59-.88.18-1.73.62-2.68.59"/>
  <path class="cls-1" d="M135.29,464.29c-.96.99-1.98,1.9-3.33,2.33"/>
  <path class="cls-1" d="M130.96,319.03c-.75,1.12-3.39.56-2.66,3"/>
  <path class="cls-1" d="M201.9,413.32c-.62.61.27,2.29-1.67,2.07-1.1-.12-.98,1.1-.99,1.93"/>
  <path class="cls-1" d="M204.23,209.09c-1.52,1.24-.57,2.87-.67,4.33"/>
  <path class="cls-1" d="M137.29,425.64c-.77-.65-1.62-1.07-2.66-1"/>
  <path class="cls-1" d="M206.56,234.07q-1.24,1.12.33,2.67"/>
  <path class="cls-1" d="M203.56,371c-.44.22-.89.44-1.33.67"/>
  <path class="cls-1" d="M15.06,306.04c-.22.33-.44.67-.67,1"/>
  <path class="cls-1" d="M11.07,226.74c.98.85,1.04,1.54-.33,2"/>
  <path class="cls-1" d="M24.72,50.83c.02-.89.58-1.62,1.33-1.59.64.02.77.9.67,1.59"/>
</svg>