<?xml version="1.0" encoding="UTF-8"?>
<svg id="Layer_1" xmlns="http://www.w3.org/2000/svg" viewBox="0 0 552.89 501.57">
  <defs>
    <style>
      .cls-1 {
        fill: #f7f7a3;
      }
    </style>
  </defs>
  <path class="cls-1" d="M305.88,164.11c-.89,8.61-1.65,17.02-2.65,25.4-1.32,11.09-4.12,21.78-9.05,31.86-.97,1.99-1.86,4.03-2.67,6.1-3.1,7.92-2.76,9.46,3.06,14.76-5.01,1.17-8.48-1.57-8.06-6.55.41-4.9,2-9.5,4.16-13.88,7.82-15.9,10.76-32.82,10.87-50.38.02-3.04,1.25-5.93,1.2-9.04-.13-7.44-3.24-13.69-7.49-19.48-2.95-4.03-6.12-7.89-9.12-11.89-1.07-1.43-1.88-2.24-3.44-.48-.89,1-2.32,1.51-3.39,2.39-5.11,4.18-4.71,10.81.79,14.06,10.99,6.49,14.78,16.71,8.89,28.04-9.53,18.32-12.96,38.2-16.85,58.06-1.48,7.55-.61,14.9,2.75,21.5,10.18,20.05,8.79,40.45,2.98,61.18-3.41,12.15-4.99,24.43-2.31,36.99,1.61,7.56,4.48,14.58,8.79,20.96,7.44,11,12.53,23.15,17.46,35.37,2.04,5.05,1.91,10.33.78,15.57-.96,4.48-1.78,9.02-3.19,13.35-3.2,9.84-2.08,19.36.95,28.99,2.15,6.85,4.43,13.77,2.88,21.2-.61,2.96-1.75,5.49-3.94,7.61-.8.78-3.36,1.09-.99,3.26.75.68-.94.95-1.57.78-2.02-.52-3.84-1.44-5.34-3.45,3.18-1.49,6.75-2.41,8.05-6.05,1.54-4.31,1.51-8.75.45-13.13-1.3-5.39-2.77-10.74-4.29-16.07-1.75-6.14-2.04-12.23-.45-18.48,1.78-6.99,3.29-14.04,4.82-21.09.84-3.9.37-7.76-1.08-11.45-4.73-12.01-9.88-23.8-17.16-34.57-12.64-18.67-12.94-38.98-7.41-59.91,2.63-9.94,5-19.85,4.85-30.26-.12-8.47-1.66-16.58-5.28-24.18-5.13-10.76-6.96-21.75-4.2-33.53,2.96-12.68,4.76-25.62,9.2-37.95,1.7-4.72,3.92-9.17,6.19-13.62,6.28-12.27,3.99-20.16-7.83-27.2-5.64-3.36-6.06-12.09-.83-17.37.39-.39.91-.66,1.25-1.09,1.45-1.83,5.07-1.54,5.22-4.02.12-1.97-1.63-4.02-2.44-6.08-2.03-5.21-3.1-10.62-3.27-16.23-.53-17.09-6.23-31.96-18.9-43.85-3.33-3.13-6.48-6.47-9.67-9.75-6.52-6.69-9.6-14.82-9.75-24.07-.09-5.48,2.21-9.08,7.36-10.85,13.27-4.54,26.88-6.63,40.87-4.45,2.48.39,2.48-1.07,2.82-2.49.48-2.01,1.25-4.27-1.59-5.19-1.01-.33-2.22-.29-3.29-.13-9.39,1.37-18.83.87-28.26.78-2.91-.03-5.81-.01-8.69.65-13.41,3.07-20.41,11.72-19.29,25.44,1.44,17.73,7.51,34.01,17.21,48.92,1.82,2.79,3.64,5.58,5.62,8.25,6.32,8.56,8.8,18.15,7.63,28.64-1.67,14.95.54,28.81,10.82,40.52,2.96,3.38,6.02,6.67,8.66,9.59-15.38-7.18-21.52-20.8-22.93-37.31-.31-3.7-.09-7.51.36-11.21,1.3-10.72-1.16-20.41-7.54-29.06-11.73-15.92-19.38-33.52-22.52-53.08-.88-5.46-.56-10.82.8-16.09,2.7-10.48,12.33-17.76,25.07-18.41,11.62-.59,23.28.38,34.91-.92,4.84-.54,7.2,2.74,6.59,7.78-.26,2.08-1,4.02-1.85,5.94-.59,1.34-1.27,2.04-2.84,1.52-11.32-3.71-22.45-.71-33.61,1.03-1.09.17-2.16.51-3.23.8-9.27,2.49-11.1,5.56-9.17,15.1,1.3,6.44,4.23,11.89,8.86,16.61,7.36,7.5,15.41,14.41,20.65,23.8,5.33,9.56,7.79,19.83,8.13,30.65.24,7.49,2.01,14.53,5.47,21.16.85,1.62,1.64,2.4,4.03,2.3,8.15-.34,15.47,2.7,22.13,7.21,1.46.99,2.23,1.48,3.51-.14,2.81-3.57,6.72-5.69,10.64-7.82,10.28-5.58,13.59-12.08,11.97-23.57-.96-6.76-.21-13.02,4.42-18.37,8.25-9.5,24.7-7.12,29.96,4.32,6.37,13.87,1.87,25.62-12.14,31.72-4.16,1.81-7.92,1.01-11.1-2.04-3.05-2.92-4.99-6.16-2.75-10.68,2.41-4.84,4.4-9.88,6.65-14.79.43-.93,1.04-2.33,2.41-1.63,1.28.66.66,1.87.2,2.92-2.11,4.82-4.13,9.69-6.32,14.48-1.34,2.91-.29,5.15,1.71,7.1,2.01,1.95,4.4,2.8,7.24,1.81,13.09-4.56,17.7-18.99,9.59-30.1-3.15-4.31-10.33-6.65-16.17-5.17-6.32,1.6-9.17,6.29-10.52,12.18-.56,2.45-.3,4.96-.04,7.46,1.47,13.97-2.42,21.24-14.77,27.79-4.54,2.41-6.77,4.19-9.27,7.43,10.71,6.66,19.56,15.8,29.99,22.76,9.32,6.22,15.03,14.36,16.05,25.38,1.49,16.15,9.2,29.28,19.6,40.91,10.37,11.61,15.18,24.81,14.81,40.29-.19,7.89.54,15.81.86,23.71.03.83-.11,1.73.16,2.48,1.6,4.48,3.73,8.78,3.58,13.75-.03.91.8,2.73,2.35,2.2,1.34-.46.69-1.83.33-2.89-2.06-6.03-1.25-11.98.19-18.02,3.11-13.07,7.71-25.77,9.75-39.11,1.75-11.47,0-22.05-7.44-31.38-4.91-6.16-7.77-13.39-10.08-20.85-3.63-11.78-6.37-23.89-12.07-34.94-5.67-11-13.38-20.06-25.03-25.1-2.01-.87-4.24-1.34-6.42-1.68-6.83-1.07-10.83,1.19-13.59,7.48-.55,1.24-1.02,2.52-1.61,3.97-2.04-7.02,1.7-13.03,8.93-14.32,8.86-1.58,16.25,1.9,23.14,7.06,12.85,9.62,19.42,23.14,24.05,37.99,3.62,11.62,5.95,23.71,12.25,34.38.63,1.07,1.21,2.21,2.02,3.14,10.09,11.65,11.39,25.2,8.36,39.56-2.75,13.02-7.28,25.6-9.79,38.69-.8,4.17-.78,8.25.59,12.32.35,1.03.54,2.17.51,3.25-.07,2.21-1.5,3.49-3.43,4.27-1.99.8-3.13-.55-4.21-1.81-.71-.84-1.74-1.81-1.78-2.76-.23-5.81-3.82-10.77-4.05-16.55-.36-9.01-1.12-18.03-.97-27.04.24-13.97-4.84-25.48-13.84-35.92-8.42-9.77-16.38-20.02-18.71-33.33-.86-4.91-1.75-9.83-2.77-14.71-1.34-6.38-4.63-11.46-10.06-15.22-3.64-2.52-7.14-5.29-10.53-8.14-1.8-1.52-2.78-1.27-3.73.75-1,2.13-2.02,4.26-3.2,6.3-5.53,9.63-16.22,10.53-23.38,2.04-.5-.59-.71-1.55-2.21-1.65ZM289.99,129.81c.5,2.11,1.88,3.14,2.89,4.39,4.51,5.63,9.3,11.23,11.22,18.26,1.24,4.56,3.74,8.01,6.54,11.46,5.05,6.23,13.53,5.63,17.68-1.28,1.49-2.49,2.65-5.19,4.3-7.57,1.23-1.78.59-2.66-.78-3.71-3.72-2.87-7.39-5.81-11.12-8.68-6.08-4.68-6.03-4.63-9.6,2.54-1.23,2.47-1.65,5.49-4.29,7.49-.58-4.28-.41-4.21,1.61-9.04.93-2.22,4.06-4.18,2.92-6.26-.99-1.82-4.12-2.48-6.32-3.61-4.66-2.4-9.5-4.11-15.05-4Z"/>
  <path class="cls-1" d="M152.7,131.7c-3.4-9.28-8.54-12.63-18.61-12.17-5.95.28-11.87,1.26-17.82,1.51-13.28.54-23.45-7.18-25.95-19.27-.65-3.15.03-5.82,2.35-7.96,5.54-5.11,12.61-7.41,19.36-10.28,1.58-.67,2.68.48,3.5,1.6,1.48,2.02,2.49,2.35,4.28.04,5.08-6.51,5.54-6.42,11.02-.13,3.51,4.03,6.12,8.59,7.64,13.71,2.31,7.78,7.43,11.59,15.51,11.99,9.56.47,19.1,1.2,28.64,1.95,2.11.17,2.76-.42,3.22-2.54,1.4-6.47.79-12.71-1.5-18.81-5.03-13.4-8.79-27.12-11.7-41.15-3.7-17.86-16.39-27.25-36.39-27.51-16.79-.22-31.25,6.67-44.96,15.42-6.32,4.04-12.31,8.59-19.97,9.8-.96.15-1.92.41-2.88.39-4.1-.09-7.91-.49-7.88,5.77.01,2.87-3.49,4.39-6.03,5.9,5.07,4.29,10.62,4.05,15.93-.75,4.53-4.1,9.17-8.03,14.09-11.67,8.7-6.43,18.54-8.44,29.09-7.9,4.42.23,8.76.69,13.21-.42,4.14-1.03,7.9.59,11.09,3.43,5.62,5.01,9.44,11.22,12.04,18.21,4.3,11.56,5.7,23.65,6.21,35.92-1.62-2.77-1.69-5.98-2.43-8.99-.76-3.09-1.67-6.15-2.29-9.27-1.72-8.58-3.58-17.1-8.26-24.69-1.9-3.08-4.06-5.96-6.76-8.4-3.21-2.91-6.89-4.08-11.14-2.82-2.03.61-4.09.97-6.16.6-17.13-3.06-30.97,3.25-42.96,14.95-1.39,1.36-2.78,2.72-4.27,3.96-5.9,4.95-12.73,5.37-19.24,1.24-3.05-1.93-3.26-4.29-.08-5.95,3.68-1.92,5.81-4.26,5.76-8.67-.03-2.43,2.22-3.49,4.5-3.35,10.06.65,18.05-3.96,26.05-9.33,13.74-9.22,28.5-16.08,45.53-16.38,6.29-.11,12.45.75,18.4,2.84,12.29,4.32,19.88,12.92,22.46,25.62,2.79,13.76,6.4,27.25,11.39,40.37,2.66,6.99,4.18,14.12,2.34,21.58-.64,2.61.32,3.36,2.83,3.56,5.8.46,11.6.98,16.92,3.78,10,5.28,13.66,14.98,8.77,23.49-3.87,6.71-10.32,10.07-17.28,9-6.72-1.04-13.78-7.58-15.41-14.22-1.28-5.24-.43-10.52-.12-15.75.19-3.11-.68-4.15-3.81-4.18-5.4-.06-10.81-.44-16.2-.9-3.32-.28-3.93.5-2.38,3.58,3.86,7.68,9.71,13.82,15.1,20.32,4.79,5.76,9.64,11.47,14.55,17.13,13.17,15.15,19.28,33.08,21.17,52.78,1.11,11.57.6,22.75-6.01,32.87-.3.46-.36,1.09-.7,1.5-.66.79.69,3.17-1.61,2.46-1.7-.52-1.89-2.15-1.17-3.82,2.07-4.81,5.39-9.1,6-14.53,2.63-23.29-2.32-44.81-16.22-63.72-8.45-11.49-18.07-22.12-27.09-33.19-3.43-4.21-6.37-8.79-8.04-13.99-.58-1.83-1.66-2.01-3.07-2.01-10.96.02-17.53-5.45-20.53-15.88-1.35-4.7-4.08-8.74-7.45-12.37-1.85-2-3.12-1.86-4.44.36-.28.47-.65.9-1,1.33-3.51,4.47-3.56,4.52-7.73.7-1.04-.95-1.84-1.46-3.25-.83-4.93,2.22-9.98,4.16-14.41,7.37-2.7,1.95-3.57,4.19-2.54,7.53,2.78,8.94,9.36,14.39,18.75,15.16,3.76.31,7.48-.06,11.2-.49,3.31-.38,6.62-.8,9.94-.94,12.49-.54,19.5,4.56,22.91,16.62,1.29,4.55,2.13,9.21,2.09,13.94-.02,2.22.59,2.43,2.65,2.03,10.71-2.06,17.66,1.79,21.83,11.83,1.9,4.57.99,9.56-2.22,12.22-4.65,3.85-11.86,4.54-16.76,1.51-5.55-3.44-7.93-8.66-8.32-15.01-.09-1.47.44-3.46-1.04-4.18-1.59-.77-3.17.52-4.47,1.54-9.86,7.69-20.84,12.42-33.39,13.67-8.67.87-16.65,4.08-24.03,8.75-1.64,1.04-3.3,2.1-5.07,2.85-11.02,4.66-19.27,12.52-25.49,22.5-8.22,13.2-20.17,21.06-34.8,25.36-5.94,1.75-7.22,1.5-10.92-3.42-1.64-2.18-4.5-1.92-6.61-4.04,7.3-3.57,13.57-8.81,22.11-9.11,4.32-.15,7.25-2.61,9.33-6.58,5.46-10.44,11.04-20.82,16.95-31.01,6.89-11.86,17.51-19.13,30.48-22.97,9.72-2.87,18.17-7.13,25.6-14.58,10.5-10.53,23.55-12.73,38.05-6.39ZM155.59,144.99c-.42-2.5-1.02-5.91-1.56-9.33-.18-1.11-.87-1.61-1.81-2.04-11.27-5.13-26.91-2.77-35.53,6.59-7.1,7.71-15.6,12.11-25.39,14.89-12.26,3.48-22.71,9.88-29.37,21.02-6.1,10.22-11.76,20.72-17.14,31.33-2.89,5.7-7.04,8.75-13.24,9.12-4.47.27-8.25,2.19-11.91,4.48-.65.41-1.48.66-1.25,1.83.56,2.81,3.67,4.94,6.59,4.16,14.28-3.82,26.17-11.01,34.26-23.85,6.55-10.4,15.06-18.76,26.48-23.87,2.9-1.3,5.69-2.88,8.4-4.54,6.61-4.05,13.76-6.59,21.42-7.45,10.96-1.23,21.06-4.59,30.07-11.05,2.02-1.45,3.72-3.39,6.16-4.18,3.07-.99,3.78-3.36,3.82-7.13ZM187.49,125.92c0,1.52-.01,3.04,0,4.56.06,7.57,4.2,12.4,10.74,15.31,5.8,2.58,11.34.59,15.51-5.12,3.65-5,3.55-10.44-.31-15.25-4.17-5.21-9.87-7.28-16.27-7.94q-9.28-.95-9.66,8.44ZM157.73,152.67c.95,2.59,1.24,4.74,1.39,6.97.31,4.65,2.35,8.57,6.13,11.29,3.88,2.8,8.11,2.34,12.19.35,2.66-1.29,3.94-3.65,3.39-6.51-1.54-8.03-6.44-14.28-15.92-13.47-2.31.2-4.58.85-7.18,1.36Z"/>
  <path class="cls-1" d="M162,266.32c-.81,1.35-1.55,2.75-2.46,4.04-7.7,11.03-15.44,22.03-23.15,33.05-13.28,18.98-32.23,29.08-54.08,34.7-7.66,1.97-15.34,3.75-23.27,4.22-6.97.41-13.72.05-20.35-2.88-3.83-1.69-8.31-1.98-12.52-2.75-2.12-.39-3.4,1.1-4.25,2.72-1.67,3.21-4,5.1-7.79,5.3-2.96.16-4.46,2.22-4.36,5.09.2,5.65-.88,10.6-5.41,14.62-2.41,2.14-.19,3.78,1.84,4.55,2.54.97,4.68-.37,6.31-2.15,1.86-2.04,3.41-4.36,5.11-6.55,5.81-7.51,14.11-9.99,22.51-6.42,9.48,4.02,19.22,5.07,29.3,3.22,2.34-.43,4.74-.86,7-.04,16.74,6.03,33.07,3.08,49.33-2.11,26.24-8.38,49.22-22.11,68.47-41.91,7.4-7.62,15.81-13.91,25-19.18,2.35-1.35,4.9-2.55,7.42-.86,2.28,1.54,1.61,4.26,1.57,6.55-.06,3.65-1.38,7.06-2.54,10.47-2.48,7.29-2.87,14.54-.66,22.05,2.9,9.87,1.33,19.83-.44,29.68-.58,3.22-2.89,5.64-5.26,7.82-8.64,7.97-14.13,17.79-16.49,29.24-3.09,15.04-10.3,27.64-21.24,38.31-6.6,6.43-11.96,13.87-16.03,22.15-2.82,5.74-5.82,11.32-9.8,16.37-2.25,2.85-3.84,5.88-.22,9.08,1.36,1.2.99,3.09.86,4.75-.23,2.76.95,3.91,3.7,3.34.14-.03.27-.05.41-.07q5.4-.56,4.71-6.04c-.55-4.28.93-7.96,3.55-11.17,2.82-3.46,5.99-6.73,10-8.67,16.96-8.2,29.23-21.28,39.02-36.98,7.82-12.55,17.86-22.4,31.65-28.45,9.66-4.24,15.05-16.13,12.65-27.45-3.75-17.68-3.01-35.27-.3-52.96,2.28-14.89.85-29.23-6.07-42.94-3.85-7.62-9.97-11.6-17.83-13.66-3.17-.83-5.45.66-7.28,2.87-4.86,5.87-9.57,11.88-14.39,17.78-2.64,3.24-5.54,6.23-9.29,8.21-6.57,3.46-11.94.79-12.17-6.64-.42-13.69-6.68-22.73-19.63-27.33-4.48-1.59-8.27-4.49-11.36-8.19-4.11-4.94-4.35-9.5-.72-14.83,1.72-2.52,3.49-5,4.76-7.8,2.33-5.17,2.64-10.38.8-15.79-2.83-8.34-7.09-15.93-11.77-23.34-3.4-5.39-6.21-11.05-6.8-17.59,4.66,12.16,14.03,21.55,19.17,33.5,4.97,11.55,4.63,21.94-2.99,32.08-3.78,5.04-3.41,8.29.92,12.93,3.09,3.31,6.96,5.45,11.13,7.09,12.07,4.75,18.65,13.45,19.14,26.55.04.97.1,1.94.24,2.9.65,4.43,3.37,5.92,7.43,3.9,4.21-2.09,7.06-5.75,9.96-9.28,4.31-5.25,8.22-10.81,12.8-15.86,3.79-4.18,7.9-5.36,13.4-3.47,7.75,2.67,13.45,7.2,17.26,14.58,7.89,15.28,8.58,31.34,5.96,47.86-2.59,16.31-2.81,32.54.63,48.81,2.84,13.44-3.88,26.25-16.24,31.79-11.41,5.11-19.97,13.38-26.58,23.78-8.62,13.57-18.3,26.11-31.92,35.14-5.3,3.51-11.33,5.8-16.01,10.36-4.71,4.61-7.85,9.33-4.68,16.16,1.06,2.29.02,4.43-2.32,4.89-3.23.63-6.63.87-9.91.64-3.12-.22-4.35-2.66-4.28-5.66.05-2.13-.24-3.96-1.77-5.71-2.08-2.38-1.82-5.3-.14-7.75,10.51-15.38,17.37-33.14,31.46-46.23,8.8-8.18,13.87-18.96,16.35-30.79,2.69-12.86,8.5-23.97,18.22-32.93,2.76-2.54,4.33-5.68,4.77-9.43,1.1-9.39,2.02-18.67-1.02-28.01-2.27-6.97-.62-14.02,1.54-20.85.88-2.77,2.02-5.48,2.26-8.41.12-1.48.74-3.39-.53-4.33-1.39-1.03-2.87.42-4.13,1.16-8.75,5.17-16.79,11.23-23.93,18.53-24.2,24.75-53.57,40.04-87.37,46.8-10.44,2.09-20.98,1.77-31.23-1.72-2.42-.82-4.83-.9-7.37-.46-10.76,1.89-21.22,1.03-31.37-3.34-7.21-3.1-13.77-.93-19,5.84-1.69,2.19-3.28,4.49-5.2,6.48-2.29,2.38-5.11,3.86-8.6,3.14-2.78-.58-4.78-2.22-5.77-4.87-.92-2.45.34-4.45,2.04-5.92,3.14-2.71,3.93-6.1,3.95-10.04.03-6.86,1.86-8.93,8.78-10.22,1.93-.36,2.72-1.65,3.65-3.05,3.17-4.81,4.77-5.26,10.43-4.26,5.35.94,10.48,2.44,15.62,4.15,8.18,2.72,16.52,1.02,24.7-.33,11.53-1.91,22.54-5.72,33.3-10.26,14.33-6.05,24.44-17,33.56-29.07,6.69-8.85,12.08-18.62,19.28-27.11,1.75-2.06,3.49-4.17,6.39-5.17Z"/>
  <path class="cls-1" d="M297.76,282.73c.94-2.17,1.49-3.57,2.14-4.91,8.97-18.69,33.24-20.68,45.33-3.68,8.53,12,11.03,25.57,9.86,39.94-1.17,14.41-3.55,28.64-7.89,42.46-1.85,5.89-1.03,10.8,3.49,15.2,3.8,3.7,7.76,7.02,12.61,9.34,12.97,6.2,18.72,17.09,19.51,31.03.3,5.26.77,10.52.87,15.79.17,9.19,5.09,14.89,13,18.6,3.8,1.78,7.91,2.53,11.88,3.73,5.29,1.6,6.43,3.67,5.14,8.9-1.09,4.41-1.42,8.8.55,13.04,1.05,2.27.35,3.22-1.9,3.82-3.6.97-6.83.53-9.81-1.78-.65-.51-1.48-2.23-2.18-1.12-2.87,4.52-4.02-.15-5.8-.97-.83-.38-1.63-1.19-2.06-2.01-5.96-11.15-15.84-18.46-25.62-25.73-10.29-7.65-16.1-18.54-22.28-29.2-14.01-24.14-23.22-50.29-31.62-76.75-3.78-11.91-8.33-23.51-13.13-36.13-.56,3.41.02,5.86.38,8.28,2.02,13.8,6.65,26.89,10.83,40.11,6.75,21.39,12.27,43.06,10.24,65.73-1.51,16.96-2.07,34.09-5.88,50.75-1.13,4.94-.88,8.47,2.23,12.57,5.86,7.73,1.89,18.91-7.81,21.85.89-.73,1.85-1.39,2.65-2.2,5.53-5.64,6.16-13.25,1.48-19.58-2.58-3.48-3.4-6.89-1.97-11.24,3.18-9.72,2.75-20.01,4.07-30.03,2.39-18.08,3.62-36.14.36-54.26-2.76-15.34-7.54-30.1-12.25-44.9-4.72-14.84-8.68-29.83-7.86-45.67.21-4.16.65-7.84-2.01-12.33-5.15-8.67-6.59-19.02-7.71-29.13-.3-2.67.33-5.25,1.72-7.59.43-.72.96-1.41,1.98-.92.69.33,1.27.94.9,1.63-2.94,5.49-.46,10.92.28,16.29.97,7.01,3.16,13.75,6.28,21.09ZM400.26,466.18c2.01,2.16,3.03,4.91,5.57,6.27,1.3.7,2.74,1.14,3.97.51,1.54-.78.39-2.23.18-3.33-.72-3.76-.62-7.51.59-11.1,1.03-3.05-.2-4.39-2.92-5.13-3.87-1.06-7.83-1.81-11.52-3.49-9.42-4.28-15.58-10.84-15.78-21.85-.09-5.26-.57-10.52-.87-15.78-.75-13.09-6.29-23.04-18.55-28.74-4.7-2.18-8.47-5.64-12.26-9.15-5.94-5.5-6.95-11.77-4.64-19.28,4.13-13.42,6.68-27.2,7.8-41.19,1.1-13.64-1.23-26.55-9.44-37.91-5.37-7.43-12.65-11.35-21.85-10.1-9.13,1.24-15.3,6.71-18.65,15.28-1.53,3.9-2.25,7.97-2.54,12.16-.25,3.61-.65,7.01,2.84,9.64,1.32.99,2.08,2.93,2.72,4.58,2.81,7.23,5.74,14.43,8.18,21.79,7.8,23.54,15.21,47.23,26.42,69.46,9.91,19.64,20.51,38.68,39.77,51.21,6.25,4.07,11.21,9.89,14.88,16.59.79,1.45,1.78,2.79,3.49,3.61.82-1.27,1.63-2.52,2.62-4.05Z"/>
  <path class="cls-1" d="M535.36,8.89c4.34.55,5.64,2.42,5.87,5.17.56,6.78,1.22,13.56.62,20.36-.41,4.71.42,9.18,2.63,13.28,3.49,6.45,5.46,13.33,6.3,20.55,1.43,12.38,3.79,24.71.28,37.18-2.53,8.99-6.87,17-12.69,24.13-9.87,12.09-13.11,25.99-12.41,41.19.34,7.47,1.4,14.92.29,22.43-1.33,9.02-6.42,13.75-15.51,14.26-4.43.25-7.65-1.62-10.4-4.96-5.14-6.26-7.17-6.19-12.25-.05-1.06,1.28-2.09,2.59-3.23,3.81-4.95,5.31-10.26,6.79-16.05,4.53-7-2.74-10.92-8-10.98-15.11-.05-6.12-.94-12.15-1.61-18.21-.25-2.26-1.31-2.8-3.3-2.49-5.73.91-9.54,4.17-11.61,9.52-2.57,6.63-1.95,13.45-.5,20.11,3.54,16.28.92,31.32-6.35,46.35-12.43,25.72-10.77,51.88.64,77.64,3.47,7.83,8.33,15.05,9.79,23.74.73,4.36.56,8.61-.65,12.76-2.26,7.71-4.22,15.52-7.26,22.99-5.97,14.69-4,28.27,5.9,40.62,7.74,9.66,12.73,20.43,13.78,32.87.83,9.88-1.66,19.28-4.36,28.62-1,3.46-1.87,6.64,4.1,8.21-6.27.16-8.53-2.47-7.45-7.14,1.15-5,2.75-9.9,3.7-14.93,3.06-16.21-.75-30.84-10.77-43.85-5.3-6.88-9.92-13.97-11.05-22.91-.9-7.08-.08-13.9,2.46-20.44,2.87-7.39,4.94-15.01,7.34-22.54,2.46-7.67,1.75-15.01-1.31-22.32-3.05-7.3-7.59-13.9-10.1-21.43-8.5-25.56-9.61-50.9,3.16-75.51,6.83-13.16,8.51-26.78,5.3-41.16-1.62-7.25-2.29-14.53.08-21.79,2.62-7.98,9.29-12.89,17.05-12.76,2.63.04,3.93.82,4.36,3.64,1.01,6.59,1.86,13.18,1.97,19.86.1,6.15,3.35,10.69,8.96,12.66,4.91,1.72,8.68.36,13.08-4.7,1.73-1.99,3.36-4.08,5.27-5.88,3.91-3.7,7.84-3.62,11.76.08,1.01.95,1.99,1.96,2.77,3.09,2.6,3.76,6.29,4.37,10.33,3.47,4.42-.98,8-3.14,9.14-8,1.26-5.34,1.2-10.74.76-16.15-.89-10.97-1.38-21.87,2.02-32.6,1.99-6.28,4.58-12.19,8.81-17.3,12.5-15.09,18.08-31.99,14.91-51.8-1.69-10.58-2.63-21.16-7.98-30.76-1.98-3.55-2.82-7.64-2.25-11.69.87-6.13,0-12.19-.2-18.27-.09-2.76-.24-5.51-3.17-8.35Z"/>
  <path class="cls-1" d="M425.3,11.99c2.02-4.22,5.23-5.3,9.02-5.05,12.01.82,20.23,9.86,19.57,21.97-.65,11.92-4.6,23.04-9.02,34-5.03,12.47-10.26,24.9-12.3,38.32-.91,6.02-1.75,12.08-.59,18.2,1.83,9.66,8.49,15.58,18.34,16.21,3.45.22,6.93,0,10.34.83,8.35,2.05,13.01,8.91,11.86,17.42-.54,4.01-1.9,7.8-2.89,11.7-1.82,7.2.3,12.11,6.67,15.74,11.3,6.45,27.49-.36,30.91-12.93,1.39-5.12.62-9.81-3.14-13.49-12.23-11.99-7.73-22.53,3.95-30.59,3.76-2.6,7.81-4.77,11.56-7.38,11.14-7.75,16.42-18.74,17.51-32.06.95-11.66-1.53-22.89-3.67-34.21-2.14-11.3-4.55-22.57-5.17-34.11-.24-4.42-.23-8.8,1.84-13.28,1.5,1.11,1.54,2.56,1.43,3.78-1.43,15.05,2.45,29.49,5.18,44.04,2.48,13.23,5.45,26.35,2.94,39.96-2.34,12.7-8.72,22.58-19.68,29.5-4.91,3.1-10.07,5.87-14.36,9.89-6.8,6.38-7.57,13.47-.83,19.84,13.14,12.44,3.95,31.25-10.01,35.27-8.27,2.39-16.16,2.14-23.27-3.49-4.8-3.8-6.88-8.63-5.6-14.65.8-3.79,2.05-7.49,2.88-11.27,2.22-10.06-2.41-16.22-12.65-16.98-2.63-.19-5.28-.19-7.88-.57-11.86-1.78-18.96-9.75-19.62-21.7-.76-13.88,2.7-26.94,7.39-39.8,4.93-13.53,11.22-26.6,13.97-40.87,1-5.2,1.78-10.4-.5-15.53-2.84-6.42-7.73-9.87-14.64-10.56-.17.37-.43.69-.35.81,5.58,9.31,2.99,18.14-1.63,26.81-6.61,12.39-14.59,23.9-22.91,35.18-9.5,12.89-15.43,26.9-13.65,43.35.64,5.88,2.51,11.35,5.62,16.38,6.07,9.8,12.19,19.54,21.94,26.31,3.21,2.23,6.83,3.58,10.48,5.4-2.25,2.03-4.35,1.48-6.52.49-5.78-2.65-10.65-6.61-14.76-11.3-7.69-8.8-14.84-18.17-18.28-29.48-5.43-17.82-.54-34.04,9.6-48.85,8.3-12.13,17.23-23.82,24.3-36.75,2.06-3.76,4.25-7.48,5.35-11.69,1.15-4.36.68-8.5-1.29-12.54-1.58-3.23-3.3-5.78-7.45-2.24Z"/>
  <path class="cls-1" d="M507.46,395.53c-1.47,1-2.59,1.75-4.39,2.98.48-3.81,2.35-6.73,4.86-6.91,3.41-.25,2.37,3.9,3.46,6.05,4.06-2.7,6.07-10.3,4.44-16.85-.92-3.73-2.81-6.96-5.5-9.65-6.48-6.45-6.87-13.81-3.58-21.84,1.59-3.89,3.88-7.36,6.26-10.77,4.81-6.89,7.41-14.51,7.95-22.88.35-5.41,1.4-10.72,2.6-16,2.29-10.09,6.52-19.01,14.12-26.34,6.8-6.56,9.94-14.89,9.99-24.35.03-6-2.14-11.09-6.4-15.29-4.1-4.05-8.9-7.1-14.09-9.47-6.78-3.1-13.72-2.5-20.1.86-32,16.86-42.03,36.26-41.26,66.5.29,11.31,2.81,22.28,5.51,33.18,6.66,26.82,8.07,53.94,5.44,81.39-1.65,17.25-1.91,34.63-4.6,51.8-.71,4.54-1.71,9.01-3.36,13.28-.98,2.54-.44,4.15,1.84,5.54,1.52.93,2.96,2.09,4.2,3.37,4.83,5.01,4.32,10.62-1.71,14-2.04,1.14-2.11,5.62-5.92,3.64,2.47-2.71,4.29-6.01,7.18-8.42.85-.71.69-2.01.44-3.16-.47-2.17-1.61-4.04-3.48-4.98-6.94-3.48-6.86-8.3-4.38-14.94,3.26-8.73,3.62-18.18,4.29-27.45,1.31-17.99,2.86-35.96,3.68-53.97,1.01-22.36-2.66-44.23-8.22-65.82-4.16-16.16-5.81-32.44-2.41-49.02,2.05-10,6.07-18.9,12.96-26.56,6.75-7.51,14.55-13.68,23.19-18.77,14.89-8.77,26.13-7.45,40.45,4.17,7.21,5.85,10.76,13.26,10.03,22.56-.66,8.55-3.21,16.67-9.47,22.55-11.55,10.85-15.37,24.73-16.85,39.6-1.05,10.59-3.74,20.4-10.35,28.95-2.2,2.85-3.94,6.03-5.2,9.44-2.31,6.27-1.63,11.81,3.23,16.85,6.84,7.09,8.84,15.51,5.66,24.96-.44,1.3-1.02,2.6-1.79,3.72-1.44,2.09-3.35,4.39-5.91,4.02-2.56-.37-2.02-3.52-2.84-5.96Z"/>
  <path class="cls-1" d="M502.69,393.09c-4.98-.25-6.16-1.49-5.18-5.84.93-4.16-.37-7.3-3.45-9.98-6.86-5.98-9.68-13.47-9-22.6.71-9.53.5-19.12,2.89-28.48,1.23-4.82,3.64-9.27,4.19-14.32.43-3.95.07-7.68-1.2-11.45-3.84-11.33-4.21-22.85-1.2-34.39,2.09-8.02,7.36-13.15,15.34-15.45,1.33-.38,3.03-1.16,3.53.66.44,1.59-1.35,1.68-2.52,2.04-8.5,2.62-12.87,8.6-14.06,17.24-1.38,10.01-1.33,19.86,2.29,29.52,2.28,6.09,2,12.43-.34,18.34-4.92,12.41-5.19,25.44-5.96,38.43-.39,6.63,2.06,12.27,6.79,16.8,4.19,4.02,7.6,8.14,5.6,14.5-.66,2.1,1.6,3.03,2.28,4.99Z"/>
</svg>