<?xml version="1.0" encoding="UTF-8"?>
<svg id="Layer_1" xmlns="http://www.w3.org/2000/svg" viewBox="0 0 421.2 724.03">
  <defs>
    <style>
      .cls-1 {
        fill: #f7f7a3;
      }
    </style>
  </defs>
  <path class="cls-1" d="M100.07,724.03c-3.89-7.27-6.75-14.15-10.94-20.09-6.8-9.64-12.41-19.84-17.3-30.51-2.28-4.97-5.01-9.68-7.77-14.42-3.4-5.83-5.86-12.39-7.66-18.93-.88-3.2-2.37-6.09-3.24-9.25-4.27-15.69-8.9-31.28-12.96-47.03-1.95-7.57-3.29-15.35-4.2-23.12-.52-4.42-1.86-8.46-3.45-13.28-.42,6.99.89,13.09,1.89,19.24-2.8-6.09-2.75-12.78-4.12-19.16-2.52-11.72-1.45-23.94-4.77-35.47-1.46-5.04-.74-10.04-1.57-15-.28-1.68.36-4.08-2.7-3.81-.07-1.03-1.96-.85-1.04-3.11,1.02-2.49.49-5.96-.56-9.16-.94-2.83-2.89-6.03-1.01-9.42,1.05-1.91.49-3.53-1.23-4.96-.68-.57-4.35-1.75-.04-2.7.16-.03.27-1.2.08-1.73-.84-2.4-3.64-4.52-.76-7.51.19-.2-2.28-3.62-4.84.12,3.6-3.58,3.63-6.14,2.21-10.47-1.07-3.26-2.1-7.64-1.38-11.83.18-1.06-.5-4.11-1.34-5.3-4.4-6.26-.07-13.39-2.78-20.21-2.01-5.04-.94-11.98-1.23-18.02-.34-7.24-.59-14.58-1.58-21.78-2.8-20.28-1.83-40.78-3.9-61.1-.08-.76.14-1.89,1.51-2.44,1.56,9.45.75,18.94,1.7,28.29.45,4.38.8,8.87,1.32,13.23.48,4.05.89,8.25,1.17,12.39.1,1.41-.35,2.52,1.02,3.43.75.5,1.15,1.54.49,2.01-4.29,3.08-.95,6.4-.23,9.45,1.27,5.39.3,10.86,1.38,16.32,1.79,8.99,3.36,18.07,3.79,27.29.14,2.98,2.51,4.67,5.04,4.54,4.42-.23,8.53,1.38,12.72,1.56,13.92.61,27.88.5,41.76-1.07,3.29-.37,6.49-1.61,9.92-2.51-1.64-2.07-3.24.43-5.34-1.36,7.4-.69,14.11-1.32,21.72-2.03-3.63,2.67-7.27,1.9-10.31,3.44,4.5-1.62,9.6,2.73,13.78-1.7,2.38,2.61,6.03,1.07,8.87,2.91,3.42,2.22,7.06,3.96,11.81,2.65,11.66-3.2,19.01-10.46,22.14-23.01.02-.07.29-.07.98-.21.13,3.24.32,6.34-1.72,9.09-3.37,4.53-6.69,9.1-10.29,13.45-.81.98-1.74,3.89-4.2,1.45-.22-.22-1.84.49-2.38,1.13-6.58,7.75-16.39,10.26-24.81,14.89-4.34,2.39-4.53,5.5-5.03,9.07-1.59,11.46-2.04,23.07-2.47,34.57-.33,8.8-1.17,17.99.89,26.64,1.09,4.55.67,8.11-.57,12.35-2.75,9.41-2.2,19.21-2.31,28.9,0,.31.07.64,0,.94-2.11,9.05.54,18.38-2.73,27.58-3.8,10.69-6.46,21.81-10.1,32.61-4.62,13.7-8.76,27.55-13.05,41.36-.8,2.59.39,4.84,1.57,7.14,8.27,16.17,17.26,31.98,24.42,48.71.19.43.31.9.54,1.31,4.03,7.42,5.06,10.8,6.83,12.3M398.5,723.87,66.43,582.13c.73.54,1.91.96,2.08,1.64.31,1.22.26,2.71,1.96,1.98,1.48-.64.02-1.9-.06-2.87-.12-1.49-.4-2.98-.77-4.43-.52-2.06-1.62-2.76-3.15-.83-.83,1.05-1.98,2.12-1.45,3.75-3.34-2.11-3.11-.25-2.65,2.26.34,1.82,1.7,4.18-1.6,4.84-.64.13-1.68-.62-1.67.71,0,.85.69,1.26,1.54,1.47,3.8.98,6.2-2.57,5.75-8.52ZM81.17,570.56c-2.1.51-7.31-2.07-3.76,4.09.58,1.01,1.48,5.48-3.01,5.1,1.68,3.65,2.81,3.94,4.93.96.85-1.19,1.49-2.34,3.1-2.42.42,2.69-.12,4.96-3.53,6.18,2.79.63,4.78,1.08,6.94,1.56-.37,2.08-2.92,3.39-1.53,5.65-3.49,2.36-4.62-2.4-7.32-2.43,2.23-1.49,1.03-3.19.18-4.76-.16-.29-1.41-.43-1.55-.22-.76,1.1-1.92,2.39-1.82,3.52.13,1.5,1.97.56,3,.92-1.06,1.05-1.38,2.43-1.32,3.82.12,3.23-1.28,3.78-3.9,2,.75,5.9,4.23,10.5,5,15.98.09.63.23,1.37,1.02,1.27.55-.07,1.3-.41,1.53-.85,3.14-6.06,5.31-12.39,5.04-19.35,4.66-3.94,2.87-9.24,2.8-14.11-.02-1.06-1.28-1.94.01-3.24,1.35-1.36,1.14-2.19-1.14-2.52-2.26-.33-.86-2.79-1.56-4.16-.25-.49.18-1.29.95-1.35,1.69-.13.18,2.6,2.05,2.37,1-4.56-.67-5.8-5.33-3.47,2.79-2.78,4.62-5.39,4.89-8.82,3.59-1.5,5.75-5.48,4.51-8.67-.3-.76-1.64-1.24-.52-2.22,2.3-2.02-.26-3.17-1.03-4.05-1.45-1.65-2.32.38-3.29,1.22-.66.58-1.39,2.19-2.02,1.46-3.4-3.89-2.52,1.63-4.32,2.09.5-3.3-1.17-6.31-3.11-6.99-2.44-.85-2.04,3.15-3.53,4.57.8-2.83-4.09-3.52-2.38-6.86-1.42,3.16-5.27,4.71-4.74,8.66-2.93-1.25-1.73-3.54-.56-4.78,1.51-1.6,1.22-3.24,1.34-4.97,3.9-2.04,1.09-3.6-.17-5.41-.57,1.7-.5,3.36-3.02,3.24-3.43-.17-4.33,2.21-4.28,5.16-2.98-1.77-1.12-5.91-3.99-7.94-1.43,1.44-.94,2.7-.35,4.52,1.38,4.28,3.44,8.62,1.65,13.31-2.55-2.4-.08-6.97-3.92-9.46.65,4.04-1.38,7.49.26,11.03,1.17-.54,2.4-1.1,3.63-1.67,2.08,1.77,2.03,4.35,3.04,6.83-1.61-.23-2.45-2.87-3.8-.71-.93,1.5,1.11,1.77,1.67,2.07,2.58,1.39,1.88,2.66.1,4.3-.34-.58-.62-1.08-.92-1.58-.36-.58-.21-1.66-1.39-1.45.18,3.27,2.54,6.46,5.17,7.09.97.23,1.62.98,1.68,1.94.08,1.34.45,2.33,2.49,2.96-1.14-2.75,1.08-4.41,1.17-6.67l-.14.14c2.41-.03,1.38-3.29,3.37-3.82,1.1,1.8,1.42,3.21-.66,4.42-.99.57-.7,1.9-.06,2.46.74.64,2.22,1.36,2.84,1.03,1.9-1.02-.29-1.36-.46-2.04-.27-1.06,2.33-1.24,1.59-3.14-.12-.31,1.05-.35,1.43.21,2.3,3.37,2.35.07,2.86-1.06.22-.49-.14-2.1.11-1.85,3.34,3.27,2.2-2.69,4.47-2.07,1.75.47,2.89-3.76,5.42-1.15-2.24,1.01-3.52,3.17-5.46,4.61-3.63,2.7-.55,6.37-.49,9.63l.15-.12ZM67.34,518.28c-3.46,2.38-1.96,6.13-2.52,9.3-.12.71.48,1.51,1.47,1.35,1-.17,2.03-.92,1.8-1.8-.75-2.91.31-6.01-1.07-8.81,2.34-3.82-1.36-6.41-1.41-10.58-3.53,5.65-7.92,9.65-7.43,15.7,3.36-.59,3.65-.65,3.04-3.36-.94-4.2,1.5-5.29,4.89-6.39-.1,2.08-2.96,2.4-2.1,4.14.59,1.2,2.09,1.05,3.32.46ZM68.2,632.28c7.83-4.2,9.8-10.5,6.01-18.75-.76-1.66-1.76-3.44-1.39-5.35.39-2.01-.56-3.4-2.18-3.43-2.06-.04-2.83,1.58-2.27,3.63,1.17.02,1.08-2.06,2.65-1.4-1.1,4.7-2.44,9.38-1.86,14.26.15,1.24,1.45,1.99-1.16,2.74-3.73,1.08-3.85,3.67-1.11,6.06.66.58.97,1.56,1.43,2.36-5.92-1.86-1.5,4.03-3.7,5.08-.62-1-1.2-1.89-1.74-2.81-.73-1.26-1.86-2.01-3.06-1.08-1.27.98.07,1.98.62,2.81.9,1.35,1.24,2.35.51,4.19-.53,1.33.99,3.48,1.61,5.26.26.73.87.81,1.53.77.94-.05.55-.66.69-1.23,1.05-4.39,2.25-8.74,3.41-13.11ZM111.7,431.88c3.05.67,4.23-2.49,6.6-3.22.54-1.28,2.82-.43,2.82-2,0-1.62-1.92-1.16-2.77-1.81-5.12-3.86-11.15-3.65-17.04-4.08-.64-.05-3.06-.18-1.64,1.28,1.97,2.02-.41,1.85-.76,2.66-1.11,2.61-4.9,2-5.84,4.81-.81-1.19-2.14-2.15-1.91-3.95,1.67-.15,3.12,1.35,4.8-.18-3.82-2.38-7.19-.91-11.32.61,2.31,1.31,4.45,1.91,5.55,3.32,1.28,1.63,1.87.93,2.84.1.82.3,1.56,1.4,1.14,1.66-2.81,1.76-1.26,2.1.65,2.6.49.13.96.73,1.24,1.22,1.52,2.7,2.91,2.64,5.83,1.23,3.16-1.52,6.27-3.51,9.82-4.26ZM31.98,529.25c1.59-4.89,5.9-9.09,3.48-14.92-.27-.64.51-1.72.81-2.58,2.72-7.77,5.4-15.55,8.19-23.3,1.64-4.55.61-9.76,3.59-13.98.86-1.21,2.49-2.72,1.19-4.16-1.33-1.48-3.38-2.1-5.57-1.5-.86.24-1.71,1.64-3.01-.06,3.73-2.35,6-6.19,9.77-8.56,5.17-3.25,11.46-4.42,16.02-8.76.45-.43,1.04-1.06,1.53-1.03,6.82.43,10.16-5.64,15.37-8.2,1.71-.84,2.41-6.36,1.16-6.77-8.83-2.85-18.02-2.08-27.03-2.05-5.25.02-10.93.9-15.84,2.69-5.45,1.98-13.82-2.25-16.23,6.86-.02.09-.24.15-.38.19-6.83,2.16-6.86,2.16-6.98,6.99-.03,1.16-.66,2.89.83,3.24,1.17.28,2.97.17,3.67-1.41.44-.99.8-1.93,2.23-2.46-.1,2.55-.73,4.39-3.12,5.4-.88.37-2.75.78-2.01,2.04,2.23,3.79,1.13,7.97,1.85,11.91,1.99,10.89,3.64,21.83,5.61,32.72.56,3.11,2.9,6.31,2.39,9.1-1.2,6.56.76,12.44,2.49,18.6ZM60.95,567.31c-4.52,2.34-6.66,1.41-5.57-3.74.07-.32-.63-.75-.69-1.17-.96-6.15-5.64-11.44-4.08-18.23.25-1.1-.62-3.05-2.41-2.73-1.27.22-1.2,1.97-.73,2.72,1.89,3.01-.2,6.79,2.54,9.98,1.27,1.48,1.81,4.89.94,8.18-.65,2.43,2.38,5.84,3.76,8.81,1.86-1.39,5.51.49,6.24-3.82ZM84.04,513.62c1.65,4.78-.23,9.15-3.9,8.98-6.24-.29-4.81,3.55-4.32,6.22.38,2.12,1.67,4.02.78,6.35-.18.46-.05,1.3.86,1.37.8.06,1.16-.48,1.2-1.12.12-1.68.46-3.43.13-5.03-.47-2.27.72-4.78,1.84-5.15,4.68-1.55,6.7-5.28,8.96-9.12-1.71-.95-4.4.59-5.55-2.51ZM88.62,421.66c-4.92.61-9.96.11-14.57,2.4-.53.26-1.54.8-1.16,1.77.32.82,1.31.64,1.97.95,6.2,2.91,9.3-2.88,13.76-5.12ZM28.21,432.46c-2.37,1.12-4.2,1.91-5.94,2.87-.46.25-.91,1.02-.87,1.52.03.41.74.99,1.23,1.1,1.39.31,9.51-4.67,10-5.99.6-1.6,0-3.31-1.52-2.83-2.78.87-6.25.15-8.76,3.3,2.08-.15,3.69-1.14,5.86.04ZM73.23,500.55c2.53-3.13.94-5.35-1.17-7.52.19,3.6-1.5,6.98-.84,10.62.26,1.45.65,2.04,2.02,1.64.84-.25,1.96-.5,1.91-1.66-.05-1.21.25-2.91,1.42-3.67-1.39.25-2.21.39-3.34.59ZM59.18,603.39c1.84-2.05,3.16-3.78,4.75-5.21,1.08-.97,2.15-1.42-.3-1.51-1.97-.07-.48-2.15-1.62-2.85-.5-.31,1.29-1.88-.58-1.95-1-.04-1.14.94-1.55,1.84-1.34,2.93-1.02,5.84-.71,9.68ZM83.67,460.53c-1.73,3.1,3.95,3,2.74,6.41-.97,2.73-4.16,4.54-3.11,8.67,1.86-5.45,10.61-9.91.37-15.09ZM52.79,615.95c1.03-2.63,1.49-5.94,5.57-2.89-.27-1.83.02-4.03-.81-4.61-1.4-.97-2.35.94-3.11,2.04-1.19,1.71-2.53.48-4.12-.27.95,2.21,1.62,3.76,2.47,5.73ZM55.89,428c-5.8-.51-10.8,2.61-16.38,3.04,5.47-1.08,11.37.18,16.38-3.04ZM53.7,469.83c-.49-4.08,1.18-6.58,3.06-9-1.72,2.54-10.28,1.65-3.06,9ZM16.52,436.87c1.84-1.62,2.82-3.63,2.95-5.86.04-.72-1.27-.7-1.98-.32-2.83,1.54-.92,4.03-.97,6.18ZM41.64,556.01c1.79,1.99.92,4.32,1.45,6.28.15.55.57,1.08,1,1.48.1.1,1.07-.41,1.05-.55-.26-1.92-.88-3.79-.37-5.81.05-.19-2.03-.91-3.13-1.39ZM76.64,479.55c-1.8,2.25-2.77,3.56-3.85,4.79-.76.86-.68,1.7-.18,2.58.36.63.88.72,1.58.42.89-.38,1.71-.71,1.8-1.87.12-1.52.32-3.04.64-5.92ZM86.77,487.24c2.06-5.51,2.05-5.65-.23-8.41-1.18,2.72-.59,5.36.23,8.41ZM49.7,584.66c.9-1.92.54-3.89,1.73-5.48.44-.58-.28-2.49-1.95-2.41-.78.04-1.87.9-1.28,1.47,1.9,1.83-.6,4.23,1.5,6.42Z"/>
  <path class="cls-1" d="M402.58,456.65c2.89,5.3,5.17,11.08,8.83,15.78,3.96,5.07,5.11,10.96,6.9,16.65,3.35,10.64,3.26,21.67,2.34,32.69-.05.54-.19,1.08-1.15,1.55,0-5.56-.1-11.12.02-16.68.24-11.3-6.37-19.38-12.27-28.09-8.28-12.23-16.39-24.68-25.93-35.84-11-12.86-19.8-27.01-28.63-41.23-2.88-4.64-5-9.97-8.2-14.17-3.54-4.64-6.62-9.46-9.52-14.43-4.86-8.36-7.84-17.48-9.7-26.9-2.57-12.96-4.38-26.05-5.25-39.24-.51-7.69-.82-15.4-1.36-23.09-.05-.75.4-1.94-.92-2.55-3.36,4.56-5.35,9.9-7.32,15.07-2.88,7.56-6.46,14.89-8.22,22.87-.85,3.84-1.39,7.68-1.78,11.58-.44,4.28,1.52,2.41,3.83,1.47-4.64,4.19-5.14,8.9-2.53,14.44,1.99-1.01,3.99-4.18,6.67-.36-2.87.04-4.85,1.92-7.13,3.06-2.92,1.46-.08,5.25-1.41,7.77,1.27.63-.52,3.89,2.36,2.96,1.32-.43,1.53,0,1.12.86-3.13,6.54-.14,12.18,2.46,17.9.19.42.35.86.48,1.3.03.1-.12.25-.19.38-2.43-1.35-5.82-7.98-6.34-12.4-.35-2.96.08-6.99-1.98-8.47-3.31-2.37-1.82-5.27-2.31-7.49-.85-1.54-4.32,2.76-3.39-2.2.28-1.51-3.45-1.82-4.06-.39-1.38,3.22-4.35,3.16-6.71,4.43q1.78-4.8,14.4-7.2c-3.86-.4-2-6.49-6.9-3.87,0,0,.21.04.21.04,3.05-10.73-1.23-21.59.69-32.4,1.81-10.19,2.81-20.54,4.68-30.72.8-4.36,6.63-7.37,5.79-11.79-1.1-5.81,3.06-8.32,5.62-11.36,1.8-2.14,3.91-3.91,4.92-6.61-1.03-.81-2.67,1.62-2.96-.49-.1-.74-.61-2.52,1.49-3.35,3.79-1.5,10.11-13.5,8.01-16.45-2.98-4.21-.87-6.6,1.3-9.57-1.02-.79-1.48.08-1.98.3-.46.2-.77.76-1.34,1.37-.05-4.81-1.79-9.45,1.37-13.65.25-.34-.13-1.15-.22-1.74-.68.19-1.69.46-1.97.62-3.12,1.77-6,3.95-9.04,5.87-.62.39-1.11,2.06-2.09.92-1.22-1.43.5-1.62,1.28-2.25,4.93-3.94,9.45-8.26,12.42-14.04-4.6,2.18-6.68,7.31-11.85,10.4,1.04-5.72,4.19-8.88,7.8-11.67,3.45-2.67,3.97-12.37.53-14.99-.68-.52-1.08-.56-.24-.94,3.3-1.5,2.51-4.67,2.36-7.01-.17-2.62-.5-5.92-4.95-5.62-4.75.31-8.33-2.69-11.92-5.33-.38-2.5-1.5-2.56-3.37-1.21-2.34,1.69-2.56.38-2.08-1.66,2.12-5.56-4.21-6.69-5.38-10.52,1.16,3.89,2.17,7.85,5.49,10.59-3.1-.81-2.07,1.6-1.84,2.74.22,1.05.12,2.77,2.5,2.4,2.04-.31,2.85-2.4,4.8-2.5.25,1.11-.29,1.93-1.21,2.29-4.42,1.75-6.75,4.64-5.1,9.99-2.18-1.27-1.97-2.96-2.11-4.55-.68-7.97-2.46-15.52-5.33-23.13-2.79-7.41-8.78-12.34-11.99-19.21-.39-.83-1.09-1.15-.35-2.1.84-1.06,2.17-2.16.53-3.58-1.59-1.38-2.2,1.13-3.1,1.01,4.13-9.84,1.63-19.3-1.78-28.69-.14-.39-.98-.69-.95-.96.22-2.01.49-4.53-2.01-4.64-1.81-.08-2.3,2.65-3.26,4.22-4.28,6.94-8.6,13.85-13.14,20.65,2.67-7.15,7.14-13.36,10.64-20.08.65-1.25,1.75-2.32,2.14-3.63.36-1.21,2.65-2.7.96-3.48-1.43-.66-3.02-1.94-5.04-1.47-12.47,2.87-20.85,10.73-26.71,21.71-.49.91-1.02,1.8-1.83,2.43,5.66-14.32,16.47-23.28,31.19-28.96-2.49-1.45-2.44-5.46-6.65-4.08,1.72-.9,3.4.11,4.83-.91-5.3-4.2-13.69-.56-30.2,13.06,2.69-7.59,14.45-14.44,28.34-16.36-1.73-4.46-3.87-8.87-2.14-13.82-.28,2.55.36,4.93,1.11,7.24,1.59.23.14-2.61,1.99-1.85,5.03,2.07,6.99-2.37,9.77-4.76.68-.59,1.26-1.88,2.19-2.14,5.63-1.59,4.43-4.6,2.15-8.33-3.19-5.22-5.84-10.89-6.76-16.88-.55-3.63-1.48-7.25-1.63-11.02,5.33,9.84,7.56,21.01,13.92,30.65.94-.28.68-2.6,2.45-2.23,4.36.9,4.86-2.34,6.19-5.28,1.73-3.85,5.03-6.58,8.42-9.05-.14,2.2-1.36,4.07-2.91,5.16-3.46,2.41-2.64,6.69-4.78,9.59-.42.57-.31,1.16.27,1.61,1.86,1.44,7.19.35,9.02-1.22,2.23-1.9,1.43-5.96,5.03-6.68-.55,2.68-.37,5.87-2.39,7.7-2.05,1.86-1.02,3.99-1.63,5.92-.67,2.11,1.71,2.02,2.7,2.42,1.71.69,1.47-1.21,1.4-2-.1-1.16.7-2.18.67-2.87-.16-3.68,2.55-7.65-.84-11.05,1.44-5.03-.35-7.31-6.65-8.44-.26-1.93,1.66-2.31,2.6-2.89,3.2-1.99,4.46-6.71,8.56-7.01,6.3-.46,7.5-8.45,13.73-8.7.36-.01.8-.52,1.05-.9,1.97-3.1,3.54-2.97,5.86.75.82,1.31,1.73,1.43,2.54.46,3.75-4.49,8.77-6.58,14.31-7.5,2.25-.38,2.38-1.38,2.02-3.24-.53-2.7-.44-2.72,2.6-5.35-.96,3.76-4.09,7.92,2.99,9.62-7.72-.38-4.67,5.55-6.29,8.78,2.32-2.97-3.62-5.03-.72-7.9-5.42-.14-7.37,1.25-8.24,6.12-1.47,8.18-4.72,15.99-5.18,24.37-.53,9.6-1.43,19.21-.01,28.83.22,1.49.03,3.03-.23,4.54-5.2-16.75-.33-33.69-.89-50.6-1.38,6.8-3.22,13.27-6.06,19.55.11-2.85,1.57-5.88-1.54-8,.6.05,1.38.36,1.75.1,1.32-.96,3.81-10.36,3.13-11.71-.22-.43-.92-.69-1.45-.88-1.06-.38-1.24.29-1.38,1.17-.61,3.82-1.27,7.63-1.92,11.44-2.2,1.16.85,5.62-3.91,5.51,1.73-1.45,1.6-2.67,1.26-4.67-.51-2.97.95-6.27,1.58-9.43.06-.3.3-.59.31-.89.14-2.59,2.73-4.87,1.4-7.5-.55-1.08-2.39-.38-3.43.33-3.27,2.23-8,3.76-7.42,8.67.44,3.69.58,7.23-1.73,9.89-2.04,2.35,2.89,3.18.47,4.98,1.28,1.39,1.78-.37,2.65-.66.87-.3,1.57.05,2.11.63.82.88-.37,1.29-.55,1.95-.49,1.82-2.21,2.78-3.5,3.37-1.51.69-.91-1.98-2.56-2.75-2.49,4.82-3.38,10.22-4.43,15.38-.73,3.62,1.53-.15,2.34.35.04.28.21.79.12.84-4.32,2.38-1.83,6.95-3.3,10.25-.28.64-.02,1.17.81,1.35,1.63.35,1.17-1.62,2.24-1.94,1,1,.72,2.34-.08,2.89-3.97,2.71-1.38,6.62-2,9.92-.07.38-.07.82.56,1.07,1.83.75,2.15,1.44,1.55,2.83-.83,1.93-.4,1.56,1.29,3.53,1.71,2,3.18,4.74,3.5,7.31.97,8,2.95,15.7,4.81,23.5.75,3.15,3.13,1.71,3.64,3.16,1.1,3.1-3.28.71-3.08,2.8.11,1.13.93,2.18,1.83,4.14.22-2.64.93-3.93,2.98-3.76.82.07,2.07.36,1.93.93-.34,1.46-.85,3.23-1.92,4.1-2.91,2.37-3.53,5.68-.76,8.43,2.67,2.65,3.15,5.22,1.87,8.82-1.06,3-.94,6.42-1.35,9.66-3.09-.3.4-3.58-2.72-4.47.4,7.07-.1,13.92,3,20.51,2.75-1.99-.7-3.3-.28-4.67,1.47-.99,2.12,1.22,2.24.77.54-1.94.62-4.02.89-6.23-1.94.48-.65,2.35-2.38,2.7-.13-2-.78-3.86.51-5.81.64-.96,2.93,1.34,2.23-1.17-.44-1.59-1.87-.22-2.84-.35-.76-.1-.9-.72-.81-1.39,1.39-.09,2.77-.17,4.49-.28-.33-1.61-2.17-2.51-.6-4.72,4-5.6,1.8-12.24,1.72-18.46-.08-6.06.27-12.18-1.57-18.12-.44-1.42.2-3.36-2.33-3.16-.25.02-.51-.12-.76-.19,5.34-4.14-2.08-7.49-.7-11.4.15-.43.21-.89.3-1.27.83-.49,1.44-.04,1.49.54.48,6.03,7.37,9.52,7.01,15.27-.39,6.31,4.09,10.98,4,16.91-.01.92.31,1.89-.57,2.61.73,3.52-1.32,6.2-3.83,9.72,6.13-3.31,6.61-5.01,3.72-9.75,1.7-.09,2.14-.79,2.13-2.64-.06-8.91,2.05-17.86-1.6-26.71-.63-1.53-1.04-4.37-.36-6.92,1.56,1.86,2.99,2.81,3.14-1.2-.15,5.77.32,10.88,2.67,15.72.62,1.27-1.52,2.01-1.45,3.95.32,8.49.47,17.04-.23,25.49-.34,4.1-3.08,8.01-.64,12.28-5.2,5.4-2.31,12.97-5.09,19.09-1.2,2.65-.94,5.94-1.72,8.83-1.13,4.19.52,4.7,3.93,3.42-2.34,2.13-4.46,3.96-5.57,7.5-.94,2.99-4.09,8.81-2.83,11.91.1.24,1.17.07,1.79.09-1.09,2.93-5.09,4.76-3.15,9.47.73-3.67,3.36-5.71,4.36-8.62.63-1.82-.49-1.23-1.35-.71,5.82-4.76,6.91-12.14,10.06-18.37.58-1.15,1.15-2.93-1.43-2.74-.01-.47-.07-1.34-.03-1.35,5.12-.58,5.27-5.08,6.15-8.45,6.11-23.21,11.67-46.54,14.37-70.45.64-5.7.64-11.45.49-17.22,1.98,2.51-.26,5.72,1.47,8.24,2.12-.01.37-2.57,2.68-3.21-1.08,5.16-2.69,9.92-2.36,14.89.05.75-.63,1.92-.32,2.23,5.83,5.69.76,11.71.14,17.3-1.42,12.76-4.95,25.21-7.39,37.83-1.42,7.32-2.57,14.69-4.08,21.99-.63,3.04-1.54,6.8-.97,9.08,1.16,4.6-3.4,8.02-1.04,12.1,1.41-.78,10.64-21.2,11.66-26.26,1.95-9.68,6.78-18.44,8.84-28.1.92,3.86-1.46,7.07-1.87,10.61-.86,7.55-3.69,14.51-5.99,21.64-.46,1.44-1.6,2.66-2.42,3.98-.61,6.79-4.38,12.56-6.15,18.98-.35,1.25-1.64,2.64.36,3.51,1.8.79,2.59-.35,3.58-1.82,2.69-4,4.49-8.25,5.47-12.98.5-2.43,2.69-5.03-2.11-5.27-.42-.02-.77-1.58-1.15-2.43,2.94,1.93,4.88-.34,6.94-1.75,1.42-.97-2.76-.78-.52-2.92,3.19-3.04,5.7-6.92,6.66-11.54.76,4.28-3.33,7.96-1.12,12.29l-.1-.12c-1.52,4.54-4.28,8.48-6.17,12.87-1.89,4.39-3.09,8.76-3.4,13.46-.37,1.28-.75,2.54-1.13,3.83-1.37-.56-.02-2.36-1.53-2.68-3.28,7.66-5.14,34.31-2.26,40.18.41-6.78.73-12.64,1.13-18.49.34-4.97.51-9.97,1.25-14.88.41-2.73,3.68-4.73,2.43-8.08,2.6-3.5,3.17-7.83,4.63-11.78.8-2.16,1.56-4.22,3.58-5.81-.59,2.34-.94,4.79-1.82,7.02-5.92,14.93-9.22,30.41-8.27,46.43.4,6.76-.49,13.4-.31,20.35,5.03-8.89,5.22-9.98,2.48-10.54,5.26-9.25,4.35-20.56,9.5-29.95-1.68,7.83-3.37,15.66-5.05,23.49.46.11.93.23,1.39.34,5.16-18.08,10.33-36.16,15.49-54.24.48.14.96.29,1.44.43-1.41,4.77-2.92,9.52-4.22,14.33-5.2,19.21-10.79,38.32-15.34,57.69-3.32,14.14-4.86,28.67-2.11,43.17,1.33,7.01,3.64,13.84,5.51,20.75.36,1.34,1.01,2.64.52,4.58-2.64-3.83-2.28-8.52-5.17-12.75-.11,14.6,3.38,27.85,5.72,41.27-8.87-32.53-15.11-65.5-16.34-99.69-2.73,1.42-1.1,3.42-2.34,4.89-.5-1.65-.87-3.12-1.41-4.53-.61-1.58-1.74-2.83-3.53-2.04-1.76.77-1.12,2.07-.42,3.52,1.09,2.28,1.14,4.73-.96,7.12-.29-5.02-.59-10.03-.88-15.05-1.96,2.92-1.93,6.13-1.69,9.23.44,5.62.44,11.21-.44,16.78-.24,1.5.33,3.84.51,4.27,2.81,6.71-1.49,13.53,1.38,21.06-5.61-5.27-2.96-11.07-3.59-16.16-.54-4.37-.02-8.87-.15-13.3-.06-1.95.44-3.83-2.38-5.23-2.17-1.07-1.01-3.85.64-5.92,3.53-4.44,3.01-14.54-.57-18.07-1.33-1.31-1.55-1.51-2.88.45-5.64,8.27-7.1,17.38-6.95,27.09.15,9.43,1.16,18.81,1.56,28.19.48,11.42,1.78,22.68,3.78,33.87.87,4.86,2.77,9.53,4.55,15.42.73-3.45-.92-5.55.4-8.48,2.14,4.92,2.81,9.68,4.57,14.06,2,4.98,4.72,9.49,7.36,14.09,2.17,3.78,2.93,8.13,4.95,12.03,6.38,12.31,15.28,22.82,23.16,34.07,5.84,8.33,11.98,16.49,17.59,25.01,7.91,11.99,17.26,23.01,24.18,35.97,1.47-1.75.4-3.38-.1-4.36-3.86-7.59-6.79-15.76-12.81-22.08-1.92-2.02-.93-3.57.37-5.23l-.02.05ZM331.46,217.88c-1.69,1.31-.34,3.13-.71,4.73,1.78-3.26,4.02-6.28,4.51-11.23-1.72,2.86-2.88,4.79-4.04,6.73.75-2.95.45-6.17,2.89-8.69.63-.65,1.56-2.81-.19-3.69-2.04-1.03-2.26,1.33-2.76,2.29-1.67,3.17-3.13,6.47-4.37,9.83-.74,2-2.86,3.63-2.18,6.2,3.3-1.17,3.34-5.52,6.83-6.17ZM329.35,243.5c1.74-1.1,4.14,2.36,4.98.05,1.72-4.71,4.91-9.15,4.09-15.24-3.57,5.24-5.16,10.93-9.08,15.2-.04-2.29.97-4.35,2.19-6.02,5.79-7.94,8.48-16.84,8.87-26.55.05-1.18.62-2.48-1.11-3.32-3.8,8.08-6.12,16.77-11.12,24.2-.55.81-.59,1.93-1.92,2.33-3.93,1.19-7.98,14.32-5.55,17.68.08.12.23.26.35.26,3.52.24,2.7,3.13,3.14,5.45,1.36-1.98,4.11-3.25,3.32-5.74-.6-1.9-1.86.98-3.6.49,2.34-2.89,2.66-6.52,5.43-8.79ZM267.9,68.25c.86,3.34,5.35,2.55,6.51,5.69.15.41,1.93.26,1.83,1.55-.16,1.95-2.45-.86-2.72,1.11.86.61,1.69,1.24,2.56,1.8,6.61,4.21,8.89,3.18,11.99-4.04,1.68-3.91.81-8,1.56-11.92.86-4.53-6.56-5.19-9.52-8.62-.98-1.14-2.55.25-3.98,1.09-5.28,3.09-7.57,7.71-8.22,13.44-1.42-1.25-1.87-2.91-1.48-5.18-2.13,2.1-3.52,2.41-6.29,1.94-.85-.14-1.98-.6-2.36.7-.31,1.09-.27,2.66,1.07,2.6,3.02-.11,6.08,1.75,9.04-.15ZM308.52,139.35c-.7,1.19-2.32,1.78-2.28,3.43.04,1.85,1.27,2.81,2.81,3.38.82.31,1.93-.17,1.72-.97-.54-1.99,1.05-4.95-2.37-5.75,2.31-2.47,1.68-5.74.55-7.89-1.77-3.37-2.74-6.53-1.81-10.01-1.64-.82-1.91,2.16-3.59.99.35-1.95,2.33-2.15,2.91-3.15.08-1.59-1.26-1.47-1.82-2.25-3.1-4.33-6.3-8.41-10.47-12-2.18-1.88-7.16-1.02-6.37-6.22-3.24,1.74-3.42,4.1-3.03,6.67,1.69,11.31,8.33,20.46,13.46,30.22,1.95,3.71,5.42,6.61,10.29,3.54ZM317.64,267.45c-3.22,3.98-2.06,9.3-3.93,13.74-1.66-.74-.1-2.2-1.35-3.26-2.62,5.49-5.32,10.8-7.05,17.49,1.6-1.98,4.18.94,4.16-1.41-.04-6.37,3.73-10.55,7.21-15.11,2.64-3.47.25-7.65.95-11.44-1.29-3.63,1.92-7.65-.71-11.18-1.72.29-.43,2.27-1.78,2.55-1.06-3.97,4.24-6.74,2.4-10.87-.66,3.42-4.27,4.67-5.47,7.73-2.11,5.37-4.93,10.46-7.35,15.72-4.45,9.66-8.48,19.39-10.98,29.86-1.75,7.34-.21,14.64-1.74,21.8-.58,2.74-.32,5.44-.23,8.21.09,2.83-.23,6.35,2.82,6.26,2.85-.09,2.11-3.95,2.3-6.43.69-9,1.39-17.95,3.66-26.81,2.69-10.51,6.94-20.33,11.62-29.98,1.22-2.52,1.29-6.53,5.49-6.86ZM280.23,103.02c-.89,4.66-.62,9.79-.23,14.94.26,3.41,2.01,6.66,2.39,9.63.85,6.65-.01,6.76,4.56,11.75.23.25.16.79.19,1.19.28,4.12,1.95,5.24,6.15,4.14.39,1.42-3.04,1.43-1.32,3.09,1.23,1.18,2.17-.5,3.19-1.09,1.22-.71,2.51-1.26,4.12-1.11-.84,1.39-2.22,1.93-3.34,2.82-1.94,1.54-1.89,5.57-.89,5.76,5.65,1.09,5.41,9.81,12.15,8.99.16-.02.59.49.54.64-.87,2.56.94,2.15,2.27,1.94,1.84-.3,3.37-1.34,3.49-3.29.1-1.66-.41-3.36-.64-5.05-.44-3.2-2.41-6.21-.88-9.63-1.45-.05-2.32,1.38-3.72.22-5.75-4.76-11.88-9.19-15.89-15.64-5.69-9.15-7.88-19.78-12.15-29.3ZM351.74,222.65c-3.78,3.15-4.26,7.59-6.99,10.54-1.9,2.06-3.81,4.03-2.35,7.4.71,1.64-.26,2.41-1.61,1.9-1.85-.71-2.03-.67-1.77.8.36,2.04.32,4.25,2.66,5.53,1.08.6,2.59,2.41,2.34,3.12-1.44,4.06,1.01,8.13-.46,12.21-.89,2.46,1.37,3.55,3.46,3.95,3.18.6,1.64-2.11,1.66-3.05.07-3.51,2.02-7.36-1.55-10.44-.45-.39-1.02-2.03.17-2.95,1.75-1.35,1.33-3.34,1.64-5.17,1.31-7.69.66-15.58,2.8-23.85ZM296.35,77.46c-4.99.43-4.96.42-3.16,4.08.24.5.02,1.21.08,1.82.44,4.24-.2,8-4.92,9.92,3.08,1.93,4.34.43,5.2-1.78.76,1.91,1.62,3.74,2.21,5.65.46,1.49,1.67,2.15,2.81,2.07,1.77-.13,1.24-1.93,1.27-3,.08-3.16-1.9-6.25-.23-9.55.2-.4-.45-2.38-1.84-2.23-2.23.24,1.12,2.05-1.65,2.97,1.71-3.64-4.19-6.35.24-9.94ZM273.69,88.13c-.39,2.64-.36,2.62,1.86,6.27.53.87.41,2.2-.31,2.59-2.96,1.56-1.6,3.94-1.33,6.07.13,1-.9,2.86,1.25,2.74,1.41-.08,2.74-.93,2.89-2.63.5-5.49,2.42-11.36-4.36-15.04ZM351.95,265.74c-2.16,9.95-.46,19.73,1.36,29.51.4-9.87-1.93-19.63-1.36-29.51ZM304.02,33.03c-.28,2.53,1.6,5.18,2.32,4.82,2.49-1.23,3.51-3.98,3.71-6.83.11-1.55.41-2.92-2.29-2.75-3.77.24-2.83,3.25-3.74,4.75ZM350.18,217.49c-.36-.33-.71-.67-1.07-1-4.88,1.64-3.55,7.08-5,10.82,2.02-3.27,4.05-6.55,6.07-9.82ZM266.67,75.64c-3.08-1.4-3.25-7.08-8.31-5.64.96,4.54,4.39,5.48,8.31,5.64ZM277.98,119.63c1.39-3.55-.42-6.9.07-10.17.12-.81.29-2.22-1.05-2.08-1.03.11-2.36,1.59-1.82,2.26,2.33,2.91.06,6.89,2.79,9.98ZM307.6,297.35c-2,2.76-4.72,4.31-5.56,7.35-.17.61-.56,1.42.05,1.64.55.21,1.89-.15,1.95-.44.56-2.94,3.83-4.75,3.56-8.56ZM338.81,248.95c-.21,2.65-.42,4.61-.5,6.58-.07,1.73,1.82,1.9,2.59,2.98.36-.67,1.2-1.7,1-1.96-1.54-2.1-.23-5.19-3.09-7.6ZM332.94,147.15c-2.27,2.64-3.07,5.65-1.99,9.08,1.24-2.87,3.22-5.54,1.99-9.08ZM330.17,22.94c2.82-2.56,2.92-6.18,5.07-10.33-5.11,2.9-3.67,7.23-5.07,10.33ZM357.54,328.23c.18-3.81.2-7.6-1.2-11.23-.27,3.82-.59,7.64,1.2,11.23Z"/>
  <path class="cls-1" d="M55.91,114.91c-1.99,3.4-6.12,1.28-6.63.5-3.31-5.02-9.25-3.92-13.63-6.34-3.71-2.05-8.86-1.55-13.39-2.01-.7-.07-1.67.36-1.52,1.82.35,3.39-2.08,4.63-4.82,4.63-3.27,0-6.61.49-7.92,3.39-1.59,3.56-2.35,7.62-2.71,11.54-.16,1.7,2.08,1.42,3.4.71,2.44-1.31,4.69-1.2,6.87.62-1.71-.18-2.66,1.83-5.11.74-1.97-.88-5.91.2-5.52,4.24.36,3.77-3.47,9.04,3.47,10.71.68.16.45.52.22,1-3.73,7.76-3.95,16.36-5.12,24.59-1.19,8.31-.33,16.92-.27,25.39.01,1.99,1.03,2.07,2.37.82,4.68-4.37,11.04-6.49,15.6-10.59,3.05-2.75,5.74-2.41,8.81-2.83.86-.12,2.04-.5,2.09,1,.03.9-.61,1.2-1.52,1.4-8.84,1.97-15.49,7.46-20.59,14.45-1.98,2.72-3.39,5.59-6.04,8.06-2.41,2.25-1.17,6.67-.9,10.01.54,6.53-.25,12.99-.16,19.48.05,3.19-1.31,6.64,1.32,9.49-3.48,3.55.58,8.27-2.65,13.21.18-4.99-.72-8.61-.91-12.56-.22-4.6.79-9.06.34-13.62-.82-8.37-.17-16.82-.47-25.23-.41-11.49-1.29-23.18.84-34.76.9-4.9-.23-10.14-.06-15.22.24-7.18-.15-14.39.79-21.56.86-6.54,1.28-13.14,2.43-19.63,3.33-18.71,6.4-37.57,13.64-55.25,6.99-17.04,14.43-33.93,24.34-49.58,1.56-2.47,2.9-5.06,5.05-7.16-2.59,6.25-6.46,11.86-9.09,18.11-5.06,12.03-12.18,23.11-14.53,36.39-1.26,7.12-5.44,13.66-7.07,20.87-.26,1.13-2.46,2.56-.45,3.59,1.6.82,4.84,1.58,5.3.92,2.01-2.86,4.53-.63,6.65-1.29,1.77-.56,3.76-.09,5.48-1.13.64-.38,1.95-.77,2.21-.48,1.57,1.73,4.46,2.89,4.95,4.65.88,3.17,2.27,4.33,5.33,4.35,4.39.04,7.68,2.84,11.47,4.58-.78,1.31-1.86-.79-2.49.72,1.43,1.99,4.18,1.62,5.99,3.06.91.72.82.07,1.09-.86.46-1.6,2.15-2.18,3.77-1.49,3.83,1.63,7.12,4.41,11.49,4.96,1.21.15,1.58,1.85,1.35,3.2-.19,1.15-1.15,1.12-1.82.76-2.48-1.32-4.71-1.4-6.82.73-1.61,1.63-4,1.42-5.93,2.31-4.02-.67-5.88,2.68-8.54,4.57ZM62.23,104.95c-.55-3.07-2.47-4.4-5.49-4.15-.57.05-1.54-.58-1.78.61,1.13.16-.16,2.44,1.78,1.99.82-.19,1.68-1.08,2.64-.07-.94,2.11-4.17,1.45-4.93,4.38,2.51-1.5,4.88-2.51,7.53-2.53-3.77,1.97-7.08,4.48-9.63,7.89,2.58-1.16,4.91-2.63,7.23-4.11,2.51-1.6,5.41-1.11,8.14-1.59,1.31-.23,2.53-1.95,1.29-2.29-2.05-.56-4.56-4.02-6.78-.12Z"/>
  <path class="cls-1" d="M94.59,123.49c1.83-.11,2.61,4.01,5.15,1.29.04-.04,1.14.56,1.29,1.01,2.76,8.29,9.94,14.14,12.46,22.55,1.26,4.2,2.11,8.6,3.96,12.53,1.44,3.05-2.49,3.74-1.72,6.35,1.29,4.34,1.55,9.06,3.26,13.19,1.9,4.6.14,9.93,3.84,14.22,2.2,2.54,2.78,6.42,4.48,9.48,1.88,3.4,1.84,6.78.73,10.25-2.82,8.81-.8,16.2,6.15,22.31,3.03,2.67,5.91,5.5,8.48,8.67-4.82-1.25-7.47-5.32-11.01-8.15-5.28-4.21-7.73-10.75-11.85-15.98-4.38-5.55-.25-10.94,1.91-16.01,1.37-3.21,1.36-7.31-.97-8.01-5.52-1.66-4.31-6.98-7.02-10.04-11.57-13.03-21.32-27.42-31.1-41.82-2.33-3.43-4.64-7.37-7.79-9.88-4.54-3.62-6.96-10.24-13.99-10.68-.23-.01-4.63-1.04-.97-3.29,0,0-.12.11-.12.11,2.69-1.06,6.46.24,7.66-4.39.23-.87,5.18-2.43,8.31-2.18l-.06-.14c-.08,1.19-2.04,1.04-1.78,2.5,2.29,1.48,4.09-2.15,6.34-.75.55,1.84-2.63,1.41-1.63,3.7,5.39.27,11.33-.86,16.12,3.22l-.13-.05ZM103.43,155.44c.78,2.67.78,2.69,3.03,2.31.93-.16,1.06.32.92,1.04-.17.86-.1,1.62.92,1.74.32.04.97-.4.99-.67.08-.86.59-1.97-.58-2.47-1.52-.65-3.09-1.15-5.29-1.94Z"/>
  <path class="cls-1" d="M251.56,361.85c.88-1.33,2.35-1.65,3.42-.92.56.38.64,2.27.22,3.1-1.03,1.99-1.78,3.98-1.99,6.21-.09.98-.63,2.08-1.81,1.43-3.36-1.83-5.87,1.01-8.82,1.36-.72.09-1.73-.36-1.65.92.06.88.69,1.28,1.63,1.31,1.9.06,4.28-.4,3.49,2.98-.07.28,1.13,1.23,1.75,1.24,11.28.18,21.34,5.84,32.38,7.13,9.44,1.11,18.08,5.02,26.94,8.15,9.04,3.19,17.09,8.73,26.63,10.81,2.45.53,5.39,1.82,5.57,5.61.04.91.91,2.92,3.51,2.89,3.23-.05,4.78,3.54,6.27,5.77,10.25,15.4,21.49,30.1,31.86,45.4,5.32,7.85,9.75,16.32,16.13,23.75,1.66-2.16,3.18-4.39,6.25-5.66-4.98,5.64-4.49,10.95.17,16.27-5.48-4.43-8.71-10.45-12.77-15.77-11.26-14.77-21.69-30.14-31.56-45.86-6.54-10.41-15.42-18.33-25.23-27.47-.15,15.5-.11,29.82-1.63,44.08-.48-13.49-1.36-26.95-.43-41.37-1.85,2.43-.97,4.43-1.9,6.48,2.9-10.89-5.03-14.2-12.16-16.78-13.79-5-27.93-8.65-42.88-9.04-6.9-.18-14.02-1.86-20.87-2.05-11.82-.34-21.83-5.33-32.26-9.39-8.86-3.45-16.87-8.65-23.67-15.32-2.27-2.23-3.23-5.8-4.3-9.06,3.58,1.99,4.32,6.28,7.43,8.58,7.64,5.66,14.9,11.71,25.2,12.43,3.04.21,6.9.93,9.56,2.86,3.38,2.46,7.45.96,10.78,2.82.23.13,1-.24,1.15-.55.51-1.05-.53-1.28-1.11-1.7-1.79-1.31-4.23.28-5.86-1.11-.97-.83-3.3-.24-2.95-2.32.29-1.72,2.02-1.01,3.17-1.23.44-.08.88-.15,1.8-.31-2.06-1.65-3.44-4.32-5.7-.65-.63,1.02-1.13.37-1.6-.43-1.81-3.08-1.91-2.24-5.18-2.02-2.29.15-5.16,2.71-7.51-.32-.34-.44-1.3-1.14-2.35-.07-.6.61.85,3-1.45,1.87-1.25-.62-2.45-1.67-2.45-3.24,0-1.35,1.32-1.64,2.31-2.02,5.7-2.2,11.15-5.39,17.7-4.71-.76,1.3-1.58,2.4-3.06,3-.84.34-2.6.42-1.76,2.07.65,1.28,2.08,1.49,3.32.93,1.7-.78,3.28-1.8,4.91-2.71,1.24-.44,2.48-.88,3.72-1.33.31,1.77.6,3.26,2.84,1.35.93-.8,2.65-1.69,3.55-1.34,3.9,1.52,1.43-2.89,3.45-3.6,1.01-.36-.23-2.65-2.27-2.56l.09.11ZM269.15,388.57c-4.28-.76-8.65-.56-13.02-1.89,3.94,5.61,8.64,2.14,13.02,1.89Z"/>
  <path class="cls-1" d="M150.48,326.53c3,1.48,3.42,5.32.91,8.51-.97,1.23-2.06,2.37-2.92,3.67-.69,1.04-1.41,2.38.1,3.3,5.14,3.14,3.53,8.92,5.11,13.41.67,1.89-.76,4.45-3.2,5.67-1.99.99-4.09,1.93-6.12,5,2.35-7.71-2.48-7.95-6.73-8.24-4.15-.28-6.12-4.64-10.25-4.76,4.9-1.87,9.1.58,13.14,2.24,3.42,1.4,6.11.15,8.9-.82,2.08-.72.45-8.67-2.19-9.51-12.78-4.08-24.84-11.11-38.97-9.77-1.02.1-2.86-.37-2.79.75.13,2-2.1.54-2.08,2.01,3.29,1.85,6.3,4.31,9.87,5.88-6.74-.79-11.85-5.14-17.51-8.18-1.92-1.04-3.12-3.6.89-4.76,11.58-3.35,21.9-9.22,31.66-16.18,2.51-1.79,6.49-1.43,7.6-5.32.15-.51.95-1.52,1.52.04.59,1.63,1.33,1.35,2.72.46,1.91-1.23,3.33.3,4.14,1.96.25.51-.17,1.65-.65,2.14-.63.65-1.03-.15-1.66-.54-2.97-1.82-5.17-.23-5.29,4.07-2.16-2.71-4.03-1.97-6.4-.46-3.62,2.31-7.6,4.05-11.33,6.35,3.01-.62,6.39.84,8.96-1.85h0c.68,1.58-1.63,2.26-1.2,3.66,8.78-.04,16.54,3.4,24.51,6.35,1.36-1.81-.47-3.36-.7-5.09h-.01ZM115.84,332.41c2.81.89,5.46,4.62,7.64,2.1,2.87-3.31,4.67-1.37,6.33.16,1.81,1.67,3.84,1.74,5.9,2.34,2.97.85,4.19-.76,4.71-3.08.56-2.49-1.06-3.31-3.31-4.01-7.28-2.27-14.14-1.28-21.27,2.49Z"/>
  <path class="cls-1" d="M77.22,232.07c-1.9.63-1.51,2.03-1.89,2.92-.95,2.25-.73,2.14-2.88,1.15-.81-.37-2.17.03-3.11.46-2.42,1.09-4.27.01-6.11-1.28-.67-.47-1.31-.95.01-1.56,2.57-1.19,1.78-2.12-.37-2.6-1.37-.3-2.02-.68-1.29-2.18.6-1.24,1.08-2.2,2.79-1.49.8.33,2.17,1.45,2.7-.33.52-1.74-1.09-1.92-2.16-2.5-4.89-2.68-9.83-2.07-14.8-.3-.91.32-1.85.57-1.94,1.74-.08,1.1.67,1.72,1.51,2.19,2.67,1.49,5.36,2.95,7.8,4.97-9.74-6.55-23.59-3.2-32.39-13.2,4.88-3.44,8.93.56,13.31-.43,3.41-.78,7.19-.7,10.56-1.9,6.64-2.37,13.61-2.96,20.45-4.21,1.32-.24,2.48-1.03,3.03-2.06,2.15-4.01,3.47-1.3,4.11.67.72,2.2,1.24,3.47,3.71,2.04.33-.19,1.06-.13,1.33.11,2.36,2.15,4.64,3.01,7.68,2.81.97,1.89-6.3,4.28,1.39,6.23-3.41.09-4.09,2.56-5.72,3.99-1.85,1.62-3.43,3.54-.21,5.6-1.01-.16-2.01-.31-3.06-.48.2,2.23.36,4.24.57,6.25.17,1.53-.36,2.45-2,2.48-1.53.03-3.05-.28-2.96-2.16.11-2.28-.91-4.42-.06-6.93ZM69.05,233.8c1.79-.1,3.45,1.33,4.53-.23.89-1.28.27-3.07-.33-4.48-.47-1.11-1.76-2-1.06-3.36.95-1.84-.46-2.14-1.55-2.66-.54-.26-1.27-.49-1.52.33-.33,1.06-.12,1.99.56,3.03,1.53,2.34,2.8,4.87-.63,7.38Z"/>
  <path class="cls-1" d="M230.58,150.15c.11.11.31.22.31.34.16,9.43,8.58,14.17,12.22,21.62,1.07,2.18,1.92-1.21,2.95,0,1.02,1.21,1.87-2.13,3.03-.19.89,1.5.23,2.75-.72,3.85-1.83,2.14-3.55,4.43-5.67,6.25-7.45,6.44-12.79,14.74-19.5,21.83-.66.69-1.08,2.42-2.31,1.23-.98-.95.22-1.7,1-2.56,3.15-3.43,6.14-7,9.1-10.6,1.55-1.89,2.04-3.44-1.46-3.31-3.01.11-5.03-3.35-8.33-2.47-.12.03-.4-.12-.4-.16.6-5.79-4.25-6.58-7.76-8.77-1.3-.81-.48-1.78.6-3.1,1.77-2.14,3.89-.81,4.52-.34,5.48,4,8.45,4.51,12.4,1.26,4.5-3.7,2.04-8.64.13-11.5-3.39-5.05-1-9.08.03-13.56l-.15.16Z"/>
  <path class="cls-1" d="M200.48,322.18c1.62-2.26,2.08-4.75,2.13-7.38.02-.85-.23-2.18,1.24-1.95,1.25.19,1.09,1.37.91,2.3-.82,4.29-1.05,8.73-3.5,13.44-1.75-4.69-3.56-8.72-4.71-12.93-.9-3.28.18-6.44,2.23-9.3,2.74-3.82,3.71-7.55.29-11.95-2-2.57-3.27-5.59-.18-9.6,2.87-3.73,3.29-9.27,6.48-13.3.84-1.06-.8-1.91-1.48-2.6-3.16-3.21-6.44-6.31-9.7-9.41-5.78-5.5-6.02-10.23-.66-15.95,4.26-4.55,8.55-9.09,12.98-13.47,3.61-3.57,6.54-7.5,7.92-12.55,1.82.84,1.65,2.74,1.43,3.42-5.32,16.91-7.11,34.42-8.61,51.94-.4,4.7-3.71,7.33-5.66,10.89-2.55,4.67-1.71,8.17,3.2,10.35.26.12.52.24.77.36-3.44,2.94,1.97,4.72.97,7.57-.7,2-2.29.56-3.4,1.6-2.91,2.72-1.73,6.4-3.06,9.35-1.46,3.26.59,6.09.42,9.18ZM211.84,228.05c-6.49,6.2-12.35,11.82-18.24,17.41-2.23,2.12-2.28,4.52-1.4,7.3,2.17,6.86,8.24,9.66,13.48,13.7.78-3.16-.44-4.75-2.96-5.86-1.69-.74-3.63-1.23-4.78-2.89-.66-.95-2.54-1.78-1.53-2.99.95-1.15,2.91-1.4,4.28-.26,1.97,1.64,3.75,3.51,5.99,5.65,1.56-10.82,2.73-21.21,5.15-32.07Z"/>
  <path class="cls-1" d="M344.76,313.83c1.19.4,1.73,1.43,1.99,2.48,2.27,9.1,5.01,18.12,6.58,27.34,2.28,13.34,5.9,26.27,10.1,39.07.59,1.79,1.17,4.06,2.98.96,6.48,19.07,13.03,38.22,23.31,55.82-20.72-29.82-32.45-63.32-40.02-99.15-2.52,5.48-1.37,10.24-.33,15.01-3.6-4.94-2.2-10.56-1.81-15.77.23-3.15.32-6.13-.17-9.21-.88-5.54-1.68-11.1-2.51-16.65l-.11.1Z"/>
  <path class="cls-1" d="M87.19,189.33c.78,2.61,3.23,4.35,3.65,7.17.15,1,1.06,1.97-.5,3.34-.41-5.06-4.29-2.85-6.76-3.59.38-2.58,2.82-1.34,4.06-2.78-3.32.32-5.18-6.44-9.42-1.5-.08.1-.64-.08-.86-.26-5.25-4.21-12.13-4.28-17.91-7.12-1.24-.61-2.38-.59-3.62-.13-4.33,1.63-8.56,2.37-13.17.49-1.61-.66-3.95.48-5.96.83-2.71.47-3.8-.49-3.17-3.29.17-.78.13-.45,2.03-1.31,5.23-2.37,11.04-1.57,16.35-3.38,2.83-.96,5.31,1.01,8.04,1.14-2.07,1.06-4.02-.12-6.11.21,2.57,1.33,4.44,4.79,8.37,1.55.93-.77,3.41-1.4,5.31-.12,1.37.93,3.19,1,4.51.08,3.48-2.43,6.24.93,9.39.91-.79,4.61,5.28,4.12,5.77,7.78h.01Z"/>
  <path class="cls-1" d="M230.73,149.99c-3.43-.48-4.37-2.53-3.6-5.68,1.46-5.99,3.88-11.12,9.37-14.85,3.08-2.09,4.99-5.92,7.36-9.02.8-1.05,1-2.58,2.84-3.2-.69,3.53-2.82,6.08-4.47,8.82-.5.84-1.22,1.5-.77,2.47.67,1.46,2.46,3.52,3.17,3,2.39-1.78,5.01,5.36,7.17-1.11-1.25,4.8-1.16,8.4,4.89,9.57-7.47,1.12-1.76,4.27-1.93,6.97-3.71-3.24-7.02-6.22-11.17-7.98-4.82-2.04-11.78-.45-11.6,3.06.15,3-1.05,5.39-1.39,8.1,0,0,.15-.15.15-.15Z"/>
  <path class="cls-1" d="M290.95,212.7c.47-4.58-2.79-2.31-4.9-2.73,1.25-2.72,4.9-3.25,5.12-6.43.17-2.54.44-5.01,1.17-7.57,1.21-4.25,2.87-8.49,2.59-13.15-.1-1.68,2.17-3.64.49-5.2-1.5-1.39-2.73,1.8-5.54.82,4.32-2.81,8.12-5.28,11.92-7.75-6.01,7.79-6.61,7.29-1.42,10.78-1.39,2.49-2.75,4.92-4.12,7.36,1.73,1.4,2.41-2.97,3.68-.39.59,1.2-.03,2.62-2.05,2.88-1.5.2-2.3,1.52-2.02,3.3,2.89.55,4.55-2.17,7.48-2.45-9.18,3.7-10.78,11.77-12.42,20.54Z"/>
  <path class="cls-1" d="M157.02,286.4c-1.88,4.06-3.57,6.98-3.9,10.59-.29,3.1-5.11,5.04-9.15,4.4-3.68-.58-6.8-2.54-10.2-4.27,3.73,1.42,6.31-5.32,10.43-1.1,1.34-3.76,6.58-.84,7.93-4.67.71-2.01,2.35-3.26,4.89-4.95Z"/>
  <path class="cls-1" d="M147.83,279.06c1.06,6.77-3.57,9.5-8.23,12.18-.59.34-1.28.11-1.64-.47-.46-.71.1-1.2.63-1.51,1.44-.85,2.93-1.63,5.6-3.1-5.31.18-9.42-.78-12.94,2.12-.88.73-1.37.36-1.93-.19-1.03-1.02.11-1.42.52-2.2,4.03-7.73,11.66-5.48,18-6.83Z"/>
  <path class="cls-1" d="M147.87,266.12c3.92-2.23,6.79-3.86,9.76-5.55-2.38-2.15-6.41-.96-8.67-3.97,1.07-.07,2.26.22,2.79-.25,4.05-3.51,6.2-.06,8.85,2.14,5.16,4.3,7.29,9.39,4.56,15.89-.4.96-.03,3.19-2.04,2.21-2.15-1.05.4-1.64.7-2.26,2.2-4.47-1.45-6.99-3.36-9.84-1.54-2.3-3.99-.39-6.02.08-1.79.42-3.58.84-6.57,1.54Z"/>
  <path class="cls-1" d="M278.13,551.1c-3.16,3.55-8.04,4.12-11.76,6.99-5.76,4.44-8.74,10.49-11.99,16.52-2.08,3.87-4.07,7.78-6.15,11.64-.46.85-.88,2.41-2.24.73.74-.88,1.42-1.8,1.06-3.07,3.34-1.23,3.14-4.84,4.67-7.25,3.05-4.84,3.71-10.78,7.29-15.64,1.41-1.92,1.33-3.87,4.37-3.06,1.73.46,2.54-1.2,3.1-2.39,1.77-3.78,6.02-3.36,8.83-5.39.88-.64,2.03.47,2.94,1.05,0,0-.13-.13-.13-.13Z"/>
  <path class="cls-1" d="M289.86,542.9c3.27-2.67,7.35-3.94,11.15-5.17,8.59-2.77,16.34-6.69,23.39-12.31,1.34-1.07,1.37-4.54,3.28-3.26,1.67,1.12-1.52,3.15-1.4,5.33.06,1.02-.94,3.68-3.88,1.96-2.31-1.35-.53,2.1-2.35,2.77-5.71,2.09-10.98,5.56-16.79,7.14-3.8,1.04-6.01,3.76-9.13,5.37-2.05,1.06-4.37,2.89-2.58-1.79.27-.7-1.13-.38-1.79-.13l.09.08Z"/>
  <path class="cls-1" d="M238.54,598.46c-4.99,11.11-10.62,21.9-16.41,32.6-2.44,4.51-4.92,8.97-6.95,13.69-1.18,2.75-2.46,5.66-5.57,6.98,0,0,.09.11.09.11,5.38-10.36,10.96-20.63,16.06-31.13,3.26-6.71,6.52-13.41,10.38-19.8.62-1.03.88-2.44,2.53-2.35-.01-.01-.13-.12-.13-.12Z"/>
  <path class="cls-1" d="M126.91,369.87c4.55.23,9.36-1.3,13.35,2.47,2.02,1.9,3.27.42,3.65-2.41,3.69,4.84-2.08,8.49-.32,12.83,1.55,3.81,2.66,7.96,2.3,12.91-1.87-1.55-2.01-3.19-1.95-4.75.16-4.21-1.87-7.64-3.76-11.13-.2-.37-.66-.73-.64-1.07.1-1.33,3.74-.62,1.91-2.98-.9-1.17-2.46,1.33-3.81-.15-2.88-3.16-6.62-4.69-10.73-5.72Z"/>
  <path class="cls-1" d="M87.17,189.34c1.35-.25,2.69-.5,4.15-.77-.48-.72-.93-1.41-1.38-2.1.18-.17.37-.35.55-.52,2.81,2.94,5.2,6.52,8.52,8.66,4.95,3.19-.12,7.44,2.14,10.72-2.48-2.35-5.55-3.09-9.03-3.87,2.39-1.8,4.03.35,6.71-.3-3.93-4.28-4.76-10.73-11.62-11.83-.01,0-.02.01-.02.01Z"/>
  <path class="cls-1" d="M366.84,188.74c5.21-2.88,5.35-8.33,5.54-13.04.17-4.33,2.51-6.59,5.07-9.18-4.06,8.57-3.16,18.78-9.17,26.68-1.47-1.1,1.69-4.03-1.54-4.58,0,0,.1.12.1.12Z"/>
  <path class="cls-1" d="M344.87,313.73c-2.44-1.48-.6-3.83-1.05-5.75-1.81-7.72-3.06-15.57-3.02-23.56,0-.87-.35-1.95,1.3-2.49.62,5.9,1.31,11.7,1.83,17.52.3,3.41.34,6.85,1.88,10,.86,1.77-.48,2.95-1.04,4.36,0,0,.11-.09.11-.09Z"/>
  <path class="cls-1" d="M288.98,342.87s-.21-.04-.21-.04c.69.02.85.43.31.75-4.94,2.95-9.92,5.84-14.88,8.76-1.23.72-2.6.92-3.23-.49-.75-1.69,1.18-1.53,1.95-1.86,3.47-1.46,6.58-3.49,9.72-5.54,1.82-1.19,3.74-3.08,6.34-1.58Z"/>
  <path class="cls-1" d="M55.91,114.91c2.65-1.88,4.52-5.24,8.54-4.57-1.14,1.21-2.29,2.41-3.49,3.67,1.27,2.08,3.62-1.04,5.04,1.23-1.69,2.4-8.11.56-6.23,6.34,0,0,.12-.11.13-.11-1.87-.52-4.18.45-5.7-1.77.79-.99,1.92.09,2.8-.35.6-.3,1.13-.62,1.03-1.33-.1-.75-.6-.91-1.35-.82-3.95.49-1.73-1.13-.76-2.3Z"/>
  <path class="cls-1" d="M75.74,115.02c3.88-3.11,8.51-2.22,12.82-1.93.87.06,6.57-.43,3.65,4.48-.56.94,1.16,1.65,1.76,2.52.73,1.05,2.44,1.89.62,3.4,0,0,.13.05.13.05-1.79-3.65-6.58-4.02-8.43-6.5-3.43-4.6-7.06-1.88-10.62-2.16l.06.14Z"/>
  <path class="cls-1" d="M340.93,351.95c2.17,2.82-.56,3.56-1.87,5.16-1.31,1.61.93,3.82-.22,6.15-1.86-5.51-3.54-10.72-5.41-15.86-.31-.84-.2-2.16-1.69-2.5-.8-.18-2.7,2.41-2.38-.73.1-.97.98-1.86,1.5-2.79.51,1.95,3.8.6,3.75,3.06-.05,2.63,1.24,4.82,2.02,7.19.4,1.21.68,2.63,2.13,2.81,1.63.2,1.07-1.97,2.17-2.5Z"/>
  <path class="cls-1" d="M2.38,301.78v-35.14c.26,0,.52-.01.78-.02v35.11c-.26.02-.52.03-.78.05Z"/>
  <path class="cls-1" d="M207.94,677.28c-2.63.12-1.43-2.05-1.49-2.99-.24-4.19-1.29-8.18-2.3-12.2,0,0-.03-.01-.03-.01,3.42-.78,5.09.68,4.73,4.07-.4,3.75,2.32,7.82-1.1,11.27,0,0,.18-.14.18-.14Z"/>
  <path class="cls-1" d="M247.05,583.92c.36,1.28-.33,2.19-1.06,3.07-.26,5.26-4.81,7.73-7.46,11.46.01.01.13.12.14.13-1.16-3.41,1.73-5.39,2.94-7.93,1.83-3.85,3.96-7.55,6.94-11.02-.5,1.43-1,2.86-1.5,4.29Z"/>
  <path class="cls-1" d="M207.94,677.28s-.18.14-.18.14c3.3-1.46,2.83,1.45,3.05,2.91.8,5.25,1.28,10.54.82,15.52-3.44-4.66-.81-11.31-4.54-16.26-.64-.86-.08-1.77.85-2.31Z"/>
  <path class="cls-1" d="M330.41,494.56c.74,8.05-1.14,15.83-2.73,23.65,1.19-7.85-.1-15.96,2.73-23.65Z"/>
  <path class="cls-1" d="M243.91,367.9c-1.24.44-2.48.88-3.72,1.33-2.9-2.25-.85-4.21,1.03-4.48,3.63-.52,6.6-3.09,10.35-2.9,0,0-.09-.11-.09-.11-1.86,2.87-5.04,4.12-7.57,6.16Z"/>
  <path class="cls-1" d="M127.9,321.61c4.79-1.5,16.01.85,18.87,4.25-6.5-1.66-12.53-3.7-18.88-4.24,0,0,0,0,0,0Z"/>
  <path class="cls-1" d="M289.77,542.82c-4.79,1.48-6.62,7.14-11.65,8.28,0,0,.13.13.14.14-.54-1.6-1.32-3.01,1.21-3.98,3.49-1.34,6.01-4.99,10.37-4.36.02.02-.07-.06-.07-.06Z"/>
  <path class="cls-1" d="M305.45,335.52c-1.37-5.34,2.67-7.04,6.44-9.89-.97,4.66-4.97,6.44-6.44,9.89Z"/>
  <path class="cls-1" d="M402.59,456.61c-1.9,1.01-3.36.26-4.37-1.33-1.71-2.7-3.25-5.49-5.34-9.05,4.84,2.93,5.82,7.98,9.66,10.45.02-.02.04-.07.04-.07Z"/>
  <path class="cls-1" d="M209.62,651.74c-1.33,3.71.24,8.96-5.48,10.34,0,0,.03.01.02.01-.95-4.94,4.06-6.63,5.57-10.23-.01-.01-.1-.12-.1-.12Z"/>
  <path class="cls-1" d="M20.29,140.05q-2.12-4.35-7.47-.59,2.24-4.08,5.85-6.02c.55,2.24,1.09,4.43,1.63,6.61Z"/>
  <path class="cls-1" d="M331.31,521.4c4.02-2.99,8.39-5.23,13.33-6.24-4.44,2.08-8.89,4.16-13.33,6.24Z"/>
  <path class="cls-1" d="M150.49,326.53c.93-3.81-2.26-6.68-2.34-10.29-.02-.75-.55-1.47,1.13-2.34,1.18,4.26,3.08,8.15,1.2,12.63,0,0,.01,0,.01,0Z"/>
  <path class="cls-1" d="M375.59,505.31c2.38-.53,5.55.83,4.85-2.95-.01-.06,1.3-.64,1.62-.42,1.23.82-1.06,2.2.49,3.37.96.72-.09,1.24-.91,1.26-1.79.06-3.66.67-6.06-1.25Z"/>
  <path class="cls-1" d="M29.26,123.3c4.13-2.7,8.52-2.85,13.06-1.92-4.35.64-8.71,1.28-13.06,1.92Z"/>
  <path class="cls-1" d="M36.26,407.76c-2.65,2.56-5.35,4.66-9.31,3.5,3.83.62,4.71-5.59,9.31-3.5Z"/>
  <path class="cls-1" d="M314.4,192.41c-3.59-.02-4.01,3.99-7.23,3.3,2.54-4.74,2.69-4.83,7.23-3.3Z"/>
  <path class="cls-1" d="M315.18,28.17c2.96.8,1.83,2.57,1.2,4.35-.42,1.19-1.15,2.18-2.29,1.56-1.94-1.07-.11-1.54.6-2.07,1.5-1.14-.4-2.67.5-3.83Z"/>
  <path class="cls-1" d="M82.31,578.42c-3.15-2.22-4.81-4.65-1.15-7.86,0,0-.15.12-.15.12.55-.62,1.91-.77,1.84-.41-.55,2.6,1.04,4.57,1.67,6.81.8,2.83-1.87.23-2.21,1.35Z"/>
  <path class="cls-1" d="M111.7,431.88c.83-3.09,3.28-4.42,5.99-5.46.71-.27,1.59-.56,1.86.47.22.86-.44,1.41-1.23,1.75-2.38.74-3.56,3.91-6.62,3.23Z"/>
  <path class="cls-1" d="M89.64,549.79c-2,1.42-4.11,3.27-6.54,4.47-.96.47-2.26-1.07-2.22-2.43.03-1.14.28-2.8,2.04-2.35,1.9.48,2.84-.74,4.05-1.63.36-.26.2-2.09,1.22-.45.46.73,1.88.73,1.46,2.39Z"/>
  <path class="cls-1" d="M66.21,563.3c-1-.1-2.3-.6-2.11-1.47,1.05-4.79-2.19-8.68-2.51-13.17-.09-1.33.07-2.38,1.42-4.6-1.11,7.67,5.54,12.63,3.06,19.38,0,0,.14-.13.14-.13Z"/>
  <path class="cls-1" d="M59.6,538.59c1.37-.5,3.05-.3,3.71-2.18.9-2.59,2.53-1.35,4.01-.58-3.72,1.15-4.89,4.99-7.72,7.55v-4.78Z"/>
  <line class="cls-1" x1="100.07" y1="724.03" x2="101.75" y2="722.73"/>
</svg>