<?xml version="1.0" encoding="UTF-8"?>
<svg id="Layer_1" xmlns="http://www.w3.org/2000/svg" viewBox="0 0 221.68 232.69">
  <defs>
    <style>
      .cls-1 {
        fill: #f7f7a3;
      }
    </style>
  </defs>
  <path class="cls-1" d="M92.94,95.01c-2.79.28-4.92.47-7.07.18-2.48-.34-4.3,1.11-5.19,3.09-1.65,3.65-4.46,3.54-7.55,2.93-2.47-.5-4.54-1.81-6.61-3.3.31-.29,6.89-6.54,6.89-6.54,1.16-2.64,3.64-3.04,6.03-3.22,1.56-.11,2.75-.55,2.92-2.03.19-1.59-1.29-2.2-2.53-2.66-2.22-.83-4.21.15-6.2,1-2.2.93-4.19,2.32-6.65,2.65-3.62.48-8.13-1.61-9.54-4.55-1.46-3.03-.48-7.65,2.32-9.87,1.21-.96,3.03-3.19,3.58.72.16,1.1,1.28,1.82,2.55,1.16,1.53-.79,2.53-1.9,1.62-3.77-1.21-2.48-2.53-4.94-.58-8.01-6.12-.57-11.84-1.27-17.59-1.61-8.07-.48-15.98-1.85-23.76-3.97-1.66-.45-3.24-.71-4.94-.39-5.84,1.09-11.45-.42-17.09-1.55-.87-.17-1.72-.29-2.33-1.38-2.39-4.29-1.34-6.67,3.57-6.31,3.64.27,6.67-1.3,9.99-1.88,1.39-.24,2.61-.25,3.85.28,7.32,3.14,15,3.01,22.71,2.47,4.73-.33,9.41.2,14.03.93,2.82.45,5.42.47,8.53-.99-5.2-3.51-8.91-8.48-15.15-10.08-7.68-1.96-13.78-6.71-19.61-11.82-2.01-1.76-4.07-3.11-6.76-3.88-5.27-1.51-9.28-5.44-13.8-8.36-2.11-1.36-.75-4.17-.24-5.96.38-1.33,2.71-1.75,4.35-.47,2.91,2.27,6.42,2.35,9.85,2.53,1.7.09,3.32.59,4.11,1.93,3.64,6.15,10.52,7.24,16.04,10.37,4.26,2.41,9.15,3.67,13.17,6.57,2.79,2.01,5.93,2.93,9.18,3.69,1.54.36,2.75.19,3.72-1.32,1.46-2.27,3.47-3.6,6.39-3.09,3.16.55,4.44-1.29,4.6-4.08.16-2.73.52-5.38,2.13-8.23-2.48.82-4.45,1.65-6.49,2.11-3.5.8-7.39-1.94-7.4-5.05,0-1.78.55-3.07,2.55-1.79,2.05,1.31,3.58.6,4.53-1.18,2.05-3.81,5.56-4.15,9.03-3.61,4.92.76,8.88,0,12.3-3.99,2.77-3.23,9.06-3.34,12.91-.61,1.12.8,1.7,1.14,3.02.25,5.07-3.44,10.03-3.1,14.23,1.26,2.95,3.06,5.99,3.55,9.71,1.97,1.21-.52,2.52-.82,3.81-1.14,5.81-1.45,7.89-.37,10.06,5.15,1.39,3.54,3.17,4.4,6.6,2.68,2.81-1.41,5.71-1.73,8.73-1.83,1.55-.05,2.81.53,4.01,1.38.59.42,1.34.78,1.15,1.63-.21.93-1.04.79-1.76.79-4.52.04-8.39,1.71-11.92,4.51-6.07,4.81-9.46,4.46-14.7-1.17-.22-.23-.62-.29-1.55-.7,1.86,2.92,1.38,5.78,1.86,8.5.32,1.8.91,2.72,2.91,2.9,3.32.31,6.87.45,8.26,4.52.31.92,1.26.17,1.93.19,4.32.13,7.72-2.19,11.16-4.28,6.35-3.86,13.36-6.37,19.89-9.85,3.03-1.61,6.3-2.71,8.2-6.05,1.09-1.92,3.59-2.86,5.68-2.64,3.1.34,5.48-.95,7.95-2.26,1.84-.98,3.99-1.67,5.09.39,1.06,1.99,1.75,4.84-.77,6.42-4.74,2.97-8.9,7.13-14.58,8.3-3.52.73-5.35,3.46-7.78,5.44-5.63,4.58-11.58,8.56-18.63,10.48-5.74,1.57-9.07,6.4-14.32,9.33,2.75,1.83,5.31,1.74,7.7,1.36,9.43-1.51,18.93-1.28,28.42-1.34,3.12-.02,6.13-.13,8.91-2.19,2.18-1.62,5.14-1.06,7.29.08,2.5,1.33,4.94,1.36,7.55,1.44,1.78.05,4.26.24,4.21,2.39-.05,2.14-.64,5.03-3.49,5.49-4.59.74-9.22,2.53-13.87,1.45-5.31-1.23-9.98,1.03-14.8,2.07-9.83,2.11-19.85,2.02-29.73,3.28-1.3.17-2.6.33-4.42.57,2.02,1.54,4.36,2.02,5.1,4.27.27.82.59,1.68.08,2.43-.63.94-1.45.27-2.26.1-2.29-.49-4.64-1.52-7.1.45,1.62,1.27,3.51.75,5.13,1.06,4.6.87,7.12,3.36,7.42,7.85q.43,6.49,6.93,7.2c-1.41,3.45-4.99,5.33-8.35,3.23-4.78-2.97-9.68-3.75-15.04-3.37-2.09.15-3.19-1.41-4.28-2.9-1.05-1.43-2.31-2.48-4.28-1.89-.65.19-1.17.59-1.01,1.26.42,1.82,1.31,3.37,3.2,4.03,1.12.39,2.3.65,3.45.94,4.19,1.05,6.4,3.49,6.41,7.08,0,3.74-2.68,7.21-6.48,8.11-3.4.81-6.44.07-8.88-2.58-.68-.73-1.23-1.65-.98-2.6.29-1.12,1.3-1.19,2.36-1.07.66.08,1.7.21,1.71-.78.02-1.33-1.22-.95-1.93-.91-1.68.09-3.34.53-5.01.52-2.44,0-2.41.87-1.66,2.86,3.15,8.41,6.26,16.84,9.1,25.36,3.23,9.68,5.26,19.67,6.47,29.79.23,1.9,1.05,3.42,1.67,5.09,2.12,5.66,4.06,11.28,7.93,16.24,4.86,6.24,6.41,14.12,8.79,21.54.7,2.17,1.61,4.27,2.46,6.39,1.03,2.55,3.43,2.51,5.52,2.5,3.36-.01,6.72-.43,10.08-.64,1.25-.08,1.85-1.04,2.66-1.73,1.58-1.35,3.26-1.14,4.58.12,1.54,1.45.79,3.22-.32,4.54-.9,1.07-2.03,1.95-3.58,2.28-4.59.98-8.5,3.18-11.55,6.83-1.26,1.51-2.95,2.49-4.66,3.39-3.18,1.68-6.29.77-7.86-2.55-1.18-2.49-1.98-5.17-2.82-7.81-1.41-4.37-4.06-7.69-7.52-10.74-5.32-4.69-8.78-10.78-10.98-17.52-2.3-7.06-4.29-14.27-11.12-18.65-.77.48-.56,1.21-.54,1.93.16,4.85-.18,9.57-2.8,13.91-1.65,2.73-2.06,5.86-2.12,9.06-.15,8.5-.81,16.99-.26,25.5.45,6.93,4.87,11.47,11.88,12.06.48.04.96.19,1.43.19,2.42-.05,4.9.07,4.87,3.31-.03,3.43-3.41,3.94-5.27,3.56-6.08-1.24-12-.23-17.99.15-3.51.22-5.58-1.92-5.59-5.56-.01-5.54.61-11.05-.18-16.61-.33-2.33-1.14-4.4-1.91-6.53-2.75-7.66-2.36-15.35-.32-23.09,2.05-7.75,1.02-15.55.02-23.29-.3-2.36-.5-4.75-1-7.15-.94,2.49-1.82,4.96-1.72,7.68.28,7.71-.33,15.39-1.48,23-.68,4.51-.04,8.95.45,13.33.84,7.57-.3,14.87-1.72,22.2-.56,2.88-.24,5.38,1.95,7.67,1.56,1.63,2.72,3.85,1.7,6.22-1.06,2.47-3.34,2.58-5.78,2.59-9.7.04-9.81.09-7.19-9.2.66-2.36.8-4.73-.11-6.68-3.68-7.9-3.37-16.1-2.52-24.42.75-7.27-.28-14.41-2.07-21.42-1.17-4.58-.01-9.37-1.57-14.27-2.71,2.43-2.92,5.98-4.84,8.52-.35.47-.36,1.26-.78,1.61-6.77,5.69-7.34,14.89-12.27,21.63-2.36,3.23-5.37,5.85-7.84,8.97-2.12,2.68-3.68,5.31-3.95,8.99-.22,3.08-2.03,6.01-2.67,9.21-.38,1.91-2.56,2.76-4.74,1.91-3.26-1.27-5.56-4.06-8.79-5.52-1.49-.68-1.19-3.05.52-3.87,5.59-2.65,6.75-8.13,8.71-13.09,2.45-6.17,2.7-12.86,4.59-19.21,1.64-5.47,4.55-9.89,8.81-13.27,5.02-3.98,7.23-9.27,8.21-15.15,2.44-14.57,6.46-28.51,14.24-41.25,2.01-3.3,3.1-7.15,4.79-11.17ZM96.39,6.23c-3.55,3.18-7.75,3.39-12.14,2.57-2.22-.41-4.56-.43-5.91,1.38-1.81,2.43-3.68,4.41-7.24,4.39,1.92,2.13,3.62,1.97,5.57,1.07,3.29-1.52,6.82-2.07,10.38-2.7,4-.71,7.18-3.17,9.28-6.79,4-1.34,8-2.59,12.31-.95-4.14-4.52-7.82-4.11-12.25,1.03ZM126.9,35.25c.6-6.07.22-6.99-3.5-8.32-.11,1.58-.23,3.13-.31,4.67-.13,2.54-.24,5.06-2.78,6.62-1.8,1.11-2.74,2.66-1.97,4.86.61,1.75,1.4,3.74,3.29,3.96,1.84.22,3.66-.79,4.77-2.67-2.13-.6-4.54-1.01-3.6-3.83.73-2.19,1.67-4.51,4.23-5.42-.25,1.9-1.75,3.11-2.56,4.7-.94,1.86-.82,3.44,1.88,3.14.98-.11,1.96.15,2.83,0,4.63-.84,9.64-.04,13.72-3.35,2.58-2.09,2.74-3.72.42-6.1-1.06-1.09-2.27-1.13-3.6-1.29-2.91-.36-5.05-1.47-4.6-5.05.44-3.43-1.32-5.07-4.66-5.39-2.36-.23-4.79-.89-4.87-3.78-.07-2.64-1.88-3.29-4.11-4.78.88,2.86,1.97,4.98,1.94,7.43-.03,2,.79,3.7,2.47,5.27,3.41,3.2,3.55,6.6,1,9.32ZM87.07,77.39c-3.23-2.13-3.83-5.28-1.41-8.01,1.03-1.15,2.28-2.11,3.41-3.17,1.15-1.07,1.24-2.55.43-3.58-.91-1.16-2.2-.4-3.17.38-1.38,1.11-2.47,2.68-4.49,2.74-.21-1.44,2.05-1.32,1.74-3.2-3.41,1.05-6.83.68-10.29.32-5.12-.53-6.16.96-4.29,5.71.96,2.44,1.65,4.94-.62,7-2.08,1.89-4.38,1.46-6.57-.21-.38,4.76.19,5.22,3.99,3.77,1.54-.59,3.11-.83,4.85-.69,6.27.5,7.49-.72,7.91-7.15.16-2.44.43-4.89,3.41-5.69-2.47,2.54-2.07,5.91-2.66,9.01-.77,4.03-3.26,5.73-7.22,4.95-1.58-.31-3.11-.45-4.61.2-1.63.7-3.16,1.9-5.09,1.15-1.99-.77-1.9-2.88-2.6-4.75-2.08,4.93,1.25,9.46,6.22,9.02,2.57-.23,4.91-1.18,7.04-2.57,1.55-1.02,3.24-1.59,5.02-1.75,2.71-.25,5.92,2.07,6.25,4.41.32,2.31-.7,4.75-2.81,4.73-5-.06-6.85,2.16-6.58,6.81,0,.11-.13.22-.14.33-.02.77-1.33,1.67.31,2.29,1.14.43,2.14.52,2.89-.55.76-1.07,1.17-2.8,2.16-3.21,4.07-1.67,6.02-4.82,8.15-8.49,2.46-4.25,3.09-4.12-.12-7.83-.54-.62-1.33-1.08-1.23-2.08,4.39,2.13,5.94,6.74,2.94,9.81-1.89,1.93-2.22,3.92-2.21,6.31,2.42-.18,5.44.27,5.66-2.8.53-7.45,1.51-15.08-3.52-21.71-.75-.99-1.09-.9-1.93-.25-2.77,2.15-2.99,4.19-.82,8.77ZM23.27,50.33c-1.45-.76-3.03-1.11-4.39-2.25-2.29-1.9-4.65-.51-6.93.46,2.31.23,4.43.75,6.13,2.21,2.02,1.73,3.67,1.45,5.24-.51,1.19,1.3-1.38,3.6.95,4.41,6.47,2.24,13.14,3.78,19.98,4.28,10.6.78,21.23,1.23,31.81,2.15,2.93.26,5.44-.57,8.07-1.29.51-.14,1.24-.65,1.29-1.06.11-.89-.79-1-1.47-1.26-4.7-1.81-9.53-3.34-13.92-5.83-1.6-.91-3.3-1.29-4.84-.8-5.72,1.81-11.38-.01-17.05.05-8.3.09-16.56-1.22-24.88-.57ZM199.25,54.04c6.08,2.27,6.52,2.14,7.12-2.25-2.4.9-4.26,3.38-7.21,2.35-.11-.94-1.51-1.61-.87-2.58.66-1.01,1.48.1,2.22.27,1.29.29,2.43-.02,3.39-.83,1.6-1.35,3.45-2.06,6.44-2.22-3.17-1.48-5.43-2.41-7.71-.39-1.29,1.14-2.81,1.24-4.39,1.35-3.47.24-6.93.73-10.4.79-8.27.15-16.72,1.63-24.74.72-10.45-1.18-18.11,4.42-27.62,7.2,4.07,2.45,7.68,3.06,11.63,2.69,8.59-.81,17.19-1.54,25.8-2.08,9.01-.56,17.9-1.6,26.36-5.02ZM202.54,19.71c-1.57-.37-.66-2.48-2.06-3.02-1.92,1.3-2,4.78-5.3,4.26-.83-.13-1.94,0-1.99-1.08-.06-1.41.96-.94,1.78-.72,1.2.32,2.02-.65,2.29-1.38.83-2.24,2.66-3.69,4.3-5.58-2.99-.31-4.88.93-5.98,3.09-.72,1.41-1.71,2.12-3.02,2.85-8.08,4.49-16.65,7.98-24.85,12.2-.74.38-2.49.26-1.93,1.95.68,2.05-.56,1.8-1.87,1.79-5.54-.03-10.68,1.35-15.29,4.51-5.43,3.72-11.29,6.33-17.99,6.67-1.03.05-2.21-.06-2.91,1.2,6.32.9,12.56,1.99,18.84,2.62,4.11.41,7.86-.48,11.42-3.3,3.8-3.02,7.1-6.83,12.1-8.32,6.71-2.01,13.26-4.83,18.16-9.91,4.08-4.23,8.72-6.71,14.27-7.91,2.25-1.73,4.49-3.47,6.74-5.2-.36-.68-1.43.18-1.8-.9,1.07-.66,2.21-1.29,3.27-2.03.56-.39,1.36-.92.76-1.7-.25-.33-1.13-.4-1.64-.26-4.84,1.35-7.71,5.4-7.3,10.15ZM20.35,18.45c.39,1.85,2.11,2.86,3.41,2.76,2.89-.22,4.47,1.5,6.11,3.17,4.18,4.25,8.92,8.02,14.39,9.98,7.83,2.81,14.58,6.98,20.86,12.25,1.71,1.44,3.98,1.9,6.33,2.22,8.02,1.08,15.49-2.55,24.13-2.14-1.91-1.48-3.43-1.48-4.93-1.65-4.64-.51-9.08-1.14-13.26-3.92-5.13-3.41-10.39-6.98-17.07-7.07-1.95-.03-4.84.64-5.09-2.94-.03-.44-1.06-.89-1.7-1.2-5.17-2.51-10.42-4.87-15.54-7.49-4.5-2.31-9.75-3.47-12.62-8.4-.95-1.63-3.05-1.7-5.31-1.81,1.82,1.57,3.14,2.94,3.88,4.79.42,1.06,1.34,1.61,2.42,2,.86.31,2.76-.83,2.43.98-.3,1.6-2.26.98-3.45.86-1.77-.18-2.33-1.96-3.17-3.21-.59-.88-.68-2.13-2.19-1.84-2.73-3.18-5.62-6.1-10.24-6.72.23,2.36,2.14,2.54,3.24,3.53.49.44,1.37.52,1.38,1.39.02,2.53,3.2,4.9,5.99,4.44ZM126.64,155.1c.36-1.29.77-2.2.86-3.13.78-8.23,2.47-16.33,3.7-24.49,1.09-7.27,1.63-14.56-.8-21.73-2.31-6.82-4.93-13.58-4.33-21.01.12-1.42-.18-2.87-.19-4.31-.02-2.28-1.07-3.26-3.38-3.06-1.43.13-2.89.05-4.33-.03-.88-.05-1.8-.41-1.65-1.49.18-1.3,1.3-.92,2-.64,1.27.52,2.42.71,3.83.32,6.66-1.86,9.34-6.79,7.01-14.01-1.03-3.18.15-4.55,2.88-5.32,1.27-.36,2.62-.43,3.89-.78,3.89-1.07,7.87-1.9,11.28-4.39-4.04-.08-7.91-.78-11.8-1.52-6-1.14-11.97-.3-17.9.77-.84.15-1.88.68-2.3-.18-.53-1.06.66-1.41,1.41-1.62,1.47-.4.91-.94.61-2.02-.89-3.16-2.03-5.23-5.69-3.11-.28.16-.71.05-1.07.05-4.28.09-6.13,2.99-4.06,7.17-10.94-2.64-21.48-1.21-32.43.83,4.73,2.54,9.33,3.83,14.15,4.51,4.58.64,5.14,1.59,3.81,5.98-2.52,8.32,2.82,14.67,11.21,13.34.68-.11,1.49-.5,1.7.58.13.66-.26,1.2-.91,1.36-1.15.28-2.34.71-3.5.66-4.13-.2-4.63.19-4.77,4.23-.14,3.95-.13,7.87-.72,11.83-.68,4.55-3.48,8.13-4.55,12.46-2.39,9.62-1.61,19.26-.81,28.95.41,4.96.08,10,1.72,15.33,5.21-5.93,10.32-11.28,14.01-17.83,1.73-3.08,3.61-5.85.67-9.15-.05-.06.17-.35.49-.97,2.33,2.82,5.05,1.58,7.59.52.6.98.52,1.95.05,2.29-2.26,1.65-1.47,3.22-.27,5.06,2.03,3.12,3.43,6.58,4.97,9.97,2.21,4.87,3.4,10.29,7.66,14.61ZM134.24,116.64c-.18,2.49-.2,3.89-.4,5.28-1.57,10.94-3.2,21.87-4.77,32.81-.41,2.84-.15,5.44,2.47,7.43,5.01,3.8,7.27,9.36,9.17,15.11,2.23,6.75,4.63,13.65,10.11,18.37,5.87,5.05,9.11,11.23,11.14,18.47,1.46,5.22,4.32,5.94,8.38,2.31,4.24-3.79,8.48-7.46,14.26-8.74,1.66-.37,2.92-1.41,3.29-3.89-2.37,1.24-4.17,2.72-6.5,2.66-3.12-.08-6.22,0-9.32.58-4.08.77-6.52-1.44-8.24-4.85-2.83-5.63-3.52-11.94-5.7-17.81-2.94-7.9-9.88-13.51-11.7-22.15-.83-3.96-3.08-7.75-3.61-11.95-1.41-11.22-4.31-22.03-8.58-33.63ZM86.97,112.18c-1.56,2.93-2.69,5.33-3.72,7.83-4.26,10.38-6.21,21.36-8.49,32.24-.87,4.15-3.07,7.25-5.89,10.02-4.76,4.68-9.14,9.39-10.64,16.34-1.28,5.96-1.91,12.12-4.3,17.8-2.2,5.21-3.33,11.23-10.06,13.85,3.43.79,5.04,3.39,7.5,4.82,2.1,1.22,3.04.79,3.67-1.77,1.13-4.58,1.89-9.34,4.23-13.53,1.65-2.96,3.94-5.47,6.22-7.96,3.17-3.46,6.65-6.88,7.76-11.54,1.38-5.8,4.62-10.17,8.25-14.73,2.9-3.65,4.15-8.59,7.34-12.27.71-.82.16-1.87.08-2.8-.64-7.43-1.46-14.84-1.89-22.28-.3-5.09-.06-10.21-.06-16.01ZM111.13,130.23c-.3,3.33-.5,6.15-.82,8.94-.87,7.57,2.09,14.72,2.33,22.17.23,7.41,1.15,14.8-1.49,22.09-1.88,5.18-2.19,10.96-.03,15.89,3.7,8.44,3.69,17.06,3.26,25.86-.19,3.88.66,5.17,4.72,4.85,5.23-.42,10.37-1.15,15.63-.07,1.29.26,4.09.93,4.17-1.35.09-2.48-2.56-1.56-4.01-1.5-5.94.22-12.41-4.49-13.35-11.02-1.65-11.54-.78-23.17.81-34.72.21-1.54,1.67-3.87-2.26-3.61,5.1-1.36,6.28-4.69,5.99-9.12-.18-2.74.09-5.51.23-8.27.04-.87.13-1.73-.46-2.41-6.94-7.94-8.1-18.88-14.71-27.74ZM108.75,131.17c-4.55,8.65-10.76,15.09-16.7,21.75-.58.65-1.02,1.16-.91,2.17.47,4.42.46,8.92,1.27,13.27,1.91,10.23,2.2,20.47,1.69,30.85-.26,5.28-.45,10.75,2.64,15.75,1.56,2.53,1.46,5.77.7,8.81-1.69,6.82-1.66,6.83,5.21,6.44,4.37-.24,5.08-1.39,2.29-4.93-3.02-3.85-3.21-7.97-2.06-12.25,1.33-4.95,1.82-9.9,1.46-14.99-.3-4.3-.51-8.6-.59-12.91-.15-8.18,1.76-16.26,1.37-24.47-.15-3.14.51-6.18,1.03-9.27,1.1-6.42,3.3-12.72,2.59-20.22ZM111.42,12.29c-6.5-.04-8.71,1.93-9.87,8.41-.59,3.3.8,6.49.43,9.63-.44,3.69,1.2,5.58,3.81,7.73,4.06,3.34,7.53,3.38,11.14-.4.47-.5,1.27-.67,1.89-1.04,1.75-1.03,2.69-2.75,2.24-4.56-.5-2.01.06-3.74.26-5.63.73-6.94-.66-14.81-9.89-14.15ZM157.16,84.43c-1.25-3.93-2.85-5.18-6.25-5.15-8.33.08-8.36.09-9.46-8.55-.15-1.14-.39-2.05-1.35-2.79-1.73-1.31-3.35-2.73-4.24-4.83-.68-1.61-2.29-1.47-3.41-1.06-1.22.44-.73,1.83-.55,2.89.23,1.36,1.36,1.89,2.28,2.66,3.99,3.31,4.04,6.75.24,10.36-.96.91-1.97,1.82-2.66,2.93-1.55,2.49-.79,4.93,1.98,5.57,4.42,1.02,3.92,6.38,7.56,8.13.71.34-.37,2.19-1.23,3.02-.66.63-1.53,1.05-2.42,1.64,2.46,2.52,5.22,1.64,7.53.67,2.09-.87,3.56-2.9,3.43-5.48-.12-2.47-1.63-3.94-3.84-4.74-1.24-.45-2.52-.79-3.8-1.1-2.96-.73-4.25-3.1-5.19-5.58-.48-1.26-.52-3.19,1.39-3.5,2.69-.43,5.62-.97,7.3,2.25.91,1.76,2.49,2.58,4.41,2.63,2.73.07,5.46.02,8.29.02ZM157.39,15.05c-6.99.62-7.16.61-9.78-6.04-.94-2.38-2.43-3.15-4.73-2.76-1.3.22-2.6.53-3.83.99-5.39,1.98-10.53,2.93-14.56-2.66-.53-.73-1.52-1.17-2.36-1.63-2.95-1.61-7.71-.47-9.31,2.16-.4.66-.64,1.38-.26,2.05.35.62,1.04.46,1.62.26,2.98-.99,5.47-.27,7.35,2.23.74.98,1.83,1.28,2.82,1.44,3.24.54,6.42,1.02,8.92,3.46.77.75,1.97.6,2.76.24,4.39-1.97,7.36-.05,9.84,3.37,1.3,1.8,3.08,2.45,5.05,1.57,2.37-1.07,4.62-2.44,6.46-4.66ZM105.3,6.25c-2.44-.89-4.83-.67-6.97.96-4.65,3.56-9.25,7.19-13.91,10.73-.99.75-2,1.39-1.96,2.8.2,6.34-1.84,10.43-9.2,10.06-1.66-.08-3.83,1.78-2.53,3.63,1.24,1.77,3.26,3.95,6.31,1.97,1.69-1.09,3.75-1.7,5.85-1.51,2.28.2,3.81-1.01,5.34-2.4,3.37-3.05,2.16-7.17,2.51-10.87.82-8.62,5.97-14.12,14.55-15.38ZM162.8,86.51c-1.46-2.14-1.07-4.42-1.15-6.65-.17-5.09-2.02-6.91-7.07-7.01-.84-.02-1.69.09-2.53.03-2.74-.18-4.35-1.95-5.4-4.23-.51-1.11.21-2.84,1.28-2.05,3.33,2.46,6.32-.6,9.43.18-3.57-2.99-7.25-5.22-12.09-3.6-1.76.59-3.59.03-5.37-.3-.78-.14-1.78-.9-2.27.08-.49,1,.38,1.93,1.17,2.39,3.35,1.95,4.15,4.92,4.12,8.56-.04,4.09.98,4.82,5.03,4.34,4.22-.49,7.82,0,10.03,4.4.84,1.67,2.09,3.6,4.82,3.84ZM102.37,12.86c-3.49,1.5-4.41,3.91-4.61,6.62-.1,1.38-.2,2.77-1.26,3.63-2.85,2.31-2.39,5.15-1.79,8.22.68,3.48,2.03,7.03.12,10.56-.7,1.3-.13,2.18,1.08,2.47,1.23.3,2.16.97,3.16,1.66,2.24,1.54,4.43.75,4.98-1.94.48-2.31,1.09-4.79-2.01-6.11-.79-.34-1.73-1.32-1.84-2.11-1.08-7.56-3.3-15.24,2.17-22.99ZM122.89,12.39c3.25,2.49,3.5,2.51,3.77,4.65.32,2.56,1.86,3.42,4.06,3.74,4.95.71,5.29,1.13,5.63,6.3.11,1.66.09,3.7,2.45,3.7,4.41,0,7.17,1.91,7.89,6.43,1.01-.56,1.73-.98,2.48-1.36.94-.48,2.18-.76,2.18-2.07,0-1.48-1.12-2.25-2.28-3-1.19-.76-2.34-.24-3.5-.14-2.94.25-4.63-1.18-5-3.95-.2-1.53-.72-2.97-.65-4.6.13-3.2-1.75-5.01-4.88-4.68-1.88.2-3.35-.08-4.42-1.58-1.92-2.7-4.61-3.51-7.73-3.45ZM76.94,37.53c3.22,4.53,7.73,4.67,12.09,5.2,3.34.41,5.53-1.31,5.46-4.66-.07-3.36-.65-6.67-2.56-10.75-1.5,9.27-8.92,8.54-14.99,10.21ZM128.3,83.08c0,1.69-.02,3.37,0,5.06.06,4.65,1.43,5.84,6,4.87.88-.19,2.58.18,2.57-1.3,0-1.22-.4-2.65-1.82-3.28-.77-.34-1.53-.72-2.33-.99-2.95-1-3.39-2.98-2.5-5.72.83-2.56,3-4.01,4.51-5.99,1.85-2.43,1.55-5.07-.78-6.89-1.2-.93-1.85-1-2.59.68-1.91,4.35-3.54,8.7-3.07,13.57ZM92.61,25.46c.73-2.35,3.73-2.9,3.91-5.8.33-5.29,3.19-8.06,8.47-9.23,1.52-.34,3.3-.03,4.64-1.46-10-3.88-18.17,4.04-17.02,16.49ZM14.79,55.21c-2.02-5.34-6.87-7.07-12.63-4.55,2.38.6,4.45,1.12,6.91,1.74-1.82,1.15-3.3-.52-5.04.97,3.68.63,6.99,1.2,10.75,1.84ZM219.66,50.18c-8.14-1.27-10.89-.13-12.65,5.32,3.16-1.63,6.47-1.31,9.96-1.68-1.35-1.57-2.94-.47-4.5-1.58,2.58-.62,5.03.08,7.18-2.06ZM121.22,11.12c-2.78-2.68-4.98-3.2-8.21-1.97,2.63,1.34,4.75,2.16,8.21,1.97Z"/>
  <path class="cls-1" d="M160.29,202.3c3.61,2.9,3.53,7.74,6.34,10.42-1.45.08-5.21-5.51-6.34-10.42Z"/>
  <path class="cls-1" d="M107.32,36.19c2.66-2.84,5.28-1.81,8.4-.17-3.03,1.23-5.61,1.76-8.4.17Z"/>
</svg>