<?xml version="1.0" encoding="UTF-8"?>
<svg id="Layer_1" xmlns="http://www.w3.org/2000/svg" viewBox="0 0 377.69 463.73">
  <defs>
    <style>
      .cls-1 {
        fill: #f7f7a3;
      }
    </style>
  </defs>
  <path class="cls-1" d="M33.87,428.12c6.19,2.89,12.84,3.13,19.5,3.59,8.2.57,16.39,1.43,24.58,2.18,4.64.42,9.27.87,13.91,1.29,2.48.22,4.97.39,7.35,1.26,2.49.91,5.08.94,7.68,1.14,11.98.92,23.97,1.8,35.92,3.04,3.04.31,6.14.88,9.15,2.17,3.88,1.67,8.31,1.24,12.51,1.53,3.78.26,7.59.63,11.36.48,4.82-.19,9.7.07,14.46-1.01,1.27-.29,2.94.14,4.01,1.48,2.46,3.07,5.48,4.02,9.37,2.46,1.91-.76,4.07.09,6.07.4,5.36.83,10.39,2.84,15.53,4.45.47.15.85.57,1.48,1.01-2.74,1.9-5.89.77-8.72,1.5,3.6,1.12,7.22,2.36,10.9,2.17,3.77-.19,7.34.52,10.65,1.79,3.73,1.43,7.21.31,9.19-1.51,2.41-2.22,4.75-1.47,6.87-1.12,7.98,1.33,16.05,2.8,23.54,5.78,4.7,1.87,9.1,1.17,13.72,1.48,5.78.39,10.53-1.53,15.25-3.5,4.91-2.05,5.37-4.94,2.82-10.22-.27-.55-.81-1.04-.92-1.6-1.38-6.59-6.16-9.71-12.74-11.59-3.02-.86-3.46-4.45-5.34-6.63-1.36-1.57-2.22-3.48-3.46-5.15-1.13-1.52-2.37-2.89.23-4.09.23-.1.48-.62.47-.62-3.69-2.52,1.85-2.49,1.21-4.15,1.87.12,2.65-2.75,5.05-1.37,1.22.7,1.72-.54,2.22-1.17,4.06-5.2,8.23-10.37,11.23-16.18,2.09-4.05,5.66-7.46,6.09-12.24.32-3.58.82-7.21-1.35-10.57-.63-.97-.31-1.95-.58-2.9,0,0,.11.23.11.23-.41-.69-.83-1.39-1.74-2.9.06,2.6.02,4.33.16,6.05.21,2.52.06,4.9-1.74,6.94-.63.71-1.03,1.63-.44,2.5,1.69,2.53.6,3.77-1.83,5.15-1.37.77-1.89,2.77-2.83,4.19-.88,1.32-1.35,2.91-2.8,3.86-1.03-.53-.04-1.31-.55-2.07-1.27.55-1.94,1.66-2.77,2.6-.37.42-.85,1.16-1.45.3-1.33-1.93-2.08-.87-2.59.36-1.05,2.53-3.57,3.42-5.79,4.64-.55.3-1.05.84-2.01.38-1.14-.54-1.21-.37-1.21.82,0,.24-.23.69-.34.69-3.13-.14-6.54.34-9.31-.71-2.24-.85-4.61-2.31-6.6-3.89-1.24-.98-1.91-.58-2.94.12-.69.46-1.64,1.02-2.68.33-.64-.42-1.49-.8-2.08-.25-.7.65-.18,1.73.21,2.2.94,1.13,1.55,2.08-.29,2.6-1.61.45-3.39,1.16-4.71-.88-1.14-1.76-2.57-3.2-5.07-3.52-1.66-.21-2.2,1.34-1.98,1.55,1.38,1.31.35,3.75,2.67,4.5,1.13-1.15,2.15-.18,3.15.27.56.25,1.24.66,1.13,1.34-.1.64-.8.92-1.43.99-.76.08-1.71-.04-1.51-1.02.23-1.17-.68-1.31-1.4-1.67-.59,1.78-.97,3.88-3.56,1.21-.52-.53-1.76-2.08-2.45.19-.13.43-1.92-.54-2.4-.89-1.33-.99-2.11-1.06-2.78.68-1.48-3.01,1.73-4.13,1.47-6.85,1.57,1.61,2.7,2.77,3.89,3.99-.42-2.88-.62-3.05-6.15-5.14-.08.66,1.07,1.07.54,1.63-.52.55-1.08.25-1.66-.18-1.24-.93-1.72-.42-1.69.85.87.45,1.04,1.24,1.15,2.05.11.77.1,1.56-1.09,1.14-.52-.18-1.33.55-1.64-.94-.37-1.81,1.31-1.47,1.69-2.3-1.39-.13-.78-1.54-1.57-2.06-1.31-.87-2.61-1.67-4.54-.47,1.13-3.36-1.26-3.49-3-2.61-2.35,1.19-4.18-2.05-6.1-.41,3.07,1.19,4.88,3.94,7.9,5.39-1.67,1.44-2.86-.54-4.42.49,2.25.5,2.77,2.89,5.85,3.03-3.08,1.09-5-.11-6.18-1.48-2.09-2.44-3.46-1.5-5.13,0,.83,1.34,2.4.16,3.21,1.14-1.26,1.56-3.64.73-5.1,1.88.45,1.32,1.51.65,2.23.8.94.2,2.08.02,2.34,1.16.03.15-.83.75-1.18,1.39-.46.84-1.54-.1-2.07-.63-.96-.94-1.96-1.6-3.4-1.47-.68.98.98.86.88,1.66-1.87-.2-3.74-.4-6.35-.68,1.55-.67,2.74-.73,3-2.08-1.7.38-2.8-.75-4.09-1.44-.22-.85.19-1.59.45-2.35-1.1-2.89-2.99-3.65-5.5-1.62-.93.75-1.1.28-1.69-.22-.89-.75-.4-1.51.2-1.67,2.14-.59,1.46-2.21,1.4-3.55,2.6.01,2.88,2.22,4.51,3.87-.35-2.36.65-3.69,1.59-5.05-.11-.16-.21-.28-.29-.36-.55-3.98-2.24.55-3.19-.59-.58-.55-.44-1.65-1.56-2.09-1.1.56-1.72,1.82-3.34,1.82-1.63,0-.87,1.97-.82,2.06,1.44,2.23-.82,2.74-2,3.82,1.48-2.44.14-5.25.92-7.82-1.07-.01-2.27.24-2.85,1.48-.24.51-.55.82-1.12.92-.88.14-2.78-.97-1.93,1.36.04.1-1,1.53-1.97.35-.67-.82-1.31-.96-2.16-.28-.59.48-.48,1.03-.41,1.64.14,1.22,1.11,1.04,1.95,1.08.66.03,1.31.03,2.04.91-2.37-.12-5.17,1.72-6.42-.4-1.8-3.05,2.49-3.43,3.83-5.19-2.63-.76-2.35-.17-4.27.55-1.83.69-4.01,1.34-6.06,1.38-1.41.03-2.26-1.43-1.97-3.31,2.27,1.88,3.92-.48,6.12-.25-1.86-2.17-3.84-4.09-6.42-5.18-2.29-.97-5.21-.3-6.35,1.56.27-3.13-3.22-3.49-3.45-6.14-1.65,2.93-3.52-.05-5.18.56-.03,1.06,2.92,1.54,1.23,2.58-1.08.66-3.23-.06-4.43-1.22-1.56-1.51-2.76-3.2-4.84-4.4-1.83-1.06-3.06.34-4.18-.04-1.16-.39-1.37-2.65-3.21-2.58-3.42.13-5.38-2.21-7.98-3.45-2.9-1.38-4.18-4.53-7.59-5.02-1.15-.16-2.37-.91-3.08-2.1-1.25-2.1-3.08-.44-4.64-.56-.39-.03-.58.82-.26.94,1.73.65,2.12,3.47,5.25,2.2-2.92,2.41-4.24,2.18-6.57-.72-1.03,1.32,1.8,2.62-.54,3.98,3.85-.73,6.68,2.17,5.35,5.22-.68,1.56-.05,1.26.9,1.61,1.69.63,3.34,1.39,4.91,2.94-3.3.68-6.27.23-9.13-.2-1.93-.29-4.03-.35-5.64-.71-2.62-.6-5.42-1.43-8.06-2.42-2.03-.76-3.89-2.2-6.29-1.91-.23.03-.69-.28-.77-.51-1.61-4.56-6.4-2.05-9.41-3.76-2.55-1.45-5.6-2.1-6.77-5.01-.51-1.27-1.03-2.34-2.58-2.67-.71,1.18.55,1.8.52,2.7-.03.89-.18,1.66-1.28,1.72-1.01.05-1.81-.48-1.55-1.46.33-1.25-.48-2.1-.95-3.09-.4-.85-1.18-2.05.91-.95.35.19.46,0,.45-.83-.01-.62.48-1.54-.93-1.39-3.62.37-4.57-2.26-5.76-4.52-.33-.64.24-1.9-.99-1.87-.93.03-2.11.2-2.79,1.09-.53.69-.93.02-1.7.39-3.08,1.46-2.36-1.15-2.83-2.14-1.29-2.68-3.75-.6-5.62-1.76.08,1.41,1.65,2.26.74,3.55-.71,1.02-1.56-.02-2.28.26-.33,1.32,1.29,1.46,1.89,2.84-2.07-.53-2.57-2-3.36-3.06-.91-1.22-1.62-2.2-2.56-.16-1.68-1.12-3.35.67-5.06-.14-3.38-1.59-6.49-.05-9.68.5-1.82.31-.82,1.65-.86,2.59-1.53-.39-1.51-.39-1.26-2.09.03-.23-.18-.59-.4-.75-1.77-1.34-1.09-2.16.58-2.76,2.45-.87,4.41-1.87,2.05-4.67-.61-.73-.44-1.62.11-2.25,1.81-2.12,2.57-5.02,5.53-6.29.62-.26,1.49-.68,1.06-1.56-.34-.7-1.17-.4-1.77-.39-.63.01-1.25.23-1.88.33-.56.08-1.2.54-1.26-.63-.04-.78-.3-1.17.86-1.34,2.71-.41,5.1-2.08,7.48-2.64,3.46-.81,6.16-2.81,9.57-3.69,3.77-.96,7.26-3.14,11.32-3.43,4.24-.3,7.7-2.6,11.86-3.08,4.35-.5,8.6-1.57,12.95-2.03,5.31-.56,10.68-.75,16.02-1.08,1.38-.09,2.75-.15,4.79-.25-1.54.82-2.6,1.39-3.94,2.1,4.31,1.73,7.7-.93,11.44-.92,3.77.01,7.52-.35,11.35-.56-1.17-.84-2.58-.21-4.35-.98,2.49-1.72,5.44-.42,8.1-1.7-4.05-.36-7.34-1.81-10.81-2.47-2.08-.4-4.34-1.71-6.37.15-.23.21-.84.14-1.25.08-9.2-1.42-17.79,1.59-26.68,2.44-6.15.59-12.29,1.32-18.43,1.99-1.49.16-2.98.38-4.48.48-.9.06-1.84-.23-2.09-1.14-.31-1.13.83-1.3,1.59-1.45,3.55-.73,7.1-1.58,10.71-1.99,2.69-.3,5.22-1.05,7.99-1.36-2.21-2.87-5.33-2.94-8.25-2.57-3.28.42-6.63,1.08-9.63,2.28-4.45,1.78-9.2,2.43-13.82,3.57-2.36.58-4.71-.33-7.06-.1-3.9.39-7.53,1.61-11.06,3.04-1.4.57-2.6,1.28-3.08,3.02-.89,3.16-5.29,5.51-9.21,5.47-.49,0-1.05.26-1.45.55-4.08,2.97-8.13,5.98-12.21,8.95-.52.38-.98,1.36-1.8.78-.66-.47-1-1.33-.21-2.1.36-.35.65-.79.18-1.8-3.71,3.1-7.12,6.16-8.36,10.72-.68,2.51-1.07,5.08-1.65,7.62-.36,1.57-.95,3.02-3.08,3.68-.2-1.96-.6-3.67-.55-5.47-.67,1.93-1.67,3.86-.89,5.94,3.45,9.2,5.75,18.81,11.62,27.18,1.18,1.68,1.75,2.26,4.22,3.75-.56-1.6-1-2.88-1.48-4.28,3.55,2.09,6.04,5.55,6.74,9.45-2.04-.64-3.73-2.74-6.08-1.21-.39.25-1.34-.1-1.36.76-.02.81.83.74,1.39,1,4.96,2.29,10.17,4.15,13.63,8.64,1.68,2.18,2.17,4.85,4.01,6.9-.21-1.13-.43-2.25-.76-4.04,3.63,2.53,6.75,4.7,9.87,6.88-3.82.74-7.11.6-9.13-2.74.62,1.3-1.2,1.42-1.35,2.54,1.94.63,3.58,1.67,5.85,1.76,3.8.15,4.57,2.15,2.85,5.29-.87,1.58-3.55,2.73-1.73,5.25-2.02.09-3.9-.86-5.94-.35.13.78,1.66.61,1.34,1.62l-.08-.09ZM84.13,402.77c-2.84-1.73-3.02-4.3-3.67-6.92-1.2-4.88,3.61-4.24,5.78-5.87-.06-1.24-2.19-.94-1.71-2.33,2.53.43,5.32,4.8,5.74,8.98.39,3.82-.6,5.39-4.15,6.19,1.3-2.25.16-4.32-.19-6.45-.1,2.27-3.39,3.62-1.8,6.42ZM40.49,331.12c2.67-3.37,13.09-7.65,18.57-7.61-2.53,2.57-12,6.72-18.57,7.61ZM299.54,440.6c5.41,1.73,7.26,4.16,7.37,11.33-2.57-3.95-5.14-7.9-7.37-11.33ZM39.28,339.45c-2.65-2.92,1.34-2.42,2.15-3.49,1.78-2.35,6.01-4.22,8.55-4.23-3.14,3.26-6.85,5.62-10.7,7.72ZM143.03,380.57c1.15,4.06,2.5,8.02,8.57,7.33-2.92,1.53-5.81,1.29-7.87-.33-2.19-1.71-2.49-4.36-.7-7ZM62.01,324.2c.89-2.05,6.55-4.2,8.04-3.27.33.2.65.63.7.97.08.7-.64.71-1.13.73-2.57.09-5.06.52-7.61,1.57ZM21.23,349c-.06,1.43-1.04,2.08-2.31,1.79-.87-.2-1.51-1.18-1.15-2.15.41-1.11.98-2.3,2.59-2,1.66.3.72,1.56.87,2.36ZM36.81,331.98c.14,2.58-2.11,3.11-3.85,4.03-.4.21-.82.04-1.03-.4-.17-.36-.37-1.04-.02-1.02,2.29.11,2.14-3.16,4.91-2.6ZM41.06,367.87c-2.17-1.51-2.24-2.97-1.54-4.31.4-.76-2.05-1.21-.16-1.65.51-.12,1.4-.6,2.05.22.57.73.89,1.47.13,2.12-.99.87-.62,1.94-.47,3.62ZM230.21,401.45c2.38-.15,3.99-.23,4.31,1.68.13.76-.36,1.84-1.15,1.88-2.7.16-1.21-2.52-3.16-3.56ZM28.98,373.49c1.4-.06.97.85.75,1.37-.26.63,0,1.96-1.25,1.64-1.31-.34-1.56-1.65-1.41-2.71.21-1.41,1.4.53,1.9-.3ZM35.87,354.66c-.47-.4-1.26-.86-1.71-1.51-.45-.65-.71-1.49.12-2.15,1.07-.86,2.04.5,2.04.65-.02,1.12-.31,2.23-.45,3.01ZM32.57,359.39c-1.1-2.14.44-3.65-.42-5.21-.22-.4-.25-1.08.42-1.21.84-.16.95.59,1.23,1.1,1.11,1.99-.91,3.19-1.23,5.32ZM55.67,365.7c1.4,1.17,1.82,2.31,1.27,3.6-.21.48-.88.47-1.33.02-1.21-1.2-.46-2.25.06-3.62ZM228.59,409.25c.77,1.65,3.23,1.28,4.74,3.51-1.92-1.1-2.88-.67-3.81,0-.33-1.26-.63-2.39-.93-3.52Z"/>
  <path class="cls-1" d="M313.19,371.93s-.11-.23-.11-.23c1.29.2,1.19-.67,1-1.31-2.4-7.89-2.17-16.14-4.54-24.04-.7-2.34-1.37-4.68-2.56-6.84-2.43-4.39-1.84-9.1-2.1-13.67-.45-8.11-2.69-15.85-5.59-23.48-1.77-4.69-2.54-9.09-.36-13.94,2.48-5.55,4.28-11.46,4.4-17.62.06-3.16-.18-6.38-.72-9.51-.39-2.28.08-3.81,2.09-5.12,3.84-2.49,7.39-5.46,9.95-9,5.74-7.96,12.14-15.47,18.03-23.31,1.33-1.78,2.07-4.55,5.67-3.85.61.12,1.5-1.07,1.58-2,.1-1.2.74-2.05,1.62-2.8,5.35-4.54,8.45-10.42,10.57-16.69,2.98-8.79,6.1-17.65,6-27.08-.09-8.63,1.42-17.31-1.33-25.9-.15-.47-.34-1.02.24-1.35.63-.36,1.28-.18,1.76.29,1.87,1.84,3.32,1.2,4.86-.36,1.49-1.52,3.05-2.97,5.54-3.24,1.31-.14,1.98-1.38,2.71-2.32,4.52-5.8,7.61-11.98,4.62-19.46-1.26-3.14-1.11-6.1.32-9.02.68-1.4.44-2.64-.46-3.96-3.04-4.46-6.21-8.83-9.58-13.09-1.2-1.52-2.93-3.48-2.7-4.97.44-2.93-1.75-4.84-2.36-7.3-.69-2.81-2.16-5.48-3.36-8.19-1.99-4.46-3.1-9.23-5.7-13.47-1.55-2.53-.08-5.2-1.09-7.86-.7-1.83-1.98-3.54-2.13-5.63-.29-3.97-2.38-7.48-4.01-11.11-.67-1.5-1.26-2.99-2.37-4.22-1.12-1.23-.12-1.72.62-2.41,1.11-1.04,1.41.03,1.82.64.33.49.41,1.33,1.3.83.59-.33.19-.83-.12-1.28-1.05-1.55-1.16-3.22-.09-4.66.56-.76.21-1.31.05-1.94-.61-2.27-1.26-4.53-1.92-6.8-.19-.65-.07-1.17.47-1.61.63-.52.85-1.1.29-1.84-.61-.79-1.33-.5-2.03-.28-.7.23-1.35.56-2.08-.08-2.81-2.5-6.5-4.31-7.57-8.16-.11-.39-.3-.57-.59-.52-3.71.66-6.56-2.64-10.33-2.09-2.1.31-3.84.51-5.13,2.4-1.29,1.89-3.26,3.37-4.77,5.14-.73.85-1.68.64-2.54.92-1.3.42-4.17-1.65-3.71,1.78.01.09-.37.33-.48.28-4.68-1.99-5.62,3.44-9.26,3.79-2.22.21-3.82,1.77-3.89,4.11-.03,1.04-.67,1.36-1.58,1.55-2.39.5-4.68,1.08-7.3.77-3.42-.41-6.94-.38-10.36-.1-2.95.24-5.44,1.26-6.05,4.64-.31,1.7-1.97,2.95-1.02,5.19.66,1.55-1.14,1.38-2.34,1.03-2.64-.78-5.26-1.23-7.96-.39-1.26.39-1.92.82-1.79,2.29.17,1.98-.38,3.87-1.31,5.73-.44.88-.15,2.28.74,3.37,1.41,1.72,2.1,3.21-.99,4.24-2.15.71-4.02,2.16-5.94,3.38-3.07,1.94-3.39,4.75-2.39,7.98.73,2.36,1.79,5.06,2.97,6.64,2.73,3.63,4.56,8.37,9.53,10.29,2.33.9,3.22,1.94,2.04,4.32-1.69,3.4-1.2,6.58,2.57,8.91.09.06.19.12.24.21,4.59,7.57,12.68,12.3,18.27,19.06.96,1.16,1.51,2.46,2.15,3.74,2.98,5.89,5.98,11.76,8.93,17.66,1.27,2.55-.75,8.42-3.64,10.48-1.04.74-2.05,1.41-2.38,2.66l-.06-.09c2.2.67,4.18,1.43,6.74.59,2.1-.7,4.2,1.3,4.47,3.17.47,3.29,3.4,3.98,5.58,5.43,1.46.98,4.09.98,3.29,3.52-.68,2.14-.85,4.79-4.14,5.19-1,.12-1.89.58-.91,1.51,1.39,1.33.52,3.45,2.27,4.61.23.15,0,.91-.01,1.68-.76-.54-1.24-.93-1.76-1.24-.69-.4-1.41-1.76-2.15-.07-.39.88-1.04,1.58.38,2.46,2.74,1.69,3.67,4.94,6.93,6.39-1.61,1-1.66-.8-2.68-.46.09,1.41,1.82,1.87,2.33,3.39-3.43-.28-6.37-1.22-9.12-3.16,2.33,2.28,4.52,4.71,7.02,6.82,4.65,3.93,8.33,8.53,11.76,13.34.53.75.98,1.41,2.03,1.83,3.62,1.43,6.32,3.89,8.62,6.86,1.06,1.38,2.85,1.14,4.43.52.14-1.27-2.1-.54-1.72-1.65.32-.94,1.52-.83,2.49-.93,1.25-.13,2.47-.41,4.17-.71-4.49-1.92-9.78.28-13.57-4.42,2.85,1.56,4.66-.68,6.99-.07.66.17-.21-.73-.05-1.15.25-.66.62-1.37-.62-1.58-.74-.13-1.48-.27-2.26-.8,1.99-.23,3.99-.47,5.98-.7-4.18-1.64-7.25-4.08-8.73-8.03-.18-.49-1.73-.81-.31-1.51.68-.33,1.55-.93,2.13-.75,1.08.33.27,1.12.09,1.74-.41,1.35-.39,1.35,1.67,3.45-.82-2.27-.66-3.78,1.56-4.29l.06.1c-1.43-.78-2.12-2.23-3.45-3.19-1.19-.86.73-.55.88-1.04l-.09.08c-.24-1.32-1.36-1.87-2.27-1.14-2.68,2.15-4.86,1.02-6.9-.83-.93-.84-2.33-1.2-3.03-2.75,2.38.86,4.56-.08,6.9.43-1.01-1.16-.74-3-2.68-3.48-.34-.08-.63-.54-.36-.56,1.97-.11,1.23-2.68,1.54-2.45,1.56,1.13,3.57.47,5.17,1.59-.06-.48.05-.97-.18-1.23-2.57-2.95-.62-6.3-1.34-9.38-.3-1.26,1.11-3.4-1.81-3.66.96-1.12-.44-2.18-.3-3.07.25-1.54.92-2.89-.59-4.27-.36-.33-.15-.97.7-.82.71.12,1.25-.52.94-.79-2.41-2.11.33-4.19-.27-6.4-.59-2.16-1.6-4.34-1.06-6.8.43-1.97-2.78-3.36-2.06-5.76.95-3.14-.52-5.94-1.48-8.92-.33-1.01.71-2.86.04-4.42-.07-.16.14-.53.07-.57-2.97-1.63-2.34-4.27-1.92-6.5.55-2.93-3.13-4.82-2.02-7.72.04-.11-.16-.38-.32-.49-3.89-2.49-4.43-10.96-4.1-14.87.26-2.99.87-5.95.35-9.01-.12-.7-.75-1.82,1.26-2.06,1.68-.2.3-1.91-.21-2.39-1.2-1.12-1.27-1.49-.35-3.05.87-1.47-.14-3.99-.52-6.03-.64-3.46-1.42-6.9-2.17-10.34-.83-3.85-.07-7.53.91-11.21.32-1.23,1.25-1.17,2.16-1.31.58-.09,1.27,1.13,1.77-.1.28-.68-.04-1.24-.56-1.61-1.87-1.34-1.21-2.74-.37-4.18,1.19-2.02,1.45-4.5,3.53-6.66,1.37,3.5,1.01,6.68.8,9.71-.81,12.07,2.01,23.75,5.17,35.39,1.24,4.57,2.98,9.03,4.49,13.54.46,1.37,1.38,2.03,2.94,1.74-.7-1.88-1.48-3.74-2.08-5.65-4.82-15.33-10.53-30.55-7.96-46.78.32-2.03-.17-4.19-.29-6.48,2.63,1.22,3.13,3.27,3.79,5.16,1.19,3.42,3.18,6.44,5.48,9.29,2.91,3.6,5.12,7.52,6.22,11.83,2.1,8.28,3.18,16.68.18,24.78-1.52,4.1-1.01,7.99-.28,12.05.25,1.38,1.05,2.83.05,4.59-2.33-2.91-2.45-6.55-5.18-8.89,1.15,5.77,3.66,11.21,6.29,16.45,2.55,5.08,2.6,10.32,3.66,15.49.4,1.94,1.83,3.99.31,6.09-.42.58.33,1.7.85,1.79,5.03.84,5.21,5.54,7.69,8.33,1.58,1.79.71,4.79,1.45,7.26.89,2.95,1.24,6.01,2.29,9,1.62,4.62,1.19,9.49,1.36,14.26.12,3.21-1.4,6.09-2.45,9.23-.84-1.17.26-2.15-.29-3.09q-2.65,1.76-1.72,3.61c1.8,3.57,1.03,5.04-3.01,5.81-.31.06-.58.23-1.3.54,2.71.49,4.03,1.19,1.27,3.01-.62.41-2.18,1.84.25,2.91,1.16.51.61,5.61-.44,6.75q-1.36,1.47-1.01,2.89c.94-.77,2.03-1.66,3.36-2.75-.11.98-.18,1.64-.28,2.47,1.51-1.07,1.97-2.32,1.21-3.77-1.44-2.77-.31-5.22.6-8.03,1.92,2.02.11,3.72.1,5.6,2.15-.3,1.58-2.8,3.09-3.1-.64,3.45-1.28,6.99-1.94,10.52-.71,3.85-4.53,5.77-6.34,8.95-1.68,2.94-4.16,5.42-5.23,8.75-.62,1.94-2.55,3.11-4.37,4.17-5.09,2.94-10,6.15-14.48,9.79-3.1,2.52-5.55,5.72-8.21,8.67-2.89,3.22-6.6,5.88-10.57,7.26-2.55.88-4.23,1.96-6.16,3.5-2.68,2.13-1.5,3.38.44,4.92-.08.19-.16.39-.24.59.18,1.68,3.08.49,2.86,2.16-.17,1.31-2.03,1.63-2.89,2.63-.51.59-1.4,1.18-.97,2.02.36.7,1.37.65,2.07.54,1.95-.32,2.17.48,2.34,2.11.81,7.88-.14,15.5-2.58,22.97-.6,1.84-1.09,3.69-1.93,5.48-1.27,2.68.88,5.1,2.19,7.15,3.46,5.41,4.87,11.26,6.15,17.21.38,1.79-1.37,3.41.09,5.2-.46.02-.78.07-.8.02-2.45-6.15-8.38-10.85-9.03-17.78-.18-1.92-1.47-2.8-3.27-1.23-1,.87-1.47.65-2.23-.31-2.63-3.32-5.37-6.58-8.06-9.86-.54-.66-.65-1.74-2.12-1.32-1.67.48-3.34.92-4.32,2.33-.43.61.42.99.88,1.42,3.44,3.23,6.65,6.64,9.7,10.2,3.08,3.6,5.48,7.57,7.26,11.75.59,1.38,3.15,2.42,2.05,3.49-1.15,1.12-2.52-1.52-4.21-1.41-.1,0-.21.05-.67.16,1.66,1.71,3.14,3.38,4.77,4.9,4.08,3.82,7.12,8.24,9.64,13.02.58,1.11.53,2.2.46,3.23-.4,5.49,2.51,10.05,5.15,14.65,2.21,3.86,4.01,7.82,5.09,12.03.44,1.71,2.55,2.88,1.89,4.9ZM324.8,18.26c4.97,7.62,6.69,15.85,8.22,24.14-2.37-6.15-7.57-11.39-7.3-18.35.03-.75-.33-1.38-.83-1.93-1.82-2-2.51-4.72-4.91-6.36-.48-.33-.97-.89-.39-1.55,1.37-1.55.08-1.58-1.19-2.03-2.45-.87-2.87-2.39-.74-3.6,3.22-1.85,5.91-4.45,10.97-2.81,3.72,1.2,6.32,2.96,8.29,5.62.99,1.33,3.28,2.67,1.97,5.51-.58-1.81-1.46-2.79-3.01-2.54-1.53.25-1.12,1.54-1.41,2.56-.28.96-.41,1.94-.27,3.66-2.92-3.86-6.81,1.13-9.4-2.31ZM329.12,223.75c.39,1.43-.26,1.75-.63,2.2-3.61,4.36-7.41,8.61-10.88,13.04-3.93,5.03-7.98,9.81-13.2,13.71-.78.58-1.99,1.9-2.53.93-.61-1.11-1.95-3.32-.55-4.06,3.85-2.03,5.69-5.99,9.57-7.89.37-.18.77-.07,1.16-.61,4.63-6.47,11.08-11.38,17.06-17.32ZM336.39,47.41c1.29,1.18,2.02,1.85,3.15,2.88-.38-6.18-.74-11.83-2.63-17.41,1.23,1.44,2.3,2.76,3.34,4.11.81,1.04,1.29,2.34.57,3.57-1.9,3.23.11,6.13,1.23,9.02,2.04,5.31,2.92,10.63,1.79,16.24-1.31-1.8-.34-4.85-3.8-5.24-.2-.02-.39-.68-.49-1.06-1.03-3.77-2.46-7.47-3.16-12.11ZM370,104.19c.9.28,1.5,1.16,2.07,2.02.56.85.86,1.82,1.78,2.49,1.82,1.33,1,2.98-.2,3.67-1,.57-1.1,1.25-1.52,1.97-1.34,2.29.42,4.65-.02,6.95-.26,1.34,1.16,3.47-.84,3.81-.89.15-1.52-2.45-1.43-3.83.25-3.6-1.21-7.11-.66-10.79.16-1.11.24-3.1-.88-4.49-.23-.29-1.6-.52-.43-1.18.57-.33.97-1.18,2.12-.62ZM275.6,96.51c-2.22-.88-4.7-1.12-5.01-2.44-.72-3.12-3.17-4.93-5.18-7.03-1.9-1.99.77-.99,1.01-1.7-.63-.46-1.41-.87-1.94-1.46-1.67-1.84.74-2.49,1.28-3.68.3-.66,1.09-1.23,1.81-.64,1.23,1.02.93,2.34-.12,3.14-1.32,1.01-.44,1.52.18,2.38,2.59,3.59,5.07,7.23,7.97,11.41ZM270,42.77c-3.42-.59-5.58-2.81-8.5-3.35-.91-.17-2.04.17-2.43-1.05-.49-1.54.71-2.47,1.5-3.46,1.05-1.31,1.48.45,2.27.63.94.22,1.85.58,2.77.88,3.2,1.05,4.39,3.23,4.4,6.36ZM340.14,95.69c-1.2-.51-1.74-1.32-1.91-2.17-.71-3.64-1.42-7.28-1.88-10.94-.16-1.24.38-2.53.65-3.8.08-.36.16-.84.71-.85.64-.01,1.23.55,1.08.89-.93,2.22,1.36,4.14.87,6.2-.58,2.42-.38,4.63.69,6.96.47,1.01.47,2.34-.22,3.71ZM310.61,14.51l.21.87c-4.34.68-8.68,1.35-13.02,2.03,3.77-3.12,8.29-3.02,12.81-2.9ZM308.42,172.59c.26,1.31,2.42.67,2.28,2.65-2.3-1.76-5.11-1.97-6.87-3.97-.28-.32-1.52.44-1.08-.82.25-.73.68-.75,1.45-.67,1.39.14,2.6,1.09,4.08.78,1.07-.23,2.23.11,2.32,1.09.14,1.48-1.62.14-2.19.95ZM350.16,119.51c-.81-3.47-.5-7.01-1.42-10.45-.14-.54.59-1.02,1.4-.78.74.22,1.22.81.85,1.37-1.15,1.7.05,3.24.35,4.84.33,1.76-.33,3.34-1.16,5.02ZM296.79,73.39c.47.21,1.8,1.43,1.29,2.06-.76.95-1.28,2.66-3.38,2.37-1.54-.21-1.99-1.12-1.58-2.04.53-1.17.65-3.06,3.67-2.4ZM369.94,135.13c.1-2.39.22-4.46.23-6.53,0-.71.23-1.13.93-1.33.44-.12.52.22.68.48.85,1.37-.19,6.22-1.85,7.39ZM340.06,19.23c1.11.61,2.31.33,2.83,1.46.36.79,1.35,1.86.18,2.29-.91.33-.92,1.76-2.13,1.34-1.63-.57-.15-1.47-.27-2.2-.13-.86-.36-1.72-.62-2.89ZM304.73,79.97c1.33,2.81.5,5.63.67,8.45-1.72-2.81-.81-5.63-.67-8.45ZM263.8,62.92c.22-.44.79-.75,1.41-.74,1.04.02,1.9.56,2.06,1.55.12.74-.49.97-1.27.85-.98-.16-1.95-.3-2.2-1.65Z"/>
  <path class="cls-1" d="M224.72,309.22c-1.07-1.75-2.4-3.3-4.08-4.6-.95-.74-1.71-1.46.13-1.95-.59-.09-.88-.47-1.09-.94-1.87.56-1.72-1.1-2.32-1.87-2.02-2.6-4.17-5.11-7.05-7.59,1.64-.08,2.31.42,2.95.97-1.5-1.82-4.78-2.03-5.08-5.04-.09-.89-1.19-.38-1.83,0-.85.51-.45.92.1,1.37.66.54,1.26,1.12,1.27,2.01-2.36-.76-3.26.19-3.77,3.98-1.34.17-.92-1.53-2.02-1.65-.71.76.42,1.5.08,2.27-.31.73-.97.74-1.59.71-.56-.03-.36-.46-.42-.85-.93-5.79-3.1-11.43-2.95-17.36.03-1.01-1.09-1.47-1.54-2.26-.33-.57-.93-.95-1.63-.59-.63.33-.1.85-.09,1.3.07,2.49-.17,4.87-1.38,7.2-1.97,3.81-2.56,8.03-2.17,12.26.3,3.25-.64,6.2-1.69,9.11-.11.3-1.31,1.48-2.32,1.78-1.29.38-1.63,1.17-1.38,2.6-.79-1.77-1.95-2.04-3.59-2.32-12.34-2.08-24.73-.92-37.08-1.45-2.1-.09-4.69-1.42-6.71.38-.34.3-1.65-.15-.94.95.33.53.32,1.39,1.53,1.21,5.86-.86,11.81.09,17.71-.09,5.39-.16,10.8,0,16.2-.02,2.64,0,5.25,1.19,7.95.03,2.65-1.14,3.25,1.82,4.37,2.83,1.53,1.38,1.78,3.97,2.91,5.93.45.78-.56.74-1.16.91-1.35.38-2.6-.04-3.78-.45-3.85-1.33-7.88-1.24-11.81-1.85-2.37-.37-.99,1.45-1.79,2.18-2.08-1.64-4.44-2.54-7.71-2.17,2.05,1.84,3.96,2.87,6.38,3.12,5.24.55,10.67.44,15.55,2.57,7.72,3.38,16.24,4.38,23.91,7.79.56.25.91.88,1.56-.26.56-.97,2.56.23,2.54.73-.16,3.55,2.08,1.7,3.18,1.22,1.71-.75,3.09.45,4.68.46,2.37.01,4.77,1.18,7.15,1.86.18,1.28-1.64,1.19-1.65,2.6,3.32-2.63,6.5-1.3,9.67.18,2.05.96,4.09,1.93,6.12,2.92,3.43,1.68,6.77,2.57,10.87,2.09,2.84-.33,5.83.26,8.63-.98.99-.44,1.23.51,1.12,1.28-.22,1.5.91,1.66,2.03,1.72,1.01.06,2.09-.11,2.23-1.22.14-1.08-.49-1.92-1.68-2.32-1.33-.45-2.62-1.05-3.97-1.39-4.58-1.13-8.22-3.6-11.5-6.68-1.53-1.44-2.32-2.29.71-2.78,1.41-.23,3.79.33,4.11-2.04.02-.14.35-.36.48-.34,3.61.74,6.26-3.02,10.13-1.46,2.11.85,3.92-2.02,6.29-.69.02.01.5-.45.46-.65-.2-1.12-1.57-.32-2.4-1.56,4.22.78,6.39,5.87,11,3.81-.44-1.32-2.39-1.28-3.23-2.5-.2-.3-1.48-.36-1.88-.95-.68-1,1.03-.72.88-.96-.6-.92-1.57-.68-2.52-.49-2.21.43-2.85-1.6-4.07-2.56-.98-.77,1.31-1.06.83-2.34-3.96-.19-8.09-.39-12.22-.58-1.07-.05-2.2.14-3.21-.12-2.97-.77-5.51.08-8.02,1.29-2.15,1.04-2.62.81-2.96-1.26-.1-.65-.51-1.24-1.28-.53-2.1,1.95-3.98,1.12-6.11-.26-1-.65-2.84.68-3.87-.99.21.74.41,1.48.64,2.22.13.42.2.84-.35.95-.27.06-.83-.06-.88-.21-1.07-2.78-4.51-4.12-5.18-7.12-.14-.18-.28-.37-.43-.56Z"/>
  <path class="cls-1" d="M260.77,267.71c.42-.56.5-1.21-.15-1.59-2.88-1.67-4.48-4.34-6.48-6.72-.69-.82-1.57-1.85-3.21-1.74-1.22.08-2.87-.24-1.69-2.11.23-.36.36-.92-.27-.84-3.54.41-3.18-3.42-5.52-4.38,3.09.31,4.3,4.67,8.43,3.17-1.75-2.7-4.68-4.45-6.41-7.54.19-.39,1.11.99,1.49.31.41-.73-.35-1.13-.79-1.44-1.04-.72-1.25-1.94-2.13-2.65-.27-.22-.52-3.46-1.73-.41-.9-.64-2.7-.71-2.71-1.77-.03-2.42-2.85-2.99-3.4-4.96-.04-.13-.38-.31-.55-.28-4.52.69-4.81-3.05-6.52-5.32-1.06-1.42-.86-2.92.37-3.75,1.08-.73,2.61-1.07,4.15.1,3.25,2.46,5.37,2.3,8.05-.51,1.52-1.59,4.21-2.18,4.39-5.02.06-1,2.45.26,3.44-1.01-.69-1.66-3.3,0-3.87-1.83.18-.42.69-.74.99-.51,3.24,2.51,3.63-.84,5.06-1.98.89-.71-.06-1.08-.51-1.28-.61-.26-1.43-1.42-1.98.02-.19.5-.45.89-1.15,1.01-.29-2.52-2.56-3.35-4.53-4.39-.93-.49-2.05-.67-3.01-1.13-3.37-1.62-3.78-3.19-1.77-6.02,1.33-1.87,1.99-3.16.32-5.95-1.94-3.25-5.77-5.05-6.86-8.82-.33-1.13-2.42-.47-3.56.27-3.33,2.16-5.88,4.74-5.54,8.96.2,2.39-2.71,3.53-2.75,6.14-.09-3.65-2.88-3.55-5.28-3.72-2.45-.18-3.51-1.21-3.4-3.48.06-1.16.06-2.32-1.05-3.33-1.07-.98,0-1.84.58-2.61.68-.9.84-1.83.18-2.8-.83-1.22-2.05-.59-2.92-.29-2.5.85-4.23,2.33-3.65,5.17.08.4.21.82.15,1.19-1.31,7.47,2.64,13.77,5.84,20.23.27.55.48,1.26.96,1.57,3.19,2.09,1.25,5.14,2.36,7.64-1,.1-.93-.41-1.08-.75-.48-1.1.12-2.9-1.98-2.99-1.16-.05-1.98,3.1-1.38,4.58.67,1.66.94,2.99-1.11,4.33-2.53,1.66-3.68,4.12-3.23,7.44.41,3.02-.33,6.15-.56,9.23-.02.2-.04.56-.09.57-4.48.29-1.86,2.65-1.77,4.63.07,1.59-1.25,3.31-2.29,4.76-.61.85-.99,1.44-.34,2.41,1.46-.21,1.56-1.72,2.72-2.42.33,1.05-.91,1.87-.12,3.01.62-.85,1.25-1.65,2.33-2.03,5-1.77,6.21-5.52,6.01-10.1-.11-2.7.25-5.63,2.44-7.39,3-2.41,2.93-5.74,3.73-8.79.35-1.33.66-2.69,1.96-3.01,1.65-.41,3.05.47,3.96,1.99.57.96,1.42,1.77,2.1,2.68.56.74,1.12,5.71,1.17,6.66.06,1.12-.36,1.55-1.42,1.33-.97-.2-1.51-1.01-1.24-1.82.22-.66.54-1.16.25-1.93-.38-1.01-.52-2.09-1.12-3.18.4,3.46-3.33,7.57-1.37,9.51,3.24,3.19.67,7.54,4.66,10.48-1.46-.44-2.38-.71-3.3-.99,7.55,3.95,14.57,8.69,22.03,13.4.08-1.86-1.43-2.34-1.4-3.66,5.45,4.76,8.91,11.63,16.93,14-.63-2.81-4.32-2.5-5.45-5.6,3.5,2.6,6.71,4.07,10.63,2.63-.9-1.06-1.86-2.2-2.83-3.35-.73-.41-1.47-.81-2.2-1.22ZM229.95,250.43c1.07-.59,1.46.53,2.22.41.94-.15,1.47.34,2.08,1.01.58.63.26.79-.17,1.11-.97.71-1.64-.11-2.2-.57-.68-.54-1.79-.78-1.92-1.95ZM212.56,234.71c-1.2-1.24-2.67,1.79-3.64-.41-.38-.87.39-2.03,1.24-2.07,1.44-.08,1.84,1.32,2.4,2.49Z"/>
  <path class="cls-1" d="M259.64,153.49c-.31-4.67,2.57-7.75,4.4-11.42-2.24-.68-3.88,1.15-6.05,1.07,2.48-3.92,6.19-5.9,10.98-6.66,3.24-.51,6.48-1.27,9.19-3.33-3.78.48-7.44,1.47-11.55,1.77,1.46-3.39,4-5.73,6.55-8.06.51-.47,1.45-.89.77-1.65-.68-.75-1.37,0-1.9.42-.73.57-1.38,1.23-2.04,1.87-3.96,3.86-6.76,8.52-11.36,12.07-4.34,3.34-5.73,9.27-5.89,14.43-.23,7.24-4.44,11.4-9.92,15.2-1.15.8-2.29,1.62-3.98,2.83,6.46-1.4,10.58-4.9,14.67-8.45,1.32-1.14,2.51-2.44,4.35-2.93.3-.08.78-.2.83-.4,1.06-3.95,5.2-5.53,7.53-8.49.38-.48.78-1.01.26-1.62-.61-.72-1.44-.57-2.04-.16-1.53,1.03-2.97,2.17-4.79,3.53Z"/>
  <path class="cls-1" d="M208.79,270.76c-.15-1.92-.25-3.27-.38-4.98-1.8,2.12-3.48,3.62-3.8,6.47-.28,2.44-2.79,4.51-1.45,7.48.33.74.33,1.53,1.25,1.89,1.97.76,3,1.95,2.32,3.98-.08.24.04.54.06.81,3.34-.24,4.27,2.87,6.54,4.14.93.52,1.63-.23,2.61-.14-1.7-.82-3.98-1.4-1.2-3.4-.52-.24-1.02-.41-1.44-.68-.94-.6-2.37-.99-.03-1.89,1.01-.39.07-2.56-.67-3.08-2.22-1.56-1.29-2.87-.3-4.34.95-1.42,1.94-2.82,2.85-4.26.8-1.28,1.73-2.71.03-3.97-1.63-1.21-3.21-.83-4.53.55-.41.43-.95.74-1.86,1.43Z"/>
  <path class="cls-1" d="M210.65,395.5c.08.07.18.19.29.36-.28,2.74.34,5.55-.49,8.24-.26.77-.67,1.51-.45,2.35,3.52-.13,4.44-2.38,4.84-5.09.11-.71-.04-1.22-.8-1.39-1.14-.26-2.31-.62-1.75-1.92.45-1.04,1.48-1.66,2.9-1.09.27.11.61.05,1.12.08-1.48-2.41-3.25-3.1-5.65-1.55Z"/>
  <path class="cls-1" d="M296.79,153.51c-5.01,1.36-9.87,2.99-14.28,5.6-1.19.71-.99,1.32-.12,2.12.62.57,1.18,1.19,2.07,1.92-1.42-1.84-.99-2.74,1.14-3.26,4.4-1.08,7.79-3.74,11.2-6.38Z"/>
  <path class="cls-1" d="M293.71,254.28c.08-.2.16-.4.24-.59-1.94-.34-1.73,1.36-2.13,2.19-.74,1.57-1.54,2.92-3.62,2.34-1.21-.34-1,.49-1.12.84-.21.63-.08,1.36-.2,2.03-.17.92-1.74,1.92-.64,2.62,1.33.85,2.23-.83,3.04-1.49,1.73-1.41,3.08-3.22,4.58-4.87.94-1.04.35-2.06-.15-3.07Z"/>
  <path class="cls-1" d="M285.5,142.13c-2.72,1.79-5.82,3.22-7.08,6.49,3.45-.6,6.64-3.64,7.01-6.58,0,0,.06.08.06.08Z"/>
  <path class="cls-1" d="M227.28,310.18c1.23,1.55,2.88,2.36,5.23,2.24-3.16-1.36-1.51-5.69-6.03-6.93,1.75,1.81,2.72,3.29.86,4.8,0,0-.06-.11-.06-.11Z"/>
  <path class="cls-1" d="M213.89,293.42c1.2,2.51,2.8,4.69,5.6,5.91-.78-2.35-1.79-4.59-3.67-6.41-.98-.95-1.76-1.09-1.93.5Z"/>
  <path class="cls-1" d="M224.72,309.22c.14.19.29.38.43.56.41.71.93,1.51,1.79,1.59.63.05.48-.7.35-1.18,0,0,.06.11.06.11-.26-1.57-.84-3-2.39-4.25-.79,1.06-1.03,2.04-.24,3.18Z"/>
  <path class="cls-1" d="M260.77,267.71c.74.41,1.47.82,2.2,1.22.82.59,2.14,1.01,2.36.04.33-1.43-1.44-2.19-2.73-3.62,1.27,2.65-1.12,1.69-1.84,2.35Z"/>
  <path class="cls-1" d="M233.59,374.04c-2.4-.05-2.02-3.31-4.28-3.08-.67.07-1.64,1.15-1.7,2.69,2.68-3.55,3.56,1.95,5.98.4Z"/>
  <path class="cls-1" d="M243.91,266.93c-.73-3.02-4.32-2.57-6.06-4.44,1.3,2.29,3.94,3.02,6.06,4.44Z"/>
  <path class="cls-1" d="M166.15,347.09c.55,2.07-.12,3.79,1.18,5.29q1.18-3.34-1.18-5.29Z"/>
  <path class="cls-1" d="M328.32,182.98c1.38.52,2.25.75,1.77-1.26-.57-2.4-1.9-3.24-4.36-2.79,0,0,.09-.08.09-.08.48,1.6,4.46,1.45,2.56,4.23l-.06-.1Z"/>
  <path class="cls-1" d="M33.95,428.22c-.91.09-2-.2-1.55,1.42.54,1.94,1.92,1.8,3.61,1.77-.19-1.47-2.21-1.85-2.14-3.28,0,0,.08.09.08.09Z"/>
  <path class="cls-1" d="M336.19,2.44c2.16-.03,4.22.17,5.92,1.6.6.51,1.24.38,1.55-.28.39-.81-.35-1.06-.97-1.16-2.14-.35-4.29-1-6.5-.16Z"/>
  <path class="cls-1" d="M69.51,332.64c-1.56,1.4-.38-3.7-2.64-.85-.34.43-1.52-1.05-1.7.18-.04.31.91,1.93,2.37,1.15.55-.29,1.24.52,1.97-.48Z"/>
  <path class="cls-1" d="M168.09,365.22c-.9-1.9-.46-4.04-1.53-5.92-.11,2.08-.4,4.2,1.53,5.92Z"/>
  <path class="cls-1" d="M256.57,402.06c.9,2.19,2.59,2.18,4.45,2.61-1.02-1.76-2.35-2.45-4.45-2.61Z"/>
  <path class="cls-1" d="M334.1,210.5c.37.52.6,1,.72.98,1.43-.23,1.79-1.6,2.79-2.32.55-.39.7-.98.02-1.49-.13-.1-.52-.11-.56-.05-.71,1.21-1.2,2.58-2.97,2.88Z"/>
  <path class="cls-1" d="M219.66,301.82c.08-.43.16-.86.24-1.28-.08.43-.16.86-.24,1.28Z"/>
</svg>