<?xml version="1.0" encoding="UTF-8"?>
<svg id="Layer_1" xmlns="http://www.w3.org/2000/svg" viewBox="0 0 697.48 762.27">
  <defs>
    <style>
      .cls-1 {
        fill: #f7f7a3;
      }
    </style>
  </defs>
  <path class="cls-1" d="M494.07,376.34c-5.77,2.33-11.04,5.76-15.51,10.09-25.41,24.56-46.8,42.32-62.51,54.56-7.9,6.16-12.68,12.43-21.61,19.54-21.22,16.9-26.37,40.96-27.84,65.61-1.7,28.45-8.28,54.47-26.89,76.65-1.31,1.56-3.05,3.11-3.57,4.94-9.26,32.94-37.25,48.7-61.72,67.78-29.97,23.37-54.97,52.03-82.42,78.08-4.33,4.11-8.5,13.04-16.04,6.14-6.43-5.88-.8-12.67,2.83-17.86,19.45-27.83,34.88-57.77,47.47-89.21,1.64-4.09,5.15-8.99,1.33-12.82-3.12-3.14-7.79.15-11.63.99-9.51,2.07-18.67,4.76-26.43,11.43-3.74,3.22-8.87,5.84-13.71,6.61-39.84,6.3-79.45,6.67-117.88-7.86-21.28-8.05-33.16-26.52-41.57-45.35-20.49-45.9-23.66-92.65,1.51-138.69,6.52-11.93,14.92-17.36,29.27-17.42,32.8-.14,60.39,14.73,88.23,28.5,13.51,6.68,24.27,6.31,37.35-.76,19.76-10.68,40.32-20.08,61.15-28.52,39.23-15.89,64.33-47.41,84.97-81.17,54.42-89.02,101.44-182.46,159.69-269.26,22.45-33.45,47.82-64.05,84.01-83.52,28.79-15.49,58.75-20.69,89.8-6.53,5.04,2.3,9.82,5.46,14.15,8.94,4.22,3.4,5.49,7.41-.76,10.66-49.43,25.71-83.02,68.87-118.05,109.81-24.16,28.23-53.08,50.71-80.17,75.41-13.42,12.24-23.57,28.55-41.69,35.3-.9.34-2.11,1.15-2.29,1.95-6.49,28.09-35.29,40.12-46.67,65.44-6.34,14.1-17.98,26.47-29.82,37.98-14.6,14.2-25.16,32.71-31.99,51.55-10.74,29.63-32.21,47.41-57.8,61.99-4.01,2.29-9.95,1.36-15.02,1.6-7.57.35-15.09-.49-20.9,6.65-3.9,4.79-10.63,4.68-15.85,2.85-11.32-3.97-19.99,4.07-28.91,7.2-5.77,2.02-1.42,12.64,5.07,16.43,19.86,11.6,41.55,20.64,59.76,34.35,33.48,25.21,65.27,6.8,97.76.06,4.55-.94,7.18-4.81,7.12-9.02-.17-13.21,5.94-24.7,9.46-36.85,3.93-13.57,7.82-27.29,22.57-34.29,18.2-8.63,22.66-30.54,38.71-41.46,19.76-13.46,34.35-32.78,50.94-49.32,13.65-13.61,30.68-24.55,41.05-42.34,20.44-35.07,53.73-62.86,58.14-106.98.81-8.14,6.49-16,10.71-23.55,24.87-44.55,54.49-86.02,83.52-127.85,6.21-8.95,17.18-14.48,18.69-28.94,26.91,27.88,21.64,99.94-8.87,119.48-15.12,9.68-19.53,28.32-27.63,43.56-16.3,30.71-31.58,61.9-51.41,90.71-13.37,19.42-18.25,15.25-42.06,42.25-10.76,12.2-17.96,21.61-31.65,31.24-8.79,6.19-17.29,10.38-24.38,13.24Z"/>
</svg>