<?xml version="1.0" encoding="UTF-8"?>
<svg id="Layer_1" xmlns="http://www.w3.org/2000/svg" viewBox="0 0 2680.39 567.5">
  <defs>
    <style>
      .cls-1 {
        fill: #f7f7a3;
        font-family: SuperFunky, 'Super Funky';
        font-size: 230px;
        stroke: #862a2b;
        stroke-miterlimit: 10;
        stroke-width: 2px;
      }
    </style>
  </defs>
  <text class="cls-1" transform="translate(275.9 277.47) rotate(-8.41) scale(1.03 1)"><tspan x="0" y="0">F</tspan></text>
  <text class="cls-1" transform="translate(433.83 254.34) rotate(-5.88) scale(1.03 1)"><tspan x="0" y="0">o</tspan></text>
  <text class="cls-1" transform="translate(634.19 234.34) rotate(-4.06) scale(1.03 1)"><tspan x="0" y="0">l</tspan></text>
  <text class="cls-1" transform="translate(813.32 222.15) rotate(-2.93) scale(1.03 1)"><tspan x="0" y="0">i</tspan></text>
  <text class="cls-1" transform="translate(931.17 215.99) rotate(-1.9) scale(1.03 1)"><tspan x="0" y="0">k</tspan></text>
  <text class="cls-1" transform="translate(1123.21 209.89) rotate(-.77) scale(1.03 1)"><tspan x="0" y="0">e</tspan></text>
  <text class="cls-1" transform="translate(1304.24 207.62) rotate(.25) scale(1.03 1)"><tspan x="0" y="0">l</tspan></text>
  <text class="cls-1" transform="translate(1483.92 208.63) rotate(1.25) scale(1.03 1)"><tspan x="0" y="0">f</tspan></text>
  <text class="cls-1" transform="translate(1626.47 211.3) rotate(2.38) scale(1.03 1)"><tspan x="0" y="0">a</tspan></text>
  <text class="cls-1" transform="translate(1865.2 221.64) rotate(3.97) scale(1.03 1)"><tspan x="0" y="0">s</tspan></text>
  <text class="cls-1" transform="translate(2062.51 235.6) rotate(5.75) scale(1.03 1)"><tspan x="0" y="0">e</tspan></text>
  <text class="cls-1" transform="translate(2241.58 253.48) rotate(8.36) scale(1.03 1)"><tspan x="0" y="0">n</tspan></text>
</svg>