<?xml version="1.0" encoding="UTF-8"?>
<svg id="Layer_1" xmlns="http://www.w3.org/2000/svg" viewBox="0 0 92.73 83.18">
  <defs>
    <style>
      .cls-1 {
        fill: #853a4f;
      }

      .cls-2 {
        fill: #f7f7b6;
      }

      .cls-3 {
        fill: #5f2837;
      }

      .cls-4 {
        fill: #7d312f;
      }
    </style>
  </defs>
  <g id="Layer_1-2">
    <g>
      <path class="cls-1" d="M62.16,3.22c-20.9.43-31.79-.24-43.69,18.12-8.22,13.02-11.04,33.83,1.19,45.19,12.8,10.44,32.96,9.71,48.94,7,37.23-7.54,2.85-66.19-.38-69l-6.06-1.31h0Z"/>
      <g>
        <path class="cls-2" d="M65.75,7.79c-.44,0-.56-.5-.3-.66-1.13.33-.84-.26-1.44.72-.72.39-.98-.42-.21-.7-.61.1-1.18.2-1.73.3l.82.35c-.27.4-.58.27-.9.15s-.67-.22-.9.26l1.48.23-.18.27c.44-.24,1.04.04,1.2.2-.1.13-.19.36-.44.33.81.21,1.13-.13,1.44-.5.16-.19.31-.39.54-.54.11-.07.24-.13.41-.18.08-.02.17-.04.27-.04.04,0,.1,0,.15,0,.04.02.07.04.11.07-.04-.02-.07-.07-.13-.1-.06-.02-.12-.07-.19-.13h0Z"/>
        <path class="cls-2" d="M65.3,10.57c.35-.16.72-.3,1.1-.41.1.33.19.65.27.97.31-.24.96.21.98-.41-.1-.05-.3-.15-.36-.3.73-.44,1.09.98,1.65.27-.68-.7-.61-.92-1.43-.94-.36-.72-.56-1.34-.6-1.91-.24-.1-.59.32-.84.19.05.04.1.07.15.13l-.78,1.11c.3-.07.34.21.5.38-.27.04-.53.1-.79.19-.27.09-.47.15-.8.33-.17.56-.14.9,0,1.12.13.23.31.41.21.71.3-.53.42-.57.53-.61.1-.05.16-.1.22-.8h0Z"/>
        <path class="cls-2" d="M66.08,8.03s-.01-.01-.02-.02c0,0,.01.01.02.02Z"/>
        <path class="cls-2" d="M14.57,66.3c-.29-.33-.61-.25-.76-.21.51.67,1.07,1.3,1.64,1.93.29.33.58.58.91.92.34.33.7.7,1.07.95.05-.18-.21-.56-.29-.92-.1-.33-.08-.53.36-.24-.04-.29-.39-.66-.73-.87-.35-.21-.73-.35-.96-.27l.61-.08c-1.24-.41-.78-1.82-.01-1.53l-.07-.07c-.66-.1-1.28-.24-1.93-.4-.66-.16-1.3-.35-1.95-.57.56,1.08,1.22.27,2.11,1.35h0Z"/>
        <path class="cls-2" d="M55.75,1.04c-.56.13-.63.25-.56.37.2-.1.39-.21.56-.37Z"/>
        <path class="cls-2" d="M11.53,64.63c-.41-.16-.81-.32-1.22-.5.4.26.83.43,1.22.5Z"/>
        <path class="cls-2" d="M24.12,61.33s.05-.06.08-.1l-.39.18h0c.1-.01.2-.04.3-.07h0Z"/>
        <path class="cls-2" d="M3.48,42.49c0-.11-.01-.21-.03-.34,0,.13,0,.24.03.34Z"/>
        <path class="cls-2" d="M33.72,61.56l-1.59.19c.31-.26-.36-.4.07-.68-.13.03-.61-.06-.57.16.09.04.17.07.26.1-1.07.63-.82,1.19-2.32,1.34.45.9,1.02.56,1.59.3.16-.01.29,0,.42,0,.57-.3,1.13-.61,1.66-.91l.47-.52h0Z"/>
        <path class="cls-2" d="M31.87,11.93l.03.07s-.01-.06-.03-.07Z"/>
        <path class="cls-2" d="M32.02,12.31l-.13-.31c.01.18-.19.5.13.31Z"/>
        <path class="cls-2" d="M12.31,64.58c-.18.08-.45.1-.78.05l.93.32c-.05-.1-.1-.24-.15-.37Z"/>
        <path class="cls-2" d="M15.12,64.64c.41.43.79.88,1.22,1.28l.83.13c-.3-.18-.6-.39-.94-.62-.33-.24-.68-.51-1.11-.78h0Z"/>
        <path class="cls-2" d="M2.79,45.57c-.07-2.06.27-1.79.59-1.26.36.53.77,1.32.92.41-.12-1.1-.67-1.52-.82-2.23.17,1.61-.3,1.48-.79,1.36-.48-.12-1.04-.26-.9,1.43-1.06-.48-1.1-2.48-.71-3.59,1.11-1.2.64,1.17,1.64,1.5-.11-1.33-.27-1.1-.8-1.7.39-2.03-.73-4.47.88-5.44.05-1.5-.42-1.5-.76-2.46-.5-.21-.77.32-1.02.94-.24.63-.46,1.36-.93,1.57.11-.1.33-.3.47-.21-.16.42-.3.85-.44,1.28.57-1.19,1.04.35,1.02,1.02-.05.48-.11,1.46-.39,1.29l-.14-.77c-.46.92.54,2.18-.11,3.14-.24.04-.33-.36-.47-.43.32.6.45,1.17.58,1.81.11.64.21,1.34.47,2.19l-1.07-1c1.14,1.4.87,4.43.55,6.73.15-.27.23-.72.46-.48.39,1.24-.17,2.33-.82,1.82.55.58.54,1.82.7,3.15.05.66.17,1.34.36,1.95.18.61.46,1.13.88,1.48,2.58,2.13,5.36,3.86,8.19,5.07-.26-.17-.51-.37-.71-.62.5-1.06.25-1.28,1.56-.71-.95-.75-1.45,0-2.24-1.55.71.42,1.73.07,1.19-1.4-1.19-1.61-2.58-2.9-3.91-4.29-1.33-1.39-2.67-2.88-3.56-4.79.66-.24.21-3.28.39-4.76.79.56,1.02,1.62,1.27,2.73-.02-.7-.03-1.9-.01-2.79l-1.53-.36h.01Z"/>
        <path class="cls-2" d="M6.25,54.8c.04-.11.05-.22.07-.34-.04.07-.07.17-.07.34Z"/>
        <path class="cls-2" d="M4.33,49.06s.05,0,.08,0c-.03-.12-.05-.23-.08-.35v.34Z"/>
        <path class="cls-2" d="M13.2,62.93c.3.08.42.2.72.27-.14-.07-.27-.19-.41-.3-.16-.08-.29-.1-.31.04h0Z"/>
        <path class="cls-2" d="M12.53,64.27l-.32.06c.03.1.07.16.1.25.15-.07.24-.16.22-.31Z"/>
        <path class="cls-2" d="M11.33,32.29l-.06-.37c-.04.2,0,.3.06.37Z"/>
        <path class="cls-2" d="M4.22,41.14c-.03,1.38,1.04.25.94,2.16l.09-.56c.37,1.39.14,3.78.29,5.42-.44-.16-.44,1.04-1.13.9.24,1.14.55,2.27,1.32,2.75-.11.74.67,1.7.59,2.64.32-.45,1.6.93.67-1.07.09.16.16.04.25.19.12-.73-.03-1.18-.28-1.61-.25-.42-.55-.82-.62-1.42.31-.74.78,1.06.86.38-.13-.35-.21-.82-.27-1.3-.04-.49-.05-1.02-.1-1.48-.07-.94-.25-1.68-1-1.62-.13-1.07.22-1.22.5-1.53-.8-.84-.56-2.42-.32-3.74.24-1.32.45-2.42-.56-2.56,0,.62-.18,1.62.18,2.56l-1.41-.13h0Z"/>
        <path class="cls-2" d="M12.03,61.07c-.03-.07-.08-.17-.1-.24.02.07.06.16.1.24Z"/>
        <path class="cls-2" d="M20.77,77.74c-.39.31-.79.59-1.19.87-.82-.39-1.5-.76-2.09-1.1-.59-.35-1.1-.67-1.57-1.05-.47-.38-.93-.74-1.42-1.14-.28-.22-.58-.45-.9-.7-.18-.13-.36-.27-.56-.41-.19-.19-.39-.37-.59-.56-.13-.38.36-.07.59.07-.29-.25-.61-.55-.91-.84-.24-.23-.49-.47-.74-.72-.47-.53-.96-1.07-1.44-1.6-.45-.55-.9-1.08-1.33-1.54-.41-.47-.81-.87-1.19-1.16-.45-.64-1.07-2.61-.36-2.14-.3-.25-.6-.56-.76-.96.37-.33.56.76.93.59-.14-.3-.12-.46-.29-.45.63.27,1.14-1.25,2.39.88-.45,1.43-1.01-1.42-1.78-.3.43.74.79.4.96.39.53.93.29,1.06,0,1.18.56.13.89,1.58,1.73,1.67,1.39,1.61-.81.49.07,1.58.5-.06.99-.13,1.48-.21.44.63.88,1.23,1.39,1.83.82.67,1.3.85,1.62.76.3-.07.44-.32.59-.56.16-.24.34-.47.69-.55.36-.07.9.03,1.64.36-.37.13-.45.62-.29,1.22.16.59.56,1.35,1.19,1.85-.21-.12-.5-.21-.81-.32-.31-.13-.64-.27-.99-.41-.7-.31-1.33-.63-1.84-1.25.53,1.01-.05.61-.79.12-.77-.59-1.62-1.41-1.56-.54.31.13.65.3.98.52.15.11.35.21.52.3.16.09.32.19.47.29s.31.21.46.32c.13.1.25.2.38.3.24.21.47.44.66.67l-.38-.13c.47.42,1.08.51,1.71.64.64.1,1.3.26,1.89.9.73.39.43.62.16.8.71.2,1.37.3,1.24.54v-.03ZM19.05,77.05l-.9-.69c.12.31.49.53.9.69Z"/>
        <path class="cls-2" d="M70.45,19.41c0-.09-.02-.19-.02-.28-.03.07,0,.18.02.28Z"/>
        <path class="cls-2" d="M56.26,68.78h.49c-.19-.02-.35-.02-.49,0Z"/>
        <path class="cls-2" d="M66.37,63.38l.3-.19.18-.2c-.08.03-.14.08-.21.15-.1.07-.19.15-.27.24h0Z"/>
        <path class="cls-2" d="M72.88,24.78v.02s.07.04.11.07l-.11-.1h0Z"/>
        <path class="cls-2" d="M77.68,57.42c.13-.05.24-.11.34-.21-.13-.01-.24.07-.34.21Z"/>
        <path class="cls-2" d="M66.26,63.45s.03.01.04.01l.07-.09s-.11.07-.11.07Z"/>
        <path class="cls-2" d="M51.41,65.33c-.1.04-.19.07-.29.13.14-.03.22-.07.29-.13Z"/>
        <path class="cls-2" d="M52.16,68.89c-.11.04-.21.07-.3.13l.3-.13Z"/>
        <path class="cls-2" d="M36.67,65.07l-.61.04c.28.04.46.01.61-.04Z"/>
        <path class="cls-2" d="M50.44,68.09c-.04.06-.07.11-.1.17.09-.04.13-.12.1-.17Z"/>
        <path class="cls-2" d="M71.79,13.88s.01.03.02.04l.13-.05-.16.02h0Z"/>
        <path class="cls-2" d="M69.39,13.32c-.13-.15-.25-.3-.38-.46.1.19.24.36.38.46Z"/>
        <path class="cls-2" d="M80.29,49.65c.18-.17.36-.57.58-.41-.29-.3-.91-.22-.58.41Z"/>
        <path class="cls-2" d="M80.35,13.26c-.21-.03-.39-.1-.56-.16.28.16.53.3.56.16Z"/>
        <path class="cls-2" d="M79.79,13.1c-.14-.07-.29-.16-.43-.22.13.08.28.16.43.22Z"/>
        <path class="cls-2" d="M90.7,54.32c-.09.04-.16.13-.19.23.17-.02.21-.1.19-.23Z"/>
        <path class="cls-2" d="M68.95,12.35c-.31.04-2.16-1.79-1.21.11-.42.2-.68-.04-.9-.37-.13-.2-.16-.26-.22-.38-.06-.1-.13-.19-.21-.22-.06.32-.55.25-.78.51.17.06.47.04.56.31-.13.21-.36.15-.5.14-.14-.04-.24-.14-.25-.3-.25.53-.79.13-.89.69.09.06.17.12.25.17.02.02.04.01.07.05l.12.13c.07.08.16.16.23.24.3.33.61.61.93.88.64.53,1.36.95,2.3,1.26-.76-.93-1.64-1.91-1.79-2.91l.9-.07c-.07,1.29.72,1.61,1.16,2.59l-.8-2.3c.01-1.3.53-.74,1.1-.04-.1-.19-.16-.39-.06-.51h0Z"/>
        <path class="cls-2" d="M75.94,10.34v-.05s-.08-.05-.13-.06l.13.1h0Z"/>
        <path class="cls-2" d="M32.96,80.95l-.31.24c.24-.09.32-.16.31-.24Z"/>
        <path class="cls-2" d="M73.25,13.54h0s.01.01,0,0Z"/>
        <path class="cls-2" d="M38.97,82.15s-.02.04-.04.07c.02-.02.03-.04.04-.07Z"/>
        <path class="cls-2" d="M42.55,65.07s0-.07-.01-.11c-.1.04-.06.07.01.11Z"/>
        <path class="cls-2" d="M38.99,82.08s0,.05-.01.07c0-.03.02-.05.01-.07Z"/>
        <path class="cls-2" d="M66.79,78.44s-.11-.13-.26-.24c-.04.08.02.16.26.24Z"/>
        <path class="cls-2" d="M61.34,77.95s-.06-.05-.1-.07l.1.07Z"/>
        <path class="cls-2" d="M76.72,50.83c0,.2.01.34.05.47.01-.14.01-.3-.05-.47Z"/>
        <path class="cls-2" d="M38.93,82.22c-.07.07-.17.16-.33.24.17-.1.27-.18.33-.24Z"/>
        <path class="cls-2" d="M73.9,72.45c-.04.05-.08.1-.12.15h.1s.01-.15.01-.15Z"/>
        <path class="cls-2" d="M76.68,71.78c-.04.13-.03.24-.04.33.36-.41.99-.76,1.47-1.16.47-.41.84-.81.65-1.22-.26.24-1.96.79-1.99.19-.22.26-.62.39-.99.49-.38.07-.72.12-.84.27,1.17-.07.45.59-.11,1.19-.73.04-.18-.67-.77-.59-.45.23-.91.47-1.39.66.44-.1.86-.24,1.29-.39l-.06.93s.06-.08.1-.13c1-.63,1.16-.4,1.34-.17.17.23.36.44,1.33-.38h0Z"/>
        <path class="cls-2" d="M76.64,72.11c-.11.12-.2.23-.25.36.2-.12.24-.24.25-.36Z"/>
        <path class="cls-2" d="M85.06,65.9c.04-.13.08-.28.12-.47-.01.09-.08.29-.12.47Z"/>
        <path class="cls-2" d="M17.92,67.02c-.07.1.08.51.31.84.24.33.57.5.76.25-.15-.16-.33-.3-.46-.48l-.41-.56-.19-.06h0Z"/>
        <path class="cls-2" d="M83.21,39.71c.01.15.04.3.09.44.04.02.08.04.12.06.07-.11-.11-.37-.21-.5Z"/>
        <path class="cls-2" d="M76.95,69.45c-.14.21-.19.35-.18.47.1-.13.19-.27.18-.47Z"/>
        <path class="cls-2" d="M84.66,39.28c.13-.23.33-.57.56-.67-.09-.39-.49-.57-.7-.93.21.41.28.94.14,1.6h0Z"/>
        <path class="cls-2" d="M84.49,37.65s.01.02.02.03c0,0-.01-.01-.02-.03Z"/>
        <path class="cls-2" d="M17.52,66.23c-.12-.06-.23-.12-.35-.19l.25.03-.5-.85c-.1-.06-.22-.13-.34-.24.05.04.14.03.21,0-.05-.09-.09-.19-.13-.29-.48-.1-1.15-.44-1.73-.84s-1.13-.81-1.44-.96c-.32-.25-.64-.57-.9-.89-.26-.33-.45-.66-.57-.93.24.5.7,1.08.92.71-.19-1.18.54-2.06-1.04-3.39.13.34.3.67.45.99-.78-.55-1.5-1.16-2.25-1.8.25-1.03,1.1.96,1.7,1.07-.67-.76-.72-1.7-.72-2.48-.03-.77,0-1.4-.72-1.67.67-.3,1.78-.79,1.47-1.92-.62,1.02-.67-.6-1.39.27-.51-.34.02-1.4-.53-1.38l.32.07c.39-1.12.18-1.76-.27-2.27-.42-.5-1.04-.86-1.38-1.3-.43-2.58.1-3.76.12-5.84.5-.05,1.84-.49,1.9-1.28-.63-.44-.67-2.31-1.45-2.64-.58,1.42.5,1.3.6,2.2-.96.63-.88-.04-1.51.93.4-.78,0-3.8,1.03-4.53l.05.33c.37-.66,1.1-.94,1.63-1.36.53-.43.87-.99.56-2.27l-.19-1.21c.07.07.16.11.22.16.29-.86.66-1.09.91-1.38.26-.29.41-.62.41-1.68,0,.16.12.1.12.27.82-.9.37-2.3.55-3.18.85-.2.58.39.92.88,1.01-1.69.9-4.11.82-5.65.33-.32.68-.63,1.03-.93-.18.82.02,2.01.5,2.01.22-.68-.13-.73.5-1.52.3.39.43.96.69,1.62,1.67-1.3-1.13-1.23.79-1.68.36-.51.03-1.18-.38-1.54l1.24-.56c-.49-.5.27-1.72.8-2.51-.16-.27-1.07.16-1.07.61-.4-.38.04-1.34.46-1.85.64.36,1.26-.53,1.84-1.27.63-.72,1.19-1.32,1.56-.45.42-.6.85-1.3,1.41-1.92.56-.63,1.13-1.27,1.69-1.9,1.21-1.15,2.3-2.28,3.04-3.02.79-.01,1.93-.68,1.59.32.5-.33.93-.62,1.31-.96s.72-.69,1.07-1.03c.7-.7,1.5-1.22,2.7-1.47.24.1-1.03.39-.79.82.32-.27.66-.44,1.03-.54.37-.1.76-.1,1.18-.13.84-.04,1.76-.13,2.89-.51-.39.1-.44.41-.46.58-.1-.22.84-.67,1.42-1.02.36.06-.42.26-.2.4,2.31-.08,4.24-.59,6.21-1.15,1.96-.55,3.94-1.12,6.18-1.15-1.28.02-1.73.99-1.73,1.39l1.24-.02c.47-.49,1.41-.53,2.18-.9.1.18.48.36.1.6,2.47.92,3.8-1.83,6.81-1.39l-3.59,2,.91.65-1.58.91c.96.51,1.77-.73,1.9,0-.2.21-.69.16-.7.54.93.27.99-.27,1.67-.43-1.79,1.51-5.35,1.55-7.22,1.98-.3.13.24-.36.29-.52-.77.07-1.25-.37-2.22-.08-.58.64.48.44.96.5-.04.54-.29.52-.82.61-.15-.72-2.9-.11-3.63-.94-2.76.47.59,1.83-2.12,1.75-.3-.25-.59-.5-.88-.73-.73.43-1.56.82-2.41,1.16-.82.38-1.7.61-2.51.73.11-.04.21-.08.33-.12.15-.39-.28-.53-.49-.65-.65,0-1.2.32-1.68.56-.5.22-.89.47-1.39.19-.26.33-.58.67-.91.99-.34.33-.67.73-1.02,1.07-.34.36-.71.65-1.02,1.02-.3.35-.59.67-.86.97-.94-.7,1.2-1.86,1.54-2.7-.43.22-.89.39-1.3.66.78-.45.93-.93,1.16-1.76-.64.2-.96.56-1.23.96-.25.44-.44.93-.89,1.36-.07-.3-.31-.37-.81-.08l.27.69s-.13-.06-.3,0l-1.45,1.66c.56-.03.96.45,1.39.14-.41-.22-.09-.56.35-.89-.1.67.64,0,.86.36-.44.27-.88.67-1.29,1.03-.4.36-.76.7-.94,1.04l-.61-.35c-.88.59-1.45,1.58-2.06,2.01l-.1-.41c-.51.41-.91.93-1.33,1.39-.42.47-.83.95-1.46,1.2-.07.71-.21,1.43-.31,2.16-.08.74-.13,1.45-.07,2.07.1.23-.01.47-.26.75-.24.27-.62.59-.93.9-.65.61-1.33,1.45-1.07,2.29-.13.03-.17-1.07-.23-1.62-.55.68.1,1.79-.83,1.6,1.16-1.57-.69-.24-.51-1.14-.42.82-.7,1.78-.59,2.32.63-1.33.91,1,1.19-.5.18,1.36-.13,2.85-.88,3.99-.36-.15-.59-.06-.91.36l.39.57c-.31.57-.21-1.38-.84-.24.24.79-.19,1.68-.47,2.54-.27.86-.4,1.67.42,2.14-.45.4-.53-.09-.63-.54-.1-.44-.21-.84-.83-.21-.21-.51-.04-1.03.06-1.47.12-.44.19-.82-.19-1.1,0,.93-.82.1-.99.66l.28,1.12.09-.21c.39,1.82-.51,4.29-.56,6.41.74,1.86,2,3.03,1.97,4.96-.27-.28-.39.13-.56.47-.16.33-.37.61-.91,0-.19.48-.14.96.02,1.29.17.33.43.54.63.52.04-.82.07-.29.21-.99.51.41.6,1.42.38,1.89,0-.2-.07-.11-.23-.13-.16.99.53.37.85.99-.3.16-.27.53-.19.95.08.41.25.84.16,1.18.37.2.78.37,1.16.53-.73-.24.02.84-.44,1.15.62.43,1.52.56,1.74,1.4-.46-.18-.05.91-.59,1.24.06.41.28.7.55.93.28.22.64.36.96.5.32.15.67.24.92.44s.43.44.5.84c-.13.07-.64.13-.48.54.18.06.33.23.51.37.09.07.17.16.25.23.06.04.1.08.15.1h-.01.02c.09.05.19.04.3-.07.16-.07.36-.12.55-.18.19-.05.34-.13.57-.16.44-.06.91-.07,1.53.07.35-.64-.63-1.03-1.06-1.04-.21.14-.44.27-.67.4.24-.48.19-.5.01-.47-.2,0-.57-.04-.51-.24.17-.05.34-.08.5-.08.08,0,.16,0,.24.01.07,0,.1-.03.16-.04.09-.03.16-.03.25-.04.11,0,.26.04.38.08.69.25,1.35.7,2.1.62-.01-.31-.13-.58-.24-.86-.12-.28-.28-.55-.48-.79-.1-.12-.22-.24-.32-.34-.06-.07-.13-.13-.2-.19-.01-.01-.02-.04-.03-.04.03.04-.13-.11-.23-.18v.32c.02.11-.06.13-.09.21.03.03-.17-.15-.3-.27-.07.29-.05.67-.24.84,0-.03,0-.04-.02-.07-.04-.05-.09-.1-.14-.15-.1-.09-.2-.18-.29-.27-.19-.18-.39-.33-.54-.55.41.44-.16,1.3-.29.92.06-.97-.82-.28-1.16-.75.14.28.39.61-.1.67-.02-.7-.14-1.04-.27-1.37-.13-.31-.21-.67-.07-1.31-.5.36-.67.09-.84-.23-.18-.31-.32-.68-.79-.56.04.16.07.34.12.5-.37-.21-.73-.44-1.11-.68.26-.67.59-.54.83-.48.26.06.44.07.51-.74-.34-1.29-1.53-.89-1.93-1.99.4.1.8.32,1.13.61.35.29.61.64.74,1.05.04-.19.11-.4.16-.6.46.14.78,1.21.98,1.72-1.12-.5-.07.5-.42,1.16.64-.26.29-.71,1.09-.37-.15-.27-.25-.42-.33-.61-.07-.19-.11-.42-.16-.84.21.87.93.93,1.58.95.32.01.65,0,.88.07.24.07.39.24.46.57-.6-.3-.71.72-.93.99.24.2.74.56,1.02.64.21-.27.41-.53.63-.8.39.13.24.57.16,1.02-.01.1-.02.21-.02.3,0,.04,0,.1.01.14l.02.06h-.01c0,.06-.02.01.25-.13.3-.5.09-.2.16-.28.06-.06.07-.1.08-.1-.01-.02.09.05.11.11.01.04.02.07.04.12.04.06.06.13.09.19.05.13.09.28.13.43.07.31.11.66.18,1.02.07.36.21.7.41,1.04.22-.21.55-.76,1.21-.98-.43.44-.27.89-.97.99.13.23.38.33.64.36.13.01.27.02.4.02.14-.01.27-.02.4-.03-.73-.73.77-.59,1.07-.84.4.3-.39.47-.76.49.29.31.36,1.33.95.61-.13.29-.56.54-1.07.69-.5.13-1.14.22-1.5.07.13.12.27.25.42.35-.5.13-.5-.02-.9-.37.2.7-.1,1.15-.43,1.47-.01-.12.11-.11.1-.22-.3-.37-.69-.4-.77-.06-.79.51.28.79.35,1.32.23.09.48.13.73.19,1.18-.47,2.23-.89,3.31-1.45,1.05.05,1.21.84,1.82,1.49l.44-.63c.83.33,1.59.8.76,1.51.04-.24-.1-.22-.27-.31-.05.09-.12.14-.19.18-.03.04-.05.07-.08.11,1.02.06,1.64.11,1.71.08-1.9.54-.44,1.25-1.04,2.42.62.03,1.25,0,1.87.01-.98-.64.13-.61.53-.7-.03.36.33.45.76.47.44,0,.96-.08,1.27.02l-.07.14c.54.34,1.58.47,2.36.34,0-.24,1.09-1.31,1.6-1.97-1.2-.41-.43-.61-.48-1.07.12.05.34.09.38,0,.19-.19-.21-.3-.21-.54-.65.09-1.32.15-1.89.24-.56.1-1.06.3-1.41.75.31.52.73-.32,1.12.06-.73.56-1.54.3-2.58.08l-.21-.67-1.1.08c.5-.21.39-.89,1.47-.76-.01-.59-1.06-.12-1.67-.45l-.53.7c.21-.38-1.05-.89.03-1.19.56-.07,1.15-.19,1.71-.27l-.3-.64,1.32.16-.39.33c2.23-.13.34,1.7,2.71,1.16.84-.87,1.61-.9,2.97-.5-1.03.1-.17.67-.61,1.19,1.02.53,1.47-.29,2.03-.62.24.53.41.97-.55.83-.19,1.07,1.27-.1,1.3,1.02,3.3.07,2.64-3.47,6.43-2.16l-.13.45c1.22-.35,2.17-.39,3.11-.43.95-.07,1.87-.07,3.01-.37l1.94.93c-.39.21-1.4,1.19-.82,1.67-1.02-1.04-1.93-.56-2.93-1.1-.07.3.33.49.52.66-.58.04-.91-.46-1.66-.19.05.24.91.45.29.64-.36-.2-.73-.42-1.08-.64-1.36.41-.59,1.73-2.24,1.49.29-.65.86-1.6,1.47-1.78-.74-.1.96-.43.27-.78-1.01.98-1.56.3-2.93.9.16-.13.2-.32.54-.38l-2.02-.36c.25.27-.17.44-.62.61-.45.17-.94.38-.86.79,1.07.21,1.46.15,1.88.12.42-.03.88-.04,2.13.17-.7.19-1.59,1.04-2.02,1.81-.02-.03-.06-.06-.14-.07-.39.82.01,1.02.01,2.44,1.18-1.03,1.99-.18,3.37-.84.23-.79-.85-.93-1.53-.73.4-.17.8-.37,1.2-.56l-.22.37c1.04.02,2.07.09,3.13.08-.59.09-.76.55-1.05.9.41.01.82.19,1.27.37-.14-.73-.13-1.25.27-1.27,2.02.03,3.22.54,4.07,1.3.07-.02.16-.05.23-.07-.43-.7,1.29-1.51,1.81-2.38.07.78,1.1.33,1.74.64.18-.93-.41-2.1-1.22-2.73-1.23.99-.64.92-1.13,2.16-.7.36-1.39.68-2.1,1.03l.41-.76c-1.12-.2-2.07.87-2.08-.08.51-.67,1.5-.41,1.99-1.09l-.75-.26c1.15-1.05.74.82,2.19,0-.66-.71.13-.07.71-.69-.59-.46-2.65.56-2.34-.84.7-.64,2.84,1.23,3.7-.23l-.03.16c1.51-.05,1.88-.9,2.33-1.45.16.08.38.1.5.07.12-.03.23-.1.34-.18.22-.17.41-.36.64-.46l.09.39.62-.36c-.11.77-.81.23-1.28.43l.23.7c-.7-.69-1.24.69-1.84,1.43.24-.2.56-.31.88-.4.16-.04.33-.08.5-.11.13-.04.24-.07.36-.12.45-.16.81-.39.71-1.12l.68.56.16-.32c.53.42.43,1.34-.3,1.73-.18-.14-.27-.21-.27-.36-.13.21-.23.44-.42.66-.1.1-.21.2-.35.27-.14.07-.3.12-.61.12l.26-.24c.07-.08.13-.16.19-.24l-.19.04-.24.04c-.16.03-.33.07-.47.1-.31.08-.59.18-.85.3-.51.24-.9.55-1.08.94,1,0,2.04-.07,2.96-.18.39-.07.77-.15,1.15-.22.39-.11.77-.23,1.16-.34-.07-1.71.04-2.74-.33-4.22.64-.56,1.3-1.14,2.05-.96l.12.27c.31-.02.47-.24.53-.49.45.13.35.76.63.81.13-.35.27-.65.35-.99.46.53-.13,1.09-.46,1.35.03-.09.09-.27,0-.32-.29,0-.39.4-.61.67-.2.28-.44.48-.79.08-.13.26.08-.87-.65-.56-.63-.1-.47.77-.41,1.09.14.37,1.1.1,1,.67.39-.28.36-.77,1.02-.76-.32.28-.59,1.27-1.08.84-.61,1.05.14,2.73.71,2.6-.18-.24.26-.59.45-.93.21-.33.24-.6-.53-.62.21-.95,1.14-1.42,1.37-2.22l.06.13c.21-.2.35-.44.52-.64.04.22-.03.52.21.83.04-.27.08-.52.1-.76l.02-.75c.07.92.61.09,1.02.07-.36-.47-.49-1.06-.96-.99-.6,0,.09.38-.13.7-.11-.36-.23-.7-.36-1.02l.1.03c-.13-.24-.28-.48-.43-.7.21-.21.53.1.79.34.24.24.45.43.39-.18l-.93-.5c.33-.31.87-.65,1.36-1.1.46-.47.85-1.02.72-1.55.52.4,1.4.82,2.06.57-.27.42-.53,1.24-.67,1.85-.21.01-.87-1.14-.47-1.67-.88-.11-.73.34-.62.75.12.41.21.84-.6.49-.29.25-.36.47-.36.67,0,.2.13.42.22.61.18.37.33.79-.44.92.61.5.09.51.56,1,.61.29.9-.1,1.1-.59.2-.5.3-1.1.7-1.42.01.1.04.33.15.43.5-.51.48-.86.38-1.42l-.11.02c-.41-1.05.72-.3,1.23-.71-.04-.23.36-.94-.21-.96.33-.25.62-.56.95-.85l-.87-.12c.06-.57.64-.63.2-1.23l-.77-.13c-.17.45-.31.91-.5,1.32-.11-.71-.69-.33-.73-1.07.71.96.53-.5,1.24-.53l-.37-.63.19.17c.45-.42-.25-.59-.1-1.12-.24.31-.5.56-.64.83-.16.26-.19.55.05.98-.19-.32-.37-.76-.51-1.16-.16-.41-.26-.76-.26-.9-.32-.62.3-1.04.37-1.65.31,1.16,2.41-.42,1.78,1.96-.15-.05-.1-.24,0-.31-1.01.27-.02,1.39.29,1.94.59-.07.67.5,1.08-.39-.39.26-1.19-.87-.7-1.73l1.22.21c.05-.45.13-.9.16-1.37l.06.13c.79-.53-.17-1.48.22-2.49-.47-.67-.45-3.44-1.59-2.11.65-.97-.44-1.62-.76-2.53l-.3,1.26c-1.1-1.24-.46-.94-2.04-1.77.31-.17.53-.47.92-.32-.28-1.85-.64-4.64-1.95-5.45-.33-1.32.99-1.96-.16-3.65-.3-.33-.99.67-1.07-.67.06-.12,1.27.88.7-.45-1.23-.65-.33-2.47-1.59-3.44.06-.79-.53-1.9.26-1.93.27,1.12,1,2.56,1.42,2.67-.47.01-.13.91-.74.25.07,1.79.82.88.97,2.45.32,0,.52-1.02.16-1.24.97-.36,1.47,2.71,2.18,1.02-.47-1.62-2.64-1.34-2.13-3.06.79.32.61,1.35,1.87,1.68l-.02-1.27-.99-.56h.16c.1-2.32-1.69-1.45-2.87-2.98-.24,1.27-1.73.45-1.82,1.36-.59-1.08-.83-1.96.1-2.38,1.68,1.82,1.05-.32,2.83,1.3.2-.47,1.59-.08,1.19-1.34-1.25-1.08-.61.73-1.5-.48.05-.12.1-.24.26-.24-.76-.41-.14-.8-1.01-1.31l.27.1c.16-1.18-1.1-.71-.84-1.79-.54.63-.81-.27-1.47-.55.11.92-.67,1.79.08,3.32.63-.05.89-.3,1.44.22l-.52-.99c.19.18.4.29.6.44l.15,1.11c-.93-1.07-1.27-.24-2.07-.52-.26-1.23-.57-.86-.71-1.64.84-.3.36-2.8.21-4.34.07.21.21.47.27.61.96.7.33-.97.53-1.12l-.74-.49c.12.1.39.19.36-.16-.61-.85-1.37-.39-1.99-1.23.39-.3,1.45.14,1.38-.56.27-.39.93-1.56-.12-2.57-.21,0-.47-.26-.75-.59.05.04.1.09.15.1v-1.06c1.12.27.44,1.57,1.56,1.87l.73-.32c.3.55,1,1.13,1.54,1.3-.33-.91-.6-.99-1.26-1.85.36-.37,1.05.12,1.15.19l-.47.07c.03,1.43,1.57,1.33,2.16,2.83.08.23-.04.13-.19.14,1.27.82.89,2.42,2.33,3.13l-.55-.19c.67.63,2.07,1.83,3.44,3.1l.29-.11c.1-.24.34.35.36.71h0c.67.64,1.32,1.27,1.81,1.81.1-.27.14-.59.05-.9-.44-.11-.78-1.68-1.44-1.16.17-.87-.96-1.65-.89-2.27-.08,1.1-.98-.3-1.46-.27.33-.51-.64-1.28.04-1.46.08-.24-.21.62.33.82,1.02.65-.27-1.93.82-1.04-1.12-1.26-1.87-3.27-3.2-4.45l.17.96c-.24-.7-1.19-2.18-.96-2.45.33.44.62,1.02,1.07,1.58.71-.33-.79-1.5-.4-1.79l-2.11-1.18.39.8c-.68-.27-1.07-2.16-1.69-3.42,1.33.15,1.07,1.79,2.15,2.86.87.74.59-1.07,1.3-.31.09-.35-.25-.92-.64-1.07l-.02-.44c1.3.32,2.08,2.21,3.45,3.04-.15-.06-.3-.1-.41-.08.15,1.1.64,2.04,1.32,2.84.04-.61-.24-.72-.48-.94.2-.14.72.67,1.12.89-.16-.98.44-.41.31-1.02.49.45.64.94.88,1.67-.16.51-.6-.07-.99.21.6.58-.3,1.39.69,2.18-.45-1.46,1.12-.08,1.63.27l-.07-.24c.72.21.9.58.57,1.09-.47-.48-.57-1.1-1.02-.7.19.36.38.73.73,1.08l-.55-.22.93,1.82c.59.1,1.46.32,2.26.3-.23.64.39,1.13.72,1.5l-.27-.13c-.05,1.01,1.02,2.78,1.49,2.79-.14.73-4.3-3.27-2.28.85.61,1.63,1.72.53,2.53,1.31,0,0-.16,0-.21.12.16.76.7.66,1.12,1.19.06-.51-.16-1.16-.42-1.3.65.02.47,1.56,1.11,1.98-1.11-.45.13,1.56-.51,1.12-.09,1.65,1.06,3.05,1.94,3.67-.84,1.33.64,1.79.51,3.64-.02-.27-.31-.71-.27-1.1-.95-.79.04,1.84-.96.51.19.29.39-.07.19-.36-.21-.55-.66-1-.95-.78l-.3,1.51-.29-.43c-.12.75-.26,1.5-.41,2.24.16.02.3-.21.36-.33.13,2.45,1.07,5.16,1.15,7.38,1.04.1,1.4,1.47,1.57,3.07.17,1.6.13,3.41.68,4.44-.56-.57-1.59-.9-2.04-.61-.05-.43-.86-1.29-.67-2.19.34-.14.7-1.28,1.09-.55-.27-2.55-.9.36-1.68-.39.23,2.71,1.27,4.48,1.47,6.44h-.25c.08.5.16,1,.2,1.51.37-1.14,1.52-.9.8.59v-.2c-.65.76-.6,2.75-1.19,4.12l.25,1.19c-.67,1.39-1.88.89-2.75.96-1.11,1.93-1.04,3.57-1.67,5.33-.48.11-1.31.84-1.99,1.22-.67.39-1.1.51-.66-.36-.57.9-.36,1.79-.47,2.67-.06.44-.21.86-.61,1.2-.4.35-1.04.67-2.05.79.18-.32.36-.63.53-.95-1.43,1-3.15,2.24-4.76,3.1-.81.43-1.58.79-2.24,1.03-.67.22-1.23.34-1.63.31.33-1.08-.77-1.26-2.05-1.48-.31-.06-.67-.09-.95-.17-.29-.08-.56-.17-.82-.28-.51-.21-.93-.51-1.13-.96.2.4-.79.7-.9.95-.26-.18-.65-.34-.98.1,1.1.22-.47,2.04,1.44.99-.84,1.43-2.01,2.6-4.28,2.82l-.06-.78c.61.02,1.2.01,1.8.01-.25-.55.66-.63.99-.94-3.33,0,.19-1.85-3.13-1.33-.27.54-.08.31-.93.6.41-.07.41-.61-.24-.55l-.56.69c-1.29-1.17,1.83-1.05.74-1.85,1.21-.73,3.34-1.36,2.8-2.3-2.07-.08-1.61,2.09-3.83,1.88l-.27-.4c-.73.38-.79,1.06-1.18,1.5-.06-.24-.27-.4-.77-.43-1.22,1.11-2.07,1.38-3.25,2.52,1.62-.48,2.31-.36,3.04-.21.72.13,1.47.33,3.1-.24-.48.4-2.82.83-2.9,1.91l-.03-.79c-.53.24-1.07.5-1.65.66-.59.15-1.22.21-1.92.13l.83-.48c-.91.32-1.7.06-2.42-.11-.73-.19-1.4-.29-2.13.37.52.06.94.03,1.26-.09-.96.36-2.16.33-3.21.16l-2.22,1.24c.03-.39-1.36-.45-.66-1.04-1.55-.69-2.36.41-3.3.55-1.56-.94,1.45-.27,1.67-1.34-1.1-.25-2.22-.33-3.27-.35-1.04,0-1.97.17-2.66.41.44.24.64.38.59.57-.04-.24-.96-.33-1.47-.42l-.44.44c-.8-.48-.61-.76.16-1.02-.78-.24-1.93.59-2.62-.33,1.5-.3,3.14.48,3.92.24-1.47,0-2.13-.5-2.87-1-.74-.51-1.55-1.08-3.41-1.19.02-.24.73-.56.06-.73-1.62-.27-.69.89-1.34,1.29.66.04,1.11.16,1.47.36.36.21.63.51.92.91l-.43.33c0-.22-.79-.42-.97-.67l-.41.76c.32-.85-.73-1.92-1.81-1.88.8.95.54.84.53,1.93-.86.27-1.19-.1-1.55-.45-.36-.37-.71-.68-1.68-.5.22-.22,1.67.06.56-.59-.96-.41-1.08.32-1.84.27,1.03-.43,1.04-1.04,2.14-1.61,1.73.5.69.24,2.45.44l-1.19-1.05c1.46.32,1.29-.53,1.5-.78-2.11-1.46-2.16.53-3.63-.24-.93.21,1.4.67.04.73-1.42-.67-.51.36-2.3,0,.14-.06.27-.13.41-.21-.31-.64-1.02-.36-1.64-.57-.75-.1-.4,2.81-3.18,1.5.24-.12.35-.22.39-.3,1.9-1.47,3.69-3.02,5.34-4.64-1.19-.57-2.47-1.18-3.65-2.06-.59-.44-1.24-.82-1.79-1.35-.57-.51-1.1-1.02-1.67-1.58.24-1.39,2.36.43,2.53-.15.3.33.61.66.95.95-.39.48-2.37-1.47-1.95.03,1.06.59,1.82,1.02,2.56,1.44.38.21.76.39,1.2.53.46.1.98.17,1.6.16-.02-.73-.71-.96-1.46-1.29-.74-.33-1.6-.7-1.94-1.48.47.38.97.52,1.48.61-.52-.41-1.07-.82-1.61-1.28-.5-.48-1.03-.99-1.56-1.5l-.46.04c.7.7,1.22,1.21,1.26,1.3-.51-.44-1.09-.69-1.64-.75-.57-.04-1.04,0-1.41.3l.16.21-.59-.17c-.21-.3-.41-.56-.59-.84l.02.1ZM52.98,2.35c-.08.09-.14.2-.19.33.04-.14-.01-.22.19-.33ZM42.94,73.11c-.87-.17-1.73-.37-2.59-.56-.85-.2-1.67-.47-2.49-.65.66.58,1.29,1.13,1.79,1.61.5.47.86.84.96,1.16.22.59-.59.9-3.22.41l-.37.07c.64.33,1.84.59,2.98.61.5-.27,1.55-.92,2.44-1.53.89-.6,1.64-1.24,1.63-1.33-.27-.54-.76.01-1.3-.21l.18.45h0ZM43.97,76.28c1.03.27.82-.15,1-.5-.37.02-.73.04-1.1.07.13.1.19.24.1.44ZM44.94,75.41c-.12-.01-.21-.04-.26-.09l.26.09ZM25.73,70.23s.07.01.1.02c-.21-.13-.41-.26-.62-.4.06.1.21.21.52.37h0ZM27.24,71.96l.5-.53c-.21-.1-.4-.23-.6-.36-.05.31-.09.59.1.88ZM33.15,76.29c.64-.68,2.08-.38,2.36-1.27.14-.21-.13-.37-.45-.53-.36-.11-.75-.23-1.16-.35-.04.13-.16.23-.33.32.39.21.61.5.3,1.02-.77-1.45-1.19.63-2.29-.04-.56.5,1.13,1.06,1.57.85ZM81.33,28.62c.07-.06.22-.24.41-.48l.72.61c.33,1.47-.56,3,.94,3.89-.09.68-.57,1.18-.96,1.63-.06-.3-.1-.58-.09-.82-1.37-1.48-1.11-2.06-.76-2.6.35-.53.8-1.03-.27-2.23ZM84.13,45.1c-.07-.13-.24-.16-.24-.16,1.08,1.44,1.79,2.87,2.21,4.15.4,1.28.54,2.42.49,3.32.7-.33,1.2-1.99,1.43-2.79l.81.67-.59.46.72,1.22c.51-.35.41-1.36.76-2.05-.07-.02-.36-.58-.7-1.17-.36-.59-.75-1.24-1.02-1.5-.12.57-.26,1.14-.39,1.7.19-.46-.19-2.65-.52-3.46-.38.04-.8,1.56.06,1.66-.56.23-.75-1.44-1.24-.32-.73-1.17-.54-3.19-.44-4.16l.92-.33c.17-1.09-1.27-.45-.98-1.75.5,1.42.98-.47,1.3.68.27-.45,1-.21.67-1.4-1.47-.7.49-1.44-.84-2.1.22-.72.92.48.76-.79-1.02-1.24-1.47-1.01-2.39-.84.1,1.34,1.56,1.13,1.62,2.25-.69-.58-1.39-1.14-2.09-1.69-.11.44-.06.73.06.95-.2-.39-.52-.68-.92-.89-.22-.12-.41-.24-.59-.34.33,1.15.56,2.19.22,2.46l-.48-.04c-.3.5.17,1.08.57,1.32.29,1.02,1.12,1.93.59,2.27l-.48-.31c.38,1.24.47,1.38.73,2.99h0ZM62.5,72.27c.99,1.52,2.07,2.91,5.75,2.02l-.27.16c.51.19.99.15,1.45-.03s.9-.43,1.33-.73c.43-.3.87-.59,1.36-.79.47-.23,1.02-.33,1.67-.28-.41.51-.63.71-.82,1.04-.2.32-.36.77-.8,1.63.37-.26.73-.56,1.08-.85-.04.96,1.04.12,1.94-.25-.12.44-.25.89-.39,1.33-.68-.07-2.16.34-2.04.54.14-.1-.44-.28-1.19-.36-.73-.06-1.66-.12-2.23.18.13.34.84.29,1.41.33.57.04.99.13.55.88.9-.79,1.23-.1,2.24-.71-.89.83.05,1.03-.59,1.78.59-.24,1.19-.56,1.77-.85.07.1-.56.47-.99.85-.43.36-.67.73.26.93.33-.32,1.04-.54,1.64-.79.6-.27,1.09-.57.96-.93l.14.2c.75-.22.79-.56.87-.87.09-.32.21-.61,1.16-.85-.17-.36-.61-.43-1.16-.06-.42.41-.26.95-1.29,1.5-.72-.36,1.31-.48.16-1.11-.28-.16-.91.24-1.45.49-.53.23-.96.33-.78-.36.46-.1.93-.21,1.39-.36-.27-.73.68-1.1.39-1.66.61-.64,1.76-.21,2.16-1.27.04-.63-.96-1.08.41-1.49.39.08.84.01,1.31-.16.46-.19.94-.49,1.39-.84.43-.37.85-.76,1.18-1.15.32-.39.59-.76.76-1.02l.27-1.16c-.22-.1-.51.3-.76.62-.27.31-.49.52-.5.07.31-.44.57-.92.84-1.37l.17.27c.37-.39.39-1.04.51-1.53.21.71-.63,1.57.16,1.84.57-.56.9-.5,1.16-1.21-.03.17-.04.33.07.37,1.13-1.24-.02-1.8-.1-2.26-.15-.93-.54-.67-.96-.3-.44.38-.95.86-1.26.57.57-1.25.96-2.56,1.24-3.88.14.41.28.84.64.82.67-.86.62.19,1.02-1.23-.55-.1-.6-.59-.56-1.19,0-.6.13-1.32-.13-1.86.52-.39.63-.47.48.55.73.01.7-1.43.79-1.91-.15-.31-.19-.81-.34-1.13-.39.39-.82.16-1.07-.72l-.15-.06c-.26,1.43-1.33,3.39-.83,4.36l-.3-.31c-.23.36-.32.75-.36,1.16-.03.41,0,.83-.02,1.22,0,.79-.15,1.45-.9,1.52-.47-.27-.24.23-.94-.12.02.4.07.83.07,1.24l-.21-.36c-.24.56-.49,1.13-.79,1.67l-.1-.13c.07.57.07,1.07.07,1.54.01.48-.01.9-.04,1.27.25.23.38.25.33.67-.1.37-.27.57-.47.7h0c-.45.3-1.02.19-1.64.41.49-.41.9-.89,1.34-1.35-.31-.51-.87-.79-1.75-.51.24-.26.01-.67-.33-.44.1.16-.59,1.01.03,1.09-.57.63-1.65,1.02-2.79,1.42-1.16.39-2.32.84-3.37,1.76,1.5-1.24-1.62-.24.19-1.14-1.59-.41-.84,1.25-2.3,1.53-.21-.27.79-.19.92-.9-.6.08-1.11.28-1.59.5-.47.24-.92.54-1.44.8-1,.54-2,1.13-3.29,1.14l-.21-.7c-.47.16-.98.33-1.51.5l.02.03ZM57.6,73.68c-.48.12-.97.24-1.47.37.05,0,.1,0,.15,0-.47.24-.96.44-1.44.67.93.24,1.59,1,.32,1.43.09-.3-.3-.65.13-.84-.89-.39-2.77-.72-2.24.35,1.62-1.11.44,1.37,1.72.54-.67.74-1.39.46-2.04.81.67-.61-.21-1.33-1.24-1.62-.44.18-1.66.04-2.41.32.27.67-.4,1.06.84,1.22-.45.19-1.16.3-1.94-.06.31-.1.86-.18.82-.41-.5-.62-1.08-.61-1.4-.88-.26.03-.52.06-.77.09.07.06.13.14.18.23-.3.19-.59.39-.89.56,1.16-.27.52.33.49.72.07-.77-.74-.13-1.14-.14l.83.88c-.44.39-1.46-.7-1.28.13,1.84.47,2.57.28,4.25.1l-.67-.66c1.88-.41,1.15,1.11,3.28,1.06.87-.57,3.19-.16,3.16-1.33-.25.36,1.37.99,2.05.39.72-1.13,3.07-1.47,2.3-1.9-.64.04-1.45.7-2.02.04l1.22-.33-.85-.52c.43.18.34-.39.08-1.23h-.01ZM33.01,65.02s-.02-.01-.03-.03c.01,0,.02.01.04.01h0Z"/>
        <path class="cls-2" d="M71.54,13.21c-.4-.18-.79-.94-1.2-.52.54-.33.83,1.29,1.2.52Z"/>
        <path class="cls-2" d="M71.58,12c-.16.02-.35.18-.56-.15l.66.85-.1-.7h0Z"/>
        <path class="cls-2" d="M74.78,8.91c-.35-.13-.63-.24-.87-.41-.12-.09-.23-.19-.34-.33-.1-.13-.21-.3-.35-.53.27-.29.49-.36.68-.3.2.07.36.24.52.41.32.36.67.79,1.39.61-.18-.38-.4-.65-.65-.86-.24-.21-.51-.34-.83-.55-.61-.36-1.21-.63-1.7-1.27-.02.55.3,1.54.73,2.31.38.67.9,1.18,1.42.9h0Z"/>
        <polygon class="cls-2" points="76.83 8.58 76.07 7.94 76.03 8.07 76.8 8.71 76.83 8.58"/>
        <path class="cls-2" d="M72.86,31.47c-.42.24.19.55.4.77-.05-.22-.04-.56-.4-.77Z"/>
        <path class="cls-2" d="M37.23,15c.62-.44,1.39-.73,2.1-1.1.35-.19.78-.3,1.16-.46.41-.14.78-.32,1.22-.44-.73.22-1.36.49-2.13.74-.34.17-.7.35-1.1.54-.2.1-.4.2-.62.3-.19.13-.4.27-.61.41Z"/>
        <path class="cls-2" d="M80.5,50.58c-.52-1.58-1.42-2.21-1.83-3.78-.35,1.12.1,1.75.52,2.37.42.61.84,1.23.35,2.1.32-.23.65-.46.96-.7Z"/>
        <path class="cls-2" d="M76.64,50.21c.9-.29,1.11,1.08,1.76.85-.25-1-.88-.44-.84-1.34,0,0-.92.49-.92.49Z"/>
        <polygon class="cls-2" points="90.39 40.36 90.97 40.85 90.71 40.41 90.39 40.36"/>
        <polygon class="cls-2" points="77.06 56.34 76.88 56.17 76.48 56.69 77.06 56.34"/>
        <path class="cls-2" d="M76.71,56l.18.17-.18-.17Z"/>
        <path class="cls-2" d="M92.45,40.74v-.94l-.5-.36c.17.43.34.86.5,1.3Z"/>
        <path class="cls-2" d="M88.68,49.29c-.1-.26-.22-.51-.34-.76.08.15-.24,1.24.34.76Z"/>
        <path class="cls-2" d="M75.63,59.41c.04.21.05.39.07.59h.1c-.02-.2-.04-.39-.07-.59h-.1Z"/>
        <path class="cls-2" d="M91.05,55.77c.76-.53,0,1.77.75.59.01-1.13-.4-.71-.75-.59Z"/>
        <path class="cls-2" d="M82.8,65.76c-.07.1-.12.23-.13.39.06-.15.1-.27.13-.39Z"/>
        <path class="cls-2" d="M82.8,65.76c.21-.34.68-.53.64-.88-.53.27-.54.47-.64.88Z"/>
        <path class="cls-2" d="M79.81,69.36c.1-.07.21-.13.31-.21-.06.51.05.36.11-.08.27-.29.1-.44.03-.58,0-.12-.01-.23-.01-.36-.02.15-.04.28-.05.4-.43.42-.7.67-.39.82Z"/>
        <path class="cls-2" d="M62.42,63.5c1.22.1,1.55.18,1.56.73,1.12,0,.79-.9,1.4-1.21-.59.15-.96.17-1.36.21-.41.04-.87.08-1.62.28h0Z"/>
        <path class="cls-2" d="M65.39,63.02c.13-.03.26-.07.41-.11-.18.01-.3.05-.41.11Z"/>
        <path class="cls-2" d="M88.39,68.3c.03.46.05.93.07,1.41l.14-.42-.21-.99h0Z"/>
        <path class="cls-2" d="M60.63,63.46c.22.01.57-.05.77.1,0-.54-.99-.11-.77-.1Z"/>
        <path class="cls-2" d="M66.85,73.3c.19.3.97-.02,1.33.05-.5,0-1.05-.91-1.33-.05Z"/>
        <path class="cls-2" d="M57.44,66.02c.22.01.6.35.49.81.3-.29.64-1.27-.49-.81Z"/>
        <polygon class="cls-2" points="64.48 73.56 64.69 73.71 65.52 73.25 64.48 73.56"/>
        <path class="cls-2" d="M68.99,80.95c.96-.81-1.96-1.27-.21-2.1-2.46-.3.33.87-1.42,1.04,1.05.05,1.7.78,1.64,1.05h0Z"/>
        <path class="cls-2" d="M67.34,79.9c-.16,0-.32,0-.5.02.2,0,.36,0,.5-.02Z"/>
        <path class="cls-2" d="M52.38,77.23c.15-.07.24-.15.34-.22-.12.05-.22.13-.34.22Z"/>
        <path class="cls-2" d="M61.92,81.16c.49-.39.98-.75,1.46-1.14-.96.77-3.62,1.01-3.36,1.96.88.1,1.9-.27,2.27-.73l-.37-.08h0Z"/>
        <path class="cls-2" d="M44.74,64.19l.58-.35-.67-.16c.19.16-.23.84.1.5Z"/>
        <path class="cls-2" d="M44.52,63.65l.13.03s-.07-.04-.13-.03Z"/>
        <path class="cls-2" d="M55.25,76.63c.5.04.89,0,1.33-.21-.2-.16-1.43-.27-1.33.21Z"/>
        <path class="cls-2" d="M40.75,65.16c.3,0,.61-.03.92-.04-.33-.01-.67-.02-.99-.06l.07.1Z"/>
        <path class="cls-2" d="M37.1,62.76l-.1-.21-.76.18c.03.07.06.14.1.21l.76-.19Z"/>
        <path class="cls-2" d="M39.92,82.55c.81.2,1.53-.59,1.33-.8l-1.56-.14c.3.8.44.03,1.32.33,0,0-1.09.61-1.09.61Z"/>
        <path class="cls-2" d="M21.13,47.4c.26.1.34.43.3.75-.04.32-.19.62-.42.68-.22-.12-.5-.72-.76-.3.45.26.9.5,1.34.73-.28.61-.73.48-1.16.09-.41-.4-.84-1.05-1.07-1.36-.04,1.3.82,1.57,1.06,2.83.02-.39.3-.69.53-.93.85-.18.66,1.02.94,1.76.24-.58.63-.36,1.05-.12.04.05.1.08.16.1.05.03.1.05.15.08l-.02-.08c.1-.02.21-.07.35-.17-.42-.52.22-1.17.14-1.54-1.33.67-.56-1.33-1.04-1.81l-.19-.62-.02-.24c.16-.06.36,0,.66.33-.32-.27-.26-1.29-.7-1.18-.04-.79-.03-1.59,0-2.4.06-.07.13-.14.24-.19-.09-.09-.16-.11-.23-.1.21-3.56,1.02-7.31,2.37-10.8-.32.47-.77.82-1.13,1.31-.61-1.14-.47.85-1.23.33-.19-.49.1-1.02.43-1.27-.38-.28-.93.06-1.42-.17-1.04,1.29.96,2.16.26,3.45-.51-.19-.85-.76-1.02.2l-.05-.27c.21,1.64-1.48.93-.24,2.19l-.76-.18c.44.82.21,2.15.24,2.92l-.14-.07c.31,1.11.36,1.39.3,1.72-.05.32-.16.68,0,1.84-.3-.36-.58-.73-.87-1.11-.41.82.56,1.03.47,1.59-.15-.04-.73.1-.86-.47.45.98.93,1.9,1.47,2.76.64.59.56-.18.89-.29h-.01Z"/>
        <path class="cls-2" d="M20.41,50.82c-.01.14,0,.3.07.47-.01-.18-.04-.33-.07-.47Z"/>
        <path class="cls-2" d="M25.09,32.17l-.29.73c.13-.21.24-.44.29-.73Z"/>
        <path class="cls-2" d="M23.02,53.66c.24-.5.62.06.93,0-.16-.41-.34-.8-.47-1.24-.28.1-.64.07-.9.19.13.37.28.72.44,1.06Z"/>
        <path class="cls-2" d="M23.89,51.89c-.21.02-.44-.06-.64-.18.06.25.16.47.23.71.21-.07.39-.21.42-.53h0Z"/>
        <path class="cls-2" d="M8.6,56.81l-.16-.42-.4-.59c.18.35.36.69.57,1.02h0Z"/>
        <path class="cls-2" d="M8.51,49.82c-.39.56.07,1.49.24,1.79-.19-1.1.07-.64-.24-1.79Z"/>
        <polygon class="cls-2" points="3.85 51.89 3.44 50.72 3.36 50.84 3.85 51.89"/>
        <path class="cls-2" d="M25.09,25.5c.07-.13.13-.24.2-.37-.11.16-.16.27-.2.37Z"/>
        <path class="cls-2" d="M22.66,31.99c1.53-1.44.21,1.43,1.49,1.27,0-.36.01-.71.02-1.07l.24.19c.12-.39.25-.78.39-1.16-.57.02-.68.19-1.16-.08.87-1.45.81-.23,1.93-1.02.24-.55.47-1.1.74-1.63l.07.2c.06-.13.04-.22-.01-.31.22-.47.44-.87.66-1.28.22-.41.56-.91.83-1.36l.86-1.39c.29-.46.61-.87.9-1.3.39-1.18-1.16-.1-1.25-1.27-.88,1.04-2.55,2.51-1.73,3.21-.1-.13-.29-.37-.56-.2l.27,1.16.67-.48c.07.29.01.64-.11.99-.15.36-.24.67-.45.97-.36.61-.89,1.16-1.22,1.22.4-1.34-.86-1.33.61-2.64-.29-.07-.87-.03-.76-.48-.92,2.06-2.39,3.84-2.44,6.48h0Z"/>
        <path class="cls-2" d="M36.59,14.37l.03.1c0-.06,0-.1-.03-.1Z"/>
        <path class="cls-2" d="M35.9,14.55c-.13.46-.22.96-.31,1.42l.61-.43c.21-.14.43-.24.64-.36l-.23-.71c-.04.24-.35.77-.67.63-.02-.19-.04-.37-.04-.55Z"/>
        <path class="cls-2" d="M35.02,17.08c.44-.65-.03-1.37-.63-1.48.42-.73.83.6.78-.45-.34-.53-.94.27-1.05.47,0,0,.9,1.47.9,1.47Z"/>
        <polygon class="cls-2" points="30.26 20.83 30.16 20.4 29.67 20.79 30.26 20.83"/>
        <path class="cls-2" d="M30.16,20.4l.49-.39c-.22-.15-.44-.3-.65-.35l.16.73Z"/>
        <path class="cls-2" d="M31.91,19.06c.22-.11.45-.26.71-.46l-.71.46Z"/>
        <path class="cls-2" d="M31.27,19.37l.1.07c.17-.16.36-.25.54-.37-.22.1-.43.19-.64.3Z"/>
        <path class="cls-2" d="M30.64,20.02c.52.34,1.06.7,1.5-.05l-.79-.53-.73.59h0Z"/>
        <path class="cls-2" d="M4.38,43.23c-.1-.36-.2-.71-.29-1.07l-.1.1c.08.36.19.71.29,1.07l.1-.1h0Z"/>
        <path class="cls-2" d="M5.57,37.38c-.07-.27-.14-.47-.22-.67.02.27.07.5.22.67Z"/>
        <path class="cls-2" d="M2.42,32.09c.91-1.07.36,1.89,1.2-.31.61-.04,1.03,1.17.53,2.16-.51-.2-.1-1.11-.79-.59.45.85-.02,1.02.82.96.23,1.28.79,1.53,1.16,2.41-.13-1.5,1.36-4.16.9-6.16-.65-1.24-2.1-1.07-3.45-1.48-.18.03-.5.7-.67,1.4-.16.71-.15,1.46.29,1.62Z"/>
        <path class="cls-2" d="M.59,33.76c-.2.58-.19.78-.13,1.17.49,0,.04-.68.13-1.17Z"/>
        <path class="cls-2" d="M14.69,25.16c-.14-.17.03-1.1-.36-1.08l-.38,1.36c.17-.28.44-.28.73-.28h0Z"/>
        <path class="cls-2" d="M13.8,26.04c.04-.2.1-.4.16-.6-.08.13-.14.31-.16.6Z"/>
        <path class="cls-2" d="M14.83,25.16h-.14s.07.05.14,0Z"/>
        <path class="cls-2" d="M33.87,17.8c.23.31.41-.1.5-.33-.15.07-.41.11-.5.33Z"/>
        <path class="cls-2" d="M49.36,11.57l.5.28c-.19-.18-.27-.26-.5-.28Z"/>
        <path class="cls-2" d="M56.89.7c.01-.07.05-.14.1-.2-.05.05-.09.11-.1.2Z"/>
        <path class="cls-2" d="M56.98.5c.36-.33,1.47.15,1.86-.35l-.04.15.73-.3c-.69.05-2.15.02-2.55.5Z"/>
      </g>
    </g>
    <g>
      <ellipse class="cls-4" cx="58.82" cy="37.05" rx=".47" ry=".56"/>
      <g>
        <path class="cls-3" d="M62.97,36.54c.09.04-.36.13-.57.13.56.04-.07.09,1.01.02.53.04-.19.15-.64.1.22.04.44.1.67.16l.16-.13c.9,0-.26.2.79.23l-.1-.25h.3c-.33-.04-.19-.16-.07-.21.15,0,.39-.03.41.02.04-.34-1.57.04-1.89-.13.02,0,.01.03-.07.06h0Z"/>
        <path class="cls-3" d="M65.11,35.98c-.38.02-.76.04-1.13.08l.25-.24c-.38.07-.71.04-1.03.19.06,0,.19,0,.16.04-.82.16-.45-.1-1.27.15.24.04.06.09.74.01-.06.12-.24.21-.53.3.13,0,.64-.06.75-.04-.01,0-.03-.01-.04-.02l1.25-.18c-.27,0-.15-.06-.19-.1.5,0,.99,0,1.5.02,1.16-.24.44-.42.9-.62-1.02.33-.53,0-1.35.39h-.01Z"/>
        <path class="cls-3" d="M58.95,37.08h.02s0,0,0,0h0s0,0,0,0h-.01s.01,0,.01,0h-.01Z"/>
        <path class="cls-3" d="M52.16,40.09s-.07.03-.12.06l.39-.1h0l-.27.05h0Z"/>
        <path class="cls-3" d="M47.22,39.01c.27.12.55.22.82.32-.36,0-.21.21-.64.2.06.02.24.16.41.07l-.04-.09c1.07,0,1.42-.21,2.27-.08.54-.35-.01-.29-.5-.3-.08-.02-.12-.04-.16-.07-.5,0-.99-.04-1.49-.08l-.66.02h0Z"/>
        <path class="cls-3" d="M61.77,39.9l.06.06-.06-.06Z"/>
        <path class="cls-3" d="M62.07,40.19l-.24-.23c.11.12.2.27.24.23Z"/>
        <path class="cls-3" d="M58.84,37.18h0s0,.01,0,.01h0s0,.01,0,0h0s0-.01,0-.02h0s0-.01.02-.02h0s0,0,0,0l.03-.03.04-.03h-.01s-.03.04-.04.05c-.01.02-.01.01-.01.02,0,0,0-.01,0-.01h0s0,.01,0,.01h0Z"/>
        <path class="cls-3" d="M58.83,37.19h0s.01-.02.01-.03h0s0,0,.01-.01c0,0,0,0,.01-.01h-.01s0,0-.01.04h0s-.01.03-.01.03h0Z"/>
        <path class="cls-3" d="M58.99,37.06h0s-.02,0-.03.01h-.03s-.01.02,0,.01h.04s0,0,0,0h-.01s0,0,0,0h.03v-.02ZM58.98,37.06h0Z"/>
        <path class="cls-3" d="M64.44,34.37l-.07.08c.05-.03.07-.06.07-.08Z"/>
        <path class="cls-3" d="M52.67,34.38l.07-.06c-.05,0-.07.03-.07.06Z"/>
        <path class="cls-3" d="M50.39,30.18l-.1-.35c-.04.07,0,.2.1.35Z"/>
        <path class="cls-3" d="M64.07,33.52h0s-.05,0-.07.01h.06s0-.01,0-.01Z"/>
        <path class="cls-3" d="M57.35,29.2c.05.1.1.19.16.25-.03-.12-.08-.2-.16-.25Z"/>
        <path class="cls-3" d="M50.41,30.24h.03s-.03-.04-.04-.07l.02.07h0Z"/>
        <path class="cls-3" d="M48.9,34.06s.05.07.1.1c-.01-.04-.05-.07-.1-.1Z"/>
        <path class="cls-3" d="M52.35,34.96s.06.05.1.08l-.1-.08Z"/>
        <path class="cls-3" d="M49.6,37.65l.19.12c-.02-.06-.1-.1-.19-.12Z"/>
        <path class="cls-3" d="M51.48,35.02l.16.06s-.1-.05-.16-.06Z"/>
        <polygon class="cls-3" points="61.14 36.18 61.14 36.18 61 36.22 61.14 36.18"/>
        <path class="cls-3" d="M62.92,35.73s.08.01.12.03c0-.02-.04-.04-.12-.03Z"/>
        <path class="cls-3" d="M59.75,31.15c0,.19.05.41-.02.61.11-.24.22-.87.02-.61Z"/>
        <path class="cls-3" d="M62.86,35.86c.29-.08.99.04,1.08-.24.9-.23.46.07.7.08.2-.1.59-.1.91-.19-.12-.02-.39,0-.34-.09.41-.13.71-.1.58.03.45-.22.76-.01,1.08-.26-.4-.29-.82-.48-2.17-.24.27.08.59.21.27.44l-.79.16c.64-.33.1-.28.13-.43-.1.15-.21.29-.32.42-.61.31-.79.25-.95.21,0,.02-.04.06-.18.1h0Z"/>
        <path class="cls-3" d="M48.61,36.27h-.11s.08.01.11,0Z"/>
        <path class="cls-3" d="M59.93,27.51c-.08-.02-.15,0-.2.02.06.03.13.03.2-.02Z"/>
        <path class="cls-3" d="M58.86,36.96h-.01c-.03-.05-.07-.11-.13-.19-.11-.15-.26-.35-.41-.55.12.18-.27-.27-.2-.16.33.34.46.56.64.78-.17-.19-.45-.53-.56-.64l.03.1.1.06.55.61s-.03-.03-.04-.05c-.07-.07-.04-.05.01.01.05.07.01.01.03.03h0s0,0,0,0Z"/>
        <path class="cls-3" d="M59.47,35.69s0-.03,0-.02c-.01.03-.03.06-.05.09-.04.08.02-.01.06-.06h0Z"/>
        <path class="cls-3" d="M58.15,35.96c.05.08.1.16.16.25-.03-.04-.07-.11-.16-.25Z"/>
        <path class="cls-3" d="M58.95,37.08h0s-.01,0-.01,0c0,0-.01,0-.01,0h-.02s-.01,0-.01,0h0s0,0-.02.02h0c.09-.09-.25.26-.19.21.09-.1.15-.16.19-.2h0s-.01.02-.01.03c-.01.03,0,.01-.01.03h0s0,0,0,0h0s.01.06.01.06c.07.22.13.46.19.73.27.7-.46-1.52-.02-.21,0,0-.04-.15-.12-.37-.02-.06-.05-.13-.07-.2h0s-.01-.04.05.11c-.04-.11-.05-.11-.06-.13h0s0,0-.01-.02c0-.01-.03-.04-.04-.05,0,0,0,0,0,0-.01-.01-.02-.01-.04-.02h0s-.01,0-.03-.01h0s-.04-.01-.05-.01h-.03.03l.67.04c.29.02.59.06.87.1.53,0-.69-.1.04-.06.21.01.14.03.53.06.29-.02-.25-.06-.39-.08,1.47.11,1.43.39,1.76.58.11.04-.35-.08-.5-.11.04.06-.41,0-.18.1.6.18.45.07.53.04.53.11.5.13.56.19-.7-.15-.3.18-1.17-.03.16.25,1.8.53,1.42.66l-.8-.21c.56.34.98.79.73.89v-.05c-.3-.19-.52-.25-.69-.32-.36-.08.44.55-.3.17.67.59,1,1.24,1.16,1.75-.85-.68-.5-.84-1.01-1.31l-.1.13c.05-.09-.25-.38-.72-.79-.22-.04.51.57.62.87-.21-.2-.36-.31-.41-.27l.52.5s-.09-.07-.14-.09c.05.16.09.33.12.5.26.19.7.63.78.57-.32-.27-.33-.39-.27-.44.29.38.35.21.64.48-.14.13-.24.36-.21.6l-.47-.47c-.24-.01-.16.4-.39.32l-.18-.31c-.27-.05-.24.44-.72-.04.22.76.21,1.46.3,2.28.1.42-.21.25-.5.1-.3-.15-.55-.27-.6.36-.04-.09.09-.68.1-1.02-.2-.09-.16.99-.39.12.48.21-.16-.7-.04-.99-.16.05-.3.24-.36.57.31-.05.04,1.26.33.82-.15.8-.6,1.14-.97.84,0-.39-.04-.57-.16-.74l-.13.56c-.15-.11.33-.66.03-.87-.18.47-.42.32-.63.25s-.4-.04-.68.82c-.08-.74.61-.6.44-1.53.3-.6.43.17.6-.71-.19.23.04-.76-.04-.78-.07.18-.16.35-.25.52l.03.04c-.46.79-.89.24-1.27.21-.66.7-1.59,1.67-1.99,1.29.41-.36-.03-.64.77-1.27.13-.48-.35-.15-.6.14.06.21-.03.14-.02.39-.38.32-.58.13-.44-.17.01.06.06-.02.16-.13.05-.38-.39.29-.64.33.41-.52-.14-.38.01-.72-.27.17-.56.33-.84.48.55-.32.03-.31.45-.7-.42.18-1.12.54-1.13.24.32-.11.25-.45.79-.8.16-.31-.27-.19-.69-.12-.41.07-.81.1-.48-.27.14-.06.53-.19.64-.34-.19.01-.18-.13-.27-.18h.01-.01s-.13,0-.27.05c-.62.12-1.24.3-1.84.17-.67.27-.3.46-.04.48l.7-.19c-.96.53.3.19,0,.41-1.25.37-1.21-.33-2.07-.44-.87.56-.81,1.19-.47,1.6l.3-.39.13.23c.19-.19.39-.37.59-.55-.02.27.24.36.3.57-.13-.21.73-.74.64-.56-.51.56.53.01.59.19,0-.13-.04-.24.36-.37-.58.75-.04.54-.61,1.35.96-.72.37.32,1.2-.23v-.19c.24-.05.5-.11.76-.19-.58.85-.97.39-1.19,1.22.24.47,1.18-.39,1.47-.21-.59.43-1.25.61-1.45.35l-.13.38c-.39.19-.62-.23-.72-.44.87-.2.09-.29.53-.79-.59.37-.36.5-.98.59.17.21.24.21.24.65-.19-.77-2.39.81-2.31-.15.44.13.79-.62,1.07-.82-.15-.08-.43-.25-.64-.28l-.83.57c-.59-.19,1.25-1.23.14-1.2-.58.19-.02.45-.16.42-.84-.33.56-1.19,1.13-1.85-.3.07-.89.28-1.45.27.59-.13.84-.34,1.32-.3.19-.22-.28-.27-.54-.35-.24.43-.87.1-1.23.11.05-.21.59-.09.79-.03.11-.19.93-.56.04-.42.61-.14,1.7-.04,1.92.12l.05-.17c.34,0,.25.05.21.22.42-.28.95-.41,1.39-.52-.08.04-.15.04-.23.07-.13.15.07.17.38.04.83-.19.47-.29.85-.47-.07-.03-.13-.05-.2-.08-.92.09-1.84.13-2.77.11-.36-.2.25-.44.64-.68l-.73.05c.04-.24.25-.46,1.19-.43-.24.04-.18.05-.21.1h.36c-.26-.19-.42-.31-.45-.32,1.08.26,1.32-.11,2.61-.16-.15-.07-.3-.16-.44-.24-.4.19-.63.04-.81-.02.73-.04-.01-.24.09-.36h.15c.25-.09.19-.25,0-.39-.24,0-1.42-.24-2.12-.41-.3.25-.57.07-1.02.06.04-.03.06-.08-.04-.1-.2-.06-.28.04-.52.03.31.36.4.7,1.42.82.46-.08-.44-.16-.13-.26.67.16.54.33.53.56l-.61.1.34.23c-.33-.08-.96.02-1.09-.26-.57.06.14.27-.04.46l.81.02c-.45,0-.5.39-1.14.17-.23-.13-.46-.27-.69-.41l-.54.16-.17-.41.42.08c-.57-.65,1.59-.2.65-.83-.97-.24-1.07-.49-.79-.88.19.32.68.1,1.23.27.44-.23-.36-.41-.71-.62.52,0,.95.01.84.24,1.07.18-.14-.35.96-.19.04-.37-.79-.7-1.45-1.07-.66-.35-1.12-.76-.28-1.09l.41.18c-.16-.41-.06-.69.07-.93.13-.24.27-.47.27-.87.42,0,.84.04,1.25.08.09.19.72.83,1.27.98-1.12-.35-.87.06-1.53.02.27.14.5.14.69.19-.07.12-.57-.02-.46.24.22.08.56.01.64.2-.25-.01-.5-.03-.76-.04.19.44,1.53.75,1.12.96-.59-.25-1.41-.69-1.49-.9-.2.13-.27-.38-.68-.34.78.59.04.47.49.99-.11-.07-.29-.14-.32-.24-.18.13-.36.27-.53.41.56.01.48.57,1.3.69.44-.4-.07-.39.54-.82.13.21.87.64,1.59.91h-.07c.76.27.99.26,2.36.63-.93-.42-.1-.29-.59-.65-.71-.3-.97-.2-.82-.03-.14-.11-.28-.23-.42-.36l.33.16c.13-.13.28-.27.42-.39,0,.1.41.3.7.47.05-.04.26-.02.49.01-.68-.27-1.16-.49-1.12-.54.3-.24.98-.09,1.76.24l-.03-.05c-.69-.32-1.08-.85-1.67-1.37.66.42.5.1.88.24-.7-.56-1.76-1.21-2.47-1.47.52.71.6.6,1.52,1.32.15.25.31.49.48.71l-.59-.41c-.38.03.39.61-.44.19-.51-.37-.09-.36-.58-.76l-.37-.03c-.67-.69.83.31.44-.29-.74-.3-.04-.05-.41-.46-.54-.19-.13.65-1.24-.1-.21-.23.23-.2.57-.19.35,0,.61-.01.13-.5l.12.1c.37-.23-.16-.8-.42-1.24.45.13.16-.47.28-.67l.29.27.09-.33c.41.59-.26.24-.36.52l.57.45c-.85-.33.05.64.44,1.16-.33-.61.62-.48-.38-1.49l.67.36-.13-.25c.5.28,1.01.99.98,1.27-.16-.1-.24-.14-.35-.25.16.3.53.75.25.82l-.21-.35c-.24.21-.19.61.35,1.1.47-.15.76-.39,1-.69-1.1-1.22-1.61-2.02-2.59-3.19.1-.49.46-1.05,1.11-.83l.15.26c.24.02.33-.14.35-.36.38.23.34.74.57.85.07-.24.15-.5.24-.76.31.61-.11.87-.25,1.04,0-.07,0-.21-.07-.27-.4-.07-.06,1.14-.76.43,0,.21-.26-.74-.64-.5-.48-.09.04.65.23.89.27.29.67.13.87.58.11-.16-.14-.61.31-.47-.15.17.17.94-.3.54.2.8,1.53,2.08,1.67,2.08-.42-.4-.06-.88-.85-1.2-.34-.69-.01-.95-.03-1.5l.07.13c.07-.12.14-.24.22-.36.06.21.05.41.27.74-.05-.39-.07-.78-.08-1.18.07.77.41.33.67.55-.23-.56-.2-1.06-.56-1.26-.43-.27.01.36-.16.5-.06-.33-.11-.66-.15-.99l.07.07c-.05-.26-.1-.53-.14-.79.5-.17.56,1.71.82.77l-.5-.93c.39-.09.94.07,1.41.19.47.13.86.21,1.08-.07-.04.61.13,1.57.39,2.1-.21-.15-.59-.02-.8.15-.12-.16-.01-1.3.38-1.15-.26-.83-.43-.52-.55-.22-.12.3-.2.59-.49-.23-1.07-.27.04,1.77-.99,1.1.33.7,0,.42.29,1.05.36.53.52.44.67.25.14-.19.3-.48.55-.33-.01.07-.04.2,0,.34.32.13.36-.06.46-.39l-.04-.08c.13-.82.35.51.59.81.04-.13.32.04.19-.51.16.22.3.45.43.68l-.13-.86c.19-.07.28.5.41-.04l-.05-.78c-.19-.07-.37-.15-.56-.21.24-.29-.02-.76.3-.95-.28.88.3.41.38,1.13l.21-.45-.05.21c.19.39.2-.3.41-.19-.24-.44-.46-.98-.76-.41.2-.46.72-.96.86-.97.3-.32.47.29.7.4-.49.28-.06,2.36-.82,1.76.01-.15.08-.11.1-.02-.1-1-.5.06-.61.45.07.57-.07.72.2,1.02-.11-.36.19-1.29.47-.81l-.08,1.23c.1.05.21.1.3.16l-.03.05c.04.79.34-.12.47.38.22-.41.72.07.8-1.23,0,.79.44-.09.76-.15-.04-.19-.09-.39-.14-.58.69-.7.36-.21,1.22-1.37-.09.33-.13.61-.33.9.53.29.97.96,1.8.31.3.28-.53,1.46.18,1.31.19-.06.7-.93.71-.43-.05.07-.84.47-.52.63.86-.5.02.76.83.43-.15.35.11.47-.51.89,0-.28-.36-.44-.64-.23.36-.28.2-.42.58-.53.14-.67-.49.16-.47-.36-.21.21-.44.72-.21.57-.72.72-.77-.04-1.41,1.04.11.22,1.7-1.19,1.11-.26-.53.35-.25-.13-1.09.55-.05.14-.11.27-.18.41.21-.14.41-.28.62-.41l-.12.1c-.5.84.98-.48,1.61-.5.44-.6,1.45-1.02,1.69-1.42.29.16.31.44-.54,1.01-.48.03-.7.19-.94.36-.24.17-.5.35-1.01.52-.26.26-1.22.87-1.22,1.05.7-.28.65-.56,1.04-.59-.07.06-.13.13-.27.21.49-.22-.1.19.45-.04l-.19.09c-.46.44.68-.24.16.21.63-.42.58-.24,1.04-.39.19-.25,1.09-.88.85-1.15-.53.29-.79.49-1.1.55l.16.12c-.1.01-.25.07-.37.11.05-.1.11-.21.16-.32.49-.04.96-.49,1.55-.73-.08.36.26.1.18.34-.76.44-1.08,1.13-1.51,1.56.01-.04-.02-.07-.01-.1-.56.1-.61.41-.84.51l.44-.09c-.07,0-.26.07-.36.16.2.05,1.01-.29,1.22-.19-.45.18-1.18.34-1.39.51-.39.19-1.41.64-.97.61.18-.05.29-.05.38-.03-.03,0-.04,0-.08,0l-.48.23c-.81.18.33-.25-.47-.05l-.74.25s-.35.04-.73.18c-.11.09.08.01.25,0-.47.16-.82.26-.87.28l.42-.15c.59-.28-.73.21-.6.13.03-.01.08-.04.21-.1-.7.3.21-.2-.68.25l.36-.19c-.15.07-.4.2-.68.36l-.11.07h.02-.02s0,0,0,0c-.01,0,0,0-.03.01h-.01,0-.03s0,0,.01,0h.06s0,0,0,0h.01s0,0,0-.01h.01s-.02,0,0-.01h0s0-.01,0-.03c0,0,0,0,0,0t.01-.02s0,0,0-.01h0s0,0,0,0h0s0-.02,0-.03h0s0,0,0,.01c0,0,0,.01,0,0,0,0,0,0,.01.02h0s.03.03.04.04,0,0,.02.01h0s.02.01.02.01h0,.01s0,0,0,0c0,0,0,0-.01,0,0,0,.01,0,.02.01h0s0,0,.01,0h-.03s0-.01.01-.01h.1s0,0,0,0c.01,0,0,0,0,0h0,0,0-.01,0s-.02,0-.04,0c0,0,.01,0,0,0-.16.06-.24.1-.51.19l.24-.1c.25-.09.33-.11.29-.1h.01s-.06.01-.09.02c-.61.16-.56.16-.47.14.1-.01.21-.06-.24.12.07-.04-.06,0-.24.04-.15.08-.3.18-.46.3l.29-.11c.12-.08.21-.14.26-.16-.04.04.1,0,.36-.11.13-.05.29-.13.47-.2.13-.06.08-.04.09-.04h0l-.13.07ZM58.64,37.06h0ZM56.54,36.79c-.15.07-.4.16-.52.27.92-.1,1.73-.09,2.3-.06.44.03.66.04.72.04h0c-.07,0-.19-.01-.32-.02-.32-.02-.69-.06-1.04-.1-.7-.09-1.35-.21-1.45-.23-.51-.04.04.05-.12.07l.42.03ZM59.02,37.05h0ZM58.67,37s-.02,0-.07,0h.07ZM58.24,37.27h-.02l-.08.04c.06-.01.1-.03.1-.04ZM59.01,37.06l-.56.12-.07.02c.26-.06.48-.11.63-.15h0ZM59.03,37.05h0,0ZM58.76,36.99h0l.02-.02c.09-.12.29-.37.44-.58-.01.04-.04.07-.09.14.57-.62.31-.26-.04.11-.17.18-.14.15-.33.36h0ZM59.28,35.46c.02-.05.07-.19.07-.19-.36.77-.49,1.35-.53,1.63h0c.06-.24.1-.3.07-.21,0,.04-.03.11-.06.19v.04h-.01v.02h0s0,0,0,0h0s-.07.1.17-.26c.1-.15.19-.28.27-.39-.02-.02-.03-.05.16-.4l.23-.39c.19-.37-.01-.11-.18.18-.07.01-.36.58-.13.04l.19-.37c-.12.09-.14.14-.22.12h-.02ZM56.61,35.63c.73.4,1.39.8,1.85,1.08.11.07.21.13.3.19.07.04.19.13.16.1t-.01,0h0s0,0-.01-.01c-.02-.02-.04-.04-.07-.07-.04-.04-.08-.08-.1-.1t.02.01s.06.07.13.13h.01s0,0,0,0h0s0,0,0,.01c0,0,.01,0,.01.01,0,0-.01-.01,0,0h-.01s0-.01,0-.01c0,0,.01.01,0,0h-.01s0-.01,0-.03h0s.01.03,0,.02h0s0-.01,0-.03h0s-.01-.03-.01-.04h0c-.04-.1-.09-.23-.16-.41-.04-.15-.05-.3-.04-.45.05.26.11.52.2.84,0,.01,0,0,0,0h0c-.02-.13-.04-.2-.04-.26-.01-.11-.01-.17-.04-.49.06.45.06.55.06.56.03.25.02.17.02.19h0s0,.01,0-.01v-.11c0-.36-.03-.82,0-1.13v-.15c-.04-.2-.3-.97-.26-.23l-.04-.36c-.1-.3-.13.04-.12.27,0,.24.02.38-.2-.27-.16-.52-.06-.11-.3-.86.02.21.05.41.09.61l-.1-.34c-.04.07-.07.16-.1.23l-.05-.14c.2.69.42,1.22.63,1.64.16.3.21.39.33.61.07.15.09.17.07.13h0c-.05-.09-.3-.5-.43-.66v-.1c-.27-.51-.56-1.04-.82-1.35.01-.04-.19-.44-.27-.47.07.13.09.38.37.75,0,.13-.24-.1-.47-.21-.21-.11-.4-.08-.09.38-.34-.59-.65-.45-.67-.76-.77-.54.55.73.38.71-.25-.21.07-.01-.38-.49-.22-.04-.01.3.24.6s.54.58.39.56l-.61-.39c.06.08.13.16.19.25h-.01ZM57.29,36.28c.07.05.14.1.21.15h.02c.17.09.35.18.53.25.22.05,1.2.46.94.35-.13-.05-.29-.11-.37-.14-.41-.16-.82-.24.22.1-.24-.08-.28-.1-.21-.08.06.02.21.07.37.13h0c-.16-.04-.37-.11-.45-.13.17.05,0,.02.28.09.07.01.13.03.19.04h0c-.1-.02-.16-.03-.29-.06.04,0,.07.01.1.02.04,0,.11.02.19.04h-.07,0-.04s-.53-.25-.53-.25c.19.08-.33-.16-1.11-.5h0ZM50.64,38.33h-.01.01Z"/>
        <path class="cls-3" d="M61.06,36.25c.26-.07.24,0,.78-.18-.61.19-.13-.07-.78.18Z"/>
        <path class="cls-3" d="M60.49,36.49c.15-.04.38-.11.4-.1h-.17l-.24.1h0Z"/>
        <path class="cls-3" d="M65.31,30.95c.34-.34-.1-.12-.23-.08.01.06-.02.21.23.08Z"/>
        <path class="cls-3" d="M66.32,42.74c.2-.53.33-1.04.4-1.53-.08.41-.21.79-.4,1.53Z"/>
        <path class="cls-3" d="M59.51,31.28c.4-.4.77-1.19,1.26-1.27-.16-.55-.47-.23-.71.11-.25.34-.43.68-.61.17.03.33.05.66.06.99Z"/>
        <path class="cls-3" d="M60.18,27.5c-.04.9-.56,1-.55,1.67.36-.18.26-.84.58-.71,0-.32,0-.64-.02-.96h0Z"/>
        <polygon class="cls-3" points="57.58 28.3 57.62 28.08 57.29 27.84 57.58 28.3"/>
        <path class="cls-3" d="M57.65,27.87l-.04.21.04-.21Z"/>
        <path class="cls-3" d="M55.85,28.32c-.04.14-.1.28-.13.41l.06.07c.04-.14.08-.27.13-.41l-.05-.07h0Z"/>
        <path class="cls-3" d="M58.84,36.93h0s-.04-.07-.07-.11c.02.04.04.08.07.11h0Z"/>
        <path class="cls-3" d="M49.31,30.9c.41-.16.56-.16,1,.16.33-.16-.46-.67-.5-.97-.16.39-.41.31-.5.81Z"/>
        <path class="cls-3" d="M49.81,30.1s.04-.08.05-.14c-.05.04-.06.09-.05.14Z"/>
        <path class="cls-3" d="M48.8,31.21c.07-.04.1-.15.28-.1-.46-.3-.35.14-.28.1Z"/>
        <path class="cls-3" d="M58.07,36.38c.27.2.12.06.22.13-.06-.04-.86-.63-.22-.13Z"/>
        <path class="cls-3" d="M50.36,33.05c.05-.04.41.05.81.27-.21-.18-1.02-.69-.81-.27Z"/>
        <polygon class="cls-3" points="57.96 36.38 58.12 36.48 57.84 36.26 57.96 36.38"/>
        <path class="cls-3" d="M58.91,37s0,0,0,0h0,0Z"/>
        <path class="cls-3" d="M47.58,35.6l-.36-.21-.14.19c.15-.04.84.15.5.02Z"/>
        <path class="cls-3" d="M47.06,35.62l.02-.04s-.04.01-.02.04Z"/>
        <polygon class="cls-3" points="48.89 36.71 48.74 36.49 48.8 36.73 48.89 36.71"/>
        <polygon class="cls-3" points="47.28 37.85 47.1 37.9 47.46 38.08 47.63 38.02 47.28 37.85"/>
        <path class="cls-3" d="M52.93,45.4c-.38.36-.59-.18-.3-.56.18-.12.49-.14.56-.47-.35.26-.7.51-1.05.75.16-.88,1.31-1.02,1.73-1.28-.22-.37-.82.19-1.16-.12.02.17-.13.46-.24.7-.56.67-.67.06-.93-.12-.13.41-.43.56-.79.68-.04,0-.09.01-.14.04l-.13.04.03.03c-.07.07-.16.16-.24.29.39.04.07.74.22.9.81-1.19.75.23,1.27.07l.33.07.1.07c-.07.14-.21.28-.53.4.29-.13.66.24.87-.17.33.21.68.41,1.03.59,0,.07,0,.15-.01.25.07-.06.12-.13.15-.19,1.59.78,3.54,1.22,5.42,1.13-.28-.1-.52-.44-.78-.6.44-.93-.43-.19-.24-1.08.19-.31.41-.2.56.02.06-.45-.13-.85-.08-1.39-.46-.59-.75,1.56-1.32,1.13.12-.53.35-.97,0-.96l.1-.1c-.68.48-.13-1.27-.82.08l.21-.75c-.38.51-.86.36-1.13.36l.07-.13c-1.03.53-.47.01-1.36-.04.26-.2.52-.41.76-.62-.04-.45-.58.39-.7.19.09-.13.35-.63.56-.67-.49.25-1,.47-1.53.66-.54.33-.3.49-.46.79h-.01Z"/>
        <path class="cls-3" d="M52.71,43.72c0-.06-.03-.11-.1-.13.03.06.06.1.1.13Z"/>
        <path class="cls-3" d="M59.5,48.5l-.4.02c.13.04.25.05.4-.02Z"/>
        <path class="cls-3" d="M50.55,43.9c-.21.39-.52.26-.78.41.13.16.28.33.44.5.22-.2.52-.38.72-.57,0,0-.38-.35-.38-.35Z"/>
        <path class="cls-3" d="M49.92,45.34c.17-.13.36-.19.54-.26l-.26-.27c-.17.15-.3.32-.29.53h0Z"/>
        <path class="cls-3" d="M58.86,37.16h0s0,0,0,0Z"/>
        <polygon class="cls-3" points="58.87 37.15 58.86 37.16 58.86 37.16 58.87 37.15"/>
        <path class="cls-3" d="M61.39,45.03s.07-.06.11-.09c-.06.01-.09.05-.11.09Z"/>
        <path class="cls-3" d="M59.07,46.19c.8.85-.48.75-.25,1.86.16-.13.31-.25.46-.39l-.03.3c.19-.04.39-.09.57-.13-.16-.5-.24-.53-.27-1.07.72.14.27.62.92,1.23.28-.07.56-.16.84-.27l-.03.17c.07-.03.09-.1.09-.19.91-.33,1.74-.79,2.45-1.3.19-.59-.67-.74-.79-1.59-.4.24-1.25-.04-.9.98-.04-.15-.12-.44-.25-.52.02.31.03.62.03.93l.38.16c.02.96-1.16,1.09-1.45.56.53-.43-.04-1.38.84-1.04-.12-.25-.39-.67-.28-.86-.33.27-.73.33-1.12.43-.39.1-.76.25-1.21.73h0Z"/>
        <path class="cls-3" d="M65.58,42.31l.07.07s-.07-.07-.07-.07Z"/>
        <path class="cls-3" d="M65.35,42.39c.21.3.41.61.61.93.1-.16.19-.31.27-.47l-.57-.48c.13.15.31.52.04.39,0,0-.35-.37-.35-.37Z"/>
        <path class="cls-3" d="M66.15,44.05c-.02-.44-.7-.99-1.09-1.16-.15-.44.79.53.2-.2-.48-.41-.39.04-.35.17l1.23,1.19h0Z"/>
        <polygon class="cls-3" points="64.06 45.21 63.93 44.86 63.7 44.9 64.06 45.21"/>
        <path class="cls-3" d="M63.93,44.86l.23-.04c-.16-.21-.33-.41-.46-.55,0,0,.23.59.23.59Z"/>
        <path class="cls-3" d="M64.78,44.68c.12,0,.22-.03.33-.1l-.33.1Z"/>
        <path class="cls-3" d="M64.44,44.65l.07.09.26-.07c-.11,0-.22,0-.33-.02Z"/>
        <path class="cls-3" d="M64.17,44.82c.38.48.79.98.97.63l-.62-.71-.35.08Z"/>
        <path class="cls-3" d="M65.68,44.36c.26.29.23,0,.2-.14-.07.02-.22,0-.2.14Z"/>
        <path class="cls-3" d="M66.94,39.39h.33c-.19-.03-.28-.04-.33,0Z"/>
      </g>
    </g>
  </g>
</svg>