<?xml version="1.0" encoding="UTF-8"?>
<svg id="Layer_1" xmlns="http://www.w3.org/2000/svg" viewBox="0 0 554.87 653.7">
  <defs>
    <style>
      .cls-1 {
        fill: #f7f7a3;
      }
    </style>
  </defs>
  <path class="cls-1" d="M234.27,282.77c-4.27,1.87-6.64,5.13-9.46,7.82-1.98,1.9-4.08,2.98-6.86,2.87-9.53-.34-18.86-1.9-27.96-4.66-2.54-.77-5.65-1.22-7.07-5.01,4.21.97,8.08.52,11.77,1.98,6.45,2.55,13.21,1.49,19.75.84,3.19-.31,4.86-4.28,7.41-6.39,2.2-1.82,3.95-4.17,5.87-6.31.51-.56.97-1.33.46-2.03-.51-.7-1.35-.2-2.07-.2-9.08-.04-17.76,4.21-27.14,2.07-4.22-.97-8.85-.3-13.29-.12-3.77.15-7.09-1.16-10.55-2.31-2.97-.99-3.07-2.52-.99-4.01,8.2-5.86,14.2-14.58,24.11-18.26,2.79-1.04,5.21-1.66,8.2-.76,4.44,1.35,8.96,1.47,12.99-1.48,3.56-2.61,6.75-1.99,9.66,1.06,2.88,3.02,6.77,5.26,8.28,10.15-3.84-.63-6.92-2.05-8.94-4.17-1.91-2-4.04-2.1-5.41-1.21-4.04,2.61-8.42,1.97-12.27,1-5.1-1.29-8.95-.04-12.47,3.17-3.82,3.49-8.24,6.47-11.6,12.1,8.7-2.03,16.81,1.7,24.43-2.35.64-.34,1.5-.51,2.21-.42,9.46,1.16,17.22-3.49,25.29-7.21,1.38-.64,2.23-1.32,2.69-2.72,3.09-9.44,6.48-18.8,9.22-28.34,1.26-4.4,1.26-9.15,1.89-13.73,1.63-11.78.43-23.52-.05-35.3-.24-5.96-5.56-8.74-6.73-14.19-.73-3.42-.52-7.69-3.64-10.68-6.22-5.97-6.34-14.03-6.85-21.87-.12-1.92-.53-4.03,1.11-5.6,2.01-1.92-.25-3.36-.63-4.89-1.12-4.58-2.41-9.23-7.51-11.21-1.46-.57-.88-1.62-.7-2.65.57-3.2-.2-5.64-3.78-6.45-.53-.12-1.27-.37-1.46-.78-1.38-2.89-2.97-5.22-5.56-7.57-2.56-2.32-5.05-5.97-7-9.25,1.03-1.91,2.1,2.02,2.55-.23.16-.81-.03-3.51-2.39-2.85-1.73.48-2.57-.24-3.36-1.45-1.1-1.69-2.64-3.49-3.45-4.87-3.78-6.36-10.34-10.23-13.83-16.66-.81-1.49-2.49-2.64-.29-4.59,2.24-1.99,3.69-1.18,5.39.49,7.75,7.67,14.21,16.47,21.51,24.52,6.15,6.78,10.88,14.53,15.99,21.98,3.27,4.76,5.28,10.47,6.96,16.14.6,2.03,1.14,4.09,1.89,6.07.97,2.55,1.43,4.18,5,1.48,7.98-6.04,17.03-10.01,27.26-11.36,11.38-1.5,22.58-4.49,33.98-5.76,14.7-1.63,29.26-.18,43.42,4.65,4.37,1.49,8.88,2.94,13.74,2.28,2.18-.29,4.24,1.16,5.65,2.51,7.11,6.8,15.77,11.22,24.19,15.92,8.53,4.77,15.93,10.94,23.44,17.04,8.83,7.18,16.26,15.75,23.74,24.23,7.61,8.62,10.92,19.23,13.94,30.12,4.28,15.41,7.9,31.18,18.08,44.67.67-6.32,4.2-10.52,9.89-13.26,4.07-1.96,8.15-1.96,11.82,0,10.51,5.65,20.7,11.83,28.49,21.22,3.25,3.92,7.94,6.36,10.74,10.89,4.49,7.28,5.66,14.55,1.55,22.3-2.07,3.9-3.71,8.05-4.24,12.37-.59,4.9-4.51,7.72-6.39,11.78-.75,1.6-2.89,1.46-4.56,1.04-6.59-1.65-13.22-3.21-19.74-5.1-2.98-.87-5.88-2.13-7.96-4.79-3.14-4.03-7.25-6.93-11.95-9.63-.98,6.92.33,13.6,1.2,20.22,1.35,10.39,2.47,20.71,1.22,31.21-.39,3.24.34,6.65,1.52,9.8,3.67,9.82-.26,25.49-10.06,32.47-7.83,5.58-15.48,11.19-24.86,13.7-2.62.7-4.33,2.66-7.11,3.51-8.38,2.55-15.92-.84-23.74-1.45-7.89-.61-15.64-.64-23.28,1.02-3.24.7-4.84-2-8.17-2.46,3.05,7.42,8.17,12.5,13.47,17.12,10.14,8.84,16.93,18.88,18.52,32.85,2.02,17.71,7.5,34.8,11.94,52.06,2.56,9.93,4.48,20.11,4.15,30.41-.28,8.93-2.15,17.67-5.93,25.91-1.24,2.71-3.58,4.13-5.94,5.32-9.69,4.86-19.16,10.19-29.48,13.74-1.88.65-3.52.16-5.23.51-6.26,1.29-12.47,3.12-18.79,3.72-3.95.37-8.02,1.12-12.19.16-3.4-.78-7.08-1.1-10.57.63-2.67,1.33-5.67.54-8.52.67-2.85.13-3.79.8-2.25,3.82,5.8,11.33,4.75,23.1,1.59,34.88-1.81,6.74-4.44,13.17-7.5,19.47-3.37,6.94-10.03,8.48-16.35,9.39-5.45.78-10.99-1.63-16.45-2.88-6.54-1.5-8.32-7.82-12.37-11.77-4.29-4.18-6.75-10.09-11.39-14.06-2.41-2.06-1.49-5.47-3.22-7.15-6.04-5.85-4.89-14.58-9.01-21.2-.87-1.4-2.12-4.39.22-6.53.38-.35.32-1.5.09-2.15-2.84-7.8-1.18-15.68-.61-23.55.6-8.23.6-8.61-7.37-11.18-13.41-4.33-20.97-14.92-29.44-25.09-4.83-5.8-4.57-13.32-9.11-18.88-1.31-1.61-.18-3.5,1.25-4.83,2.9-2.69,6.32-3.5,10.12-2.51,7.69,2.02,14.76,5.35,21.06,10.23,5.57,4.32,6.3,11.1,8.51,17.08,1.26,3.41,3.28,6.34,4.81,9.57.54,1.15,1.34,1.85,2.44,1.09,1.19-.83.14-1.57-.53-2.11-1.21-.97-1.44-2.4-1.56-3.72-.21-2.23.87-4.61-2.61-5.68-1.69-.52-.29-6.18,1.32-8.11,5.81-7,9.55-14.82,8.23-24.25-1.18-8.47-4.38-16.31-7.81-24.07-.81-1.83-2.51-3.54-1.33-5.92.17-.33-.29-1.33-.7-1.55-4.67-2.48-5.91-8.03-9.98-11.02-.48-.35-1.11-.78-1.26-1.29-1.98-6.98-8.01-12.02-8.33-20.16-.14-3.64-1.8-7.76-1.87-11.86-.21-12.36,4.64-22.71,12.01-32.35,5.04-6.6,8.62-14.17,12.54-21.51,4.6-8.62,4.7-18.33,7.34-27.41,1.77-6.07,5.65-9.03,10.88-11.1,1.02-.4,2.58-.36,3.53.15,9.23,4.92,19.42,6.44,29.48,8.29,4.74.87,8.77,3.18,13.01,5.17,4,1.88,7.85,4.42,12.86,3.92-1.63-1.07-1.74-3.57-4.47-3.71-1.2-.06-1.18-.53.06-1.94.78-.89-.45-3.16-2.11-3.51-11.08-2.32-21.17-7.59-32.08-10.53-5.91-1.59-11.43-4.88-16.93-7.77-8.31-4.37-16.72-5.87-25.7-2.28-1.31.52-2.47,1.14-3.46,2.08-9.52,9.11-20.63,15.08-33.72,17.16-1.69.27-3.38.66-4.59,1.81-4.15,3.95-9.63,5.58-14.43,8.37-4.02,2.33-7.34,5.1-9.62,9.11-4.08,7.15-11.09,11.92-15.32,18.97-2.23,3.72-5.14,6.88-5.77,11.6-.48,3.58-3.15,5.78-7.38,4.44-10.24-3.25-20.59-6.05-30.23-11.1-4.34-2.28-9.42-3.56-14.57-.75-3.16,1.73-6.72,2.75-10.13,3.98-6.29,2.27-11.23,6.35-15.8,11.11-2.48,2.58-5.57,3.89-9.32,2.21-2.19-.98-3.42-1.76-.43-3.3,4.55-2.35,5.67-7.73,9.51-10.83,1.55-1.25-.41-2.41-1.68-2.75-8.57-2.29-16.49-6.51-23.17-11.81-6.49-5.15-13.73-9.07-20.08-14.18-6.67-5.36-12.92-11.54-15.85-20.03-.38-1.1-1.28-1.13-1.74-1.82-4.08-6-6.58-12.73-5.62-19.85.52-3.86,2.01-8.09,5.38-11.11,3.71-3.33,6.48-7.43,9.24-11.62,3.44-5.23,9.29-7.55,15.06-9.54,6.09-2.09,5.99-1.96,3.07-7.45-4.66-8.74-12.17-15.21-18.01-23-3.94-5.25-9.68-8.9-12.59-15.11-2.88-6.14-6.34-11.99-9.52-17.99-1.41-2.65.08-5.88-1.2-8.38-9.95-19.38-11.08-23.97-12.97-44.47-1.43-15.48-4.07-30.93-2.23-46.47,1.81-15.33,4.56-30.68,12.7-44.13,8.21-13.57,18.42-25.91,31.82-34.41,15.42-9.78,31.15-19.39,48.73-25.09,10.18-3.3,20.78-4.79,31.32-6.49,4.76-.77,9.49-1.92,14.13-3.25,6.29-1.8,12.61-1.61,18.87-.51,4.7.83,8.3,3.67,10.05,8.3,3.99,10.6,8.33,21.04,14.35,30.66,3.11,4.97,2.39,9.88.28,14.72-2.56,5.84-5.71,11.32-10.97,15.35-5.27,4.04-7.41,10.23-9.94,15.99-5.42,12.34-11.6,24.06-21.74,33.36-3.3,3.03-6.05,6.72-8.76,10.33-5.7,7.59-14.58,10.53-22.05,15.53-6.37,4.25-13.99,6.24-19.78,11.67-3.35,3.14-5.53,6.19-6.45,10.9-1.41,7.2-2.75,14.58-3.24,21.71-.47,6.88.03,14.06-.38,21.09-.36,6.09.69,12.04.97,18.05.02.45.26.97.12,1.35-2.54,6.77,3.24,9.92,6.09,14.42,8.84,13.95,21.69,23.72,34.39,33.69,2.63,2.06,5.07,4.14,8.39,5.19,5.6,1.77,9.84,5.87,14.42,9.32,11.38,8.57,23.63,15.87,35.21,24.13,6.63,4.72,13.77,2.4,20.6,2.29,12.61-.21,22.08-6.9,29.88-16.44,2.52-3.09,4.02-6.26,4.08-10.23.04-2.99.35-5.98.57-9.41ZM45.55,188.29c-.09,5.63,2.31,10.64,1.43,16-.76,4.6-1.16,9.27.83,13.82,1.75,4.02,3.28,8.14,4.75,12.27,2.63,7.38,7.91,11.99,15.06,14.64,8.82,3.27,14.44,9.45,17.39,18.33,1.32,3.99.18,8.12,1.16,12.11,2.67,10.85,4.15,21.85,5.59,32.95,2.84,21.89,7.05,43.6,5.18,65.84-.18,2.2.89,2.59,2.81,1.67,3.01-1.43,6.23-2.47,9.1-4.12,9.37-5.41,18.27-5.18,27.81.23,5.83,3.3,12.73,4.68,18.9,7.61,1.38.66,3.91,1.97,4.9-1.07,1.25-3.85,3.89-6.92,6.35-9.85,9.86-11.73,18.24-25.07,32.79-32,6.13-2.92,11.69-7.87,18.47-8.42,9.08-.73,16.29-5.16,23.91-9.11,4.82-2.51,8.3-6.88,13.58-8.86,11.13-4.17,21.61-1.82,31.49,3.18,8.4,4.25,16.53,8.85,25.84,10.94,5.25,1.17,9.92,4.26,15.57,4.31,5.62.04,10.03,3.2,12.51,7.84,3.39,6.35,7.92,11.36,13.66,15.51,2.84,2.05,5.48,4.54,7.12,7.59,5.97,11.07,14.24,20.68,20.09,31.81,1.19,2.27,2.3,4.85,3.58,6.76,1.72,2.56,4.41-1.74,7.12-1.46,1.32.13,2.69-.42,4.05-.5,7.56-.48,15.04-.33,22.54,1.2,5.33,1.09,10.6,3.78,15.78,3.62,11.23-.34,20.95-5.78,28.95-13.33,6.73-6.36,11.3-14.32,13-23.86.7-3.9-1.55-7.39-.27-11.17.77-2.29.35-4.76.23-7.2-.54-10.77-1.73-21.51-.32-32.36.19-1.49,1.01-4.13-.53-6.01-3.32-4.05-4.18-8.92-4.48-13.94-.43-7.24-3.17-14.35-2.39-21.55.63-5.89-1.33-10.81-3.28-15.87-3.54-9.2-8.96-17.45-13.9-25.9-4.94-8.46-8.74-17.96-17.89-23.25-.39-.22-.78-.47-1.09-.79-7.67-7.96-15.35-15.88-24.69-21.99-5.29-3.47-9.67-8.25-15.59-10.84-5.42-2.37-10.99-5.52-16.9-4.37-7.86,1.53-15.65,2.45-23.65,2.98-11.65.76-22.56,5.65-34.06,7.68-7.23,1.28-14.01,4.41-21.45,5.36-6.01.76-10.54-1.07-14.38-5.17-4.53-4.83-8.54-10.11-12.66-15.31-2.6-3.28-4.61-6.85-6.82-10.3-1.71-2.67-5.56-3.35-6.51-5.63-2.89-6.88-10.2-10.22-12.83-17.31-.12,2.46-.52,4.64.23,7.02,2.18,6.91,4.83,13.64,6.77,20.65,3.51,12.66,5.88,25.52,8.52,38.35.91,4.45,1.03,8.97.57,13.54-1.42,14.21-3.82,28.21-7.49,42.03-3.18,11.98-5.85,24.17-6.91,36.47-1.81,20.93-19.79,36.47-39.19,36.15-9.01-.15-18.21,1.14-26.64-3.55-6.85-3.81-13.57-7.71-19.65-12.82-6.06-5.09-12.66-9.58-19.25-13.99-5.1-3.4-10.69-6.07-15.83-9.42-8.65-5.64-16.09-13.01-25.28-17.91-1.77-.94-2.74-2.95-3.93-4.33-2.46-2.84-1.97-3.17-4.44-4.4-4.09-2.02-8.42-4.73-10.36-8.43-3.6-6.89-9.79-12.4-11.09-20.51-.75-4.69-3.72-9.41.97-14.6-2.96,1.25-3.85-.13-4.45-2.13-1.09-3.62-2.28-7.22-3.45-10.81-.84-2.59-.59-5.69-3.65-7.22-4.33-2.17-7.99-5.7-13.32-6.79ZM406.56,569.68c3.91-1.54,8.03-4.72,12.39-7.43,2.82-1.75,4.7-4.37,5.31-8.04,1.29-7.76-.2-15.38-.4-23.06-.14-5.3-2.74-10.7,1.11-15.79.61-.81.66-3.26.34-3.39-5.76-2.33-3.01-7.6-3.84-11.42-1.76-8.12-4.44-15.96-6.73-23.9-1.54-5.33-3.59-10.51-4.74-15.99-1.62-7.69-4.78-15.1-3.94-23.2.04-.4-.13-.82-.21-1.23-4.37,1.65-3.84-3.03-5.16-4.6-4.6-5.47-8.5-11.56-12.39-17.6-1.52-2.36-1.29-5.76-3.53-7.74-6.1-5.4-8.5-13.17-12.29-19.89-3.42-6.06-6.87-11.59-12.16-16.13-5.36-4.6-9.84-10.39-15.62-14.29-10.45-7.06-21.84-12.58-34.38-15.09-5.67-1.14-11.13-2.79-16.47-4.97-8.08-3.3-11.52-2.65-13.54,3.61-2.71,8.41-7.01,16.07-10.25,24.21-3.84,9.66-7.53,19.49-14.4,27.45-6.29,7.29-9.92,15.35-10.28,24.97-.52,13.72,1.8,26.69,10.95,37.44,10.04,11.8,16.66,25.06,19.65,40.31,2.27,11.55-1.12,21.01-9.09,29.18-1.19,1.22-1.66,2.63-1.25,4.11,2.02,7.28,3.94,14.64,7.42,21.38,1.17,2.27,1.92,5.43,4.94,6.23,6.25,1.66,12.12,4.63,18.72,5.11,2.69.2,5.41.54,7.96,1.68,9.19,4.13,17.41,9.72,24.83,16.48,1.57,1.43,2.96,2.17,5.13,2.09,6.51-.23,13.03-.37,19.54-.28,17.84.25,35.24-1.68,52.38-10.2ZM41.45,221.84l-.53.26c-.63-1.36-1.3-2.7-1.89-4.07-4.17-9.82-1.41-20.61-4.27-30.66-.56-1.96,1.06-3.88,3.12-5.1,5.23-3.09,10.11-1.13,14.62,1.26,6.78,3.6,13.66,7.19,19.03,12.96.62.67,1.59,1.83,2.65,1.07.54-.39.43-1.64.69-2.49,1.03-3.47-.87-6.55-1.2-9.79-.6-6.1,1.17-12.21,1.25-18.28.11-8.99,5.7-13.8,12.33-17.55,9.04-5.11,18.47-9.47,27.02-15.5,3.49-2.47,6.88-4.85,9.56-8.21,2.26-2.82,4.34-5.91,7.05-8.23,8.01-6.87,13.58-15.29,17.31-25.06,1.45-3.79,3.01-7.53,4.42-11.34,2.6-7.05,7.06-12.86,11.67-18.7,7.51-9.53,12.85-19.41,3.99-31.48-2.37-3.23-5.27-7.6-2.54-12.58.36-.65-.63-2.93-1.34-3.11-2.73-.68-2.29-3.18-3.35-4.78-2.4-3.62-5.6-5.54-10.23-4.67-10.38,1.95-20.56,5.2-31.19,5.49-12.39.34-23.19,5.44-34.13,10.37-5.4,2.43-10.25,5.93-15.62,8.29-14.36,6.3-26.53,15.14-36.52,27.36-16.46,20.15-24.92,43.05-23.66,68.97,1.28,26.4,2.82,52.84,12.04,78.13,5.09,13.95,11.41,27.09,21.64,37.98,8.53,9.08,16.11,18.89,23.34,28.99,3.02,4.23,2.22,6.73-2.23,9.69-4.1,2.72-9.02,3.38-13.28,5.66-6.34,3.4-9.13,10.24-14.36,14.71-4.74,4.05-5.96,9.29-4.53,15.12,3.53,14.35,11.55,26.15,22.92,35.09,8.33,6.55,16.89,13.06,26.59,17.78,5.63,2.73,6.21,2.66,6.27-3.46,0-.45-.03-.91-.06-1.36-.89-14.77-2.73-29.47-5.48-43.97-2.43-12.79-2.01-25.86-4.87-38.61-.91-4.05-2.02-8.52-1.23-12.94.71-3.94-.68-7.7-1.43-11.42-.99-4.91-3.91-8.58-9.16-9.99-4.56-1.23-8.6-3.84-12.23-6.61-4.78-3.64-8.75-8.13-9.82-14.72-.36-2.24.17-5.55-3.14-7.37.32,1.24.54,2.06.75,2.88ZM444.65,207.85c-3.47-13.58-7.24-26.06-16.79-35.95-3.87-4.01-7.28-8.47-8.75-14.03-.23-.85-.75-1.17-1.48-1.51-3.81-1.78-6.89-4.61-10.09-7.23-5.26-4.31-10.16-9.05-16.09-12.52-5.96-3.48-12.07-6.68-17.16-11.6-1.45-1.4-3.59-2.74-5.82-3.74-5.09-2.28-10.51-2.85-15.74-4.31-14.47-4.03-29.27-7.69-44.23-4.77-13.02,2.53-26.1,4.53-39.17,6.7-2.67.44-5.61-.35-7.95,1.65-3.74,3.17-8.31,4.93-12.57,7.15-3.44,1.79-3.51,3.19-.71,5.49,7.66,6.29,13.56,14.16,19.62,21.89,5.12,6.53,10.09,13.17,15.36,19.57,2.69,3.26,5.77,6.65,10.75,4.39,13.46-6.1,28.14-7.95,42.08-12.34,3.64-1.14,7.32-1.77,11.12-2.08,5.11-.41,10.38-.52,15.24-1.94,14.01-4.1,25.97.09,36.7,8.63,7.09,5.64,13.42,12.16,21.24,16.96,5.38,3.3,10.46,7.2,14.6,12.11,2.56,3.03,5.58,5.44,9.82,7.47ZM320.3,647.34c3.07-1.69,6.08-4.23,6.72-9.14,1.42-10.83,6.35-21.19,4.29-32.46-.29-1.6,1.66-2.38,1.31-3.25-1.89-4.68-4.16-9.21-6.15-13.85-.52-1.21-1.45-1.62-2.43-1.65-6.37-.19-12.55-1.48-18.73-2.89-10.32-2.35-20.1-5.2-25.68-15.61-1.62-3.02-3.36-6.37-6.86-8.23-2.72-1.44-3.32-.84-3.58,1.97-.49,5.11-1.36,10.17-1.97,15.27-1.67,13.91.85,27.08,7.35,39.46,4.74,9.03,11.59,16.59,17.75,24.62,6.24,8.13,18.08,10.68,27.99,5.75ZM523.55,266.35c-1.75-4.22-6.75-4.73-9.13-7.99-4.84-6.62-11.24-11.28-18.06-15.54-6.09-3.81-10.05-3.56-13.77,2.37-3.52,5.62-6.16,11.89-1.74,18.57.87,1.31,2.11,3.41.14,4.29-1.66.74-3.84-.37-5.12-1.97-.42-.53.91-2.38-1.22-1.77-1.53.44-1.41,1.44-.98,2.86,1.95,6.49,3.76,13.03,5.51,19.58.57,2.13,1.39,3.66,3.54,1.75,1.67-1.47,2.82-.8,4.39-.03,2.22,1.1,3.9,2.81,5.8,4.3,6.07,4.76,10.75,11.58,19.36,12.63,4.28.52,7.88-1.03,9.02-5.32,1.56-5.87,4-11.36,6.28-16.96,2.54-6.22,4.21-12.69-2.41-17.85-.49-.38-.57-1.7-1.52-.92-.34.28-.08,1.31-.09,1.99ZM226.01,520.72c6.33,9.8,16.02,17.15,25.37,24.8,1.07.87,2.85,1.06,4.33,1.18,1.44.11,3.34,1.49,4.23.14,1.03-1.54-.48-3.4-1.02-5.06-.28-.86-1.39-1.42-1.91-2.25-1.81-2.92-4.46-5.57-4.69-9.15-1-15.6-13.79-20.98-26.32-23.61-3.09-.65-4.63,1.34-3.71,4.4.92,3.03,2.27,5.92,3.71,9.56ZM282.08,561.84c4.53,7.17,9.52,13.58,18.93,14.35,5.62.46,11.27.74,16.81,2.22-10.25-9.22-22.72-13.45-35.73-16.57Z"/>
  <path class="cls-1" d="M537.38,347.53c-4.74-2.35-8.62-3.73-13.3-1.03-7.09,4.1-15.24,5.7-22.85,8.58-2.52.96-5.32.88-7.88-.52-.73-.4-2.01-.27-1.82-1.56.15-.99,1.05-1.38,1.96-1.66,9.78-2.92,18.42-8.17,27.16-13.23,5.42-3.14,10.87-2.14,16.06.51,3.17,1.62,6.25,2.86,9.91,2.55,3.41-.29,5.63,2.17,7.39,4.48,1.85,2.42.45,4.9-2.03,5.95-11.13,4.68-18.29,13.51-24.7,23.16-3.61,5.44-8.07,9.86-13.16,14.09-8.96,7.45-15.48,16.89-19.37,28.3-4.21,12.35-3.83,24.57-2.27,37.14.88,7.1,1.92,14.24-1.97,21.23-3.16,5.68-1.98,12.34-1.87,18.64.04,2.19.8,5.77-1.25,5.97-2.75.25-3.64-3.41-3.97-5.81-.59-4.25-.93-8.46-2.5-12.55-.93-2.45.23-5.22,1.32-7.44,1.41-2.85.62-6.67,3.96-8.71,1.11-.68.23-2.34-.2-2.88-2.17-2.72-1.85-6.36-2.12-9.11-.6-6.19-2.91-12.17-2.45-18.44.49-6.63,1.24-13.21,3.48-19.57,4.43-12.6,11.07-23.55,21.52-32.22,6.34-5.26,10.33-12.69,14.6-19.58,4.13-6.67,10.05-11.13,16.36-16.27Z"/>
  <path class="cls-1" d="M405.23,370.58c2.62-2.72,5.07-3.59,8.17-2.39,3.81,1.48,7.54.8,11.45-.13,8.32-1.97,15.88-5.53,23.46-9.35,6.44-3.24,11.39-6.97,12.24-14.8.54-5,2.26-9.87,1.93-15.76-4.56,7.32-10.73,11.71-17.39,15.52-2.62,1.5-5.29,2.86-7.54,4.98-1.39,1.31-3.18,2.8-5.24,2.23-4.21-1.16-7.16.95-10.35,3.11-6.66,4.51-14.35,6.87-21.72,9.9-2.95,1.21-5.11-1.36-7.6-2.07-1.34-.38.51-2.84,1.08-4.32,3.99-10.28,9.42-19.73,16.76-27.96,1.66-1.86-1.1-2.21-.35-4.12,2.41-6.07,5.89-8.95,12.92-7.61,4.89.93,8.25-.05,11.49-3.83,5.01-5.86,11.11-7.62,18.74-4.51,4.14,1.69,8.68,2.55,12.82,4.37,2.45,1.08,4.27,2.51,1.59,5.43-1.49,1.62-1.47,3.77-.93,6.01,2.28,9.4.24,18.67-1.37,27.87-.81,4.61-5.17,6.68-8.8,8.61-10.53,5.58-21.87,9.23-33.4,11.99-5.95,1.43-11.85-.81-17.95-3.16ZM459.92,316.77c-3.53-.9-6.65-1.46-9.61-2.51-5.17-1.84-9.02-.42-12.2,3.9-3,4.08-6.5,5.72-11.98,3.98-6.21-1.98-9.82.07-10.92,5.22-1.14,5.31-3.77,9.76-6.48,14.32-2.79,4.69-5.01,9.7-7.48,14.57,1.62.78,2.35.03,3.16-.28,8.69-3.32,14.94-12.23,25.55-11.16.13.01.29-.1.4-.2,5.21-4.5,11.72-6.91,17.36-10.74,6.2-4.21,6.98-11.86,12.2-17.09Z"/>
  <path class="cls-1" d="M372,494.39c2.22-1.56,4.7-1.06,7.06-.72,3.33.48,6.02.07,8.38-2.84,3.75-4.64,8.56-6.49,14.39-3.71,4.21,2,8.54,3.8,12.59,6.08,1.65.93,4.33,2.53,3.11,4.88-3.63,6.98-.4,14.69-3.07,21.97-2.06,5.62-8.57,13.94-15.02,13.72-2.64-.09-4.85,1.08-7.1,2.54-4.39,2.85-9.14,4.54-14.57,2.95-3.13-.92-6.28.32-9.43.45-2.75.12-5.42.1-8.04-.83-3.69-1.31-7.15-2.05-11.05.26-2.34,1.39-5.49-.82-7.1-2.34-1.74-1.64.56-4.29,1.92-5.87,3.64-4.23,7.79-7.98,11.47-12.21,5.11-5.87,7.84-13.07,11.74-19.6,1.24-2.07,2.88-3.42,4.7-4.73ZM356.07,529.14c.31.35.62.69.93,1.04,3.35-1.66,6.87-3.07,10.03-5.04,7.31-4.58,13.45-11,22.54-12.73,2.74-.52,5.56-2.66,6.85-6.06,1.1-2.9,3.98-4.41,6.6-6,2.49-1.51,7.34-1.79,6.98-4.57-.34-2.58-5.29-2.63-7.97-4.19-3.94-2.29-7.35-1.45-9.49,1.96-2.94,4.69-6.88,5.37-11.64,4.45-3.99-.78-6.46.89-8.43,4.3-5.25,9.08-8.49,19.34-16.41,26.84ZM362.31,532.41c.05.47.1.95.16,1.43,1.03.16,2.09.22,3.09.49,6.52,1.72,12.63,3.31,19.77.73,5.1-1.84,9.78-4.33,14.25-6.95,3.67-2.15,8.57-4.3,8.58-10.24,0-2.16.95-4.42,1.86-6.46.83-1.84,3.53-3.74,1.4-5.48-1.67-1.37-3.72,1.14-5.54,2.08-.53.27-1.06.63-1.45,1.08-4.55,5.3-10.58,7.6-17.25,8.65-1.33.21-2.99.06-3.93.8-6.63,5.14-12.99,10.64-20.95,13.87Z"/>
</svg>