<?xml version="1.0" encoding="UTF-8"?>
<svg id="Layer_1" xmlns="http://www.w3.org/2000/svg" viewBox="0 0 706.15 752.98">
  <defs>
    <style>
      .cls-1 {
        fill: #f7f7a3;
      }
    </style>
  </defs>
  <path class="cls-1" d="M185.07,360.45c-11.91-8.67-36.38-27.58-60.71-55.67-32.92-38.01-31.33-35.9-62.36-95.96-10.8-20.91-21.16-41.92-40.14-57.26C7.85,140.23,2.78,123.73,1.46,106.69-.19,85.47-3.04,63.67,10.05,44.32c1.64-2.42,2.79-6.35,6.44-5.33,1.82.51,3.12,3.61,4.24,5.76,11.37,21.9,26.58,40.98,44.04,58.14,7.85,7.71,11.17,17.97,16.99,26.7,23.83,35.71,51.46,69.75,60.54,113.46,1.61,7.75,10.55,13.64,11.2,19.12,2.44,20.68,15.3,31.55,30.79,41.8,4.46,2.95,6.16,8.85,8.23,14.26,3.16,8.26,7.26,17.46,19.26,15.54,2.91-.47,5.35.03,6.39,2.75,9.47,24.69,32,37.69,48.85,55.88,16.79,18.11,36.59,32.57,53.87,49.9,12.9,12.94,27,25.18,28.29,45.47.3,4.82,3.46,8.46,6.89,11.65,4.81,4.46,8.23,10.29,6.75,16.38-3.52,14.48,5.59,17.35,16.11,19.66,6.97,1.53,13.97,2.93,20.88,4.7,28.34,7.25,52.71.78,75.63-17.76,14.96-12.11,32.95-20.45,49.36-30.83,4.18-2.64,9.38-5.85,8.89-11.63-.59-6.99-7.17-5.84-11.94-6.95-13.85-3.22-28.11-5.04-41.81-7.98-27.46-5.91-54.87-14.56-76.36-34.54-5.83-5.42-6.13-13.72-8.01-21.16-4.78-19.01-17.35-33.96-30.69-46.71-19.59-18.73-29.2-43.73-45.55-64.29-4.78-6.02-8.48-13.24-16.62-15.11-10.68-2.44-18.31-9.65-20.33-19.03-4.27-19.87-20.16-27.59-33.87-38.73-34.75-28.24-65.69-60.66-98.04-91.53-34.66-33.07-61.65-75.34-107.25-96.33-.92-.42-1.79-1.04-2.52-1.74-4.6-4.37-14.16-5.85-12.74-13.63,1.44-7.92,9.84-11.02,16.97-14.07,45.96-19.67,83.67-.76,119.28,26.05,30.39,22.88,50.48,54.77,71.68,85.46,49.45,71.59,89.92,148.66,135.12,222.85,16.35,26.83,36.03,50.88,58.01,73.02,19.68,19.83,46.94,26.38,71.3,37.94,12.46,5.91,25.64,10.13,37.75,17.03,11.39,6.49,22.66,2.7,33.61-2.91,23.15-11.87,45.56-25.38,72.29-28.61,26.92-3.24,33.48.19,47.25,23.17,28.48,47.52,13.16,126.88-20.33,162.45-13.53,14.38-31.18,21.57-50.23,24.26-21.26,3-42.73,4.33-64.3,3.84-15.74-.36-30.02-2.73-42.82-13.44-7.38-6.17-18.27-6.45-27.81-7.59-9.88-1.18-5.69,5.4-3.98,9.97,11.37,30.38,27.55,58.17,45.45,85.08,4.79,7.2,15.84,15.97,6.96,23.67-9.5,8.24-15.82-5.16-21.59-10.83-34.68-34.13-70.22-67.16-110.2-95.14-12.82-8.97-23.08-19.92-27.18-35.91-1.32-5.16-5.3-9.9-8.85-14.19-17.65-21.39-24.13-46.82-27.42-73.52-.81-6.57-2.29-13.05-3.22-19.61-3.2-22.56-18.49-38.3-36.48-56.21-29.86-29.71-62.1-51.62-85.87-65.9-7.48-4.44-17.27-10.61-28.28-18.61Z"/>
</svg>