<?xml version="1.0" encoding="UTF-8"?>
<svg id="Layer_1" xmlns="http://www.w3.org/2000/svg" viewBox="0 0 24 24">
  <g id="CJevHf.tif">
    <g>
      <path d="M14.47,6.92c.11-.18.57-.72.75-.77.15-.04.55.47.7.59,1.08.89,2.33,1.16,3.69.81.24-.06,1.21-.42,1.21-.66,0-.23-.33-.12-.53-.17-.98-.24-1.14-2.04-2.63-2.2-1.57-.17-2.81.85-3.72,2.01.03-.21.07-.6.17-.78.09-.14.54-.4.72-.64.35-.48.46-1.17.4-1.75-.02-.16-.32-1.3-.38-1.33-.15-.1-.31.31-.41.43-.41.52-1.1,1.16-1.05,1.87.01.21.21.53.21.66,0,.1-.11.22-.14.34-.14.55-.18,1.13-.23,1.7-.11.13-.86-.81-.92-.9-1.17-1.62-1.2-2.95-3.42-3.64-.2-.06-1.07-.31-1.2-.22-.17.34.2.7.34,1.03.39.93.2,1.78.91,2.62.59.7,1.68,1.29,2.61,1.03.09-.02.23-.15.29-.13.05.01.41.59.57.73.15.13.79.45.81.5.06.16-.34,1.18-.37,1.52-.03.35.02.73,0,1.08-.05.54-.18,1.09-.22,1.63-.04.68,0,1.41.11,2.09-.25-.03-.35-.26-.62-.22-.2.03-.46.36-.63.41-.18.05-.33-.09-.49,0-.07.03-.08.14-.15.19-.12.09-.64.25-.79.29-.06.01-.1.09-.17.08-.1,0-.22-.16-.38-.15-.14,0-.25.15-.38.16-.04,0-.44-.01-.47-.02-.21-.04-.91-.46-1.22-.57-1.26-.47-2.95-.72-4.27-.25.04.09.05.18.06.27,1.69-.6,3.88,0,5.32.88.41.25.81.62,1.24.83,1.51.74,3.43-.06,4.96.72l-.99.12c-.89.12-.64,1.28-.31,1.83l-.81.11s.15-.24-.03-.22c-.18.03-.38.22-.56.26-.67.14-1.29-.13-1.92-.31.02.06.09.12.14.16.09.07.22.07.24.16-.47.05-3.7-.23-3.85-.05-.02.02,0,.16.05.19,2.24.23,4.51.44,6.74.06.5-.08,1.92-.35,2.25-.69.2-.21.22-.49.16-.77-.03-.14-.17-.31-.18-.41-.04-.35.75-.96.95-1.31.19-.33.25-.68.4-1.01.26-.58.73-1.21,1.4-1.28-.01.15-.25.11-.27.2-.01.06.04.15.02.24-.03.21-.26,1.06-.18,1.18.02.03.3.12.37.12-.12.18-.35,1.35-.44,1.41-.01.01-.29-.12-.37-.05-.01,0-.06.25-.05.28.03.12.28.13.27.17-.13.43-.66.99-.82,1.44l-.26-.05c.08.25.16.4-.14.54l-.19-.22c-.06.08.16.46-.03.43-.23-.04-.18-.28-.24-.4-.03-.06-.15-.05-.16-.04-.08.08.2.56.16.6-.97.18-1.91.52-2.81.91-.67.3-1.71.99-2.43.99-.78,0-2.2-.82-3-1.13-1.13-.44-2.32-.76-3.43-1.24l-.06-.08c.19-.09.61-.08.54-.33-.1-.1-.73.23-1.28.56.07.06.15.11.23.17.08.05.16.09.24.12.03,0,.06.01.08.02.02,0,.04,0,.06,0,.26-.03.52.08.72.24.04.03.08.08.12.12.82.29,1.65.54,2.47.84.93.35,2.43,1.18,3.37,1.14.91-.03,2.18-.91,3.07-1.28.99-.41,2.49-.56,3.08-1.42,1.22-1.77,1.35-3.06,1.94-5.01.16-.53,1.17-1.75.58-2.26-.34-.29-1.09-.09-1.43.15-.14.1-.38.42-.47.45-.07.03-.25-.04-.39-.02-.36.05-.85.45-1.07.72-.17.2-.77,1.3-.84,1.33-.12.05-.08-.16-.15-.21-.02-.01-.37-.11-.4-.12-.33-.04-.46.21-.59.21-.03,0-.45-.02-.47-.02-.12-.03-.23-.25-.42-.19.05-.28-.06-.58-.06-.84,0-1.28.04-2.31.72-3.41.57-.92.77-.49,1.63-.7.26-.07.56-.25.77-.42.16-.13.74-.74.74-.89,0-.3-.2-.13-.35-.14-.56-.04-1.03-.26-1.6-.07-.74.26-1.19,1.29-1.59,1.92-.15.12-.11-.26-.1-.35.04-.34.77-2.19.96-2.51ZM17.36,6.95s-.73-.3-.76-.33c-.03-.04.09-.3.1-.4.01-.32-.16-.62-.37-.84.41-.04.68.09.88.45.03.05.15.31.15.34v.79ZM17.47,7.06c.14-.44.14-.81,0-1.25.61.23.73.79.49,1.36l-.49-.11ZM18.93,7.33c-.32.08-.61-.03-.92-.11.12-.25.31-.53.22-.81.5.14.8.35.7.92ZM20.13,6.95c-.25.27-.71.26-1.03.38v-.54c.33.12.68.18,1.03.16ZM19.66,6.66s.14.05.14.13c-.38,0-.75-.18-1.09-.35l.46-.41c.14.22.3.44.48.63ZM18.79,6.13c-.45.28-.64-.07-.94-.37.36,0,.56-.25.79-.49.21.34.67.54.15.86ZM17.61,4.79c.12-.03.86.29.89.4.04.16-.59.41-.73.41-.28,0-.41-.24-.68-.28.11-.06.48-.53.52-.53ZM16.33,4.92c.36-.12.7-.17,1.08-.14-.42.5-.9.33-1.47.32.06-.09.28-.15.38-.19ZM16.49,6.52c-.3-.2-.6-.39-.84-.65-.07.14.18.25.24.35-.31.01-.35-.57-.76-.49.78-.71,1.48-.18,1.36.79ZM11.6,5.76c-.1-.03-.6-.23-.63-.27-.07-.12-.07-.75-.08-.93.15.07.75,1.15.7,1.19ZM10.79,5.38c-.75-.24-.67-.81-.38-1.41.73.28.21.88.38,1.41ZM10.41,3.89c-.24.23-.38.56-.38.9-.52-.3-.47-.93-.14-1.36l.51.46ZM9.79,3.37l-.33.76-.35-.43.32.65c-.25-.06-.51,0-.76.05-.09-.54-.2-1.08-.43-1.57.54.09,1.08.26,1.55.54ZM8.94,4.78l-.05.43-.22-.76c.24.03.56-.04.79,0,.14.02.42.54.57.65-.19-.12-.79.17-.84.16-.08-.02-.27-.38-.25-.48ZM9.27,5.33c.58-.25.99.04,1.47.33-.08.06-.58.37-.61.37-.15-.01-.91-.61-.85-.7ZM10.49,6.47c-.07-.02-.27-.08-.3-.17.42.08.82.14,1.25.11.19-.14-.46-.11-.51-.11-.22-.03-.41-.14-.63-.16.43-.49,1.19-.2,1.47.33-.39.18-.87.13-1.28,0ZM16.03,8.32c.2-.03.42-.02.62-.06-.04.11-.44.43-.52.42-.05,0-.28-.27-.41-.26,0-.08.24-.09.3-.1ZM16.06,8.75l-.46.16-.57-.21c.33-.2.76-.28,1.03.05ZM14.97,3.1c.15.49.03.59-.38.81-.06-.32.14-.62.38-.81ZM15.02,3.75c.03.11-.06.52-.12.58-.02.02-.5.21-.48.04.04-.26.41-.47.6-.62ZM14.13,3.21c.31.19.34.65.24.98-.19-.17-.26-.48-.54-.54-.04-.06.22-.38.3-.43ZM13.72,3.7c.56.24.53.87.22,1.3-.1-.02-.12-.24-.14-.32-.04-.19-.07-.4-.08-.6l-.11.49c-.08-.31,0-.57.11-.87ZM15.49,18.25c-.11.22-1.58.63-1.87.43-.02-.11.13-.03.16-.06.04-.04-.02-.94-.06-1.05-.03-.1-.17-.05-.16-.14.49-.09,1.04-.34,1.47.02.12.11.35.59.43.52l.05-.11c0,.12.03.27-.03.38ZM18.6,14.87s-.29.08-.37.18c-.03-.05.12-.76.17-.81.01-.01.25,0,.32-.06.04.04-.08.64-.12.69ZM18.92,12.29c.19-.02.45-.06.56.15-.45.15-.66.71-.76,1.14-.73-.25-1.28.42-1.68.92.24-.88.88-2.09,1.89-2.21ZM17.36,13.04c-.35.57-.54,1.2-.76,1.82-.3-.02-.59-.03-.87-.14.38-.67.8-1.51,1.63-1.68ZM13.23,10.48l.32-.14c-.48.65-.39,1.27-.43,2.01-.03.67-.09,1.34-.06,2.01,0,.18.03.55.06.7.05.26.54,0,.76.08.02-.13-.02-.11-.12-.12-.27-.05-.43.18-.42-.31.18-.04.24.15.38.19.04.01.59.09.62.08.15-.01.26-.49.73-.14.06.05.1.15.16.22.05.05.22.09.15.21-.01.02-.2.05-.1.14.1.08.33-.18.22-.33l.6.11-.22.32c.22.03.29-.13.27-.33.22.07.16.06.11.27l.24-.22c.27.46-.29,1.05-.6,1.35-.13.12-.38.2-.49.44l.14-.43c-.13,0-.2.26-.22.27-.04.03-.16-.05-.16-.08,0-.12.4-.33.32-.41-.17-.02-.31.3-.41.32-.17.03-.19-.18-.06-.3.01-.01.45-.23.17-.23-.16,0-.33.35-.36.38-.05.04-.28-.14-.37-.11.02-.08.42-.28.33-.38-.05-.05-.34.27-.52.28-.21.01-.51-.13-.73-.11l.16-.16c-.27.02-.41.24-.71.16l.11-.27c-.25.25-.39.32-.76.27l.05-.22c-.24.25-.49.23-.81.22l.24-.27c-.42.28-.73.31-1.22.16.04-.07.21-.12.02-.15-.17-.03-.62.18-.78-.17.04,0,.46.03.33-.11-.11-.12-.37.07-.5.04-.14-.02-.47-.23-.29-.37.2-.15.59.15.92.05.09-.03.13-.14.2-.18.17-.08.52-.3.59-.33.07-.03.19.04.32,0,.26-.06.6-.4.74-.41.12-.01.5.17.62.25l-.54.03c-.09.07,0,.1.08.11.15.02.31-.01.46.06.04.05-.28.13-.16.22.04.03.15-.05.19-.05.02,0,.07.25.23.01-.06-.92-.21-1.83-.15-2.76.05-.87.15-1.78.22-2.65.05-.55.46-1.4.37-1.85-.03-.14-.63-.39-.82-.54-.23-.19-.46-.47-.6-.73.11-.02.13.05.18.11.19.2.28.42.53.61.13.1.56.38.7.28.08-.06.14-1.25.17-1.46.11-.75.38-1.35,1.11-1.66.12-.04-.25.47-.3.52-.09.1-.31.37-.34.4-.04.04-.14.02-.21.1-.3.37-.24,1.59-.27,2.08.09.03.24-.14.22.03-.07.52-.52,1.12-.59,1.63-.05.41.05.86-.06,1.27Z"/>
      <g>
        <path d="M8.28,20.32s0,.1.01.15c-.08.08-.72-.26-.85-.31-.34-.13-.87-.23-1.16-.41-.07-.04-.13,0-.1-.14.09-.07,2.02.56,2.1.72Z"/>
        <path d="M8.07,15.48c-.08.07-.55-.23-.67-.28-.42-.18-.88-.34-1.34-.37,0-.04-.01-.15,0-.16.09-.09,1.07.23,1.25.3.07.03.9.39.76.51Z"/>
        <path d="M11.33,17.16c.07.07-.26.39-.24.49-.13.3-.14.58-.14.9,0,.14.14.32-.08.35-.19-.31-.13-.74-.04-1.07.03-.11.31-.85.5-.67Z"/>
        <path d="M12.04,17.11c.1.22-.15,1.56-.35,1.57s.1-.62.12-.69c.06-.23.08-.46.12-.69.01-.08,0-.17.11-.19Z"/>
        <path d="M11.06,18.41c-.1-.12.19-1.01.43-1.03l-.28.94-.15.09Z"/>
      </g>
    </g>
  </g>
</svg>