<?xml version="1.0" encoding="UTF-8"?>
<svg id="Layer_1" xmlns="http://www.w3.org/2000/svg" viewBox="0 0 24 24">
  <g id="t4qAJ6">
    <path d="M18.56,7.02s.17.07.2.18c-.03.28.82,2.08.93,2.14.3.16.21-.24.27-.42.21-.6,1.59-.9,1.82-.1.08.28-.11.67-.35.83-.16.1-.92.4-1.08.38-.09,0-.11-.17-.25.02-.15.2-.03.32-.02.51.02,1.16-.11,2.39-1.25,3-.22.12-.32.09-.49.15-.11.04-.23.57-.27.72-.33,1.34-.04,2.66-.42,3.92-.04.13-.15.42-.23.51-.18.19-.7.3-.7-.05,0-.28.32-.11.44-.4.4-.9.17-1.96.2-2.91,0-.11.05-.2.05-.29.03-.48.02-.93.15-1.41-.08-.01-.11,0-.18.05-.36.24-1.34,1.22-1.69,1.26-.1.01-.19-.04-.32-.01-.17.03-1.36.63-1.3.03.05-.45,1.11-.45,1.49-.63.35-.17.66-.61,1.01-.82.2-.22-.66-.23-.82-.22-.29.02-.66.17-.95.23-1.04.21-2.17.45-3.18.77-.44.14-.52.16-.36.63.27.8.89,1.53,1.13,2.32s.18,1.67.7,2.41c.1.15.61.75.73.85.14.11.5.1.52.32.05.45-.52.18-.72.07-.81-.44-2.01-2.33-2.34-3.19-.03-.07.05-.14-.1-.12.06.75-.35,1.63-.18,2.37.15.64,1.05,1.09,1.48,1.53.06.12.03.3-.11.34-.26.08-.51-.27-.71-.41-.68-.47-1.27-.85-1.57-1.69-.37-1.04.19-2.33.14-3.4-.03-.65-.2-1.31-.21-1.96-.43-.51-.88-1.02-1.21-1.6-.6-1.02-.69-2.38-1.57-3.32-.1-.1-.22-.12-.27-.19-.06-.08-.46-1.14-.48-1.29-.03-.17,0-.34-.01-.51-.07-.01-.07.09-.08.14-.26.93-.45,1.89-.68,2.83-.11.45-.4,1.92-.69,2.17-.18.15-.63.18-.62-.12,0-.19.16-.16.23-.27.04-.06.14-.52.16-.63.15-.76.13-1.61.21-2.38-.13-.03-.09.04-.13.09-.45.61-1.16,2.07-1.81,2.34-.2.08-.78.26-.85-.06-.05-.21.56-.44.72-.57.55-.47.93-1.7,1.25-2.36.45-.94,1.03-1.81,1.64-2.66-.28-1.37.06-2.33,1.11-3.23.83-.71,1.01-.36,1.95-.47.11-.01.18-.1.24-.1.09,0,1.43.58,1.6.67.18.09.75.65.82.66.26.05,1.13.02,1.43,0s.6-.13.89-.15c.48-.03,1.03,0,1.51.05-.12-.32.02-.65.18-.93.03-.06.37-.53.39-.54.21-.13.54-.05.66.17.1.19,0,.79-.07,1-.07.2-.21.34-.31.52,0,.09.42.22.53.3.41.28.92,1.1,1.17,1.55.19.34.45,1.12.63,1.37ZM15.03,7.7c.03-.29-.02-.62,0-.91-.1-.01-.16.08-.22.15-.27.29-.76.88-.81,1.26-.03.25.02.52-.02.77-.05.33-.52,1.11-.8,1.27-.19.11-.4.02-.37-.21.01-.09.48-.55.59-.75.3-.58.03-1.21.27-1.85s.75-.88,1.07-1.4c.12-.2.67-1.36.58-1.51-.46-.26-1.02-.42-1.55-.45-.59-.04-1.82.19-2.31.04-.09-.03-.14-.15-.21-.19-.48-.29-1.37-.9-1.9-1.01-.17-.04-.27.04-.42.03-.73-.04-1.12-.18-1.73.39-.13.12-.48.75-.51.93-.03.14-.07.79-.06.93.01.12.11.15.14.04.07-.24-.06-.34.13-.66.23-.39.69-.69,1.15-.73.2-.02.5.28.57.45.06.13.06.4.02.54-.02.07-.45.87-.51.92-.17.18-.35.18-.59.15-.09,0-.18-.1-.24-.09-.07.01-.25.24-.27.32,0,.85.04,1.71.32,2.52.18.52.52.93.77,1.4.55,1.05.68,1.61,1.46,2.6.07.09.11.29.21.19-.13-.75-.13-1.75.91-1.6.22.03.31.26.33.46.04.47.03,1.05-.15,1.48.47.33,1.03.48,1.61.42.69-.07,1.42-.17,2.12-.3.49-.1.93-.32,1.44-.28.33.02.67.17,1,.12.14-.06.95-1.51,1.11-1.76.21-.32.53-.64.72-.96.17-.28.2-.58.38-.85.04-.17-.76-1.51-.89-1.79-.36-.78-1.09-2.97-2.09-3.1-.3-.04-.18.19-.22.4-.19.92-.2,1.84-.4,2.71-.15.67-.83,1.99-.72,2.58.03.17.27.31.17.52-.2.44-.54-.17-.59-.39-.19-.73.44-2.02.52-2.79ZM19.63,11.7c.03-.22-.02-.49,0-.72-.37.38-.7.89-.91,1.38-.03.07-.37.92-.25.89.52-.22,1.09-1.01,1.16-1.56Z"/>
  </g>
</svg>