<?xml version="1.0" encoding="UTF-8"?>
<svg id="Layer_1" xmlns="http://www.w3.org/2000/svg" viewBox="0 0 24 24">
  <path d="M19.03,5.88c-.23-.29-.47.1-.65.18-.16.07-.48.08-.67.14-.09.03-.26.09-.35.13-.18.09-.36.28-.54.39-.01-.01.12-.2.13-.23.17-.37.13-.79.19-1.17.1-.67.23-.76.57-1.29.16-.25.5-.8.45-1.1-.03-.19-.41-.62-.57-.72-.08-.05-.21-.06-.29-.1-.06-.03-.13-.1-.2-.12-.16-.03-.26.15-.38.21-.1.05-.23.05-.3.1-.11.07-.16.17-.11.3-.11-.03-.23-.13-.33,0-.12.15.07.28.09.38.04.19.04.39.1.59.09.33.31.58.43.89.2.48.32,1.33.11,1.82-.04.09-.1.19-.16.25v-.42c0-.19-.44-1.02-.56-1.23-.12-.21-.34-.46-.42-.67-.03-.08-.08-.33-.15-.38-.07-.04-.17,0-.19.07-.2.76-.21,1.13.04,1.88.2.59.58,1.17.52,1.81-.02.24-.27.53-.4.75-.21.33-.47.81-.72,1.1-.02.02-.03.04-.06.04-.02-.07.02-.15.02-.22,0-.48-.05-1.31-.32-1.72-.24-.37-.61-.6-.96-.86-.1-.08-.28-.31-.41-.18-.05.05-.04.08-.03.14.02.19.21.73.31.9.06.09.14.15.19.23.24.34.38.76.55,1.14.15.34.12.9-.02,1.24-.06.15-.09.14-.19.24-.68.66-1.35,1.13-2.2,1.55-.42.21-.86.4-1.29.6l-.09-.02c-.01-.06-.19-.23-.18-.27.19-.24.36-.5.51-.77.23-.44.29-.8.24-1.29-.02-.16,0-.41-.16-.51-.3-.19-.31.27-.38.43-.08.19-.29.35-.42.51-.24.29-.44.64-.58.99-.29-.11-.69-.18-.61-.59.04-.19.37-.44.51-.59.16-.17.14-.63.08-.84-.05-.19-.18-.33-.23-.51-.06-.2-.06-.42-.12-.63-.15-.59-.57-.94-1.16-1.07-.24-.05-.54-.02-.79.01-.35.04-.7.4-.91.66-.27.33-.38.68-.46,1.1-.14.79,0,1.87.22,2.64.03.09.06.21.12.28-.48.17-.8.62-.89,1.11-.04.2-.02.54,0,.75.03.47.12.95.13,1.42.02.01.03.03.03.05,0,.05,0,.1,0,.15,0,.02,0,.05,0,.07,0,.01,0,.03,0,.04,0,0,0,.01,0,.02,0,0,0,.02,0,.01,0-.01,0,.01,0,.01,0,0,0,.01,0,.02,0,.01,0,.03,0,.04,0,.02.01.05.02.07.01.05.03.1.04.15,0,.02,0,.04,0,.06.05.2.12.69.24.75h0s0,0,0,.01c0,0,0,0,0,0,0,0,0,0,0,0,0,.01.02.02.02.04.02.02.04.04.06.06.02.02.04.03.06.05.02.02.05.04.07.07.05.05.1.09.14.15.02.03.01.07-.01.09-.03.15-.08.29-.09.46-.05.66,0,1.51.39,2.07.1.14.21.28.31.42.42.56.81.86,1.42,1.22.15.09.81.44.95.46.11.02.35.03.48.04.38.02,1.1-.08,1.29-.47.04-.08.02-.15.06-.21.05.04.1.08.16.11.12.06.42.15.54.13.38-.06.84-.56.98-.91.05-.13.07-.4.06-.54-.06-.78-.82-1.83-1.26-2.47-.07-.11-.29-.39-.31-.5-.02-.08,0-.19,0-.28-.08-.9-.09-1.8-.18-2.71-.03-.31-.03-.65-.07-.95,0-.05-.06-.16-.05-.21l.03-.03.97-.45c.39.21.82.31,1.24.44.06.02.13.07.2.08.34.08.94.09,1.29.06.43-.05,1.41-.39,1.59-.81.05-.13,0-.27-.14-.28-.16-.01-.46.18-.64.22-.71.19-1.16-.17-1.82-.24-.21-.02-.42,0-.62-.05.29-.18.6-.33.87-.52.53-.37,1.09-.87,1.48-1.39.28-.38.57-.82.87-1.18.09-.11.22-.22.31-.35.02-.03.06-.13.07-.14.02-.01.22-.03.31-.07.32-.16.72-.39,1.04-.57.52-.3,1.23-.92,1.54-1.43.08-.13.14-.29.04-.42ZM9.33,12.92c.08-.07.2-.14.28-.21l.22-.24s.13.18.18.2c0,.04-.64.29-.72.31,0-.03.02-.04.04-.06ZM9.19,13.49s.2-.08.22-.08c.04,0,.04.14.05.17.07.26.11.51.16.77,0,.02.03.16.02.16-.03,0-.14,0-.14,0-.01-.01-.01-.31-.02-.36-.03-.24-.14-.47-.32-.64,0-.03,0-.02.02-.03ZM9.98,21.62c-.18.1-.55.13-.75.11-.05,0-.09-.03-.14-.04-.09,0-.22.02-.3,0-.08-.02-.41-.23-.51-.28-.14-.07-.3-.13-.44-.22-.37-.22-.75-.5-1.08-.78.06,0,.15.04.22.06.41.16.8.44,1.23.56.1.03.28.04.26-.12-.03-.17-.49-.29-.63-.36-.19-.09-.37-.2-.56-.29-.51-.25-.92-.3-1.14-.91-.16-.45-.15-.86-.16-1.33,0-.14-.05-.45,0-.56.03-.04.05.05.08.08.23.26.53.49.67.81.14.32.2.5.41.77.07.09.1.3.25.1.05.12.21.28.29.09.03-.08,0-.2.06-.25.05.15.14.35.33.27.17-.07.07-.35.09-.38.06.02.11.09.17.1.12.03.19,0,.22-.13.01-.06-.03-.24-.05-.3-.02-.07-.12-.16-.13-.23,0-.04.06-.04.09-.04.14.18.29.35.42.53.43.6.95,1.35,1.22,2.03.06.14.07.29.12.43,0,.03-.22.22-.26.25ZM10.87,17.94c-.01-.14.12.12.13.13.15.2.2.29.32.51.32.55.71,1.1.71,1.76,0,.36-.49.89-.85.94-.06,0-.55-.13-.63-.16-.1-.05-.06-.1-.09-.19-.29-.72-.84-1.51-1.33-2.12-.2-.25-.42-.47-.62-.73-.03-.07.07-.16.09-.23l.18-.23c-.18,0-.34.14-.44.28-.02.03-.04.12-.08.11,0,0-.09-.14-.12-.17-.18-.22-.41-.3-.63-.46-.35-.25-.49-.55-.74-.87-.11-.14-.35-.35-.38-.51-.05-.37,0-.74,0-1.11,0-.33-.06-.66-.05-.99,0-.05.05-.22,0-.25-.07-.05-.11.04-.15.1-.17.28-.07.51-.05.8.01.24,0,.49,0,.73,0,.27.01.66.12.89.12.28.32.35.48.58.08.1.14.25.22.34.1.12.29.24.41.35.08.07.16.17.24.24.16.13.35.2.47.38l-.07.03v.04c.08.14.43.64.4.77-.02.09-.09.03-.13-.01-.14-.12-.23-.36-.37-.48-.25,0-.03.24.03.35.07.15.11.31.08.48-.03,0-.04,0-.06-.02-.11-.07-.26-.57-.33-.58-.13,0-.05.27-.04.34,0,.09,0,.18-.02.26-.04.03-.15-.27-.15-.3-.02-.07-.01-.29-.15-.23-.11.05.09.38.02.43-.02.01-.04.01-.05,0-.07-.04-.18-.55-.26-.65-.05-.19-.22-.57-.35-.71-.33-.35-.76-.7-1.06-1.08-.19-.23-.16-.4-.21-.68-.04-.21-.05-.25-.06-.46-.02-.38-.12-.77-.16-1.15-.04-.48-.09-1.1.13-1.54.14-.28.44-.49.69-.67.21-.15.79-.42.84-.68.03-.18-.02-.58-.11-.74-.12-.2-.27-.16-.44-.29-.09-.07-.3-.34-.32-.44-.03-.2.21-.36.29-.13.02.06.05.31.09.34.06.05.15-.05.16-.11.03-.13-.02-.48-.05-.62-.04-.21-.19-.48-.15-.69.07-.39.33-.91.77-.97.17-.02.4.02.53,0,.1-.01.24-.11.34-.11.34,0,.59.54.68.81-.1-.03-.37-.02-.45.06-.15.14.24.05.28.05.04,0,.2.06.22.08.03.05.02.27.03.34.04.36.33.46.28.96-.03.28-.12.29-.26.48-.05.07-.1.16-.15.22-.09.11-.2.14-.22.31-.02.14.02.3.1.4.08.1.44.26.58.32.06.03.12,0,.09.1-.03.12-.15.37-.21.49-.12.25-.25.49-.42.71-.37-.06-.84-.11-1.16.13-.64.48-.73,1.13-.54,1.88.16.61.94,1,1.54.95.35-.03.75-.41.94-.69.03-.04.04-.11.08-.15.09,0,.17-.04.25-.05.1-.01.02.15.02.21-.02.32.04.64.05.95,0,.16.02.42-.06.56-.1.18-.35.31-.38.57-.03.26.12.38.36.27l.14-.1c0,.05-.02.1-.02.15,0,.18.08.55.23.65.13.08.24-.02.26-.15.04-.03.11.16.25.12.11-.03.1-.19.13-.21.03-.02.02.04.04.06.09.1.25.01.29-.1.03-.09,0-.15,0-.24ZM6.99,14.73c-.36.15.09.74.13.77.09.08.88.46,1,.48.33.06.54-.19.83-.37.05-.03.15-.4.11-.27-.02.06-.22.27-.28.32-.39.31-.81.28-1.25.07-.35-.17-.62-.41-.64-.83,0-.07.17-.2.1-.17ZM10.53,16.88c.02.14.08.32.09.46,0,.07-.03.14-.01.23.02.12.23.51.11.6-.05.04-.09-.2-.09-.22-.03-.08-.13-.37-.23-.36-.11,0-.03.23-.03.29.01.13.02.26.04.4-.18-.03-.11-.31-.12-.45,0-.06-.03-.23-.11-.22-.11.02-.06.22-.07.31,0,.05-.06.35-.08.38-.06.09-.13-.13-.14-.17-.04-.13-.04-.28-.07-.41,0-.04-.04-.08-.04-.1,0-.03.12-.1-.03-.17-.14-.06-.2.31-.36.2-.09-.06.02-.27.07-.34.06-.1.16-.21.24-.28.17-.14.08-.83.08-1.05,0-.17-.03-.74.04-.86,0-.02.07-.05.09-.06.19-.09.4.02.6,0,.02.26-.03.52-.02.77.02.33.04.73.07,1.06ZM10.46,14.44c.01.12.01.24.02.36-.23-.1-.44-.26-.71-.28.03-.19-.05-.35-.08-.53-.03-.15-.05-.3-.08-.45-.01-.06-.08-.17-.02-.21l.62-.27s.03.01.04.03c.02.05.08.25.09.32.06.31.1.71.13,1.02ZM17.46,2.63c0-.07-.03-.15-.02-.22.04-.04.21.17.25.14.01-.01,0-.14.04-.12.14.06.13.32.11.45-.05.5-.42.87-.64,1.29-.06.13-.11.29-.17.42,0,.02-.02.05-.04.05-.03-.11.03-.2.04-.29,0-.07,0-.15,0-.23.01-.11.11-.19.11-.28,0-.25-.25-.29-.23-.57.03-.34.53-.35.55-.64ZM16.82,2.48c.13-.07.28-.26.43-.26.13,0,.01.08,0,.11-.01.02,0,.07,0,.07,0,0-.1,0-.13,0-.1.02-.2.1-.28.17-.13.11-.22.32-.41.12,0-.04.35-.17.4-.2ZM16.73,3.96s-.12-.12-.13-.13c-.03-.04-.09-.15-.11-.19-.09-.18-.11-.54-.2-.74-.06-.13-.16-.06-.19-.17.23.04.27.27.52.23.12-.02.4-.4.5-.32,0,0,.02.04.01.05-.01.02-.17.13-.2.17-.11.12-.15.33-.14.49,0,.12.08.25.07.35,0,.1-.11.16-.13.26Z"/>
  <path d="M7.71,9.89s.27-.17.3-.19c.08-.03.26-.04.35-.02.06.01.23.1.23.16,0,.17-.2,0-.26,0-.04,0-.27.01-.31.02-.08.02-.11.14-.23.14-.05,0-.1-.06-.08-.1Z"/>
  <path d="M7.04,8.81c.06,0,.27.02.16.09-.06.04-.28.08-.37.13-.09.05-.18.23-.29.2-.15-.04.08-.25.13-.29.09-.07.25-.12.37-.13Z"/>
  <path d="M7.49,9.29c.06.1-.22.11-.26.13,0,0-.1.07-.12.08-.05.04-.06.13-.14.07-.05-.07.16-.29.22-.31.06-.02.26-.03.3.03Z"/>
  <path d="M8.44,8.97c.15-.02.25.2.17.21-.03,0-.13-.07-.25-.05-.04,0-.19.09-.15-.04,0-.03.19-.11.22-.11Z"/>
  <path d="M8.07,9.5s.03-.04.01-.07c-.02-.04-.19-.05-.14-.11.08-.11.43,0,.29.15-.03.04-.13.06-.16.03Z"/>
  <path d="M11.11,20.8c.09-.02.28.17.15.24s-.27-.2-.15-.24Z"/>
  <path d="M8.26,16.34c.12-.03.19.22.05.25-.13.02-.15-.22-.05-.25Z"/>
  <path d="M7.97,9.98c-.02-.08.1-.06.16-.07.05-.01.08-.05.16-.03.1.03,0,.11-.05.11s-.19-.03-.27-.01Z"/>
  <path d="M6.2,10.08c.06.09-.03.18-.07.08-.03-.07,0-.09.07-.08Z"/>
  <path d="M9.38,21.5c-.08-.11.46,0,.26.1-.11.06-.17-.06-.26-.1Z"/>
</svg>