<?xml version="1.0" encoding="UTF-8"?>
<svg id="Layer_1" data-name="Layer 1" xmlns="http://www.w3.org/2000/svg" viewBox="0 0 2732 2048">
  <defs>
    <style>
      .cls-1 {
        fill: #862a2b;
      }
    </style>
  </defs>
  <g>
    <path class="cls-1" d="M349.39,930.15c-1.34,4.89-5.85,6.32-9.56,8.45-3.81,2.19-4.23,4.27-2.11,8.27,9.72,18.31,24.39,32.75,37.26,48.59,15.06,18.54,31.16,36.03,49.44,51.54,11.21,9.51,21.49,20.09,31.59,30.8.35.37.54,1.07.94,1.2,3.8,1.27,5.4,4.31,7.24,7.62,2.13,3.83,5.55,6.92,8.11,10.54,9.1,12.85,18.06,25.8,27.1,38.69.81,1.16,1.52,2.3,1.5,3.75-.01.88-.15,1.88-1.09,2.1-.5.11-1.43-.35-1.7-.82-1.76-3.03-4.49-2.41-7.28-2.31-7.68.26-10.29-1.79-13.52-8.61-5.31-11.2-7.9-23.42-13.28-34.58-2.31-4.78-5.15-9.13-10.49-13.21,1.93,7.67,3.57,14.17,5.21,20.66,2.19,8.69,2.92,17.48,3.13,26.46.23,9.8,1.63,19.58,1.48,29.42-.03,2.04-.1,4.09-.16,6.13-.05,1.71,1.17,4.32-1.93,4.25-2.5-.06-2.17-2.83-1.83-4.09,1.84-6.79-.27-13.48-.25-20.2.04-9.62.1-19.38-1.39-28.84-2.22-14.17-5.39-28.28-10.67-41.68-1.94-4.91-6.85-8.09-10.8-11.62-25.7-22.91-49.33-47.68-70.9-74.59-10.45-13.04-21.14-25.75-29.1-40.53-1.75-3.25-3.82-4.03-7.54-2.08-26,13.61-56.74-3.66-63.21-27.83-1.92-7.16-3.28-14.36-4.54-21.62-.19-1.11-.8-2.66.84-3.03,1.39-.31,2.14.98,2.37,2.21.75,4.03,1.42,8.08,2.08,12.13,1.64,10.07,5.57,18.88,12.71,26.44,11.26,11.93,35.47,17.27,49.56,9.3,7.08-4.01,14.18-8.2,20.96-12.82l-.16-.11ZM471.59,1104.43c2.5,9,5.13,17.81,9.09,26.17,2.58,5.44,5.34,7.12,11.4,6.45,1.01-.11,2.12.12,2.52-1.19.35-1.16-.28-1.96-1.05-2.7-3.15-3.01-4.95-6.96-7.39-10.48-4.42-6.37-8.61-12.94-14.58-18.25Z"/>
    <path class="cls-1" d="M420.67,709.39c.03-6.57,2.76-12.58,5.13-18.35,5.08-12.36,8.27-25.32,13.09-37.74,4.95-12.74,9.76-25.51,18.36-36.36,1.47-1.86,3.41-3.4,5.3-4.85,4.02-3.09,7.74-1.99,11.11,1.2,5.5,5.21,10.41,10.91,14.73,17.17,9.85,14.26,21.73,26.71,34.74,38.1,7.5,6.57,14.04,13.99,20.05,21.92,1.25,1.64,2.39,3.48,3.97,4.73,2.66,2.1,4.98,3.5,9.12,1.37,6.47-3.33,12.29-6.63,15.03-13.8.44-1.15,1.54-2.34,3.47-1.79-.05,2.06-1.8,3.07-2.72,4.56-.53.86-1.07,1.99-.15,2.83.85.78,1.87.43,2.84-.16,1.99-1.21,4.01-3.53,6.35-2.54,4.06,1.73,8.88,2.92,11.42,6.72,4.71,7.06,12.1,10.09,19.17,13.27,7.84,3.53,14.71,8.53,21.36,13.59,7.33,5.58,13.44,12.77,20.04,19.29.89.88,2.6,1.92,1.03,3.32-1.12,1-2-.29-2.91-1.15-7.36-7-14.62-14.1-22.28-20.76-3.31-2.88-7.87-4.34-11.14-7.26-4.26-3.82-8.91-5.55-14.42-6.79-3.86-.87-7.09-4.56-10.57-7.04-9.83-6.99-19.13-6.89-30.02-.84-14.34,7.97-29.16,15.22-44.28,21.82-10.15,4.43-20.56,8.24-30.62,12.94-6.12,2.86-12.62,5.6-19.7,6.14,27.17-11.38,53.1-25.19,81.05-38.8-9.46-3.77-11.4-13.08-19.24-17.89-7.4-4.53-12.27-13.07-18.61-19.5-11.98-12.14-21.95-25.83-31.66-39.75-.97-1.4-2.26-2.59-3.45-3.82-7.12-7.37-10.9-6.97-17.35,1.3-6.5,8.35-10.7,17.86-14.17,27.68-4.75,13.48-7.89,27.56-13.87,40.57-2.66,5.79-4.06,11.94-6.62,17.7-.79,1.77-1.1,3.73-3.76,2.91l.16.06Z"/>
    <path class="cls-1" d="M289.16,818.28c-2.95-5.24-6.14-10.36-8.81-15.75-3.31-6.69-6.31-13.53-9.23-20.4-3.7-8.69-6.61-17.67-8.35-26.96-2.19-11.67-6.64-22.24-14.62-31.11-14.96-16.63-24.31-36.42-32.55-56.89-6.93-17.21-13.7-34.5-20.15-51.86-3.66-9.84-7.68-19.73-10.12-30.15-6.56-27.91-14.54-55.45-23.97-82.54-.37-1.06-1.22-2.15-.19-3.53,3,.13,4.02,2.17,5.08,4.72,3.95,9.54,7.14,19.32,9.92,29.26,2.9,10.39,6.13,20.68,8.89,31.1,3.03,11.42,5.34,22.95,9.97,34.01,4.2,10.03,7.35,20.55,11.17,30.79,5.72,15.32,10.84,30.9,17.12,45.99,4.24,10.18,9.82,19.84,15.28,29.45,1.61,2.83,5.03,4.57,7.35,7.07,10.23,11.03,15.09,24.8,18.47,38.97,3.24,13.6,8.27,26.44,13.34,39.37,3.72,9.49,10.26,17.75,11.41,28.47Z"/>
    <path class="cls-1" d="M644.42,818.47c1.39,3.16.29,6.44.48,9.65.06,1.1.42,2.13,1.35,2.63,1.45.79,1.39-1.05,2.17-1.46,3.92-2.08,6.41-5.59,9.11-8.91,1.18-1.45,2.46-2.8,5.06-2.9-3.14,6-7.77,10.6-12.57,14.18-6.48,4.84-7.01,11.4-7.85,17.99-.81,6.31-2.56,12.4-3.42,18.67-.21,1.51-1.2,2.16-2.54,1.73-1.3-.42-.87-1.52-.63-2.58,1.7-7.44,3.85-14.77,4.64-22.44.55-5.29-1.75-4.09-4.62-2.62-9.65,4.96-19.45,9.32-30.41,10.79-13.15,1.76-26.04.62-39.19-.78-12.4-1.32-22.46-7.59-33.4-11.95-2.75-1.1-6.05-3.54-8.32-6.91-2.19-3.24-6.69-4.97-10.27-7.22-3.76-2.36-7.58-4.66-11.49-6.77-2.3-1.24-1.36-3.12-.86-4.45.74-2,2.23-.6,3.39-.05.47.22,1.02.41,1.33.78,5.92,7.09,14.77,10.15,21.71,15.82,6.92,5.65,15.31,8.34,23.18,12.05,9.73,4.58,20.47,4.41,30.77,6.36,9.86,1.87,19.02-2.04,28.54-2.48,9.54-.45,17.44-5.65,25.96-8.84,6.12-2.29,6.27-9.31,6.37-15.3.03-1.84-.67-3.89,1.66-4.94l-.14-.06Z"/>
    <path class="cls-1" d="M258.58,546.49c1.71,1.35,2.29,1.58,2.46,1.98,5.69,13.78,13.68,26.5,18.53,40.71,4.71,13.8,10.58,26.99,21.68,37.24,11.37,10.49,18.8,23.71,25.33,37.61,4.65,9.9,11.58,18.5,17.53,27.66,3.24,4.99,6.9,9.7,9.88,14.82,3.48,5.99,8.62,10.56,12.95,15.81,3.09,3.74,5.31,7.9,7.61,12.08.67,1.22.78,2.38-.14,3.31-1.17,1.18-2.25.06-3.16-.61-.8-.59-1.6-1.33-2.06-2.19-6.2-11.55-15.44-20.98-22.3-32.06-10.91-17.62-23.52-34.21-31.61-53.53-2.53-6.05-6.85-11.2-11.62-15.65-11.7-10.91-20.04-23.71-24.97-39.03-3.25-10.1-7.47-19.93-12.81-29.21-3.15-5.48-5.39-11.36-7.32-18.92Z"/>
    <path class="cls-1" d="M420.51,709.33c2.91,1.09,2.03,3.73,1.36,5.24-2.93,6.59-2.85,14.12-6.71,20.42-1.16,1.89-.33,4.49-1.28,6.81-1.8,4.38-3.04,8.96-5.47,13.11-.67,1.14-1.78,3.01-.59,4.34,1.15,1.28,2.99.5,4.37.02,7.26-2.55,14.49-5.19,21.68-7.91,9.42-3.57,18.78-7.28,28.2-10.85,1.73-.65,3.62-1.32,5.66.44-4.84,3.03-10.18,4.55-15.32,6.29-7.25,2.45-14.18,5.69-21.38,8.12-6.9,2.33-13.78,4.68-20.66,7.07-2.93,1.02-5.27,2.28-5.93,5.68-.6,3.09-2.33,3.99-4.45,1.25-1.78-2.31-3.68-1.91-5.95-1.23-17.72,5.3-35.51,10.33-52.98,16.44-9.68,3.38-19.8,5.4-30.03,6.67-1.57.2-3.61.59-3.79-1.39-.23-2.51,2.27-1.45,3.48-1.56,18.13-1.77,35.21-7.54,52.29-13.4,10.98-3.77,22.08-7.24,33.26-10.41,4.54-1.29,6.56-3.4,7.56-8.21,2.06-9.86,2.84-20.25,10.2-28.42,3.88-4.31,1.99-11,5.07-15.87.54-.85,1.08-1.7,1.6-2.56-.01,0-.18-.07-.18-.07Z"/>
    <path class="cls-1" d="M706.13,497.69c-3.49,4.35-9.38,4.51-13.58,7.77-1.76,1.37-4.16,2.35-6.32,3.22-8.02,3.23-14.36,9.34-22.46,12.52-8.11,3.19-15.92,7.17-23.77,11-7.23,3.53-12.93,9.44-20.36,12.89-3.03,1.41-5.61.02-8.12,1.08-3.96,1.66-7.86,3.54-11.11,6.4-1.9,1.67-3.88,2.2-5.25.12-1.6-2.44,1.14-2.82,2.53-3.17,2.72-.69,1.72-3.87,4.31-5.13,7.87-3.81,15.75-7.46,23.98-10.46,3.72-1.36,7.2-3.81,10.31-6.36,5.75-4.72,12.38-7.49,19.25-9.92,6.83-2.42,14.15-4.04,19.94-8.52,9.16-7.09,19.56-10.23,30.79-11.42l-.14-.03Z"/>
    <path class="cls-1" d="M706.27,497.72c-.95-.91-3.13-.6-3.06-2.29.07-1.69,1.89-1.52,3.18-1.93,3.23-1.01,4.26-4.86,7.86-5.84,5.39-1.47,10.64-3.55,15.8-5.72,1.14-.48,5.18,0,2.66-3.65-.09-.12.44-.96.79-1.05,12.29-3.26,22.22-11.64,34.14-15.7,13.33-4.54,26.86-7.84,41.03-8.27,2.68-.08,3.22.81,3.37,3.1.21,3.24-1.97,5.86-1.87,9.16.14,4.5-2.71,8.23-4.27,12.3-.8,2.09-1.34,3.86-3.9,3.97l.16.08c.34-7.62,4.14-14.27,6-21.46.29-1.11,1.52-2.19.6-3.32-1.07-1.31-2.5-.41-3.83-.18-14.01,2.41-27.57,6.68-41.33,10.08-.66.16-1.51.25-1.91.69-9.07,10.37-22.76,12.72-34.07,19.14-4.3,2.44-8.9,6.48-14.82,5.69-.65,3.81-5.07,2.69-6.72,5.17.02,0,.16.04.16.04Z"/>
    <path class="cls-1" d="M600.81,779.53c9.09,5.08,16.81-2.38,25.83.79-4.96,2.64-9.19,2.63-13.2,2.99-5.96.53-12,1.09-16.8-4.01-2.22-2.36-2.77-3.57-1.72-7.49,2.25-8.43,8.47-9.84,14.82-12.16,2.24-.82,4.38-.51,6.58-.25,3.81.45,7.7,2.07,8.45,5.68.67,3.19-3.04,5.11-5.49,7.28-4.92,4.36-10.72,6.23-18.46,7.17ZM604.57,772.65c5.15.61,9.66-1.18,14.4-5.38-6.63-2.1-9.39,4.48-14.4,5.38Z"/>
    <path class="cls-1" d="M601.4,998.31c-1.53.33-1.9-.95-1.93-1.81-.24-8.41-4.01-16.66.27-25.32,2.85-5.76,3.46-12.59,5.95-18.57,2.25-5.4,3.72-10.97,5.2-16.55,2.83-10.7,7.38-20.77,11.01-31.17,3.58-10.25,7.6-20.36,11.53-30.48.46-1.17,1.46-2.79,3.05-2.08,1.52.68.4,1.91-.02,3.04-6.76,18.47-13.6,36.91-20.08,55.48-3.42,9.8-5.71,20.01-9.41,29.69-2.39,6.26-3.28,12.83-5.46,19.06-1.97,5.61.33,10.99.34,16.47,0,.81.54,1.66-.45,2.25Z"/>
    <path class="cls-1" d="M349.55,930.26c4.34-5.81,10.39-9.86,15.48-14.93,11-10.97,19.89-23.53,28.78-36.14,8.94-12.7,16.24-26.51,26.28-38.46.98-1.16,1.49-2.7,2.39-3.94.76-1.05,1.69-2.67,3.24-1.44,1.5,1.19.23,2.49-.58,3.55-8.05,10.37-15.13,21.43-22.32,32.39-9.82,14.97-20.06,29.62-32.43,42.61-4.91,5.16-10.51,9.66-15.76,14.51-1.51,1.4-3.3,1.7-5.23,1.76,0,0,.15.1.15.1Z"/>
    <path class="cls-1" d="M657.98,1038.43c-5.29-5.67-10.48-11.45-15.9-16.99-5.42-5.55-11.72-9.9-19.55-13.4,4.19,14.74,4.48,29.18,5.2,43.57.12,2.48-.09,4.71-1.06,7-.64,1.51-.26,3.57-2.61,3.88-2.59.35-3.26-2-3.89-3.45-3.21-7.39-7.14-14.5-8.98-22.44-.46-1.98-.81-4.02-2.34-5.61-.85-.88-1.41-2.01-.95-3.26.11-.31.84-.6,1.24-.56,1.58.18,1.45,1.61,1.89,2.7,3.17,7.95,6.37,15.89,9.65,23.79.54,1.29.51,3.62,2.65,3.18,1.92-.39,1.55-2.58,1.56-3.98.04-14.24-.34-28.44-5.01-42.15-.5-1.47-2.21-3.2-.62-4.7,1.7-1.6,3.11.47,4.59,1.07,10.08,4.1,18.19,10.79,25.1,19.1,3.22,3.87,6.78,7.44,10.19,11.14-.39.37-.77.73-1.16,1.1Z"/>
    <path class="cls-1" d="M611.67,628.84c-1.94-2.28.11-3.65,1.13-5.34,5.92-9.88,13.14-18.81,20.2-27.85,9.75-12.46,19.45-24.97,30.09-36.7,4.32-4.76,9.57-8.25,15.26-11.2,3.49-1.81,6.92-3.77,9.56-6.84,1.07-1.24,2.95-2.23,4.01-.81,1.35,1.8-1.25,1.82-2.07,2.66-5.76,5.83-13.45,8.75-19.98,13.39-3.69,2.62-6.71,6.29-9.71,9.75-12.27,14.13-23.71,28.92-34.94,43.88-4.11,5.48-6.45,12.18-11.26,17.27-.74.79-1.38,1.47-2.44,1.69l.15.11Z"/>
    <path class="cls-1" d="M301.33,866.89c1.68.93,2.66-.32,3.79-.97,3.01-1.71,4.79-.07,6.35,2.29,1.57,2.38,1.36,4.41-.87,6.31-4.5,3.84-9.94,4.25-15.45,4.38-.6.01-1.55-.37-1.78-.84-1.8-3.75-4.29-7.19-4.54-11.61-.2-3.68,2.18-5.44,4.59-7.38,1.17-.93,2.46-1.02,3.84-1.15,2.43-.22,5.13-.67,6.5,1.78,1.26,2.25-.34,4.19-1.9,5.89-.3.32-.36.87-.53,1.31ZM299.33,862.77c-.33-1.4-1.18-2.06-2.25-1.46-2.22,1.24-4.32,2.81-4.57,5.61-.08.94,1.04,1.31,1.9,1,2.52-.93,4.02-2.85,4.92-5.15Z"/>
    <path class="cls-1" d="M233.75,523.16c2.36.66,6.16-1.32,6.6,2.99.02.24.46.62.72.64,9.48.49,15.41,9.28,24.55,10.56.82.11,1.96.37,2.32.96,3.45,5.57,11.07,4.52,14.62,8.41,4.87,5.34,12.74,5.4,16.8,11.39.6.88,1.98,1.74,3,1.74,4.49-.02,5.27,2.39,4.41,6.87-4.79-3.72-10.6-5.19-14.48-9.64-2.55-2.92-6.43-3-9.41-5.08-3.9-2.72-7.33-6.27-12.14-7.6-2.81-.77-5.21-4.08-8.64-.72-.84.83-3.91,1.47-3.8-2.34.11-3.79-3.42-5.2-6.22-6.63-6.2-3.15-12.3-6.43-17.83-10.67-.24-.19-.33-.57-.49-.87Z"/>
    <path class="cls-1" d="M325.77,574.96c5.89-.76,10.15,3.23,14.32,5.99,9.39,6.22,19.08,11.84,28.86,17.35,9.47,5.33,18.88,10.76,28.29,16.18,1.29.74,2.9,1.14,3.7,3.16-5.58.56-9.86-2.71-14.16-4.77-9.73-4.67-19.64-9.42-28.29-15.77-6.28-4.61-13.17-8.17-19.61-12.34-4.04-2.61-7.02-7.15-12.16-8.17-.39-.08-.57-1.17-.85-1.79l-.11.15Z"/>
    <path class="cls-1" d="M747.51,605.88c-6.85,10.06-11.02,19.68-16.3,28.68-5.47,9.32-10.87,18.68-16.32,28-.51.88-1.14,1.68-1.76,2.49-.64.84-1.44,1.76-2.49.76-.74-.7-.05-1.54.38-2.28,4.14-7.11,8.32-14.2,12.37-21.36,5.95-10.53,11.93-21.06,17.61-31.74,1.3-2.44,2.88-3.42,6.5-4.55Z"/>
    <path class="cls-1" d="M181.68,494.74c7.84.97,15.87,1.41,21.1,8.33,6.16-.54,8.26,6.93,14.37,7.1,3.54.1,4.81,4.72,8.42,6.22,2.6,1.08,5.69,2.06,9.13,3.69-3.3,1.78-5.42,1.6-7.54.14-13.85-9.54-29.03-16.68-43.95-24.29-.56-.29-1.02-.79-1.53-1.19Z"/>
    <path class="cls-1" d="M802.02,481.8c2.35,2.96,1.7,6.04-.73,8.2-3.55,3.17-5.91,7.67-7.02,11.41-1.28,4.31-5.6,7.58-4.59,12.67.18.91-1.12,2.02-1.37,3.13-.33,1.45-1.16,2.42-2.44,1.9-1.71-.7-.29-2.04-.08-3.08,2.46-12.08,8.96-22.34,14.77-32.91.3-.55,1.07-.83,1.61-1.24,0,0-.17-.08-.17-.08Z"/>
    <path class="cls-1" d="M724.92,513.04c1.62,2.08-.65,2.91-1.54,3.63-8.83,7.18-18.68,13.01-27.24,20.56-.76.67-1.74,1.19-3.25-.21,2.44-2.26,4.72-4.65,7.28-6.7,6.94-5.55,14-10.95,21.03-16.39,1.13-.87,2.41-1.33,3.86-.8l-.14-.1Z"/>
    <path class="cls-1" d="M674.43,783.1c-3.6-14.91-10.73-27.89-21.8-39.96,10.89,2.45,22.55,29.26,21.8,39.96Z"/>
    <path class="cls-1" d="M688.82,1069.38c-11.1-8.58-19.76-19.7-30.23-29.58,4.64.09,22.22,16.95,30.23,29.58Z"/>
    <path class="cls-1" d="M549.16,1075.51c-1.32.31-2.06-.04-2.22-.68-1.68-6.74-7.22-10.9-10.81-16.36-1.08-1.64-1.42-3.41-1.11-5.39.48-3.08,1.98-3.64,4.78-2.09-.29,1.82-4.17.84-2.86,3.66,1.16,2.51,2.35.48,3.66.22,1.55-.31,3.33,3.97,2.26,5.55-.51.76-2.89.56-1.35,2.31,1.02,1.16,1.98,3.19,4.14,2.03,1.97-1.06,2.33-.18,2.47,1.59.25,3.02.66,6.03,1.02,9.18Z"/>
    <path class="cls-1" d="M752.44,589.84c5.44-10.31,10.9-20.61,16.28-30.95.53-1.01,1.13-1.31,1.94-.83,1.14.67,1.79,1.71.71,2.96-5.1,5.95-6.63,13.93-11.76,20.08-2.38,2.85-2.12,7.94-7.31,8.66l.14.07Z"/>
    <path class="cls-1" d="M538.86,578.67c7.62-2.84,13.44-8.57,21.49-9.5,3.29-.38,4.51-3.98,7.44-4.93,1.01-.33,1.8-2.94,3.12-.48.91,1.69.15,3-1.51,3.75-4.38,1.96-8.63,4.84-13.21,5.55-4.77.75-7.92,3.78-11.88,5.58-1.68.76-3.21,1.95-5.44.04Z"/>
    <path class="cls-1" d="M725.06,513.13c-.85-4.67,3.62-5.96,5.87-8.26,4.02-4.12,9.03-7.26,13.64-10.8.76-.58,1.63-1.8,2.58-.76,1.03,1.12.03,2.41-.81,3.12-4.42,3.75-8.9,7.45-13.47,11.03-2.55,2-5.3,3.72-7.96,5.58,0,0,.14.1.14.1Z"/>
    <path class="cls-1" d="M260.51,886.8c.94-5.01,2.12-11.39,3.35-17.75.13-.69.65-1.27,1.46-1.15,1.13.17,1.34,1.11,1.08,1.95-2.02,6.6-3.02,13.32-2.53,20.24.05.74-.37,1.43-1.19,1.3-1.77-.29-1.83-1.78-2.17-4.59Z"/>
    <path class="cls-1" d="M458.79,1187.72c-.18-3.35,1.48-6.55.77-9.95-.21-1.02.24-1.75,1.38-1.51,1.17.25,2.48.68,2.33,2.21-.32,3.39-.84,6.74-.35,10.19.23,1.59-1.32,1.75-2.58,1.65-1.67-.14-1.81-1.27-1.55-2.6Z"/>
    <path class="cls-1" d="M290.13,820.68c2.43.44,4.9.73,3.19,4.42-.85,1.84.67,3.2,1.58,4.59.89,1.36,2.62,2.33,1.71,4.81-5-3.26-9.12-6.62-6.47-13.82Z"/>
    <path class="cls-1" d="M781.93,536c-1.15-.11-2.89.04-2.24-2.09,1.03-3.39,2.27-6.73,3.52-10.05.42-1.13,1.25-2.41,2.61-1.69,1.16.61.31,1.87.27,2.93-.13,3.29-3.35,5.61-2.5,9.09.22.92-.55,1.53-1.65,1.81Z"/>
    <path class="cls-1" d="M644.57,818.53c-2.01-1.27-1.4-3.31-1.45-5.11-.14-5.1-.19-10.2-.31-15.3-.02-.95-.66-2.23,1.02-2.2,1,.02,1.16.97,1.15,1.91-.07,6.88.48,13.77-.57,20.63.02.01.16.07.16.07Z"/>
    <path class="cls-1" d="M706.72,677.13c-3.26,6.19-6.16,12.6-10.46,18.18-.47-.27-.93-.54-1.4-.81,3.41-6.09,6.82-12.18,10.23-18.27.54.3,1.09.6,1.63.9Z"/>
    <path class="cls-1" d="M609.7,1025.27c-4.24-1.78-7.04-9.1-6.89-16.85,3.56,4.83,3.55,11.02,6.89,16.85Z"/>
    <path class="cls-1" d="M325.88,574.81c-6.11-.92-13.76-4.96-15.3-8.63,5.05,2.95,12.14,2.12,15.18,8.78,0,0,.11-.15.11-.15Z"/>
    <path class="cls-1" d="M579.72,558.6c4.35-.6,7.73-4,12.94-4.5-5.52,6.39-8.18,7.35-12.94,4.5Z"/>
    <path class="cls-1" d="M752.3,589.76c.22.26.55.48.65.77,1.09,3.36-3.47,12.22-7.34,13.64,1.25-5.47,4.47-9.71,6.84-14.34-.01,0-.15-.08-.15-.08Z"/>
    <path class="cls-1" d="M461.09,1202.2c-4.19-1.61-3.08-5.09-2.73-8.17.15-1.29,1.37-1.89,2.74-1.74,1.81.2,1.56,1.78,1.42,2.77-.34,2.4-1.03,4.76-1.55,7.14.04,0,.13,0,.13,0Z"/>
    <path class="cls-1" d="M524.16,590.37c2.74-5.7,8.86-9.8,13.89-9.44-4.66,3.17-8.97,6.09-13.89,9.44Z"/>
    <path class="cls-1" d="M285.94,831.44c-1.24,4.61-3.97,8.21-7.54,11.26,1.3-4.56,4.74-7.7,7.54-11.26Z"/>
    <path class="cls-1" d="M276.69,846.55c-2,3.61-4.42,7.03-5.5,11.06-.29,1.08-1.17,1.09-2.02.58-.98-.59-.78-1.38-.26-2.17,2.19-3.38,4.38-6.77,6.57-10.15.41.22.81.45,1.22.67Z"/>
    <path class="cls-1" d="M668.88,802.92c-.67,5.25-2.06,10.14-6.86,13.11,1.78-4.64,5.14-8.43,6.86-13.11Z"/>
    <path class="cls-1" d="M611.52,628.73c.37,4.33-4.25,5.42-5.66,8.6-.11.24-.95.36-1.34.21-.83-.31-.88-1.22-.36-1.65,2.64-2.21,3.08-6.77,7.51-7.06,0,0-.15-.11-.15-.11Z"/>
    <path class="cls-1" d="M773.06,550.71c1.22-2.7,2.42-5.22,3.48-7.79.37-.9.85-1.5,1.8-1.37.37.05.85.52.99.91.72,1.95-3.54,7.77-6.28,8.25Z"/>
    <path class="cls-1" d="M585.65,661.12c.39.32.62.42.63.54.2,3.5-1.54,6.02-4.2,8-.26.19-1.35-.22-1.35-.27.41-3.52,2.9-5.72,4.92-8.26Z"/>
    <path class="cls-1" d="M751.19,484.06c1.18-4.15,3.46-5.57,7.1-5.87-.73,4.17-3.13,5.57-7.1,5.87Z"/>
    <path class="cls-1" d="M605.33,708.79c3.34,3.11,6.61,6.06,8.44,10.14-3.93-2.54-6.43-6.25-8.44-10.14Z"/>
    <path class="cls-1" d="M670.21,737.33c.51-3.43,1.54-6.52,5.13-7.93-.81,3.23-2.61,5.82-5.13,7.93Z"/>
  </g>
  <g>
    <path class="cls-1" d="M2357.45,949.16c6.45,5.1,13.24,9.82,20.03,14.34,13.51,8.99,38.11,5.41,50.24-5.71,7.69-7.05,12.25-15.58,14.62-25.53.95-4,1.92-8,2.96-11.98.32-1.22,1.16-2.45,2.53-2.04,1.61.49.9,1.99.62,3.09-1.79,7.16-3.67,14.27-6.11,21.29-8.22,23.7-40.22,38.75-65.24,23.25-3.58-2.22-5.7-1.58-7.69,1.54-9.03,14.2-20.64,26.13-32.04,38.42-23.52,25.35-48.95,48.41-76.3,69.46-4.21,3.24-9.35,6.07-11.65,10.84-6.26,13.01-10.44,26.9-13.69,40.91-2.17,9.35-2.81,19.11-3.47,28.74-.46,6.73-3.06,13.26-1.71,20.19.25,1.29.38,4.08-2.12,3.96-3.11-.15-1.7-2.67-1.62-4.39.09-2.05.17-4.09.28-6.14.56-9.86,2.67-19.53,3.61-29.32.86-8.96,2.23-17.71,5.05-26.23,2.11-6.38,4.22-12.76,6.71-20.29-5.64,3.69-8.79,7.84-11.45,12.45-6.19,10.77-9.66,22.8-15.79,33.62-3.73,6.58-6.49,8.44-14.15,7.63-2.78-.3-5.46-1.12-7.45,1.78-.31.45-1.27.84-1.76.7-.93-.28-.99-1.3-.94-2.18.08-1.45.88-2.54,1.77-3.64,9.98-12.24,19.88-24.54,29.9-36.73,2.83-3.44,6.47-6.28,8.88-9.96,2.08-3.18,3.9-6.1,7.8-7.1.41-.1.65-.79,1.02-1.13,10.88-9.98,21.93-19.81,33.82-28.51,19.4-14.19,36.77-30.51,53.17-47.96,14.02-14.91,29.74-28.29,40.78-45.9,2.41-3.85,2.14-5.96-1.51-8.43-3.56-2.4-7.96-4.16-8.95-9.15l-.17.1ZM2206.87,1131.71c-2.69,3.34-4.77,7.17-8.15,9.94-.82.68-1.51,1.43-1.24,2.62.3,1.35,1.43,1.19,2.44,1.38,6.01,1.1,8.9-.38,11.87-5.63,4.57-8.07,7.84-16.7,10.99-25.51-6.36,4.88-11.02,11.14-15.9,17.2Z"/>
    <path class="cls-1" d="M2302.32,723.13c.44-6.58-1.85-12.78-3.8-18.72-4.18-12.73-6.44-25.92-10.36-38.69-4.03-13.1-7.91-26.22-15.73-37.69-1.34-1.96-3.16-3.64-4.95-5.24-3.8-3.38-7.6-2.55-11.2.4-5.88,4.81-11.2,10.16-15.97,16.11-10.88,13.55-23.66,25.14-37.5,35.59-7.98,6.03-15.06,12.98-21.64,20.47-1.37,1.55-2.64,3.31-4.31,4.44-2.81,1.91-5.23,3.14-9.22.71-6.23-3.8-11.81-7.52-14.03-14.89-.36-1.18-1.37-2.45-3.34-2.04-.1,2.07,1.58,3.21,2.39,4.76.47.89.92,2.06-.05,2.84-.9.72-1.9.29-2.83-.37-1.9-1.36-3.75-3.83-6.17-3-4.19,1.44-9.09,2.27-11.91,5.89-5.23,6.72-12.83,9.21-20.13,11.88-8.1,2.96-15.33,7.47-22.34,12.05-7.73,5.05-14.37,11.79-21.44,17.84-.95.82-2.74,1.74-1.28,3.25,1.05,1.08,2.02-.14,2.99-.94,7.86-6.47,15.65-13.04,23.78-19.15,3.52-2.64,8.19-3.77,11.66-6.46,4.54-3.51,9.31-4.91,14.92-5.75,3.92-.59,7.42-4.05,11.08-6.27,10.34-6.28,19.63-5.51,30.08,1.33,13.77,9.01,28.06,17.33,42.7,25.03,9.83,5.17,19.97,9.73,29.69,15.16,5.91,3.3,12.22,6.52,19.25,7.56-26.35-13.35-51.28-29.03-78.24-44.68,9.73-3.09,12.34-12.25,20.54-16.5,7.73-4,13.22-12.19,20.02-18.15,12.86-11.27,23.82-24.24,34.54-37.46,1.08-1.33,2.45-2.42,3.73-3.57,7.66-6.85,11.41-6.18,17.25,2.56,5.9,8.82,9.41,18.64,12.16,28.71,3.78,13.83,5.9,28.14,10.93,41.58,2.24,5.99,3.2,12.23,5.34,18.18.66,1.83.83,3.81,3.55,3.19l-.17.05Z"/>
    <path class="cls-1" d="M2425.95,841.55c3.33-5.03,6.89-9.92,9.95-15.11,3.79-6.45,7.29-13.08,10.7-19.74,4.33-8.43,7.89-17.19,10.31-26.36,3.04-11.51,8.25-21.77,16.87-30.06,16.17-15.55,26.95-34.66,36.68-54.54,8.17-16.71,16.2-33.51,23.91-50.4,4.37-9.58,9.11-19.18,12.31-29.42,8.58-27.44,18.55-54.4,29.96-80.81.44-1.03,1.38-2.06.44-3.51-3.01-.09-4.18,1.88-5.42,4.35-4.65,9.26-8.54,18.8-12.04,28.54-3.65,10.18-7.63,20.24-11.15,30.46-3.86,11.2-7.01,22.56-12.44,33.29-4.92,9.72-8.84,20.02-13.4,29.98-6.83,14.91-13.08,30.11-20.45,44.75-4.98,9.88-11.25,19.13-17.41,28.35-1.81,2.71-5.36,4.21-7.86,6.54-11.03,10.29-16.89,23.71-21.29,37.63-4.22,13.36-10.18,25.84-16.2,38.4-4.41,9.22-11.55,17.01-13.47,27.65Z"/>
    <path class="cls-1" d="M2070.64,816.01c-1.62,3.05-.76,6.42-1.18,9.62-.14,1.1-.58,2.1-1.55,2.53-1.51.68-1.32-1.15-2.06-1.62-3.77-2.36-6-6.06-8.46-9.57-1.07-1.53-2.26-2.98-4.85-3.27,2.71,6.23,7.01,11.16,11.54,15.09,6.13,5.31,6.18,11.91,6.55,18.56.36,6.37,1.67,12.58,2.07,18.91.1,1.53,1.04,2.25,2.42,1.91,1.34-.32.98-1.46.81-2.53-1.16-7.57-2.78-15.05-3.02-22.77-.17-5.33,2.04-3.97,4.81-2.29,9.29,5.66,18.78,10.73,29.63,12.99,13.03,2.71,26,2.51,39.25,2.06,12.5-.42,23.02-5.96,34.27-9.53,2.83-.9,6.31-3.1,8.82-6.3,2.42-3.09,7.05-4.49,10.8-6.47,3.94-2.09,7.92-4.11,11.98-5.94,2.39-1.08,1.58-3.02,1.19-4.38-.6-2.05-2.19-.76-3.39-.3-.48.19-1.05.34-1.38.68-6.44,6.66-15.51,9.09-22.85,14.25-7.33,5.15-15.91,7.23-24.06,10.37-10.06,3.87-20.79,2.92-31.23,4.13-10,1.15-18.87-3.41-28.37-4.55-9.51-1.14-17.03-6.91-25.32-10.72-5.96-2.74-5.59-9.76-5.26-15.76.1-1.84.95-3.84-1.3-5.06l.15-.05Z"/>
    <path class="cls-1" d="M2476.22,571.96c-1.81,1.23-2.41,1.41-2.6,1.8-6.69,13.37-15.6,25.51-21.48,39.37-5.71,13.46-12.53,26.23-24.38,35.67-12.13,9.67-20.52,22.35-28.06,35.78-5.37,9.56-12.92,17.66-19.54,26.39-3.6,4.75-7.6,9.2-10.96,14.11-3.92,5.73-9.38,9.94-14.1,14.87-3.36,3.52-5.88,7.52-8.49,11.53-.76,1.17-.96,2.32-.1,3.32,1.09,1.26,2.24.22,3.2-.38.84-.53,1.7-1.22,2.22-2.04,7.04-11.1,16.96-19.86,24.62-30.45,12.19-16.83,26-32.51,35.49-51.25,2.97-5.87,7.66-10.7,12.75-14.81,12.49-10.07,21.76-22.26,27.8-37.23,3.99-9.86,8.92-19.39,14.92-28.29,3.55-5.25,6.21-10.97,8.69-18.39Z"/>
    <path class="cls-1" d="M2302.48,723.08c-2.99.88-2.3,3.58-1.74,5.14,2.46,6.8,1.82,14.33,5.23,20.91,1.02,1.98,0,4.52.79,6.91,1.48,4.51,2.39,9.18,4.53,13.51.59,1.19,1.56,3.14.28,4.38-1.24,1.19-3.03.28-4.37-.3-7.07-3.08-14.11-6.24-21.11-9.48-9.16-4.25-18.26-8.64-27.42-12.89-1.68-.78-3.53-1.58-5.69.03,4.62,3.38,9.85,5.29,14.86,7.4,7.07,2.97,13.77,6.71,20.8,9.67,6.73,2.83,13.45,5.68,20.15,8.57,2.86,1.23,5.11,2.67,5.51,6.11.37,3.13,2.04,4.16,4.36,1.57,1.95-2.18,3.82-1.65,6.04-.8,17.34,6.58,34.76,12.9,51.8,20.28,9.44,4.09,19.41,6.83,29.55,8.84,1.56.31,3.57.85,3.9-1.11.41-2.5-2.17-1.61-3.37-1.82-18.01-3.08-34.66-10.09-51.33-17.19-10.71-4.56-21.56-8.84-32.5-12.82-4.45-1.62-6.31-3.88-6.97-8.75-1.34-10.01-1.38-20.46-8.14-29.16-3.57-4.59-1.19-11.14-3.92-16.24-.48-.89-.96-1.78-1.42-2.67.01,0,.18-.05.18-.05Z"/>
    <path class="cls-1" d="M2032.17,490.73c3.17,4.61,9.05,5.19,13.02,8.76,1.67,1.5,3.99,2.66,6.08,3.68,7.79,3.82,13.69,10.38,21.55,14.15,7.88,3.78,15.41,8.33,22.98,12.72,6.98,4.05,12.25,10.38,19.43,14.37,2.93,1.62,5.61.43,8.05,1.67,3.83,1.95,7.61,4.11,10.64,7.21,1.77,1.81,3.72,2.48,5.24.5,1.78-2.32-.93-2.9-2.3-3.35-2.67-.88-1.44-4-3.94-5.44-7.59-4.38-15.21-8.6-23.22-12.2-3.63-1.63-6.93-4.33-9.85-7.11-5.41-5.14-11.84-8.38-18.54-11.31-6.66-2.91-13.86-5.06-19.32-9.96-8.65-7.76-18.82-11.65-29.97-13.65l.15-.02Z"/>
    <path class="cls-1" d="M2032.02,490.75c1.01-.84,3.17-.38,3.22-2.07.05-1.69-1.78-1.66-3.04-2.16-3.16-1.24-3.91-5.17-7.43-6.41-5.29-1.86-10.39-4.32-15.39-6.87-1.11-.56-5.18-.37-2.4-3.84.09-.12-.37-.99-.71-1.11-12.06-4.15-21.37-13.25-33.01-18.17-13-5.5-26.3-9.79-40.44-11.24-2.68-.28-3.28.58-3.59,2.86-.44,3.22,1.55,6,1.2,9.3-.47,4.49,2.12,8.42,3.38,12.61.65,2.15,1.06,3.96,3.61,4.25l-.17.07c.21-7.64-3.1-14.57-4.44-21.9-.21-1.13-1.36-2.3-.36-3.37,1.16-1.24,2.53-.23,3.84.1,13.84,3.43,27.09,8.67,40.61,13.07.65.21,1.5.36,1.86.83,8.32,11.03,21.84,14.37,32.69,21.61,4.12,2.75,8.43,7.13,14.41,6.76.37,3.85,4.87,3.05,6.34,5.66-.02,0-.17.03-.17.03Z"/>
    <path class="cls-1" d="M2099.13,771.71c-2.29-2.35-5.86-4.54-4.96-7.68,1.02-3.56,5.02-4.89,8.86-5.07,2.22-.1,4.39-.26,6.57.72,6.17,2.78,12.3,4.64,13.94,13.24.76,3.99.13,5.16-2.27,7.36-5.18,4.76-11.17,3.76-17.1,2.79-3.99-.65-8.22-.94-12.99-3.95,9.26-2.51,16.43,5.51,25.89,1.09-7.68-1.51-13.34-3.8-17.95-8.51ZM2099.8,766.64c4.44,4.55,8.82,6.66,14.01,6.42-4.95-1.26-7.23-8.04-14.01-6.42Z"/>
    <path class="cls-1" d="M2100.64,998.98c1.5.44,1.97-.81,2.06-1.67.85-8.4,5.22-16.37,1.56-25.34-2.43-5.97-2.55-12.84-4.61-19-1.86-5.57-2.93-11.24-4-16.93-2.05-10.9-5.88-21.31-8.76-31.97-2.84-10.51-6.12-20.91-9.33-31.32-.37-1.21-1.26-2.9-2.9-2.3-1.57.57-.54,1.88-.2,3.04,5.42,18.96,10.92,37.9,16.06,56.94,2.71,10.05,4.26,20.42,7.26,30.37,1.94,6.44,2.35,13.07,4.08,19.46,1.56,5.75-1.12,10.96-1.53,16.45-.06.81-.66,1.62.29,2.28Z"/>
    <path class="cls-1" d="M2357.45,949.16c-3.92-6.13-9.68-10.62-14.4-16.05-10.21-11.77-18.19-24.97-26.16-38.23-8.02-13.35-14.32-27.69-23.5-40.37-.89-1.23-1.29-2.81-2.11-4.12-.69-1.11-1.5-2.8-3.14-1.68-1.59,1.08-.41,2.48.33,3.59,7.3,10.96,13.58,22.53,19.98,34.01,8.74,15.68,17.91,31.08,29.34,44.96,4.54,5.51,9.82,10.42,14.71,15.65,1.41,1.51,3.18,1.94,5.1,2.14,0,0-.16.09-.16.09Z"/>
    <path class="cls-1" d="M2041.16,1035.01c5.7-5.29,11.31-10.69,17.13-15.84,5.82-5.16,12.43-9.05,20.52-11.98-5.25,14.44-6.6,28.85-8.36,43.2-.3,2.47-.25,4.71.55,7.07.53,1.56,0,3.59,2.33,4.07,2.57.54,3.41-1.77,4.14-3.17,3.74-7.15,8.19-13.98,10.61-21.79.6-1.95,1.1-3.97,2.75-5.44.91-.82,1.55-1.91,1.19-3.19-.09-.32-.79-.67-1.2-.65-1.59.07-1.57,1.5-2.08,2.56-3.74,7.72-7.52,15.43-11.37,23.1-.63,1.25-.77,3.58-2.88,2.99-1.89-.53-1.37-2.69-1.27-4.09.99-14.25,2.4-28.42,8.06-41.79.61-1.43,2.44-3.04.96-4.66-1.58-1.73-3.15.24-4.67.74-10.38,3.37-18.97,9.47-26.49,17.29-3.5,3.63-7.32,6.95-11,10.41.36.39.72.79,1.08,1.18Z"/>
    <path class="cls-1" d="M2117.14,628.73c2.11-2.14.15-3.65-.74-5.42-5.2-10.31-11.77-19.77-18.19-29.31-8.84-13.17-17.65-26.38-27.44-38.88-3.97-5.07-8.98-8.94-14.45-12.3-3.35-2.06-6.64-4.27-9.06-7.53-.98-1.32-2.79-2.45-3.95-1.1-1.48,1.71,1.12,1.91,1.88,2.81,5.34,6.25,12.82,9.73,19.02,14.83,3.5,2.88,6.25,6.77,9.01,10.46,11.24,15.02,21.61,30.64,31.76,46.41,3.72,5.77,5.57,12.65,10.01,18.09.69.84,1.27,1.57,2.31,1.86l-.15.1Z"/>
    <path class="cls-1" d="M2409.83,887.93c-1.44-1.81-2.89-3.87-1.47-6.02,1.55-2.35,4.22-1.71,6.63-1.31,1.37.23,2.66.41,3.76,1.43,2.27,2.11,4.52,4.04,4.05,7.71-.56,4.4-3.3,7.67-5.38,11.29-.26.45-1.24.77-1.84.71-5.51-.53-10.92-1.33-15.14-5.5-2.09-2.07-2.15-4.11-.41-6.37,1.73-2.25,3.63-3.75,6.51-1.83,1.09.73,1.98,2.05,3.72,1.24-.14-.46-.16-1-.44-1.35ZM2417.11,890.82c.83.38,1.98.09,1.97-.86-.05-2.82-2.03-4.54-4.16-5.94-1.03-.68-1.92-.08-2.36,1.3.74,2.37,2.1,4.4,4.55,5.51Z"/>
    <path class="cls-1" d="M2502.74,550.42c-2.41.49-6.07-1.77-6.82,2.51-.04.24-.51.59-.77.59-9.52-.2-16.08,8.16-25.32,8.78-.83.06-1.98.23-2.39.79-3.86,5.32-11.4,3.72-15.23,7.35-5.26,4.99-13.13,4.48-17.62,10.17-.66.84-2.11,1.6-3.12,1.52-4.48-.35-5.45,2.01-4.91,6.55,5.06-3.38,10.98-4.43,15.18-8.6,2.76-2.74,6.65-2.53,9.78-4.4,4.09-2.44,7.78-5.74,12.69-6.72,2.87-.57,5.51-3.7,8.7-.09.78.89,3.81,1.75,3.97-2.07.17-3.8,3.79-4.96,6.7-6.18,6.42-2.7,12.76-5.54,18.6-9.38.26-.17.37-.55.56-.83Z"/>
    <path class="cls-1" d="M2406.96,595.56c-5.84-1.19-10.38,2.5-14.75,4.96-9.84,5.54-19.94,10.45-30.12,15.26-9.85,4.65-19.66,9.4-29.47,14.14-1.35.65-2.99.93-3.93,2.89,5.54.97,10.05-1.99,14.5-3.75,10.07-3.97,20.33-8,29.43-13.72,6.61-4.15,13.77-7.21,20.51-10.92,4.23-2.32,7.54-6.64,12.75-7.29.39-.05.65-1.13.98-1.73l.1.16Z"/>
    <path class="cls-1" d="M1982.95,595.93c6.12,10.56,9.59,20.48,14.22,29.86,4.79,9.72,9.52,19.47,14.3,29.19.45.91,1.02,1.77,1.58,2.62.58.89,1.31,1.86,2.43.94.79-.65.17-1.54-.21-2.31-3.62-7.41-7.3-14.8-10.83-22.26-5.19-10.97-10.4-21.93-15.31-33.02-1.12-2.54-2.64-3.63-6.18-5.03Z"/>
    <path class="cls-1" d="M2556.88,525.77c-7.91.4-15.97.26-21.71,6.8-6.12-.99-8.76,6.33-14.88,6.06-3.55-.15-5.15,4.37-8.87,5.61-2.67.89-5.84,1.65-9.4,3.03,3.18,2.02,5.3,1.99,7.54.68,14.55-8.53,30.24-14.58,45.72-21.11.59-.25,1.08-.71,1.61-1.08Z"/>
    <path class="cls-1" d="M1937.42,467.89c-2.57,2.79-2.14,5.91.13,8.25,3.32,3.42,5.35,8.1,6.19,11.92.97,4.41,5.05,7.98,3.67,13-.25.9.97,2.11,1.14,3.23.22,1.47.99,2.51,2.3,2.08,1.76-.57.44-2.02.3-3.07-1.58-12.25-7.35-22.99-12.39-33.99-.26-.57-1.01-.91-1.52-1.36,0,0,.18-.07.18-.07Z"/>
    <path class="cls-1" d="M2012.27,504.71c-1.77,1.96.44,2.96,1.27,3.74,8.31,7.82,17.74,14.36,25.75,22.54.71.73,1.65,1.31,3.27.02-2.27-2.43-4.38-4.99-6.8-7.22-6.54-6.05-13.2-11.97-19.84-17.91-1.06-.95-2.32-1.5-3.81-1.08l.14-.09Z"/>
    <path class="cls-1" d="M2043.2,778.46c4.68-14.65,12.76-27.11,24.69-38.38-11.07,1.66-24.67,27.63-24.69,38.38Z"/>
    <path class="cls-1" d="M2008.06,1063.72c11.72-7.77,21.19-18.27,32.37-27.39-4.64-.24-23.45,15.34-32.37,27.39Z"/>
    <path class="cls-1" d="M2147.29,1079.97c1.3.4,2.06.11,2.27-.52,2.17-6.62,8.01-10.38,11.99-15.58,1.2-1.56,1.67-3.31,1.5-5.31-.26-3.12-1.72-3.79-4.63-2.44.16,1.85,4.11,1.14,2.59,3.87-1.35,2.43-2.39.31-3.67-.05-1.53-.42-3.61,3.73-2.67,5.39.46.8,2.85.77,1.18,2.4-1.11,1.08-2.21,3.05-4.29,1.73-1.89-1.2-2.31-.35-2.59,1.41-.47,3-1.1,5.98-1.69,9.1Z"/>
    <path class="cls-1" d="M1979.18,579.53c-4.69-10.71-9.41-21.4-14.03-32.14-.45-1.05-1.03-1.39-1.88-.97-1.19.59-1.91,1.58-.93,2.91,4.67,6.33,5.62,14.42,10.3,20.94,2.18,3.03,1.55,8.1,6.68,9.19l-.14.06Z"/>
    <path class="cls-1" d="M2193.59,583.83c-7.42-3.4-12.83-9.55-20.8-11.06-3.26-.62-4.22-4.31-7.08-5.47-.98-.4-1.58-3.07-3.08-.71-1.03,1.62-.37,2.99,1.24,3.86,4.24,2.28,8.28,5.46,12.81,6.51,4.71,1.09,7.65,4.35,11.48,6.44,1.63.89,3.07,2.19,5.44.43Z"/>
    <path class="cls-1" d="M2012.12,504.8c1.19-4.61-3.19-6.22-5.27-8.69-3.72-4.41-8.51-7.92-12.86-11.79-.72-.64-1.5-1.92-2.53-.95-1.11,1.05-.21,2.4.58,3.18,4.15,4.08,8.36,8.1,12.67,12.01,2.4,2.18,5.03,4.11,7.55,6.15,0,0-.15.09-.15.09Z"/>
    <path class="cls-1" d="M2449.64,912.15c-.58-5.08-1.3-11.54-2.06-17.99-.08-.7-.56-1.32-1.38-1.25-1.14.09-1.42,1.01-1.22,1.87,1.55,6.75,2.05,13.54,1.07,20.43-.11.74.27,1.46,1.09,1.38,1.79-.16,1.96-1.65,2.51-4.43Z"/>
    <path class="cls-1" d="M2229.54,1198.73c.42-3.34-1-6.66-.04-10,.29-1-.11-1.77-1.27-1.61-1.19.17-2.53.5-2.5,2.04.07,3.42.35,6.8-.39,10.22-.34,1.57,1.19,1.85,2.46,1.84,1.68-.02,1.9-1.14,1.74-2.48Z"/>
    <path class="cls-1" d="M2424.81,843.88c-2.47.26-4.95.37-3.51,4.19.72,1.91-.9,3.15-1.91,4.48-.99,1.29-2.79,2.14-2.06,4.69,5.24-2.89,9.6-5.96,7.47-13.35Z"/>
    <path class="cls-1" d="M1953.59,523.55c1.16-.03,2.88.25,2.39-1.93-.79-3.47-1.78-6.89-2.79-10.3-.34-1.16-1.08-2.5-2.49-1.88-1.21.53-.44,1.84-.48,2.91-.11,3.3,2.94,5.85,1.85,9.27-.29.91.44,1.57,1.52,1.93Z"/>
    <path class="cls-1" d="M2070.5,816.06c2.1-1.12,1.63-3.21,1.82-5,.51-5.09.93-10.19,1.42-15.28.09-.95.82-2.19-.86-2.27-1-.05-1.23.88-1.29,1.83-.43,6.88-1.48,13.74-.92,20.67-.02,0-.17.06-.17.06Z"/>
    <path class="cls-1" d="M2018.58,670.14c2.81,6.43,5.25,13.05,9.15,18.94.49-.24.97-.47,1.46-.71-2.97-6.34-5.94-12.68-8.91-19.01-.57.26-1.13.52-1.7.78Z"/>
    <path class="cls-1" d="M2090.39,1025.34c4.37-1.47,7.7-8.59,8.11-16.35-3.91,4.57-4.35,10.76-8.11,16.35Z"/>
    <path class="cls-1" d="M2406.86,595.39c6.18-.48,14.12-3.96,15.92-7.52-5.26,2.58-12.3,1.24-15.82,7.68,0,0-.1-.16-.1-.16Z"/>
    <path class="cls-1" d="M2154.17,560.8c-4.3-.92-7.45-4.56-12.62-5.44,5.06,6.79,7.65,7.95,12.62,5.44Z"/>
    <path class="cls-1" d="M1979.32,579.46c-.24.24-.58.44-.7.72-1.34,3.28,2.59,12.47,6.35,14.18-.85-5.56-3.76-10.04-5.81-14.83.01,0,.15-.07.15-.07Z"/>
    <path class="cls-1" d="M2226.2,1213.06c4.31-1.31,3.45-4.87,3.33-7.97-.05-1.3-1.23-1.99-2.61-1.94-1.83.07-1.69,1.67-1.62,2.67.17,2.43.69,4.83,1.03,7.25-.04,0-.13,0-.13,0Z"/>
    <path class="cls-1" d="M2207.44,596.6c-2.33-5.89-8.15-10.44-13.21-10.45,4.44,3.51,8.53,6.74,13.21,10.45Z"/>
    <path class="cls-1" d="M2428.22,854.95c.9,4.7,3.38,8.5,6.73,11.81-.97-4.66-4.18-8.05-6.73-11.81Z"/>
    <path class="cls-1" d="M2436.38,870.73c1.74,3.76,3.91,7.35,4.7,11.46.21,1.1,1.09,1.18,1.98.73,1.03-.52.88-1.32.42-2.15-1.94-3.54-3.89-7.08-5.84-10.62-.42.19-.84.39-1.26.58Z"/>
    <path class="cls-1" d="M2047.31,798.68c.29,5.3,1.32,10.29,5.91,13.61-1.44-4.77-4.53-8.81-5.91-13.61Z"/>
    <path class="cls-1" d="M2117.29,628.63c-.68,4.31,3.85,5.73,5.04,9.01.09.25.93.42,1.33.31.86-.25.96-1.16.48-1.63-2.48-2.41-2.59-7-7-7.6,0,0,.15-.1.15-.1Z"/>
    <path class="cls-1" d="M1961.4,538.91c-1.02-2.79-2.04-5.4-2.92-8.04-.31-.92-.74-1.56-1.7-1.5-.38.02-.89.46-1.06.84-.86,1.89,2.98,8.03,5.68,8.7Z"/>
    <path class="cls-1" d="M2140.82,662.9c-.41.29-.65.38-.67.49-.46,3.49,1.1,6.13,3.62,8.3.25.21,1.37-.12,1.37-.17-.16-3.55-2.48-5.93-4.33-8.62Z"/>
    <path class="cls-1" d="M1988.09,473.83c-.88-4.23-3.06-5.82-6.67-6.39.42,4.22,2.73,5.8,6.67,6.39Z"/>
    <path class="cls-1" d="M2117.69,709.15c-3.57,2.87-7.05,5.58-9.18,9.53,4.11-2.25,6.88-5.79,9.18-9.53Z"/>
    <path class="cls-1" d="M2050.73,732.99c-.26-3.46-1.07-6.63-4.56-8.3.58,3.29,2.18,6.01,4.56,8.3Z"/>
  </g>
</svg>