<?xml version="1.0" encoding="UTF-8"?>
<svg id="Layer_1" data-name="Layer 1" xmlns="http://www.w3.org/2000/svg" viewBox="0 0 2732 2048">
  <defs>
    <style>
      .cls-1 {
        fill: #862a2b;
      }
    </style>
  </defs>
  <path class="cls-1" d="M1447.91,1258.35c-2.94-6.67-5.62-13.03-11.05-17.98-5.1-4.64-10.29-9.13-16.25-12.64-3.56-2.1-7.38-3.77-11.01-5.76-9.45-5.18-19.41-9.06-29.64-12.47-4.83-1.61-9.68-3.25-14.49-4.96-1.31-.47-2.01-.22-2.85.81-1.51,1.85-3.29,3.45-5.48,4.61-.47-.99.06-1.67.47-2.27,2.33-3.39,2.8-7.39,3.12-11.21.68-8.19,1-16.42,1.07-24.63.06-6.43.58-13.01-.8-19.28-1.56-7.11-2.11-14.36-3.87-21.43-1.99-7.98-3.63-16.01-6.82-23.67-2.26-5.44-6.28-8.52-11.93-9.62-15.06-2.93-29.2-8.29-42.65-15.51-3.28-1.76-5.83-4.35-7.3-7.81-1.5-3.53-.26-5.24,3.56-5.07,1.82.08,3.65.06,5.47.15,3.05.14,5.04-.73,7.01-3.56,1.59-2.29,2.17-5.14,4.32-7.07.9-.81.59-2.06.4-3.18-.31-1.77.04-3.03,2.29-3.06,2.01-.03,2.38-1.33,2.06-3.04-.85-4.55-1.55-9.14-2.55-13.66-.5-2.24-.72-4.46-.12-6.61,1.44-5.21-.28-9.39-3.44-13.57-7.5-9.94-17.38-16.6-28.84-21.18-5.75-2.3-12.11-.24-16.21,4.34-7.62,8.48-14.69,17.44-23.29,25.08-6.1,5.42-10.68,12.05-12.23,20.32-.66,3.5.14,3.98,3.32,5.77,3.6,2.03,7.54,3.11,11.21,4.88,1.98.95,4.25,1.29,6.24,2.23,3.03,1.44,6.16,2.85,8.81,4.85,2.36,1.78,1.2,7.38-1.35,9.43-3.08,2.48-6.51,1.99-9.91,1.29-4.52-.92-8.76-2.78-12.85-4.82-4.3-2.14-8.95-3.33-13.49-4.61-6.09-1.72-10.93,1.12-14.3,6.56-5.35,8.63-5.55,18.4-6.75,27.93-1.1,8.75-.24,17.65-1.62,26.4-1.52,9.67-2.63,19.36-2.58,29.17.04,9.11.98,18.14,2.62,27.09,1.07,5.81,1.22,11.57.26,17.37-.31,1.87-.82,3.72-1.85,5.32-4.41,6.79-4.99,14.33-4.31,22.04,1.04,11.96,1.26,23.95,1.76,35.93.5,12.07,1.34,24.14,4.69,35.87,1.28,4.48,1.39,9.14,2.36,13.66.37,1.71-.35,2.57-2.3,2.28-7.06-1.04-13.46,1.98-20.12,3.33-1.01.2-2.32.68-2.09,2.19.21,1.44,1.51,1.18,2.48,1.33,1.8.28,3.66.32,5.42.76,3.76.93,7.09.56,10.3-1.83,1.88-1.41,4.29-1.04,6.54-.53-2.24.15-4.36.65-6.38,1.57-.48.22-1.02.52-1.02,1.07,0,.69.7.63,1.18.71,5.52.95,11,1.38,16.51-.23,2.56-.75,3.96-2.16,4.58-4.66,1.58-6.41,3.34-12.77,4.87-19.19.71-2.95,2.68-5.75.84-9.07,1.67.04,1.39.94,1.46,1.5.68,5.46,2.78,10.53,5.53,15.13,5.65,9.48,13.63,16.39,24.92,18.62,12.73,2.51,25.64,3.45,38.59,4.03,23.38,1.05,46.63,3.6,69.87,6.2,21.53,2.41,43.13,3.89,64.72,5.48,15.33,1.13,30.67,2.2,46,3.24,7.16.49,14.38,1.37,21.51.69,8.1-.77,16.5-.66,23.88-5.04,2.49-1.48,4.27-3.68,4.12-6.34-.23-4.07-.01-8.16-.78-12.24-.83-4.44-3.7-7.28-6.9-9.88-3.15-2.55-6.54-4.82-9.92-7.07-7.78-5.15-15.14-10.97-23.51-15.21-4.86-2.46-9.87-4.65-14.88-6.83-1.49-.65-2.55-1.39-3.46-2.83-6.17-9.73-14.18-17.65-23.98-23.95-13.63-8.76-28.65-14.23-43.95-19.23-5.09-1.67-10.39-2.74-15.31-4.93-.77-.34-1.97-.36-1.71-1.52.33-1.45,1.6-.62,2.4-.54,6.94.69,13.46,3.03,20.09,4.97,8,2.35,15.69,5.58,23.2,9.04,8.18,3.77,15.6,8.96,22.7,14.51.92.72,1.73,1.66,3.39,2.02ZM1233.26,1106.11c1.06.66,1.11,1.57,1.42,2.32,4.03,9.94,4.42,20.39,4.23,30.86-.15,8.24-1.49,16.3-3.67,24.32-1.83,6.7-2.33,13.64,1.43,20.24,1.21,2.12,1.67,2.11,3.21.38,1.23-1.38,2.39-3.16,4.6-3.38-.93,1.49-2.11,2.71-3.22,3.99-3.42,3.94-6.17,8.07-6.52,13.6-.34,5.49,1.92,10.22,3.59,15.13.59,1.74,2.35,1.5,3.63.39,1.99-1.72,4.54-2.32,6.88-3.49-4.85,3.05-7.97,7.64-11.33,11.96-1.56,2-3.1,4.07-4.03,6.52-.29.76.35,1.56-.29,2.14-2.56,2.29-3.7,5.44-4.74,8.45-4.5,12.99-7.88,26.23-7.87,40.1,0,2.63-.77,5.4,2.1,7.93-1.91-.18-2.84-.63-2.73-1.85.14-1.49-.26-2.89-.36-4.33-.66-9.54,0-18.9,2.36-28.25,1.6-6.31,3.35-12.51,5.76-18.56.99-2.49,2.94-4.48,3.17-7.39.36-4.6.26-9.21.41-13.8.44-13.18.31-26.38.46-39.58.05-4.03.32-8.07,1.4-11.97,3.76-13.55,4.66-27.31,3.27-41.26-.48-4.86-2.1-9.48-3.15-14.45ZM1273.94,1210.55c.28-.37.36-.59.48-.62.5-.09,1.01-.14,1.52-.16,4.13-.17,7.98,1.16,11.93,2.1,11.13,2.65,20.91,7.7,29.5,15.16,4.36,3.79,8.47,7.91,13.65,10.71,1.99,1.07,3.87,2.53,5.73-.23.38-.56,1.3-.83,2.03-1.08,4.16-1.45,8.34-2.86,12.51-4.27.51-.17,1.04-.76,1.63.13-2.06,2.56-5.07,3.36-8.06,4.19-2.58.72-5.21,1.32-6.97,3.66-.73.97-.58,1.32.42,1.92,6.36,3.8,13.09,6.64,20.37,8.23,2.01.44,4.13.87,5.86,2.19-.14.22-.17.34-.22.34-.25.04-.51.11-.76.07-10.82-1.34-21.09-4.25-30.15-10.51-2.63-1.82-5.1-3.86-7.7-5.73-3.78-2.74-8.1-4.74-11.61-7.85-4.77-4.22-10.16-7.46-15.98-10.01-6.27-2.75-12.89-4.49-19.46-6.36-1.6-.46-3.11-1.23-4.72-1.88ZM1319.84,1174.72c2.83.23,5.42,1.14,8.16,1.57,7.45,1.16,13.9-.79,19.71-5.26,1.98-1.52,2.88-3.55,2.82-6.05-.1-3.66-.93-7.17-2.66-10.38-3.35-6.2-6.91-12.28-10.35-18.43-3.63-6.5-1.68-13.14-.72-19.75.89,1.53.79,3.15.68,4.75-.37,5.48.52,10.78,2.96,15.69,1.67,3.35,3.87,6.45,5.85,9.65,3,4.84,4.66,10.28,7.05,15.39.43.93.85,1.83,1.73,2.51,1.87,1.45,1.7,2.69-.54,3.7-1.02.46-1.73,1.03-2.16,2.05-.51,1.23-1.55,2.04-2.57,2.84-6.25,4.92-13.55,6.41-21.27,5.74-3.18-.28-6.25-1.71-8.69-4.03ZM1361.34,1229.04c-.79-.88-.51-1.7-.4-2.4.7-4.28-1.07-7.74-3.76-10.8-2.16-2.45-4.58-4.69-6.94-6.96-2.21-2.13-3.85-4.39-4.39-7.6-.67-4.02-1.49-8.1-3.8-11.66-1.12-1.73-2.27-3.44-3.33-5.2-.33-.54-.84-1.32-.1-1.85.63-.46,1.46-.61,2.16.05.69.65,1.41,1.28,2.03,2,3.41,3.99,6.1,8.39,6.95,13.6.89,5.5,3.46,10.02,7.74,13.51,2.72,2.21,4.63,4.88,5.79,8.06.47,1.29,1.57,3.57.79,3.98-2.32,1.21-1.45,3.62-2.74,5.29ZM1368.87,1253.13l.25-.9c29.9,2.75,58,11.45,84.38,25.78-1.34-.26-2.6-.74-3.88-1.18-9.7-3.33-18.84-8.01-28.42-11.57-12-4.46-24.67-6.5-37.13-9.22-5.03-1.1-10.12-1.94-15.19-2.91ZM1287.58,1166.7c-11.8,5.1-34.01-6.08-36.07-18.61,10.4,10.21,20.16,20.39,36.07,18.61ZM1277.67,1148.57c.53-.07-.6-1.87.82-1.65,1.24.2,1.9,1.14,2.23,2.26.4,1.37-.29,2.03-1.63,2.32-1.59.35-3.23.76-3.64-1.44-.14-.74-1.01-1.61-.14-2.33,1.19-.98.98,1.12,2.36.84ZM1324.49,1207.89c-.91-.25-3.12.9-2.99-.99.08-1.27,2.51-1.24,4-1.47.23-.04.5.1.75.17,1.06.3,2.74.46,2.55,1.66-.23,1.49-1.91.86-3.04.86-.34,0-.68-.12-1.27-.23ZM1268.95,1210.07c-.67-.05-1.01-.07-1.35-.1-.71-.06-2.01.31-1.88-.61.17-1.2,1.17-.2,1.84-.09.41.07.88-.07,1.26.06.99.34,2.91-1.13,2.85.46-.06,1.43-1.96.2-2.71.28Z"/>
  <g>
    <g>
      <path class="cls-1" d="M2354.6,403.14c6.69.71,12.98,1.02,14.7-7.93.66-3.42,34.25-14.76,36.9-12.76,1.8,1.36.55,6.9,4.85,4.35,1.79-1.07,2.19-4.81,2.8-7.43.41-1.74-.3-3.65-2.4-3.89-9.67-1.09-18.8-4.91-29.16-2.16-18.77,4.99-27.92.65-36.18-16.12-4.62-9.36-12.2-14.7-21.12-18.85-2.81-1.31-5.81-2.24-8.57-3.65-11.77-6.03-13.23-11.93-4.39-21.73,10.09-11.18,19.37-22.27,19.69-38.57.34-16.96,3.59-33.57,7.45-50.12,9.89-42.44,31.37-76.81,67.75-101.61,18.66-12.72,38.16-8.75,57.89-4.65.86.18,1.92,1.08,2.26,1.9,3.02,7.25,3.77,5.32,11.5,8.45,15.56,6.31,34.38,4.28,47.02,17.83,9.88,10.59,16.82,22.78,21.54,36.68,9.14,26.95,14.12,54.79,19.17,82.62,4.72,26.04,13.64,50.6,24.3,74.65,7.01,15.83,6.2,17.09-10.48,18.72-17.8,1.74-36.14,1.37-52.31,10.68-4.17,2.4-13.4-3.43-12.2,8.54,1.51,15.06,6.41,25.23,16.53,28.35,11.63,3.58,23.67,5.58,35.66,6.37,40.39,2.65,66.59,24.06,81.77,60.31,11.33,27.06,48.87,175.48,59.57,202.8,4.39,11.22-27.23-101.13-39.91-100.04-9.07.78-12.16,5.81-15.3,12.43-5.91,12.47-12.17,24.79-17.92,37.34-5.8,12.63-18.89,21.38-19.51,36.83-.05,1.21-2.31,2.4-3.64,3.48-4.28,3.47-8.79,6.69-12.85,10.39-4.52,4.12-8.41,11.81-13.03,12.17-4.68.36-9.6-6.92-14.99-9.76-5.04-2.66-6.91-5.74-6.14-11.37.58-4.29-.1-8.76-.22-13.18,2.27-.76,3.88.88,5.7,1.71,11.5,5.26,11.75,5.32,14.26-7.71.75-3.89,1.92-5.49,5.82-5.21,1.69.12,3.43-.36,5.15-.51,19.68-1.66,34.78-8.37,39.11-30.57,2.1-10.75,9.33-19.92,14.84-29.49,3.64-6.33,5.44-10.53-5.13-10.12-13.14.51-26.11-2.19-39.03-4.4-14.02-2.4-27.96-3.7-41.78,1.06l.49-.03c-1.63-.25-3.46-1.12-4.85-.66-13.23,4.36-23,2.99-22.91-13.83,24.06-.94,48.14-6.38,71.19-16.93,8.27-3.79,15.38,2.96,21.76,6.76,3.57,2.12-1.99,6.15-4.19,8.94-2.64,3.35-9.35,5.37-7.55,9.8,1.66,4.08,8.02,1.76,12.29,2.1,11.37.9,22.77,1.73,34.15.35,12.14-1.47,13.8-3.92,10.22-15.46-6.9-22.23-20.07-41.61-28.86-63.01-5.36-13.07-11.63-25.83-18.23-38.33-7.11-13.47-18.1-22.24-33.54-25.16-22.06-4.17-44.38-7.18-65.83-14.22-2.39-.79-4.42-.52-6.79.92-7.95,4.83-16.12,9.32-24.31,13.75-3.75,2.03-6.55,4.55-8.49,8.52-3.09,6.32-4.01,14.47-15.79,11.05-6.02-1.75-10.25,7.8-11.52,12.92-3.28,13.32-8.51,6.83-14.67,3.1,6.02-5.99,14.07-8.32,18.89-14.77.41-.55,1.25-.91,1.42-1.49,5.7-20.32,25.04-22.78,40.29-30.08,8.2-3.92,10.04-7.92,6.06-15.72-3.57-7.02-4.2-14.56-2.09-22.22,1.37-4.94.7-7.34-5.38-5.84-3.22.8-6.82.21-10.24,0q-17.19-1.06-17.96-19.04c-.53-12.05-1.62-23.94-5.32-35.62-1.62-5.12-3.95-5.95-8.15-4.81-14.68,3.96-29.34,7.96-43.98,12.08-5.96,1.68-8.34,5.59-6.72,11.82,1.65,6.35,3,12.78,4.6,19.15,3.07,12.15,2.89,23.95-3.48,35.14-2.96,5.21-4.01,10.74.41,15.33,4.47,4.64,2.95,8.86.25,13.04-5.64,8.73-11.16,17.43-12.57,28.05-.52,3.91-2.96,5.55-6.49,3.7-3.94-2.06-11.53,2.9-11.89-5.94-.57-13.94-6.26-27.84-.32-41.86.87-2.05.64-4.14-1.81-5.2-2.09-.9-3.35-.51-5.18,1.39-3.24,3.36-12.72,3.47-2.82,11.41,2.38,1.91,1.38,12.3,2.23,18.75.82,6.15,2.31,12.21,3.47,18.17-10.25,4.99-14.11-.25-16.44-9.73-1.88-7.64-5.24-14.91-7.9-22.36-1.13-3.17-3.4-6.24-1.07-9.79,0,0-.36.07-.36.07ZM2393.49,215.91c-4.14,4.3-9.26,4.84-14.19,5.13-4.67.28-10.18-4.12-12.77,3.85-2.41,7.42,3.09,8.46,7.54,10.98,5.04,2.86,7.1,7.46,5.22,13.23-1.6,4.91-4.84,9.69-10.09,8.77-13.26-2.33-12.58,4.87-10.47,13.6,1.21,5.02,1.75,10.49,4.21,14.85,5.46,9.68,8.83,21.5,19.1,27.23,10.4,5.81,22.22,7.45,34.15,4.62,14.43-3.43,28.75-7.36,43.22-10.56,9.02-2,12.68-7.51,12.74-16.17.14-19.76,2.87-39.07,8.93-57.98,1.85-5.77,2.3-12.23,2.19-18.36-.48-28.83-17.8-50.02-33.74-71.58-5.35-7.24-15.96-5.45-20.98,2.43-.92,1.45-1.55,3.09-2.24,4.67-7.62,17.46-19.25,30-39.15,33.14-3.51.55-8.34.94-9.68,7.01,8.28,0,16.95-2.86,23.56,6.09-7.76.61-14.36-1.77-21.18-.66-9.07,1.47-9.05,7.8-9.8,14.48-.98,8.67,6.24,5.95,9.83,6.6,4.31.78,9.05-.81,13.6-1.38ZM2484.1,243.5c-4.29,15.18-7.76,30.25-7.53,45.82.04,2.5-2.88,6.94,2.25,7.34,3.79.3,5.58-2.79,6.61-6.63,4.17-15.67.29-31.04-1.33-46.53ZM2389.46,178.18c18.17-.68,24.74-12.67,34.1-31.76-11.31,1.67-25.89,15.25-34.1,31.76ZM2398.56,403.56c-5.53,10.05-8,20.83-8.97,31.99-.18,2.07.55,4.31,2.87,4.97,2.48.71,4.36-1.19,4.54-3.09,1.1-11.22,4.56-22.36,1.56-33.87ZM2577.34,556.75c7.93-.2,15.96.41,24.09-4.86-11.17-1.21-18.03.07-24.09,4.86Z"/>
      <path class="cls-1" d="M2134.85,918.82l-12.46,48.85,120.42,150.66c4.92-9.38-17.02-139.1-21.02-150.64-5.6-16.15-16-28.82-26.38-41.7-6.44-8-11.15-16.78-10.17-27.37,3.46-37.17,11.03-73.55,21.49-109.37,5-17.12,8.85-34.74,14.27-51.53,7.56-23.44,23.8-43.05,42.76-58.8,16.31-13.55,35.44-21.72,57.6-12.7,3.72,1.51,7.8,2.13,11.71,3.16-6.88,2.75-13.82.43-20.21-1.1-13.14-3.15-24.67-.23-35.52,6.6-21.51,13.54-36.13,33.61-50.22,54.1,1.53,15.99-7.31,29.54-10.58,44.41-3.64,16.53-5.86,33.04-4.75,49.95-2.69-2.35-1.84-7.47-6.41-8.51-4.25,12.41-12.36,61.74-11.49,69.8,4.36.35,6.85-2.97,9.71-5.23,16.79-13.24,16.22-13.1,10.03-30.09-2.8-7.68-6.22-16.1-1.66-24.64,1.24,4.61,2.48,9.21,3.71,13.82,1,.14,2.01.28,3.01.42-6.23-29.85,5.11-56.11,14.3-82.82,1.4,14.29-4.66,27.25-7.96,40.57-3.48,14.02-2.5,28.09-3.55,42.13-.1,1.29.19,3.57.86,3.8,8.95,3.15,8.49,11.21,9.21,19.22,5.42-2.61,5.07-6.46,5.41-10.6,1.27-15.48-1.16-31.09,1.75-46.48,1.16-6.13,2.3-12.35,7.19-16.83,4.57-4.18,8.87-6.04,10.89,2.34,4.52,18.77,8.88,37.59,13.72,56.28,1.41,5.43-1.2,5.87-5.12,5.92-3.71-7.92-6.67-1.17-8.98.86-12.13,10.68-24.34,21.31-35.77,32.71-8.27,8.25-17.74,15.81-21.96,27.56,22.19-20.67,44.42-41.11,66.72-61.5,2.68,5.07-2.28,6.58-4.57,8.85-17.91,17.74-36.99,34.39-51.53,55.27-2.11,3.02-5.24,5.72-4.42,10.09,1.1,5.87,2.56,12.92,8.01,14.75,4.44,1.49,8.64-4.11,12.32-7.77,22.86-22.67,35.58-51.77,50.78-79.32,2.63-4.77-3.69-8.03-.89-12.83,8.24,3.06,2.08,10.9,5.05,16.36,5.22-4.02,3.9-8.84,3.62-13.41-1.22-19.61-7.34-38.46-8.32-58.19-.98-19.66,9.07-34.59,19.68-48.82,7.14-9.58,18.61-7.59,28.58-2.97,17.89,8.28,36.21,15.28,55.29,20.24,14.68,3.82,29.09,8.45,43.26,13.88,1.89.72,4.1,1.28,6.06,1.04,15.07-1.87,29.73-5.18,42.78-13.52l-.42.07c5.53,10.83,1.37,17.3-8.79,22.56-8.9,4.6-17.7,9.33-27.06,12.92-7.73,2.97-14.93-.41-22.02-2.61-5.76-1.79-1.55-5.23.22-6.8,8.01-7.1,5.54-10.48-3.5-13.42-24.93-8.12-49.69-16.77-74.54-25.13-5.52-1.86-10.32-5.65-14.79-6.07-14.67,38.37-10.63,81.1-28.46,117.54-17.88,36.55-40.23,71.01-63.9,105.05,5.45,1.13,6.86-3,9.22-5.5,14.65-15.53,23.23-35.07,34.73-52.69,6.38-9.78,12.24-19.92,18.8-29.57,12.53-18.42,17.44-40.46,28.85-59.44,4.66-7.75,10.52-14.28,16.59-20.99-2.09,15.55-10.92,28.73-17.11,45.71,10.43-5.74,12.07-14.64,17.2-20.71,10.58-12.52,23.46-22.33,35.18-33.48,1.25-1.19,2.7-2.17,3.91-3.39q13.94-14.25,33.99-6.44c-12.69,12.78-24.58,25.92-37.66,37.74-42.07,38.04-82.96,77.06-113.79,125.29-4.28,6.69-8.28,13.71-13.5,19.62-10.79,12.21,10.4,147.33,9.53,163.45-.39,7.14-2.55,12.09-10.61,5.68l-131.34-155.28c22.84-40.51,25.07-80.66,34.03-125.1,9.3-46.13,21.57-91.3,36.32-135.88,3.55-10.75,4.71-22.28,10.53-32.28-.07,19.53-4.94,38.5-11.53,56.3-18.32,49.48-26.38,101.39-38.41,152.33M2285.48,808.18c6.62-6.64,14.64-22.87,17.79-34.96,2.61-10,5.68-19.9,2.13-30.35-.63-1.85.25-4.52-2.14-5.34-2.28-.79-3.8,1.12-5.1,2.72-13.01,16.05-24.62,40.51-12.67,67.93ZM2247.69,793.38c-.92,1.42-1.39,1.96-1.65,2.59-6.02,14.42-5.03,29.67-5.16,44.77-.02,1.99,1.3,2.83,3.43,2.83,5.87,0,17.57-11.11,17.32-17.09-.46-11.1-4.43-21.53-7.05-32.18-1.35-5.46-4.87-3.12-6.89-.93Z"/>
      <path class="cls-1" d="M2332.81,668.49c-8.58-10.82-20.66-12.98-33.01-11.25-16.62,2.33-31.45,9.58-44.09,20.9-6.7,6-12.84,12.37-16.84,20.66-3.42,7.08-7.46,6.14-12.18.64-7.34-8.55-13.2-18.55-23.33-24.49-4.38-2.57-8.05-3.17-10.65,2.19,2.73-8.75-1.72-11.79-9.49-14.75-44.24-16.85-75.37-63.43-75.53-110.79-.06-15.83,1.02-31.77-2.41-48.13,43.86,16.28,78.04,43.61,104.17,82.46,4.57-5.7,6.5-11.56,6.96-18.04,1.86-26.48,3.5-52.99,11.14-78.66,1.21-4.07,2.11-9-.22-12.14-7.34-9.87-1.99-18.67,3.44-25.23,12.51-15.12,24.17-30.98,38.59-44.59,19.25-18.16,42.79-16.42,66.19-16.54,8.43-.04,17.61,5.79,24.95-3.36,1.26-1.57,3.18-.19,4.44,1.07,1.86,1.85.83,3.08-.27,5.17-2.36,4.48-8.72,4.35-10.08,9.54,0,0,.36-.07.37-.07-16.39-15.84-35.18-8.45-53.35-5.19-27.45,4.92-42.08,26-57.12,46.39-1.84,2.49-3.34,5.28-5.41,7.55-14.04,15.45-12.03,30.8,5.5,40.61-1.32,2.94-4.48,2.98-6.01,1.83-8.77-6.6-8.94-.93-9.22,5.84-1.07,25.93-5.59,51.46-9.72,77-1.58,9.78,1.69,15.01,11.03,17.6,14.61,4.05,27.29,12.07,40.32,19.59,11.23,6.48,22.62,12.51,33.1,20.28,5.46,4.05,9.78,8.72,13.19,14.31,1.93,3.16,2.92,8.54,7.27,6.91,3.7-1.39,8.23-4.38,8.28-9.93.07-7.91.79-15.88.15-23.73-1.44-17.44-1.99-14.06,16.85-26.32-11.68,18.06-7.06,37.64-13.33,54.95-.21.58-.46,1.29-.33,1.84q2.57,10.31-3.36,15.89ZM2217.92,636.24c-7.01-4.99-12.38-10.29-18.84-13.03-7.93-3.36-11.12-8.88-11.66-16.57-1.3-18.7-14.68-32.55-19.72-49.72-.52-1.78-1.75-3.31-3.74-2.62-2.67.93-2,3.58-1.38,5.27,2.02,5.5,4.41,10.86,6.76,16.23,2.49,5.69,5.01,11.38,7.68,16.99,2.55,5.35,4.01,10.87,4.61,18.82-20.43-23.79-41.59-44.29-52.66-72.22-1.01-2.55-2.49-4.92-3.86-7.32-1.3-2.28-3.28-4.02-5.89-2.59-2.36,1.29-1.22,3.57-.33,5.45,2.65,5.61,5.43,11.17,7.97,16.83,6.63,14.77,18.38,26.2,27.22,40.64-8.31.63-13.76-5.13-20.61-5.45-1.68-.08-3.61-.5-4.47,1.54-.87,2.07.79,3.23,2.12,4.15,1.68,1.16,3.55,2.2,5.49,2.81,19.6,6.09,37.37,15.3,52.24,29.73,2.17,2.1,5.23,3.29,7.88,4.89,10.16,6.09,19.65,13.05,28.17,21.56-16.81-3.73-34.44-4.13-49.17-14.43-1.39-.97-2.94-2.41-4.45-.78-1.4,1.5-.55,3.35.78,4.56,2.04,1.85,4.1,3.78,6.46,5.15,8.53,4.95,18.35,5.57,27.67,7.85,15.45,3.78,31.68,3.58,48.58,11.73-4.23-7.64-8.86-10.33-13.39-12.43-12.99-6.01-18.69-14.91-15.75-29.7,1.51-7.59.86-15.94-5.51-22.14-1.35-1.31-2.91-3.49-5.17-1.53-1.61,1.39-.61,3.19.08,4.74,4.16,9.5,4.18,19.4,2.9,31.59Z"/>
      <path class="cls-1" d="M2479.79,1110.19c3.86,10.55,9.63,19.49,16.84,27.56,1.15,1.29,2.53,2.7,4.39,1.69,1.96-1.07,1.75-2.93.42-4.34-17.2-18.11-47.94-163.86-58.44-185.27-4.38-8.94-8.68-17.92-13.6-28.1,23.88,10.04,39.78,26.36,48.28,50.2,2.33-24.86-24.53-47.95-84.39-73.75,9.75-2.54,17.49-5.65,26.7-3.74,8.8,1.82,14.43,10.24,23.92,10.74-4.1-10.73-19.5-19.06-32.36-17.65-3.76.41-7.92.47-11.1,2.18-11.93,6.4-22.85,3.38-34.26-1.65-16.08-7.08-33.52-9.81-50.64-13.91,1.43-4.91,5.24-4.57,8.55-4.52,31.38.4,62.77-1.17,94.04,4.2,28.51,4.89,64.9,41.35,65.77,71.7.17,5.88,1.04,11.85.32,17.61-4.17,33.15,37.38,181.53,53.46,208.88-9.81,2.37-18.33-2.77-27.35-3.9-21.59-2.7-43.24-4.95-64.32-11.02-34.05-9.8-89.48-165.2-92.22-200.37-.43-5.51-.9-11.04-.9-16.57-.03-27.23-12.76-45.09-38.76-53.6-2.39-.78-7.68.19-6.56-4.46.98-4.05,4.89-3.53,8.64-2.53,6.99,1.87,14.1,3.57,21.26,4.51,23.58,3.09,37.73,23.69,36.53,43.93-.65,10.89-1.38,22.16,3.65,32.64,1.26,2.63,2.82,6.01,5.57,5.03,3.33-1.19,1.41-4.69.56-7.26-4.21-12.65-1.49-26.12-4.73-38.96-2.58-10.23-4.67-20.38-14.34-27.32,15.32,6.54,30.79,12.76,45.88,19.79,6.48,3.02,6.96,9.3,5.93,16.1-3.52,23.16,17.48,167.35,21.66,191.08.24,1.35.08,2.77.26,4.14.28,2.09.73,4.57,3.44,4.22,2.96-.38,2.04-3.06,1.93-4.99-.72-13.06-29.02-147.23-26.9-160.36,2.01-12.46,3.42-25.01,5.51-40.59,14.15,28.79,59.61,174.41,47,206.6-2.62,6.68-2.01,13.63-1.15,20.5.26,2.06.1,5.43,3.86,4.83,3.09-.5,3.69-3.17,3.29-5.61-2.11-12.92,2.56-25.09,4.38-37.66Z"/>
      <path class="cls-1" d="M2393.28,678.79c9.05-6.33,19.63-3.8,29.37-6.09.58,1.79-2.99,3.43-1.01,5.17,2.13,1.87,3.69-.53,5.09-1.83,9.51-8.8,16.63-19.26,21.66-31.19,1.46-3.45,3.35-6.71,6.23-12.38-.62,16.19-1.14,29.85-1.68,43.89-8.67-6.8-15.18-.83-20.88,3.67-4.04,3.19-8.25,6.17-12.48,9-4.52,3.02-9.54,6.24-13.64-1.46-1.75-3.28-6.26-2.25-9.55-3.02-19.36-4.5-39.92-3.37-59.22-13.64,11.2,3.81,12.87-4.57,17.07-10.68,4.98-7.25,13.16-10.64,23.69-14.76-6.72,8-11.89,14-16.85,20.16-1.84,2.29-4.59,5.54-.87,7.72,2.77,1.63,4.14-1.5,5.66-4.14,12.08-20.98,31.66-34.05,50.86-47.5,2.26-1.58,4.3-3.47,6.42-5.24,2.42-2.02,4.8-2.46,7.41-.26,2.49,2.11,2.8,4.35,1.45,7.33-4.28,9.41-8.25,18.97-12.55,28.37-3.7,8.09-9.46,14.27-17.49,18.44-3.4,1.77-7.44,3.26-8.67,8.43ZM2384.54,664.96c8.5-2.89,15.79-7.23,20.81-14.79-8.26,3.07-15.88,7.06-20.81,14.79Z"/>
      <path class="cls-1" d="M2338,544.18c-15.89,2.62-28.39,12.39-42.13,19.61-13.41,7.04-25.33,18.14-42.41,16.64,2.04-14.75,11.4-22.72,23.05-28.97,14.66-7.86,30.32-13.07,46.09-18.07,9.97-3.16,11.45,8.13,18.29,10.46,3.46,1.17,1.41,4.7.06,6.02-4.26,4.17-3.21,13.83-13.18,12.38-3.16-.46-6.8-.27-6.5,6.09.57,12.11-6.56,20.05-17.19,25.63-5.85,3.07-14.34,2.44-16.69,11.66-.48,1.9-6.12-2-9.57-2.68-2.86-.56-4.38-7.41-2.16-10.93,5.41-8.56,10.7-16.83,20.35-22.44,14.07-8.17,28.71-15.47,41.96-25.39ZM2274.31,563.83c.57,1,1.15,2,1.72,3.01,9.83-5.77,19.66-11.54,29.49-17.31-.55-.95-1.11-1.89-1.66-2.84-11.05,3.6-21.3,8.6-29.55,17.14Z"/>
      <path class="cls-1" d="M2604.62,715.93c19.74,1.85,38.88,3.49,57.97,5.47,13.79,1.43,61.64,140.33,63.77,153.39,1.08,6.61-5.79,9.78-10.86,8.82-25.7-4.87-77.89-131.86-103.5-137.25-3.19-.67-3.24-2.7-3.58-5.22-1.08-8.16-2.44-16.27-3.81-25.21ZM2671.89,740.74c.1-1.26.21-2.52.31-3.77-15.61-1.92-31.21-3.84-46.82-5.76,14.53,10.09,31.13,5.56,46.51,9.53Z"/>
      <path class="cls-1" d="M2639.89,793.19c19.82,9.96,19.13,30.53,25.18,47.57,1.07,3.01-1.05,4.09-3.36,5.37-10.31,5.73-16.37,5.36-24.33-3.34-12.55-13.72-24.54-27.95-36.87-41.88-5.12-5.79-.91-11.05.83-16.28,4.4-13.17,4.5-13.04,16.87-6.65,7.99,4.13,15.23,9.29,21.66,15.2ZM2622,796.95c-.87.82-1.73,1.63-2.6,2.45,7.82,10.05,14.95,20.81,28.37,25.18-8.59-9.21-17.18-18.42-25.77-27.63Z"/>
      <path class="cls-1" d="M2524.54,434.33c-.43,9.02-3.27,15.34-7.43,21.56-10.84,16.18-18.31,34.04-23.03,52.86-1.55,6.16-3.75,8.05-9.72,6.63-5.2-1.24-10.21.75-15.8,2.59-.03-5.79-.11-10.89-.05-15.99.02-1.95-.47-4.46,2.7-4.5,1.9-.03,4.55-.82,4.7,2.33.23,4.74,2.29,1.99,3.33.74.99-1.19,3.33-2.14.42-4.67-16.76-14.54-18.87-27.22-8.11-43.85,1.97-3.04,4.24-5.15,7.46-2.96,19.06,12.94,30.21-1.92,42.75-11.93.78-.62,1.42-1.42,2.79-2.81Z"/>
      <path class="cls-1" d="M2608.8,749.96c24.31,7.22,76,133.07,101.07,137.48,2.84.5,5.65.82,5.67,4.59.02,4.32,3.59,11.45-.28,12.44-11.75,3-35.17-108.53-37.39-101.42-1.37,4.41-2,8.59-8.07,8.92-4.26.23-6.77-.94-9.47-4.45-11.22-14.6-23.66-28.44-41.37-34.88-12.11-4.4-14.34-11.34-10.18-22.68ZM2643.87,776.33c7.81,7.04,17.31,9.61,27.56,10.25-8.28-5.79-17.76-8.45-27.56-10.25Z"/>
      <path class="cls-1" d="M2346.46,622.39c-.23-11.7,5.82-21.33,10.51-30.91,3.06-6.25,11.27-5.09,17.9-3.85-3.16-8.03,6.52-18.26,16.09-16.96,4.42.6,8.9,1.34,13.13,2.7,4.46,1.44,11.35-1.28,13.13,3.16,2.18,5.45,1.14,12.2,1.47,18.39.18,3.51-2.65,4.58-5.01,5.91-10.28,5.8-21.09,10.13-32.87,11.81-6.13.88-12.37,1.45-18.29,3.1-5.43,1.51-10.51,4.29-16.06,6.64ZM2372.3,601.26c16.97,3.7,34.28-1.92,39.4-13.48-13.42,6.8-26.68,9.08-39.4,13.48Z"/>
      <path class="cls-1" d="M2600.6,710.49c12.99-5.93,21.85-14.07,31.48-21.14,15.48-11.36,67.65,113.49,80.33,128.47,1.4,1.65,2.4,3.06,1.76,5.48-2.12,8.03-39.93-105.39-48.16-106.24-20.88-2.16-41.77-4.2-65.41-6.56Z"/>
      <path class="cls-1" d="M2520.1,531.57c1.48-9.74,7.09-17.57,11.77-25.41,5.65-9.45,12.99-17.88,19.45-26.85,1.86-2.58,7.02-5.61,3.73-8.31-3.97-3.25-6.09,2.75-8.28,5.19-11.62,12.96-20.63,27.61-27.15,43.79-.93,2.31-.74,5.75-4.89,6.36-3.64-5.43-.07-10.66,1.27-15.5,4.66-16.86,13.72-31.82,23.59-45.88,8.19-11.67,21.67-16.61,35.43-19.66,2.26-.5,5.47-1.39,6.43,1.39.66,1.91-.15,4.89-1.31,6.76-9.01,14.5-14.92,31.16-29.63,41.7-11.86,8.5-18.21,21.45-25.77,33.37-.87,1.37-1.2,3.29-4.63,3.03Z"/>
      <path class="cls-1" d="M2420.29,541.97c6.24,2.09,6.39,6.55,2.43,12.15-3.39,4.8-.53,13.67-6.92,15.4-5.06,1.37-11.28-2.32-17.04-2.65-20.25-1.13-29.63-14.53-36.92-31.06-3.22-7.29-.39-8.95,6.19-9.68,26.17-2.88,22.23-5.37,52.26,15.84ZM2387.2,538.59c6.1,10.55,17.85,15.69,27.9,13.56-10.04-4.88-18.97-9.22-27.9-13.56Z"/>
      <path class="cls-1" d="M2531.64,547.02c12.53-9.18,25.03-18.59,37.81-27.6,9.29-6.55,19.06-12.37,29.79-16.41,7.48-2.81,16.59-4.37,21.7.7,4.69,4.65-2.63,11.65-4.45,17.64-1.45,4.75-4.76,8.72-9.63,10.25-22.95,7.19-45.4,16.44-69.84,17.82-1.73.1-3.44.51-5.38-2.4ZM2582.21,530.18c3.54-5.97,11.74-6.73,12.69-14.64-6.85,1.88-10.76,7.13-16.22,9.9-2.82,1.43-1.83,4.31-.49,6.31,3.43,5.1,7.2.76,10.82.04.27-.05.38-.95.48-1.2-2.11-2.33-4.38.1-7.27-.4Z"/>
      <path class="cls-1" d="M2534.96,901.84c3.58,13.65,5.01,27.65,6.93,41.58,3.4,24.71,32.04,170.72,34.45,195.54.17,1.75.5,3.49.83,5.22.22,1.15,1.16,2.68-1.06,2.56-1.25-.07-3.19.89-3.22-2.07-.36-33.21-34.46-186.79-37.62-219.69-.74-7.69-1.96-15.41-.17-23.14,0,0-.14,0-.14,0Z"/>
      <path class="cls-1" d="M2414.2,497.4c3.04,12.78,9.5,22.32,17.47,30.66,3.66,3.82,2.99,5.76.23,9.32-3.31,4.25-5.48,2.2-8.32-.23-3.13-2.69-6.64-4.95-9.82-7.6-4.37-3.63-13.09-3.7-13.4-9.85-.58-11.26-.28-23.58,5.27-33.29,4.23-7.4,13.53-1.81,19.19.95,14.15,6.88,17.55,22.32,24.13,34.95,2.23,4.28-4.28,4.02-6.44,6.22-2.58,2.63-4.54,1.34-6.65-1.31-5.84-7.31-10.6-15.27-15.03-23.46-1.25-2.31-1.49-5.36-6.62-6.35Z"/>
      <path class="cls-1" d="M2471.11,755.75c-9.36-2.66-17.88,2.05-25.65,5.1-12.41,4.87-21.93,1.68-31.44-5.24-4.71-3.42-8.98-7.44-13.42-11.17,15.86-14.99,34.05-17.3,54.05-8.58,2.2.96,4.48,1.98,6.81,2.35,11.13,1.74,14.07,7.59,9.22,17.61,0,0,.42-.07.42-.07Z"/>
      <path class="cls-1" d="M2474.76,774.6c2.91,4.35,3.32,7.39,1.13,11.41-9.18,16.84-20.69,31.9-34.05,45.52-7.96,8.13-19.73,8.68-29.31,2.83-2.98-1.82-2.74-3.62-1.56-5.9,7.44-14.35,14.26-29.08,31.22-35.24,11.66-4.23,22.57-10.15,32.57-18.62ZM2426.53,824.75c7.9.99,28.85-19.28,31.96-31.6-11.86,10.41-22.38,20.34-31.96,31.6Z"/>
      <path class="cls-1" d="M2582.32,619.62c-7.34-5.52-15.47-9.88-24.18-13.21-5.46-2.08-10.9-4.22-16.29-6.48-3.44-1.44-5.45-3.28-4.19-7.9,1.32-4.83,3.84-4.47,7.61-3.96,20.11,2.75,40.19,5.66,59.85,10.75,10.12,2.62,7.41,12.73,8.88,19.4,1.39,6.32-5.76,3.4-9.29,4-3.72.64-7.72.23-11.23,1.39-5.01,1.66-8.73,1.4-11.16-3.99Z"/>
      <path class="cls-1" d="M2602.44,482.64c-1.72,8.04-4.8,14.55-11.54,18.16-20.44,10.93-38.86,24.77-57.27,38.67-1.47,1.11-3.07,5.85-6.23,1.3-1.93-2.78-3.03-5.37-.61-8.43,10.23-12.96,19.39-26.71,31.05-38.61,12.73-12.99,28.35-11,44.6-11.09ZM2551.28,516.3c9.26-3.78,13.38-12.38,19.49-19.07-7.7,5.2-15.07,10.71-19.49,19.07Z"/>
      <path class="cls-1" d="M2596.14,686.63c8.06-6.6,18.9-13.54,26.84-23.73,1.21-1.56,2.99-1.53,4.73-1.37,9.72.92,19.23-.9,28.8-2.13,4.01-.51,10.32-1.55,11.21,2.06,1.27,5.15-2.85,10.23-6.7,14.28-.61.64-1.94.86-2.92.83-21.69-.71-36.08,13.26-51.63,25.16-1.85,1.42-4.72,8.89-8.14,1.68-2.16-4.56-11.78-7.86-2.19-16.78Z"/>
      <path class="cls-1" d="M2538.03,626.21c18.06,10.18,21.53,28.66,23.21,47.87.74,8.53-7.04,11.85-11.69,17-.36.4-2.22.25-2.5-.2-3.96-6.34-11.66-11.15-12.15-18.63-1.09-16.83-6.99-32.05-12.5-47.55-.99-2.79-5.03-6.39-.74-9.09,3.87-2.44,5.85,2.28,8.48,4.07,2.55,1.73,4.78,3.92,7.89,6.54ZM2545.38,659.99c.79-7.02-1.07-11.73-2.84-16.41-.67-1.78-2.37-2.68-4.12-2.18-2.41.69-1.56,2.81-.83,4.1,2.39,4.26,2.09,9.9,7.79,14.49Z"/>
      <path class="cls-1" d="M2523.31,696.28c-5.26,6.25-9.7-2.39-15.1-.74-4.11,1.26-1.34-2.98-1.68-4.64-4.18-20.82,3.62-41.94-1.55-62.75-.92-3.69,1.36-4.76,4.21-5.8,3.28-1.19,4.49.85,5.39,3.16,6.1,15.69,13.55,30.92,14.93,48.16.68,8.51-3.43,15.26-6.2,22.61Z"/>
      <path class="cls-1" d="M2564.56,568.96c10.01,3.47,20.36-.51,30.52,1.48,7.1,1.39,14.52,1.62,20.61,5.92,3.82,2.7,9.36,6.32,7.34,11.15-2.04,4.86-7.78,7.71-13.93,6.59-11.17-2.03-22.28-4.42-33.47-6.31-9.48-1.6-19.06-2.65-28.57-4.1-2.02-.31-5.35,1.68-5.78-2-.38-3.21,1.11-5.45,4.57-7.1,6.17-2.94,13.94-.1,19.21-5.66,0,0-.5.03-.5.03Z"/>
      <path class="cls-1" d="M2471.68,691.21c-3.11,4.94-5.13,3.76-8.23-.34-4.99-6.6-7.51-13.06-5.93-21.69,1.79-9.74,2.25-19.79,2.52-29.72.16-5.91,1.84-7.82,7.92-7.14,4.97.56,10.12-.55,15.19-.92.42,6.07,1.27,12.14,1.17,18.2-.24,15.06-4.2,29.1-12.64,41.6Z"/>
      <path class="cls-1" d="M2592.36,905.46c-1.61,1.59-2.38,3.65-4.54,2.36-.83-.5-2.02-1.42-2.02-2.15.05-14.75-8.32-27.15-11.43-41.06-2.61-11.67-6.94-23.07-11.7-34.08-3.08-7.13,2.22-7.22,5.62-9.4,5.7-3.64,5.23,1.94,6.38,4.48,7.33,16.29,16.71,31.62,22.13,48.82,3.63,11.52-.77,21.4-4.45,31.03Z"/>
      <path class="cls-1" d="M2516.92,901.04c-2.93,4.85-6.86,3.29-9.31-1.56-6.4-12.63-12.57-25.42-6.2-40.2,3.26-7.57,6.63-15.2,8.7-23.13,2.17-8.31,5.78-10,13.76-7.02,4.78,1.79,4.64,3.85,3.64,7.58-4.16,15.43-5.8,31.1-4.23,47.06.61,6.24-2.15,11.38-6.35,17.28ZM2517.05,885.65c-.31-13.21-.62-26.42-.94-39.63-1.05.05-2.09.09-3.14.14-1.75,13.3-.77,26.48,4.08,39.49Z"/>
      <path class="cls-1" d="M2549.48,828.13c-1.67,11.63.52,23.17,1.15,34.72.54,9.98-1.02,19.71-1.8,29.53-.46,5.8-1.06,11.66-9.62,7.37-.86-.43-2.84,1.38-4.3,2.16,0,0,.27,0,.27,0-.19-5.02-.23-9.82-2.7-14.68-4.9-9.63-2.91-20.22-2.65-30.53.36-13.84.28-27.85,19.65-28.55v-.02Z"/>
      <path class="cls-1" d="M2478.43,789.28c13.95,12.89,5.59,23.39-2.11,34.28-5.56,7.86-10.08,16.45-15.72,24.24-3.15,4.36-4.91,10.72-12.72,10.23-5.07-.32-12.59,2.05-14.35-2.16-1.93-4.62,1.96-11.02,6.1-15.19,10.9-10.97,22.82-20.95,30.56-34.78,3-5.36,6.59-10.39,8.24-16.62Z"/>
      <path class="cls-1" d="M2587.14,819.29c14.99,14.23,25.05,31.62,35.91,48.4,3.13,4.83.04,18.16-4.18,18.43-6.47.42-12.94-.37-15.28-8.85-5.09-18.45-14.71-34.9-23.68-51.62-1.54-2.88-6.37-5.97-1.84-9.66,4.46-3.63,6.41,1.85,9.06,3.3Z"/>
      <path class="cls-1" d="M2590.14,805.23c2.35-4.55,4.56-3.76,7.95.12,14.3,16.32,28.92,32.37,43.47,48.48,2.97,3.28,4.15,7.27,4.13,11.43-.02,3.71,2.78,9.56-3.07,10.33-4.49.59-9.69.07-12.9-5.9-9.3-17.3-19.28-34.27-33.41-48.29-1.96-1.94-3.75-4.06-5.77-5.95-5.26-4.93-5.29-4.89-.41-10.22Z"/>
      <path class="cls-1" d="M2446.5,874.38c7.62-11.91,16.55-20.65,22.73-31.38,5.67-9.85,12.06-19.3,18.28-28.83,1.46-2.24,2.09-7.55,6.15-4.5,3.18,2.38,8.19,5.92,5.87,10.95-7.48,16.27-14.29,33.08-25.75,47.06-6.27,7.66-15.97,6.91-27.28,6.7Z"/>
      <path class="cls-1" d="M2430.77,468.58c3.84-5.87,7.92-5.56,14.15-2.99,13.3,5.49,18.94,12.75,15.36,28.19-1.14,4.9,3.44,12.89,3.72,20.03.24,6.06-3.71,6.74-7.59,7.83-5.53,1.56-3.99-3.62-4.76-5.85-4.17-12.17-8.85-23.57-20.05-31.61-5.1-3.66-7.25-10.2-.82-15.6Z"/>
      <path class="cls-1" d="M2579.89,652.42c-16.07-2.02-21.11-17.27-31.9-25.63-5.19-4.02-10.06-8.47-15.42-12.24-4.27-3-3.22-5.36-1.08-9.27,2.85-5.22,4.87-2.14,7.99-.73,10.05,4.52,20.32,8.56,30.51,12.76,8.27,3.41,12.6,8.97,11.08,18.46-.91,5.69.46,11.65-1.19,16.66Z"/>
      <path class="cls-1" d="M2331.72,572.5c7.99-2.92,8.56-12.81,12.83-20.02,4.16-7.01,7.92-3.27,12.81-2.58,7.29,1.03,4.28,5.67,4,9.06-2.02,24.66-19.35,37.28-38.51,48.35-1.96,1.13-4.29,3.42-6.38.95-1.75-2.07-2.18-4.75-.77-7.71,4.43-9.28,8.53-18.72,16.03-28.05ZM2334.68,583.56c11.64-4.92,17.68-15.46,12.92-24.51-1.99,9.98-14.47,13.07-12.92,24.51Z"/>
      <path class="cls-1" d="M2413.73,720.13c-.85-1.02-1.75-2.06-2.62-3.13-2.57-3.16-6.7-6.47-4.43-10.65,1.81-3.32,6.38-.68,9.7-.87,21.36-1.2,39.73,8.63,58.5,16.53,6.88,2.9.01,8.17-.06,12.29-.08,4.71-3.62,2.19-5.92.92-14.21-7.84-29.59-10.99-45.66-11.24-3.71-.06-6.45-2.16-9.51-3.85Z"/>
      <path class="cls-1" d="M2244.38,552.84c13.59-22.97,66.92-40.55,79.95-27.04-16.57,6.69-34.57,9.93-49.32,19.93-9.35,6.34-19.04,5.89-30.64,7.11Z"/>
      <path class="cls-1" d="M2350.49,638.88c-8.09-5.45-5.62-9.33,1.27-12.76,7.52-3.75,15.65-5.15,23.85-6.02,13.84-1.47,26.96-4.78,38.51-13.06,2.12-1.52,4.91-5.02,7.8-.82,2.85,4.14-1.32,5.4-3.49,7.01-15.4,11.43-29.9,24.14-49.23,29.3-7.63,2.04-13.22-.07-18.71-3.65ZM2361.25,634.67c16.51,1.31,25.37-1.41,29.75-9.29-10.17,2.25-19.38,4.28-29.75,9.29Z"/>
      <path class="cls-1" d="M2538.79,441.97c2.27,9.17.28,16.13-5,22.89-12.66,16.16-21.52,34.29-24.18,55.29-4.85-1.31-8.38-4.1-14.21-3.63,13.43-26.7,17.86-56.82,43.4-74.55Z"/>
      <path class="cls-1" d="M2434.24,415.84c-6.05,4.98-9.63,9.74-12.31,15.17-1.31,2.67-3.5,3.83-5.85,2.6-3.71-1.94-.08-3.99.67-5.71,2.33-5.34,5-10.53,7.58-15.76,2.38-4.83,6.28-8.18,10.94-10.64,5.57-2.95,13.36-6.39,17.41-3.22,5.22,4.08-.37,11.32-1.94,17.06-2.73,9.99-8.88,17.58-17.46,23.24-1.54,1.01-2.77,4.31-4.7,2.51-1.62-1.5-3.52-3.71-2.2-7.21,2.1-5.58,7.52-9.75,7.85-18.03Z"/>
      <path class="cls-1" d="M2328.94,452.43c-7.28-8.95-16.29-19.8-25.02-30.88-5.2-6.6.06-12.55,2.27-18.31,1.53-3.99,3.65-.69,5.2.97,4.96,5.32,9.54,11.01,12.4,17.68,4.71,10.97,12.77,19.5,19.69,28.88,1.4,1.9,7.12,2.64,2.39,6.74-2.73,2.37-5.47,4.16-8.85.64-1.64-1.71-3.9-2.82-8.08-5.72Z"/>
      <path class="cls-1" d="M2549.47,828.15c7.13-1.52,9.89,1.73,11.65,8.57,3.24,12.62,7.79,24.9,11.59,37.39.97,3.19,2.74,6.6,1.05,9.98-2.59,5.18-2.05,14.85-8.75,14.06-4.09-.48-8.26-9.05-8.66-16.11-.72-12.69-1.87-25.35-2.88-38.02-.44-5.51-1.49-10.88-3.98-15.88,0,0-.01.02-.01.02Z"/>
      <path class="cls-1" d="M2324.54,489.91c-1.22,3.28-3.41,2.86-5.39,2.57-18.1-2.66-36.26-2.39-54.44-1-6.65.51-14.27-.49-14.3-7.78-.03-6.03,7.76-10.02,13.64-9.94,21.4.33,41.7,5.64,60.49,16.16ZM2261.52,482.52c5.1,3.49,10.06,4.75,15.59,3.15.44-.13.94-2.38.55-2.76-4.19-4.1-9.37-3-14.42-2.41-.25.03-.45.5-1.72,2.02Z"/>
      <path class="cls-1" d="M2499.42,703.31c-1.39-1.16-1.68-1.34-1.89-1.6-10.27-12.64-15.24-25.91-9.22-42.65,2.67-7.42,1.51-16.38,1.27-24.61-.15-5.31,2.97-6.89,6.75-7.26,5.43-.54,3.26,4.56,3.44,6.75,1.68,20.53-2.86,41.25,1.86,61.76.46,2-1.26,4.49-2.22,7.6Z"/>
      <path class="cls-1" d="M2343.24,439.9c-6.61-7.19-10.99-15.82-15.08-24.51-2.74-5.82,3.03-13.02,8.73-10.63,5.22,2.19,11.38,5.05,13.98,10.49,4.14,8.66,7.16,17.87,10.4,26.94.82,2.29,3.42,5.65-.21,7.19-3.1,1.32-7.18,3.8-10.34-.3-2.48-3.23-6.56-5.2-7.56-9.58,2.15,1.75,3.4,6.32,6.96,4.06,3.69-2.34.16-5.41-.91-7.95-1.72-4.06-4.38-7.5-8.31-10.7-1.54,5.71,1.87,10.15,2.34,14.99Z"/>
      <path class="cls-1" d="M2423.73,457.73c10.59-12.95,25.52-21.86,33.59-37.24,2.28-4.35,7.59-5.95,12.37-6,2.32-.02,1.42,3.45,1.42,5.32-.02,5.85-.35,11.95-4.81,16.21-1.59,1.52-4.06-1.31-6.11-2.47-3.28-1.86-7.73-.85-9.23,1.75-2.7,4.67,2.18,4.29,4.91,5.06,3.3.93,3.88,2.84,1.25,5.02-5.54,4.57-11.57,10.03-18.34,10.5-5.39.38-7.6,2.99-11.03,5.5-1.9,1.39-1.77,7.74-6.34,3.67-3.74-3.32.62-5.21,2.33-7.32Z"/>
      <path class="cls-1" d="M2243.33,528.75c-2.12-4.31,1.34-6.43,4.39-8.57,8.16-5.74,18.07-6.84,27.31-8.53,12.99-2.37,26.43-2.32,39.68-3.27,2.65-.19,5.06.43,4.97,3.69-.08,2.84-2.72,2.98-4.61,2.92-21.09-.65-40.77,4.24-59.41,14.11-4.42,2.34-10.45,1.56-12.34-.36Z"/>
      <path class="cls-1" d="M2480.19,897.25c-.92-12.65-2.75-24.13,5.08-35.12,7.63-10.7,12.86-22.78,16.03-35.65.61-2.46.47-6.06,4.97-4.26,3.65,1.46,3.11,3.81,1.9,6.67-4.18,9.83-8.34,19.67-12.32,29.59-2.31,5.76-4.11,11.71-3.08,18.06,1.59,9.79-2.2,16.42-12.58,20.71Z"/>
      <path class="cls-1" d="M2326.96,483.2c-1.41,1.73-3.21.54-4.47-.13-16.35-8.76-33.88-13.3-52.27-14.53-5.06-.34-4.79-4.08-5.7-7.13-.86-2.88-2.16-5.94,1.21-8.41,3.3-2.42,5.88-.24,8.51,1.15,15.82,8.33,33.31,13.14,48.41,22.98,2.21,1.44,5.47,2.06,4.32,6.07Z"/>
      <path class="cls-1" d="M2438.03,692.25c4.09-.74,8.14-.36,10.63-2.16,4.98-3.6,7.69-.81,10.05,2.54,3.25,4.6,5.7,7.89,12.94,7.07,5.78-.66,9.89,6.64,14.75,10.35,2.28,1.74-.02,3.57-1.29,5.11-1.78,2.15-4.04,5.19-6.67,2.58-9.2-9.13-21.75-10.96-32.83-15.95-3.66-1.65-5.32-5.22-7.59-9.54Z"/>
      <path class="cls-1" d="M2322.18,498.39c-3.64,5.29-7.48,3.57-10.63,3.64-16.24.33-32.26,2.4-48.21,5.26-1.02.18-2.03.74-3.01.68-4.76-.32-11.67-.24-12.1-5.21-.47-5.43,6.25-4.8,10.56-4.96,20.73-.79,41.5-2.94,63.4.6Z"/>
      <path class="cls-1" d="M2325.51,471.53c-16.61-7.72-31.3-14.5-45.93-21.41-2.91-1.37-7.54-2.22-5.54-6.99,1.64-3.91,5.66-3.36,9.05-2.48,17.53,4.54,32.13,13.19,42.42,30.87Z"/>
      <path class="cls-1" d="M2417.63,668.67c7.93-12.09,10.84-26.14,17.74-38.29,1.19-2.1.13-7.58,5.09-5.22,3.41,1.62,8.2,3.84,6.22,9.18-4.05,10.93-8.82,21.51-16.42,30.62-3.31,3.97-8.23,1.87-12.63,3.72Z"/>
      <path class="cls-1" d="M2313.65,794.89c.36-18.51,9.01-32.32,15.62-46.68,1.65-3.58,5.63.17,8.31.85,4.06,1.03,1.27,3.88.46,5.7-6.13,13.87-14.64,26.29-24.4,40.13Z"/>
      <path class="cls-1" d="M2333.54,471.6c-11.81-17.2-25.14-30.59-45.01-35.52-4.35-1.08-5.05-3.89-4.47-7.83.71-4.79,3.76-3.81,6.93-3.33,5.71.87,10.16,3.36,13.77,8.11,8.52,11.22,17.12,22.5,29.15,30.3,5.59,3.62.58,5.03-.37,8.27Z"/>
      <path class="cls-1" d="M2370.95,760.74c-6.08,9.12-14.41,13.05-23,17.28.95-5.3,2.54-10.26,2.56-15.22.03-6.98,1.92-9.54,8.86-6.27,3.36,1.58,7,2.57,11.58,4.21Z"/>
      <path class="cls-1" d="M2378.73,764.24c-4.69,7.98-11.04,14.26-18.26,19.96-6.82,5.38-12.99,11.59-19.94,17.89.7-10.86,3.93-18.48,15.1-21.54,9.34-2.56,15.32-10.85,23.11-16.31Z"/>
      <path class="cls-1" d="M2321.71,795.9c10.27-13.07,16.84-28.1,24.1-44.85,3.07,22.37-10.63,33.6-24.1,44.85Z"/>
      <path class="cls-1" d="M2419.63,453.47c-2.97,6.31-5.1,4.11-8.48,2.07-6.97-4.21-3.91-9.48-.98-12.91,4.25-4.97,8.23,4.18,13.16,1.84,2.01,4.92-3.17,6.88-3.7,9Z"/>
      <path class="cls-1" d="M2361.12,581.14c3.01-8.51,5.79-15.43,5.22-23.46q13.42,11.05-5.22,23.46Z"/>
      <path class="cls-1" d="M2515.43,433.78c-11,12.58-19.69,16.65-28.53,12.39,10.76-2.29,16.06-13.25,28.53-12.39Z"/>
      <path class="cls-1" d="M2480.65,688.45c4.36,5.12,8.16,9.44,11.78,13.9,1.39,1.72,2.89,6-.22,4.85-4.98-1.85-8.93-6.71-13.06-10.57-3.06-2.85-.9-5.32,1.5-8.18Z"/>
      <path class="cls-1" d="M2447.99,236.44c5.87-6.73,15.39-6.89,21.97-1.88,6.64,5.05,5.27,10.89,1.56,16.16-4.39,6.23-18.87,6.84-24.62,1.25-6.05-5.88-1.34-11.2,1.1-15.53Z"/>
      <path class="cls-1" d="M2434.75,267.54c-17.58,7-35.53,5.65-54.48,3.89,12.79-14.92,15.15-15.35,32.87-9.51,6.98,2.3,13.94,5.09,21.61,5.62Z"/>
      <path class="cls-1" d="M2466.9,189.95c-11.6-1.05-22.7,4.38-35.36,2.87,8.98-9.94,21.61-10.9,35.36-2.87Z"/>
      <path class="cls-1" d="M2464.74,213.93c-10.33,7.36-18.04,6.5-26.64-3,8.59,3.58,17.27,6.44,26.64,3Z"/>
    </g>
    <path class="cls-1" d="M2411.7,216.59c-1.71,2.7-4.5,6.78-8.47,11.37-4.58,5.27-7.1,7.02-6.85,9.48.18,1.77,1.91,5.09,14.01,8.12"/>
    <circle class="cls-1" cx="2386.32" cy="255.29" r="3.14"/>
  </g>
  <g>
    <path class="cls-1" d="M129.9,1267.63c-.92-18.27.24-34.53.03-52.82-.16-13.42.08-26.88.94-40.26.54-8.4,2.1-16.83,4.04-25,2.51-10.56,3.12-21.36,4.31-32.09,1.8-16.24,1.04-32.57,1.33-48.87.05-2.62.08-2.62,4.27-1.7-8.49-4.23-10.51-12.63-12.53-20.77-1-4.03.03-8.07,1.78-12.07,4.69-10.74,11.97-18.93,19.84-26.66,6.6-6.49,13.48-12.57,20.53-18.45.62-.52,1.21-1.51,2.11-1,1,.58.31,1.61.25,2.46-.49,6.59-2.97,12.92-2.13,19.7-1.68,3.56-2.28,7.29-1.47,12.43.55-4.93.97-8.72,1.39-12.52,2.11-6.93,2.89-14.21,3.83-21.35,1.25-9.43,3.51-18.64,4.45-28.12.31-3.11.48-6.25.99-9.32.33-2-1.21-2.88-1.68-4.4-1.43-4.54-1.35-9.29-1.67-13.89-.48-6.75-2.03-13.25-2.73-19.93-.8-7.68-.54-15.37-.82-23.05-.09-2.41-.33-4.82-1.12-7.25-.04,4.44-.68,8.76-1.08,13.12-.77,8.52.59,16.92,1.36,25.28.77,8.41,1.62,16.94,3.84,25.11,2.03,7.42-3.25,11.38-10.19,13.2-9.34,2.44-18.92,3.69-28.36,5.67-10.55,2.21-21.04.35-31.56-.18-1.02-.05-2.02-.61-3.04-.92-3.29-1.01-4.85-2.96-3.27-6.9.46-1.13.48-2.48.7-3.7-4.8,1.95-9.46,3.72-14.48,3.64-7.91-.12-15.76,1.01-23.45,2.64-6.69,1.42-13.09.38-19.57-.44-7.9-1-7.93-1.19-8.53-10.16-.73-11.01,1.22-21.5,5.1-31.62,5.38-14.04,10.9-28,15.87-42.24,3.77-10.8,7.46-21.8,13.5-31.36,3.37-5.34,7.19-10.3,13.26-12.84,3.24-1.36,5.16-6.17,9.58-5.65,1.3-6.38,5.93-5.46,10.05-5.67,1.18-.06,2.04-.53,2.01-2.1-.08-3.52,2.44-5.82,3.46-8.83.22-.65.97-1.45,1.54-1.51,3.7-.42,4.44-4.51,6.74-6.65,1.88-1.74.31-5.87-2.26-6.59-1.29-.36-1.48-3.6-.3-5.01,1.68-1.99,1.75-7.09-.15-8.97-.96-.95-.36-1.58-.28-2.38.63-6.01,2.67-11.56,4.42-17.21.37-1.19.71-2.38.62-3.71-3.84,9-6.88,18.25-6.44,28.61-.3-.04-.6-.08-.89-.12-.28-.68-.49-1.87-.86-1.94-.84-.15-1.37.84-1.86,1.55-.66.97-.11,1.6.57,2.29,2.95,3.03,3.5,7.41,4.98,11.28-2.39-4.78-6.73-8.04-7.3-14.3-.98-10.83,1.74-20.75,5-30.55,1.69-5.09,5.8-8.52,9.1-12.36,4.01-4.67,8.08-9.41,14.02-11.45,6.29-2.16,12.7-2.33,19.09-1.94,5.38.33,10.64,1.91,15.16,5.58.47.38,1,.92,1.53.28,2.61-3.13,4.71.08,5.36,1.51,3.14,6.91,8.4,11.85,12.62,17.72,2.54,3.53,3.08,6.84,1.68,10.83-.39,1.1-.73,2.19-.64,3.42.12,1.75,1.99,4.22-1.82,4.33-1.36.04-.92,2.3-.69,3.74,1.12,6.9-1.3,12.82-3.86,19.12-.49-.7-.75-.94-.72-1.04,3.29-8.31,1.29-16.64.05-24.94-.33-2.24-.36-4.42-.06-6.62.32-2.33-3.09-8.12-5.02-7.91-1.33.15-2.44,1.54-2.85,3.04-.5,1.86-1.02,3.75-.86,5.76.14,1.69.26,3.4.19,5.09-.21,4.82-1.1,8.98,2.07,14.03,4.47,7.12.85,16.28-6.19,20.42-.93.55-1.86,1.09-2.79,1.65-1.83,1.1-2.69,2.04-2.05,5.02,1.14,5.39-.73,10.02-6.01,12.62,2.4,1.94,4.36,3.83,2.64,7.17-.45.87.15,1.49.76,1.93,5.83,4.1,11.7,7.85,19.05,7.46,9.12-.48,14.62,6.07,14.92,16.39.13,4.35.57,8.76,1.56,13.13.87,3.83.55,8,.73,12.02.09,1.95.31,3.86,1.09,5.66,1.28.01,1.91-1.14,2.55-1.92,4.37-5.29,9.96-7.03,16.17-7.33,9.66-.46,17.63-4.69,23.88-13.09,2.65-3.56,2.64-8.18,1.75-11.34-1.25-4.47.01-5.61,3.1-6.67.85-.29,1.69-.6,2.49-1.22-2.61.46-5.11-.97-7.92.79-2.64,1.65-1.46-1.5-1.54-2.75-.32,0-.6-.09-.74.03-.9.78-1.1,3.38-1.98,2.75-1.78-1.25-3.93-3.19-3.71-5.72.18-2.12-1.09-1.03-1.52-1.62-.26,2.75,1.2,4.83,1.98,7.21-2.4-2.89-4.73-5.75-4.47-10.17.25-4.15-.25-8.22-1.65-12.12-.83-2.31-.14-5.24-2.34-6.98,2.47-1.87.58-7.18,4.85-7.6.89-.09.83-.69.83-1.33,0-2.6.01-5.21,0-7.81,0-.75-.34-1.35-1.04-1.22-.92.17-.31.89-.33,1.45-.13,3.89-3.67,3-5.46,4.63-1.68,1.53-1-2.01-2.77-1.5-.56.96-1.36,2.33-2.74,4.69.58-2.26.88-3.45,1.43-5.62-1.47,2.13-2.45,3.5-3.39,4.92-1.72,2.6-6.89,3.75-9.97,2.33-2.01-.92-3.81-2.42-6.23-2.3-1.14.06-3.09-.55-3-2.02.09-1.55,1.56-2.81,3.23-2.93,3.08-.23,6.13-.46,9.09-1.6,1.04-.4,1.29-.74,1.74-2.07.9-2.66,3.43-4.23,5.86-5.18,1.5-.58,1.84-1.36,2.11-2.95.88-5.07,2.17-10.04,4.31-14.66,2.63-5.68,5.91-10.7,11.71-12.73,2.1-.73,1.82-1.76.88-3.38-1.76-3.03-1.72-6.94-3.89-9.85-.6-.8-.94-2.38-.67-3.36,1.16-4.24,4.14-7.34,6.23-10.99,1.49-2.6,4.62-4.02,7.72-4.03,6.63-.01,11.18,5.15,15.95,9.01,2.82,2.28,1.8,7.28,1.54,11.19-.07,1.13-.43,2.24-.84,4.25,2.23-2.77,3.47-4.9,2.73-7.94-.7-2.88.55-3.61,2.87-2.91,1.35.41,2.61,1.06,3.9,1.7,2.65,1.32,3.55,6.86,8.16,3.99.76-.48,2.81,2.43,4.75,3.28,4.68,2.05,9.18,4.65,12.74,8.84,1.65,1.94,2.93,4.08,3.54,6.67,1.12,4.75,2.6,5.59,6.61,3.6,1-.5,1.62.04,2.09.78.84,1.31.14,2.49-.48,3.61-.42.76-.88,1.82-1.8.58-.59-.8-1.21-1.61-1.79-.19-1.45,3.57-1.87.77-2.73-.73-.2,1.5-.42,2.77-.54,4.04-.07.79,0,1.56.93,1.77,3.04.69,4.58,2.89,3.68,6.12-.73,2.62-.95,5.3-1.3,7.91-1.61.78-1.84-1.78-3.41-1.04-1.37,3.31-3.08,6.75-7.27,7.21-.68.07-1.42.74-1.21,1.65,1.23,5.38-.78,10.26-1.68,15.35-.52,2.93-.03,6.07.46,9.15,1.01-6.53,1.69-13.04,4.77-18.85.56-1.06.49-2.52.85-3.75.64-2.23,1.56-4.09,4.13-3.89,2.55.2,3.98,1.3,2.49,4.19-2.88,5.58-2.01,12.3-4.58,17.95-.65,1.44.48,2.14,1.19,2.93,2.29,2.56,3.14,5.67,1.91,8.95-1.18,3.14-2.84,6.16-6.66,5.76-.87-.09-1.41.42-1.69,1.11-1.46,3.62-4.75,5.63-6.42,9.12-.48,1-1.65,2.46-3.48,1.51-1.7-.88-2.1-.47-1.43,1.45,1.66,4.71,1.07,9.51.85,14.31-.15,3.36-1.42,6.32-2.92,9.12-.91,1.7-.43,2.64.88,3.47,3.77,2.4,7.55,4.78,10.87,7.95,1.02.98,2.18.68,3.35.47,7.3-1.3,14.67.21,20.99,3.28,7.43,3.61,12.76,11.11,13.26,20.7.67,12.78,2.13,25.47,2.77,38.24.17,3.3,2.42,4.39,4.22,5.65,6.46,4.49,7.25,7.23,6.68,15.5-.32,4.67-2.12,7.43-4.98,10.09-1.26,1.17-2.15,1.2-3.25-.66,2.65,18.19,3.98,36.32,7.41,54.15,2.59-3.08,2.28-6.91,2.65-10.59.66-6.65.73-6.64,6.58-5.93-1.25-1.52-2.73-1.8-4.14-2.35-3.49-1.37-4.87-4.06-4.12-8.18.21-1.17-.06-2-.46-2.95-.34-.82-.95-1.82-.78-2.55.99-4.18,1.83-8.25-1.19-11.92-.12-.14-.05-.73-.03-.73,2.97-.41,2.86-5.08,5.67-5.31,2.72-.23,5.65.64,7.64,2.51,2.44,2.3,5.48,3.72,7.45,6.77,1.78,2.75,2.6,5.27,1.71,8.69-1.16,4.49-2.29,9.11-1.16,13.87.57,2.4-1.7,4.35-.68,6.81,1.54,3.71.66,7.48-.21,11.11-1.5,6.27-1.03,13.03-4,18.92-1.21,2.39-1.03,5.22-2.13,7.79-2.16,5.03-4.94,9.33-8.9,12.7l.09-.08c-2.44,1.18-3.98,3.59-5.92,5.46-4.13,3.97-7.69,3.95-11.83-.04-1.03-.99-2.28-1.7-3.33-2.46-.49.28-.39.39-.17.67,1.02,1.33,3.59,1.86,3.04,3.73-.5,1.69-2.73.35-4.17.61-1.37.25-2.81.52-4.05,1.19-10.1,5.42-21.42,7.15-31.16,14.1-6.55,4.68-13.75,9.09-21.89,10.41-3.53.57-7.21-.83-8.91-4.14-2.94-5.69-6.92-10.53-10.27-15.89-4.41-7.05-9.32-13.73-12.57-21.62-2.62-6.36-.11-12.06,2.08-17.59,1.88-4.76,4.58-9.11,6.86-13.68,1.83-3.66,1.69-7.28-.6-10.62-2.2-3.2-3.53-7.07-6.52-10.29-.91,3.72-3.76,4.59-6.09,6.2-3.98,2.76-7.55,6.85-12.1,7.84-7.81,1.7-14.07,6.78-21.05,10.27-1.27.63-1.86.94-1.5,3,1.3,7.3-1.24,14.12-3.04,20.92-2.12,8-5.33,15.88-6.52,23.89-1.35,9.06-4.02,17.64-5.58,26.56-1.97,11.28-6.17,21.95-8.14,33.2-2.28,13.02-6.12,25.64-7.19,39.01-.61,7.61-.92,15.29-2.08,22.92-.87,5.72-.12,11.91-.26,17.9-.51,21.36,1.93,16.51-1.52,37.61M135.67,1294.44,65,934.87c1.97-1.77,3.48-3.45,6.07-1.4.58.46,1.57.29,2.38.35,8.55.68,17.1-.1,25.65-.19,2.65-.03,5.22-.24,6.78,3.1-.55-3.7-.04-7.73-2.9-10.14-1.26-1.06-1.83-2.26-2.32-3.63-1.74-4.88-4.36-9.25-6.42-13.94-.67-1.52-2.46-2.16-2.48-4.13-.06-7.43-5.33-12.06-7.71-18.28-.38,5.32-.05,10.66-4.43,14.31-.43.35-.59,1.11-.85,1.69-3.77,8.35-6.01,17.53-11.26,25.11-1.35,1.95-1.71,4.75-2.52,7.16ZM136.24,790.38c-2.86,8.44-1.88,15.12,2.78,21.1,1.15,1.48,2.2,3.06,3.33,4.56,2.02,2.68,3.22,5.85,4.54,9.07-1.75-1.19-4.15.22-5.47-1.83-1.45-2.24-3.65-3.19-5.64-4.5-.79-.52-1.62-.76-2.07-1.9-2.27-5.72-4.72-11.37-4.28-17.89.12-1.8-.6-3.3-2.27-3.32-3.92-.04-3.43-2.7-2.94-5.51,1.44-8.22,3.88-16.13,6.14-24.1,1.82-6.41,3.76-12.77,5.87-19.93-3.1,1.55-5.5,2.45-6.78,5.22-3.03,6.51-5.29,13.38-7.32,20.32-1.58,5.39-2.28,10.94-1.03,16.6,1.01,4.56,1.95,9.14,2.92,13.71.14.68.38,2.14-.1,1.89-2.79-1.53-1.56,1.24-1.61,1.93-.32,4-1.21,7.27-5.2,8.72-2.64.96-2.93,3.77-3.01,7.43,3.22-4.96,7.12-7.89,10.45-11.49.99-1.06,2.26-2.19,3.25-.55,2.71,4.51,4.97,9.34,6.86,14.35.26.68-.23,1.76-.49,2.61-.28.9-.43,1.77-.17,2.68,1.08,3.9-.39,7.4-1.58,10.84-.88,2.55-.75,4.87.1,7.43,1.69-3.95,3.75-7.53,4.99-11.79,1.3-4.46-2.55-8.21-.36-12.46.37,1.36.7,2.58,1.06,3.93,1.59-1.04,3.24-3.44,4.76-.77,1.84,3.24,5.12,4.48,7.2,7.29.39.52.74,1.52,1.64.99.92-.54.99-1.69.58-2.39-.99-1.69-.92-3.79.1-4.7,4.23-3.73,1.06-6.38-.88-9.04-2.36-3.24-4.83-6.43-7.57-9.27-4.79-4.96-7.59-10.84-7.77-19.24ZM146.74,766.97c1.56,5.32-.69,9.84-2.04,14.1-2.83,8.9-1.36,16.29,4.12,23.07,2.43,3.01,4.87,6.01,7.36,8.95.6.71.92,2.6,2.31,1.4,1.31-1.14,1.33-3.08,1.28-4.71-.06-2.25-1.67.33-2.42-.86,1-3.33,4.79-6.59.89-10.52-.07-.07-.12-.3-.07-.36,2.8-3.61-.19-6.22-1.64-8.54-4.43-7.09-5.59-14.78-4.65-23.1.18-1.55.47-3.09.55-4.65.07-1.31,0-2.51-1.68-2.83-6.28-1.17-8.42-6.66-4.75-12.43,2.11-3.31,4.64-6.29,7.09-9.56-2.09-.22-3.45.88-4.42,2.33-1.95,2.93-3.87,5.95-4.93,9.44-2.62,8.65-5.03,17.37-7.73,25.98-.75,2.39-.34,3.84,1.69,5.2,2.21-4.94,4.08-10.11,9.04-12.92ZM230.61,997.87c0-1.6-.76-2.61-1.41-3.62-4.69-7.24-8.41-14.98-10.74-23.59-1.51-5.58-4.32-10.57-7.3-15.43.54,5.69,1.22,11.37.63,16.96-.83,7.89-2.07,15.74-3.57,23.51-.75,3.88.6,3.91,3.13,3.23,2.97-.79,5.91-1.83,8.93-2.23,3.43-.45,7.09-2.3,10.35,1.16ZM260.92,827.01c-.68-2.69-1.44-4.75-1.66-6.87-.18-1.77-.97-2.34-2.23-3.01-8.04-4.28-12.2-13.45-10.72-23.24.2-1.32.37-2.79,1.25-3.56,3.06-2.71,1.58-5.8.83-8.84-.23-.92-1.39-1.79-.23-2.71,1.02-.81,2.07-.2,2.9.56,1.31,1.21,2.59,2.43,4.28,3.04,1.25-6.01,1.39-7.31.04-7.7-2.08-.6-4.38-.43-6.57-.59-1.05-.08-2.61,1.09-3.94,1.7-5.42,2.51-9.69,6.65-11.96,12.69-.46,1.22-1.73,4.15.03,5.13,1.83,1.01,2.84-1.59,3.32-3.1,1.16-3.65,3.78-5.26,6.56-6.81.69-.38,1.56-1.2,2.1,0,.36.81,1.38,1.54.61,2.79-.52.83-1.23,2.61-1.15,2.66,2.6,1.72.73,3.93.13,5.35-1.91,4.5-1.87,9.2-1.34,13.8.32,2.77-.15,5.94,1.85,8.36,4.22,5.12,9.47,8.26,15.91,10.35ZM255.39,832.5c1.16,1.63.91,2.89,0,4.31-.44.69-1.61,1.78-.19,2.53.95.51,2.11.27,2.69-1.07,1.09-2.5-.68-5.94,2.08-7.92.01-.01-.15-.55-.31-.61-2.3-.83-4.07-4.6-7.08-1.61-.33.33-1.06.74-1.06.18,0-4.01-1.96-2.42-3.7-1.78-.28.1-.95-.32-1.11-.68-1.27-2.79-4.26-2.92-6.04-5.48-.54,5.03,1.2,9.1,2.01,13.31.36,1.86,1.82,3.15,3.94,3.25,3.58.16,6.25-1.75,8.76-4.44ZM327.55,1075.51c-1.22-2.85-2.24-5.42-2.6-8.21-1.24-9.56-3.74-18.79-5.83-28.14-2.91-13.02-7.12-25.73-8.49-39.13-1.5-14.64-3.91-29.17-4.7-43.9-.08-1.48-.38-2.84-1.23-4-.54-.74-1.21-1.39-2.11-.92-1.09.57-.53,1.59-.25,2.37.66,1.81,1.83,3.5,2.08,5.36,1.42,10.31,3.09,20.62,3.79,31,.69,10.22,2.76,20.09,4.76,29.98,2.05,10.17,5.84,19.82,7.54,30.15,1.21,7.42,3.05,14.72,4.63,22.06.28,1.32.32,2.88,2.42,3.39ZM163.88,788.73c1.64-6.29,3.88-11.98,6.24-17.62,2.38-5.68,1.16-11.32-.23-16.92-.58.34-.88.74-.8,1.01,1.36,4.78-.29,9.55-.08,14.33.07,1.66-4,5.64-5.15,5.16-2.39-1-2.65-3.25-2.43-5.79.35-3.85-.04-7.64-1.35-11.28-2.39,10.73-2.81,21.19,3.8,31.11ZM257.6,792.29c.31,2.29.63,3.94.72,5.61.04.71.55,2.18-.88,1.98-2.82-.39-1.49,1.57-1.16,2.6,1.83,5.83,12.2,9.91,17.03,6.81.53-.34.7-.79.48-1.22-1.04-1.98-1.28-4.66-3.45-5.7-4.71-2.26-8.45-6.01-12.75-10.08ZM266.27,1063.18c.07.62.14,1.65.33,2.65.63,3.24,3.76,5.36,3.23,9.19-.09.68,1.15,1.2,1.65.49,2.38-3.39,6.23-5.15,8.1-9.05.79-1.65,2.55-3.9.84-5.22-1.97-1.52-2.22,1.84-3.08,2.93-1.86,2.35-3.74,2.38-5.95,1.31-2.38-1.16-2.71-3.31-2.08-5.86.31-1.25.38-2.59.79-3.79.53-1.57,1.05-3.28-.59-4.07-1.52-.74-2.48.93-3.41,2.06-1.11,1.35-.81,2.91-.39,4.43.41,1.48,1.17,2.88.57,4.95ZM260.93,931.77c-1.7,5.45-.74,10.81.11,16.06.7,4.35,1.9,8.7,1.55,13.08-.39,4.82,1.04,8.4,4.26,11.3,3.92,3.54,7.55,7.38,10.84,11.65,2,2.59,4.19,5.09,7.1,6.63-3.84-5.86-8.2-11.23-12.99-16.09-4.45-4.52-7.56-9.56-7.83-16.4-.3-7.81-2.08-15.48-1.82-23.35.03-.94.15-2.14-1.23-2.89ZM232.17,916.08c-2.53,1.82-3.26,3.95-3.3,6.85-.17,12.01,0,24.1-4.04,35.58-.4,1.13-.54,2.29.61,3.32,3.05-5.76,4.63-11.96,5.09-18.51.63-8.89-.76-17.92,1.64-27.24ZM295.77,783.78c2.42-10.63-2.52-19.05-12.33-21.79,4.7,6.72,8.82,13.62,12.33,21.79ZM256.24,866.36c1.26,2.36,2.23,4.34,3.34,6.22,1.66,2.81,2.81,2.63,4.71.04,2.66-3.62,3.43-9.12,8.32-10.6.18-.06.63-.79.1-1.4-1.76-.25-2.88,1.36-4.34,2.01-.39.17-.99.35-1.27.15-.6-.44-.36-1.2-.04-1.73.85-1.38,2.14-2.48,2.35-4.27.34-2.95.46-5.95,3.05-7.85.64-.47.76-1.37-.14-1.85-.86-.45-1.79-.28-1.92.86-.19,1.76-1.09,3.11-1.74,4.61-1.92,4.39-4.52,8.65-2.24,13.92.31.72-.13,1.44-.65,2.08-3.77,4.64-4.42,4.6-7.35-.55-.37-.64-.62-1.43-2.19-1.63ZM276.22,1033.64c.72-6.4-2.54-11.09-5.29-16.04-3.69-6.62-7.27-13.32-10.88-20-.37-.69-.24-2.19-1.4-1.63-1.04.49-.41,1.67,0,2.36,2.78,4.56,4.21,9.89,7.47,14.26,4.6,6.16,8.14,13.17,10.1,21.05ZM83.57,846.85c-1.84,2.64-1.55,5.34-1.87,7.88-.64,5.07-.64,5.04,3.86,4.36,1.61-.24,2.52-1.05,2.9-2.84.37-1.74.11-3.46-1.29-4.04-2.24-.93-2.69-3.06-3.59-5.36ZM264.42,771.22c-.77,3.59-.75,6.55-.48,9.48.24,2.63,3,2.44,4.12,4.14.73-.75,1.7-1.35,2.15-2.27.83-1.69-.42-2.95-1.3-4.01-1.68-2.01-2.7-4.49-4.49-7.35ZM283.59,780.76c-1.71-3.44-2.88-6.48-4.61-9.07-1.72-2.57-3.68-5.26-7.06-5.24-.8,0-1.78.08-1.86,1.31-.07,1.13.89.9,1.5,1.19,2.66,1.25,4.96,3.12,6.32,5.96,1.21,2.53,2.88,4.32,5.71,5.84ZM273.67,845.62c3.68-1.09,6.59-3.61,9.42-6.23.55-.51,2.07-.9.79-2.27-.82-.88-1.56-.74-2.41.14-1.65,1.72-3.61,2.59-5.92,2.91-1.85.26-3.02,1.82-2.94,4.14.03.8.02,1.63,1.06,1.31ZM110.03,868.65c-1.74,8.14-6.46,13.75-8.73,21.51,5.54-4.48,9.91-14.99,8.73-21.51ZM125.46,791.21c4.68-2.62,5.66-4.44,5.33-8.84-.12-1.54-1.18-2-1.91-2.41-.92-.5-1.19.84-1.37,1.66-.69,3.18-2.37,6.11-2.04,9.58ZM207.67,1001.02c-.39-.03-.79-.07-1.18-.1-.63,5.71-1.25,11.43-1.88,17.14,3.89-5.21,4.6-10.94,3.06-17.04ZM94.6,835.93c3.22-3.64,7.77-5.11,11.39-8.68-3.93-2.03-6.1,1.77-9.03,2.35-2.01.4-1.4,4.12-2.37,6.33ZM173.23,782.46c-1.07,3.05-1.88,5.39-2.72,7.72-.97,2.68-1.28,5.98-4.88,6.14-.81.04-1.23.75-.84,1.67.45,1.06,1.11,1.03,2.01.53,4.57-2.53,7.49-9.2,6.42-16.07ZM143.51,886.81c-2.28,4.7,1.24,17.9,5.63,20.6-2.44-6.93-6.06-13.09-5.63-20.6ZM134.67,919.74c2.62,6.04-.32,13.1,2.87,19.04.19-6.54-.43-12.95-2.87-19.04ZM153.76,849.42c2.45-2.24,4.1-4.46,4.98-7.33.24-.79.99-1.78.07-2.36-.6-.38-1.67-.35-2.32,0-1.13.6-2.36,1.47-2.17,3.16.23,2.07-.14,4.06-.57,6.54ZM186.38,1045.09c-6.79-2.56-11.77-7.45-12.5-16.58-.91,9.21,5.64,17.34,12.5,16.58ZM280.32,846.57c2.54-.18,11.86-8.14,12.72-10.72.19-.57.17-1.07-.3-1.31-.23-.12-.77.03-.92.26-3.07,4.8-7.97,7.39-11.5,11.77ZM283.25,878.25c-.11-1.96.27-3.97-2.31-4.3-1.36-.17-1.38-1.48-1.39-2.69-.01-2.68-.06-5.37-.09-8.05-.3.02-.6.04-.9.05.13,2.42.56,4.88.31,7.25-.42,3.95,1.03,6.31,4.37,7.74ZM130.67,896.39c.25-4.74-.04-9.54,1.13-14.2-1.41,4.62-3.84,9.1-1.13,14.2ZM254.46,790.44c-1.62-3.15-.99-6.41-3.58-8.48q-.34,6.45,3.58,8.48ZM297.97,829.79c3.95-1.31,3.31,1.34,3.03,3.59-.08.63-.37,1.22-.49,1.85-.14.75-.32,1.62.61,1.89.77.22,1.33-.27,1.68-1.02,1.08-2.32,0-4.27-.95-6.18-.92-1.83-2.24-1.01-3.88-.12ZM142.31,1188.62c-3.65,4-.74,8.02-1.65,11.61,2-3.43,1.64-7.21,1.65-11.61ZM176.64,756.23c.34-3.43.04-6.76-.83-10.04.55,3.31-3.64,6.99.83,10.04ZM167.04,948.23c-2.88-3.39-6.25-3.72-8.71-5.76-.44-.37-.97-.23-1.18.28-.29.71.13,1.16.67,1.55,2.57,1.81,5.44,2.67,9.22,3.93ZM193.89,901.21c.26.12.54.26.55.24,2.29-4.68,4.56-9.37,7.32-15.07-4.42,4.7-5.75,10-7.87,14.83ZM265.35,839.73c1.54-1.99,2.57-3.68,4.08-4.92.77-.63.55-1.61.14-2.45-.26-.54-.75-.7-1.12-.25-1.61,1.97-4.09,3.48-3.1,7.61ZM339.79,973.21c-.48-4.73-.96-9.46-1.44-14.2-.5,4.84-.37,9.61,1.44,14.2ZM139,864.5c-1.35,2.98-2.44,5.37-3.52,7.76,1.87-1.92,5.86-2.58,3.52-7.76ZM82.63,883.8c-1.28-4.27-4.26-7.35-6.29-11.1,1.5,4.12,3.66,7.77,6.29,11.1ZM254.72,842.91c3.19,1.55,5.19-.67,7.38-1.74.26-.13.5-1.01.35-1.31-.17-.36-1.11-.68-1.13-.64-1.37,2.64-4.37,1.84-6.6,3.69ZM254.92,863.79c-2.33-3.83-.84-8.53-2.42-12.54,1.54,4.01-1.36,9.03,2.42,12.54ZM297.15,797.88c2.31-.19,3.84.97,6.08-.71-2.44-.33-4.05-.9-3.04-3.77-1.85.91-1.5,2.69-3.04,4.48ZM257.82,763.83c-1.04,1.88-1.81,3.1-2.39,4.41-.39.86-.26,1.82.74,2.14.94.3,1.02-.59,1.31-1.29.61-1.46.51-2.95.34-5.26ZM187.06,1027.89c-.92,2.72-3.05,4.46-.61,7.15.98-2.26,1.77-4.09.61-7.15ZM255.43,750.39c2.41-2,2.45-3.82.96-6.15-1.56,1.88-1.48,3.72-.96,6.15Z"/>
    <path class="cls-1" d="M263.18,1300.45,293.27,1294.48,369.05,1294.4,319.4,1259.23c-1.17-1.86-.64-2.66-1.49-4.8-4.51-11.39-6.94-23.69-12.3-34.71-.17-.34-.38-.69-.44-1.06-.64-3.54-1.63-4.37-5.14-4.4-1.14,0-2.28-.16-4-.3,3.31,2.31,3.62,5.76,3.43,8.79-.41,6.8.37,13.52.4,20.22.04,7.94-.5,5.82-.33,13.72l-54.58-.17c-1.22-7.98-5.2-23.77-6.72-31.64-1.82-9.34-5.33-17.98-7.83-27.02-1.49-5.4-3.51-10.52-5.51-15.65-2.19-5.63-3.07-11.45-3.49-17.48-.77-10.92.93-21.5,2.67-32.19,1.58-9.76,3.43-19.38,5.85-28.93,1.29-5.1,1.63-10.51,2.26-15.8.34-2.86,1.13-5.52,2.35-8.19-.24,7.01,1.45,13.7,2.57,20.46,2.38,14.44,6.63,28,14.42,40.22,4.67,7.32,9.93,14.38,13.07,22.8,1.1,2.95,1.52,6.22,2.45,9.31-.34-4.52-1.19-8.96-.4-13.53.97-5.59,4.31-9.49,7.46-13.47,5.11-6.45,9.88-13.26,15.83-18.87,10.78-10.17,22.43-18.93,34.84-26.4,4.69-2.82,8.9-6.33,13.02-9.99,5.74-5.1,12.29-3.37,18.6-2.81,2.48.22,4.41,5.76,4.06,10.41-.79,10.58-.81,21.06,1,31.58.97,5.6.85,11.43,1.2,17.16.39,6.39,1.9,12.12,6.56,16.5,3.39,3.19,4.91,7.88,5.22,12.52.4,6.07,2.55,11.62,3.21,17.57.95,8.63,3.68,17.05,3.6,25.77-.19,19.54.51,26.6-.8,46.15l-61.05-5.8ZM238.6,1194.96c1.69,2.13,3.66,2.96,5.69,3.38,8.55,1.77,16.86.53,24.64-3.62,2.64-1.41,4.61-2.17,7.01.18-1.39-2.14-2.77-4.28-4.56-7.05.49,3.75-1.13,5.49-3.37,6.15-8.64,2.54-17.38,3.67-26.21,1.03-.9-.27-1.73-.85-3.2-.08ZM242.5,1202.63c5.09,2.26,10.15,2.81,15.14-.21-5.05.65-10.09,1.76-15.14.21ZM330.44,1218.74c4.47-.35,6.2-4.41,8.49-7.72-2.29,3.3-6.02,4.66-8.49,7.72Z"/>
    <path class="cls-1" d="M82.96,1272c-1.09-7.03-1.51-8.77-2.85-15.75-1.31-6.78-1.5-13.94-1.55-21.02-.07-10.92.23-21.86-.48-32.78-.25-3.9-.07-7.82.41-11.72,1.97-15.93,1.75-31.94,1.45-47.96-.1-5.49,1.03-10.92,1.23-16.36.38-10.54.27-21.12,0-31.67-.17-6.67.65-13.29.36-19.95-.05-1.16.09-2.39-.55-3.42-4.97-8.03-3.87-17.14-2.88-25.8.91-7.97,2.19-15.95,3.77-23.86,1.3-6.49,4.43-12.02,6.24-18.2,1.23-4.2,3.03-8.19,4.61-12.26.3-.78.48-1.74,1.79-2.09.06,3.88,2.01,7.2,1.64,11.07-.1,1.11.18,2.36.56,3.43,3.62,9.99,6.79,20.2,11.16,29.82,1.53,3.36,4.25,5.84,6.72,8.46,4.34,4.6,9.19,8.5,13.86,12.66,1.88,1.67,2.6,2.98.74,5.1-.3.35-.47.91-.02,1.43,1.78.28,1.88-3.89,4.16-2.09,1.9,1.5.93,3.74.98,5.78.21,9.83-4.48,17.71-7.85,26.22-2.05,5.15-2.79,11.01-3.73,16.63-2.22,13.18-5.23,26.19-6.34,39.6-.3,3.61-1.16,7.17-2.81,10.43-1.07,2.12-.59,4.61-.58,6.89.01,7.59-1.33,15-.61,22.79,1.82,19.79.77,39.59-3.5,59.06-1.31,5.98.57,18.21.13,24.3M103.74,1113.56c-1.79,3.11-2.73,6.53-3.35,10.14-1.7,10.07-1.92,20.23-1.82,30.42.02,2.21-.46,4.07-2,5.59-3.01,2.96-3,3.05.97,4.76,2.83,1.22,4.85,2.79,4.64,6.77-.23,4.33.04,8.69.09,13.03.37,0,.74-.02,1.11-.02-.03-2.58-.31-5.2-.03-7.75.46-4.23-.63-8.96,3.29-12.2,1.12-.93.1-1.53-1.06-1.66-4.44-.5-5.56-1.5-5.62-5.91-.07-5.73-.04-11.49.43-17.18.72-8.69,2.04-17.3,3.35-25.99Z"/>
    <path class="cls-1" d="M351.24,1075.23c1.98-.7,4.08-2.02,4.89,1.68.27,1.23,1.16,2.4.29,3.67-.97,1.42-2.03.51-3.13.07-1.24-.49-2.54-.26-3.79.18-.61.22-1.29.98-1.82.02-.43-.77-.04-1.52.47-2.1,1.05-1.21,2.13-2.4,3.19-3.59,0,0-.09.08-.09.08Z"/>
    <path class="cls-1" d="M222.14,807.28c-2.48,5.69-3.96,11.1-8.92,13.78,1.75-5.2,3.62-10.3,8.92-13.78Z"/>
    <path class="cls-1" d="M227.57,815.99c-2.41-1.68-3.28-3.9-2.17-6.84.72,2.28,1.45,4.56,2.17,6.84Z"/>
    <path class="cls-1" d="M183.64,802.34c-.63,2.85.53,5.94-.74,8.72-.53-2.99-.81-5.94.74-8.72Z"/>
  </g>
  <g>
    <path class="cls-1" d="M946.7,343.07c4.15.33,8.3.82,12.46.96,7.87.26,15.69,1.08,23.53,1.8,10.42.95,20.91,1.08,31.38.56,5.02-.25,9.83,1.1,14.73,1.69,1.78.21,2.92,1.35,2.83,3.14-.09,1.93-1.48,3.13-3.34,2.92-7.68-.89-15,1.8-22.53,2.07-10.1.37-20.23.55-30.33.32-6.87-.16-13.61-2.27-20.56-1.96-1.16.05-2.32,0-3.46,0-.26,1.09.64,1.19,1.13,1.49,2.7,1.66,4.9,3.84,6.64,6.46,4.38,6.61,10.32,11.8,16.68,16.14,7.26,4.95,15.88,5.66,24.65,4.97,8.2-.64,16.47-1.34,24.59.95.63.18,1.24.46,2.23.83-3.91,2.23-7.95,2.15-11.82,2.37-7.77.42-15.5,1.24-23.26,1.8-9.31.68-17.38-2.91-24.67-8.16-5.12-3.69-9.44-8.25-12.29-14.17-2.6-5.41-7.28-9.02-12.52-11.85-1.08-.58-2.66-.96-2.44-2.52.25-1.73,1.95-1.72,3.26-1.79,6.69-.35,13.37.01,20.05.35,9.1.46,18.19,1.77,27.53-.13-.83-.97-1.81-.61-2.64-.64-9.23-.33-18.48.26-27.68-.7-5.02-.52-9.96-1.55-15.02-1.92-4.22-.31-8.33-.2-12.48.37-1.83.25-3.67.24-4.16-2.04-.46-2.12,1.13-2.89,2.76-3.48.64-.23,1.29-.42,1.95-.58,6.98-1.68,13.37-4.35,18.81-9.34,4.56-4.18,10.2-6.85,16.13-8.5,6.31-1.76,12.24-4.35,18.18-6.99,1.85-.82,3.83-1.37,5.76-1.99,3.6-1.15,6.89-.59,9.89,1.76.57.45,1.1,1.11,2.16.98-2-9.81-1.6-19.74-1.55-29.64.01-2.73-.85-3.72-3.58-3.18-9.5,1.9-18.98.62-28.44-.36-3.93-.41-6.15-3.67-5.83-7.71.86-10.89,9.37-16.34,19.79-16.22,11.11.12,18.32,6.02,21.47,16.71.37,1.24.94,1.61,2.05,1.38,6.35-1.34,12.92-1.24,19.18-3.08.65-.19,1.29-.44,1.89-.75,3.83-2.02,3.76-2.47,2.45-6.59-4.33-13.58-8.55-27.2-12.62-40.86-3.46-11.63-7.48-23.12-9.08-35.23-1.24-9.35-2.52-18.71-2.7-28.16-.17-8.59,3.29-16.54,4.54-24.87,1.58-10.51,6.32-19.34,13.88-26.66,4.18-4.04,8.77-7.62,13.75-10.64,2.55-1.55,4.73-1.12,5.89.79,1.19,1.96.48,3.69-2.22,5.46-4.46,2.92-8.8,6.08-14.06,7.53-1.44.39-2.63,1.29-3.56,2.44-8.43,10.4-13.48,22.15-12.67,35.69.95,15.91,2.98,31.77,6.31,47.35,2.78,13,7.31,25.57,11.22,38.28,2.68,8.72,5.64,17.36,8.57,26,.82,2.42,1.27,4.89,1.59,7.39.23,1.83-.41,3.45-1.88,4.66-5.96,4.91-12.98,6.81-20.52,7.16-2.91.14-5.83.2-8.74.3-1.44.05-1.96.61-1.77,2.21,1.23,10.55,1.37,21.14.4,31.72-.18,2.01.54,2.24,2.14,1.41,2.85-1.47,5.7-2.93,8.56-4.38,3.44-1.75,6.41.32,9.44,1.33,1.18.39.27,1.28-.41,1.66-5,2.78-9.98,5.61-15.05,8.27-2.97,1.56-6.01,1.34-8.88-.48-1.4-.88-2.91-1.65-4.12-2.74-2.59-2.32-5.43-2.57-8.37-1.16-14.08,6.75-29.66,9.93-43.14,18.11-.66.4-1.34.74-2.02,1.11-.01.19-.02.38-.03.57ZM987.81,279.26c4.49-.17,8.05-.59,11.61-1.07,1.72-.23,1.45-.87.98-2.08-4.34-11.31-17.85-13.77-25.61-6.9-2,1.77-2.84,3.86-3,6.36-.09,1.44.43,2.41,2.09,2.53,4.94.37,9.87.81,13.92,1.16Z"/>
    <path class="cls-1" d="M852.12,195.77c0,.48-.02.97,0,1.45.04,1.09-.3,1.98-1.47,2.18-1.29.22-1.96-.63-2.39-1.69-.61-1.5-.06-2.84.56-4.28-1.2.7-2.62,1.14-2.51,3.05.03.56-.08,1.18-.32,1.69-.76,1.58-1.99,2.66-3.8,2.76-.86.05-1.58-.61-1.62-1.4-.09-1.81.82-3.21,2.48-3.92,1.93-.83,3.41-2.15,4.77-3.69-.54-.44-.91,0-1.34.1-1.47.36-2.75-.03-3.56-1.3-.6-.95-.23-1.9.66-2.56,1.4-1.03,2.95-.87,3.95.34,1.4,1.68,2.48,1.52,3.95-.21-2.07-.25-4.2-.49-4.14-3.18.03-1.16.79-1.87,1.83-1.93,2.5-.15,3.22,1.69,3.63,3.91,1.83-1.41,3.32-2.79,4.53-4.62-1.27-.36-1.66.75-2.46,1-1.47.46-2.71.2-3.62-1.07-.59-.82-.46-1.7.24-2.39,1.05-1.05,2.3-.93,3.49-.31,3.19,1.65,4.29,1.33,6.46-1.55,2.82-3.73,4.26-8.05,5.56-12.44.58-1.94-2.44-4.63-4.62-4.1-1.21.3-2.42.8-3.48,1.46-9.07,5.63-19.2,7.65-29.6,8.76-.64.07-1.48-.21-1.65.73-.14.74-.24,1.54.43,2.17.48.46,1.05.92,1.31,1.5.45,1.01.11,1.96-.91,2.45-.88.42-2.28.09-2.17-.68.4-2.7-2.71-2.53-3.2-4.37-.11-.41-.35-.52-.84-.33-1.47.56-2.34.32-3.1-1.42-.52-1.2-2.06,1.21-3.29.15-.62-.53-1.19-1.1-.98-1.96.23-.92.87-1.58,1.88-1.48.82.09,1.61.42,2.88.06-.71-.28-1.43-.56-2.54-1,1.05-.48,1.36-.75,1.53-.68,1.16.48,2.29,1.04,3.43,1.57,3.7,1.71,7.42,2.32,11.58,1.59,8.97-1.57,17.65-3.78,25.4-8.79.67-.44,1.97-.53,1.63-1.67-.32-1.07-1.31-1.73-2.54-1.44-2.55.6-5.1,1.21-7.6,1.97-1.23.37-1.39,1.38-.98,2.6.44,1.28.1,2.42-1.4,2.63-1.43.2-2.54-.3-2.45-2.05.03-.66.39-1.27-.87-1.2-1.44.08-2.94-.54-2.42-2.35.48-1.68,1.89-2.39,3.71-1.82,3.02.94,5.94.67,8.76-.77.37-.19.66-.38.57-1.26-4.76,1.92-9.89-.65-14.7,1.79-2.3,1.16-4.75.17-6.79-1.41-.23-.18-.49-.35-.65-.58-.79-1.14-3.14-.99-2.99-2.39.19-1.75,2.33-2.13,3.77-2.86,3.76-1.91,7.22-1.11,10.2,1.64,2.13,1.96,4.43,3.1,7.36,2.7.47-.06,1.04.08,1.23-.51.18-.54-.21-.92-.57-1.23-1.04-.88-2.12-1.71-3.15-2.6-.73-.63-1.69-1.31-.76-2.39.72-.84,1.55-.38,2.34.12,2.79,1.76,5.6,3.51,8.42,5.23,6.47,3.94,12.77,8.22,19.48,11.68,7.81,4.04,16.47,5.55,25.15,6.65.96.12,1.96.09,2.89.34,12.38,3.34,24.01.67,35.28-4.48,3.97-1.81,7.36-2.92,11.72-.27,2.88,1.75,6.81,2.04,10.26,3.02,1.45.41,2.82-.53,4.12-1.18,3.62-1.82,6.97-1.15,10.12,1.12.52.38,1.56.65.63,1.74-3.63,4.21-8.54,4.58-13.17,1.28-3.24-2.31-7.11-2.77-11.34-2.93.74,1.36,1.83,1.55,2.72,2.01,3.47,1.75,6.95,3.47,10.4,5.27,1.57.82,2.98,1.58,4.91.71,1.37-.62,2.68.27,3.4,1.56.39.69.33,1.61-.44,2.09-1.28.79-2.61.67-3.81-.22-4.78-3.52-10.24-5.72-15.81-7.83,1.27.89,2.49,1.88,3.83,2.67,4.1,2.41,8.22,4.8,12.4,7.08,2.97,1.63,6,3.24,9.56,1.57.42-.2.96-.19,1.44-.17,2.46.1,4.64.75,5.67,3.27.4.97-.17,1.63-1.07,2.09-2.08,1.07-5.61.59-7.01-1.02-.62-.71-.97-1.69-2.07-1.93-7.38-1.66-13.15-6.57-19.73-9.84-.83-.41-1.48-1.23-2.93-1.22,1.79,3.45,3.47,6.72,5.16,9.99-.26.15-.52.3-.79.45-2.92-3.1-3.8-7.59-7.23-11.45,1.07,2.89,1.84,4.97,2.61,7.06-.23.12-.47.24-.7.37-2.53-2.93-2.75-7.35-5.98-9.87,2.24,3.47,2.62,7.87,5.77,10.88,3.06,2.93,5.31,6.45,7.08,10.27.36.77,1.25,1.62-.09,3.23-1.67-4.43-4.03-8.11-7.02-11.43-.71,1.29,1.06,2.34.13,3.75-2.6-2.06-1.76-6.04-4.96-8.51,1.33,4.2,2.72,7.56,5.04,10.5.9,1.14.76,1.01-.28,2.01-.6.58-.85,1.67-.97,2.57-.08.66.84.69,1,.32,1.39-3.22,1.73-.12,2.22.43,1.71,1.89,3.02,4.06,3.63,6.57.27,1.1.85,2.45-.53,3.12-1.2.58-1.89-.58-2.61-1.36-.18-.2-.44-.33-.81-.6-.32.89-.59,1.67-.87,2.45-.28.78-1.46,1.59-1.53,1.34-.87-3.42-5,1.6-5.47-2.16-.14-1.1.23-1.86-1.56-1.71-1.66.13-1.54-1.38-.97-2.57,1.08-2.27,3.02-3.77,4.9-5.31,1.29-1.05,2.26-2.39,1.34-4.04-1.18-2.11-.52-5.64-4.34-5.98.26,1.89,1.95,3.23,1.71,5.46-1.79-1.12-2.05-2.84-2.79-4.25-1.52-4.91-5.65-7.95-8.54-11.87-.57-.77-1.42-1.23-2.27-.71-.85.51-.22,1.35-.09,2.09.44,2.37,1.77,4.12,3.29,5.96,2.09,2.52,5.2,2.89,7.7,4.48-.43,1.55-1.05,2.9-3.26,2.53-.09.27-.19.53-.28.8,1.6,1.34,3.21,2.67,5.05,4.21-2.5-.03-6.42-3.29-9.44-8.07-2.23-3.52-4.45-7.01-7.4-9.98-.07,2.8,2.38,8.84,4.46,10.72,2.99,2.7,6.04,5.33,8.82,8.31-2.75-.51-4.25-2.86-6.54-4.15,1.51,2.01.04,5.23,2.85,6.83-9.59-4.73-16.45-12.31-22.44-20.93.81,3.33,2.64,6.11,4.47,8.85,1.45,2.18,3.17,4.17,4.74,6.27.54.73,1.48,1.66-.5,1.71-4.44-5.46-8.38-11.27-12.08-17.28,1.18,4.12,1.32,8.69,5.8,11.05,1.32.7,2.32,2.22,1.95,3.92-.41,1.9-2.04.81-3.22.81,2.08,3.81,4.92,2.16,7.61,1.41,1.53,1.2,3.22,1.97,5.04,2.7,3.55,1.43,6.84,3.48,9.97,5.72.45.32,1.11.72.91,1.36-.23.74-1.02.89-1.69.82-3.99-.42-7.92,1.36-11.91.31-.83-.22-1.64-.58-2.39-1-.92-.52-1.54-.95-2.93-.84-2.28.17-3.92-2.32-3.91-4.32.03-5.25-4.61-6.94-7.13-11.25-.2,2.99-.89,5.02.64,6.96.88,1.12.81,2.38-.38,3.35-.79.64-1.65.59-2.38-.09-.99-.93-.8-1.91-.33-3.16,1.34-3.59,1.63-7.27-.16-10.86-1.11-2.22-2.23-4.44-3.72-7.38-.05,6.06,2.12,10.83,3.09,15.86-3.01-4.67-4.06-10.02-5.35-15.6-4.41,9.17,1.12,16.55,3.72,24.5q-1.53-.72-3.47-5.28c-.86-2.02-1.71-4.05-2.61-6.2-1.23,2.44-.32,5.07-1.59,7.41-.35-7.07,1.39-14.41-2.96-20.96-1.87,2.12-1.27,5.12-2.56,7.59-.86-2.06-.84-2.05.18-6.13.22-.89,1.19-2.24-.5-2.56-1.57-.3-1.49,1.19-1.55,2.21-.46,7.32.63,14.56,1.23,21.83.07.86.42,1.43,1.36,1.62.92.19,1.89.39,2.47,1.3-.67.72-1.29.32-1.92.15-.63-.17-1.45-.55-1.58.52-.13,1.07.77.92,1.42.9,3.5-.08,7-.19,10.5-.28,1.05-.03,2.47-.52,3,.45.65,1.18-.84,1.96-1.42,2.88-.63,1-1.59,1.69-2.66,2.21-.59.29-1.17.4-1.34,1.3-.8,4.26-.84,4.25-4.87,3.1-.46,1.35-.89,3.63-2.19,3.38-2.55-.5-4.87-.82-7.21.46-.73-3.76-6.67-1.35-6.88-5.83-.05-1.02-1.26-.65-1.93-.92-2.41-.98-2.81-2.55-1.04-4.44,1.1-1.18,2.54-1.93,4.06-2.15,2.56-.37,4.73-1.55,7.05-2.52,1.76-.74,2.02-1.66,1.81-3.29-.95-7.42-1.8-14.85-1.71-22.4-1.07,5.06-2.56,9.99-4.21,14.86-.82,2.42-2.48,4.6-1.93,7.46.2,1.04-.7,2.01-1.92,2.23-1.09.2-1.86-.31-2.39-1.26-.56-1.01-.43-2.11.44-2.62,4.91-2.89,4.82-8.28,6.44-12.77.81-2.25.89-4.76,1.3-7.16.21-1.25.15-2.17-1.43-2.63-1.47-.42-1.98-.46-2.09,1.33-.3,5.05-.87,10.08-2.41,14.93-.16.5-.52.93-.78,1.4-.25-.07-.49-.13-.74-.2.74-3.87,1.47-7.75,2.29-12.07-2.02,1.76-2.43,4.39-4.91,5.5-.18-1.33.65-1.96,1.16-2.66,1.75-2.4,2.82-5.07,3.55-7.93.58-2.27-1.18-2.57-2.58-3.1-1.78-.68-1.62,1.03-1.87,1.83-1.59,5.2-3.03,10.44-4.57,15.66-.36,1.23.01,2.25.52,3.34,1.78,3.77.83,7.1-2.47,9.43-.74.52-1.11.41-1.69-.16-3.19-3.12-3.13-7.18.23-10.27.78-.72,1.75-1.26,1.97-2.63-1.71-.22-2.85.8-4.02,1.69-2,1.53-4.14,1.44-6.34.59-2.09-.8-2.11-1.98-.59-3.46,1.48-1.45,3.12-1.2,4.87-.66,4.92,1.51,6.72.41,7.99-4.49.97-3.73,2.15-7.41,3.02-11.26-5.58,5.9-11.01,11.88-18.69,15.54-.2-1.78.92-1.86,1.58-2.26,5.39-3.28,9.86-7.57,13.72-12.5.73-.93,2.18-2.02.24-3.34-1.74-1.19-2.69-.3-3.5,1.1-1.02,1.76-1.92,3.6-2.97,5.34-.55.91-.83,2.18-2.8,2.42,1.45-2.8,2.71-5.24,3.97-7.67.36-.69.83-1.35,1.05-2.08.36-1.17-.4-1.84-1.36-2.24-1.17-.49-1.17.64-1.53,1.23-.15.25-.27.52-.35.8-1.97,7.54-6.63,13.31-12.14,18.52-.56.53-1.1,1.1-1.64,1.66-.05.05,0,.18,0,.44,1.04.51,1.96-.29,2.93-.41,1.64-.19,2.91.28,3.53,1.88.46,1.18.03,2.12-1.1,2.65-1.57.73-2.83.3-3.75-1.15-.3-.47-.45-1.09-1.15-1.18-.57.75-.09,1.26.43,1.72,1.2,1.07,2.48,2.23,1.34,3.94-1.3,1.95-2.87.52-4.31.01.11-1.31-.29-2.66.55-3.9.37-.55.49-1.51-.16-1.79-.91-.4-1.28.56-1.62,1.22-.96,1.87-.26,3.27,1.29,4.42ZM938.05,196.05c-3.07-8.14-9.92-12.56-14.77-18.58-.06-.07-.16-.11-.25-.14-.56-.21-1.16-.34-1.64.1-.64.59.02,1.09.29,1.5,1.22,1.86,2.42,3.76,3.8,5.5,3.49,4.37,7.31,8.39,12.56,11.62ZM913.39,178.73c-1.08,6.46,1.33,10.51,5.79,14.02-1.92-4.64-3.7-8.95-5.79-14.02ZM888.22,205.54c-2.72.16-4.59.47-6.17,1.68-.7.53-1.92,1.25-.96,2.24.74.76,2.1,1.22,3.13.3,1.25-1.12,2.32-2.43,4-4.22ZM931.48,183.16c-.72-1.89-1.41-3.78-2.16-5.65-.61-1.52-1.81-.9-2.69-.48-1.11.54-.28,1.34.11,1.91,1.2,1.77,2.64,3.31,4.74,4.22ZM949.55,185.59c-1.64-3.24-1.64-6.79-5.34-8.79.68,3.76,1.78,6.67,5.34,8.79ZM901.6,205.78c.91,1.33,1.03,3.39,2.93,3.08,1.68-.27,2.79-1.42,3.56-3.08h-6.49ZM896.3,210.02c-.45,1.49-.88,2.55-1.06,3.65-.2,1.23.23,2.62,1.49,2.7,1.17.07,1.42-1.24,1.5-2.4.1-1.54-.9-2.44-1.93-3.95ZM892.71,210.8c-.99,1.04-1.85,1.7-2.38,2.56-.62,1.01-.75,2.42.28,3.11,1.04.69,1.53-.7,2.16-1.32,1.33-1.3.41-2.65-.06-4.35ZM899.55,209.13c-.48,2.28.28,3.68,2.45,4.23.76.19,1.45-.06,1.42-.94-.07-2.43-2.05-2.68-3.87-3.29ZM889.27,209.86c-1.7,1.14-3.96.47-4.37,2.72-.14.78.63,1.41,1.53,1.35,2.14-.15,2.46-1.8,2.83-4.06ZM873.83,192.8c-.08,2.65-1.06,4.49-.21,6.94,1.78-2.25,2.37-4.12.21-6.94ZM868.76,189.21c-1.85-.75-3.36-1.83-5.07-.45-.41.33-.53.86.06,1.17,1.65.86,3.27,1.16,5.01-.72ZM841.87,155.2c-2.62-.39-4.57-1.2-6.76-.64,2.19,1.96,3.35,2.12,6.76.64ZM896.43,206.15c-.78-.84-2.69.62-2.84-1.42-.22-3.11-1.61-1.15-2.79-.73,1.59,1.76,3.19,3.03,5.63,2.15ZM941.28,204.03c-2.3-1.47-3.96-2.57-6.55-1.87,2.05,1.52,3.76,2.36,6.55,1.87ZM871.73,199.87c.31-2.72.52-4.61.81-7.2-2.23,2.37-2.68,4.25-.81,7.2ZM967.62,172.9c2.91,2.01,5,1.84,6.81-.43-2.19.14-4.28.27-6.81.43ZM928.71,199.35c1.84,1.43,3.43,1.38,5.61.79-1.94-1.34-3.44-1.94-5.61-.79ZM935.19,205.23c-1.51-1.85-2.69-2.9-4.48-2.97-.1,0-.38.51-.31.68.73,1.85,2.37,2,4.8,2.3ZM902.08,182c.28-1.39.52-2.5.72-3.62.13-.74-.07-1.37-.93-1.46-1.03-.11-1.05.62-.94,1.32.19,1.19.04,2.49,1.16,3.77ZM969.48,170.99c1.94.28,3.9.62,6.08-.37-2.35-1.28-4.25-.93-6.08.37ZM835.75,152.39c2.01.26,4.02.52,6.86.88-2.59-2.01-4.57-2.36-6.86-.88ZM929.25,204.32c-.58-2.36-1.71-3.54-3.84-4.61.65,2.29,1.64,3.6,3.84,4.61ZM956.19,198.92c.08,2.53.57,3.66,2.49,5.67.03-2.38-.38-3.3-2.49-5.67ZM953.85,207.16c1.45-2.51,1-4.31.38-6.11-.68,1.78-.71,3.56-.38,6.11Z"/>
  </g>
</svg>