<?xml version="1.0" encoding="UTF-8"?>
<svg id="Layer_1" xmlns="http://www.w3.org/2000/svg" viewBox="0 0 24 24">
  <path d="M15.91,10.75l2.22.11.22.67c-.31,1.9-1.73,3.42-2.24,5.29-.9,1.26-1.88-.25-1.99-.12.06,1.66-.19,4.32-1.96,5.01-1.63.63-4.91.03-6.12-1.28-1.33-1.44-1-3.12.14-4.53.22-.28,1.84-1.62,1.55-1.87l-1.76-.34c-.17-.12-.36-.29-.41-.48-.25-.92,1.68-4.57,1.76-5.8l2.42,1.11c-.41-1.57-.38-4.22.9-5.41,1.61-1.5,5.67-1.56,7.17.16,2.52,2.89-.19,5.18-1.89,7.48ZM7.66,15.29c-.2.23-.7.44-1.04.84-.98,1.12-1.34,2.6-.36,3.87s4.27,1.71,5.7,1.29c.56-.16,1.39-1.47,1.47-2.06.38-2.52-.1-4.56,1.03-7.16.94-2.15,4.3-4.63,3.84-6.89-.52-2.53-3.77-3.1-5.91-2.51s-2.54,2.48-2.41,4.4c.11,1.72.58,2.21.08,4.11-.44,1.66-1.3,2.85-2.41,4.11ZM17.88,11.55c-.14-.55-1.93-.4-2.43-.25-.77,1.17-2.29,5.03-.24,5.54.65.16.94-1.69,1.17-2.17.3-.62,1.64-2.58,1.5-3.12ZM9.71,8.99c-.67.01-1.59-1.23-2.06-.7-.51,1.41-1.2,2.96-1.58,4.4-.07.27-.16.36.12.57.55-.01,1.46.33,1.89.32,1,0,1.93-3.69,1.63-4.59Z" fill="#c2858c"/>
  <path d="M12.35,17.14c-.37,0-.49.11-.43-.32.16-1.26.71-3.16,1.17-4.37.34-.91,1.43-3.28,1.97-3.99.23-.29.52-.45.86-.57l-2.39,4.78-1.17,4.47Z" fill="#c2858c"/>
  <path d="M8.83,16.24c.18-1.85,1.29-3.58,1.85-5.33.35-1.11.52-2.28.81-3.4.1-.38-.18-.62.46-.52-.26,2.73-1.28,5.79-2.42,8.3-.15.34-.32.83-.71.95Z" fill="#c2858c"/>
</svg>