<?xml version="1.0" encoding="UTF-8"?>
<svg id="Layer_1" xmlns="http://www.w3.org/2000/svg" version="1.1" viewBox="0 0 24 24">
  <!-- Generator: Adobe Illustrator 29.3.0, SVG Export Plug-In . SVG Version: 2.1.0 Build 146)  -->
  <defs>
    <style>
      .st0 {
        fill: #7f1524;
      }
    </style>
  </defs>
  <path class="st0" d="M16.5,21.8c-.3-.3-.9-2.3-1.1-2.9,0,0-.1,0-.2-.1-.1-.3-.3-1.2-.4-1.4-.1-.2-.9-.4-1.2-.6-1.8-1-3.3-2.4-4.4-4.1-.5-.8-.7-1.3-1.3-2-.9-1.1-.8-2.4-1.4-3.3-.2-.3-.8-.5-.8-1,0-.3.2-.6.4-.8.4-.3,1.8-.9,2.3-1.1,1.6-.7,3.8-1.3,5.5-1.8.8-.2,3.3-1,3.6,0,.1.5,0,.9,0,1.2.1.9.9,2.1.9,3.2s-.2.7-.2.9c0,.5.2,1.2.2,1.7.1,1.6-.3,4-.8,5.5-.1.3-.8,1.5-.8,1.6,0,.5,1,3.1,1.1,3.8.1.5.3,1-.1,1.4-.3.2-.9.2-1.2,0ZM16.2,2.2c-1.8.1-7.8,2.1-9.4,3-.6.3-1.3.8-.7,1.5.4.4,1.1.3,1.6.2,1.8-.2,4.2-1,5.9-1.6.6-.2,3.3-1.4,3.6-1.9.4-.8-.2-1.3-1-1.2h0ZM17.2,3.7c-3.2,1.7-6.8,3.1-10.5,3.4.3.7.9,3.2,1.6,3.5,0,0,.3.1.4,0-.3-.3-.4-1.1-.9-1h.3c-.2-.5-.8-2-.6-2.3,0,0,.3,0,.3,0,.6,0,1,.8,1.6.7.2,0,.5-.2.7-.2.5,0,.8.6,1.1.6.7,0,.7-.9,2-.5.2,0,.5.3.6.3.4,0,1.2-.6,1.7-.5,0,.1-.2.1-.3.2-.4.2-.9.3-1.3.4.8.7,1.8-.4,2.6-.5.4,0,.9.4,1.1.3.4-.2.5-.9.5-1.3,0-.2-.2-.1-.2-.2,0-.2.1-.2,0-.5-.1-.8-.6-1.6-.7-2.3h0ZM17.9,8.1c-.6,0-.3.4-.3.8.5-.1.1-.5.3-.8ZM18,9.1h-.4c.1,1.4,0,2.9-.2,4.3,0,.2-.3.6-.2.6.5.4.7-1.6.7-1.7.1-1.1.1-2.1.1-3.2h0ZM9.1,11.5c0,0-.4-.8-.6-.6,0,0,.4.8.6.6ZM11.9,15c-.7-.6-1.3-1.2-1.8-1.9-.3-.4-.5-1-.8-1.3,0-.1-.3-.2-.4-.1-.1.1.9,1.6,1.1,1.8.8,1,1.8,1.9,2.8,2.6,0,0,1,.7,1,.3,0-.1-.9-.5-1.1-.6-.3-.2-.6-.5-.9-.7ZM17.5,14.2c-.3-.3-.6.9-.6,1.1,0,0,.3,0,.4-.1,0,0,.3-1,.3-1ZM16.3,16.8c.2-.2.9-1.3.8-1.4-.5.1-.5.6-.9.9-.8.6-1.4.2-2.2,0,0,.3,0,.2.2.2.5.3.9.5,1.5.4.2,0,.4-.2.6-.3-.4.4-.7.4-1.2.4,0,.5.4.8.4,1.3.1.1,1.2-.3,1.4-.5-.1-.3-.2-1.3-.5-1.2h0ZM15.5,18.6c0,.2.2,1,.4,1,.9-.3,1.6-.3.8-1.4-.4.2-.8.4-1.3.4ZM17.5,20.4c0-.1-.2-1.1-.3-1.1-.4.2-.8.4-1.3.5.1.2.2.9.4,1,0,0,1.2-.3,1.2-.3h0ZM17.6,20.5l-1.2.4c.3,1.5,1.9,1.1,1.2-.4Z"/>
  <path class="st0" d="M16.4,2.6c0,.2-.1.2-.2.3-1.3.9-7.3,2.9-8.9,3.1-.2,0-.5,0-.7,0,.2-.6.2,0,.4,0,1.4-.1,4.2-1.1,5.7-1.6,1.1-.4,2.5-.8,3.5-1.5-1.6.2-3.2.8-4.8,1.3-1.3.4-2.6.9-3.8,1.5-.3,0,0-.2,0-.2.8-.4,1.9-.8,2.8-1.1.8-.3,5.5-1.8,5.9-1.5h0Z"/>
</svg>