<?xml version="1.0" encoding="UTF-8"?>
<svg id="Layer_1" xmlns="http://www.w3.org/2000/svg" version="1.1" viewBox="0 0 24 24">
  <!-- Generator: Adobe Illustrator 29.3.0, SVG Export Plug-In . SVG Version: 2.1.0 Build 146)  -->
  <defs>
    <style>
      .st0 {
        fill: #7f1524;
      }
    </style>
  </defs>
  <path class="st0" d="M16.7,2c-.2.9-1.2,1.1-1.9,1.5-.1.7.1,1.2,0,2-.1.4-.3.6-.7.8s-1.4.2-1.3.8c.2.2.4.6.4.9-.2.6-1,.8-1.1,1.2-.2.5.6,1.2.2,2-.2.4-.8.7-.4,1.3.6-.2,1.1,0,1.7,0,.2.6,0,1.1.1,1.7.1,2,.4,4.1-.1,6-.8,2.6-3.7,2.1-4.2-.4-.3-1.7.1-4.4.3-6.2,0-.2.1-.8.3-.9.3,0,1.5-.2,1.6-.2-.2-.7.2-.9.5-1.3.4-.7-.4-1.3-.2-1.9.1-.7.9-.8,1.2-1.4,0-.3-.5-.8-.2-1.3.3-.7,1.8-.3,2-1.5,0-.6-.3-1.3,0-1.8.1-.2,1.1-.6,1.5-.9.3-.2.3-.6.7-.5h0ZM12.3,12.7h-.8c0,1.7,0,3.4,0,5.2,0,.2-.1.4-.1.6,0,1,0,1.9.1,2.9.1,0,.1-.2.2-.3.6-1.8.7-5.2.6-7.1,0-.4,0-.8,0-1.2h0ZM11.9,21.6c.4-.2.8-.6,1-1,.7-1.4.6-5.1.4-6.7,0-.2-.1-1.1-.2-1.2-.1,0-.4,0-.6,0,0,.3.1.5.1.8.1,1.8,0,5.1-.4,6.8,0,.4-.3.9-.4,1.3h0ZM11.4,12.9h-.6c.1,2.3-.5,4.7-.1,7,0,.5.2,1.1.6,1.6,0,0,.2-8.6.2-8.6ZM10.5,13l-.7.2c0,2.1-.6,4.3-.4,6.4,0,.8.6,1.9,1.4,2-.1-.4-.3-.8-.4-1.3-.4-2.1,0-4.2,0-6.4,0-.3,0-.6,0-.9Z"/>
</svg>