<?xml version="1.0" encoding="UTF-8"?>
<svg id="Layer_1" xmlns="http://www.w3.org/2000/svg" viewBox="0 0 24 24">
  <path d="M16.47,21.77c-.34-.31-.86-2.34-1.07-2.89-.02-.06-.14-.07-.17-.15-.12-.31-.26-1.21-.43-1.42-.14-.17-.95-.41-1.22-.56-1.77-1-3.3-2.42-4.39-4.13-.49-.78-.7-1.28-1.28-2-.86-1.09-.84-2.45-1.42-3.35-.23-.35-.81-.47-.83-1.05-.01-.3.16-.64.39-.84.36-.31,1.75-.92,2.25-1.12,1.65-.67,3.78-1.35,5.5-1.8.79-.21,3.29-1.03,3.63.06.15.49-.09.89-.04,1.24.14.92.93,2.05.93,3.21,0,.43-.22.66-.24.93-.04.46.2,1.2.23,1.69.1,1.62-.26,4-.84,5.52-.13.33-.8,1.46-.82,1.6-.05.46.97,3.09,1.15,3.78.12.47.33,1.03-.14,1.36-.31.23-.91.18-1.19-.08ZM16.24,2.16c-1.84.11-7.79,2.08-9.44,3.02-.61.35-1.31.8-.66,1.5.42.45,1.05.29,1.63.21,1.79-.24,4.17-.97,5.87-1.62.62-.24,3.3-1.41,3.56-1.87.44-.76-.2-1.29-.96-1.25ZM17.19,3.73c-3.2,1.74-6.83,3.09-10.49,3.37.26.74.92,3.18,1.59,3.51.09.04.32.11.37,0-.29-.34-.42-1.11-.94-.98l.28-.14c-.2-.38-.85-1.86-.64-2.19.02-.03.26-.1.33-.1.63-.03.97.78,1.57.74.24-.01.48-.18.74-.16.52.04.76.59,1.15.63.7.07.74-.93,2-.51.19.06.46.28.61.29.42.02,1.24-.57,1.73-.52.02.13-.16.12-.26.16-.42.16-.89.32-1.33.4.83.74,1.76-.44,2.58-.46.38,0,.86.41,1.06.32.44-.18.53-.91.48-1.32-.02-.18-.19-.13-.18-.17.01-.18.11-.25.06-.54-.11-.75-.57-1.56-.73-2.32ZM17.94,8.13c-.61.01-.28.43-.28.84.51-.1.15-.47.28-.84ZM18.03,9.07h-.37c.1,1.4.04,2.93-.23,4.31-.04.18-.27.63-.24.65.47.37.71-1.58.74-1.74.14-1.07.11-2.14.11-3.22ZM9.14,11.5c.08-.08-.36-.75-.56-.56-.08.08.36.75.56.56ZM11.91,15.01c-.67-.57-1.26-1.21-1.78-1.92-.29-.4-.54-.98-.82-1.34-.09-.11-.26-.25-.36-.15-.14.13.94,1.58,1.09,1.77.79,1,1.78,1.93,2.81,2.62.07.05,1,.74.97.34,0-.1-.91-.53-1.06-.63-.31-.21-.57-.46-.85-.69ZM17.47,14.22c-.31-.29-.6.94-.65,1.12.09-.07.32-.07.35-.11.04-.04.34-.97.3-1.01ZM16.26,16.84c.16-.17.85-1.29.75-1.4-.49.15-.51.64-.89.94-.77.61-1.35.24-2.2.09-.05.26.07.16.19.23.49.26.94.53,1.52.41.21-.04.38-.23.63-.26-.37.39-.67.41-1.22.37-.04.47.38.82.38,1.31.13.12,1.16-.34,1.36-.46-.12-.28-.17-1.26-.52-1.22ZM15.51,18.62c.08.19.25.98.42,1.01.91-.31,1.57-.3.84-1.38-.41.17-.8.38-1.26.37ZM17.46,20.39c.08-.1-.19-1.1-.32-1.11-.37.25-.82.4-1.26.47.14.19.23.9.37.99.05.04,1.18-.29,1.21-.34ZM17.57,20.49l-1.22.38c.29,1.48,1.89,1.15,1.22-.38Z" fill="#c2858c"/>
  <path d="M16.35,2.61c.04.2-.1.21-.22.3-1.28.93-7.28,2.86-8.92,3.06-.23.03-.46,0-.69,0,.21-.61.25-.08.41-.09,1.44-.11,4.23-1.13,5.67-1.64,1.15-.41,2.48-.84,3.47-1.54-1.6.22-3.24.76-4.77,1.27-1.28.42-2.56.89-3.8,1.45-.31,0,.01-.17.08-.2.84-.41,1.94-.79,2.83-1.11.77-.27,5.54-1.84,5.95-1.5Z" fill="#c2858c"/>
</svg>