<?xml version="1.0" encoding="UTF-8"?>
<svg id="Layer_1" xmlns="http://www.w3.org/2000/svg" version="1.1" viewBox="0 0 24 24">
  <!-- Generator: Adobe Illustrator 29.3.0, SVG Export Plug-In . SVG Version: 2.1.0 Build 146)  -->
  <defs>
    <style>
      .st0 {
        fill: #7f1524;
      }
    </style>
  </defs>
  <path class="st0" d="M15.9,10.8h2.2c0,.1.2.8.2.8-.3,1.9-1.7,3.4-2.2,5.3-.9,1.3-1.9-.2-2-.1,0,1.7-.2,4.3-2,5-1.6.6-4.9,0-6.1-1.3-1.3-1.4-1-3.1.1-4.5.2-.3,1.8-1.6,1.5-1.9l-1.8-.3c-.2-.1-.4-.3-.4-.5-.2-.9,1.7-4.6,1.8-5.8l2.4,1.1c-.4-1.6-.4-4.2.9-5.4,1.6-1.5,5.7-1.6,7.2.2,2.5,2.9-.2,5.2-1.9,7.5h0ZM7.7,15.3c-.2.2-.7.4-1,.8-1,1.1-1.3,2.6-.4,3.9s4.3,1.7,5.7,1.3c.6-.2,1.4-1.5,1.5-2.1.4-2.5-.1-4.6,1-7.2.9-2.1,4.3-4.6,3.8-6.9-.5-2.5-3.8-3.1-5.9-2.5s-2.5,2.5-2.4,4.4c.1,1.7.6,2.2,0,4.1-.4,1.7-1.3,2.9-2.4,4.1h0ZM17.9,11.6c-.1-.6-1.9-.4-2.4-.2-.8,1.2-2.3,5-.2,5.5.6.2.9-1.7,1.2-2.2.3-.6,1.6-2.6,1.5-3.1ZM9.7,9c-.7,0-1.6-1.2-2.1-.7-.5,1.4-1.2,3-1.6,4.4,0,.3-.2.4.1.6.6,0,1.5.3,1.9.3,1,0,1.9-3.7,1.6-4.6Z"/>
  <path class="st0" d="M12.4,17.1c-.4,0-.5.1-.4-.3.2-1.3.7-3.2,1.2-4.4.3-.9,1.4-3.3,2-4,.2-.3.5-.4.9-.6l-2.4,4.8-1.2,4.5h0Z"/>
  <path class="st0" d="M8.8,16.2c.2-1.9,1.3-3.6,1.9-5.3.4-1.1.5-2.3.8-3.4.1-.4-.2-.6.5-.5-.3,2.7-1.3,5.8-2.4,8.3-.1.3-.3.8-.7.9h0Z"/>
</svg>