<?xml version="1.0" encoding="UTF-8"?>
<svg id="Layer_1" xmlns="http://www.w3.org/2000/svg" version="1.1" viewBox="0 0 24 24">
  <!-- Generator: Adobe Illustrator 29.3.0, SVG Export Plug-In . SVG Version: 2.1.0 Build 146)  -->
  <defs>
    <style>
      .st0 {
        fill: #7f1524;
      }
    </style>
  </defs>
  <path class="st0" d="M16.5,20.9c-.8.9-2.6,1.3-3.8,1.1-.7-.1-2.6-.8-3.1-1.2,0,0-1.2-1.7-1.3-1.8-.9-2.2.6-5.1,2.1-6.8.6-.7,2.8-2.7,3.8-2,1.1,1.5,2.6,2.6,3.2,4.4.7,2.1.5,4.6-.9,6.3Z"/>
  <path class="st0" d="M8.5,2c-.2.9-.1,2.1.3,3.6,0,.2,0,.3,0,.4-.7,1.1-2.3.8-2.5-.6-.2-.8,1.1-3.8,2.3-3.5Z"/>
</svg>