<?xml version="1.0" encoding="UTF-8"?>
<svg id="Layer_1" xmlns="http://www.w3.org/2000/svg" version="1.1" viewBox="0 0 24 24">
  <!-- Generator: Adobe Illustrator 29.3.0, SVG Export Plug-In . SVG Version: 2.1.0 Build 146)  -->
  <defs>
    <style>
      .st0 {
        fill: #7f1524;
      }
    </style>
  </defs>
  <g id="u9kaln">
    <path class="st0" d="M20.7,6.6c-.4-.4-1.1-.2-1.5,0-1,.5-2.1,1.9-2.9,2.6-.5.4-1.2.5-1.6,1-1.1,1.5-.3,3.9-.4,5.5,0,.3-.6,3.2-.7,3.2-.1,0-3,0-3.1,0-.1-.1-.6-2.8-.7-3.1,0-1.8.6-3.1-.1-5.1-.4-1.1-1.1-.9-1.9-1.5-.9-.7-1.7-1.8-2.8-2.5-2.3-1.4-2.6,1.6-.4,1.7.3,0,.7-.2,1.1-.1,2.8.2,2.4,4.9-.7,3.8-.6-.2-2.5-2.8-2.8-3.5-1-2.6.8-4.1,2.8-3.2.7.3,2.5,2.3,3.2,2.2,0,0,1.1-1.1,1.5-1.3,1.4-.7,3-.8,4.4,0,.4.2,1.6,1.3,1.7,1.3.8,0,2.4-1.9,3.2-2.2,1.9-.7,3.4.6,2.7,3.1-.2.8-2.2,3.4-2.8,3.7-2.8,1.2-3.7-2.7-1.4-3.6,1-.4,1.8.3,2.7-.4.4-.3.8-.9.3-1.5h0ZM20.2,9.9c.3.3,2.5-2.9.9-4.1-1.7-1.3-3.1,1.1-4.6,1.8-2.2,1-2.7,0-4.5-.1-.8,0-1.7.6-2.6.6-2.6,0-3.8-2.6-5.5-2.6-2.5,0-1.8,3.4-.3,4.6-.1-.4.6-1.2.6-1.3,0,0-.7-.1-1.1-.5-.8-.9-.3-2.2.8-2.2,1.1,0,2.5,1.6,3.6,2.1,2,.9,4.3.5,4.1,4.1,0,1.3-1,3.1-.9,4.2,0,.2.5,2.2.6,2.2,0,0,1.4,0,1.5,0,0,0,.6-1.9.6-2.1,0-1.1-.9-3-.9-4.4-.2-3.6,2.2-3.1,4.1-4,1-.4,1.8-1.5,2.7-1.8,2.4-1,2.9,2.2.6,2.5.3.2.4,1.2.5,1.2h0ZM15.4,7.5c-1.9-1.9-4.9-2-6.8,0,1.1.4,2.2-.5,3.3-.5,1.1,0,2.3,1,3.5.4ZM10.9,18.5c0,0-.5-1.9-.5-2.2,0-1.2.9-2.9.9-4.3.1-3-1.8-3-3.6-3.5.8.9,1.8.6,2.3,1.9,1,2.5-.3,5.2.7,7.8,0,0,.1.3.2.2h0ZM16.3,8.5c-2,.5-3.9.6-3.6,3.8.1,1.1.9,3,.9,3.9,0,.6-.5,1.6-.5,2.2.2,0,.1,0,.2-.2,1.1-2.7-.2-5.2.7-7.8.6-1.5,1.4-1,2.3-2ZM5.1,8.7c-1.8.4-1.1,2.9.6,3.1,2.6.2,1.9-3.6-.6-3.1ZM18.1,8.7c-2,.4-1.9,3.4.4,3.1,2-.3,2-3.5-.4-3.1Z"/>
  </g>
</svg>