<?xml version="1.0" encoding="UTF-8"?>
<svg id="Layer_1" xmlns="http://www.w3.org/2000/svg" viewBox="0 0 24 24">
  <g id="u9kaln">
    <path d="M20.7,6.6c-.41-.45-1.09-.23-1.54,0-1.05.53-2.07,1.89-2.92,2.59-.49.4-1.25.48-1.62.98-1.1,1.52-.33,3.9-.39,5.49-.01.3-.58,3.17-.71,3.24-.14.07-2.96.07-3.07-.05-.1-.11-.65-2.84-.67-3.1-.09-1.84.62-3.05-.13-5.06-.43-1.14-1.11-.9-1.86-1.5-.86-.7-1.71-1.84-2.75-2.46-2.34-1.38-2.59,1.58-.4,1.71.32.02.7-.18,1.13-.14,2.83.24,2.43,4.9-.68,3.76-.62-.23-2.55-2.76-2.83-3.51-.95-2.57.78-4.11,2.76-3.25.74.32,2.46,2.29,3.18,2.16.09-.02,1.11-1.07,1.54-1.29,1.42-.74,3.02-.75,4.45-.05.44.21,1.57,1.33,1.67,1.33.83.06,2.37-1.88,3.24-2.21,1.86-.7,3.41.59,2.73,3.06-.22.79-2.18,3.45-2.8,3.71-2.8,1.19-3.72-2.7-1.38-3.55,1.05-.38,1.76.29,2.71-.39.44-.32.82-.92.34-1.46ZM20.25,9.92c.27.34,2.47-2.91.87-4.12-1.73-1.31-3.13,1.12-4.59,1.79-2.17.99-2.7-.1-4.49-.13-.79-.01-1.72.55-2.57.57-2.62.09-3.82-2.61-5.47-2.61-2.55,0-1.79,3.36-.34,4.57-.12-.36.62-1.25.57-1.3-.04-.05-.74-.15-1.08-.53-.83-.93-.28-2.2.78-2.25s2.45,1.61,3.59,2.11c1.97.85,4.29.46,4.06,4.06-.08,1.27-.97,3.11-.95,4.16,0,.17.49,2.2.58,2.25.07.04,1.45,0,1.52-.04.08-.06.58-1.92.59-2.07.07-1.09-.87-3.02-.93-4.38-.17-3.59,2.16-3.14,4.12-4,1.01-.44,1.8-1.48,2.66-1.85,2.36-1.02,2.86,2.16.59,2.55.32.16.43,1.17.47,1.22ZM15.39,7.48c-1.88-1.91-4.93-2.05-6.75.08,1.1.4,2.22-.46,3.27-.49,1.13-.04,2.34.96,3.48.41ZM10.87,18.49c.06-.09-.54-1.86-.54-2.24-.02-1.17.87-2.91.94-4.26.15-2.96-1.79-2.97-3.63-3.46.79.88,1.8.6,2.31,1.9.98,2.53-.34,5.16.73,7.85.03.06.11.33.2.2ZM16.34,8.54c-2,.5-3.9.65-3.56,3.77.12,1.14.95,2.96.93,3.94-.02.63-.49,1.57-.54,2.24.18.04.12-.05.16-.16,1.12-2.7-.23-5.16.73-7.77.56-1.52,1.42-1,2.28-2.02ZM5.12,8.72c-1.76.35-1.14,2.92.59,3.08,2.59.24,1.91-3.58-.59-3.08ZM18.08,8.72c-1.95.37-1.93,3.42.38,3.07,2.03-.3,2.04-3.54-.38-3.07Z" fill="#c2858c"/>
  </g>
</svg>