<?xml version="1.0" encoding="UTF-8"?>
<svg id="Layer_1" xmlns="http://www.w3.org/2000/svg" viewBox="0 0 24 24">
  <path d="M17.04,7.13c-.12.11-.41.14-.5.36l-3.71,5.48c-.52.42-1.24-.23-1.34-.15-.01.01-.02.2-.08.27-1.12,1.34-3.32.35-4.59,1.17-1.19.77-1.52,2.6,0,3.19,2.1.82,3.06-.9,4.79-.69,1.06.13,2.08,1.49,1.92,2.55-.21,1.45-1.58,2.21-2.87,2.55-.19.05-1.5.35-1.26-.11.07-.12,1.98-.65,2.42-.95,1.13-.75,1.45-2.43.16-3.19-.99-.58-1.53.01-2.35.34-1.26.51-2.99.57-3.96-.52-1.28-1.44-.44-3.4,1.23-4.02,1.2-.44,2.78-.02,3.66-.52,1.08-.61-.5-.81-.1-1.66,1.48-2.09,2.93-4.19,4.35-6.31.16-.25.43-.36.51-.72.05-.2-.02-.41.06-.6.1-.22,1.33-1.29,1.6-1.43,1.32-.71,2.41.61,1.79,1.95-.22.47-1.45,2.71-1.74,2.98ZM15.75,4.29l-.23.14-4.92,7.06c-.1.45,1.42,1.45,1.83,1.41.12-.01.29-.14.37-.23l3.65-5.44c-.05-.13.07-.71.04-.73-.01-.01-.22.02-.33-.04-.47-.28.42-1.17.32-1.55-.06-.26-.5.17-.72.03-.13-.09-.06-.5-.01-.64ZM11.11,13.01c.16-.16.53-.29.09-.44-.85,1.13-2.18.71-3.35.83-1.51.16-3.04,1.56-2.45,3.17.13.34.62,1,.95,1.18.96.54,2,.46,3.01.1s1.56-1.09,2.73-.43c.2.11.86.81.92,1,.3.86-.28,2-1,2.49l-1.58.75c1.95-.27,3.93-2.15,2.29-4.03-.76-.88-1.61-.83-2.62-.43-.34.13-.75.47-.98.56-.08.03-1.57.12-1.67.11-.11-.02-1.38-.59-1.43-.65-.02-.03-.27-.58-.29-.65-.52-1.61.89-2.78,2.39-2.89,1.12-.08,2.07.25,3-.67Z" fill="#c2858c"/>
</svg>