<?xml version="1.0" encoding="UTF-8"?>
<svg id="Layer_1" xmlns="http://www.w3.org/2000/svg" viewBox="0 0 24 24">
  <path d="M15.79,2.01c-.23.91-1.2,1.09-1.9,1.52-.15.73.14,1.24-.08,1.98-.12.43-.32.62-.73.79s-1.44.23-1.29.84c.18.25.45.64.37.95-.16.64-1.01.77-1.13,1.16-.16.53.64,1.18.19,2.03-.23.42-.83.7-.35,1.27.59-.2,1.07.01,1.66,0,.19.56.07,1.12.11,1.68.15,1.99.44,4.08-.13,6.05-.77,2.61-3.73,2.11-4.2-.42-.31-1.7.15-4.38.31-6.18.02-.22.1-.83.29-.9.26-.09,1.47-.17,1.55-.24-.18-.74.22-.87.48-1.31.44-.73-.35-1.27-.25-1.87.12-.66.92-.77,1.16-1.35.08-.33-.54-.77-.25-1.33.32-.65,1.83-.31,2-1.47.09-.58-.3-1.34.02-1.83.15-.23,1.13-.58,1.5-.89.27-.22.29-.56.66-.48ZM11.45,12.75h-.76c-.03,1.72.04,3.44,0,5.16,0,.24-.11.44-.12.64-.03.97,0,1.92.11,2.88.15.03.15-.18.19-.3.65-1.78.68-5.22.57-7.13-.02-.41.02-.84,0-1.25ZM11.02,21.65c.42-.18.8-.58,1.02-.99.73-1.35.56-5.08.39-6.66-.02-.22-.14-1.15-.21-1.2-.14-.09-.38-.04-.55-.05-.02.28.1.52.11.81.1,1.79-.01,5.08-.36,6.81-.09.44-.28.85-.41,1.27ZM10.48,12.86h-.65c.15,2.34-.48,4.66-.1,6.99.09.55.21,1.15.59,1.58l.16-8.57ZM9.61,12.97l-.66.18c.01,2.11-.64,4.27-.43,6.39.07.75.6,1.85,1.41,2-.14-.43-.31-.83-.4-1.28-.44-2.13-.06-4.23.08-6.37.02-.31-.02-.62,0-.92Z" fill="#c2858c"/>
</svg>