<?xml version="1.0" encoding="UTF-8"?>
<svg id="Layer_1" xmlns="http://www.w3.org/2000/svg" version="1.1" viewBox="0 0 24 24">
  <!-- Generator: Adobe Illustrator 29.3.0, SVG Export Plug-In . SVG Version: 2.1.0 Build 146)  -->
  <defs>
    <style>
      .st0 {
        fill: #7f1524;
      }
    </style>
  </defs>
  <path class="st0" d="M17,7.1c-.1.1-.4.1-.5.4l-3.7,5.5c-.5.4-1.2-.2-1.3-.1,0,0,0,.2,0,.3-1.1,1.3-3.3.4-4.6,1.2-1.2.8-1.5,2.6,0,3.2,2.1.8,3.1-.9,4.8-.7,1.1.1,2.1,1.5,1.9,2.5-.2,1.5-1.6,2.2-2.9,2.5-.2,0-1.5.4-1.3-.1,0-.1,2-.6,2.4-1,1.1-.8,1.4-2.4.2-3.2-1-.6-1.5,0-2.3.3-1.3.5-3,.6-4-.5-1.3-1.4-.4-3.4,1.2-4,1.2-.4,2.8,0,3.7-.5,1.1-.6-.5-.8-.1-1.7,1.5-2.1,2.9-4.2,4.4-6.3.2-.2.4-.4.5-.7,0-.2,0-.4,0-.6.1-.2,1.3-1.3,1.6-1.4,1.3-.7,2.4.6,1.8,1.9-.2.5-1.5,2.7-1.7,3h0ZM15.8,4.3h-.2c0,.1-4.9,7.2-4.9,7.2-.1.4,1.4,1.4,1.8,1.4.1,0,.3-.1.4-.2l3.7-5.4c0-.1,0-.7,0-.7,0,0-.2,0-.3,0-.5-.3.4-1.2.3-1.6,0-.3-.5.2-.7,0-.1,0,0-.5,0-.6h0ZM11.1,13c.2-.2.5-.3,0-.4-.9,1.1-2.2.7-3.3.8-1.5.2-3,1.6-2.5,3.2.1.3.6,1,.9,1.2,1,.5,2,.5,3,.1s1.6-1.1,2.7-.4c.2.1.9.8.9,1,.3.9-.3,2-1,2.5l-1.6.8c1.9-.3,3.9-2.1,2.3-4-.8-.9-1.6-.8-2.6-.4-.3.1-.8.5-1,.6,0,0-1.6.1-1.7.1-.1,0-1.4-.6-1.4-.6,0,0-.3-.6-.3-.6-.5-1.6.9-2.8,2.4-2.9,1.1,0,2.1.2,3-.7h0Z"/>
</svg>