<?xml version="1.0" encoding="UTF-8"?>
<svg id="Lag_1" xmlns="http://www.w3.org/2000/svg" version="1.1" viewBox="0 0 841.89 1190.55">
  <!-- Generator: Adobe Illustrator 29.3.0, SVG Export Plug-In . SVG Version: 2.1.0 Build 146)  -->
  <defs>
    <style>
      .st0, .st1, .st2, .st3, .st4, .st5 {
        stroke: #1d1d1b;
      }

      .st0, .st1, .st2, .st3, .st4, .st5, .st6 {
        stroke-miterlimit: 10;
      }

      .st0, .st1, .st3, .st4, .st5, .st6 {
        stroke-width: 2px;
      }

      .st0, .st2 {
        fill: #1d1d1b;
      }

      .st1 {
        fill: #af635b;
      }

      .st2 {
        stroke-width: .75px;
      }

      .st3 {
        fill: #7f1625;
      }

      .st4 {
        fill: #c2858c;
      }

      .st5, .st6 {
        fill: none;
      }

      .st6 {
        stroke: #7f1524;
      }
    </style>
  </defs>
  <path class="st4" d="M185.69,710.02c.13.09-.01.3-.31,1.73-.58,2.79-.64,5.06-.69,8.82-.11,8.54,1.45,13.29-1.56,17.81-.57.86-1.71,2.58-2.71,2.36-3.14-.67-1.41-19.73-1.79-19.75-.17,0-.78,3.87-.76,9.58.02,6.59.8,8.03,1.06,15.06.36,9.61-.88,12.65-1.52,13.99-1.09,2.3-3.83,6.85-5.63,6.39-4.51-1.15-.14-33.09-.91-33.16-.35-.03-.73,6.5-3.8,15.06-1.11,3.1-1.22,2.68-2.28,5.78-2.28,6.65-2.06,9.33-4.72,12.02-.4.4-3.24,3.22-5.02,2.28-1.07-.57-1.49-2.36-1.22-4.41.16-1.02.5-3.09,1.11-5.66,6.73-28.57,29.34-48.93,30.74-47.91Z"/>
  <path class="st4" d="M382.88,1126.25s8.67-40.92,21.14-64.96c7.51-14.48,10.1-15.45,15.24-27.02,12.19-27.42,5.28-39.09,11.98-72.73,3.98-19.98,6.56-16.55,23.96-67.6,1.52-4.47,10.62-31.24,16.26-51.34,19.11-68.13,17.53-127.55,17.11-139.47-1.17-33.3-2.25-64.14-13.69-101.82-4.84-15.95-12.85-37.43-8.56-65.03,1.9-12.18,7.31-15.43,12.84-36.79,4.85-18.76,8.05-23.58,10.74-28.62,2.27-4.26,4.46-7.56,5.91-9.64,1.47,6.53,3.27,10.48,4.68,12.91.59,1.01,2.35,3.84,3.39,8.04.73,2.93-.16,3.3,6.72,16.34,9.58,18.14,12.34,19.4,17.02,28.98,9.11,18.66,2.5,21.82,9.66,38.18,6.85,15.64,18.82,25.45,42.78,45.08,5.89,4.82,10.16,7.86,16.17,12.8,2.73,2.24,5.57,4.64,8.67,7.44,11,9.91,18.35,18.96,23.46,25.3,7.19,8.92,10.78,13.38,12.62,17.82,3.79,9.12,1.39,11.69,4.78,22.54,2.75,8.82,4.7,8.32,12.04,23.12,7.73,15.59,9.68,24.44,12.42,24.07,2.83-.38,3.58-10.22,3.63-10.89,1.1-15.53-7.92-25.33-6.11-26.75,2.39-1.87,23.16,11.11,29.61,31.9,1.47,4.73,1.7,9.95,6.11,15.28,5.85,7.05,15.19,10.15,16.03,9.01.24-.33-.18-1.26-1.02-3.13-.4-.88-.81-1.61-1.16-2.16.1-1.24.19-2.48.29-3.73.41-5.49.47-13.49-1.53-22.73-2.22-10.28-6.14-18.13-11.38-25.81-5.25-7.68-11.82-15.19-19.38-24.82-18.46-23.52-30.1-43.54-37.63-56.49-12.33-21.19-22.91-43.43-27.44-52.86-12.53-26.02-16.24-33.77-24.4-44.72-10.16-13.65-12.6-12.67-19.48-22.9-6.18-9.19-9.55-17.94-17.11-55.37-8.92-44.15-6.72-44.35-12.84-66.05-3.7-13.13-6.53-20.25-10.16-36.91-3.37-15.46-2.82-17.96-5.88-25.14-2.16-5.04-10.12-23.65-27.28-30.49-9.26-3.69-10.49.32-41.72-2.67-8.18-.78-12.78-1.51-18.19-3.21-9.29-2.92-19.82-6.24-24.07-15.51-4.4-9.58.42-20.07,1.92-23.05h-63.99c2.03,5.76,4.36,15.46,0,24-2.7,5.29-8.35,10.88-33.05,17.24-33.04,8.51-41.92,3.38-53.16,11.49-13.16,9.49-15.53,27.01-17.24,41.67-11.67,100.18,1.19,125.68-15.8,169.54-9.07,23.42-17.37,28.1-26.02,42.19-6.65,10.84-9.81,20.72-11.34,25.34-2.24,6.75-3.4,12.02-4.08,15.15-7.74,35.8-7.59,49.9-14.6,71.05-2.54,7.67-2.05,2.02-11.88,27.35-12.82,33.04-19.22,49.56-22.15,55.24-8.5,16.49-15.74,26.87-12.95,29.46,1.9,1.77,7.42-1.05,10.15-2.83,8.15-5.3,8.81-12.6,16.82-28.04,1.94-3.74,5.66-10.56,11.22-18.23,5.99-8.27,14.25-19.68,19.91-17.94,2.87.88,4.04,4.83,5.61,10.09,2.93,9.84.29,14.06,3.36,19.91,1.34,2.54,4.07,5.99,10.37,8.69l.03.82"/>
  <path class="st4" d="M688.01,705.02l4.9,4.42c5.47,10.41,10.92,20.97,16.35,31.68,2.71,5.34,5.38,10.67,8.02,15.97"/>
  <path class="st4" d="M212.19,746.02c-.21-9.7-1.63-95.77,17.83-136.02,7.95-16.43,16.41-30.55,16.41-30.55,13.05-21.74,22.46-35.26,22.46-35.26,5.31-7.62,7.74-10.65,10.49-16.88,4.32-9.77,5.26-18,6.1-25.33,1.29-11.25-.22-21.17-1.99-28.94l-3.4-11.41"/>
  <path class="st4" d="M387.53,569.62c-.61,6.8-1.62,7.7-2.17,7.76-1.48.15-4.64-5.26-2.56-8.76,1.01-1.7,2.89-2.31,3.68-2.51"/>
  <path class="st4" d="M212.19,746.02c.35,9.64,1.28,23.56,3.94,40.09,1.27,7.87,8.53,39.02,23.99,81.85,20.98,58.15,32.42,65.62,39.51,103.01,8.45,44.56-3.58,56.2,1.41,104.42,4.54,43.87,19.09,78.63,31.04,101.6l2.4,4.19h73.36c-3.84-65.64-12.22-101.46-19.43-122.22-3.8-10.93-9.94-25.36-9.72-45.93.16-14.78,3.49-21.73,2.65-41.52-.57-13.36-2.35-16.59-3.53-29.15-1.77-18.8.44-30.72,2.65-49.47,0,0,6.32-53.63,4.42-111.3-.29-8.71-.66-18.18-1.77-30.92l-5.3-45.05"/>
  <path class="st3" d="M226.7,617.83c10.84-.34,27.9.53,46.79,7.96,11.26,4.43,18.89,9.86,34.15,20.73,37.66,26.83,45.21,44.34,47.57,50.62,1.31,3.5,2.12,6.48,2.61,8.49,2.89.17,7.45.25,12.91-.52,25.7-3.66,40.32-21.96,58.27-37.23,11.12-9.46,28.45-21.96,53.95-32.58-1.31-7-2.91-14.36-4.86-22.02-1.69-6.64-3.49-12.94-5.36-18.9-25.66,4.75-60.86,8.48-102.27,4.59-50.51-4.75-90.58-19-117.08-30.86-4.47,6.99-9.01,14.61-13.48,22.84-5.08,9.37-9.45,18.39-13.2,26.9Z"/>
  <path class="st3" d="M326.44,462.96c-4.04,1.58-14.93,6.18-28.63,4.43-7.74-.99-13.83-3.68-17.71-5.76-5.38-7.13-7.85-13.5-9.08-17.59-7.97-26.42,6.1-54.33,8.69-58.96,2.54-4.54,5.43-10.53,7.84-17.84,0,0,2.79-8.49,4.1-17.72,3.37-23.74-5.91-53.68-6.99-57.08,3.35-.41,6.71-.81,10.06-1.22l10.25,69.46c5.09,10.78,13.15,24.69,25.84,38.57,21.4,23.41,45.17,34.92,59.24,40.41,10.62-3.84,31.55-13.02,50.33-33.65,19.92-21.9,26.9-45.13,29.48-56.19-2.84-21.13-5.67-42.26-8.51-63.39l8.51.7,12.67,67.21c1.16,3.67,3.13,9.51,6.08,16.49,4.1,9.7,7.2,14.76,9.32,19.01,8.43,16.9,12.37,43.09,1.66,63.16-2.34,4.38-4.89,7.57-6.54,9.46-5.45,2.41-14.34,5.54-25.32,5.49-12.92-.06-22.25-4.49-26.59-6.33-32.96-13.97-87.31-9.32-114.69,1.36Z"/>
  <path class="st4" d="M306.58,299.88c6.83-.33,15.98-.1,26.49,2.1,10.46,2.19,18.91,5.64,25.02,8.68"/>
  <path class="st4" d="M462.56,299.88c-6.83-.33-15.98-.1-26.49,2.1-10.46,2.19-18.91,5.64-25.02,8.68"/>
  <path class="st1" d="M444.6,222c7.19,1.21,20.74,2.34,34.8-4.09,4.24-1.94,10.34-4.72,15.48-10.97,9.23-11.22,8.43-25.24,9.76-25.09,1,.11,1.48,7.95.45,16.43-1.15,9.51-3.62,15.09-2.86,15.42.96.42,6.56-7.76,9.96-17.2,2.08-5.76,5.62-18.34,1.46-41.1-1.41-7.71-5.36-23.98-18.03-48.08-12.01-22.84-24-45.63-49.88-61.3-9.39-5.69-25.04-15.16-44.47-13.82-5.04.35-5.88,1.11-27.04,4.81-23.77,4.15-23.43,3.3-28.24,4.81-17.65,5.51-28.18,18.68-37.26,30.05-10.14,12.69-14.77,23.68-24.04,45.67-11.26,26.73-14.28,42.3-15.62,52.28-1.84,13.7-2.69,26.59,4.21,35.46.95,1.23,4.17,5.09,6.76,11.13,2.05,4.78,4.91,11.45,1.99,14.68-2.57,2.85-8.94,2.22-12.81-.46-4.28-2.96-4.65-8.02-5.95-7.78-1.24.23-2.21,5.11-.46,9.15,2.27,5.24,8.07,6.71,8.69,6.86,5.19,1.24,9.4-2.04,10.06-.91.47.79-1.24,2.92-3.23,4.33-4.98,3.52-10.86,1.92-10.95,2.53-.12.81,9.76,5.92,18.3,2.29,7.77-3.3,10.98-12.38,11.89-11.89.86.46-4.06,7.4-2.4,11.19,2.19,5.02,16.48,5.76,54.65-3.1"/>
  <path class="st4" d="M320.75,213.78c-1.46.72-3.76,1.59-6.55,1.5-7.04-.21-11.58-6.38-14.62-10.14-6.67-8.23-7.01-17.15-7.07-19.81-.07-2.88-.13-8.44,3.07-13.68.8-1.31,2.19-3.24,4.52-5.12.06-.02.13-.04.2-.06,1.42-.44,3.52-.65,6.36.41"/>
  <path class="st4" d="M457.38,142.69c1.06-1.16,4.03-4.09,8.02-3.96,6.57.21,10.16,8.55,10.94,10.21,3.85,8.15,1.53,16.65.13,21.79-1.04,3.81-3.97,14.58-12.22,18.28-2.64,1.19-5.05,1.39-6.62,1.22l-2.51-.28"/>
  <path class="st4" d="M304.99,138.98c-.39,13.09.97,23.45,1.65,27.9,1.92,12.62,4.95,21.83,5.59,23.75,4.73,14.1,11.42,34.09,30.87,48.32,18.94,13.87,39.28,14.44,45.69,14.37,6.98-.09,21.15-.44,35.44-9.59,11.82-7.56,17.74-17.3,20.37-21.73,2.04-3.43,6.1-10.94,10.52-39.09.33-2.08,4.31-29.38.97-62.27-.53-5.2-1.38-11.83-6.28-14.96-8.1-5.18-21.2,3.07-23.17,4.34-.24-4.42-.91-10.85-2.9-18.34-2.78-10.48-7.25-19.62-8.21-19.31-.66.21.38,4.85,3.01,22.07,1.66,10.88,1.98,13.84,0,16.21-2.24,2.67-5.53,2.33-15.4,2.99-18.06,1.2-18.22,3.06-21.26,1.72-14.28-6.25-8.76-46.2-11.72-46.36-1.3-.07-3.05,7.54-4.23,16.45-2.59,19.49-1.05,34.47-1.48,34.5-.77.07-4.68-48.14-7.32-48.06-.93.03-1.29,6.01-3.86,31.38-.76,7.5-1.41,13.76-1.88,18.16-4.6,1.85-9.28,3.68-14.05,5.5-6.7,2.55-13.3,4.96-19.79,7.24-2.23-5.93-4.55-14.2-4.83-24.14-.43-15.62,4.43-27.01,4.34-27.03-.12-.03-11.09,23.33-12.07,56Z"/>
  <path class="st5" d="M311.23,207.59c-4.6.52-8.51,3.25-10.08,7.16-2.29,5.69,1.11,11.93,5.37,14.48,5.79,3.46,14.95,1.18,19.81-6.65"/>
  <path class="st5" d="M462.55,180.94c1.52-.58,4.94-1.63,8.08-.15,5.83,2.75,8.38,13.19,3.2,18.74-3.96,4.25-11.05,4.28-15.54,1.37-2.19-1.42-3.44-3.33-4.11-4.62"/>
  <g>
    <path class="st5" d="M365.94,220.12c7.78.38,17.01.27,27.32-.94,9.92-1.17,18.62-3.11,25.9-5.18"/>
    <path class="st5" d="M377.48,229.73c1.41.95,8.62,5.61,18.13,3.77,7.96-1.54,12.58-6.67,13.89-8.24"/>
    <path class="st5" d="M408.51,216.65c-1.08-.89-9.69-7.78-20.91-5.26-7.85,1.76-12.34,7.07-13.67,8.78"/>
  </g>
  <path class="st5" d="M378.97,168.03c-.21,3.16-.7,8.04-1.99,13.92-1.48,6.76-2.85,9.48-1.47,11.5.99,1.46,4.07,3.52,16.05.43"/>
  <ellipse class="st0" cx="350.97" cy="166.52" rx="6.96" ry="9.16" transform="translate(-21.67 56.77) rotate(-8.97)"/>
  <path class="st0" d="M422.4,154.92c.79,5-1.65,9.53-5.44,10.13s-7.51-2.97-8.3-7.96c-.79-5,1.65-9.53,5.44-10.13,3.8-.6,7.51,2.97,8.3,7.96Z"/>
  <path class="st5" d="M333.24,162.73c2.4-1.88,7.77-5.57,15.57-6.63,5.77-.78,10.5.19,13.25.99"/>
  <path class="st5" d="M401.16,151.8c1.34-1.41,5.48-5.4,12.26-6.63,7.3-1.32,12.93,1.43,14.58,2.32"/>
  <path class="st5" d="M329.93,138.21c2.63-1.47,7.33-3.66,13.58-4.31,6.67-.69,12,.68,14.91,1.66"/>
  <path class="st5" d="M398.05,127.73c2.5-1.69,7-4.25,13.18-5.42,6.59-1.24,12.01-.32,15,.42"/>
  <path class="st5" d="M483.76,195.88c-.67,3.65-1.89,8.31-4.17,13.41-2.04,4.57-4.38,8.24-6.44,11.02"/>
  <circle class="st2" cx="365.24" cy="205.66" r=".71"/>
  <path class="st6" d="M339.48,177.95"/>
</svg>