<?xml version="1.0" encoding="UTF-8"?>
<svg id="Layer_1" xmlns="http://www.w3.org/2000/svg" viewBox="0 0 24 24">
  <g id="awt0D6.tif">
    <g>
      <path d="M18.43,2.7c1.69.43,2.23.84,2.84,2.44.86,2.28.86,6.69.59,9.14-.08.7-.29,1.48-.37,2.19-.14,1.27-.01,2.43-.52,3.65-.1.24-.64.99-.88,1.05-.1.02-.26-.02-.36,0-.97.29-1.55.38-2.54.48-3.34.36-6.68.51-10.02.06-.2-.03-.25-.14-.38-.17-.32-.07-.64-.02-.91-.07-.43-.08-.94-.27-1.39-.31-.2-.02-.25.09-.34.09-.55-.01-1.63-.57-1.82-1.12-.07-.21-.03-.41-.07-.53-.02-.05-.12-.06-.15-.16-.31-.96.03-2.13.13-3.1.15-1.44.14-2.77.17-4.23.02-.99.06-1.99.06-2.99-.01-1.62-.35-4.86,1.44-5.7.58-.27,1.73-.6,2.34-.76,1.65-.43,3.18-.06,4.86-.23.8-.08,1.97-.46,2.71-.43.07,0,.29.11.35.12.07,0,.11-.07.17-.06.73.06,1.49.26,2.22.37.62.1,1.27.12,1.87.27ZM15.51,5.36c-.28-.39-.6-1.37-.52-1.84.03-.18.43-.72.37-.78-.02-.02-.37-.12-.42-.13-.85-.14-1.49-.06-2.31.06-.74.1-1.48.19-2.21.32-.37.91-.7,2.47-.29,3.4.2.47,1.66,1.98,2.15,2.11.39.11.92.12,1.35.24s.83.37,1.26.47c.51.11,1.13.11,1.66.18.72.09,1.17.28,1.92.16l1.26-.34c-.22-.43-.37-.89-.46-1.37-.04-.22-.11-.65-.12-.86-.01-.15.09-.26.08-.34-.03-.39-.18-1.05-.17-1.41,0-.17.13-.32.09-.51l.07-.05.07.06c-.06-.21.41-.89.34-1-.37-.15-.75-.24-1.09-.46-.92-.23-1.86-.32-2.8-.47.06.26-.16.42-.23.65-.21.63.06,1.25.49,1.71.09.1.5.25.22.49-.14.12-.64-.14-.73-.27ZM9.95,2.98c-.22-.12-.38,0-.56,0-.59-.02-1.26-.11-1.84-.09-.72.02-3.54.89-4.01,1.39-.94,1.03-.7,4.19-.7,5.51,0,.44-.16,1.53-.11,1.86.01.09.38.68.45.85.44,1.15.64,2.16,1.14,3.35s.93,2.44,1.6,3.49c.36.56.84,1.08,1.23,1.63.11.16.03.29.28.35,1.68.41,4.8.35,6.56.17.05,0,.1-.08.15-.08.11,0,.09.09.11.09.41-.05.82-.22,1.25-.15-.38-.19-.81-.26-1.19-.43-.67-.3-1.25-.84-1.87-1.16-.18-.09-.54-.14-.77-.29-.41-.26-.82-.81-1.18-1.14-.03-.02-.12,0-.14,0-.01-.01-.03-.18-.14-.3-.28-.3-.91-.62-1.19-.91-.62-.64-.65-1.28-.97-2.02-.14-.33-.39-.63-.54-.97-.42-.96-.48-1.81-.74-2.78-.22-.81-.63-1.7-.84-2.53-.14-.55-.15-1.27-.34-1.79-.08-.21-.38-.36-.22-.67.13-.18.46.36.51.47.27.52.22.88.36,1.39.68,2.55,1.43,5,2.49,7.41.12.27.33.66.54.87.73.73,1.61.43,2.55.55-.1-.12-.14-.23-.18-.38-.39-1.36-.88-3.16-.91-4.56,0-.39.25-.56.4-.17s.11,1.07.18,1.49c.15.88.38,1.88.71,2.72.02.04.14.06.15.12.06.22,0,.58-.01.81,1.14.06,2.28.02,3.42-.03.21-.06.04-.25.06-.33.02-.12.13-.25.13-.34.11-1.8-.47-3.71-.9-5.43-.27-1.08.05-1.45-1.28-1.63-1.93-.27-3.86.42-4.98,2.07-.14.2-.29.98-.62.82-.16-.08-.13-.31-.09-.45.2-.6,2.09-2.3,2.71-2.57.35-.15.81-.25,1.19-.32-.35-.27-.6-.63-.9-.94-.12-.12-.39-.28-.52-.42-.66-.73-.97-1.89-.82-2.86.02-.14.21-.15.11-.35l.29-1.34ZM21.37,8.86c-.09-.06-.99.68-1.2.71l-1.88.51c.43.16,1.09.53,1.4.86,1.11,1.18.86,4.25,1.02,5.79,0,.09.01.42.13.35.29-1.86.66-3.75.54-5.62.17-.86.07-1.74,0-2.6ZM16.51,9.97c.05-.16-1.36-.21-1.47-.23l.32,1.38c.08.05.62-.76.73-.86.05-.05.41-.26.42-.29ZM19.11,11.14c-.65-.64-1.74-1.23-2.59-.65-1.47,1.01-.69,2.07-.48,3.41.16,1.04.1,2.11.25,3.15.5.07.95.23,1.46.23.27,0,.62-.14.83-.15.36-.02.88.08,1.27.03.6-.08.12-.76.19-1.17.01-.1.1-.11.12-.23.17-1.24-.14-3.73-1.06-4.63ZM19.98,20.53c.61-.48.78-1.66.85-2.39,0-.09.18-.24,0-.39h-3.68c-1.16-.39-2.45-.14-3.62-.15-1.03,0-2.06-.1-3.1-.09.25.18.42.47.64.67.46.44.89.74,1.44,1.01.84.41,1.65,1.04,2.46,1.34,1.44.52,3.68,1.04,5.01-.01Z"/>
      <g>
        <path d="M16.36,6.67c.17.14-.38,1.28,0,1.53.1.07.22.03.25.05.15.1-.05,1.18-.51.62-.13-.16-.36-1.06-.35-1.27,0-.15.12-.31.14-.41,0-.04-.07-.1-.07-.19.02-.19.3-.51.52-.34Z"/>
        <path d="M12.98,7.03s-.06-.12-.06-.15c-.05-.25-.19-1.36-.18-1.58,0-.05.07-.19.1-.21.46-.29.42,1.08.45,1.25.04.22.19.22.13.54-.04.24-.27.35-.44.16Z"/>
      </g>
    </g>
  </g>
</svg>