<?xml version="1.0" encoding="UTF-8"?>
<svg id="Layer_1" xmlns="http://www.w3.org/2000/svg" viewBox="0 0 24 24">
  <g id="BypSCY.tif">
    <g>
      <path d="M19.92,5.15c.4.36,1.86,1.81,2.11,2.2,1.17,1.77-1.06,1.32-1.32,2.21-.1.34.44,2.28.47,2.89.01.2,0,.85-.37.61-.29-.19-.72-3.63-1.86-2.86-.47.32-.01,1.05.03,1.41.03.32-.02.65.01.96.06.55.55,1.8-.13,1.95-.41-.03-.4-1.52-.51-1.92-.06-.22-.49-1.33-.59-1.48-.28-.44-.98-.33-1.29-.04-.37.34.13,1.52.17,1.98s.09,2.01.05,2.41c-.03.29-.07.47-.43.42-.31-.1-.27-1.64-.34-1.97-.08-.42-.54-2.32-.82-2.46-.32-.16-1.24-.03-1.4.3-.23.47.17,1.99.19,2.61.01.31,0,.99,0,1.34s-.05,1.16-.5.85c-.23-.16-.21-1.89-.27-2.28-.13-.86-.29-2.6-1.37-2.52s-.54.7-.56,1.27-.12,1.75-.27,2.28c-.09.32-.03.4-.44.33-.15-.78-.07-3.25-.56-3.75-.26-.27-1.69-.49-2-.18-.41.4-.08.9-.11,1.33-.03.48-.09,1.51-.74,1.27-.08-.94.17-2.9-.69-3.5-.53-.37-1.66-.36-1.5-1.11.3-.01.59-.01.88.03,1.2.17,2.64.79,3.81.93,2.49.3,7.21-.77,9.54-1.75.19-.08,1.48-.71,1.53-.78.12-.18.09-.52-.06-.68-.13-.13-3.11-1.04-3.5-1.12-.16-.03-.41-.07-.56-.04-.09.02-.72,1.34-.88,1.57-1.35,1.96-4.39,2.63-6.39,1.3-1.1-.73-.98-1.31-1.63-2.13-.59-.74-.76-.19-1.36-.04-1.07.26-1.81.6-2.78.87-.24.07-.94.27-1.01-.06.61-1.73,2.02-3.24,3.58-4.18,4.75-2.87,9.81-2.16,13.89,1.5ZM8.79,6.34c-.23.36.28,1.26.54,1.55,1.19,1.34,3.77,1.14,4.98-.11.39-.4,1.42-1.61.45-1.8-.91-.18-.73.39-1.02.87-.78,1.28-2.76,1.32-3.68.19-.18-.22-.28-.75-.52-.83-.15-.05-.69.03-.75.12Z"/>
      <path d="M3.75,21.68c-.66.62-1.57.28-1.88-.53-.82-2.12.8-5.39,1.26-7.55.13-.62.09-1.33.3-1.95.42.25.19.93.26,1.38.3,2.17,1.01,4.84.7,7.04-.04.27-.46,1.45-.64,1.61Z"/>
    </g>
  </g>
</svg>