<?xml version="1.0" encoding="UTF-8"?>
<svg id="Layer_1" xmlns="http://www.w3.org/2000/svg" viewBox="0 0 24 24">
  <g id="_x39_RjHN3.tif">
    <g>
      <path d="M14.82,11.48c-.06.11-.4.3-.42.51l.59,2-.1,1.37-3.03-1.12.12,5.5.16.1c.75-.44,1.16-1.06,2-1.41.55-.23,2.14-.63,2.55-.15.08.68-.24,1.45-.65,1.98-2.03,2.64-7.98,2.21-9.33-.95-.15-.35-.48-1.38.11-1.45,1.07-.12,2.89.78,3.67,1.51.3.28.45.74.81.93.37-1.92.14-3.9,0-5.84-.64.1-1.81,1.61-2.27,1.61-.88,0-.59-3.2-.77-3.63-.08-.2-1.91-.77-2.05-1.36-.2-.85,2.71-1.67,2.95-1.97s.68-3.26,1.28-3.37c1.1-.19,1.98,2.53,2.33,2.7.4.18,2.49-.77,2.89-.15.09.14-.05,1.66-.1,1.84-.07.27-.58,1.06-.75,1.36ZM11.27,6.95c-.07-.09-.55-.55-.71-.53-.47.21-.71,2.8-.89,3.06-.09.13-2.68.96-2.74,1.48-.05.48,1.66.74,1.83,1.04.2.36.08,3.25.42,3.35l2.37-1.92,2.98,1.13c.28-.54-.81-2.4-.81-2.57.02-.38,1.8-2.39,1.33-3.3-.47-.06-2.31.61-2.59.48-.18-.08-.96-1.92-1.21-2.23ZM10.26,19.57s-.2.1-.29.04c-.47-.32-3.29-2.12-2.69-.49.43,1.17,2.48,2.56,3.79,2.07.11-.17-.6-.96-.75-1.2-.08-.13-.04-.4-.06-.42ZM13.62,19.3c-.59.37-1.48,1.43-1.7,2.12.5.79,4.69-1.33,4.04-2.78-.19-.14-2.07.49-2.34.66Z"/>
      <path d="M19.99,6.57c.28-.02.62.53.4.69-.62-.31-1.53,1.41-2.11.63-.21-.28,1.6-1.31,1.72-1.32Z"/>
      <path d="M17.33,14.11c.28-.11,1.85.09,1.99.36.08.18,0,.48-.22.51-.11.02-2.56-.54-1.77-.87Z"/>
      <path d="M13.39,2.07c.08-.08.21-.1.28.01.21.25-.44,2.22-.56,2.25-.8.04.19-2.17.28-2.26Z"/>
      <path d="M5.08,13.59c.05.09-.95,1.6-1.03,1.66-.25.2-.5,0-.52-.23s1.34-1.8,1.55-1.43Z"/>
      <path d="M4.59,5.43c-.63-1.22,2.95.74,1.81.67-.22-.24-1.74-.52-1.81-.67Z"/>
    </g>
  </g>
</svg>