<?xml version="1.0" encoding="UTF-8"?>
<svg id="Layer_1" xmlns="http://www.w3.org/2000/svg" viewBox="0 0 24 24">
  <g id="_x36_1WxQP.tif">
    <g>
      <path d="M17.31,14.7c-.29.78-.16.69-.03,1.44.14.85-.39,1.44-.95,2-.61.62-1.3.76-2.04,1.14-.32,1.17-1.09,3.01-2.62,2.67-1.45-.32-1.94-2.79-2.3-3.99-.74-.1-1.16-.12-1.77-.58-2.25-1.68-.92-3.19,0-5.11.4-.84.2-1.23.37-2.03.05-.25.2-.42.25-.62.17-.61.23-1.44.39-2.11.37-1.58.87-2.9,1.81-4.22,1.35-1.89,2.07-1.63,3.31.16.72,1.04,1.29,2.36,1.6,3.58.08.33.12.92.24,1.18.06.13.24.32.33.48.28.5.62,1.05.88,1.55.32.61.33,1.04.49,1.68.36,1.41.59,1.28.04,2.76ZM14.77,7.51c-.17-1.13-.63-2.26-1.21-3.23-.22-.37-1.08-1.65-1.5-1.69-.33-.04-.73.49-.92.73-.74.92-1.95,3.39-2.28,4.52.21-.4.94-2.17,1.23-2.52.19-.23.53-.44.69-.64.26-.33.78-1.72,1.42-1.19.26.21.77,1.08.91,1.41.15.35.33.72.33.72l.12.23c.39.58.62,1.26,1.21,1.68ZM12.48,4.98c-.15-.33-.4-.65-.61-.94-.31.42-.66.91-.71,1.45-.04.38.05.38.4.45-.21,1.54-.64,3.08-.74,4.65-.16,2.67.2,5.37,1.19,7.86,0,0,.1.34.36.34.39-.76.7-1.56.95-2.39.9-3.04,1.15-5.66-.07-8.67-.12-.31-.75-1.47-.76-1.68,0-.09.09-.14.12-.22.1-.29-.01-.6-.13-.86ZM11.34,18.46c-.52-1.52-.95-3.04-1.07-4.66-.06-.87-.1-1.87-.07-2.74.05-1.58.42-3.13.71-4.67-.27-.15-.33-.41-.37-.69-.24.3-.31.69-.48,1.03-.16.32-.46.66-.58.97-.15.38-.14.84-.28,1.26-.09.26-.25.49-.36.75-.03.06-.05.13-.08.17-.02.02-.04.1-.07.14-.28.43-.17,1.01-.23,1.5-.21,1.63-2.55,3.5-.93,5.06.76.73.89.63,1.86.81.87.16,1.34.44,1.95,1.08ZM14.82,8.3c-.37-.33-.82-.55-1.1-1.01.27.8.62,1.56.77,2.4.47,2.67.07,4.91-.72,7.44-.22.71-.55,1.38-.85,2.05.26-.08.54-.11.79-.23,1.11-.52,2.02-.84,2.76-1.87.56-.78.03-1.02.08-1.83.04-.7.58-1.19.53-1.93-.02-.37-.25-.8-.34-1.17-.09-.34-.12-.7-.22-1.04-.17-.59-1.24-2.42-1.69-2.81ZM11.59,20.56c-.17-.3,0-.9-.16-1.13-.05-.09-.85-.83-.97-.94-.11-.1-.24-.18-.37-.25-.07.07.42,1.54.5,1.74.2.49.71,1.4,1.3,1.46.92.08,1.43-1.06,1.68-1.77-.43.14-.78.14-1.1.51-.12.14-.27.46-.43.54s-.36.02-.45-.14Z"/>
      <path d="M12.32,14.09c.27-.72,1.11-1.18,1.21-.04.08.87-.52,2.42-1.11,3.07-.29.32-.35.39-.55-.03-.31-.64-1.08-3.24-.35-3.68.51-.31.74.71.8.68Z"/>
    </g>
  </g>
</svg>