<?xml version="1.0" encoding="UTF-8"?>
<svg id="Layer_1" xmlns="http://www.w3.org/2000/svg" viewBox="0 0 24 24">
  <g id="RlLqt5.tif">
    <g>
      <path d="M13.72,7.7c.1-.02.37.12.38.24.02.22-.67,1.51-.87,1.6-.12.05-.43-.09-.36-.27.19-.2.68-1.54.84-1.58Z"/>
      <g>
        <path d="M22,14.94c-.03.82-.1.57-.7.64-.45.06-.89.28-1.33.32-1.71.14-3.04-.45-4.63-.86-.38-.1-1.48-.36-1.8-.32-1.06.14-2.16.99-3.16,1.08-1.84.16-2.6-.35-4.21-.76-.91-.24-1.54-.1-2.43.1-.39.09-1.07.36-1.4.39-.27.02-.26-.27-.12-.36,1.2-.33,2.4-.74,3.66-.7.37-1.11.79-2.16,1.75-2.89,1.63-1.25,4.18-1.53,6.13-.97,1.74.5,2.91,2.49,3.34,4.15.01.05.04.08.08.1.16.09,1.16.29,1.4.33.28.04.67.1.94.11.87.03,1.62-.43,2.49-.37ZM16.11,14.53c.05-.05-.23-.68-.27-.8-.38-.91-.66-1.33-1.47-1.91-1.52-1.1-4.5-.98-6.04.03-1.03.67-1.39,1.59-1.81,2.7,1.22.35,2.63.67,3.91.58.54-.04.98-.35,1.47-.54.63-.24,1.64-.57,2.31-.5.61.06,1.29.36,1.91.44Z"/>
        <path d="M3.96,17.91c.06-.39-.03-.44.39-.49,1.29-.15,2.85-.24,4.13-.03,1.5.24,2.85.87,4.39.42.94-.27,1.64-.72,2.67-.85,1.53-.19,4.27.05,5.79.41.04,0,.11.02.12.07.01.05-.35.59-.39.7-.43-.04-.85-.16-1.28-.22-1.58-.22-3.59-.49-5.13-.08-.9.24-1.64.73-2.62.8-1.7.12-3.23-.68-4.89-.78-1.06-.07-2.12.25-3.17.04Z"/>
        <path d="M11.39,5.37c.11-.03.42-.05.43.11-.02.73.02,1.46,0,2.19,0,.11-.05.21-.05.32,0,.25.05,1.1-.06,1.26-.05.07-.41.07-.46,0-.02-.02-.06-.49-.07-.57-.06-.98.12-2.02.04-3.01,0-.1.07-.26.17-.29Z"/>
        <path d="M5.43,7.75s.3-.19.32-.19c.18.03,1.64,2.36,1.92,2.64.07.17-.15.48-.34.39s-.94-1.15-1.12-1.4-.79-1.07-.83-1.31c0-.05,0-.09.04-.13Z"/>
        <path d="M5.05,13.08c.04.06-.01.44-.07.45-.86-.11-1.77-.37-2.51-.82-.15-.09-.5-.27-.46-.48.02-.14.19-.44.37-.34.85.47,1.74.89,2.68,1.18Z"/>
        <path d="M16.51,7.65c.15-.02.4.29.31.45-.52.51-.9,1.21-1.37,1.74-.26.29-.47.58-.73.09.26-.36,1.47-2.23,1.79-2.28Z"/>
        <path d="M17.99,13.18l2.85-.82c.12,0,.19.31.19.39,0,.14-.5.27-.63.31-.71.22-1.46.32-2.18.52-.28.05-.37-.17-.23-.4Z"/>
        <path d="M6.1,11.66c.06.1-.24.67-.42.63-.41-.2-.85-.36-1.25-.58-.11-.06-.61-.32-.6-.43,0-.05.23-.44.33-.43l1.95.82Z"/>
        <path d="M8.88,8.06c.18-.04.22.1.3.23.12.19.57,1,.46,1.18-.05.08-.35.24-.45.09-.05-.07-.51-1.15-.52-1.22-.02-.15.06-.25.21-.28Z"/>
        <path d="M17.15,10.16c.16-.03.31.29.27.4-.04.1-.78.6-.9.65-.27.11-.38-.15-.26-.35.05-.08.83-.69.9-.7Z"/>
      </g>
    </g>
  </g>
</svg>