<?xml version="1.0" encoding="UTF-8"?>
<svg id="Layer_1" xmlns="http://www.w3.org/2000/svg" viewBox="0 0 24 24">
  <g id="lcF7XB.tif">
    <path d="M11.41,2.02c.19.02,1.05.33,1.21.44.07.05.37.44.4.44.18-.09.27-.3.43-.43.37-.29,1-.51,1.44-.27.04.02.6.62.61.66.76,2.07-.34,5.26-1.63,6.97-.14.18-.58.74-.8.73-.18,0-.17-.18-.18-.19-.07-.05-.74.32-.89.3l.11,1.96s.39-.3.44-.35c.64-.61,1.27-1.25,1.83-1.95.86-1.08,1.72-2.14,2.67-3.1.07-.07.39-.42.47-.22.05.13-.06.31-.06.43,0,.04.26.57.29.71.27,1.03.08,3.87-.36,4.84-.37.81-2.06,2.82-2.74,3.34-.91.7-2.66,1.31-3.74,1.69-.14.05-.46.04-.57.18-.24.51-.56.97-.81,1.48-.36.72-.63,1.48-1.08,2.14-.15.22-.22.17-.41.15-.02,0-.04.05-.07.04,0,0,0-.05-.02-.05-.36-.1-.43-.13-.38-.58.1-.81.62-1.19,1.03-1.83.14-.22.59-.88.67-1.07.06-.13,0-.3.05-.46.04-.14.34-.5.42-.66.65-1.41,1.5-4.09,1.35-5.61,0-.07-.14-.58-.17-.62-.11-.13-.91-.35-1.1-.44-.82-.39-1.52-.86-2.15-1.49-.9-.92-1.63-3.25-1.56-4.54.03-.65.37-1.62,1.05-1.83.62-.2,1.3-.08,1.82.29.38-.85,1.56-1.18,2.43-1.07ZM8.86,4.36c-.04.35.03.78,0,1.14.2-.03.22-.34.24-.38.45-.73,1.35-1.26,2.22-1.29.23,0,.95.13,1.18.2.29.09.54.29.83.38-.15-.42-.48-1.47-.83-1.72-.11-.08-1.04-.35-1.2-.36-.55-.05-1.8.15-2,.77-.05.16-.01.29-.04.37-.03.08-.13.07-.17.13-.06.12-.22.63-.23.76ZM14.87,2.64c-.27-.61-1.46.05-1.61.53-.06.19.38,1.08.46,1.36,0,.03.05.7.23.35.13-.25.95-1.94.96-2.05.01-.12,0-.11-.04-.19ZM8.37,3.1c-.39-.13-.82-.09-1.21,0,.07.17,0,.37.04.55.04.19.78.7.96.94.11.15.2.49.36.64,0-.66.11-1.24.3-1.87-.14-.04-.32-.21-.44-.25ZM15.26,3.07c-.17-.09-.07.04-.12.13-.22.37-1.1,1.89-1.11,2.22,0,.21.21.77.24,1.02.1,1.04-.25,2.01-.7,2.9-.06.12-.1.37-.16.49-.09.17-.37.27-.33.42.07.02.53-.51.6-.61.97-1.32,1.86-3.7,1.84-5.32,0-.41-.21-.84-.25-1.25ZM6.9,3.38s-.08,0-.11,0c-.4.67-.42,1.32-.35,2.08.08.92.76,2.8,1.4,3.46.56.58,1.37,1.17,2.14,1.47.07.03.18.07.26.05-.3-.21-.52-.57-.7-.9-.3-.56-.85-1.74-.86-2.34l.11-1.22c-.09,0-.14-.01-.21-.07-.19-.17-.56-1-.79-1.28-.14-.17-.75-.63-.8-.74-.08-.17-.07-.5-.08-.52ZM11.76,4.17c-.18-.08-1.01.03-1.21.1-.22.07-.96.65-1.09.84-.04.07-.05.26-.06.27-.14.23-.28.24-.35.6-.24,1.35.23,2.75,1,3.85.54.77,1.95.78,2.67.25.61-.45,1.12-2.1,1.22-2.84.09-.65-.1-2.07-.66-2.48-.07-.05-.81-.43-.86-.43-.02,0-.32.08-.34.08-.09.04-.08.21-.3.16-.24-.06.16-.3-.03-.39ZM17.22,7.53c-.45.46-.94.91-1.37,1.39-.67.76-1.21,1.63-1.91,2.38-.45.48-.98.96-1.45,1.43-.06.06-.35.24-.36.26-.06.11-.12.93-.18,1.16-.08.35-.21.9-.3,1.24-.06.2-.44,1-.4,1.14h.07c1.13-.82,2.03-1.86,2.81-3.02.48-.72,1.22-1.9,1.54-2.68.06-.15.26-.93.31-.98.18-.18.32.03.3.22,0,.08-.11.1-.13.15-.71,1.93-2.23,4.44-3.77,5.83-.54.48-1.33.82-1.4,1.63.73-.24,1.46-.53,2.17-.83,1.5-.63,1.66-1.05,2.64-2.24.54-.65,1.06-1.05,1.4-1.88.32-.79.53-3.4.37-4.23-.02-.12-.29-.95-.35-.95ZM11.23,10.67s-.35.02-.35.11c.23.13.21.11.35-.11ZM11.88,10.78l-.56-.05c.1.26.01.56.03.85.02.34.19.81.03,1.13-.3,2.7-1.33,5.16-2.81,7.37-.14.21-.41.45-.51.69s-.1.55-.23.79c0,.15.24.15.35.2.03-.34.35-.54.5-.79.28-.47.49-1.13.74-1.63.58-1.15,1.29-2.26,1.72-3.47.61-1.7.79-2.71.64-4.53-.02-.2,0-.37.11-.55ZM10.64,17.67h-.11v.16h.11v-.16Z"/>
  </g>
</svg>