<?xml version="1.0" encoding="UTF-8"?>
<svg id="Layer_1" xmlns="http://www.w3.org/2000/svg" version="1.1" viewBox="0 0 24 24">
  <!-- Generator: Adobe Illustrator 29.3.0, SVG Export Plug-In . SVG Version: 2.1.0 Build 146)  -->
  <defs>
    <style>
      .st0 {
        fill: #7f1524;
      }
    </style>
  </defs>
  <g id="CJevHf.tif">
    <g>
      <path class="st0" d="M14.5,6.9c.1-.2.6-.7.8-.8.1,0,.6.5.7.6,1.1.9,2.3,1.2,3.7.8.2,0,1.2-.4,1.2-.7s-.3-.1-.5-.2c-1-.2-1.1-2-2.6-2.2-1.6-.2-2.8.8-3.7,2,0-.2,0-.6.2-.8,0-.1.5-.4.7-.6.4-.5.5-1.2.4-1.8,0-.2-.3-1.3-.4-1.3-.1-.1-.3.3-.4.4-.4.5-1.1,1.2-1.1,1.9,0,.2.2.5.2.7s-.1.2-.1.3c-.1.6-.2,1.1-.2,1.7-.1.1-.9-.8-.9-.9-1.2-1.6-1.2-3-3.4-3.6-.2,0-1.1-.3-1.2-.2-.2.3.2.7.3,1,.4.9.2,1.8.9,2.6.6.7,1.7,1.3,2.6,1,0,0,.2-.2.3-.1,0,0,.4.6.6.7.1.1.8.5.8.5,0,.2-.3,1.2-.4,1.5,0,.4,0,.7,0,1.1,0,.5-.2,1.1-.2,1.6,0,.7,0,1.4.1,2.1-.2,0-.4-.3-.6-.2-.2,0-.5.4-.6.4-.2,0-.3,0-.5,0,0,0,0,.1-.1.2-.1,0-.6.2-.8.3,0,0-.1,0-.2,0-.1,0-.2-.2-.4-.1-.1,0-.2.1-.4.2,0,0-.4,0-.5,0-.2,0-.9-.5-1.2-.6-1.3-.5-2.9-.7-4.3-.2,0,0,0,.2,0,.3,1.7-.6,3.9,0,5.3.9.4.2.8.6,1.2.8,1.5.7,3.4,0,5,.7h-1c-.9.2-.6,1.4-.3,2h-.8c0,.1.1-.1,0-.1-.2,0-.4.2-.6.3-.7.1-1.3-.1-1.9-.3,0,0,0,.1.1.2,0,0,.2,0,.2.2-.5,0-3.7-.2-3.8,0,0,0,0,.2,0,.2,2.2.2,4.5.4,6.7,0,.5,0,1.9-.4,2.2-.7.2-.2.2-.5.2-.8,0-.1-.2-.3-.2-.4,0-.4.8-1,1-1.3.2-.3.2-.7.4-1,.3-.6.7-1.2,1.4-1.3,0,.1-.2.1-.3.2,0,0,0,.1,0,.2,0,.2-.3,1.1-.2,1.2,0,0,.3.1.4.1-.1.2-.4,1.3-.4,1.4,0,0-.3-.1-.4,0,0,0,0,.2,0,.3,0,.1.3.1.3.2-.1.4-.7,1-.8,1.4h-.3c0,.2.2.4-.1.5l-.2-.2c0,0,.2.5,0,.4-.2,0-.2-.3-.2-.4,0,0-.1,0-.2,0,0,0,.2.6.2.6-1,.2-1.9.5-2.8.9-.7.3-1.7,1-2.4,1s-2.2-.8-3-1.1c-1.1-.4-2.3-.8-3.4-1.2h0c.2-.2.6-.2.5-.4,0-.1-.7.2-1.3.6,0,0,.2.1.2.2,0,0,.2,0,.2.1,0,0,0,0,0,0h0c.3,0,.5,0,.7.2,0,0,0,0,.1.1.8.3,1.7.5,2.5.8.9.4,2.4,1.2,3.4,1.1.9,0,2.2-.9,3.1-1.3,1-.4,2.5-.6,3.1-1.4,1.2-1.8,1.4-3.1,1.9-5,.2-.5,1.2-1.8.6-2.3-.3-.3-1.1,0-1.4.1-.1.1-.4.4-.5.4,0,0-.2,0-.4,0-.4,0-.9.4-1.1.7-.2.2-.8,1.3-.8,1.3-.1,0,0-.2-.1-.2,0,0-.4-.1-.4-.1-.3,0-.5.2-.6.2s-.4,0-.5,0c-.1,0-.2-.2-.4-.2,0-.3,0-.6,0-.8,0-1.3,0-2.3.7-3.4.6-.9.8-.5,1.6-.7.3,0,.6-.2.8-.4.2-.1.7-.7.7-.9,0-.3-.2-.1-.4-.1-.6,0-1-.3-1.6,0-.7.3-1.2,1.3-1.6,1.9-.1.1-.1-.3-.1-.4,0-.3.8-2.2,1-2.5h0ZM17.4,7s-.7-.3-.8-.3c0,0,0-.3.1-.4,0-.3-.2-.6-.4-.8.4,0,.7,0,.9.4,0,0,.1.3.1.3v.8h0ZM17.5,7.1c.1-.4.1-.8,0-1.2.6.2.7.8.5,1.4h-.5ZM18.9,7.3c-.3,0-.6,0-.9-.1.1-.2.3-.5.2-.8.5.1.8.3.7.9ZM20.1,7c-.2.3-.7.3-1,.4v-.5c.3.1.7.2,1,.2ZM19.7,6.7s.1,0,.1.1c-.4,0-.8-.2-1.1-.3l.5-.4c.1.2.3.4.5.6h0ZM18.8,6.1c-.5.3-.6,0-.9-.4.4,0,.6-.2.8-.5.2.3.7.5.1.9ZM17.6,4.8c.1,0,.9.3.9.4,0,.2-.6.4-.7.4-.3,0-.4-.2-.7-.3.1,0,.5-.5.5-.5ZM16.3,4.9c.4-.1.7-.2,1.1-.1-.4.5-.9.3-1.5.3,0,0,.3-.2.4-.2h0ZM16.5,6.5c-.3-.2-.6-.4-.8-.7,0,.1.2.2.2.3-.3,0-.4-.6-.8-.5.8-.7,1.5-.2,1.4.8ZM11.6,5.8c-.1,0-.6-.2-.6-.3,0-.1,0-.8,0-.9.1,0,.8,1.2.7,1.2h0ZM10.8,5.4c-.8-.2-.7-.8-.4-1.4.7.3.2.9.4,1.4ZM10.4,3.9c-.2.2-.4.6-.4.9-.5-.3-.5-.9-.1-1.4l.5.5h0ZM9.8,3.4l-.3.8-.4-.4.3.6c-.2,0-.5,0-.8,0,0-.5-.2-1.1-.4-1.6.5,0,1.1.3,1.6.5ZM8.9,4.8v.4c0,0-.3-.8-.3-.8.2,0,.6,0,.8,0,.1,0,.4.5.6.7-.2-.1-.8.2-.8.2,0,0-.3-.4-.2-.5ZM9.3,5.3c.6-.2,1,0,1.5.3,0,0-.6.4-.6.4-.1,0-.9-.6-.9-.7h0ZM10.5,6.5c0,0-.3,0-.3-.2.4,0,.8.1,1.2.1.2-.1-.5-.1-.5-.1-.2,0-.4-.1-.6-.2.4-.5,1.2-.2,1.5.3-.4.2-.9.1-1.3,0ZM16,8.3c.2,0,.4,0,.6,0,0,.1-.4.4-.5.4,0,0-.3-.3-.4-.3,0,0,.2,0,.3-.1h0ZM16.1,8.8l-.5.2-.6-.2c.3-.2.8-.3,1,0ZM15,3.1c.1.5,0,.6-.4.8,0-.3.1-.6.4-.8ZM15,3.8c0,.1,0,.5-.1.6,0,0-.5.2-.5,0,0-.3.4-.5.6-.6ZM14.1,3.2c.3.2.3.7.2,1-.2-.2-.3-.5-.5-.5,0,0,.2-.4.3-.4h0ZM13.7,3.7c.6.2.5.9.2,1.3-.1,0-.1-.2-.1-.3,0-.2,0-.4,0-.6v.5c-.2-.3-.1-.6,0-.9ZM15.5,18.3c-.1.2-1.6.6-1.9.4,0-.1.1,0,.2,0,0,0,0-.9,0-1,0-.1-.2,0-.2-.1.5,0,1-.3,1.5,0,.1.1.4.6.4.5h0s0,.2,0,.3h0ZM18.6,14.9s-.3,0-.4.2c0,0,.1-.8.2-.8,0,0,.2,0,.3,0,0,0,0,.6-.1.7ZM18.9,12.3c.2,0,.5,0,.6.1-.5.1-.7.7-.8,1.1-.7-.2-1.3.4-1.7.9.2-.9.9-2.1,1.9-2.2h0ZM17.4,13c-.4.6-.5,1.2-.8,1.8-.3,0-.6,0-.9-.1.4-.7.8-1.5,1.6-1.7ZM13.2,10.5h.3c-.5.5-.4,1.1-.4,1.9,0,.7,0,1.3,0,2,0,.2,0,.6,0,.7,0,.3.5,0,.8,0,0-.1,0-.1-.1-.1-.3,0-.4.2-.4-.3.2,0,.2.1.4.2,0,0,.6,0,.6,0,.1,0,.3-.5.7-.1,0,0,.1.1.2.2,0,0,.2,0,.1.2,0,0-.2,0-.1.1.1,0,.3-.2.2-.3h.6c0,.1-.2.4-.2.4.2,0,.3-.1.3-.3.2,0,.2,0,.1.3l.2-.2c.3.5-.3,1.1-.6,1.3-.1.1-.4.2-.5.4v-.4s0,.3,0,.3c0,0-.2,0-.2,0,0-.1.4-.3.3-.4-.2,0-.3.3-.4.3-.2,0-.2-.2,0-.3,0,0,.4-.2.2-.2s-.3.4-.4.4c0,0-.3-.1-.4-.1,0,0,.4-.3.3-.4,0,0-.3.3-.5.3-.2,0-.5-.1-.7-.1l.2-.2c-.3,0-.4.2-.7.2v-.3c-.1.2-.3.3-.7.3v-.2c-.2.3-.4.2-.8.2l.2-.3c-.4.3-.7.3-1.2.2,0,0,.2-.1,0-.1-.2,0-.6.2-.8-.2,0,0,.5,0,.3-.1-.1-.1-.4,0-.5,0-.1,0-.5-.2-.3-.4.2-.1.6.1.9,0,0,0,.1-.1.2-.2.2,0,.5-.3.6-.3s.2,0,.3,0c.3,0,.6-.4.7-.4.1,0,.5.2.6.2h-.5c0,0,0,.1,0,.1.1,0,.3,0,.5,0,0,0-.3.1-.2.2,0,0,.1,0,.2,0s0,.2.2,0c0-.9-.2-1.8-.1-2.8,0-.9.1-1.8.2-2.7,0-.6.5-1.4.4-1.8,0-.1-.6-.4-.8-.5-.2-.2-.5-.5-.6-.7.1,0,.1,0,.2.1.2.2.3.4.5.6.1,0,.6.4.7.3,0,0,.1-1.2.2-1.5.1-.8.4-1.3,1.1-1.7.1,0-.2.5-.3.5,0,0-.3.4-.3.4,0,0-.1,0-.2,0-.3.4-.2,1.6-.3,2.1,0,0,.2-.1.2,0,0,.5-.5,1.1-.6,1.6,0,.4,0,.9,0,1.3h0Z"/>
      <g>
        <path class="st0" d="M8.3,20.3s0,.1,0,.1c0,0-.7-.3-.8-.3-.3-.1-.9-.2-1.2-.4,0,0-.1,0,0-.1,0,0,2,.6,2.1.7h0Z"/>
        <path class="st0" d="M8.1,15.5c0,0-.6-.2-.7-.3-.4-.2-.9-.3-1.3-.4,0,0,0-.1,0-.2,0,0,1.1.2,1.2.3,0,0,.9.4.8.5Z"/>
        <path class="st0" d="M11.3,17.2c0,0-.3.4-.2.5-.1.3-.1.6-.1.9s.1.3,0,.4c-.2-.3-.1-.7,0-1.1,0-.1.3-.9.5-.7Z"/>
        <path class="st0" d="M12,17.1c.1.2-.1,1.6-.4,1.6s.1-.6.1-.7c0-.2,0-.5.1-.7,0,0,0-.2.1-.2Z"/>
        <path class="st0" d="M11.1,18.4c-.1-.1.2-1,.4-1l-.3.9s-.1,0-.2,0Z"/>
      </g>
    </g>
  </g>
</svg>