<?xml version="1.0" encoding="UTF-8"?>
<svg id="Layer_1" xmlns="http://www.w3.org/2000/svg" version="1.1" viewBox="0 0 24 24">
  <!-- Generator: Adobe Illustrator 29.3.0, SVG Export Plug-In . SVG Version: 2.1.0 Build 146)  -->
  <defs>
    <style>
      .st0 {
        fill: #7f1524;
      }
    </style>
  </defs>
  <g id="nDpVH7">
    <g>
      <path class="st0" d="M16.5,16.5c-.6-.6-1.9-2.9-2.3-3.1-.2,0-.4,0-.5,0-.7.5.1,3.2.1,4,.1,1.4-.3,3.5-1.7,4.1-3.8,1.5-5.8-3-3.5-5.7.5-.6,2.3-1.7,1.7-2.7s-2.2.4-3,.7c-1.4.5-2.2.5-3.2-.7-1.6-2,.2-4.1,2.4-4.1.8,0,2.5.7,3.2.3.4-.3.3-.8-.1-1-1.1-.8-3.4-1.1-4.4-2.1-1.8-1.8,1.6-4.4,3.4-4.4,1.1,0,2.2,1,2.7,1.9.3.5,1,3.1,1.4,3.2.4,0,1.4-2.5,1.7-3,1.9-2.4,5.7-1,5.2,2.1-.3,1.8-3.9,2.2-4.2,3.3-.5,1.6,1.5,1.2,2.4,1.3,1.5.2,3,.6,3.8,1.9,2.3,3.7-2,6.9-5.2,3.8ZM8.6,20.9c1.1,1.2,3.4,1,4.3-.4,1.2-2,.2-3.6.2-5.5,0-.7.1-2.2,1.2-1.9.6.2,1.7,2.3,2.2,3,2.8,3.1,7,.6,5-3-1.2-2.2-3.5-1.7-5.5-2.2-.7-.2-1.1-.7-.9-1.4.5-1.8,5.1-1.5,4.2-4.5-.7-2.3-3.6-2.2-4.9-.4-.4.5-1.1,2.9-1.6,2.9-1.1-.6-1.1-1.9-1.6-2.9-1-2.2-3-2.8-5-1.3-.8.7-1.9,2-1,3,.2.2,1.3.8,1.7,1,.8.4,4.3,1.2,3,2.6-.6.6-3-.2-4-.1-2,.2-2.9,2-1.6,3.6.8,1,1.6.9,2.7.5,1-.3,2-1.6,3-.9,1.9,1.1-1.4,3.2-1.9,4.3-.5,1.1-.4,2.9.5,3.8h0Z"/>
      <path class="st0" d="M13.1,13c-.7.7,0,3.9-.2,5,0,.8-.8,2.3-1.6,2.7-1,.5-2.7-.4-2.8-1.4-.3-2.3,1.3-2.9,2.1-4.6.6-1.4.6-3-1.4-2.3-1.2.4-3.2,1.8-4.4.7-.6-.5-.9-1.6-.3-2.3.7-.8,2.2-.1,3.1-.1,1.1,0,3.6-.6,2.7-2.1-.8-1.3-4.2-1.9-4.8-2.9-.6-1.1,1.5-2.7,2.6-2.7,3.1,0,2.4,3.5,4,5,1.4,1.3,1.9-1.6,2.3-2.3.1-.2.4-.7.6-.9,2.2-2.4,5.3.3,2.5,2.4-.9.7-2.6,1.1-3.1,2.1-1.2,2.4,3.5,2.6,4.7,2.9,1,.2,1.7,1,1.8,2,.4,2.5-1.4,3.2-3.4,2-1.3-.8-2.5-3.2-3.7-3.4-.2,0-.8,0-.9.1h0ZM7.8,3.3c-.8.1-2.3,1.4-1.9,2.3.2.5,3.8,1.6,4.7,2.7,1,1.4-.4,2.4-1.7,2.6-1.2.2-2-.2-3.1-.2-1.2,0-1.6,1.1-.8,2,1.5,1.8,4.4-1.5,5.9-.5.7.5.5,1.8.2,2.5-.6,1.5-3.3,3.6-1.9,5.3,1.8,2,3.4-.6,3.5-2.4,0-1.4-1.1-5.5,1.4-5,1.4.3,1.6,1.4,2.4,2.3.5.6,2,1.6,2.8,1.7,2.1.1,1.9-3.4,0-4-1.5-.4-5.8-.4-5.3-3,.4-1.9,3.8-2.1,4.2-3.8s-1.4-2-2.6-1.2c-.4.2-.9,1-1.1,1.4-.4.9-.8,3.5-2.4,2.3-1.9-1.4-1.1-5.6-4.4-5h0Z"/>
      <path class="st0" d="M12.2,9.5c1.5-.3,2.3,2.5.8,2.8-1.8.4-2-2.6-.8-2.8ZM11.9,10c-.6.6,0,2.4.9,2.1,1.1-.4.8-2.3-.4-2.3-.1,0-.4,0-.5.1h0Z"/>
      <path class="st0" d="M12.1,11.6c-.7-.7.5-2,1-.8.3.8-.6,1.3-1,.8ZM12.3,11.3c.4.4.8-.5.4-.7-.5-.3-.8.4-.4.7Z"/>
    </g>
  </g>
</svg>