<?xml version="1.0" encoding="UTF-8"?>
<svg id="Layer_1" xmlns="http://www.w3.org/2000/svg" version="1.1" viewBox="0 0 24 24">
  <!-- Generator: Adobe Illustrator 29.3.0, SVG Export Plug-In . SVG Version: 2.1.0 Build 146)  -->
  <defs>
    <style>
      .st0 {
        fill: #7f1524;
      }
    </style>
  </defs>
  <g id="lcF7XB.tif">
    <path class="st0" d="M11.4,2c.2,0,1.1.3,1.2.4,0,0,.4.4.4.4.2,0,.3-.3.4-.4.4-.3,1-.5,1.4-.3,0,0,.6.6.6.7.8,2.1-.3,5.3-1.6,7-.1.2-.6.7-.8.7-.2,0-.2-.2-.2-.2,0,0-.7.3-.9.3v2c.1,0,.5-.3.5-.4.6-.6,1.3-1.2,1.8-1.9.9-1.1,1.7-2.1,2.7-3.1,0,0,.4-.4.5-.2,0,.1,0,.3,0,.4s.3.6.3.7c.3,1,0,3.9-.4,4.8-.4.8-2.1,2.8-2.7,3.3-.9.7-2.7,1.3-3.7,1.7-.1,0-.5,0-.6.2-.2.5-.6,1-.8,1.5-.4.7-.6,1.5-1.1,2.1-.1.2-.2.2-.4.1,0,0,0,0,0,0,0,0,0,0,0,0-.4-.1-.4-.1-.4-.6,0-.8.6-1.2,1-1.8.1-.2.6-.9.7-1.1,0-.1,0-.3,0-.5,0-.1.3-.5.4-.7.6-1.4,1.5-4.1,1.4-5.6,0,0-.1-.6-.2-.6-.1-.1-.9-.4-1.1-.4-.8-.4-1.5-.9-2.2-1.5-.9-.9-1.6-3.2-1.6-4.5,0-.7.4-1.6,1.1-1.8.6-.2,1.3,0,1.8.3.4-.8,1.6-1.2,2.4-1.1h0ZM8.9,4.4c0,.3,0,.8,0,1.1.2,0,.2-.3.2-.4.4-.7,1.4-1.3,2.2-1.3.2,0,.9.1,1.2.2.3,0,.5.3.8.4-.1-.4-.5-1.5-.8-1.7-.1,0-1-.3-1.2-.4-.6,0-1.8.2-2,.8,0,.2,0,.3,0,.4s-.1,0-.2.1c0,.1-.2.6-.2.8ZM14.9,2.6c-.3-.6-1.5,0-1.6.5,0,.2.4,1.1.5,1.4,0,0,0,.7.2.3.1-.2.9-1.9,1-2,0-.1,0-.1,0-.2ZM8.4,3.1c-.4-.1-.8,0-1.2,0,0,.2,0,.4,0,.5,0,.2.8.7,1,.9.1.2.2.5.4.6,0-.7.1-1.2.3-1.9-.1,0-.3-.2-.4-.2h0ZM15.3,3.1c-.2,0,0,0-.1.1-.2.4-1.1,1.9-1.1,2.2,0,.2.2.8.2,1,.1,1-.2,2-.7,2.9,0,.1-.1.4-.2.5,0,.2-.4.3-.3.4,0,0,.5-.5.6-.6,1-1.3,1.9-3.7,1.8-5.3,0-.4-.2-.8-.2-1.2h0ZM6.9,3.4h-.1c-.4.7-.4,1.3-.3,2.1,0,.9.8,2.8,1.4,3.5.6.6,1.4,1.2,2.1,1.5,0,0,.2,0,.3,0-.3-.2-.5-.6-.7-.9-.3-.6-.9-1.7-.9-2.3v-1.2s0,0-.1,0c-.2-.2-.6-1-.8-1.3-.1-.2-.8-.6-.8-.7,0-.2,0-.5,0-.5h0ZM11.8,4.2c-.2,0-1,0-1.2,0-.2,0-1,.7-1.1.8,0,0,0,.3,0,.3-.1.2-.3.2-.4.6-.2,1.3.2,2.7,1,3.8.5.8,1.9.8,2.7.2.6-.4,1.1-2.1,1.2-2.8,0-.7-.1-2.1-.7-2.5,0,0-.8-.4-.9-.4s-.3,0-.3,0c0,0,0,.2-.3.2-.2,0,.2-.3,0-.4h0ZM17.2,7.5c-.5.5-.9.9-1.4,1.4-.7.8-1.2,1.6-1.9,2.4-.4.5-1,1-1.4,1.4,0,0-.4.2-.4.3,0,.1-.1.9-.2,1.2,0,.4-.2.9-.3,1.2,0,.2-.4,1-.4,1.1h0c1.1-.8,2-1.9,2.8-3,.5-.7,1.2-1.9,1.5-2.7,0-.1.3-.9.3-1,.2-.2.3,0,.3.2,0,0-.1.1-.1.1-.7,1.9-2.2,4.4-3.8,5.8-.5.5-1.3.8-1.4,1.6.7-.2,1.5-.5,2.2-.8,1.5-.6,1.7-1.1,2.6-2.2.5-.6,1.1-1.1,1.4-1.9.3-.8.5-3.4.4-4.2,0-.1-.3-.9-.4-.9h0ZM11.2,10.7s-.4,0-.4.1c.2.1.2.1.4-.1ZM11.9,10.8h-.6c.1.2,0,.5,0,.8,0,.3.2.8,0,1.1-.3,2.7-1.3,5.2-2.8,7.4-.1.2-.4.5-.5.7s0,.5-.2.8c0,.1.2.1.3.2,0-.3.4-.5.5-.8.3-.5.5-1.1.7-1.6.6-1.1,1.3-2.3,1.7-3.5.6-1.7.8-2.7.6-4.5,0-.2,0-.4.1-.6h0ZM10.6,17.7h-.1v.2h.1v-.2Z"/>
  </g>
</svg>