<?xml version="1.0" encoding="UTF-8"?>
<svg id="Layer_1" xmlns="http://www.w3.org/2000/svg" version="1.1" viewBox="0 0 24 24">
  <!-- Generator: Adobe Illustrator 29.3.0, SVG Export Plug-In . SVG Version: 2.1.0 Build 146)  -->
  <defs>
    <style>
      .st0 {
        fill: #7f1524;
      }
    </style>
  </defs>
  <g id="nDpVH7">
    <g>
      <path class="st0" d="M4.2,13.1c-1.7-1.8-.8-5.2,2.1-4.8,1.4.2,2.3,1.9,3.6,1.6.3,0,.4-.3.4-.6-.1-.8-2.1-2.5-2.5-3.4-1.8-3.6,4.8-6.2,6.1-1.5.3,1.2,0,2.3,0,3.5,0,.3,0,1.2.2,1.3.4.1,1.8-1.8,2.3-2.2,1.5-1.1,4.5-.9,4.9,1.3.2.9,0,2.2-.6,2.9-1.4,1.6-3.8.4-5,1.4s2,1.8,2.5,2c2.7,1.3,2.6,4.6,0,6.1-.8.4-2.4.4-3.2,0-1.8-.9-.5-3.8-1.9-5-.7-.6-.9,0-1.2.6-.8,2-.8,4.5-3.4,5.3-2.2.7-5.1-.7-4.2-3.2s2.3-2.2,3.9-3.4c.7-.5,1.3-1.3,0-1.5-1.3-.2-2.9.5-3.9-.5h0ZM20.2,8.8c-.1-.7-.9-1-1.5-1.1-1.8-.1-3.5,2.7-4.8,2.8-1.7,0-1.2-2.8-1.3-3.8,0-1.4-.5-3.9-2.5-3.2-.4.1-1.1.7-1.2,1.1-.3,1.8,3.5,4,2.3,6-1.5,2.4-3.8-1.1-5.2-.9-1,.1-2,1.9-1,2.7,1.3.9,5.1-.6,5.2,1.6,0,2.2-5.2,3.3-4.7,5.8.3,1.5,2.6,1.1,3.5.4,1.4-1,1.5-2.7,2.1-4.1.3-.6.5-1.3,1.2-1.4,2.7-.3,1.9,2.8,2.9,4.2,1.5,2.1,4.2.7,3.6-1.5-.5-1.8-2.7-1.8-4-2.8-1.8-1.3.3-3.2,1.8-3.5.5-.1,1.1,0,1.6,0,1.1-.1,2.2-1.1,2-2.3h0Z"/>
      <path class="st0" d="M13.1,12.5c.1,2-2.1,1.9-2.2.3-.1-1.4,2.1-1.7,2.2-.3ZM11.7,12.5c-.4.6.7.7.6,0,0-.2-.5-.1-.6,0Z"/>
    </g>
  </g>
</svg>