<?xml version="1.0" encoding="UTF-8"?>
<svg id="Layer_1" xmlns="http://www.w3.org/2000/svg" viewBox="0 0 24 24">
  <g id="nDpVH7">
    <g>
      <path d="M16.5,16.51c-.56-.56-1.85-2.93-2.32-3.06-.16-.04-.4,0-.53.09-.7.47.1,3.23.15,3.99.1,1.4-.27,3.55-1.73,4.15-3.78,1.54-5.78-2.98-3.51-5.7.51-.61,2.27-1.71,1.67-2.7s-2.23.43-2.98.7c-1.37.5-2.23.54-3.21-.66-1.64-2,.15-4.11,2.43-4.05.83.02,2.54.73,3.17.29.43-.3.27-.76-.11-1.03-1.09-.75-3.38-1.07-4.39-2.08-1.77-1.78,1.61-4.43,3.42-4.45,1.1-.01,2.21.98,2.73,1.89.3.53,1.02,3.1,1.42,3.2.37.09,1.35-2.5,1.74-2.99,1.87-2.37,5.74-.95,5.21,2.1-.31,1.84-3.9,2.21-4.22,3.28-.47,1.58,1.54,1.2,2.43,1.33,1.49.22,2.99.61,3.83,1.94,2.29,3.66-2.04,6.92-5.2,3.76ZM8.65,20.9c1.13,1.21,3.45,1.04,4.31-.41,1.16-1.95.24-3.58.16-5.5-.03-.7.1-2.18,1.16-1.86.62.19,1.69,2.33,2.25,2.96,2.77,3.1,6.96.56,5.04-2.96-1.22-2.25-3.47-1.66-5.54-2.2-.69-.18-1.09-.71-.89-1.43.48-1.78,5.11-1.48,4.19-4.52-.7-2.31-3.6-2.21-4.87-.43-.38.53-1.08,2.89-1.62,2.88-1.1-.55-1.11-1.94-1.56-2.95-.99-2.23-3.01-2.84-4.97-1.27-.82.65-1.91,1.97-1.04,3.01.19.23,1.35.8,1.69.96.82.38,4.28,1.16,2.98,2.55-.57.62-2.99-.22-4.02-.1-1.99.24-2.93,2.04-1.57,3.63.83.97,1.56.91,2.72.52,1-.34,1.98-1.57,3.02-.95,1.85,1.1-1.42,3.16-1.9,4.27s-.37,2.89.47,3.8Z"/>
      <path d="M13.14,13c-.72.67-.02,3.85-.16,4.98-.09.79-.83,2.33-1.56,2.71-.98.51-2.69-.37-2.82-1.43-.27-2.28,1.32-2.88,2.1-4.6.64-1.4.57-3-1.4-2.33-1.2.41-3.17,1.82-4.4.69-.59-.54-.86-1.63-.29-2.26.69-.76,2.22-.12,3.12-.1,1.09.02,3.63-.58,2.7-2.13-.81-1.35-4.24-1.86-4.82-2.92-.59-1.07,1.47-2.71,2.58-2.7,3.12.05,2.37,3.52,3.98,5.03,1.39,1.3,1.89-1.57,2.31-2.32.13-.24.45-.66.64-.86,2.19-2.36,5.28.27,2.52,2.41-.89.69-2.55,1.1-3.06,2.13-1.19,2.41,3.45,2.59,4.74,2.93.96.25,1.67.96,1.84,1.97.42,2.49-1.44,3.17-3.4,2.02-1.33-.78-2.5-3.19-3.68-3.37-.25-.04-.76-.03-.94.14ZM7.77,3.3c-.78.13-2.29,1.44-1.88,2.28.25.5,3.83,1.56,4.68,2.71,1.03,1.41-.39,2.38-1.7,2.57-1.19.17-2.04-.16-3.09-.2-1.19-.04-1.55,1.08-.8,1.97,1.47,1.75,4.39-1.53,5.94-.52.74.48.47,1.78.18,2.47-.62,1.48-3.33,3.64-1.85,5.32,1.76,2,3.45-.62,3.53-2.37.06-1.36-1.13-5.51,1.39-4.97,1.41.3,1.61,1.43,2.42,2.31.55.6,2.03,1.61,2.84,1.67,2.13.15,1.89-3.44.05-3.99-1.51-.45-5.83-.37-5.29-2.97.4-1.91,3.79-2.05,4.19-3.77s-1.42-2.02-2.6-1.21c-.37.25-.94.99-1.14,1.4-.44.87-.84,3.49-2.45,2.29-1.91-1.43-1.05-5.58-4.42-5Z"/>
      <path d="M12.16,9.53c1.47-.27,2.34,2.49.76,2.84-1.78.4-2.02-2.62-.76-2.84ZM11.87,10c-.62.62-.03,2.41.9,2.12,1.13-.36.82-2.28-.41-2.27-.13,0-.4.06-.5.15Z"/>
      <path d="M12.1,11.56c-.7-.7.54-2.02,1.02-.84.33.81-.61,1.26-1.02.84ZM12.33,11.33c.39.42.78-.49.44-.73-.49-.34-.75.4-.44.73Z"/>
    </g>
  </g>
</svg>